M48
;Layer_Color=9474304
;FILE_FORMAT=2:5
INCH
;TYPE=PLATED
T01F00S00C0.00787
T02F00S00C0.03504
T03F00S00C0.03543
T04F00S00C0.03937
T05F00S00C0.04016
T06F00S00C0.06417
T07F00S00C0.09055
%
T01
X0418061Y0449464
X0421811
X0430561Y0448839
X0438061Y0451339
X0453740Y0448819
X0451279Y0442421
X0459646
X0467028Y0442421
X0466535Y0447761
X0462795
X0451279Y0458169
X0470276Y0447761
X0474606
X0478346
X0482087
X0479331Y0442421
X0474902Y0442421
X0487205Y0442421
X0495079Y0451772
X0498032
X0500984
X0501968Y0445866
X0504429Y0448327
X0512795Y0455709
X0566929Y0466535
X0568898
X0570866
X0572835
X0583061Y0456339
X0595561Y0451339
X0601811Y0450089
X0568898Y0444882
Y0475394
Y0483268
Y0492126
X0547244Y0496063
X0545276
X0546260Y0500000
Y0501968
X0549213
Y0500000
X0543307
Y0501968
Y0505905
Y0507874
X0547244
Y0505905
X0539370
X0534449Y0507874
X0532480Y0511811
X0530512
X0528051
X0525098
Y0517717
X0528051
X0532441Y0515748
X0532480Y0519685
Y0523622
X0532441Y0527559
X0532480Y0531496
Y0535433
X0532441Y0539370
X0532480Y0543307
Y0547244
X0532441Y0551181
X0532480Y0555118
X0528051Y0553150
X0525098
Y0549213
X0528051
Y0541339
X0525098
Y0537402
X0528051
Y0529528
X0525098
Y0525591
X0528051
X0537402Y0527559
X0539370
X0538386Y0523622
X0537402Y0515748
X0539370
X0538386Y0511811
X0552165Y0509842
X0554134
X0556102
X0564961Y0522638
Y0524606
Y0526575
Y0528543
X0565945Y0530512
X0562992Y0536417
Y0538386
X0561024Y0543307
Y0545276
X0562992Y0559055
Y0561024
X0547244Y0562008
X0541339
Y0558563
X0543307
Y0566929
X0541339Y0565945
X0535433Y0562008
X0529528
X0523622
X0521654Y0558563
X0519685
X0517717Y0562008
X0510827Y0559055
X0508858
X0509350Y0557087
X0507382
X0500984
Y0555118
X0499016
Y0557087
Y0559055
X0500984
X0497047Y0555118
X0492126Y0554626
X0491634Y0552658
X0492126Y0549213
Y0547244
X0490158
X0488189
Y0549213
X0486221
Y0547244
X0488189Y0543307
Y0539370
X0486221Y0537402
X0484252
X0480315Y0537402
Y0535433
Y0533464
Y0531496
X0482283Y0531496
X0484252
X0482283Y0527559
X0478346Y0527559
X0476378
Y0525591
X0474409Y0525591
Y0527559
X0470472Y0527559
Y0529528
Y0531496
Y0533464
Y0535433
Y0537402
X0472441
Y0541339
Y0543307
Y0545276
X0470472Y0545276
Y0547244
Y0551181
Y0553150
X0472441
Y0551181
X0468996Y0555610
X0471457Y0559055
X0471211Y0561270
X0473425Y0562992
X0474508Y0564961
X0477362
Y0567913
X0480315
Y0570768
X0485728Y0570374
X0487205Y0572342
X0485236Y0575787
X0486221Y0584646
Y0586614
X0480315Y0583661
X0473425
X0474902Y0575787
X0471949Y0572342
X0473425Y0570866
Y0568898
Y0566929
X0471457
X0469488Y0564961
X0469980Y0570374
X0480315Y0564961
X0483268
Y0562008
X0480315
X0477362
X0476378Y0558071
X0478346
X0480315Y0557579
X0482283Y0557072
X0485236Y0557579
X0484252Y0555118
X0486221Y0554626
X0492126Y0558071
Y0564961
Y0566929
Y0570866
X0498032
X0503937
X0509842
X0505905Y0566929
Y0564961
X0512795Y0553150
Y0551181
X0514764
Y0553150
Y0549213
X0512795
X0507874Y0547244
Y0545276
X0505905
X0505905Y0537402
Y0535433
X0507874
Y0537402
X0501968
X0500000Y0537402
Y0535433
Y0531496
X0501968Y0531496
X0501968Y0529528
X0503937Y0529528
X0505905Y0529528
X0505905Y0527559
X0505905Y0525591
X0503937Y0525591
X0503937Y0527559
X0501968Y0527559
X0500000Y0523622
Y0521654
X0501968
X0501968Y0519685
X0503937
X0505905Y0519685
X0507874
Y0523622
X0505905
X0507874Y0525591
Y0527559
Y0529528
Y0531496
X0512795Y0529528
Y0527559
Y0525591
X0514764
Y0527559
Y0529528
Y0537402
Y0539370
X0512795
Y0541339
X0514764
X0494095Y0543307
X0492126
Y0537402
Y0535433
X0494095
X0496063Y0535433
Y0537402
X0490158
Y0535433
X0488189Y0533464
X0490158Y0531496
X0492126
X0494095
X0496063
X0494095Y0527559
X0492126Y0527559
X0490158
Y0523622
X0492126
X0494095
Y0525591
Y0521654
X0492126Y0519685
Y0515748
X0490158
X0488189
Y0517717
X0486221
Y0515748
X0484252Y0515748
X0482283Y0515748
X0480315
Y0517717
Y0519685
X0476378
X0474409
Y0521654
X0476378Y0517717
Y0515748
Y0513779
X0478346Y0515748
X0482283Y0513779
X0482283Y0511811
X0482283Y0509842
X0484252Y0509842
X0484252Y0511811
X0482283Y0507874
X0480315Y0507874
Y0505905
X0476378
Y0507874
X0474409Y0507874
Y0505905
X0472441Y0507874
X0470472Y0509842
Y0511811
X0472441Y0513779
X0472441Y0517717
X0470472Y0523622
X0480315Y0525591
X0484252
X0486221Y0527559
Y0523622
X0488189Y0521654
X0484252Y0519685
X0482283Y0521654
X0476378Y0531496
Y0533464
X0474409
X0476378Y0535433
Y0541339
X0474409Y0541339
Y0539370
Y0543307
X0478346Y0549213
X0482283Y0539370
X0487205Y0564961
Y0566929
X0498032Y0577756
Y0579724
X0517224Y0580709
X0517717Y0578740
X0522146Y0579232
X0523622Y0577756
X0527559Y0573327
X0529528Y0572835
X0536909Y0573327
X0535433Y0574803
X0551181Y0569882
X0553150Y0570374
X0549213Y0549705
X0539370Y0551181
X0537402
X0538386Y0547244
X0537402Y0539370
X0539370
X0538386Y0535433
X0549213Y0535433
Y0525591
X0514764Y0517717
X0512795
Y0515748
X0514764
Y0513779
X0512795
X0507874Y0513779
Y0511811
X0505905
Y0509842
X0503937Y0509842
X0501968Y0509842
X0501968Y0507874
X0500000Y0507874
X0498032Y0507874
Y0505905
X0500000
X0503937Y0505905
X0505905
X0509842Y0507874
Y0509842
X0515256Y0507874
X0522146
X0527559Y0503937
X0507874Y0501968
X0505905Y0513779
X0501968
X0500000
X0498032Y0515748
X0496063Y0515748
Y0513779
X0494095Y0511811
Y0509842
X0494095Y0507874
Y0505905
X0490158
Y0507874
X0488189
X0486221Y0507874
Y0505905
X0490158Y0509842
X0492126
X0490158Y0513779
X0498032Y0517717
X0492126Y0503937
X0490158Y0501968
X0489665Y0500000
X0489173Y0498032
X0492618Y0497539
Y0479823
X0491142Y0477854
X0488681
X0487697Y0479823
X0481791
X0479823Y0480807
X0477854
Y0483268
X0479823
X0480807Y0477854
X0473425
X0474409Y0479823
X0470965Y0481299
X0469488Y0480315
Y0482776
X0470965Y0483760
Y0469980
X0474409Y0471457
X0476378
X0484744Y0471949
X0486713
X0488681
X0490650
X0492618
X0495079Y0474409
X0498032
X0504921Y0469488
X0604311Y0468839
X0597436Y0498839
Y0509464
X0591811Y0508839
X0593686Y0511964
X0581811Y0510089
X0608061Y0508839
X0609936
X0576811Y0547589
X0578740Y0620079
X0572835
X0584646
X0590551
X0596457
X0610236Y0608268
X0523622Y0610236
X0519685Y0614173
X0517717Y0615158
X0515748Y0610236
X0496063
X0494095
X0486713Y0623032
X0483760
X0480807
X0477854
X0468504Y0611221
X0466535Y0610236
X0462598
X0460630Y0609252
X0452756Y0610236
X0444882
X0413386Y0620079
X0438061Y0560714
Y0558839
X0440561Y0560089
Y0561964
X0452756Y0562008
X0457677Y0562992
X0458760Y0564961
X0461614
Y0567913
X0464567
Y0564961
X0467520
Y0562008
X0464567
X0461614
Y0556595
X0463583Y0556348
X0465305Y0557087
X0467028Y0556102
X0462598Y0554626
X0460138Y0558071
X0453248Y0555610
Y0553642
X0451772Y0545768
Y0543799
Y0541831
X0448819Y0533957
X0448333Y0531983
X0446850Y0530020
X0444390Y0529035
X0442436Y0529464
X0439311Y0524464
Y0522589
X0429311
Y0524464
X0428061Y0516964
X0428686Y0515089
X0425561Y0509464
X0421811Y0520089
X0419936Y0520714
X0414311Y0518839
X0454724Y0515748
Y0513779
Y0511811
Y0507874
Y0505905
Y0503937
Y0501968
Y0495079
Y0489173
X0447436Y0487589
X0461614Y0479823
X0460630Y0477854
X0465059
X0466043Y0479823
X0465059Y0471949
Y0469980
X0464567Y0494587
X0468504Y0498032
X0467028Y0499508
X0466535Y0501968
X0464567
X0466535Y0503937
Y0505905
X0464567
Y0507874
Y0509842
Y0511811
X0466535Y0509842
Y0507874
X0468504
X0466535Y0513779
Y0515748
X0468504Y0519685
X0468504Y0521654
Y0523622
X0466535
Y0527559
X0464567Y0527559
X0468504Y0527559
X0468504Y0525591
Y0529528
Y0531496
X0466535
X0468504Y0537402
Y0539370
X0466535
X0464567
Y0541339
X0466535
X0464567Y0544783
X0466535Y0547244
X0460630Y0549213
X0458661
X0457677Y0566929
Y0568898
Y0570866
X0459154Y0575787
X0467520
X0464567Y0570866
X0467520Y0583661
X0457185Y0530020
X0455217
X0453248
X0413386Y0639764
X0572835
X0578740
X0584646
X0590551
X0596457
X0604331
X0610236
X0596457Y0631890
Y0627953
X0590551
Y0631890
X0584646
Y0627953
X0578740
Y0631890
X0572835
Y0627953
T02
X0535217Y0595079
X0464350
T03
X0566929Y0598425
X0576772
X0584646
X0594488
Y0608740
X0584646
X0576772
X0566929
T04
X0414311Y0443839
X0424311
X0434311
X0444311
Y0453839
Y0463839
X0434311
X0424311
X0414311
Y0453839
X0424311
X0434311
X0519311
X0529311
Y0443839
X0539311
X0549311
X0559311
Y0453839
X0549311
X0539311
X0519311Y0443839
X0579311
X0589311
X0599311
X0609311
Y0453839
Y0463839
X0599311
X0589311
Y0453839
X0599311
X0579311
Y0463839
Y0473839
X0589311
X0599311
X0609311
Y0483839
Y0493839
Y0503839
Y0513839
Y0523839
X0599311
X0589311
Y0513839
Y0503839
X0599311
Y0493839
X0589311
Y0483839
X0599311
X0579311
Y0493839
Y0503839
Y0513839
Y0523839
Y0533839
X0569311
Y0543839
Y0553839
Y0563839
Y0573839
Y0583839
X0579311
X0589311
Y0573839
Y0563839
Y0553839
X0599311
X0609311
Y0543839
Y0533839
X0599311
X0589311
Y0543839
X0599311
Y0563839
X0609311
Y0573839
Y0583839
X0599311
Y0573839
X0579311
Y0563839
Y0553839
Y0543839
X0599311Y0513839
X0444311
X0434311
X0424311
X0414311
Y0503839
Y0493839
Y0483839
Y0473839
X0424311
Y0483839
Y0493839
X0434311
X0444311
Y0483839
X0434311
Y0473839
X0444311
Y0503839
X0434311
X0424311
Y0523839
X0414311
Y0533839
Y0543839
Y0553839
Y0563839
Y0573839
X0424311
X0434311
X0444311
Y0563839
Y0553839
X0434311
X0424311
Y0543839
X0434311
X0444311
Y0533839
Y0523839
X0434311
Y0533839
X0424311
Y0563839
X0434311
T05
X0500217Y0585079
X0510217
X0520217
X0530217
X0525217Y0595079
X0515217
X0505217
X0454350
X0444350
X0434350
X0439350Y0585079
X0449350
X0459350
X0429350
X0430768Y0639370
X0420768
X0462933
X0472933
X0491634
X0501634
X0533799
X0543799
T06
X0477343Y0608071
X0487224
X0548209
X0416358
T07
X0554843Y0597047
Y0619409
X0606575
Y0597047
M30
