G04*
G04 #@! TF.GenerationSoftware,Altium Limited,Altium Designer,24.5.2 (23)*
G04*
G04 Layer_Physical_Order=5*
G04 Layer_Color=6710886*
%FSLAX25Y25*%
%MOIN*%
G70*
G04*
G04 #@! TF.SameCoordinates,883B40CB-B18D-427C-8B65-5A5AB1BE87B9*
G04*
G04*
G04 #@! TF.FilePolarity,Negative*
G04*
G01*
G75*
%ADD71C,0.04000*%
%ADD72C,0.04803*%
%ADD73C,0.04291*%
%ADD74C,0.07205*%
%ADD75C,0.13583*%
%ADD76C,0.04724*%
%ADD77C,0.06299*%
%ADD78C,0.04331*%
%ADD79C,0.09843*%
%ADD80C,0.01575*%
D71*
X-102362Y-102362D02*
X102362D01*
Y102362D01*
X-102362D02*
X102362D01*
X-102362Y-102362D02*
Y102362D01*
D72*
X-11594Y43740D02*
D03*
X-6594Y53740D02*
D03*
X-1595Y43740D02*
D03*
X3405Y53740D02*
D03*
X8405Y43740D02*
D03*
X13406Y53740D02*
D03*
X18406Y43740D02*
D03*
X31988Y98032D02*
D03*
X-20177D02*
D03*
X-91043D02*
D03*
X-38878D02*
D03*
X-52461Y43740D02*
D03*
X-57461Y53740D02*
D03*
X-62461Y43740D02*
D03*
X-67461Y53740D02*
D03*
X-72461Y43740D02*
D03*
X-77461Y53740D02*
D03*
X-82461Y43740D02*
D03*
D73*
X23405Y53740D02*
D03*
X-47461D02*
D03*
D74*
X-24587Y66732D02*
D03*
X36398D02*
D03*
X-34468D02*
D03*
X-95453D02*
D03*
D75*
X-16594Y78740D02*
D03*
X28405D02*
D03*
X-42461D02*
D03*
X-87461D02*
D03*
D76*
X57500Y-7500D02*
D03*
X77500Y-67500D02*
D03*
X97500Y-97500D02*
D03*
Y-87500D02*
D03*
X87500Y-97500D02*
D03*
X67500D02*
D03*
X77500D02*
D03*
Y-87500D02*
D03*
X97500Y-77500D02*
D03*
Y-67500D02*
D03*
X87500Y-77500D02*
D03*
Y-67500D02*
D03*
X77500Y-77500D02*
D03*
X67500D02*
D03*
Y-67500D02*
D03*
X97500Y-27500D02*
D03*
Y-17500D02*
D03*
X87500D02*
D03*
X77500D02*
D03*
X57500Y22500D02*
D03*
X77500Y-27500D02*
D03*
X97500Y-37500D02*
D03*
X87500D02*
D03*
X97500Y-57500D02*
D03*
X77500D02*
D03*
X-77500Y-97500D02*
D03*
X-67500D02*
D03*
X-97500D02*
D03*
X-87500D02*
D03*
X17500Y-87500D02*
D03*
X27500Y-97500D02*
D03*
X47500D02*
D03*
X7500D02*
D03*
Y-87500D02*
D03*
X57500Y32500D02*
D03*
Y2500D02*
D03*
Y12500D02*
D03*
X97500Y-7500D02*
D03*
X87500D02*
D03*
X77500D02*
D03*
X67500D02*
D03*
X97500Y-47500D02*
D03*
X87500D02*
D03*
X77500D02*
D03*
X67500D02*
D03*
X97500Y12500D02*
D03*
X87500D02*
D03*
X77500D02*
D03*
X67500D02*
D03*
X97500Y2500D02*
D03*
X77500D02*
D03*
Y-37500D02*
D03*
X67500D02*
D03*
X57500Y42500D02*
D03*
X77500Y22500D02*
D03*
X67500D02*
D03*
X77500Y32500D02*
D03*
X87500Y22500D02*
D03*
X97500Y32500D02*
D03*
Y22500D02*
D03*
X-67500Y-47500D02*
D03*
Y12500D02*
D03*
Y32500D02*
D03*
X97500Y42500D02*
D03*
X-67500Y-27500D02*
D03*
Y-87500D02*
D03*
X87500Y42500D02*
D03*
X77500D02*
D03*
X67500D02*
D03*
X-97500Y-77500D02*
D03*
Y-67500D02*
D03*
Y-57500D02*
D03*
Y-47500D02*
D03*
Y-37500D02*
D03*
Y-27500D02*
D03*
X-87500Y-77500D02*
D03*
Y-57500D02*
D03*
Y-47500D02*
D03*
Y-27500D02*
D03*
X-77500Y-77500D02*
D03*
Y-67500D02*
D03*
Y-57500D02*
D03*
Y-47500D02*
D03*
Y-37500D02*
D03*
Y-27500D02*
D03*
X-67500Y-77500D02*
D03*
Y-57500D02*
D03*
X-97500Y-17500D02*
D03*
Y-7500D02*
D03*
Y2500D02*
D03*
Y12500D02*
D03*
Y22500D02*
D03*
Y32500D02*
D03*
X-87500Y-17500D02*
D03*
Y2500D02*
D03*
Y12500D02*
D03*
Y32500D02*
D03*
X-77500Y-17500D02*
D03*
Y2500D02*
D03*
Y12500D02*
D03*
Y22500D02*
D03*
Y32500D02*
D03*
X-67500Y-17500D02*
D03*
Y2500D02*
D03*
X-77500Y-7500D02*
D03*
X-97500Y-87500D02*
D03*
X67500Y-17500D02*
D03*
X47500Y-87500D02*
D03*
X37500D02*
D03*
X27500D02*
D03*
X-87500D02*
D03*
D77*
X-11811Y-70866D02*
D03*
X-51181D02*
D03*
D78*
X82677Y57087D02*
D03*
X72835D02*
D03*
X64961D02*
D03*
X82677Y67402D02*
D03*
X72835D02*
D03*
X64961D02*
D03*
D79*
X94764Y55709D02*
D03*
X43031D02*
D03*
Y78071D02*
D03*
X94764D02*
D03*
D80*
X-52165Y-98917D02*
D03*
X-60532Y-83169D02*
D03*
Y-98917D02*
D03*
X-40846Y-71358D02*
D03*
X-46752D02*
D03*
X-64375Y-53750D02*
D03*
X-57087Y-52165D02*
D03*
X85625Y-42500D02*
D03*
Y-31875D02*
D03*
X80000Y-32500D02*
D03*
X81875Y-29375D02*
D03*
X57087Y-58071D02*
D03*
Y-65945D02*
D03*
Y-49213D02*
D03*
X65000Y6250D02*
D03*
X-5906Y3937D02*
D03*
X-19685Y23622D02*
D03*
X-13780Y29528D02*
D03*
X35433Y-35433D02*
D03*
X90000Y-91250D02*
D03*
X83750Y-90000D02*
D03*
X51181Y-4921D02*
D03*
X49213Y1969D02*
D03*
X51181Y17717D02*
D03*
X37402Y-41339D02*
D03*
X33465Y-45276D02*
D03*
X34449Y-41339D02*
D03*
X31496D02*
D03*
Y-35433D02*
D03*
X37402Y-5906D02*
D03*
Y8366D02*
D03*
X29528Y17224D02*
D03*
X9843D02*
D03*
X31496D02*
D03*
X7874D02*
D03*
X13287Y-29528D02*
D03*
X16240D02*
D03*
X25591Y9843D02*
D03*
X16240Y-15748D02*
D03*
X13287D02*
D03*
X16240Y-3937D02*
D03*
X13287D02*
D03*
X16240Y7874D02*
D03*
X13287D02*
D03*
X29528Y24606D02*
D03*
X39370Y28543D02*
D03*
X23622Y33465D02*
D03*
X17717Y31496D02*
D03*
X11811Y36417D02*
D03*
X5906Y37402D02*
D03*
Y20669D02*
D03*
X11811D02*
D03*
X17717D02*
D03*
X23622D02*
D03*
X29528D02*
D03*
X35433D02*
D03*
X40354Y-31496D02*
D03*
X42323D02*
D03*
X44291D02*
D03*
X53150Y-12795D02*
D03*
X61024Y-74803D02*
D03*
X55118D02*
D03*
X53150Y-18701D02*
D03*
X15748Y-37402D02*
D03*
X-10827Y-89567D02*
D03*
X-13780D02*
D03*
X-16732D02*
D03*
Y-66929D02*
D03*
X-13780D02*
D03*
X-6890Y-71850D02*
D03*
X-9843Y-95472D02*
D03*
X92500Y-72500D02*
D03*
X70000Y-31250D02*
D03*
X71250Y-85000D02*
D03*
X96250Y-32500D02*
D03*
X5906Y73819D02*
D03*
X-13780Y38386D02*
D03*
X-45276Y68898D02*
D03*
X-25591Y45276D02*
D03*
X-1969Y-33465D02*
D03*
Y-31496D02*
D03*
X-59055Y20669D02*
D03*
X-51673Y16732D02*
D03*
X20669Y5906D02*
D03*
X-98425Y98425D02*
D03*
X98425D02*
D03*
X-19685Y29528D02*
D03*
X-1969D02*
D03*
X-7874D02*
D03*
X-5906Y23622D02*
D03*
X-10827Y17717D02*
D03*
Y15748D02*
D03*
X-984Y17717D02*
D03*
X-2461Y15748D02*
D03*
X-49213Y68898D02*
D03*
X-90000Y-21250D02*
D03*
X-37402Y-69882D02*
D03*
X-35433D02*
D03*
X-31496Y42323D02*
D03*
X-38386D02*
D03*
X-97500Y-22500D02*
D03*
X-86250Y-31875D02*
D03*
X-36909Y-98917D02*
D03*
X-15748Y68898D02*
D03*
X22638Y-33465D02*
D03*
X-93750Y-91875D02*
D03*
X-90000D02*
D03*
X-21654Y-39370D02*
D03*
X-57087Y-37402D02*
D03*
Y-33465D02*
D03*
Y-29528D02*
D03*
Y-25591D02*
D03*
X-20177Y11319D02*
D03*
X-19685Y13287D02*
D03*
X-31496Y-7874D02*
D03*
X-35433Y0D02*
D03*
X-29528Y-1969D02*
D03*
Y-29528D02*
D03*
X-27067Y-69390D02*
D03*
X-23130D02*
D03*
X-19193D02*
D03*
X-32480Y-98917D02*
D03*
X-24606D02*
D03*
X18701Y-29528D02*
D03*
X2953Y7874D02*
D03*
X-83125Y-26250D02*
D03*
X-82500Y-18750D02*
D03*
X-72500D02*
D03*
X-73750Y17500D02*
D03*
X-52658Y34449D02*
D03*
X-54134Y27559D02*
D03*
Y25591D02*
D03*
X-53051Y23622D02*
D03*
X-44291Y42323D02*
D03*
X-36909Y34449D02*
D03*
X-24606Y31004D02*
D03*
X-39862D02*
D03*
X-41831Y29035D02*
D03*
X-26083D02*
D03*
X-38386Y27559D02*
D03*
X-40354Y25591D02*
D03*
X-24606D02*
D03*
X-38386D02*
D03*
X-37303Y23622D02*
D03*
X-24606D02*
D03*
X-54134Y21654D02*
D03*
X-71250Y18750D02*
D03*
X-50197Y15256D02*
D03*
X-49213Y13287D02*
D03*
X-58563Y12303D02*
D03*
X-53150Y7874D02*
D03*
X-60039Y4429D02*
D03*
X-47244Y3445D02*
D03*
X-42323Y23622D02*
D03*
X-38386Y21654D02*
D03*
X-40600Y19931D02*
D03*
X-35433Y16732D02*
D03*
X-33465D02*
D03*
X-26575Y16240D02*
D03*
X-29528Y15734D02*
D03*
X-44783Y14764D02*
D03*
X-42815Y14272D02*
D03*
X-25591Y13287D02*
D03*
X-39370Y9843D02*
D03*
X-41339D02*
D03*
X-23622Y7874D02*
D03*
X-41339Y5906D02*
D03*
X-23622D02*
D03*
X-21654D02*
D03*
X-39370Y3937D02*
D03*
X61024Y98425D02*
D03*
Y78740D02*
D03*
X66929Y98425D02*
D03*
X84646D02*
D03*
X72835D02*
D03*
X78740D02*
D03*
X66929Y78740D02*
D03*
X72835D02*
D03*
X84646D02*
D03*
X78740D02*
D03*
X-10827Y13780D02*
D03*
X-14764D02*
D03*
X984Y9843D02*
D03*
X-19685Y7874D02*
D03*
X-3937Y3937D02*
D03*
X20669Y13780D02*
D03*
X984Y11811D02*
D03*
X2953D02*
D03*
Y9843D02*
D03*
X20630Y9843D02*
D03*
X984Y7874D02*
D03*
X26575Y5906D02*
D03*
X-64961Y-11319D02*
D03*
X-63478Y-9356D02*
D03*
X-62992Y-7382D02*
D03*
X-60039Y492D02*
D03*
X-58563Y-11319D02*
D03*
X-54626D02*
D03*
X-47244Y-1969D02*
D03*
Y0D02*
D03*
X-45276Y-1969D02*
D03*
Y0D02*
D03*
Y-9843D02*
D03*
X-43307Y-1969D02*
D03*
Y-3937D02*
D03*
Y-9843D02*
D03*
X-41339Y-3937D02*
D03*
Y-5906D02*
D03*
Y-7874D02*
D03*
X-39370Y-3937D02*
D03*
Y0D02*
D03*
X-37402Y-1969D02*
D03*
X-67421Y-12303D02*
D03*
X-47244Y-13780D02*
D03*
X-45276Y-13780D02*
D03*
Y-17717D02*
D03*
X-43307Y-11811D02*
D03*
Y-15748D02*
D03*
Y-21654D02*
D03*
X-43307Y-13780D02*
D03*
Y-17717D02*
D03*
Y-19685D02*
D03*
X-41339Y-13780D02*
D03*
X-39370Y-23622D02*
D03*
X-37402Y-13780D02*
D03*
Y-0D02*
D03*
Y-7874D02*
D03*
X-35433Y-5906D02*
D03*
Y-13780D02*
D03*
X-33465D02*
D03*
X-31496Y-5906D02*
D03*
Y-3937D02*
D03*
X-29528Y-13780D02*
D03*
X-25591Y-3937D02*
D03*
Y-13780D02*
D03*
X-23622Y-1969D02*
D03*
X-23622Y-7874D02*
D03*
X-21654Y-3937D02*
D03*
Y-9843D02*
D03*
X-19685Y-3937D02*
D03*
Y-9843D02*
D03*
X-17717Y-5906D02*
D03*
X-37402Y-15748D02*
D03*
Y-19685D02*
D03*
Y-21654D02*
D03*
X-35433D02*
D03*
Y-23622D02*
D03*
Y-25591D02*
D03*
X-31496Y-23622D02*
D03*
Y-25591D02*
D03*
X-29528Y-19685D02*
D03*
Y-25591D02*
D03*
X-27559Y-15748D02*
D03*
X-25591Y-23622D02*
D03*
Y-25591D02*
D03*
X-23622Y-23622D02*
D03*
Y-19685D02*
D03*
Y-25591D02*
D03*
X-19685Y-13780D02*
D03*
Y-17717D02*
D03*
Y-21654D02*
D03*
Y-25591D02*
D03*
X-17717Y-15748D02*
D03*
Y-19685D02*
D03*
X-47244Y-29528D02*
D03*
Y-31496D02*
D03*
Y-46752D02*
D03*
X-45276Y-39370D02*
D03*
Y-33465D02*
D03*
Y-37402D02*
D03*
Y-35433D02*
D03*
X-43307Y-33465D02*
D03*
Y-43307D02*
D03*
X-81250Y-92500D02*
D03*
X-73750Y-90000D02*
D03*
X-50197Y-61516D02*
D03*
X-45768D02*
D03*
X-41339Y-29528D02*
D03*
Y-31496D02*
D03*
X-39370Y-33465D02*
D03*
X-37402Y-33465D02*
D03*
Y-35433D02*
D03*
X-35433Y-27559D02*
D03*
Y-33465D02*
D03*
Y-35433D02*
D03*
X-31496Y-33465D02*
D03*
Y-35433D02*
D03*
X-29528Y-31496D02*
D03*
Y-27559D02*
D03*
Y-33465D02*
D03*
X-25591D02*
D03*
Y-35433D02*
D03*
X-22638Y-43307D02*
D03*
X-21654Y-31496D02*
D03*
Y-27559D02*
D03*
Y-33465D02*
D03*
Y-35433D02*
D03*
X-19685Y-37402D02*
D03*
X-19193Y-43799D02*
D03*
X-17717Y-33465D02*
D03*
Y-35433D02*
D03*
X-37402Y-61516D02*
D03*
X-49016Y-93578D02*
D03*
X-33957Y-58071D02*
D03*
Y-60532D02*
D03*
X-31988Y-58071D02*
D03*
Y-60532D02*
D03*
X-30020Y-61516D02*
D03*
X-41535Y-93578D02*
D03*
X-37205D02*
D03*
X-24114Y-61516D02*
D03*
X-19193D02*
D03*
X-29724Y-93578D02*
D03*
X984Y0D02*
D03*
Y-1969D02*
D03*
X-5906Y-3937D02*
D03*
Y-5906D02*
D03*
X-15748D02*
D03*
Y-9843D02*
D03*
Y-27559D02*
D03*
X-9843Y-19685D02*
D03*
X-7874Y-13780D02*
D03*
X-7874Y-11811D02*
D03*
Y-15748D02*
D03*
X-5906Y-11811D02*
D03*
Y-15748D02*
D03*
Y-17717D02*
D03*
X-5906Y-13780D02*
D03*
X-3937Y-15748D02*
D03*
X984Y-11811D02*
D03*
Y-13780D02*
D03*
Y-15748D02*
D03*
Y-27559D02*
D03*
Y-23622D02*
D03*
Y-25591D02*
D03*
X2953Y0D02*
D03*
Y-1969D02*
D03*
Y-3937D02*
D03*
Y-11811D02*
D03*
X20630Y-1969D02*
D03*
X20669Y1969D02*
D03*
Y-5906D02*
D03*
Y-9843D02*
D03*
X25591Y-1969D02*
D03*
X26575Y-5906D02*
D03*
X2953Y-13780D02*
D03*
Y-15748D02*
D03*
Y-27559D02*
D03*
Y-25591D02*
D03*
Y-23622D02*
D03*
X20630Y-13780D02*
D03*
Y-25591D02*
D03*
X20669Y-17717D02*
D03*
Y-21654D02*
D03*
X25591Y-13780D02*
D03*
Y-25591D02*
D03*
X26575Y-17717D02*
D03*
X-17717Y-29528D02*
D03*
X26575Y-29528D02*
D03*
X-5906D02*
D03*
X20669D02*
D03*
X-5906Y-27559D02*
D03*
X-17717Y-31496D02*
D03*
X-13780Y-33465D02*
D03*
Y-35433D02*
D03*
X-11811Y-33465D02*
D03*
Y-35433D02*
D03*
X-9843Y-33465D02*
D03*
X10335Y-33465D02*
D03*
M02*
