G04*
G04 #@! TF.GenerationSoftware,Altium Limited,Altium Designer,24.5.2 (23)*
G04*
G04 Layer_Color=2752767*
%FSLAX25Y25*%
%MOIN*%
G70*
G04*
G04 #@! TF.SameCoordinates,883B40CB-B18D-427C-8B65-5A5AB1BE87B9*
G04*
G04*
G04 #@! TF.FilePolarity,Positive*
G04*
G01*
G75*
%ADD83C,0.00667*%
%ADD84C,0.00500*%
%ADD85C,0.00400*%
D83*
X-9595Y43740D02*
G03*
X-9595Y43740I-2000J0D01*
G01*
X-4594Y53740D02*
G03*
X-4594Y53740I-2000J0D01*
G01*
X405Y43740D02*
G03*
X405Y43740I-2000J0D01*
G01*
X5406Y53740D02*
G03*
X5406Y53740I-2000J0D01*
G01*
X10406Y43740D02*
G03*
X10406Y43740I-2000J0D01*
G01*
X15405Y53740D02*
G03*
X15405Y53740I-2000J0D01*
G01*
X20405Y43740D02*
G03*
X20405Y43740I-2000J0D01*
G01*
X33988Y98032D02*
G03*
X33988Y98032I-2000J0D01*
G01*
X-8177D02*
G03*
X-8177Y98032I-2000J0D01*
G01*
X23988D02*
G03*
X23988Y98032I-2000J0D01*
G01*
X-18177D02*
G03*
X-18177Y98032I-2000J0D01*
G01*
X84677Y57087D02*
G03*
X84677Y57087I-2000J0D01*
G01*
X74835D02*
G03*
X74835Y57087I-2000J0D01*
G01*
X66961D02*
G03*
X66961Y57087I-2000J0D01*
G01*
X57118D02*
G03*
X57118Y57087I-2000J0D01*
G01*
X84677Y67402D02*
G03*
X84677Y67402I-2000J0D01*
G01*
X74835D02*
G03*
X74835Y67402I-2000J0D01*
G01*
X66961D02*
G03*
X66961Y67402I-2000J0D01*
G01*
X57118D02*
G03*
X57118Y67402I-2000J0D01*
G01*
X-89043Y98032D02*
G03*
X-89043Y98032I-2000J0D01*
G01*
X-46878D02*
G03*
X-46878Y98032I-2000J0D01*
G01*
X-79043D02*
G03*
X-79043Y98032I-2000J0D01*
G01*
X-36878D02*
G03*
X-36878Y98032I-2000J0D01*
G01*
X-50461Y43740D02*
G03*
X-50461Y43740I-2000J0D01*
G01*
X-55461Y53740D02*
G03*
X-55461Y53740I-2000J0D01*
G01*
X-60461Y43740D02*
G03*
X-60461Y43740I-2000J0D01*
G01*
X-65461Y53740D02*
G03*
X-65461Y53740I-2000J0D01*
G01*
X-70461Y43740D02*
G03*
X-70461Y43740I-2000J0D01*
G01*
X-75461Y53740D02*
G03*
X-75461Y53740I-2000J0D01*
G01*
X-80461Y43740D02*
G03*
X-80461Y43740I-2000J0D01*
G01*
D84*
X23405Y51740D02*
X21406Y55740D01*
X25405D01*
X23405Y51740D01*
X-24587Y64732D02*
X-23587Y65732D01*
X-22587D01*
X-23587Y66732D01*
X-22587Y67732D01*
X-23587D01*
X-24587Y68732D01*
X-25587Y67732D01*
X-26587D01*
X-25587Y66732D01*
X-26587Y65732D01*
X-25587D01*
X-24587Y64732D01*
X36398D02*
X37398Y65732D01*
X38398D01*
X37398Y66732D01*
X38398Y67732D01*
X37398D01*
X36398Y68732D01*
X35398Y67732D01*
X34398D01*
X35398Y66732D01*
X34398Y65732D01*
X35398D01*
X36398Y64732D01*
X-18595Y76740D02*
X-17594Y78740D01*
X-18595Y80740D01*
X-16594Y79740D01*
X-14594Y80740D01*
X-15595Y78740D01*
X-14594Y76740D01*
X-16594Y77740D01*
X-18595Y76740D01*
X26406D02*
X27406Y78740D01*
X26406Y80740D01*
X28405Y79740D01*
X30406Y80740D01*
X29406Y78740D01*
X30406Y76740D01*
X28405Y77740D01*
X26406Y76740D01*
X55500Y-9500D02*
X56500D01*
X57500Y-8500D01*
X58500Y-9500D01*
X59500D01*
Y-8500D01*
X58500Y-7500D01*
X59500Y-6500D01*
Y-5500D01*
X58500D01*
X57500Y-6500D01*
X56500Y-5500D01*
X55500D01*
Y-6500D01*
X56500Y-7500D01*
X55500Y-8500D01*
Y-9500D01*
X75500Y-69500D02*
X76500D01*
X77500Y-68500D01*
X78500Y-69500D01*
X79500D01*
Y-68500D01*
X78500Y-67500D01*
X79500Y-66500D01*
Y-65500D01*
X78500D01*
X77500Y-66500D01*
X76500Y-65500D01*
X75500D01*
Y-66500D01*
X76500Y-67500D01*
X75500Y-68500D01*
Y-69500D01*
X95500Y-99500D02*
X96500D01*
X97500Y-98500D01*
X98500Y-99500D01*
X99500D01*
Y-98500D01*
X98500Y-97500D01*
X99500Y-96500D01*
Y-95500D01*
X98500D01*
X97500Y-96500D01*
X96500Y-95500D01*
X95500D01*
Y-96500D01*
X96500Y-97500D01*
X95500Y-98500D01*
Y-99500D01*
Y-89500D02*
X96500D01*
X97500Y-88500D01*
X98500Y-89500D01*
X99500D01*
Y-88500D01*
X98500Y-87500D01*
X99500Y-86500D01*
Y-85500D01*
X98500D01*
X97500Y-86500D01*
X96500Y-85500D01*
X95500D01*
Y-86500D01*
X96500Y-87500D01*
X95500Y-88500D01*
Y-89500D01*
X85500Y-99500D02*
X86500D01*
X87500Y-98500D01*
X88500Y-99500D01*
X89500D01*
Y-98500D01*
X88500Y-97500D01*
X89500Y-96500D01*
Y-95500D01*
X88500D01*
X87500Y-96500D01*
X86500Y-95500D01*
X85500D01*
Y-96500D01*
X86500Y-97500D01*
X85500Y-98500D01*
Y-99500D01*
X65500D02*
X66500D01*
X67500Y-98500D01*
X68500Y-99500D01*
X69500D01*
Y-98500D01*
X68500Y-97500D01*
X69500Y-96500D01*
Y-95500D01*
X68500D01*
X67500Y-96500D01*
X66500Y-95500D01*
X65500D01*
Y-96500D01*
X66500Y-97500D01*
X65500Y-98500D01*
Y-99500D01*
X75500D02*
X76500D01*
X77500Y-98500D01*
X78500Y-99500D01*
X79500D01*
Y-98500D01*
X78500Y-97500D01*
X79500Y-96500D01*
Y-95500D01*
X78500D01*
X77500Y-96500D01*
X76500Y-95500D01*
X75500D01*
Y-96500D01*
X76500Y-97500D01*
X75500Y-98500D01*
Y-99500D01*
Y-89500D02*
X76500D01*
X77500Y-88500D01*
X78500Y-89500D01*
X79500D01*
Y-88500D01*
X78500Y-87500D01*
X79500Y-86500D01*
Y-85500D01*
X78500D01*
X77500Y-86500D01*
X76500Y-85500D01*
X75500D01*
Y-86500D01*
X76500Y-87500D01*
X75500Y-88500D01*
Y-89500D01*
X95500Y-79500D02*
X96500D01*
X97500Y-78500D01*
X98500Y-79500D01*
X99500D01*
Y-78500D01*
X98500Y-77500D01*
X99500Y-76500D01*
Y-75500D01*
X98500D01*
X97500Y-76500D01*
X96500Y-75500D01*
X95500D01*
Y-76500D01*
X96500Y-77500D01*
X95500Y-78500D01*
Y-79500D01*
Y-69500D02*
X96500D01*
X97500Y-68500D01*
X98500Y-69500D01*
X99500D01*
Y-68500D01*
X98500Y-67500D01*
X99500Y-66500D01*
Y-65500D01*
X98500D01*
X97500Y-66500D01*
X96500Y-65500D01*
X95500D01*
Y-66500D01*
X96500Y-67500D01*
X95500Y-68500D01*
Y-69500D01*
X85500Y-79500D02*
X86500D01*
X87500Y-78500D01*
X88500Y-79500D01*
X89500D01*
Y-78500D01*
X88500Y-77500D01*
X89500Y-76500D01*
Y-75500D01*
X88500D01*
X87500Y-76500D01*
X86500Y-75500D01*
X85500D01*
Y-76500D01*
X86500Y-77500D01*
X85500Y-78500D01*
Y-79500D01*
Y-69500D02*
X86500D01*
X87500Y-68500D01*
X88500Y-69500D01*
X89500D01*
Y-68500D01*
X88500Y-67500D01*
X89500Y-66500D01*
Y-65500D01*
X88500D01*
X87500Y-66500D01*
X86500Y-65500D01*
X85500D01*
Y-66500D01*
X86500Y-67500D01*
X85500Y-68500D01*
Y-69500D01*
X75500Y-79500D02*
X76500D01*
X77500Y-78500D01*
X78500Y-79500D01*
X79500D01*
Y-78500D01*
X78500Y-77500D01*
X79500Y-76500D01*
Y-75500D01*
X78500D01*
X77500Y-76500D01*
X76500Y-75500D01*
X75500D01*
Y-76500D01*
X76500Y-77500D01*
X75500Y-78500D01*
Y-79500D01*
X65500D02*
X66500D01*
X67500Y-78500D01*
X68500Y-79500D01*
X69500D01*
Y-78500D01*
X68500Y-77500D01*
X69500Y-76500D01*
Y-75500D01*
X68500D01*
X67500Y-76500D01*
X66500Y-75500D01*
X65500D01*
Y-76500D01*
X66500Y-77500D01*
X65500Y-78500D01*
Y-79500D01*
Y-69500D02*
X66500D01*
X67500Y-68500D01*
X68500Y-69500D01*
X69500D01*
Y-68500D01*
X68500Y-67500D01*
X69500Y-66500D01*
Y-65500D01*
X68500D01*
X67500Y-66500D01*
X66500Y-65500D01*
X65500D01*
Y-66500D01*
X66500Y-67500D01*
X65500Y-68500D01*
Y-69500D01*
X95500Y-29500D02*
X96500D01*
X97500Y-28500D01*
X98500Y-29500D01*
X99500D01*
Y-28500D01*
X98500Y-27500D01*
X99500Y-26500D01*
Y-25500D01*
X98500D01*
X97500Y-26500D01*
X96500Y-25500D01*
X95500D01*
Y-26500D01*
X96500Y-27500D01*
X95500Y-28500D01*
Y-29500D01*
Y-19500D02*
X96500D01*
X97500Y-18500D01*
X98500Y-19500D01*
X99500D01*
Y-18500D01*
X98500Y-17500D01*
X99500Y-16500D01*
Y-15500D01*
X98500D01*
X97500Y-16500D01*
X96500Y-15500D01*
X95500D01*
Y-16500D01*
X96500Y-17500D01*
X95500Y-18500D01*
Y-19500D01*
X85500D02*
X86500D01*
X87500Y-18500D01*
X88500Y-19500D01*
X89500D01*
Y-18500D01*
X88500Y-17500D01*
X89500Y-16500D01*
Y-15500D01*
X88500D01*
X87500Y-16500D01*
X86500Y-15500D01*
X85500D01*
Y-16500D01*
X86500Y-17500D01*
X85500Y-18500D01*
Y-19500D01*
X75500D02*
X76500D01*
X77500Y-18500D01*
X78500Y-19500D01*
X79500D01*
Y-18500D01*
X78500Y-17500D01*
X79500Y-16500D01*
Y-15500D01*
X78500D01*
X77500Y-16500D01*
X76500Y-15500D01*
X75500D01*
Y-16500D01*
X76500Y-17500D01*
X75500Y-18500D01*
Y-19500D01*
X55500Y20500D02*
X56500D01*
X57500Y21500D01*
X58500Y20500D01*
X59500D01*
Y21500D01*
X58500Y22500D01*
X59500Y23500D01*
Y24500D01*
X58500D01*
X57500Y23500D01*
X56500Y24500D01*
X55500D01*
Y23500D01*
X56500Y22500D01*
X55500Y21500D01*
Y20500D01*
X75500Y-29500D02*
X76500D01*
X77500Y-28500D01*
X78500Y-29500D01*
X79500D01*
Y-28500D01*
X78500Y-27500D01*
X79500Y-26500D01*
Y-25500D01*
X78500D01*
X77500Y-26500D01*
X76500Y-25500D01*
X75500D01*
Y-26500D01*
X76500Y-27500D01*
X75500Y-28500D01*
Y-29500D01*
X95500Y-39500D02*
X96500D01*
X97500Y-38500D01*
X98500Y-39500D01*
X99500D01*
Y-38500D01*
X98500Y-37500D01*
X99500Y-36500D01*
Y-35500D01*
X98500D01*
X97500Y-36500D01*
X96500Y-35500D01*
X95500D01*
Y-36500D01*
X96500Y-37500D01*
X95500Y-38500D01*
Y-39500D01*
X85500D02*
X86500D01*
X87500Y-38500D01*
X88500Y-39500D01*
X89500D01*
Y-38500D01*
X88500Y-37500D01*
X89500Y-36500D01*
Y-35500D01*
X88500D01*
X87500Y-36500D01*
X86500Y-35500D01*
X85500D01*
Y-36500D01*
X86500Y-37500D01*
X85500Y-38500D01*
Y-39500D01*
X95500Y-59500D02*
X96500D01*
X97500Y-58500D01*
X98500Y-59500D01*
X99500D01*
Y-58500D01*
X98500Y-57500D01*
X99500Y-56500D01*
Y-55500D01*
X98500D01*
X97500Y-56500D01*
X96500Y-55500D01*
X95500D01*
Y-56500D01*
X96500Y-57500D01*
X95500Y-58500D01*
Y-59500D01*
X75500D02*
X76500D01*
X77500Y-58500D01*
X78500Y-59500D01*
X79500D01*
Y-58500D01*
X78500Y-57500D01*
X79500Y-56500D01*
Y-55500D01*
X78500D01*
X77500Y-56500D01*
X76500Y-55500D01*
X75500D01*
Y-56500D01*
X76500Y-57500D01*
X75500Y-58500D01*
Y-59500D01*
X-12811Y-71866D02*
Y-72866D01*
X-10811D01*
Y-71866D01*
X-9811D01*
Y-69866D01*
X-10811D01*
Y-68866D01*
X-12811D01*
Y-69866D01*
X-13811D01*
Y-71866D01*
X-12811D01*
X-52181D02*
Y-72866D01*
X-50181D01*
Y-71866D01*
X-49181D01*
Y-69866D01*
X-50181D01*
Y-68866D01*
X-52181D01*
Y-69866D01*
X-53181D01*
Y-71866D01*
X-52181D01*
X92764Y53709D02*
Y57709D01*
X96764D01*
Y53709D01*
X92764D01*
X93564Y54509D02*
Y56909D01*
X95964D01*
Y54509D01*
X93564D01*
X41032Y53709D02*
Y57709D01*
X45031D01*
Y53709D01*
X41032D01*
X41831Y54509D02*
Y56909D01*
X44232D01*
Y54509D01*
X41831D01*
X41032Y76071D02*
Y80071D01*
X45031D01*
Y76071D01*
X41032D01*
X41831Y76871D02*
Y79271D01*
X44232D01*
Y76871D01*
X41831D01*
X92764Y76071D02*
Y80071D01*
X96764D01*
Y76071D01*
X92764D01*
X93564Y76871D02*
Y79271D01*
X95964D01*
Y76871D01*
X93564D01*
X-79500Y-99500D02*
X-78500D01*
X-77500Y-98500D01*
X-76500Y-99500D01*
X-75500D01*
Y-98500D01*
X-76500Y-97500D01*
X-75500Y-96500D01*
Y-95500D01*
X-76500D01*
X-77500Y-96500D01*
X-78500Y-95500D01*
X-79500D01*
Y-96500D01*
X-78500Y-97500D01*
X-79500Y-98500D01*
Y-99500D01*
X-69500D02*
X-68500D01*
X-67500Y-98500D01*
X-66500Y-99500D01*
X-65500D01*
Y-98500D01*
X-66500Y-97500D01*
X-65500Y-96500D01*
Y-95500D01*
X-66500D01*
X-67500Y-96500D01*
X-68500Y-95500D01*
X-69500D01*
Y-96500D01*
X-68500Y-97500D01*
X-69500Y-98500D01*
Y-99500D01*
X-99500D02*
X-98500D01*
X-97500Y-98500D01*
X-96500Y-99500D01*
X-95500D01*
Y-98500D01*
X-96500Y-97500D01*
X-95500Y-96500D01*
Y-95500D01*
X-96500D01*
X-97500Y-96500D01*
X-98500Y-95500D01*
X-99500D01*
Y-96500D01*
X-98500Y-97500D01*
X-99500Y-98500D01*
Y-99500D01*
X-89500D02*
X-88500D01*
X-87500Y-98500D01*
X-86500Y-99500D01*
X-85500D01*
Y-98500D01*
X-86500Y-97500D01*
X-85500Y-96500D01*
Y-95500D01*
X-86500D01*
X-87500Y-96500D01*
X-88500Y-95500D01*
X-89500D01*
Y-96500D01*
X-88500Y-97500D01*
X-89500Y-98500D01*
Y-99500D01*
X15500Y-89500D02*
X16500D01*
X17500Y-88500D01*
X18500Y-89500D01*
X19500D01*
Y-88500D01*
X18500Y-87500D01*
X19500Y-86500D01*
Y-85500D01*
X18500D01*
X17500Y-86500D01*
X16500Y-85500D01*
X15500D01*
Y-86500D01*
X16500Y-87500D01*
X15500Y-88500D01*
Y-89500D01*
X25500Y-99500D02*
X26500D01*
X27500Y-98500D01*
X28500Y-99500D01*
X29500D01*
Y-98500D01*
X28500Y-97500D01*
X29500Y-96500D01*
Y-95500D01*
X28500D01*
X27500Y-96500D01*
X26500Y-95500D01*
X25500D01*
Y-96500D01*
X26500Y-97500D01*
X25500Y-98500D01*
Y-99500D01*
X45500D02*
X46500D01*
X47500Y-98500D01*
X48500Y-99500D01*
X49500D01*
Y-98500D01*
X48500Y-97500D01*
X49500Y-96500D01*
Y-95500D01*
X48500D01*
X47500Y-96500D01*
X46500Y-95500D01*
X45500D01*
Y-96500D01*
X46500Y-97500D01*
X45500Y-98500D01*
Y-99500D01*
X5500D02*
X6500D01*
X7500Y-98500D01*
X8500Y-99500D01*
X9500D01*
Y-98500D01*
X8500Y-97500D01*
X9500Y-96500D01*
Y-95500D01*
X8500D01*
X7500Y-96500D01*
X6500Y-95500D01*
X5500D01*
Y-96500D01*
X6500Y-97500D01*
X5500Y-98500D01*
Y-99500D01*
Y-89500D02*
X6500D01*
X7500Y-88500D01*
X8500Y-89500D01*
X9500D01*
Y-88500D01*
X8500Y-87500D01*
X9500Y-86500D01*
Y-85500D01*
X8500D01*
X7500Y-86500D01*
X6500Y-85500D01*
X5500D01*
Y-86500D01*
X6500Y-87500D01*
X5500Y-88500D01*
Y-89500D01*
X15500Y-99500D02*
X16500D01*
X17500Y-98500D01*
X18500Y-99500D01*
X19500D01*
Y-98500D01*
X18500Y-97500D01*
X19500Y-96500D01*
Y-95500D01*
X18500D01*
X17500Y-96500D01*
X16500Y-95500D01*
X15500D01*
Y-96500D01*
X16500Y-97500D01*
X15500Y-98500D01*
Y-99500D01*
X55500Y30500D02*
X56500D01*
X57500Y31500D01*
X58500Y30500D01*
X59500D01*
Y31500D01*
X58500Y32500D01*
X59500Y33500D01*
Y34500D01*
X58500D01*
X57500Y33500D01*
X56500Y34500D01*
X55500D01*
Y33500D01*
X56500Y32500D01*
X55500Y31500D01*
Y30500D01*
Y500D02*
X56500D01*
X57500Y1500D01*
X58500Y500D01*
X59500D01*
Y1500D01*
X58500Y2500D01*
X59500Y3500D01*
Y4500D01*
X58500D01*
X57500Y3500D01*
X56500Y4500D01*
X55500D01*
Y3500D01*
X56500Y2500D01*
X55500Y1500D01*
Y500D01*
Y10500D02*
X56500D01*
X57500Y11500D01*
X58500Y10500D01*
X59500D01*
Y11500D01*
X58500Y12500D01*
X59500Y13500D01*
Y14500D01*
X58500D01*
X57500Y13500D01*
X56500Y14500D01*
X55500D01*
Y13500D01*
X56500Y12500D01*
X55500Y11500D01*
Y10500D01*
X95500Y-9500D02*
X96500D01*
X97500Y-8500D01*
X98500Y-9500D01*
X99500D01*
Y-8500D01*
X98500Y-7500D01*
X99500Y-6500D01*
Y-5500D01*
X98500D01*
X97500Y-6500D01*
X96500Y-5500D01*
X95500D01*
Y-6500D01*
X96500Y-7500D01*
X95500Y-8500D01*
Y-9500D01*
X85500D02*
X86500D01*
X87500Y-8500D01*
X88500Y-9500D01*
X89500D01*
Y-8500D01*
X88500Y-7500D01*
X89500Y-6500D01*
Y-5500D01*
X88500D01*
X87500Y-6500D01*
X86500Y-5500D01*
X85500D01*
Y-6500D01*
X86500Y-7500D01*
X85500Y-8500D01*
Y-9500D01*
X75500D02*
X76500D01*
X77500Y-8500D01*
X78500Y-9500D01*
X79500D01*
Y-8500D01*
X78500Y-7500D01*
X79500Y-6500D01*
Y-5500D01*
X78500D01*
X77500Y-6500D01*
X76500Y-5500D01*
X75500D01*
Y-6500D01*
X76500Y-7500D01*
X75500Y-8500D01*
Y-9500D01*
X65500D02*
X66500D01*
X67500Y-8500D01*
X68500Y-9500D01*
X69500D01*
Y-8500D01*
X68500Y-7500D01*
X69500Y-6500D01*
Y-5500D01*
X68500D01*
X67500Y-6500D01*
X66500Y-5500D01*
X65500D01*
Y-6500D01*
X66500Y-7500D01*
X65500Y-8500D01*
Y-9500D01*
X95500Y-49500D02*
X96500D01*
X97500Y-48500D01*
X98500Y-49500D01*
X99500D01*
Y-48500D01*
X98500Y-47500D01*
X99500Y-46500D01*
Y-45500D01*
X98500D01*
X97500Y-46500D01*
X96500Y-45500D01*
X95500D01*
Y-46500D01*
X96500Y-47500D01*
X95500Y-48500D01*
Y-49500D01*
X85500D02*
X86500D01*
X87500Y-48500D01*
X88500Y-49500D01*
X89500D01*
Y-48500D01*
X88500Y-47500D01*
X89500Y-46500D01*
Y-45500D01*
X88500D01*
X87500Y-46500D01*
X86500Y-45500D01*
X85500D01*
Y-46500D01*
X86500Y-47500D01*
X85500Y-48500D01*
Y-49500D01*
X75500D02*
X76500D01*
X77500Y-48500D01*
X78500Y-49500D01*
X79500D01*
Y-48500D01*
X78500Y-47500D01*
X79500Y-46500D01*
Y-45500D01*
X78500D01*
X77500Y-46500D01*
X76500Y-45500D01*
X75500D01*
Y-46500D01*
X76500Y-47500D01*
X75500Y-48500D01*
Y-49500D01*
X65500D02*
X66500D01*
X67500Y-48500D01*
X68500Y-49500D01*
X69500D01*
Y-48500D01*
X68500Y-47500D01*
X69500Y-46500D01*
Y-45500D01*
X68500D01*
X67500Y-46500D01*
X66500Y-45500D01*
X65500D01*
Y-46500D01*
X66500Y-47500D01*
X65500Y-48500D01*
Y-49500D01*
X95500Y10500D02*
X96500D01*
X97500Y11500D01*
X98500Y10500D01*
X99500D01*
Y11500D01*
X98500Y12500D01*
X99500Y13500D01*
Y14500D01*
X98500D01*
X97500Y13500D01*
X96500Y14500D01*
X95500D01*
Y13500D01*
X96500Y12500D01*
X95500Y11500D01*
Y10500D01*
X85500D02*
X86500D01*
X87500Y11500D01*
X88500Y10500D01*
X89500D01*
Y11500D01*
X88500Y12500D01*
X89500Y13500D01*
Y14500D01*
X88500D01*
X87500Y13500D01*
X86500Y14500D01*
X85500D01*
Y13500D01*
X86500Y12500D01*
X85500Y11500D01*
Y10500D01*
X75500D02*
X76500D01*
X77500Y11500D01*
X78500Y10500D01*
X79500D01*
Y11500D01*
X78500Y12500D01*
X79500Y13500D01*
Y14500D01*
X78500D01*
X77500Y13500D01*
X76500Y14500D01*
X75500D01*
Y13500D01*
X76500Y12500D01*
X75500Y11500D01*
Y10500D01*
X65500D02*
X66500D01*
X67500Y11500D01*
X68500Y10500D01*
X69500D01*
Y11500D01*
X68500Y12500D01*
X69500Y13500D01*
Y14500D01*
X68500D01*
X67500Y13500D01*
X66500Y14500D01*
X65500D01*
Y13500D01*
X66500Y12500D01*
X65500Y11500D01*
Y10500D01*
X95500Y500D02*
X96500D01*
X97500Y1500D01*
X98500Y500D01*
X99500D01*
Y1500D01*
X98500Y2500D01*
X99500Y3500D01*
Y4500D01*
X98500D01*
X97500Y3500D01*
X96500Y4500D01*
X95500D01*
Y3500D01*
X96500Y2500D01*
X95500Y1500D01*
Y500D01*
X75500D02*
X76500D01*
X77500Y1500D01*
X78500Y500D01*
X79500D01*
Y1500D01*
X78500Y2500D01*
X79500Y3500D01*
Y4500D01*
X78500D01*
X77500Y3500D01*
X76500Y4500D01*
X75500D01*
Y3500D01*
X76500Y2500D01*
X75500Y1500D01*
Y500D01*
Y-39500D02*
X76500D01*
X77500Y-38500D01*
X78500Y-39500D01*
X79500D01*
Y-38500D01*
X78500Y-37500D01*
X79500Y-36500D01*
Y-35500D01*
X78500D01*
X77500Y-36500D01*
X76500Y-35500D01*
X75500D01*
Y-36500D01*
X76500Y-37500D01*
X75500Y-38500D01*
Y-39500D01*
X65500D02*
X66500D01*
X67500Y-38500D01*
X68500Y-39500D01*
X69500D01*
Y-38500D01*
X68500Y-37500D01*
X69500Y-36500D01*
Y-35500D01*
X68500D01*
X67500Y-36500D01*
X66500Y-35500D01*
X65500D01*
Y-36500D01*
X66500Y-37500D01*
X65500Y-38500D01*
Y-39500D01*
X55500Y40500D02*
X56500D01*
X57500Y41500D01*
X58500Y40500D01*
X59500D01*
Y41500D01*
X58500Y42500D01*
X59500Y43500D01*
Y44500D01*
X58500D01*
X57500Y43500D01*
X56500Y44500D01*
X55500D01*
Y43500D01*
X56500Y42500D01*
X55500Y41500D01*
Y40500D01*
X75500Y20500D02*
X76500D01*
X77500Y21500D01*
X78500Y20500D01*
X79500D01*
Y21500D01*
X78500Y22500D01*
X79500Y23500D01*
Y24500D01*
X78500D01*
X77500Y23500D01*
X76500Y24500D01*
X75500D01*
Y23500D01*
X76500Y22500D01*
X75500Y21500D01*
Y20500D01*
X65500D02*
X66500D01*
X67500Y21500D01*
X68500Y20500D01*
X69500D01*
Y21500D01*
X68500Y22500D01*
X69500Y23500D01*
Y24500D01*
X68500D01*
X67500Y23500D01*
X66500Y24500D01*
X65500D01*
Y23500D01*
X66500Y22500D01*
X65500Y21500D01*
Y20500D01*
X75500Y30500D02*
X76500D01*
X77500Y31500D01*
X78500Y30500D01*
X79500D01*
Y31500D01*
X78500Y32500D01*
X79500Y33500D01*
Y34500D01*
X78500D01*
X77500Y33500D01*
X76500Y34500D01*
X75500D01*
Y33500D01*
X76500Y32500D01*
X75500Y31500D01*
Y30500D01*
X85500Y20500D02*
X86500D01*
X87500Y21500D01*
X88500Y20500D01*
X89500D01*
Y21500D01*
X88500Y22500D01*
X89500Y23500D01*
Y24500D01*
X88500D01*
X87500Y23500D01*
X86500Y24500D01*
X85500D01*
Y23500D01*
X86500Y22500D01*
X85500Y21500D01*
Y20500D01*
X95500Y30500D02*
X96500D01*
X97500Y31500D01*
X98500Y30500D01*
X99500D01*
Y31500D01*
X98500Y32500D01*
X99500Y33500D01*
Y34500D01*
X98500D01*
X97500Y33500D01*
X96500Y34500D01*
X95500D01*
Y33500D01*
X96500Y32500D01*
X95500Y31500D01*
Y30500D01*
Y20500D02*
X96500D01*
X97500Y21500D01*
X98500Y20500D01*
X99500D01*
Y21500D01*
X98500Y22500D01*
X99500Y23500D01*
Y24500D01*
X98500D01*
X97500Y23500D01*
X96500Y24500D01*
X95500D01*
Y23500D01*
X96500Y22500D01*
X95500Y21500D01*
Y20500D01*
X-69500Y-49500D02*
X-68500D01*
X-67500Y-48500D01*
X-66500Y-49500D01*
X-65500D01*
Y-48500D01*
X-66500Y-47500D01*
X-65500Y-46500D01*
Y-45500D01*
X-66500D01*
X-67500Y-46500D01*
X-68500Y-45500D01*
X-69500D01*
Y-46500D01*
X-68500Y-47500D01*
X-69500Y-48500D01*
Y-49500D01*
Y10500D02*
X-68500D01*
X-67500Y11500D01*
X-66500Y10500D01*
X-65500D01*
Y11500D01*
X-66500Y12500D01*
X-65500Y13500D01*
Y14500D01*
X-66500D01*
X-67500Y13500D01*
X-68500Y14500D01*
X-69500D01*
Y13500D01*
X-68500Y12500D01*
X-69500Y11500D01*
Y10500D01*
Y30500D02*
X-68500D01*
X-67500Y31500D01*
X-66500Y30500D01*
X-65500D01*
Y31500D01*
X-66500Y32500D01*
X-65500Y33500D01*
Y34500D01*
X-66500D01*
X-67500Y33500D01*
X-68500Y34500D01*
X-69500D01*
Y33500D01*
X-68500Y32500D01*
X-69500Y31500D01*
Y30500D01*
X95500Y40500D02*
X96500D01*
X97500Y41500D01*
X98500Y40500D01*
X99500D01*
Y41500D01*
X98500Y42500D01*
X99500Y43500D01*
Y44500D01*
X98500D01*
X97500Y43500D01*
X96500Y44500D01*
X95500D01*
Y43500D01*
X96500Y42500D01*
X95500Y41500D01*
Y40500D01*
X-69500Y-29500D02*
X-68500D01*
X-67500Y-28500D01*
X-66500Y-29500D01*
X-65500D01*
Y-28500D01*
X-66500Y-27500D01*
X-65500Y-26500D01*
Y-25500D01*
X-66500D01*
X-67500Y-26500D01*
X-68500Y-25500D01*
X-69500D01*
Y-26500D01*
X-68500Y-27500D01*
X-69500Y-28500D01*
Y-29500D01*
Y-89500D02*
X-68500D01*
X-67500Y-88500D01*
X-66500Y-89500D01*
X-65500D01*
Y-88500D01*
X-66500Y-87500D01*
X-65500Y-86500D01*
Y-85500D01*
X-66500D01*
X-67500Y-86500D01*
X-68500Y-85500D01*
X-69500D01*
Y-86500D01*
X-68500Y-87500D01*
X-69500Y-88500D01*
Y-89500D01*
X85500Y40500D02*
X86500D01*
X87500Y41500D01*
X88500Y40500D01*
X89500D01*
Y41500D01*
X88500Y42500D01*
X89500Y43500D01*
Y44500D01*
X88500D01*
X87500Y43500D01*
X86500Y44500D01*
X85500D01*
Y43500D01*
X86500Y42500D01*
X85500Y41500D01*
Y40500D01*
X75500D02*
X76500D01*
X77500Y41500D01*
X78500Y40500D01*
X79500D01*
Y41500D01*
X78500Y42500D01*
X79500Y43500D01*
Y44500D01*
X78500D01*
X77500Y43500D01*
X76500Y44500D01*
X75500D01*
Y43500D01*
X76500Y42500D01*
X75500Y41500D01*
Y40500D01*
X65500D02*
X66500D01*
X67500Y41500D01*
X68500Y40500D01*
X69500D01*
Y41500D01*
X68500Y42500D01*
X69500Y43500D01*
Y44500D01*
X68500D01*
X67500Y43500D01*
X66500Y44500D01*
X65500D01*
Y43500D01*
X66500Y42500D01*
X65500Y41500D01*
Y40500D01*
X-99500Y-79500D02*
X-98500D01*
X-97500Y-78500D01*
X-96500Y-79500D01*
X-95500D01*
Y-78500D01*
X-96500Y-77500D01*
X-95500Y-76500D01*
Y-75500D01*
X-96500D01*
X-97500Y-76500D01*
X-98500Y-75500D01*
X-99500D01*
Y-76500D01*
X-98500Y-77500D01*
X-99500Y-78500D01*
Y-79500D01*
Y-69500D02*
X-98500D01*
X-97500Y-68500D01*
X-96500Y-69500D01*
X-95500D01*
Y-68500D01*
X-96500Y-67500D01*
X-95500Y-66500D01*
Y-65500D01*
X-96500D01*
X-97500Y-66500D01*
X-98500Y-65500D01*
X-99500D01*
Y-66500D01*
X-98500Y-67500D01*
X-99500Y-68500D01*
Y-69500D01*
Y-59500D02*
X-98500D01*
X-97500Y-58500D01*
X-96500Y-59500D01*
X-95500D01*
Y-58500D01*
X-96500Y-57500D01*
X-95500Y-56500D01*
Y-55500D01*
X-96500D01*
X-97500Y-56500D01*
X-98500Y-55500D01*
X-99500D01*
Y-56500D01*
X-98500Y-57500D01*
X-99500Y-58500D01*
Y-59500D01*
Y-49500D02*
X-98500D01*
X-97500Y-48500D01*
X-96500Y-49500D01*
X-95500D01*
Y-48500D01*
X-96500Y-47500D01*
X-95500Y-46500D01*
Y-45500D01*
X-96500D01*
X-97500Y-46500D01*
X-98500Y-45500D01*
X-99500D01*
Y-46500D01*
X-98500Y-47500D01*
X-99500Y-48500D01*
Y-49500D01*
Y-39500D02*
X-98500D01*
X-97500Y-38500D01*
X-96500Y-39500D01*
X-95500D01*
Y-38500D01*
X-96500Y-37500D01*
X-95500Y-36500D01*
Y-35500D01*
X-96500D01*
X-97500Y-36500D01*
X-98500Y-35500D01*
X-99500D01*
Y-36500D01*
X-98500Y-37500D01*
X-99500Y-38500D01*
Y-39500D01*
Y-29500D02*
X-98500D01*
X-97500Y-28500D01*
X-96500Y-29500D01*
X-95500D01*
Y-28500D01*
X-96500Y-27500D01*
X-95500Y-26500D01*
Y-25500D01*
X-96500D01*
X-97500Y-26500D01*
X-98500Y-25500D01*
X-99500D01*
Y-26500D01*
X-98500Y-27500D01*
X-99500Y-28500D01*
Y-29500D01*
X-89500Y-79500D02*
X-88500D01*
X-87500Y-78500D01*
X-86500Y-79500D01*
X-85500D01*
Y-78500D01*
X-86500Y-77500D01*
X-85500Y-76500D01*
Y-75500D01*
X-86500D01*
X-87500Y-76500D01*
X-88500Y-75500D01*
X-89500D01*
Y-76500D01*
X-88500Y-77500D01*
X-89500Y-78500D01*
Y-79500D01*
Y-59500D02*
X-88500D01*
X-87500Y-58500D01*
X-86500Y-59500D01*
X-85500D01*
Y-58500D01*
X-86500Y-57500D01*
X-85500Y-56500D01*
Y-55500D01*
X-86500D01*
X-87500Y-56500D01*
X-88500Y-55500D01*
X-89500D01*
Y-56500D01*
X-88500Y-57500D01*
X-89500Y-58500D01*
Y-59500D01*
Y-49500D02*
X-88500D01*
X-87500Y-48500D01*
X-86500Y-49500D01*
X-85500D01*
Y-48500D01*
X-86500Y-47500D01*
X-85500Y-46500D01*
Y-45500D01*
X-86500D01*
X-87500Y-46500D01*
X-88500Y-45500D01*
X-89500D01*
Y-46500D01*
X-88500Y-47500D01*
X-89500Y-48500D01*
Y-49500D01*
Y-29500D02*
X-88500D01*
X-87500Y-28500D01*
X-86500Y-29500D01*
X-85500D01*
Y-28500D01*
X-86500Y-27500D01*
X-85500Y-26500D01*
Y-25500D01*
X-86500D01*
X-87500Y-26500D01*
X-88500Y-25500D01*
X-89500D01*
Y-26500D01*
X-88500Y-27500D01*
X-89500Y-28500D01*
Y-29500D01*
X-79500Y-79500D02*
X-78500D01*
X-77500Y-78500D01*
X-76500Y-79500D01*
X-75500D01*
Y-78500D01*
X-76500Y-77500D01*
X-75500Y-76500D01*
Y-75500D01*
X-76500D01*
X-77500Y-76500D01*
X-78500Y-75500D01*
X-79500D01*
Y-76500D01*
X-78500Y-77500D01*
X-79500Y-78500D01*
Y-79500D01*
Y-69500D02*
X-78500D01*
X-77500Y-68500D01*
X-76500Y-69500D01*
X-75500D01*
Y-68500D01*
X-76500Y-67500D01*
X-75500Y-66500D01*
Y-65500D01*
X-76500D01*
X-77500Y-66500D01*
X-78500Y-65500D01*
X-79500D01*
Y-66500D01*
X-78500Y-67500D01*
X-79500Y-68500D01*
Y-69500D01*
Y-59500D02*
X-78500D01*
X-77500Y-58500D01*
X-76500Y-59500D01*
X-75500D01*
Y-58500D01*
X-76500Y-57500D01*
X-75500Y-56500D01*
Y-55500D01*
X-76500D01*
X-77500Y-56500D01*
X-78500Y-55500D01*
X-79500D01*
Y-56500D01*
X-78500Y-57500D01*
X-79500Y-58500D01*
Y-59500D01*
Y-49500D02*
X-78500D01*
X-77500Y-48500D01*
X-76500Y-49500D01*
X-75500D01*
Y-48500D01*
X-76500Y-47500D01*
X-75500Y-46500D01*
Y-45500D01*
X-76500D01*
X-77500Y-46500D01*
X-78500Y-45500D01*
X-79500D01*
Y-46500D01*
X-78500Y-47500D01*
X-79500Y-48500D01*
Y-49500D01*
Y-39500D02*
X-78500D01*
X-77500Y-38500D01*
X-76500Y-39500D01*
X-75500D01*
Y-38500D01*
X-76500Y-37500D01*
X-75500Y-36500D01*
Y-35500D01*
X-76500D01*
X-77500Y-36500D01*
X-78500Y-35500D01*
X-79500D01*
Y-36500D01*
X-78500Y-37500D01*
X-79500Y-38500D01*
Y-39500D01*
Y-29500D02*
X-78500D01*
X-77500Y-28500D01*
X-76500Y-29500D01*
X-75500D01*
Y-28500D01*
X-76500Y-27500D01*
X-75500Y-26500D01*
Y-25500D01*
X-76500D01*
X-77500Y-26500D01*
X-78500Y-25500D01*
X-79500D01*
Y-26500D01*
X-78500Y-27500D01*
X-79500Y-28500D01*
Y-29500D01*
X-69500Y-79500D02*
X-68500D01*
X-67500Y-78500D01*
X-66500Y-79500D01*
X-65500D01*
Y-78500D01*
X-66500Y-77500D01*
X-65500Y-76500D01*
Y-75500D01*
X-66500D01*
X-67500Y-76500D01*
X-68500Y-75500D01*
X-69500D01*
Y-76500D01*
X-68500Y-77500D01*
X-69500Y-78500D01*
Y-79500D01*
Y-59500D02*
X-68500D01*
X-67500Y-58500D01*
X-66500Y-59500D01*
X-65500D01*
Y-58500D01*
X-66500Y-57500D01*
X-65500Y-56500D01*
Y-55500D01*
X-66500D01*
X-67500Y-56500D01*
X-68500Y-55500D01*
X-69500D01*
Y-56500D01*
X-68500Y-57500D01*
X-69500Y-58500D01*
Y-59500D01*
X-99500Y-19500D02*
X-98500D01*
X-97500Y-18500D01*
X-96500Y-19500D01*
X-95500D01*
Y-18500D01*
X-96500Y-17500D01*
X-95500Y-16500D01*
Y-15500D01*
X-96500D01*
X-97500Y-16500D01*
X-98500Y-15500D01*
X-99500D01*
Y-16500D01*
X-98500Y-17500D01*
X-99500Y-18500D01*
Y-19500D01*
Y-9500D02*
X-98500D01*
X-97500Y-8500D01*
X-96500Y-9500D01*
X-95500D01*
Y-8500D01*
X-96500Y-7500D01*
X-95500Y-6500D01*
Y-5500D01*
X-96500D01*
X-97500Y-6500D01*
X-98500Y-5500D01*
X-99500D01*
Y-6500D01*
X-98500Y-7500D01*
X-99500Y-8500D01*
Y-9500D01*
Y500D02*
X-98500D01*
X-97500Y1500D01*
X-96500Y500D01*
X-95500D01*
Y1500D01*
X-96500Y2500D01*
X-95500Y3500D01*
Y4500D01*
X-96500D01*
X-97500Y3500D01*
X-98500Y4500D01*
X-99500D01*
Y3500D01*
X-98500Y2500D01*
X-99500Y1500D01*
Y500D01*
Y10500D02*
X-98500D01*
X-97500Y11500D01*
X-96500Y10500D01*
X-95500D01*
Y11500D01*
X-96500Y12500D01*
X-95500Y13500D01*
Y14500D01*
X-96500D01*
X-97500Y13500D01*
X-98500Y14500D01*
X-99500D01*
Y13500D01*
X-98500Y12500D01*
X-99500Y11500D01*
Y10500D01*
Y20500D02*
X-98500D01*
X-97500Y21500D01*
X-96500Y20500D01*
X-95500D01*
Y21500D01*
X-96500Y22500D01*
X-95500Y23500D01*
Y24500D01*
X-96500D01*
X-97500Y23500D01*
X-98500Y24500D01*
X-99500D01*
Y23500D01*
X-98500Y22500D01*
X-99500Y21500D01*
Y20500D01*
Y30500D02*
X-98500D01*
X-97500Y31500D01*
X-96500Y30500D01*
X-95500D01*
Y31500D01*
X-96500Y32500D01*
X-95500Y33500D01*
Y34500D01*
X-96500D01*
X-97500Y33500D01*
X-98500Y34500D01*
X-99500D01*
Y33500D01*
X-98500Y32500D01*
X-99500Y31500D01*
Y30500D01*
X-89500Y-19500D02*
X-88500D01*
X-87500Y-18500D01*
X-86500Y-19500D01*
X-85500D01*
Y-18500D01*
X-86500Y-17500D01*
X-85500Y-16500D01*
Y-15500D01*
X-86500D01*
X-87500Y-16500D01*
X-88500Y-15500D01*
X-89500D01*
Y-16500D01*
X-88500Y-17500D01*
X-89500Y-18500D01*
Y-19500D01*
Y500D02*
X-88500D01*
X-87500Y1500D01*
X-86500Y500D01*
X-85500D01*
Y1500D01*
X-86500Y2500D01*
X-85500Y3500D01*
Y4500D01*
X-86500D01*
X-87500Y3500D01*
X-88500Y4500D01*
X-89500D01*
Y3500D01*
X-88500Y2500D01*
X-89500Y1500D01*
Y500D01*
Y10500D02*
X-88500D01*
X-87500Y11500D01*
X-86500Y10500D01*
X-85500D01*
Y11500D01*
X-86500Y12500D01*
X-85500Y13500D01*
Y14500D01*
X-86500D01*
X-87500Y13500D01*
X-88500Y14500D01*
X-89500D01*
Y13500D01*
X-88500Y12500D01*
X-89500Y11500D01*
Y10500D01*
Y30500D02*
X-88500D01*
X-87500Y31500D01*
X-86500Y30500D01*
X-85500D01*
Y31500D01*
X-86500Y32500D01*
X-85500Y33500D01*
Y34500D01*
X-86500D01*
X-87500Y33500D01*
X-88500Y34500D01*
X-89500D01*
Y33500D01*
X-88500Y32500D01*
X-89500Y31500D01*
Y30500D01*
X-79500Y-19500D02*
X-78500D01*
X-77500Y-18500D01*
X-76500Y-19500D01*
X-75500D01*
Y-18500D01*
X-76500Y-17500D01*
X-75500Y-16500D01*
Y-15500D01*
X-76500D01*
X-77500Y-16500D01*
X-78500Y-15500D01*
X-79500D01*
Y-16500D01*
X-78500Y-17500D01*
X-79500Y-18500D01*
Y-19500D01*
Y500D02*
X-78500D01*
X-77500Y1500D01*
X-76500Y500D01*
X-75500D01*
Y1500D01*
X-76500Y2500D01*
X-75500Y3500D01*
Y4500D01*
X-76500D01*
X-77500Y3500D01*
X-78500Y4500D01*
X-79500D01*
Y3500D01*
X-78500Y2500D01*
X-79500Y1500D01*
Y500D01*
Y10500D02*
X-78500D01*
X-77500Y11500D01*
X-76500Y10500D01*
X-75500D01*
Y11500D01*
X-76500Y12500D01*
X-75500Y13500D01*
Y14500D01*
X-76500D01*
X-77500Y13500D01*
X-78500Y14500D01*
X-79500D01*
Y13500D01*
X-78500Y12500D01*
X-79500Y11500D01*
Y10500D01*
Y20500D02*
X-78500D01*
X-77500Y21500D01*
X-76500Y20500D01*
X-75500D01*
Y21500D01*
X-76500Y22500D01*
X-75500Y23500D01*
Y24500D01*
X-76500D01*
X-77500Y23500D01*
X-78500Y24500D01*
X-79500D01*
Y23500D01*
X-78500Y22500D01*
X-79500Y21500D01*
Y20500D01*
Y30500D02*
X-78500D01*
X-77500Y31500D01*
X-76500Y30500D01*
X-75500D01*
Y31500D01*
X-76500Y32500D01*
X-75500Y33500D01*
Y34500D01*
X-76500D01*
X-77500Y33500D01*
X-78500Y34500D01*
X-79500D01*
Y33500D01*
X-78500Y32500D01*
X-79500Y31500D01*
Y30500D01*
X-69500Y-19500D02*
X-68500D01*
X-67500Y-18500D01*
X-66500Y-19500D01*
X-65500D01*
Y-18500D01*
X-66500Y-17500D01*
X-65500Y-16500D01*
Y-15500D01*
X-66500D01*
X-67500Y-16500D01*
X-68500Y-15500D01*
X-69500D01*
Y-16500D01*
X-68500Y-17500D01*
X-69500Y-18500D01*
Y-19500D01*
Y500D02*
X-68500D01*
X-67500Y1500D01*
X-66500Y500D01*
X-65500D01*
Y1500D01*
X-66500Y2500D01*
X-65500Y3500D01*
Y4500D01*
X-66500D01*
X-67500Y3500D01*
X-68500Y4500D01*
X-69500D01*
Y3500D01*
X-68500Y2500D01*
X-69500Y1500D01*
Y500D01*
X-89500Y20500D02*
X-88500D01*
X-87500Y21500D01*
X-86500Y20500D01*
X-85500D01*
Y21500D01*
X-86500Y22500D01*
X-85500Y23500D01*
Y24500D01*
X-86500D01*
X-87500Y23500D01*
X-88500Y24500D01*
X-89500D01*
Y23500D01*
X-88500Y22500D01*
X-89500Y21500D01*
Y20500D01*
X-69500D02*
X-68500D01*
X-67500Y21500D01*
X-66500Y20500D01*
X-65500D01*
Y21500D01*
X-66500Y22500D01*
X-65500Y23500D01*
Y24500D01*
X-66500D01*
X-67500Y23500D01*
X-68500Y24500D01*
X-69500D01*
Y23500D01*
X-68500Y22500D01*
X-69500Y21500D01*
Y20500D01*
X-89500Y-9500D02*
X-88500D01*
X-87500Y-8500D01*
X-86500Y-9500D01*
X-85500D01*
Y-8500D01*
X-86500Y-7500D01*
X-85500Y-6500D01*
Y-5500D01*
X-86500D01*
X-87500Y-6500D01*
X-88500Y-5500D01*
X-89500D01*
Y-6500D01*
X-88500Y-7500D01*
X-89500Y-8500D01*
Y-9500D01*
X-69500D02*
X-68500D01*
X-67500Y-8500D01*
X-66500Y-9500D01*
X-65500D01*
Y-8500D01*
X-66500Y-7500D01*
X-65500Y-6500D01*
Y-5500D01*
X-66500D01*
X-67500Y-6500D01*
X-68500Y-5500D01*
X-69500D01*
Y-6500D01*
X-68500Y-7500D01*
X-69500Y-8500D01*
Y-9500D01*
X-89500Y-39500D02*
X-88500D01*
X-87500Y-38500D01*
X-86500Y-39500D01*
X-85500D01*
Y-38500D01*
X-86500Y-37500D01*
X-85500Y-36500D01*
Y-35500D01*
X-86500D01*
X-87500Y-36500D01*
X-88500Y-35500D01*
X-89500D01*
Y-36500D01*
X-88500Y-37500D01*
X-89500Y-38500D01*
Y-39500D01*
X-69500D02*
X-68500D01*
X-67500Y-38500D01*
X-66500Y-39500D01*
X-65500D01*
Y-38500D01*
X-66500Y-37500D01*
X-65500Y-36500D01*
Y-35500D01*
X-66500D01*
X-67500Y-36500D01*
X-68500Y-35500D01*
X-69500D01*
Y-36500D01*
X-68500Y-37500D01*
X-69500Y-38500D01*
Y-39500D01*
X-89500Y-69500D02*
X-88500D01*
X-87500Y-68500D01*
X-86500Y-69500D01*
X-85500D01*
Y-68500D01*
X-86500Y-67500D01*
X-85500Y-66500D01*
Y-65500D01*
X-86500D01*
X-87500Y-66500D01*
X-88500Y-65500D01*
X-89500D01*
Y-66500D01*
X-88500Y-67500D01*
X-89500Y-68500D01*
Y-69500D01*
X-69500D02*
X-68500D01*
X-67500Y-68500D01*
X-66500Y-69500D01*
X-65500D01*
Y-68500D01*
X-66500Y-67500D01*
X-65500Y-66500D01*
Y-65500D01*
X-66500D01*
X-67500Y-66500D01*
X-68500Y-65500D01*
X-69500D01*
Y-66500D01*
X-68500Y-67500D01*
X-69500Y-68500D01*
Y-69500D01*
X-79500Y-89500D02*
X-78500D01*
X-77500Y-88500D01*
X-76500Y-89500D01*
X-75500D01*
Y-88500D01*
X-76500Y-87500D01*
X-75500Y-86500D01*
Y-85500D01*
X-76500D01*
X-77500Y-86500D01*
X-78500Y-85500D01*
X-79500D01*
Y-86500D01*
X-78500Y-87500D01*
X-79500Y-88500D01*
Y-89500D01*
X85500D02*
X86500D01*
X87500Y-88500D01*
X88500Y-89500D01*
X89500D01*
Y-88500D01*
X88500Y-87500D01*
X89500Y-86500D01*
Y-85500D01*
X88500D01*
X87500Y-86500D01*
X86500Y-85500D01*
X85500D01*
Y-86500D01*
X86500Y-87500D01*
X85500Y-88500D01*
Y-89500D01*
X65500D02*
X66500D01*
X67500Y-88500D01*
X68500Y-89500D01*
X69500D01*
Y-88500D01*
X68500Y-87500D01*
X69500Y-86500D01*
Y-85500D01*
X68500D01*
X67500Y-86500D01*
X66500Y-85500D01*
X65500D01*
Y-86500D01*
X66500Y-87500D01*
X65500Y-88500D01*
Y-89500D01*
X85500Y-59500D02*
X86500D01*
X87500Y-58500D01*
X88500Y-59500D01*
X89500D01*
Y-58500D01*
X88500Y-57500D01*
X89500Y-56500D01*
Y-55500D01*
X88500D01*
X87500Y-56500D01*
X86500Y-55500D01*
X85500D01*
Y-56500D01*
X86500Y-57500D01*
X85500Y-58500D01*
Y-59500D01*
X65500D02*
X66500D01*
X67500Y-58500D01*
X68500Y-59500D01*
X69500D01*
Y-58500D01*
X68500Y-57500D01*
X69500Y-56500D01*
Y-55500D01*
X68500D01*
X67500Y-56500D01*
X66500Y-55500D01*
X65500D01*
Y-56500D01*
X66500Y-57500D01*
X65500Y-58500D01*
Y-59500D01*
X85500Y-29500D02*
X86500D01*
X87500Y-28500D01*
X88500Y-29500D01*
X89500D01*
Y-28500D01*
X88500Y-27500D01*
X89500Y-26500D01*
Y-25500D01*
X88500D01*
X87500Y-26500D01*
X86500Y-25500D01*
X85500D01*
Y-26500D01*
X86500Y-27500D01*
X85500Y-28500D01*
Y-29500D01*
X65500D02*
X66500D01*
X67500Y-28500D01*
X68500Y-29500D01*
X69500D01*
Y-28500D01*
X68500Y-27500D01*
X69500Y-26500D01*
Y-25500D01*
X68500D01*
X67500Y-26500D01*
X66500Y-25500D01*
X65500D01*
Y-26500D01*
X66500Y-27500D01*
X65500Y-28500D01*
Y-29500D01*
X85500Y500D02*
X86500D01*
X87500Y1500D01*
X88500Y500D01*
X89500D01*
Y1500D01*
X88500Y2500D01*
X89500Y3500D01*
Y4500D01*
X88500D01*
X87500Y3500D01*
X86500Y4500D01*
X85500D01*
Y3500D01*
X86500Y2500D01*
X85500Y1500D01*
Y500D01*
X65500D02*
X66500D01*
X67500Y1500D01*
X68500Y500D01*
X69500D01*
Y1500D01*
X68500Y2500D01*
X69500Y3500D01*
Y4500D01*
X68500D01*
X67500Y3500D01*
X66500Y4500D01*
X65500D01*
Y3500D01*
X66500Y2500D01*
X65500Y1500D01*
Y500D01*
X85500Y30500D02*
X86500D01*
X87500Y31500D01*
X88500Y30500D01*
X89500D01*
Y31500D01*
X88500Y32500D01*
X89500Y33500D01*
Y34500D01*
X88500D01*
X87500Y33500D01*
X86500Y34500D01*
X85500D01*
Y33500D01*
X86500Y32500D01*
X85500Y31500D01*
Y30500D01*
X65500D02*
X66500D01*
X67500Y31500D01*
X68500Y30500D01*
X69500D01*
Y31500D01*
X68500Y32500D01*
X69500Y33500D01*
Y34500D01*
X68500D01*
X67500Y33500D01*
X66500Y34500D01*
X65500D01*
Y33500D01*
X66500Y32500D01*
X65500Y31500D01*
Y30500D01*
X-79500Y-9500D02*
X-78500D01*
X-77500Y-8500D01*
X-76500Y-9500D01*
X-75500D01*
Y-8500D01*
X-76500Y-7500D01*
X-75500Y-6500D01*
Y-5500D01*
X-76500D01*
X-77500Y-6500D01*
X-78500Y-5500D01*
X-79500D01*
Y-6500D01*
X-78500Y-7500D01*
X-79500Y-8500D01*
Y-9500D01*
X-99500Y-89500D02*
X-98500D01*
X-97500Y-88500D01*
X-96500Y-89500D01*
X-95500D01*
Y-88500D01*
X-96500Y-87500D01*
X-95500Y-86500D01*
Y-85500D01*
X-96500D01*
X-97500Y-86500D01*
X-98500Y-85500D01*
X-99500D01*
Y-86500D01*
X-98500Y-87500D01*
X-99500Y-88500D01*
Y-89500D01*
X65500Y-19500D02*
X66500D01*
X67500Y-18500D01*
X68500Y-19500D01*
X69500D01*
Y-18500D01*
X68500Y-17500D01*
X69500Y-16500D01*
Y-15500D01*
X68500D01*
X67500Y-16500D01*
X66500Y-15500D01*
X65500D01*
Y-16500D01*
X66500Y-17500D01*
X65500Y-18500D01*
Y-19500D01*
X45500Y-89500D02*
X46500D01*
X47500Y-88500D01*
X48500Y-89500D01*
X49500D01*
Y-88500D01*
X48500Y-87500D01*
X49500Y-86500D01*
Y-85500D01*
X48500D01*
X47500Y-86500D01*
X46500Y-85500D01*
X45500D01*
Y-86500D01*
X46500Y-87500D01*
X45500Y-88500D01*
Y-89500D01*
X35500Y-99500D02*
X36500D01*
X37500Y-98500D01*
X38500Y-99500D01*
X39500D01*
Y-98500D01*
X38500Y-97500D01*
X39500Y-96500D01*
Y-95500D01*
X38500D01*
X37500Y-96500D01*
X36500Y-95500D01*
X35500D01*
Y-96500D01*
X36500Y-97500D01*
X35500Y-98500D01*
Y-99500D01*
Y-89500D02*
X36500D01*
X37500Y-88500D01*
X38500Y-89500D01*
X39500D01*
Y-88500D01*
X38500Y-87500D01*
X39500Y-86500D01*
Y-85500D01*
X38500D01*
X37500Y-86500D01*
X36500Y-85500D01*
X35500D01*
Y-86500D01*
X36500Y-87500D01*
X35500Y-88500D01*
Y-89500D01*
X25500D02*
X26500D01*
X27500Y-88500D01*
X28500Y-89500D01*
X29500D01*
Y-88500D01*
X28500Y-87500D01*
X29500Y-86500D01*
Y-85500D01*
X28500D01*
X27500Y-86500D01*
X26500Y-85500D01*
X25500D01*
Y-86500D01*
X26500Y-87500D01*
X25500Y-88500D01*
Y-89500D01*
X-89500D02*
X-88500D01*
X-87500Y-88500D01*
X-86500Y-89500D01*
X-85500D01*
Y-88500D01*
X-86500Y-87500D01*
X-85500Y-86500D01*
Y-85500D01*
X-86500D01*
X-87500Y-86500D01*
X-88500Y-85500D01*
X-89500D01*
Y-86500D01*
X-88500Y-87500D01*
X-89500Y-88500D01*
Y-89500D01*
X-44461Y76740D02*
X-43461Y78740D01*
X-44461Y80740D01*
X-42461Y79740D01*
X-40461Y80740D01*
X-41461Y78740D01*
X-40461Y76740D01*
X-42461Y77740D01*
X-44461Y76740D01*
X-89461D02*
X-88461Y78740D01*
X-89461Y80740D01*
X-87461Y79740D01*
X-85461Y80740D01*
X-86461Y78740D01*
X-85461Y76740D01*
X-87461Y77740D01*
X-89461Y76740D01*
X-34468Y64732D02*
X-33468Y65732D01*
X-32469D01*
X-33468Y66732D01*
X-32469Y67732D01*
X-33468D01*
X-34468Y68732D01*
X-35469Y67732D01*
X-36468D01*
X-35469Y66732D01*
X-36468Y65732D01*
X-35469D01*
X-34468Y64732D01*
X-95453D02*
X-94453Y65732D01*
X-93453D01*
X-94453Y66732D01*
X-93453Y67732D01*
X-94453D01*
X-95453Y68732D01*
X-96453Y67732D01*
X-97453D01*
X-96453Y66732D01*
X-97453Y65732D01*
X-96453D01*
X-95453Y64732D01*
X-47461Y51740D02*
X-49461Y55740D01*
X-45461D01*
X-47461Y51740D01*
X96425Y64929D02*
Y68929D01*
X100425D01*
Y64929D01*
X96425D01*
X-54165Y-100917D02*
Y-96917D01*
X-50165D01*
Y-100917D01*
X-54165D01*
X-62532Y-85169D02*
Y-81169D01*
X-58531D01*
Y-85169D01*
X-62532D01*
Y-100917D02*
Y-96917D01*
X-58531D01*
Y-100917D01*
X-62532D01*
X-48752Y-71390D02*
Y-67390D01*
X-44752D01*
Y-71390D01*
X-48752D01*
X-42847Y-73358D02*
Y-69358D01*
X-38846D01*
Y-73358D01*
X-42847D01*
X-48752D02*
Y-69358D01*
X-44752D01*
Y-73358D01*
X-48752D01*
X-66375Y-55750D02*
Y-51750D01*
X-62375D01*
Y-55750D01*
X-66375D01*
X-59087Y-54165D02*
Y-50165D01*
X-55087D01*
Y-54165D01*
X-59087D01*
X83625Y-44500D02*
Y-40500D01*
X87625D01*
Y-44500D01*
X83625D01*
Y-33875D02*
Y-29875D01*
X87625D01*
Y-33875D01*
X83625D01*
X78000Y-34500D02*
Y-30500D01*
X82000D01*
Y-34500D01*
X78000D01*
X79875Y-31375D02*
Y-27375D01*
X83875D01*
Y-31375D01*
X79875D01*
X55087Y-60071D02*
Y-56071D01*
X59087D01*
Y-60071D01*
X55087D01*
Y-67945D02*
Y-63945D01*
X59087D01*
Y-67945D01*
X55087D01*
Y-51213D02*
Y-47213D01*
X59087D01*
Y-51213D01*
X55087D01*
X63000Y4250D02*
Y8250D01*
X67000D01*
Y4250D01*
X63000D01*
X52134Y-12827D02*
Y-8827D01*
X56134D01*
Y-12827D01*
X52134D01*
X-7905Y1937D02*
Y5937D01*
X-3906D01*
Y1937D01*
X-7905D01*
X-21685Y21622D02*
Y25622D01*
X-17685D01*
Y21622D01*
X-21685D01*
X-15779Y27528D02*
Y31528D01*
X-11779D01*
Y27528D01*
X-15779D01*
X33433Y-37433D02*
Y-33433D01*
X37433D01*
Y-37433D01*
X33433D01*
X88000Y-93250D02*
Y-89250D01*
X92000D01*
Y-93250D01*
X88000D01*
X81750Y-92000D02*
Y-88000D01*
X85750D01*
Y-92000D01*
X81750D01*
X49181Y-4953D02*
Y-953D01*
X53181D01*
Y-4953D01*
X49181D01*
Y-6921D02*
Y-2921D01*
X53181D01*
Y-6921D01*
X49181D01*
X47213Y-32D02*
Y3968D01*
X51213D01*
Y-32D01*
X47213D01*
Y1937D02*
Y5937D01*
X51213D01*
Y1937D01*
X47213D01*
X49181Y15717D02*
Y19716D01*
X53181D01*
Y15717D01*
X49181D01*
X35402Y-43339D02*
Y-39339D01*
X39402D01*
Y-43339D01*
X35402D01*
X31465Y-47276D02*
Y-43276D01*
X35465D01*
Y-47276D01*
X31465D01*
X32449Y-43339D02*
Y-39339D01*
X36449D01*
Y-43339D01*
X32449D01*
X29496D02*
Y-39339D01*
X33496D01*
Y-43339D01*
X29496D01*
Y-37433D02*
Y-33433D01*
X33496D01*
Y-37433D01*
X29496D01*
Y-35465D02*
Y-31465D01*
X33496D01*
Y-35465D01*
X29496D01*
X35402Y-7905D02*
Y-3906D01*
X39402D01*
Y-7905D01*
X35402D01*
Y-17748D02*
Y-13748D01*
X39402D01*
Y-17748D01*
X35402D01*
Y6366D02*
Y10366D01*
X39402D01*
Y6366D01*
X35402D01*
X27528Y15224D02*
Y19224D01*
X31528D01*
Y15224D01*
X27528D01*
X7842D02*
Y19224D01*
X11842D01*
Y15224D01*
X7842D01*
X29496D02*
Y19224D01*
X33496D01*
Y15224D01*
X29496D01*
X5874D02*
Y19224D01*
X9874D01*
Y15224D01*
X5874D01*
X11287Y-31528D02*
Y-27528D01*
X15287D01*
Y-31528D01*
X11287D01*
X14240D02*
Y-27528D01*
X18240D01*
Y-31528D01*
X14240D01*
X23591Y7842D02*
Y11842D01*
X27591D01*
Y7842D01*
X23591D01*
X25559D02*
Y11842D01*
X29559D01*
Y7842D01*
X25559D01*
X14240Y-17748D02*
Y-13748D01*
X18240D01*
Y-17748D01*
X14240D01*
X11287D02*
Y-13748D01*
X15287D01*
Y-17748D01*
X11287D01*
X14240Y-5937D02*
Y-1937D01*
X18240D01*
Y-5937D01*
X14240D01*
X11287D02*
Y-1937D01*
X15287D01*
Y-5937D01*
X11287D01*
X14240Y5874D02*
Y9874D01*
X18240D01*
Y5874D01*
X14240D01*
X11287D02*
Y9874D01*
X15287D01*
Y5874D01*
X11287D01*
X27528Y22606D02*
Y26606D01*
X31528D01*
Y22606D01*
X27528D01*
X29496Y23591D02*
Y27591D01*
X33496D01*
Y23591D01*
X29496D01*
X39339Y27035D02*
Y31035D01*
X43339D01*
Y27035D01*
X39339D01*
X23098Y29988D02*
Y33988D01*
X27098D01*
Y29988D01*
X23098D01*
X13748D02*
Y33988D01*
X17748D01*
Y29988D01*
X13748D01*
X8335Y35894D02*
Y39894D01*
X12335D01*
Y35894D01*
X8335D01*
X3413Y37370D02*
Y41370D01*
X7413D01*
Y37370D01*
X3413D01*
X37370Y26543D02*
Y30543D01*
X41370D01*
Y26543D01*
X37370D01*
X21622Y31465D02*
Y35465D01*
X25622D01*
Y31465D01*
X21622D01*
X15717Y29496D02*
Y33496D01*
X19716D01*
Y29496D01*
X15717D01*
X9811Y34417D02*
Y38417D01*
X13811D01*
Y34417D01*
X9811D01*
X3906Y35402D02*
Y39402D01*
X7905D01*
Y35402D01*
X3906D01*
Y18669D02*
Y22669D01*
X7905D01*
Y18669D01*
X3906D01*
X9811D02*
Y22669D01*
X13811D01*
Y18669D01*
X9811D01*
X15717D02*
Y22669D01*
X19716D01*
Y18669D01*
X15717D01*
X21622D02*
Y22669D01*
X25622D01*
Y18669D01*
X21622D01*
X27528D02*
Y22669D01*
X31528D01*
Y18669D01*
X27528D01*
X33433D02*
Y22669D01*
X37433D01*
Y18669D01*
X33433D01*
X38354Y-33496D02*
Y-29496D01*
X42354D01*
Y-33496D01*
X38354D01*
X40323D02*
Y-29496D01*
X44323D01*
Y-33496D01*
X40323D01*
X42291D02*
Y-29496D01*
X46291D01*
Y-33496D01*
X42291D01*
X25559Y-37433D02*
Y-33433D01*
X29559D01*
Y-37433D01*
X25559D01*
X35402Y-41370D02*
Y-37370D01*
X39402D01*
Y-41370D01*
X35402D01*
X32449D02*
Y-37370D01*
X36449D01*
Y-41370D01*
X32449D01*
X29496D02*
Y-37370D01*
X33496D01*
Y-41370D01*
X29496D01*
X51150Y-14795D02*
Y-10795D01*
X55150D01*
Y-14795D01*
X51150D01*
X59024Y-76803D02*
Y-72803D01*
X63024D01*
Y-76803D01*
X59024D01*
X53118D02*
Y-72803D01*
X57118D01*
Y-76803D01*
X53118D01*
X55087Y-98457D02*
Y-94457D01*
X59087D01*
Y-98457D01*
X55087D01*
X51150Y-20701D02*
Y-16701D01*
X55150D01*
Y-20701D01*
X51150D01*
X33433Y-35465D02*
Y-31465D01*
X37433D01*
Y-35465D01*
X33433D01*
X13748Y-39402D02*
Y-35402D01*
X17748D01*
Y-39402D01*
X13748D01*
X49181Y17685D02*
Y21685D01*
X53181D01*
Y17685D01*
X49181D01*
X-12827Y-91567D02*
Y-87567D01*
X-8827D01*
Y-91567D01*
X-12827D01*
X-15779D02*
Y-87567D01*
X-11779D01*
Y-91567D01*
X-15779D01*
X-18732D02*
Y-87567D01*
X-14732D01*
Y-91567D01*
X-18732D01*
Y-68929D02*
Y-64929D01*
X-14732D01*
Y-68929D01*
X-18732D01*
X-15779D02*
Y-64929D01*
X-11779D01*
Y-68929D01*
X-15779D01*
X-8890Y-73850D02*
Y-69850D01*
X-4890D01*
Y-73850D01*
X-8890D01*
X-11842Y-97472D02*
Y-93472D01*
X-7842D01*
Y-97472D01*
X-11842D01*
X90500Y-74500D02*
Y-70500D01*
X94500D01*
Y-74500D01*
X90500D01*
X51150Y-16764D02*
Y-12764D01*
X55150D01*
Y-16764D01*
X51150D01*
Y-18732D02*
Y-14732D01*
X55150D01*
Y-18732D01*
X51150D01*
X33433Y-47276D02*
Y-43276D01*
X37433D01*
Y-47276D01*
X33433D01*
X68000Y-33250D02*
Y-29250D01*
X72000D01*
Y-33250D01*
X68000D01*
X69250Y-87000D02*
Y-83000D01*
X73250D01*
Y-87000D01*
X69250D01*
X96125Y-34500D02*
Y-30500D01*
X100125D01*
Y-34500D01*
X96125D01*
X94250D02*
Y-30500D01*
X98250D01*
Y-34500D01*
X94250D01*
X55087Y-76803D02*
Y-72803D01*
X59087D01*
Y-76803D01*
X55087D01*
X57055D02*
Y-72803D01*
X61055D01*
Y-76803D01*
X57055D01*
X-45307Y67882D02*
Y71882D01*
X-41307D01*
Y67882D01*
X-45307D01*
X-27591Y41307D02*
Y45307D01*
X-23591D01*
Y41307D01*
X-27591D01*
X-15779Y34417D02*
Y38417D01*
X-11779D01*
Y34417D01*
X-15779D01*
X5874Y70835D02*
Y74835D01*
X9874D01*
Y70835D01*
X5874D01*
X3906Y71819D02*
Y75819D01*
X7905D01*
Y71819D01*
X3906D01*
X-15779Y36386D02*
Y40386D01*
X-11779D01*
Y36386D01*
X-15779D01*
X-47276Y66898D02*
Y70898D01*
X-43276D01*
Y66898D01*
X-47276D01*
X-27591Y43276D02*
Y47276D01*
X-23591D01*
Y43276D01*
X-27591D01*
X-27591Y5874D02*
Y9874D01*
X-23591D01*
Y5874D01*
X-27591D01*
X-47276Y3906D02*
Y7905D01*
X-43276D01*
Y3906D01*
X-47276D01*
X-43339Y1937D02*
Y5937D01*
X-39339D01*
Y1937D01*
X-43339D01*
X-3968Y-35465D02*
Y-31465D01*
X32D01*
Y-35465D01*
X-3968D01*
Y-33496D02*
Y-29496D01*
X32D01*
Y-33496D01*
X-3968D01*
X-11842Y-29559D02*
Y-25559D01*
X-7842D01*
Y-29559D01*
X-11842D01*
X-47276Y-27591D02*
Y-23591D01*
X-43276D01*
Y-27591D01*
X-47276D01*
X-46291Y18669D02*
Y22669D01*
X-42291D01*
Y18669D01*
X-46291D01*
X-61055D02*
Y22669D01*
X-57055D01*
Y18669D01*
X-61055D01*
X-53673Y14732D02*
Y18732D01*
X-49673D01*
Y14732D01*
X-53673D01*
X18669Y3906D02*
Y7905D01*
X22669D01*
Y3906D01*
X18669D01*
X-100425Y96425D02*
Y100425D01*
X-96425D01*
Y96425D01*
X-100425D01*
Y76740D02*
Y80740D01*
X-96425D01*
Y76740D01*
X-100425D01*
X90520Y96425D02*
Y100425D01*
X94520D01*
Y96425D01*
X90520D01*
X96425D02*
Y100425D01*
X100425D01*
Y96425D01*
X96425D01*
X-21685Y27528D02*
Y31528D01*
X-17685D01*
Y27528D01*
X-21685D01*
X-3968D02*
Y31528D01*
X32D01*
Y27528D01*
X-3968D01*
X-9874D02*
Y31528D01*
X-5874D01*
Y27528D01*
X-9874D01*
X-21685Y23591D02*
Y27591D01*
X-17685D01*
Y23591D01*
X-21685D01*
X-7905Y21622D02*
Y25622D01*
X-3906D01*
Y21622D01*
X-7905D01*
X-6429Y13748D02*
Y17748D01*
X-2429D01*
Y13748D01*
X-6429D01*
X-12827Y15717D02*
Y19716D01*
X-8827D01*
Y15717D01*
X-12827D01*
Y13748D02*
Y17748D01*
X-8827D01*
Y13748D01*
X-12827D01*
X-21685Y14732D02*
Y18732D01*
X-17685D01*
Y14732D01*
X-21685D01*
X-2984Y15717D02*
Y19716D01*
X1016D01*
Y15717D01*
X-2984D01*
X-4461Y13748D02*
Y17748D01*
X-461D01*
Y13748D01*
X-4461D01*
X-51213Y66898D02*
Y70898D01*
X-47213D01*
Y66898D01*
X-51213D01*
X-93875Y-22625D02*
Y-18625D01*
X-89875D01*
Y-22625D01*
X-93875D01*
X-92000Y-23250D02*
Y-19250D01*
X-88000D01*
Y-23250D01*
X-92000D01*
X-39402Y-71882D02*
Y-67882D01*
X-35402D01*
Y-71882D01*
X-39402D01*
X-37433D02*
Y-67882D01*
X-33433D01*
Y-71882D01*
X-37433D01*
X-33496Y40323D02*
Y44323D01*
X-29496D01*
Y40323D01*
X-33496D01*
X-40386D02*
Y44323D01*
X-36386D01*
Y40323D01*
X-40386D01*
X-99500Y-24500D02*
Y-20500D01*
X-95500D01*
Y-24500D01*
X-99500D01*
X-88250Y-33875D02*
Y-29875D01*
X-84250D01*
Y-33875D01*
X-88250D01*
X-60071Y-94520D02*
Y-90520D01*
X-56071D01*
Y-94520D01*
X-60071D01*
X-59087Y-48260D02*
Y-44260D01*
X-55087D01*
Y-48260D01*
X-59087D01*
Y-41370D02*
Y-37370D01*
X-55087D01*
Y-41370D01*
X-59087D01*
X-46784Y-100917D02*
Y-96917D01*
X-42783D01*
Y-100917D01*
X-46784D01*
X-38909D02*
Y-96917D01*
X-34909D01*
Y-100917D01*
X-38909D01*
X-17748Y66898D02*
Y70898D01*
X-13748D01*
Y66898D01*
X-17748D01*
X20638Y-35465D02*
Y-31465D01*
X24638D01*
Y-35465D01*
X20638D01*
X-95750Y-93875D02*
Y-89875D01*
X-91750D01*
Y-93875D01*
X-95750D01*
X-92000D02*
Y-89875D01*
X-88000D01*
Y-93875D01*
X-92000D01*
X-23653Y-41370D02*
Y-37370D01*
X-19654D01*
Y-41370D01*
X-23653D01*
X-59087Y-39402D02*
Y-35402D01*
X-55087D01*
Y-39402D01*
X-59087D01*
Y-37433D02*
Y-33433D01*
X-55087D01*
Y-37433D01*
X-59087D01*
Y-35465D02*
Y-31465D01*
X-55087D01*
Y-35465D01*
X-59087D01*
Y-31528D02*
Y-27528D01*
X-55087D01*
Y-31528D01*
X-59087D01*
Y-29559D02*
Y-25559D01*
X-55087D01*
Y-29559D01*
X-59087D01*
Y-27591D02*
Y-23591D01*
X-55087D01*
Y-27591D01*
X-59087D01*
X9811Y66898D02*
Y70898D01*
X13811D01*
Y66898D01*
X9811D01*
X-61055D02*
Y70898D01*
X-57055D01*
Y66898D01*
X-61055D01*
X-68929D02*
Y70898D01*
X-64929D01*
Y66898D01*
X-68929D01*
X-21685Y-32D02*
Y3968D01*
X-17685D01*
Y-32D01*
X-21685D01*
X-22177Y9319D02*
Y13319D01*
X-18177D01*
Y9319D01*
X-22177D01*
X-21685Y11287D02*
Y15287D01*
X-17685D01*
Y11287D01*
X-21685D01*
X-33496Y-9874D02*
Y-5874D01*
X-29496D01*
Y-9874D01*
X-33496D01*
X-37433Y-2000D02*
Y2000D01*
X-33433D01*
Y-2000D01*
X-37433D01*
Y-9874D02*
Y-5874D01*
X-33433D01*
Y-9874D01*
X-37433D01*
X-43339Y-11842D02*
Y-7842D01*
X-39339D01*
Y-11842D01*
X-43339D01*
X-31528Y-3968D02*
Y32D01*
X-27528D01*
Y-3968D01*
X-31528D01*
Y-31528D02*
Y-27528D01*
X-27528D01*
Y-31528D01*
X-31528D01*
X-53181Y65913D02*
Y69913D01*
X-49181D01*
Y65913D01*
X-53181D01*
X-19716Y66898D02*
Y70898D01*
X-15717D01*
Y66898D01*
X-19716D01*
X-5937Y3906D02*
Y7905D01*
X-1937D01*
Y3906D01*
X-5937D01*
X-29067Y-71390D02*
Y-67390D01*
X-25067D01*
Y-71390D01*
X-29067D01*
X-25130D02*
Y-67390D01*
X-21130D01*
Y-71390D01*
X-25130D01*
X-21193D02*
Y-67390D01*
X-17193D01*
Y-71390D01*
X-21193D01*
X-1016Y-87630D02*
Y-83630D01*
X2984D01*
Y-87630D01*
X-1016D01*
X-9382Y-95012D02*
Y-91012D01*
X-5382D01*
Y-95012D01*
X-9382D01*
X1445Y-35465D02*
Y-31465D01*
X5445D01*
Y-35465D01*
X1445D01*
X-34480Y-100917D02*
Y-96917D01*
X-30480D01*
Y-100917D01*
X-34480D01*
X-26606D02*
Y-96917D01*
X-22606D01*
Y-100917D01*
X-26606D01*
X16701Y-31528D02*
Y-27528D01*
X20701D01*
Y-31528D01*
X16701D01*
X953Y5874D02*
Y9874D01*
X4953D01*
Y5874D01*
X953D01*
X-37433Y-17748D02*
Y-13748D01*
X-33433D01*
Y-17748D01*
X-37433D01*
X-47276Y-33496D02*
Y-29496D01*
X-43276D01*
Y-33496D01*
X-47276D01*
X-85125Y-28250D02*
Y-24250D01*
X-81125D01*
Y-28250D01*
X-85125D01*
X-85750Y-26375D02*
Y-22375D01*
X-81750D01*
Y-26375D01*
X-85750D01*
X-84500Y-20750D02*
Y-16750D01*
X-80500D01*
Y-20750D01*
X-84500D01*
X-74500D02*
Y-16750D01*
X-70500D01*
Y-20750D01*
X-74500D01*
X-75750Y15500D02*
Y19500D01*
X-71750D01*
Y15500D01*
X-75750D01*
X-54658Y32449D02*
Y36449D01*
X-50657D01*
Y32449D01*
X-54658D01*
X-49244Y27528D02*
Y31528D01*
X-45244D01*
Y27528D01*
X-49244D01*
X-56134D02*
Y31528D01*
X-52134D01*
Y27528D01*
X-56134D01*
Y25559D02*
Y29559D01*
X-52134D01*
Y25559D01*
X-56134D01*
X-52197Y24575D02*
Y28575D01*
X-48197D01*
Y24575D01*
X-52197D01*
X-49244D02*
Y28575D01*
X-45244D01*
Y24575D01*
X-49244D01*
X-56134Y23591D02*
Y27591D01*
X-52134D01*
Y23591D01*
X-56134D01*
X-55051Y21622D02*
Y25622D01*
X-51051D01*
Y21622D01*
X-55051D01*
X-49244D02*
Y25622D01*
X-45244D01*
Y21622D01*
X-49244D01*
X-52197D02*
Y25622D01*
X-48197D01*
Y21622D01*
X-52197D01*
X-30051Y79693D02*
Y83693D01*
X-26051D01*
Y79693D01*
X-30051D01*
X-27098D02*
Y83693D01*
X-23098D01*
Y79693D01*
X-27098D01*
X-33004D02*
Y83693D01*
X-29004D01*
Y79693D01*
X-33004D01*
X-35957D02*
Y83693D01*
X-31957D01*
Y79693D01*
X-35957D01*
X-46291Y40323D02*
Y44323D01*
X-42291D01*
Y40323D01*
X-46291D01*
Y32449D02*
Y36449D01*
X-42291D01*
Y32449D01*
X-46291D01*
X-28575D02*
Y36449D01*
X-24575D01*
Y32449D01*
X-28575D01*
X-38909D02*
Y36449D01*
X-34909D01*
Y32449D01*
X-38909D01*
X-26606Y29004D02*
Y33004D01*
X-22606D01*
Y29004D01*
X-26606D01*
X-41862D02*
Y33004D01*
X-37862D01*
Y29004D01*
X-41862D01*
X-40386Y27528D02*
Y31528D01*
X-36386D01*
Y27528D01*
X-40386D01*
X-33496Y27429D02*
Y31429D01*
X-29496D01*
Y27429D01*
X-33496D01*
X-43831Y27035D02*
Y31035D01*
X-39831D01*
Y27035D01*
X-43831D01*
X-28083D02*
Y31035D01*
X-24083D01*
Y27035D01*
X-28083D01*
X-40386Y25559D02*
Y29559D01*
X-36386D01*
Y25559D01*
X-40386D01*
X-36449Y24575D02*
Y28575D01*
X-32449D01*
Y24575D01*
X-36449D01*
X-33496D02*
Y28575D01*
X-29496D01*
Y24575D01*
X-33496D01*
X-42354Y23591D02*
Y27591D01*
X-38354D01*
Y23591D01*
X-42354D01*
X-26606D02*
Y27591D01*
X-22606D01*
Y23591D01*
X-26606D01*
X-40386D02*
Y27591D01*
X-36386D01*
Y23591D01*
X-40386D01*
X-46291Y21622D02*
Y25622D01*
X-42291D01*
Y21622D01*
X-46291D01*
X-36449D02*
Y25622D01*
X-32449D01*
Y21622D01*
X-36449D01*
X-30543D02*
Y25622D01*
X-26543D01*
Y21622D01*
X-30543D01*
X-39303D02*
Y25622D01*
X-35303D01*
Y21622D01*
X-39303D01*
X-33496D02*
Y25622D01*
X-29496D01*
Y21622D01*
X-33496D01*
X-26606D02*
Y25622D01*
X-22606D01*
Y21622D01*
X-26606D01*
X-56134Y19654D02*
Y23653D01*
X-52134D01*
Y19654D01*
X-56134D01*
X-52197Y18669D02*
Y22669D01*
X-48197D01*
Y18669D01*
X-52197D01*
X-49244D02*
Y22669D01*
X-45244D01*
Y18669D01*
X-49244D01*
X-73250Y18625D02*
Y22625D01*
X-69250D01*
Y18625D01*
X-73250D01*
Y16750D02*
Y20750D01*
X-69250D01*
Y16750D01*
X-73250D01*
X-75750Y17375D02*
Y21375D01*
X-71750D01*
Y17375D01*
X-75750D01*
X-52197Y13256D02*
Y17256D01*
X-48197D01*
Y13256D01*
X-52197D01*
X-50228Y13010D02*
Y17010D01*
X-46228D01*
Y13010D01*
X-50228D01*
X-60563Y12272D02*
Y16272D01*
X-56563D01*
Y12272D01*
X-60563D01*
X-51213Y11287D02*
Y15287D01*
X-47213D01*
Y11287D01*
X-51213D01*
X-60563Y10303D02*
Y14303D01*
X-56563D01*
Y10303D01*
X-60563D01*
X-55150Y5874D02*
Y9874D01*
X-51150D01*
Y5874D01*
X-55150D01*
X-53181D02*
Y9874D01*
X-49181D01*
Y5874D01*
X-53181D01*
X-62039Y2429D02*
Y6429D01*
X-58039D01*
Y2429D01*
X-62039D01*
X-49244Y1445D02*
Y5445D01*
X-45244D01*
Y1445D01*
X-49244D01*
X-44323Y21622D02*
Y25622D01*
X-40323D01*
Y21622D01*
X-44323D01*
X-40386Y19654D02*
Y23653D01*
X-36386D01*
Y19654D01*
X-40386D01*
X-30543Y18669D02*
Y22669D01*
X-26543D01*
Y18669D01*
X-30543D01*
X-36449D02*
Y22669D01*
X-32449D01*
Y18669D01*
X-36449D01*
X-33496D02*
Y22669D01*
X-29496D01*
Y18669D01*
X-33496D01*
X-42600Y17931D02*
Y21931D01*
X-38600D01*
Y17931D01*
X-42600D01*
X-42354Y15717D02*
Y19716D01*
X-38354D01*
Y15717D01*
X-42354D01*
X-37433Y14732D02*
Y18732D01*
X-33433D01*
Y14732D01*
X-37433D01*
X-35465D02*
Y18732D01*
X-31465D01*
Y14732D01*
X-35465D01*
X-33496Y14240D02*
Y18240D01*
X-29496D01*
Y14240D01*
X-33496D01*
X-28575D02*
Y18240D01*
X-24575D01*
Y14240D01*
X-28575D01*
X-48506Y13748D02*
Y17748D01*
X-44506D01*
Y13748D01*
X-48506D01*
X-31528Y13734D02*
Y17734D01*
X-27528D01*
Y13734D01*
X-31528D01*
X-46784Y12764D02*
Y16764D01*
X-42783D01*
Y12764D01*
X-46784D01*
X-44815Y12272D02*
Y16272D01*
X-40815D01*
Y12272D01*
X-44815D01*
X-29559Y11779D02*
Y15779D01*
X-25559D01*
Y11779D01*
X-29559D01*
X-27591Y11287D02*
Y15287D01*
X-23591D01*
Y11287D01*
X-27591D01*
X-41370Y9811D02*
Y13811D01*
X-37370D01*
Y9811D01*
X-41370D01*
X-43339D02*
Y13811D01*
X-39339D01*
Y9811D01*
X-43339D01*
X-41370Y7842D02*
Y11842D01*
X-37370D01*
Y7842D01*
X-41370D01*
X-43339D02*
Y11842D01*
X-39339D01*
Y7842D01*
X-43339D01*
X-35465Y5874D02*
Y9874D01*
X-31465D01*
Y5874D01*
X-35465D01*
X-25622D02*
Y9874D01*
X-21622D01*
Y5874D01*
X-25622D01*
X-43339Y3906D02*
Y7905D01*
X-39339D01*
Y3906D01*
X-43339D01*
X-27591D02*
Y7905D01*
X-23591D01*
Y3906D01*
X-27591D01*
X-25622D02*
Y7905D01*
X-21622D01*
Y3906D01*
X-25622D01*
X-23653D02*
Y7905D01*
X-19654D01*
Y3906D01*
X-23653D01*
X-41370Y1937D02*
Y5937D01*
X-37370D01*
Y1937D01*
X-41370D01*
X59024Y96425D02*
Y100425D01*
X63024D01*
Y96425D01*
X59024D01*
Y88551D02*
Y92551D01*
X63024D01*
Y88551D01*
X59024D01*
Y84614D02*
Y88614D01*
X63024D01*
Y84614D01*
X59024D01*
Y76740D02*
Y80740D01*
X63024D01*
Y76740D01*
X59024D01*
X1937Y66898D02*
Y70898D01*
X5937D01*
Y66898D01*
X1937D01*
X64929Y96425D02*
Y100425D01*
X68929D01*
Y96425D01*
X64929D01*
X82646D02*
Y100425D01*
X86646D01*
Y96425D01*
X82646D01*
X70835D02*
Y100425D01*
X74835D01*
Y96425D01*
X70835D01*
X76740D02*
Y100425D01*
X80740D01*
Y96425D01*
X76740D01*
X64929Y88551D02*
Y92551D01*
X68929D01*
Y88551D01*
X64929D01*
X70835D02*
Y92551D01*
X74835D01*
Y88551D01*
X70835D01*
X76740D02*
Y92551D01*
X80740D01*
Y88551D01*
X76740D01*
X82646D02*
Y92551D01*
X86646D01*
Y88551D01*
X82646D01*
X64929Y84614D02*
Y88614D01*
X68929D01*
Y84614D01*
X64929D01*
X82646D02*
Y88614D01*
X86646D01*
Y84614D01*
X82646D01*
X76740D02*
Y88614D01*
X80740D01*
Y84614D01*
X76740D01*
X70835D02*
Y88614D01*
X74835D01*
Y84614D01*
X70835D01*
X64929Y76740D02*
Y80740D01*
X68929D01*
Y76740D01*
X64929D01*
X70835D02*
Y80740D01*
X74835D01*
Y76740D01*
X70835D01*
X82646D02*
Y80740D01*
X86646D01*
Y76740D01*
X82646D01*
X76740D02*
Y80740D01*
X80740D01*
Y76740D01*
X76740D01*
X-4953Y15717D02*
Y19716D01*
X-953D01*
Y15717D01*
X-4953D01*
X-7905Y23591D02*
Y27591D01*
X-3906D01*
Y23591D01*
X-7905D01*
X-14795Y15717D02*
Y19716D01*
X-10795D01*
Y15717D01*
X-14795D01*
Y13748D02*
Y17748D01*
X-10795D01*
Y13748D01*
X-14795D01*
X-12827Y11779D02*
Y15779D01*
X-8827D01*
Y11779D01*
X-12827D01*
X-16764D02*
Y15779D01*
X-12764D01*
Y11779D01*
X-16764D01*
X-14795D02*
Y15779D01*
X-10795D01*
Y11779D01*
X-14795D01*
X-1016Y7842D02*
Y11842D01*
X2984D01*
Y7842D01*
X-1016D01*
X-21685Y5874D02*
Y9874D01*
X-17685D01*
Y5874D01*
X-21685D01*
Y3906D02*
Y7905D01*
X-17685D01*
Y3906D01*
X-21685D01*
X-5937Y1937D02*
Y5937D01*
X-1937D01*
Y1937D01*
X-5937D01*
X18669Y11779D02*
Y15779D01*
X22669D01*
Y11779D01*
X18669D01*
X-1016Y9811D02*
Y13811D01*
X2984D01*
Y9811D01*
X-1016D01*
X953D02*
Y13811D01*
X4953D01*
Y9811D01*
X953D01*
X11287Y9811D02*
Y13811D01*
X15287D01*
Y9811D01*
X11287D01*
X14240D02*
Y13811D01*
X18240D01*
Y9811D01*
X14240D01*
X953Y7842D02*
Y11842D01*
X4953D01*
Y7842D01*
X953D01*
X18630Y7842D02*
Y11842D01*
X22630D01*
Y7842D01*
X18630D01*
X-1016Y5874D02*
Y9874D01*
X2984D01*
Y5874D01*
X-1016D01*
X24575Y3906D02*
Y7905D01*
X28575D01*
Y3906D01*
X24575D01*
X-66961Y-13319D02*
Y-9319D01*
X-62961D01*
Y-13319D01*
X-66961D01*
X-65478Y-11356D02*
Y-7356D01*
X-61479D01*
Y-11356D01*
X-65478D01*
X-64992Y-9382D02*
Y-5382D01*
X-60992D01*
Y-9382D01*
X-64992D01*
X-62039Y461D02*
Y4461D01*
X-58039D01*
Y461D01*
X-62039D01*
Y-1508D02*
Y2492D01*
X-58039D01*
Y-1508D01*
X-62039D01*
X-60563Y-13319D02*
Y-9319D01*
X-56563D01*
Y-13319D01*
X-60563D01*
X-58595D02*
Y-9319D01*
X-54594D01*
Y-13319D01*
X-58595D01*
X-56626D02*
Y-9319D01*
X-52626D01*
Y-13319D01*
X-56626D01*
X-49244Y-3968D02*
Y32D01*
X-45244D01*
Y-3968D01*
X-49244D01*
Y-2000D02*
Y2000D01*
X-45244D01*
Y-2000D01*
X-49244D01*
X-47276Y-3968D02*
Y32D01*
X-43276D01*
Y-3968D01*
X-47276D01*
Y-2000D02*
Y2000D01*
X-43276D01*
Y-2000D01*
X-47276D01*
Y-11842D02*
Y-7842D01*
X-43276D01*
Y-11842D01*
X-47276D01*
X-45307Y-3968D02*
Y32D01*
X-41307D01*
Y-3968D01*
X-45307D01*
Y-5937D02*
Y-1937D01*
X-41307D01*
Y-5937D01*
X-45307D01*
Y-11842D02*
Y-7842D01*
X-41307D01*
Y-11842D01*
X-45307D01*
X-43339Y-5937D02*
Y-1937D01*
X-39339D01*
Y-5937D01*
X-43339D01*
Y-7905D02*
Y-3906D01*
X-39339D01*
Y-7905D01*
X-43339D01*
Y-9874D02*
Y-5874D01*
X-39339D01*
Y-9874D01*
X-43339D01*
X-41370Y-5937D02*
Y-1937D01*
X-37370D01*
Y-5937D01*
X-41370D01*
Y-32D02*
Y3968D01*
X-37370D01*
Y-32D01*
X-41370D01*
Y-2000D02*
Y2000D01*
X-37370D01*
Y-2000D01*
X-41370D01*
X-39402Y-32D02*
Y3968D01*
X-35402D01*
Y-32D01*
X-39402D01*
Y-3968D02*
Y32D01*
X-35402D01*
Y-3968D01*
X-39402D01*
X-84500Y-18875D02*
Y-14875D01*
X-80500D01*
Y-18875D01*
X-84500D01*
X-74500D02*
Y-14875D01*
X-70500D01*
Y-18875D01*
X-74500D01*
X-71375Y-13875D02*
Y-9875D01*
X-67375D01*
Y-13875D01*
X-71375D01*
X-69421Y-14303D02*
Y-10303D01*
X-65421D01*
Y-14303D01*
X-69421D01*
X-49244Y-15779D02*
Y-11779D01*
X-45244D01*
Y-15779D01*
X-49244D01*
X-47276Y-15779D02*
Y-11779D01*
X-43276D01*
Y-15779D01*
X-47276D01*
Y-19716D02*
Y-15717D01*
X-43276D01*
Y-19716D01*
X-47276D01*
X-45307Y-13811D02*
Y-9811D01*
X-41307D01*
Y-13811D01*
X-45307D01*
Y-17748D02*
Y-13748D01*
X-41307D01*
Y-17748D01*
X-45307D01*
Y-23653D02*
Y-19654D01*
X-41307D01*
Y-23653D01*
X-45307D01*
X-45307Y-15779D02*
Y-11779D01*
X-41307D01*
Y-15779D01*
X-45307D01*
Y-19716D02*
Y-15717D01*
X-41307D01*
Y-19716D01*
X-45307D01*
Y-21685D02*
Y-17685D01*
X-41307D01*
Y-21685D01*
X-45307D01*
X-43339Y-13811D02*
Y-9811D01*
X-39339D01*
Y-13811D01*
X-43339D01*
Y-15779D02*
Y-11779D01*
X-39339D01*
Y-15779D01*
X-43339D01*
Y-19716D02*
Y-15717D01*
X-39339D01*
Y-19716D01*
X-43339D01*
X-41370Y-25622D02*
Y-21622D01*
X-37370D01*
Y-25622D01*
X-41370D01*
X-39402Y-15779D02*
Y-11779D01*
X-35402D01*
Y-15779D01*
X-39402D01*
Y-2000D02*
Y2000D01*
X-35402D01*
Y-2000D01*
X-39402D01*
Y-9874D02*
Y-5874D01*
X-35402D01*
Y-9874D01*
X-39402D01*
X-37433Y-7905D02*
Y-3906D01*
X-33433D01*
Y-7905D01*
X-37433D01*
Y-11842D02*
Y-7842D01*
X-33433D01*
Y-11842D01*
X-37433D01*
Y-15779D02*
Y-11779D01*
X-33433D01*
Y-15779D01*
X-37433D01*
X-35465D02*
Y-11779D01*
X-31465D01*
Y-15779D01*
X-35465D01*
X-33496Y-11842D02*
Y-7842D01*
X-29496D01*
Y-11842D01*
X-33496D01*
Y-7905D02*
Y-3906D01*
X-29496D01*
Y-7905D01*
X-33496D01*
Y-5937D02*
Y-1937D01*
X-29496D01*
Y-5937D01*
X-33496D01*
X-31528Y-15779D02*
Y-11779D01*
X-27528D01*
Y-15779D01*
X-31528D01*
X-31528Y-11842D02*
Y-7842D01*
X-27528D01*
Y-11842D01*
X-31528D01*
X-29559Y-5937D02*
Y-1937D01*
X-25559D01*
Y-5937D01*
X-29559D01*
Y-11842D02*
Y-7842D01*
X-25559D01*
Y-11842D01*
X-29559D01*
X-27591Y-5937D02*
Y-1937D01*
X-23591D01*
Y-5937D01*
X-27591D01*
Y-15779D02*
Y-11779D01*
X-23591D01*
Y-15779D01*
X-27591D01*
X-25622Y-32D02*
Y3968D01*
X-21622D01*
Y-32D01*
X-25622D01*
Y-3968D02*
Y32D01*
X-21622D01*
Y-3968D01*
X-25622D01*
X-25622Y-9874D02*
Y-5874D01*
X-21622D01*
Y-9874D01*
X-25622D01*
X-23653Y-7905D02*
Y-3906D01*
X-19654D01*
Y-7905D01*
X-23653D01*
Y-5937D02*
Y-1937D01*
X-19654D01*
Y-5937D01*
X-23653D01*
Y-11842D02*
Y-7842D01*
X-19654D01*
Y-11842D01*
X-23653D01*
Y-15779D02*
Y-11779D01*
X-19654D01*
Y-15779D01*
X-23653D01*
X-21685Y-5937D02*
Y-1937D01*
X-17685D01*
Y-5937D01*
X-21685D01*
Y-7905D02*
Y-3906D01*
X-17685D01*
Y-7905D01*
X-21685D01*
Y-11842D02*
Y-7842D01*
X-17685D01*
Y-11842D01*
X-21685D01*
X-19716Y-32D02*
Y3968D01*
X-15717D01*
Y-32D01*
X-19716D01*
Y-15779D02*
Y-11779D01*
X-15717D01*
Y-15779D01*
X-19716D01*
X-19716Y-7905D02*
Y-3906D01*
X-15717D01*
Y-7905D01*
X-19716D01*
X-39402Y-17748D02*
Y-13748D01*
X-35402D01*
Y-17748D01*
X-39402D01*
Y-21685D02*
Y-17685D01*
X-35402D01*
Y-21685D01*
X-39402D01*
Y-23654D02*
Y-19654D01*
X-35402D01*
Y-23654D01*
X-39402D01*
X-37433D02*
Y-19654D01*
X-33433D01*
Y-23654D01*
X-37433D01*
Y-25622D02*
Y-21622D01*
X-33433D01*
Y-25622D01*
X-37433D01*
Y-27591D02*
Y-23591D01*
X-33433D01*
Y-27591D01*
X-37433D01*
X-35465D02*
Y-23591D01*
X-31465D01*
Y-27591D01*
X-35465D01*
X-33496Y-17748D02*
Y-13748D01*
X-29496D01*
Y-17748D01*
X-33496D01*
Y-25622D02*
Y-21622D01*
X-29496D01*
Y-25622D01*
X-33496D01*
Y-27591D02*
Y-23591D01*
X-29496D01*
Y-27591D01*
X-33496D01*
Y-23654D02*
Y-19654D01*
X-29496D01*
Y-23654D01*
X-33496D01*
X-31528Y-21685D02*
Y-17685D01*
X-27528D01*
Y-21685D01*
X-31528D01*
Y-27591D02*
Y-23591D01*
X-27528D01*
Y-27591D01*
X-31528D01*
X-29559Y-17748D02*
Y-13748D01*
X-25559D01*
Y-17748D01*
X-29559D01*
Y-23654D02*
Y-19654D01*
X-25559D01*
Y-23654D01*
X-29559D01*
Y-27591D02*
Y-23591D01*
X-25559D01*
Y-27591D01*
X-29559D01*
X-27591Y-19716D02*
Y-15717D01*
X-23591D01*
Y-19716D01*
X-27591D01*
Y-25622D02*
Y-21622D01*
X-23591D01*
Y-25622D01*
X-27591D01*
Y-27591D02*
Y-23591D01*
X-23591D01*
Y-27591D01*
X-27591D01*
X-25622Y-25622D02*
Y-21622D01*
X-21622D01*
Y-25622D01*
X-25622D01*
Y-21685D02*
Y-17685D01*
X-21622D01*
Y-21685D01*
X-25622D01*
Y-27591D02*
Y-23591D01*
X-21622D01*
Y-27591D01*
X-25622D01*
X-23653Y-19716D02*
Y-15717D01*
X-19654D01*
Y-19716D01*
X-23653D01*
Y-27591D02*
Y-23591D01*
X-19654D01*
Y-27591D01*
X-23653D01*
X-21685Y-15779D02*
Y-11779D01*
X-17685D01*
Y-15779D01*
X-21685D01*
Y-19716D02*
Y-15717D01*
X-17685D01*
Y-19716D01*
X-21685D01*
Y-23654D02*
Y-19654D01*
X-17685D01*
Y-23654D01*
X-21685D01*
Y-27591D02*
Y-23591D01*
X-17685D01*
Y-27591D01*
X-21685D01*
X-19716Y-17748D02*
Y-13748D01*
X-15717D01*
Y-17748D01*
X-19716D01*
Y-19716D02*
Y-15717D01*
X-15717D01*
Y-19716D01*
X-19716D01*
Y-21685D02*
Y-17685D01*
X-15717D01*
Y-21685D01*
X-19716D01*
X-49244Y-31528D02*
Y-27528D01*
X-45244D01*
Y-31528D01*
X-49244D01*
Y-41370D02*
Y-37370D01*
X-45244D01*
Y-41370D01*
X-49244D01*
Y-33496D02*
Y-29496D01*
X-45244D01*
Y-33496D01*
X-49244D01*
Y-35465D02*
Y-31465D01*
X-45244D01*
Y-35465D01*
X-49244D01*
Y-37433D02*
Y-33433D01*
X-45244D01*
Y-37433D01*
X-49244D01*
Y-48752D02*
Y-44752D01*
X-45244D01*
Y-48752D01*
X-49244D01*
X-47276Y-41370D02*
Y-37370D01*
X-43276D01*
Y-41370D01*
X-47276D01*
Y-29559D02*
Y-25559D01*
X-43276D01*
Y-29559D01*
X-47276D01*
Y-35465D02*
Y-31465D01*
X-43276D01*
Y-35465D01*
X-47276D01*
Y-39402D02*
Y-35402D01*
X-43276D01*
Y-39402D01*
X-47276D01*
Y-37433D02*
Y-33433D01*
X-43276D01*
Y-37433D01*
X-47276D01*
X-46784Y-43831D02*
Y-39831D01*
X-42783D01*
Y-43831D01*
X-46784D01*
X-45307Y-35465D02*
Y-31465D01*
X-41307D01*
Y-35465D01*
X-45307D01*
Y-45307D02*
Y-41307D01*
X-41307D01*
Y-45307D01*
X-45307D01*
X-83250Y-94500D02*
Y-90500D01*
X-79250D01*
Y-94500D01*
X-83250D01*
X-75750Y-92000D02*
Y-88000D01*
X-71750D01*
Y-92000D01*
X-75750D01*
X-53181Y-65484D02*
Y-61484D01*
X-49181D01*
Y-65484D01*
X-53181D01*
X-52197Y-63516D02*
Y-59516D01*
X-48197D01*
Y-63516D01*
X-52197D01*
X-48752Y-65484D02*
Y-61484D01*
X-44752D01*
Y-65484D01*
X-48752D01*
X-47768Y-63516D02*
Y-59516D01*
X-43768D01*
Y-63516D01*
X-47768D01*
X-43339Y-31528D02*
Y-27528D01*
X-39339D01*
Y-31528D01*
X-43339D01*
Y-33496D02*
Y-29496D01*
X-39339D01*
Y-33496D01*
X-43339D01*
X-41370Y-29559D02*
Y-25559D01*
X-37370D01*
Y-29559D01*
X-41370D01*
X-41370Y-35465D02*
Y-31465D01*
X-37370D01*
Y-35465D01*
X-41370D01*
X-39402Y-35465D02*
Y-31465D01*
X-35402D01*
Y-35465D01*
X-39402D01*
Y-37433D02*
Y-33433D01*
X-35402D01*
Y-37433D01*
X-39402D01*
X-37433Y-29559D02*
Y-25559D01*
X-33433D01*
Y-29559D01*
X-37433D01*
Y-35465D02*
Y-31465D01*
X-33433D01*
Y-35465D01*
X-37433D01*
Y-37433D02*
Y-33433D01*
X-33433D01*
Y-37433D01*
X-37433D01*
X-33496Y-35465D02*
Y-31465D01*
X-29496D01*
Y-35465D01*
X-33496D01*
Y-37433D02*
Y-33433D01*
X-29496D01*
Y-37433D01*
X-33496D01*
X-31528Y-33496D02*
Y-29496D01*
X-27528D01*
Y-33496D01*
X-31528D01*
Y-29559D02*
Y-25559D01*
X-27528D01*
Y-29559D01*
X-31528D01*
Y-35465D02*
Y-31465D01*
X-27528D01*
Y-35465D01*
X-31528D01*
X-29559Y-33496D02*
Y-29496D01*
X-25559D01*
Y-33496D01*
X-29559D01*
X-29559Y-31528D02*
Y-27528D01*
X-25559D01*
Y-31528D01*
X-29559D01*
X-27591Y-35465D02*
Y-31465D01*
X-23591D01*
Y-35465D01*
X-27591D01*
Y-37433D02*
Y-33433D01*
X-23591D01*
Y-37433D01*
X-27591D01*
X-25622Y-35465D02*
Y-31465D01*
X-21622D01*
Y-35465D01*
X-25622D01*
X-24638Y-45307D02*
Y-41307D01*
X-20638D01*
Y-45307D01*
X-24638D01*
X-24146Y-43339D02*
Y-39339D01*
X-20146D01*
Y-43339D01*
X-24146D01*
X-23653Y-33496D02*
Y-29496D01*
X-19654D01*
Y-33496D01*
X-23653D01*
Y-29559D02*
Y-25559D01*
X-19654D01*
Y-29559D01*
X-23653D01*
Y-35465D02*
Y-31465D01*
X-19654D01*
Y-35465D01*
X-23653D01*
Y-37433D02*
Y-33433D01*
X-19654D01*
Y-37433D01*
X-23653D01*
X-21685Y-33496D02*
Y-29496D01*
X-17685D01*
Y-33496D01*
X-21685D01*
X-21685Y-39402D02*
Y-35402D01*
X-17685D01*
Y-39402D01*
X-21685D01*
X-21193Y-45799D02*
Y-41799D01*
X-17193D01*
Y-45799D01*
X-21193D01*
X-19716Y-35465D02*
Y-31465D01*
X-15717D01*
Y-35465D01*
X-19716D01*
Y-37433D02*
Y-33433D01*
X-15717D01*
Y-37433D01*
X-19716D01*
X-44323Y-60563D02*
Y-56563D01*
X-40323D01*
Y-60563D01*
X-44323D01*
Y-63024D02*
Y-59024D01*
X-40323D01*
Y-63024D01*
X-44323D01*
X-42847Y-59579D02*
Y-55579D01*
X-38846D01*
Y-59579D01*
X-42847D01*
Y-62039D02*
Y-58039D01*
X-38846D01*
Y-62039D01*
X-42847D01*
X-40386Y-65484D02*
Y-61484D01*
X-36386D01*
Y-65484D01*
X-40386D01*
X-39402Y-63516D02*
Y-59516D01*
X-35402D01*
Y-63516D01*
X-39402D01*
X-51016Y-95578D02*
Y-91578D01*
X-47016D01*
Y-95578D01*
X-51016D01*
X-35957Y-60071D02*
Y-56071D01*
X-31957D01*
Y-60071D01*
X-35957D01*
Y-62532D02*
Y-58531D01*
X-31957D01*
Y-62532D01*
X-35957D01*
X-47276Y-95578D02*
Y-91578D01*
X-43276D01*
Y-95578D01*
X-47276D01*
X-33988Y-60071D02*
Y-56071D01*
X-29988D01*
Y-60071D01*
X-33988D01*
Y-62532D02*
Y-58531D01*
X-29988D01*
Y-62532D01*
X-33988D01*
X-27098Y-71390D02*
Y-67390D01*
X-23098D01*
Y-71390D01*
X-27098D01*
X-33004Y-65484D02*
Y-61484D01*
X-29004D01*
Y-65484D01*
X-33004D01*
X-32020Y-63516D02*
Y-59516D01*
X-28020D01*
Y-63516D01*
X-32020D01*
X-43535Y-95578D02*
Y-91578D01*
X-39535D01*
Y-95578D01*
X-43535D01*
X-23161Y-71390D02*
Y-67390D01*
X-19161D01*
Y-71390D01*
X-23161D01*
X-39205Y-95578D02*
Y-91578D01*
X-35205D01*
Y-95578D01*
X-39205D01*
X-26114Y-63516D02*
Y-59516D01*
X-22114D01*
Y-63516D01*
X-26114D01*
X-25130Y-65484D02*
Y-61484D01*
X-21130D01*
Y-65484D01*
X-25130D01*
X-35465Y-95578D02*
Y-91578D01*
X-31465D01*
Y-95578D01*
X-35465D01*
X-22669Y-65484D02*
Y-61484D01*
X-18669D01*
Y-65484D01*
X-22669D01*
X-21193Y-63516D02*
Y-59516D01*
X-17193D01*
Y-63516D01*
X-21193D01*
X-31724Y-95578D02*
Y-91578D01*
X-27724D01*
Y-95578D01*
X-31724D01*
X-1016Y-2000D02*
Y2000D01*
X2984D01*
Y-2000D01*
X-1016D01*
Y-3968D02*
Y32D01*
X2984D01*
Y-3968D01*
X-1016D01*
X-11842Y-5937D02*
Y-1937D01*
X-7842D01*
Y-5937D01*
X-11842D01*
X-5937D02*
Y-1937D01*
X-1937D01*
Y-5937D01*
X-5937D01*
X-7905D02*
Y-1937D01*
X-3906D01*
Y-5937D01*
X-7905D01*
X-17748Y-5937D02*
Y-1937D01*
X-13748D01*
Y-5937D01*
X-17748D01*
X-13811D02*
Y-1937D01*
X-9811D01*
Y-5937D01*
X-13811D01*
X-7905Y-7905D02*
Y-3906D01*
X-3906D01*
Y-7905D01*
X-7905D01*
X-5937D02*
Y-3906D01*
X-1937D01*
Y-7905D01*
X-5937D01*
X-17748D02*
Y-3906D01*
X-13748D01*
Y-7905D01*
X-17748D01*
X-13811Y-7905D02*
Y-3906D01*
X-9811D01*
Y-7905D01*
X-13811D01*
Y-11842D02*
Y-7842D01*
X-9811D01*
Y-11842D01*
X-13811D01*
X-5937D02*
Y-7842D01*
X-1937D01*
Y-11842D01*
X-5937D01*
X-17748Y-11842D02*
Y-7842D01*
X-13748D01*
Y-11842D01*
X-17748D01*
X-11842D02*
Y-7842D01*
X-7842D01*
Y-11842D01*
X-11842D01*
X-19716D02*
Y-7842D01*
X-15717D01*
Y-11842D01*
X-19716D01*
X-17748Y-27591D02*
Y-23591D01*
X-13748D01*
Y-27591D01*
X-17748D01*
Y-29559D02*
Y-25559D01*
X-13748D01*
Y-29559D01*
X-17748D01*
X-15779Y-25622D02*
Y-21622D01*
X-11779D01*
Y-25622D01*
X-15779D01*
X-15779Y-27591D02*
Y-23591D01*
X-11779D01*
Y-27591D01*
X-15779D01*
X-13811Y-19716D02*
Y-15717D01*
X-9811D01*
Y-19716D01*
X-13811D01*
Y-21685D02*
Y-17685D01*
X-9811D01*
Y-21685D01*
X-13811D01*
X-11842Y-13811D02*
Y-9811D01*
X-7842D01*
Y-13811D01*
X-11842D01*
Y-21685D02*
Y-17685D01*
X-7842D01*
Y-21685D01*
X-11842D01*
X-11842Y-15779D02*
Y-11779D01*
X-7842D01*
Y-15779D01*
X-11842D01*
Y-23654D02*
Y-19654D01*
X-7842D01*
Y-23654D01*
X-11842D01*
X-9874Y-15779D02*
Y-11779D01*
X-5874D01*
Y-15779D01*
X-9874D01*
X-9874Y-13811D02*
Y-9811D01*
X-5874D01*
Y-13811D01*
X-9874D01*
Y-23654D02*
Y-19654D01*
X-5874D01*
Y-23654D01*
X-9874D01*
Y-17748D02*
Y-13748D01*
X-5874D01*
Y-17748D01*
X-9874D01*
X-7905Y-13811D02*
Y-9811D01*
X-3906D01*
Y-13811D01*
X-7905D01*
Y-17748D02*
Y-13748D01*
X-3906D01*
Y-17748D01*
X-7905D01*
Y-23653D02*
Y-19654D01*
X-3906D01*
Y-23653D01*
X-7905D01*
Y-19716D02*
Y-15717D01*
X-3906D01*
Y-19716D01*
X-7905D01*
X-7905Y-15779D02*
Y-11779D01*
X-3906D01*
Y-15779D01*
X-7905D01*
X-5937Y-13811D02*
Y-9811D01*
X-1937D01*
Y-13811D01*
X-5937D01*
Y-15779D02*
Y-11779D01*
X-1937D01*
Y-15779D01*
X-5937D01*
Y-17748D02*
Y-13748D01*
X-1937D01*
Y-17748D01*
X-5937D01*
Y-19716D02*
Y-15717D01*
X-1937D01*
Y-19716D01*
X-5937D01*
Y-23653D02*
Y-19654D01*
X-1937D01*
Y-23653D01*
X-5937D01*
Y-29559D02*
Y-25559D01*
X-1937D01*
Y-29559D01*
X-5937D01*
X-1016Y-13811D02*
Y-9811D01*
X2984D01*
Y-13811D01*
X-1016D01*
Y-15779D02*
Y-11779D01*
X2984D01*
Y-15779D01*
X-1016D01*
Y-17748D02*
Y-13748D01*
X2984D01*
Y-17748D01*
X-1016D01*
Y-29559D02*
Y-25559D01*
X2984D01*
Y-29559D01*
X-1016D01*
Y-25622D02*
Y-21622D01*
X2984D01*
Y-25622D01*
X-1016D01*
Y-27591D02*
Y-23591D01*
X2984D01*
Y-27591D01*
X-1016D01*
X953Y-2000D02*
Y2000D01*
X4953D01*
Y-2000D01*
X953D01*
Y-3968D02*
Y32D01*
X4953D01*
Y-3968D01*
X953D01*
Y-5937D02*
Y-1937D01*
X4953D01*
Y-5937D01*
X953D01*
Y-13811D02*
Y-9811D01*
X4953D01*
Y-13811D01*
X953D01*
X11287Y-2000D02*
Y2000D01*
X15287D01*
Y-2000D01*
X11287D01*
Y-13811D02*
Y-9811D01*
X15287D01*
Y-13811D01*
X11287D01*
X14240Y-2000D02*
Y2000D01*
X18240D01*
Y-2000D01*
X14240D01*
X18630Y-3968D02*
Y32D01*
X22630D01*
Y-3968D01*
X18630D01*
X18669Y-32D02*
Y3968D01*
X22669D01*
Y-32D01*
X18669D01*
Y-7905D02*
Y-3906D01*
X22669D01*
Y-7905D01*
X18669D01*
Y-11842D02*
Y-7842D01*
X22669D01*
Y-11842D01*
X18669D01*
X23591Y-3968D02*
Y32D01*
X27591D01*
Y-3968D01*
X23591D01*
X24575Y-7905D02*
Y-3906D01*
X28575D01*
Y-7905D01*
X24575D01*
X25559Y-3968D02*
Y32D01*
X29559D01*
Y-3968D01*
X25559D01*
X953Y-15779D02*
Y-11779D01*
X4953D01*
Y-15779D01*
X953D01*
Y-17748D02*
Y-13748D01*
X4953D01*
Y-17748D01*
X953D01*
Y-29559D02*
Y-25559D01*
X4953D01*
Y-29559D01*
X953D01*
Y-27591D02*
Y-23591D01*
X4953D01*
Y-27591D01*
X953D01*
Y-25622D02*
Y-21622D01*
X4953D01*
Y-25622D01*
X953D01*
X11287Y-25622D02*
Y-21622D01*
X15287D01*
Y-25622D01*
X11287D01*
X14240Y-13811D02*
Y-9811D01*
X18240D01*
Y-13811D01*
X14240D01*
Y-25622D02*
Y-21622D01*
X18240D01*
Y-25622D01*
X14240D01*
X18630Y-15779D02*
Y-11779D01*
X22630D01*
Y-15779D01*
X18630D01*
Y-27591D02*
Y-23591D01*
X22630D01*
Y-27591D01*
X18630D01*
X18669Y-19716D02*
Y-15717D01*
X22669D01*
Y-19716D01*
X18669D01*
Y-23653D02*
Y-19654D01*
X22669D01*
Y-23653D01*
X18669D01*
X23591Y-15779D02*
Y-11779D01*
X27591D01*
Y-15779D01*
X23591D01*
Y-27591D02*
Y-23591D01*
X27591D01*
Y-27591D01*
X23591D01*
X24575Y-19716D02*
Y-15717D01*
X28575D01*
Y-19716D01*
X24575D01*
X25559Y-15779D02*
Y-11779D01*
X29559D01*
Y-15779D01*
X25559D01*
Y-27591D02*
Y-23591D01*
X29559D01*
Y-27591D01*
X25559D01*
X-19716Y-31528D02*
Y-27528D01*
X-15717D01*
Y-31528D01*
X-19716D01*
X-13811Y-29559D02*
Y-25559D01*
X-9811D01*
Y-29559D01*
X-13811D01*
X24575Y-31528D02*
Y-27528D01*
X28575D01*
Y-31528D01*
X24575D01*
X-7905D02*
Y-27528D01*
X-3906D01*
Y-31528D01*
X-7905D01*
X-11842Y-33496D02*
Y-29496D01*
X-7842D01*
Y-33496D01*
X-11842D01*
X-5937Y-31528D02*
Y-27528D01*
X-1937D01*
Y-31528D01*
X-5937D01*
X-7905Y-33496D02*
Y-29496D01*
X-3906D01*
Y-33496D01*
X-7905D01*
X18669Y-31528D02*
Y-27528D01*
X22669D01*
Y-31528D01*
X18669D01*
X-7905Y-29559D02*
Y-25559D01*
X-3906D01*
Y-29559D01*
X-7905D01*
X-19716Y-33496D02*
Y-29496D01*
X-15717D01*
Y-33496D01*
X-19716D01*
X-9874D02*
Y-29496D01*
X-5874D01*
Y-33496D01*
X-9874D01*
X-15779Y-35465D02*
Y-31465D01*
X-11779D01*
Y-35465D01*
X-15779D01*
Y-37433D02*
Y-33433D01*
X-11779D01*
Y-37433D01*
X-15779D01*
X-13811Y-35465D02*
Y-31465D01*
X-9811D01*
Y-35465D01*
X-13811D01*
Y-37433D02*
Y-33433D01*
X-9811D01*
Y-37433D01*
X-13811D01*
X-11842Y-35465D02*
Y-31465D01*
X-7842D01*
Y-35465D01*
X-11842D01*
X-9874Y-37433D02*
Y-33433D01*
X-5874D01*
Y-37433D01*
X-9874D01*
X-7905D02*
Y-33433D01*
X-3906D01*
Y-37433D01*
X-7905D01*
X-5937Y-41370D02*
Y-37370D01*
X-1937D01*
Y-41370D01*
X-5937D01*
X8335Y-35465D02*
Y-31465D01*
X12335D01*
Y-35465D01*
X8335D01*
D85*
X83877Y57087D02*
G03*
X83877Y57087I-1200J0D01*
G01*
X74035D02*
G03*
X74035Y57087I-1200J0D01*
G01*
X66161D02*
G03*
X66161Y57087I-1200J0D01*
G01*
X56318D02*
G03*
X56318Y57087I-1200J0D01*
G01*
X83877Y67402D02*
G03*
X83877Y67402I-1200J0D01*
G01*
X74035D02*
G03*
X74035Y67402I-1200J0D01*
G01*
X66161D02*
G03*
X66161Y67402I-1200J0D01*
G01*
X56318D02*
G03*
X56318Y67402I-1200J0D01*
G01*
M02*
