G04*
G04 #@! TF.GenerationSoftware,Altium Limited,Altium Designer,24.5.2 (23)*
G04*
G04 Layer_Color=13421772*
%FSLAX25Y25*%
%MOIN*%
G70*
G04*
G04 #@! TF.SameCoordinates,6DF05ACD-99E5-4A60-94F4-888D25E85DCD*
G04*
G04*
G04 #@! TF.FilePolarity,Negative*
G04*
G01*
G75*
%ADD14R,0.01181X0.02638*%
%ADD34R,0.01968X0.01968*%
%ADD35R,0.03543X0.05512*%
%ADD36C,0.00984*%
%ADD37R,0.03937X0.04724*%
%ADD38R,0.05512X0.03543*%
%ADD39R,0.01800X0.01600*%
%ADD40R,0.01000X0.01000*%
%ADD41R,0.07480X0.07480*%
%ADD42R,0.01800X0.00800*%
%ADD43R,0.00800X0.01800*%
%ADD44R,0.01600X0.01800*%
G04:AMPARAMS|DCode=45|XSize=19.68mil|YSize=23.62mil|CornerRadius=0mil|HoleSize=0mil|Usage=FLASHONLY|Rotation=315.000|XOffset=0mil|YOffset=0mil|HoleType=Round|Shape=Rectangle|*
%AMROTATEDRECTD45*
4,1,4,-0.01531,-0.00139,0.00139,0.01531,0.01531,0.00139,-0.00139,-0.01531,-0.01531,-0.00139,0.0*
%
%ADD45ROTATEDRECTD45*%

%ADD46R,0.02362X0.01968*%
G04:AMPARAMS|DCode=47|XSize=19.68mil|YSize=23.62mil|CornerRadius=0mil|HoleSize=0mil|Usage=FLASHONLY|Rotation=225.000|XOffset=0mil|YOffset=0mil|HoleType=Round|Shape=Rectangle|*
%AMROTATEDRECTD47*
4,1,4,-0.00139,0.01531,0.01531,-0.00139,0.00139,-0.01531,-0.01531,0.00139,-0.00139,0.01531,0.0*
%
%ADD47ROTATEDRECTD47*%

%ADD48R,0.01968X0.02362*%
%ADD49R,0.05906X0.02362*%
%ADD50R,0.09213X0.05906*%
%ADD51R,0.07087X0.03543*%
G04:AMPARAMS|DCode=52|XSize=23.62mil|YSize=27.56mil|CornerRadius=5.91mil|HoleSize=0mil|Usage=FLASHONLY|Rotation=0.000|XOffset=0mil|YOffset=0mil|HoleType=Round|Shape=RoundedRectangle|*
%AMROUNDEDRECTD52*
21,1,0.02362,0.01575,0,0,0.0*
21,1,0.01181,0.02756,0,0,0.0*
1,1,0.01181,0.00591,-0.00787*
1,1,0.01181,-0.00591,-0.00787*
1,1,0.01181,-0.00591,0.00787*
1,1,0.01181,0.00591,0.00787*
%
%ADD52ROUNDEDRECTD52*%
%ADD53C,0.10354*%
%ADD54C,0.05906*%
%ADD55C,0.06693*%
%ADD56C,0.05512*%
%ADD57C,0.12992*%
%ADD58C,0.02756*%
D14*
X-11812Y14803D02*
D03*
X-9843D02*
D03*
X-7874D02*
D03*
Y20630D02*
D03*
X-9843D02*
D03*
X-11812D02*
D03*
X-0Y14803D02*
D03*
X1969D02*
D03*
X3937D02*
D03*
Y20630D02*
D03*
X1969D02*
D03*
X-0D02*
D03*
X11811Y14803D02*
D03*
X13780D02*
D03*
X15748D02*
D03*
Y20630D02*
D03*
X13780D02*
D03*
X11811D02*
D03*
X23621Y14803D02*
D03*
X25591D02*
D03*
X27560D02*
D03*
Y20630D02*
D03*
X25591D02*
D03*
X23621D02*
D03*
D34*
X37402Y32480D02*
D03*
X43307Y-55118D02*
D03*
D35*
X-28543Y-59055D02*
D03*
X-20669D02*
D03*
X91929Y60039D02*
D03*
X99803D02*
D03*
X-1969Y26575D02*
D03*
X5906D02*
D03*
X-13780D02*
D03*
X-5906D02*
D03*
X9843D02*
D03*
X17717D02*
D03*
X21654D02*
D03*
X29528D02*
D03*
X-20669Y-17717D02*
D03*
X-28543D02*
D03*
X-20669Y-11811D02*
D03*
X-28543D02*
D03*
X-20669Y0D02*
D03*
X-28543D02*
D03*
X-20669Y-5906D02*
D03*
X-28543D02*
D03*
D36*
X39370Y-3937D02*
D03*
Y-5906D02*
D03*
Y-7874D02*
D03*
Y-9843D02*
D03*
Y-11811D02*
D03*
Y-13780D02*
D03*
Y-15748D02*
D03*
Y-17717D02*
D03*
Y-19685D02*
D03*
Y-21654D02*
D03*
Y-23622D02*
D03*
Y-25591D02*
D03*
Y-27559D02*
D03*
Y-29528D02*
D03*
Y-31496D02*
D03*
Y-33465D02*
D03*
Y-35433D02*
D03*
Y-37402D02*
D03*
Y-39370D02*
D03*
Y-41339D02*
D03*
Y-43307D02*
D03*
Y-45276D02*
D03*
Y-47244D02*
D03*
Y-49213D02*
D03*
Y-51181D02*
D03*
X37402Y-3937D02*
D03*
Y-5906D02*
D03*
Y-7874D02*
D03*
Y-9843D02*
D03*
Y-11811D02*
D03*
Y-13780D02*
D03*
Y-15748D02*
D03*
Y-17717D02*
D03*
Y-19685D02*
D03*
Y-21654D02*
D03*
Y-23622D02*
D03*
Y-25591D02*
D03*
Y-27559D02*
D03*
Y-29528D02*
D03*
Y-31496D02*
D03*
Y-33465D02*
D03*
Y-35433D02*
D03*
Y-37402D02*
D03*
Y-39370D02*
D03*
Y-41339D02*
D03*
Y-43307D02*
D03*
Y-45276D02*
D03*
Y-47244D02*
D03*
Y-49213D02*
D03*
Y-51181D02*
D03*
X35433Y-3937D02*
D03*
Y-5906D02*
D03*
Y-11811D02*
D03*
Y-13780D02*
D03*
Y-19685D02*
D03*
Y-23622D02*
D03*
Y-27559D02*
D03*
Y-31496D02*
D03*
Y-35433D02*
D03*
Y-41339D02*
D03*
Y-43307D02*
D03*
Y-49213D02*
D03*
Y-51181D02*
D03*
X33465Y-3937D02*
D03*
Y-5906D02*
D03*
Y-9843D02*
D03*
Y-13780D02*
D03*
Y-19685D02*
D03*
Y-21654D02*
D03*
Y-25591D02*
D03*
Y-29528D02*
D03*
Y-33465D02*
D03*
Y-35433D02*
D03*
Y-41339D02*
D03*
Y-45276D02*
D03*
Y-49213D02*
D03*
Y-51181D02*
D03*
X31496Y-3937D02*
D03*
Y-5906D02*
D03*
Y-7874D02*
D03*
Y-11811D02*
D03*
Y-15748D02*
D03*
Y-17717D02*
D03*
Y-23622D02*
D03*
Y-25591D02*
D03*
Y-29528D02*
D03*
Y-31496D02*
D03*
Y-37402D02*
D03*
Y-39370D02*
D03*
Y-43307D02*
D03*
Y-47244D02*
D03*
Y-49213D02*
D03*
Y-51181D02*
D03*
X29528Y-3937D02*
D03*
Y-5906D02*
D03*
Y-7874D02*
D03*
Y-9843D02*
D03*
Y-13780D02*
D03*
Y-17717D02*
D03*
Y-23622D02*
D03*
Y-27559D02*
D03*
Y-31496D02*
D03*
Y-37402D02*
D03*
Y-41339D02*
D03*
Y-45276D02*
D03*
Y-47244D02*
D03*
Y-49213D02*
D03*
Y-51181D02*
D03*
X27559Y-3937D02*
D03*
Y-5906D02*
D03*
Y-11811D02*
D03*
Y-15748D02*
D03*
Y-19685D02*
D03*
Y-21654D02*
D03*
Y-25591D02*
D03*
Y-27559D02*
D03*
Y-29528D02*
D03*
Y-33465D02*
D03*
Y-35433D02*
D03*
Y-39370D02*
D03*
Y-43307D02*
D03*
Y-49213D02*
D03*
Y-51181D02*
D03*
X25591Y-3937D02*
D03*
Y-5906D02*
D03*
Y-11811D02*
D03*
Y-13780D02*
D03*
Y-17717D02*
D03*
Y-19685D02*
D03*
Y-21654D02*
D03*
Y-23622D02*
D03*
Y-27559D02*
D03*
Y-31496D02*
D03*
Y-33465D02*
D03*
Y-35433D02*
D03*
Y-37402D02*
D03*
Y-41339D02*
D03*
Y-43307D02*
D03*
Y-49213D02*
D03*
Y-51181D02*
D03*
X23622Y-3937D02*
D03*
Y-5906D02*
D03*
Y-7874D02*
D03*
Y-9843D02*
D03*
Y-15748D02*
D03*
Y-17717D02*
D03*
Y-23622D02*
D03*
Y-25591D02*
D03*
Y-27559D02*
D03*
Y-29528D02*
D03*
Y-37402D02*
D03*
Y-39370D02*
D03*
Y-45276D02*
D03*
Y-47244D02*
D03*
Y-49213D02*
D03*
Y-51181D02*
D03*
X21654Y-3937D02*
D03*
Y-5906D02*
D03*
Y-7874D02*
D03*
Y-9843D02*
D03*
Y-15748D02*
D03*
Y-19685D02*
D03*
Y-21654D02*
D03*
Y-27559D02*
D03*
Y-31496D02*
D03*
Y-33465D02*
D03*
Y-35433D02*
D03*
Y-37402D02*
D03*
Y-39370D02*
D03*
Y-45276D02*
D03*
Y-49213D02*
D03*
Y-51181D02*
D03*
X19685Y-3937D02*
D03*
Y-5906D02*
D03*
Y-11811D02*
D03*
Y-13780D02*
D03*
Y-17717D02*
D03*
Y-23622D02*
D03*
Y-25591D02*
D03*
Y-29528D02*
D03*
Y-31496D02*
D03*
Y-37402D02*
D03*
Y-41339D02*
D03*
Y-43307D02*
D03*
Y-47244D02*
D03*
Y-49213D02*
D03*
Y-51181D02*
D03*
X17717Y-3937D02*
D03*
Y-5906D02*
D03*
Y-9843D02*
D03*
Y-11811D02*
D03*
Y-15748D02*
D03*
Y-17717D02*
D03*
Y-19685D02*
D03*
Y-21654D02*
D03*
Y-25591D02*
D03*
Y-27559D02*
D03*
Y-33465D02*
D03*
Y-35433D02*
D03*
Y-37402D02*
D03*
Y-39370D02*
D03*
Y-43307D02*
D03*
Y-45276D02*
D03*
Y-49213D02*
D03*
Y-51181D02*
D03*
X15748Y-3937D02*
D03*
Y-5906D02*
D03*
Y-7874D02*
D03*
Y-13780D02*
D03*
Y-17717D02*
D03*
Y-23622D02*
D03*
Y-25591D02*
D03*
Y-27559D02*
D03*
Y-29528D02*
D03*
Y-31496D02*
D03*
Y-37402D02*
D03*
Y-41339D02*
D03*
Y-47244D02*
D03*
Y-49213D02*
D03*
Y-51181D02*
D03*
X13780Y-3937D02*
D03*
Y-5906D02*
D03*
Y-9843D02*
D03*
Y-11811D02*
D03*
Y-15748D02*
D03*
Y-19685D02*
D03*
Y-21654D02*
D03*
Y-27559D02*
D03*
Y-33465D02*
D03*
Y-35433D02*
D03*
Y-37402D02*
D03*
Y-39370D02*
D03*
Y-43307D02*
D03*
Y-45276D02*
D03*
Y-49213D02*
D03*
Y-51181D02*
D03*
X11811Y-3937D02*
D03*
Y-5906D02*
D03*
Y-7874D02*
D03*
Y-11811D02*
D03*
Y-13780D02*
D03*
Y-17717D02*
D03*
Y-23622D02*
D03*
Y-25591D02*
D03*
Y-27559D02*
D03*
Y-29528D02*
D03*
Y-31496D02*
D03*
Y-37402D02*
D03*
Y-41339D02*
D03*
Y-43307D02*
D03*
Y-47244D02*
D03*
Y-49213D02*
D03*
Y-51181D02*
D03*
X9843Y-3937D02*
D03*
Y-5906D02*
D03*
Y-9843D02*
D03*
Y-15748D02*
D03*
Y-17717D02*
D03*
Y-19685D02*
D03*
Y-21654D02*
D03*
Y-27559D02*
D03*
Y-29528D02*
D03*
Y-33465D02*
D03*
Y-35433D02*
D03*
Y-37402D02*
D03*
Y-39370D02*
D03*
Y-45276D02*
D03*
Y-49213D02*
D03*
Y-51181D02*
D03*
X7874Y-3937D02*
D03*
Y-5906D02*
D03*
Y-7874D02*
D03*
Y-9843D02*
D03*
Y-15748D02*
D03*
Y-17717D02*
D03*
Y-23622D02*
D03*
Y-25591D02*
D03*
Y-29528D02*
D03*
Y-31496D02*
D03*
Y-37402D02*
D03*
Y-39370D02*
D03*
Y-45276D02*
D03*
Y-47244D02*
D03*
Y-49213D02*
D03*
Y-51181D02*
D03*
X5906Y-3937D02*
D03*
Y-5906D02*
D03*
Y-11811D02*
D03*
Y-13780D02*
D03*
Y-17717D02*
D03*
Y-19685D02*
D03*
Y-21654D02*
D03*
Y-23622D02*
D03*
Y-27559D02*
D03*
Y-31496D02*
D03*
Y-33465D02*
D03*
Y-35433D02*
D03*
Y-37402D02*
D03*
Y-41339D02*
D03*
Y-43307D02*
D03*
Y-49213D02*
D03*
Y-51181D02*
D03*
X3937Y-3937D02*
D03*
Y-5906D02*
D03*
Y-11811D02*
D03*
Y-15748D02*
D03*
Y-19685D02*
D03*
Y-21654D02*
D03*
Y-25591D02*
D03*
Y-27559D02*
D03*
Y-29528D02*
D03*
Y-33465D02*
D03*
Y-35433D02*
D03*
Y-39370D02*
D03*
Y-43307D02*
D03*
Y-49213D02*
D03*
Y-51181D02*
D03*
X1969Y-3937D02*
D03*
Y-5906D02*
D03*
Y-7874D02*
D03*
Y-9843D02*
D03*
Y-13780D02*
D03*
Y-17717D02*
D03*
Y-23622D02*
D03*
Y-27559D02*
D03*
Y-31496D02*
D03*
Y-37402D02*
D03*
Y-41339D02*
D03*
Y-45276D02*
D03*
Y-47244D02*
D03*
Y-49213D02*
D03*
Y-51181D02*
D03*
X0Y-3937D02*
D03*
Y-5906D02*
D03*
Y-7874D02*
D03*
Y-11811D02*
D03*
Y-15748D02*
D03*
Y-17717D02*
D03*
Y-23622D02*
D03*
Y-25591D02*
D03*
Y-29528D02*
D03*
Y-31496D02*
D03*
Y-37402D02*
D03*
Y-39370D02*
D03*
Y-43307D02*
D03*
Y-47244D02*
D03*
Y-49213D02*
D03*
Y-51181D02*
D03*
X-1969Y-3937D02*
D03*
Y-5906D02*
D03*
Y-9843D02*
D03*
Y-13780D02*
D03*
Y-19685D02*
D03*
Y-21654D02*
D03*
Y-25591D02*
D03*
Y-29528D02*
D03*
Y-33465D02*
D03*
Y-35433D02*
D03*
Y-41339D02*
D03*
Y-45276D02*
D03*
Y-49213D02*
D03*
Y-51181D02*
D03*
X-3937Y-3937D02*
D03*
Y-5906D02*
D03*
Y-11811D02*
D03*
Y-13780D02*
D03*
Y-19685D02*
D03*
Y-23622D02*
D03*
Y-27559D02*
D03*
Y-31496D02*
D03*
Y-35433D02*
D03*
Y-41339D02*
D03*
Y-43307D02*
D03*
Y-49213D02*
D03*
Y-51181D02*
D03*
X-5906Y-3937D02*
D03*
Y-5906D02*
D03*
Y-7874D02*
D03*
Y-9843D02*
D03*
Y-11811D02*
D03*
Y-13780D02*
D03*
Y-15748D02*
D03*
Y-17717D02*
D03*
Y-19685D02*
D03*
Y-21654D02*
D03*
Y-23622D02*
D03*
Y-25591D02*
D03*
Y-27559D02*
D03*
Y-29528D02*
D03*
Y-31496D02*
D03*
Y-33465D02*
D03*
Y-35433D02*
D03*
Y-37402D02*
D03*
Y-39370D02*
D03*
Y-41339D02*
D03*
Y-43307D02*
D03*
Y-45276D02*
D03*
Y-47244D02*
D03*
Y-49213D02*
D03*
Y-51181D02*
D03*
X-7874Y-3937D02*
D03*
Y-5906D02*
D03*
Y-7874D02*
D03*
Y-9843D02*
D03*
Y-11811D02*
D03*
Y-13780D02*
D03*
Y-15748D02*
D03*
Y-17717D02*
D03*
Y-19685D02*
D03*
Y-21654D02*
D03*
Y-23622D02*
D03*
Y-25591D02*
D03*
Y-27559D02*
D03*
Y-29528D02*
D03*
Y-31496D02*
D03*
Y-33465D02*
D03*
Y-35433D02*
D03*
Y-37402D02*
D03*
Y-39370D02*
D03*
Y-41339D02*
D03*
Y-43307D02*
D03*
Y-45276D02*
D03*
Y-47244D02*
D03*
Y-49213D02*
D03*
Y-51181D02*
D03*
D37*
X9843Y43307D02*
D03*
X37402D02*
D03*
D38*
X-19685Y46260D02*
D03*
Y38386D02*
D03*
X-25591Y46260D02*
D03*
Y38386D02*
D03*
X-13780Y46260D02*
D03*
Y38386D02*
D03*
X-7874Y46260D02*
D03*
Y38386D02*
D03*
X-1969Y46260D02*
D03*
Y38386D02*
D03*
X3937Y46260D02*
D03*
Y38386D02*
D03*
X87598Y61024D02*
D03*
Y53150D02*
D03*
X35433Y27559D02*
D03*
Y19685D02*
D03*
D39*
X-17815Y-31496D02*
D03*
X-29429D02*
D03*
Y-47244D02*
D03*
X-17815D02*
D03*
D40*
X-18406Y-36713D02*
D03*
X-28839D02*
D03*
Y-26280D02*
D03*
X-18406D02*
D03*
Y-42028D02*
D03*
X-28839D02*
D03*
Y-52461D02*
D03*
X-18406D02*
D03*
D41*
X-23622Y-31496D02*
D03*
Y-47244D02*
D03*
D42*
X-17815Y-27953D02*
D03*
Y-29528D02*
D03*
Y-33465D02*
D03*
Y-35039D02*
D03*
X-29429D02*
D03*
Y-33465D02*
D03*
Y-29528D02*
D03*
Y-27953D02*
D03*
Y-43701D02*
D03*
Y-45276D02*
D03*
Y-49213D02*
D03*
Y-50787D02*
D03*
X-17815D02*
D03*
Y-49213D02*
D03*
Y-45276D02*
D03*
Y-43701D02*
D03*
D43*
X-20079Y-37303D02*
D03*
X-21654D02*
D03*
X-25591D02*
D03*
X-27165D02*
D03*
Y-25689D02*
D03*
X-25591D02*
D03*
X-21654D02*
D03*
X-20079D02*
D03*
Y-41437D02*
D03*
X-21654D02*
D03*
X-25591D02*
D03*
X-27165D02*
D03*
Y-53051D02*
D03*
X-25591D02*
D03*
X-21654D02*
D03*
X-20079D02*
D03*
D44*
X-23622Y-37303D02*
D03*
Y-25689D02*
D03*
Y-41437D02*
D03*
Y-53051D02*
D03*
D45*
X43753Y-93753D02*
D03*
X41247Y-91247D02*
D03*
X83753Y91247D02*
D03*
X81247Y93753D02*
D03*
X51247D02*
D03*
X53753Y91247D02*
D03*
X81247Y-91247D02*
D03*
X83753Y-93753D02*
D03*
D46*
X37500Y-90728D02*
D03*
Y-94272D02*
D03*
X57500Y90728D02*
D03*
Y94272D02*
D03*
X27500D02*
D03*
Y90728D02*
D03*
X87500D02*
D03*
Y94272D02*
D03*
X92500Y-86978D02*
D03*
Y-90522D02*
D03*
D47*
X31247Y-93753D02*
D03*
X33753Y-91247D02*
D03*
X93753Y93753D02*
D03*
X91247Y91247D02*
D03*
X63753Y93753D02*
D03*
X61247Y91247D02*
D03*
X31228Y91267D02*
D03*
X33733Y93772D02*
D03*
X72503Y-92497D02*
D03*
X69997Y-95003D02*
D03*
X81247Y-83753D02*
D03*
X83753Y-81247D02*
D03*
X62503Y-92497D02*
D03*
X59997Y-95003D02*
D03*
X92503Y-81247D02*
D03*
X89997Y-83753D02*
D03*
X62503Y-82497D02*
D03*
X59997Y-85003D02*
D03*
D48*
X64272Y-87500D02*
D03*
X60728D02*
D03*
X80728Y-97500D02*
D03*
X84272D02*
D03*
X76968Y60039D02*
D03*
X80512D02*
D03*
X91772Y-93750D02*
D03*
X88228D02*
D03*
X80512Y57087D02*
D03*
X76968D02*
D03*
D49*
X58858Y-15748D02*
D03*
Y-10827D02*
D03*
Y-50394D02*
D03*
Y-46063D02*
D03*
Y-41732D02*
D03*
Y-37402D02*
D03*
Y-33071D02*
D03*
Y-28740D02*
D03*
Y-24409D02*
D03*
Y-20079D02*
D03*
D50*
X89370Y-59724D02*
D03*
Y-3268D02*
D03*
D51*
X1969Y1969D02*
D03*
Y9843D02*
D03*
X13780Y1969D02*
D03*
Y9843D02*
D03*
X-9843Y1969D02*
D03*
Y9843D02*
D03*
X25591Y1969D02*
D03*
Y9843D02*
D03*
D52*
X33268Y2756D02*
D03*
X39567D02*
D03*
Y11024D02*
D03*
X33268D02*
D03*
D53*
X-66732Y-34468D02*
D03*
Y-95453D02*
D03*
Y-24587D02*
D03*
Y36398D02*
D03*
D54*
X-98032Y-91043D02*
D03*
Y-48878D02*
D03*
Y-81043D02*
D03*
Y-38878D02*
D03*
X-43740Y-52461D02*
D03*
X-53740Y-47461D02*
D03*
Y-57461D02*
D03*
X-43740Y-62461D02*
D03*
X-53740Y-67461D02*
D03*
X-43740Y-72461D02*
D03*
X-53740Y-77461D02*
D03*
X-43740Y-82461D02*
D03*
Y-11594D02*
D03*
X-53740Y-6594D02*
D03*
X-43740Y-1595D02*
D03*
X-53740Y3405D02*
D03*
X-43740Y8405D02*
D03*
X-53740Y13406D02*
D03*
Y23405D02*
D03*
X-43740Y18406D02*
D03*
X-98032Y31988D02*
D03*
Y-10177D02*
D03*
Y21988D02*
D03*
Y-20177D02*
D03*
D55*
X-32500Y-97500D02*
D03*
Y-77500D02*
D03*
Y-67500D02*
D03*
Y-87500D02*
D03*
X-22500Y-77500D02*
D03*
Y-97500D02*
D03*
Y-87500D02*
D03*
Y-67500D02*
D03*
X-12500Y-87500D02*
D03*
Y-77500D02*
D03*
Y-67500D02*
D03*
Y-97500D02*
D03*
X-2500Y-87500D02*
D03*
Y-77500D02*
D03*
Y-67500D02*
D03*
X-42500Y57500D02*
D03*
X-32500D02*
D03*
X-42500Y67500D02*
D03*
Y87500D02*
D03*
Y97500D02*
D03*
Y77500D02*
D03*
X-32500Y67500D02*
D03*
Y97500D02*
D03*
Y87500D02*
D03*
Y77500D02*
D03*
X-22500Y57500D02*
D03*
Y67500D02*
D03*
Y77500D02*
D03*
Y87500D02*
D03*
Y97500D02*
D03*
X-12500Y57500D02*
D03*
Y67500D02*
D03*
Y87500D02*
D03*
Y77500D02*
D03*
Y97500D02*
D03*
X-2500Y57500D02*
D03*
Y87500D02*
D03*
Y-97500D02*
D03*
X7500D02*
D03*
Y-87500D02*
D03*
Y-77500D02*
D03*
Y-67500D02*
D03*
X17500Y-97500D02*
D03*
Y-87500D02*
D03*
Y-77500D02*
D03*
X27500D02*
D03*
X17500Y-67500D02*
D03*
X27500Y-97500D02*
D03*
X47500D02*
D03*
X37500D02*
D03*
X27500Y-87500D02*
D03*
X47500D02*
D03*
X37500D02*
D03*
X47500Y-77500D02*
D03*
X37500D02*
D03*
X27500Y-67500D02*
D03*
X47500D02*
D03*
X37500D02*
D03*
X57500Y-97500D02*
D03*
X67500D02*
D03*
X77500D02*
D03*
X87500D02*
D03*
X97500D02*
D03*
X57500Y-87500D02*
D03*
X77500D02*
D03*
X67500D02*
D03*
X87500D02*
D03*
X97500D02*
D03*
X57500Y-77500D02*
D03*
X77500D02*
D03*
X67500D02*
D03*
X87500D02*
D03*
X97500D02*
D03*
X57500Y-67500D02*
D03*
X77500D02*
D03*
X67500D02*
D03*
X87500D02*
D03*
X97500D02*
D03*
X7500Y57500D02*
D03*
X-2500Y67500D02*
D03*
X7500D02*
D03*
X-2500Y77500D02*
D03*
X7500D02*
D03*
Y87500D02*
D03*
X-2500Y97500D02*
D03*
X7500D02*
D03*
X17500Y67500D02*
D03*
X27500D02*
D03*
Y77500D02*
D03*
X17500D02*
D03*
Y87500D02*
D03*
X27500D02*
D03*
X17500Y97500D02*
D03*
X27500D02*
D03*
X87500Y7500D02*
D03*
X97500D02*
D03*
X87500Y17500D02*
D03*
X97500D02*
D03*
X87500Y27500D02*
D03*
X97500D02*
D03*
X87500Y37500D02*
D03*
X97500D02*
D03*
X37500Y67500D02*
D03*
X47500D02*
D03*
X57500D02*
D03*
X67500D02*
D03*
X47500Y77500D02*
D03*
X37500D02*
D03*
X57500D02*
D03*
X67500D02*
D03*
X77500D02*
D03*
X37500Y87500D02*
D03*
X47500D02*
D03*
X57500D02*
D03*
X67500D02*
D03*
X47500Y97500D02*
D03*
X37500D02*
D03*
X57500D02*
D03*
X67500D02*
D03*
X87500Y47500D02*
D03*
X97500D02*
D03*
X77500Y67500D02*
D03*
X87500D02*
D03*
X97500D02*
D03*
X87500Y77500D02*
D03*
X97500D02*
D03*
X77500Y87500D02*
D03*
X87500D02*
D03*
X97500D02*
D03*
X77500Y97500D02*
D03*
X87500D02*
D03*
X97500D02*
D03*
D56*
X-57087Y82677D02*
D03*
Y72835D02*
D03*
Y64961D02*
D03*
Y55118D02*
D03*
X-67402Y82677D02*
D03*
Y72835D02*
D03*
Y64961D02*
D03*
Y55118D02*
D03*
D57*
X-55709Y94764D02*
D03*
Y43031D02*
D03*
X-78071D02*
D03*
Y94764D02*
D03*
D58*
X70866Y-51181D02*
D03*
Y-11811D02*
D03*
M02*
