G04*
G04 #@! TF.GenerationSoftware,Altium Limited,Altium Designer,24.5.2 (23)*
G04*
G04 Layer_Color=12040119*
%FSLAX25Y25*%
%MOIN*%
G70*
G04*
G04 #@! TF.SameCoordinates,883B40CB-B18D-427C-8B65-5A5AB1BE87B9*
G04*
G04*
G04 #@! TF.FilePolarity,Positive*
G04*
G01*
G75*
%ADD13R,0.05118X0.03150*%
%ADD14R,0.04331X0.03543*%
%ADD15R,0.07480X0.03543*%
%ADD16R,0.01575X0.01968*%
%ADD17R,0.05512X0.08819*%
%ADD18R,0.01968X0.05512*%
%ADD19R,0.03150X0.05118*%
G04:AMPARAMS|DCode=20|XSize=15.75mil|YSize=19.68mil|CornerRadius=0mil|HoleSize=0mil|Usage=FLASHONLY|Rotation=225.000|XOffset=0mil|YOffset=0mil|HoleType=Round|Shape=Rectangle|*
%AMROTATEDRECTD20*
4,1,4,-0.00139,0.01253,0.01253,-0.00139,0.00139,-0.01253,-0.01253,0.00139,-0.00139,0.01253,0.0*
%
%ADD20ROTATEDRECTD20*%

G04:AMPARAMS|DCode=21|XSize=15.75mil|YSize=19.68mil|CornerRadius=0mil|HoleSize=0mil|Usage=FLASHONLY|Rotation=135.000|XOffset=0mil|YOffset=0mil|HoleType=Round|Shape=Rectangle|*
%AMROTATEDRECTD21*
4,1,4,0.01253,0.00139,-0.00139,-0.01253,-0.01253,-0.00139,0.00139,0.01253,0.01253,0.00139,0.0*
%
%ADD21ROTATEDRECTD21*%

%ADD22R,0.01968X0.01575*%
%ADD23R,0.03150X0.06693*%
G04:AMPARAMS|DCode=24|XSize=19.68mil|YSize=23.62mil|CornerRadius=3.94mil|HoleSize=0mil|Usage=FLASHONLY|Rotation=270.000|XOffset=0mil|YOffset=0mil|HoleType=Round|Shape=RoundedRectangle|*
%AMROUNDEDRECTD24*
21,1,0.01968,0.01575,0,0,270.0*
21,1,0.01181,0.02362,0,0,270.0*
1,1,0.00787,-0.00787,-0.00591*
1,1,0.00787,-0.00787,0.00591*
1,1,0.00787,0.00787,0.00591*
1,1,0.00787,0.00787,-0.00591*
%
%ADD24ROUNDEDRECTD24*%
%ADD25R,0.02638X0.01181*%
%ADD26R,0.01206X0.01406*%
%ADD27R,0.00606X0.00606*%
%ADD28R,0.07087X0.07087*%
%ADD29R,0.00406X0.01406*%
%ADD30R,0.01406X0.00406*%
%ADD31R,0.01406X0.01206*%
%ADD32C,0.00591*%
%ADD33R,0.01575X0.01575*%
D13*
X26575Y13780D02*
D03*
Y5906D02*
D03*
X35433Y28543D02*
D03*
Y20669D02*
D03*
X57087Y-88583D02*
D03*
Y-96457D02*
D03*
X26575Y-29528D02*
D03*
Y-21654D02*
D03*
Y-17717D02*
D03*
Y-9843D02*
D03*
Y-5906D02*
D03*
Y1969D02*
D03*
X-59055Y20669D02*
D03*
Y28543D02*
D03*
X-17717D02*
D03*
Y20669D02*
D03*
X-11811Y28543D02*
D03*
Y20669D02*
D03*
X-5906Y28543D02*
D03*
Y20669D02*
D03*
X0Y28543D02*
D03*
Y20669D02*
D03*
X11811D02*
D03*
Y28543D02*
D03*
X5906Y20669D02*
D03*
Y28543D02*
D03*
X23622Y20669D02*
D03*
Y28543D02*
D03*
X17717Y20669D02*
D03*
Y28543D02*
D03*
X29528Y20669D02*
D03*
Y28543D02*
D03*
D14*
X37402Y11811D02*
D03*
Y-15748D02*
D03*
D15*
X57087Y-99410D02*
D03*
D16*
X90728Y-57500D02*
D03*
X94272D02*
D03*
X-90728Y-37500D02*
D03*
X-94272D02*
D03*
X-90522Y-92500D02*
D03*
X-86978D02*
D03*
D17*
X-3268Y-89370D02*
D03*
X-59724D02*
D03*
D18*
X-20079Y-58858D02*
D03*
X-24409D02*
D03*
X-28740D02*
D03*
X-33071D02*
D03*
X-37402D02*
D03*
X-41732D02*
D03*
X-46063D02*
D03*
X-50394D02*
D03*
X-10827D02*
D03*
X-15748D02*
D03*
D19*
X19685Y-35433D02*
D03*
X27559D02*
D03*
D20*
X-91247Y-41247D02*
D03*
X-93753Y-43753D02*
D03*
X91247Y-83753D02*
D03*
X93753Y-81247D02*
D03*
X83753Y-61247D02*
D03*
X81247Y-63753D02*
D03*
X-91247Y-81247D02*
D03*
X-93753Y-83753D02*
D03*
X95003Y-68747D02*
D03*
X92497Y-71253D02*
D03*
D21*
X-91247Y-33753D02*
D03*
X-93753Y-31247D02*
D03*
X83753Y-83753D02*
D03*
X81247Y-81247D02*
D03*
X-95003Y-69997D02*
D03*
X-92497Y-72503D02*
D03*
X-81247Y-83753D02*
D03*
X-83753Y-81247D02*
D03*
X91247Y-61247D02*
D03*
X93753Y-63753D02*
D03*
X-95003Y-59997D02*
D03*
X-92497Y-62503D02*
D03*
X-81247Y-92503D02*
D03*
X-83753Y-89997D02*
D03*
X-85003Y-59997D02*
D03*
X-82497Y-62503D02*
D03*
X95003Y-76253D02*
D03*
X92497Y-73747D02*
D03*
D22*
X-87500Y-64272D02*
D03*
Y-60728D02*
D03*
X87500Y-84272D02*
D03*
Y-80728D02*
D03*
Y-60728D02*
D03*
Y-64272D02*
D03*
X67500Y-84272D02*
D03*
Y-80728D02*
D03*
Y-60728D02*
D03*
Y-64272D02*
D03*
X-97500Y-80728D02*
D03*
Y-84272D02*
D03*
X-93750Y-91772D02*
D03*
Y-88228D02*
D03*
D23*
X1969Y9843D02*
D03*
X9843D02*
D03*
X1969Y-25591D02*
D03*
X9843D02*
D03*
X1969Y-13780D02*
D03*
X9843D02*
D03*
X1969Y-1969D02*
D03*
X9843D02*
D03*
D24*
X2756Y-39567D02*
D03*
Y-33268D02*
D03*
X11024D02*
D03*
Y-39567D02*
D03*
D25*
X14803Y11812D02*
D03*
Y9843D02*
D03*
Y7874D02*
D03*
X20630D02*
D03*
Y9843D02*
D03*
Y11812D02*
D03*
X14803Y-23621D02*
D03*
Y-25591D02*
D03*
Y-27560D02*
D03*
X20630D02*
D03*
Y-25591D02*
D03*
Y-23621D02*
D03*
X14803Y-11811D02*
D03*
Y-13780D02*
D03*
Y-15748D02*
D03*
X20630D02*
D03*
Y-13780D02*
D03*
Y-11811D02*
D03*
X14803Y0D02*
D03*
Y-1969D02*
D03*
Y-3937D02*
D03*
X20630D02*
D03*
Y-1969D02*
D03*
Y0D02*
D03*
D26*
X-31496Y17815D02*
D03*
Y29429D02*
D03*
X-47244Y17815D02*
D03*
Y29429D02*
D03*
D27*
X-36713Y18406D02*
D03*
Y28839D02*
D03*
X-26280D02*
D03*
Y18406D02*
D03*
X-52461D02*
D03*
Y28839D02*
D03*
X-42028D02*
D03*
Y18406D02*
D03*
D28*
X-31496Y23622D02*
D03*
X-47244D02*
D03*
D29*
X-27953Y17815D02*
D03*
X-29528D02*
D03*
X-33465D02*
D03*
X-35039D02*
D03*
Y29429D02*
D03*
X-33465D02*
D03*
X-29528D02*
D03*
X-27953D02*
D03*
X-43701Y17815D02*
D03*
X-45276D02*
D03*
X-49213D02*
D03*
X-50787D02*
D03*
Y29429D02*
D03*
X-49213D02*
D03*
X-45276D02*
D03*
X-43701D02*
D03*
D30*
X-37303Y20079D02*
D03*
Y21654D02*
D03*
Y25591D02*
D03*
Y27165D02*
D03*
X-25689D02*
D03*
Y25591D02*
D03*
Y21654D02*
D03*
Y20079D02*
D03*
X-53051D02*
D03*
Y21654D02*
D03*
Y25591D02*
D03*
Y27165D02*
D03*
X-41437D02*
D03*
Y25591D02*
D03*
Y21654D02*
D03*
Y20079D02*
D03*
D31*
X-37303Y23622D02*
D03*
X-25689D02*
D03*
X-53051D02*
D03*
X-41437D02*
D03*
D32*
X-51181Y7874D02*
D03*
X-49213D02*
D03*
X-47244D02*
D03*
X-45276D02*
D03*
X-43307D02*
D03*
X-41339D02*
D03*
X-39370D02*
D03*
X-37402D02*
D03*
X-35433D02*
D03*
X-33465D02*
D03*
X-31496D02*
D03*
X-29528D02*
D03*
X-27559D02*
D03*
X-25591D02*
D03*
X-23622D02*
D03*
X-21654D02*
D03*
X-19685D02*
D03*
X-17717D02*
D03*
X-15748D02*
D03*
X-13780D02*
D03*
X-11811D02*
D03*
X-9843D02*
D03*
X-7874D02*
D03*
X-5906D02*
D03*
X-3937D02*
D03*
X-51181Y5906D02*
D03*
X-49213D02*
D03*
X-47244D02*
D03*
X-45276D02*
D03*
X-43307D02*
D03*
X-41339D02*
D03*
X-39370D02*
D03*
X-37402D02*
D03*
X-35433D02*
D03*
X-33465D02*
D03*
X-31496D02*
D03*
X-29528D02*
D03*
X-27559D02*
D03*
X-25591D02*
D03*
X-23622D02*
D03*
X-21654D02*
D03*
X-19685D02*
D03*
X-17717D02*
D03*
X-15748D02*
D03*
X-13780D02*
D03*
X-11811D02*
D03*
X-9843D02*
D03*
X-7874D02*
D03*
X-5906D02*
D03*
X-3937D02*
D03*
X-51181Y3937D02*
D03*
X-49213D02*
D03*
X-43307D02*
D03*
X-41339D02*
D03*
X-35433D02*
D03*
X-31496D02*
D03*
X-27559D02*
D03*
X-23622D02*
D03*
X-19685D02*
D03*
X-13780D02*
D03*
X-11811D02*
D03*
X-5906D02*
D03*
X-3937D02*
D03*
X-51181Y1969D02*
D03*
X-49213D02*
D03*
X-45276D02*
D03*
X-41339D02*
D03*
X-35433D02*
D03*
X-33465D02*
D03*
X-29528D02*
D03*
X-25591D02*
D03*
X-21654D02*
D03*
X-19685D02*
D03*
X-13780D02*
D03*
X-9843D02*
D03*
X-5906D02*
D03*
X-3937D02*
D03*
X-51181Y-0D02*
D03*
X-49213D02*
D03*
X-47244D02*
D03*
X-43307D02*
D03*
X-39370D02*
D03*
X-37402D02*
D03*
X-31496D02*
D03*
X-29528D02*
D03*
X-25591D02*
D03*
X-23622D02*
D03*
X-17717D02*
D03*
X-15748D02*
D03*
X-11811D02*
D03*
X-7874D02*
D03*
X-5906D02*
D03*
X-3937D02*
D03*
X-51181Y-1969D02*
D03*
X-49213D02*
D03*
X-47244D02*
D03*
X-45276D02*
D03*
X-41339D02*
D03*
X-37402D02*
D03*
X-31496D02*
D03*
X-27559D02*
D03*
X-23622D02*
D03*
X-17717D02*
D03*
X-13780D02*
D03*
X-9843D02*
D03*
X-7874D02*
D03*
X-5906D02*
D03*
X-3937D02*
D03*
X-51181Y-3937D02*
D03*
X-49213D02*
D03*
X-43307D02*
D03*
X-39370D02*
D03*
X-35433D02*
D03*
X-33465D02*
D03*
X-29528D02*
D03*
X-27559D02*
D03*
X-25591D02*
D03*
X-21654D02*
D03*
X-19685D02*
D03*
X-15748D02*
D03*
X-11811D02*
D03*
X-5906D02*
D03*
X-3937D02*
D03*
X-51181Y-5906D02*
D03*
X-49213D02*
D03*
X-43307D02*
D03*
X-41339D02*
D03*
X-37402D02*
D03*
X-35433D02*
D03*
X-33465D02*
D03*
X-31496D02*
D03*
X-27559D02*
D03*
X-23622D02*
D03*
X-21654D02*
D03*
X-19685D02*
D03*
X-17717D02*
D03*
X-13780D02*
D03*
X-11811D02*
D03*
X-5906D02*
D03*
X-3937D02*
D03*
X-51181Y-7874D02*
D03*
X-49213D02*
D03*
X-47244D02*
D03*
X-45276D02*
D03*
X-39370D02*
D03*
X-37402D02*
D03*
X-31496D02*
D03*
X-29528D02*
D03*
X-25591D02*
D03*
X-23622D02*
D03*
X-17717D02*
D03*
X-15748D02*
D03*
X-9843D02*
D03*
X-7874D02*
D03*
X-5906D02*
D03*
X-3937D02*
D03*
X-51181Y-9843D02*
D03*
X-49213D02*
D03*
X-45276D02*
D03*
X-39370D02*
D03*
X-37402D02*
D03*
X-35433D02*
D03*
X-33465D02*
D03*
X-29528D02*
D03*
X-27559D02*
D03*
X-21654D02*
D03*
X-19685D02*
D03*
X-17717D02*
D03*
X-15748D02*
D03*
X-9843D02*
D03*
X-5906D02*
D03*
X-3937D02*
D03*
X-51181Y-11811D02*
D03*
X-49213D02*
D03*
X-47244D02*
D03*
X-43307D02*
D03*
X-41339D02*
D03*
X-37402D02*
D03*
X-31496D02*
D03*
X-29528D02*
D03*
X-27559D02*
D03*
X-25591D02*
D03*
X-23622D02*
D03*
X-17717D02*
D03*
X-13780D02*
D03*
X-11811D02*
D03*
X-7874D02*
D03*
X-5906D02*
D03*
X-3937D02*
D03*
X-51181Y-13780D02*
D03*
X-49213D02*
D03*
X-45276D02*
D03*
X-43307D02*
D03*
X-39370D02*
D03*
X-37402D02*
D03*
X-35433D02*
D03*
X-33465D02*
D03*
X-27559D02*
D03*
X-21654D02*
D03*
X-19685D02*
D03*
X-15748D02*
D03*
X-11811D02*
D03*
X-9843D02*
D03*
X-5906D02*
D03*
X-3937D02*
D03*
X-51181Y-15748D02*
D03*
X-49213D02*
D03*
X-47244D02*
D03*
X-41339D02*
D03*
X-37402D02*
D03*
X-31496D02*
D03*
X-29528D02*
D03*
X-27559D02*
D03*
X-25591D02*
D03*
X-23622D02*
D03*
X-17717D02*
D03*
X-13780D02*
D03*
X-7874D02*
D03*
X-5906D02*
D03*
X-3937D02*
D03*
X-51181Y-17717D02*
D03*
X-49213D02*
D03*
X-45276D02*
D03*
X-43307D02*
D03*
X-39370D02*
D03*
X-37402D02*
D03*
X-35433D02*
D03*
X-33465D02*
D03*
X-27559D02*
D03*
X-25591D02*
D03*
X-21654D02*
D03*
X-19685D02*
D03*
X-17717D02*
D03*
X-15748D02*
D03*
X-11811D02*
D03*
X-9843D02*
D03*
X-5906D02*
D03*
X-3937D02*
D03*
X-51181Y-19685D02*
D03*
X-49213D02*
D03*
X-47244D02*
D03*
X-43307D02*
D03*
X-41339D02*
D03*
X-37402D02*
D03*
X-31496D02*
D03*
X-29528D02*
D03*
X-25591D02*
D03*
X-23622D02*
D03*
X-17717D02*
D03*
X-13780D02*
D03*
X-11811D02*
D03*
X-5906D02*
D03*
X-3937D02*
D03*
X-51181Y-21654D02*
D03*
X-49213D02*
D03*
X-45276D02*
D03*
X-39370D02*
D03*
X-37402D02*
D03*
X-35433D02*
D03*
X-33465D02*
D03*
X-31496D02*
D03*
X-27559D02*
D03*
X-21654D02*
D03*
X-19685D02*
D03*
X-15748D02*
D03*
X-9843D02*
D03*
X-7874D02*
D03*
X-5906D02*
D03*
X-3937D02*
D03*
X-51181Y-23622D02*
D03*
X-49213D02*
D03*
X-47244D02*
D03*
X-45276D02*
D03*
X-39370D02*
D03*
X-37402D02*
D03*
X-29528D02*
D03*
X-27559D02*
D03*
X-25591D02*
D03*
X-23622D02*
D03*
X-17717D02*
D03*
X-15748D02*
D03*
X-9843D02*
D03*
X-7874D02*
D03*
X-5906D02*
D03*
X-3937D02*
D03*
X-51181Y-25591D02*
D03*
X-49213D02*
D03*
X-43307D02*
D03*
X-41339D02*
D03*
X-37402D02*
D03*
X-35433D02*
D03*
X-33465D02*
D03*
X-31496D02*
D03*
X-27559D02*
D03*
X-23622D02*
D03*
X-21654D02*
D03*
X-19685D02*
D03*
X-17717D02*
D03*
X-13780D02*
D03*
X-11811D02*
D03*
X-5906D02*
D03*
X-3937D02*
D03*
X-51181Y-27559D02*
D03*
X-49213D02*
D03*
X-43307D02*
D03*
X-39370D02*
D03*
X-35433D02*
D03*
X-33465D02*
D03*
X-29528D02*
D03*
X-27559D02*
D03*
X-25591D02*
D03*
X-21654D02*
D03*
X-19685D02*
D03*
X-15748D02*
D03*
X-11811D02*
D03*
X-5906D02*
D03*
X-3937D02*
D03*
X-51181Y-29528D02*
D03*
X-49213D02*
D03*
X-47244D02*
D03*
X-45276D02*
D03*
X-41339D02*
D03*
X-37402D02*
D03*
X-31496D02*
D03*
X-27559D02*
D03*
X-23622D02*
D03*
X-17717D02*
D03*
X-13780D02*
D03*
X-9843D02*
D03*
X-7874D02*
D03*
X-5906D02*
D03*
X-3937D02*
D03*
X-51181Y-31496D02*
D03*
X-49213D02*
D03*
X-47244D02*
D03*
X-43307D02*
D03*
X-39370D02*
D03*
X-37402D02*
D03*
X-31496D02*
D03*
X-29528D02*
D03*
X-25591D02*
D03*
X-23622D02*
D03*
X-17717D02*
D03*
X-15748D02*
D03*
X-11811D02*
D03*
X-7874D02*
D03*
X-5906D02*
D03*
X-3937D02*
D03*
X-51181Y-33465D02*
D03*
X-49213D02*
D03*
X-45276D02*
D03*
X-41339D02*
D03*
X-35433D02*
D03*
X-33465D02*
D03*
X-29528D02*
D03*
X-25591D02*
D03*
X-21654D02*
D03*
X-19685D02*
D03*
X-13780D02*
D03*
X-9843D02*
D03*
X-5906D02*
D03*
X-3937D02*
D03*
X-51181Y-35433D02*
D03*
X-49213D02*
D03*
X-43307D02*
D03*
X-41339D02*
D03*
X-35433D02*
D03*
X-31496D02*
D03*
X-27559D02*
D03*
X-23622D02*
D03*
X-19685D02*
D03*
X-13780D02*
D03*
X-11811D02*
D03*
X-5906D02*
D03*
X-3937D02*
D03*
X-51181Y-37402D02*
D03*
X-49213D02*
D03*
X-47244D02*
D03*
X-45276D02*
D03*
X-43307D02*
D03*
X-41339D02*
D03*
X-39370D02*
D03*
X-37402D02*
D03*
X-35433D02*
D03*
X-33465D02*
D03*
X-31496D02*
D03*
X-29528D02*
D03*
X-27559D02*
D03*
X-25591D02*
D03*
X-23622D02*
D03*
X-21654D02*
D03*
X-19685D02*
D03*
X-17717D02*
D03*
X-15748D02*
D03*
X-13780D02*
D03*
X-11811D02*
D03*
X-9843D02*
D03*
X-7874D02*
D03*
X-5906D02*
D03*
X-3937D02*
D03*
X-51181Y-39370D02*
D03*
X-49213D02*
D03*
X-47244D02*
D03*
X-45276D02*
D03*
X-43307D02*
D03*
X-41339D02*
D03*
X-39370D02*
D03*
X-37402D02*
D03*
X-35433D02*
D03*
X-33465D02*
D03*
X-31496D02*
D03*
X-29528D02*
D03*
X-27559D02*
D03*
X-25591D02*
D03*
X-23622D02*
D03*
X-21654D02*
D03*
X-19685D02*
D03*
X-17717D02*
D03*
X-15748D02*
D03*
X-13780D02*
D03*
X-11811D02*
D03*
X-9843D02*
D03*
X-7874D02*
D03*
X-5906D02*
D03*
X-3937D02*
D03*
D33*
X15748Y-35433D02*
D03*
X-55118Y-43307D02*
D03*
M02*
