G04*
G04 #@! TF.GenerationSoftware,Altium Limited,Altium Designer,24.5.2 (23)*
G04*
G04 Layer_Color=12040119*
%FSLAX25Y25*%
%MOIN*%
G70*
G04*
G04 #@! TF.SameCoordinates,6DF05ACD-99E5-4A60-94F4-888D25E85DCD*
G04*
G04*
G04 #@! TF.FilePolarity,Positive*
G04*
G01*
G75*
%ADD14R,0.01181X0.02638*%
%ADD15R,0.01575X0.01575*%
%ADD16R,0.03150X0.05118*%
%ADD17C,0.00591*%
%ADD18R,0.03543X0.04331*%
%ADD19R,0.05118X0.03150*%
%ADD20R,0.01406X0.01206*%
%ADD21R,0.00606X0.00606*%
%ADD22R,0.07087X0.07087*%
%ADD23R,0.01406X0.00406*%
%ADD24R,0.00406X0.01406*%
%ADD25R,0.01206X0.01406*%
G04:AMPARAMS|DCode=26|XSize=15.75mil|YSize=19.68mil|CornerRadius=0mil|HoleSize=0mil|Usage=FLASHONLY|Rotation=315.000|XOffset=0mil|YOffset=0mil|HoleType=Round|Shape=Rectangle|*
%AMROTATEDRECTD26*
4,1,4,-0.01253,-0.00139,0.00139,0.01253,0.01253,0.00139,-0.00139,-0.01253,-0.01253,-0.00139,0.0*
%
%ADD26ROTATEDRECTD26*%

%ADD27R,0.01968X0.01575*%
G04:AMPARAMS|DCode=28|XSize=15.75mil|YSize=19.68mil|CornerRadius=0mil|HoleSize=0mil|Usage=FLASHONLY|Rotation=225.000|XOffset=0mil|YOffset=0mil|HoleType=Round|Shape=Rectangle|*
%AMROTATEDRECTD28*
4,1,4,-0.00139,0.01253,0.01253,-0.00139,0.00139,-0.01253,-0.01253,0.00139,-0.00139,0.01253,0.0*
%
%ADD28ROTATEDRECTD28*%

%ADD29R,0.01575X0.01968*%
%ADD30R,0.05512X0.01968*%
%ADD31R,0.08819X0.05512*%
%ADD32R,0.06693X0.03150*%
G04:AMPARAMS|DCode=33|XSize=19.68mil|YSize=23.62mil|CornerRadius=3.94mil|HoleSize=0mil|Usage=FLASHONLY|Rotation=0.000|XOffset=0mil|YOffset=0mil|HoleType=Round|Shape=RoundedRectangle|*
%AMROUNDEDRECTD33*
21,1,0.01968,0.01575,0,0,0.0*
21,1,0.01181,0.02362,0,0,0.0*
1,1,0.00787,0.00591,-0.00787*
1,1,0.00787,-0.00591,-0.00787*
1,1,0.00787,-0.00591,0.00787*
1,1,0.00787,0.00591,0.00787*
%
%ADD33ROUNDEDRECTD33*%
D14*
X-11812Y14803D02*
D03*
X-9843D02*
D03*
X-7874D02*
D03*
Y20630D02*
D03*
X-9843D02*
D03*
X-11812D02*
D03*
X-0Y14803D02*
D03*
X1969D02*
D03*
X3937D02*
D03*
Y20630D02*
D03*
X1969D02*
D03*
X-0D02*
D03*
X11811Y14803D02*
D03*
X13780D02*
D03*
X15748D02*
D03*
Y20630D02*
D03*
X13780D02*
D03*
X11811D02*
D03*
X23621Y14803D02*
D03*
X25591D02*
D03*
X27560D02*
D03*
Y20630D02*
D03*
X25591D02*
D03*
X23621D02*
D03*
D15*
X37402Y32480D02*
D03*
X43307Y-55118D02*
D03*
D16*
X-28543Y-59055D02*
D03*
X-20669D02*
D03*
X91929Y60039D02*
D03*
X99803D02*
D03*
X-1969Y26575D02*
D03*
X5906D02*
D03*
X-13780D02*
D03*
X-5906D02*
D03*
X9843D02*
D03*
X17717D02*
D03*
X21654D02*
D03*
X29528D02*
D03*
X-20669Y-17717D02*
D03*
X-28543D02*
D03*
X-20669Y-11811D02*
D03*
X-28543D02*
D03*
X-20669Y0D02*
D03*
X-28543D02*
D03*
X-20669Y-5906D02*
D03*
X-28543D02*
D03*
D17*
X39370Y-3937D02*
D03*
Y-5906D02*
D03*
Y-7874D02*
D03*
Y-9843D02*
D03*
Y-11811D02*
D03*
Y-13780D02*
D03*
Y-15748D02*
D03*
Y-17717D02*
D03*
Y-19685D02*
D03*
Y-21654D02*
D03*
Y-23622D02*
D03*
Y-25591D02*
D03*
Y-27559D02*
D03*
Y-29528D02*
D03*
Y-31496D02*
D03*
Y-33465D02*
D03*
Y-35433D02*
D03*
Y-37402D02*
D03*
Y-39370D02*
D03*
Y-41339D02*
D03*
Y-43307D02*
D03*
Y-45276D02*
D03*
Y-47244D02*
D03*
Y-49213D02*
D03*
Y-51181D02*
D03*
X37402Y-3937D02*
D03*
Y-5906D02*
D03*
Y-7874D02*
D03*
Y-9843D02*
D03*
Y-11811D02*
D03*
Y-13780D02*
D03*
Y-15748D02*
D03*
Y-17717D02*
D03*
Y-19685D02*
D03*
Y-21654D02*
D03*
Y-23622D02*
D03*
Y-25591D02*
D03*
Y-27559D02*
D03*
Y-29528D02*
D03*
Y-31496D02*
D03*
Y-33465D02*
D03*
Y-35433D02*
D03*
Y-37402D02*
D03*
Y-39370D02*
D03*
Y-41339D02*
D03*
Y-43307D02*
D03*
Y-45276D02*
D03*
Y-47244D02*
D03*
Y-49213D02*
D03*
Y-51181D02*
D03*
X35433Y-3937D02*
D03*
Y-5906D02*
D03*
Y-11811D02*
D03*
Y-13780D02*
D03*
Y-19685D02*
D03*
Y-23622D02*
D03*
Y-27559D02*
D03*
Y-31496D02*
D03*
Y-35433D02*
D03*
Y-41339D02*
D03*
Y-43307D02*
D03*
Y-49213D02*
D03*
Y-51181D02*
D03*
X33465Y-3937D02*
D03*
Y-5906D02*
D03*
Y-9843D02*
D03*
Y-13780D02*
D03*
Y-19685D02*
D03*
Y-21654D02*
D03*
Y-25591D02*
D03*
Y-29528D02*
D03*
Y-33465D02*
D03*
Y-35433D02*
D03*
Y-41339D02*
D03*
Y-45276D02*
D03*
Y-49213D02*
D03*
Y-51181D02*
D03*
X31496Y-3937D02*
D03*
Y-5906D02*
D03*
Y-7874D02*
D03*
Y-11811D02*
D03*
Y-15748D02*
D03*
Y-17717D02*
D03*
Y-23622D02*
D03*
Y-25591D02*
D03*
Y-29528D02*
D03*
Y-31496D02*
D03*
Y-37402D02*
D03*
Y-39370D02*
D03*
Y-43307D02*
D03*
Y-47244D02*
D03*
Y-49213D02*
D03*
Y-51181D02*
D03*
X29528Y-3937D02*
D03*
Y-5906D02*
D03*
Y-7874D02*
D03*
Y-9843D02*
D03*
Y-13780D02*
D03*
Y-17717D02*
D03*
Y-23622D02*
D03*
Y-27559D02*
D03*
Y-31496D02*
D03*
Y-37402D02*
D03*
Y-41339D02*
D03*
Y-45276D02*
D03*
Y-47244D02*
D03*
Y-49213D02*
D03*
Y-51181D02*
D03*
X27559Y-3937D02*
D03*
Y-5906D02*
D03*
Y-11811D02*
D03*
Y-15748D02*
D03*
Y-19685D02*
D03*
Y-21654D02*
D03*
Y-25591D02*
D03*
Y-27559D02*
D03*
Y-29528D02*
D03*
Y-33465D02*
D03*
Y-35433D02*
D03*
Y-39370D02*
D03*
Y-43307D02*
D03*
Y-49213D02*
D03*
Y-51181D02*
D03*
X25591Y-3937D02*
D03*
Y-5906D02*
D03*
Y-11811D02*
D03*
Y-13780D02*
D03*
Y-17717D02*
D03*
Y-19685D02*
D03*
Y-21654D02*
D03*
Y-23622D02*
D03*
Y-27559D02*
D03*
Y-31496D02*
D03*
Y-33465D02*
D03*
Y-35433D02*
D03*
Y-37402D02*
D03*
Y-41339D02*
D03*
Y-43307D02*
D03*
Y-49213D02*
D03*
Y-51181D02*
D03*
X23622Y-3937D02*
D03*
Y-5906D02*
D03*
Y-7874D02*
D03*
Y-9843D02*
D03*
Y-15748D02*
D03*
Y-17717D02*
D03*
Y-23622D02*
D03*
Y-25591D02*
D03*
Y-27559D02*
D03*
Y-29528D02*
D03*
Y-37402D02*
D03*
Y-39370D02*
D03*
Y-45276D02*
D03*
Y-47244D02*
D03*
Y-49213D02*
D03*
Y-51181D02*
D03*
X21654Y-3937D02*
D03*
Y-5906D02*
D03*
Y-7874D02*
D03*
Y-9843D02*
D03*
Y-15748D02*
D03*
Y-19685D02*
D03*
Y-21654D02*
D03*
Y-27559D02*
D03*
Y-31496D02*
D03*
Y-33465D02*
D03*
Y-35433D02*
D03*
Y-37402D02*
D03*
Y-39370D02*
D03*
Y-45276D02*
D03*
Y-49213D02*
D03*
Y-51181D02*
D03*
X19685Y-3937D02*
D03*
Y-5906D02*
D03*
Y-11811D02*
D03*
Y-13780D02*
D03*
Y-17717D02*
D03*
Y-23622D02*
D03*
Y-25591D02*
D03*
Y-29528D02*
D03*
Y-31496D02*
D03*
Y-37402D02*
D03*
Y-41339D02*
D03*
Y-43307D02*
D03*
Y-47244D02*
D03*
Y-49213D02*
D03*
Y-51181D02*
D03*
X17717Y-3937D02*
D03*
Y-5906D02*
D03*
Y-9843D02*
D03*
Y-11811D02*
D03*
Y-15748D02*
D03*
Y-17717D02*
D03*
Y-19685D02*
D03*
Y-21654D02*
D03*
Y-25591D02*
D03*
Y-27559D02*
D03*
Y-33465D02*
D03*
Y-35433D02*
D03*
Y-37402D02*
D03*
Y-39370D02*
D03*
Y-43307D02*
D03*
Y-45276D02*
D03*
Y-49213D02*
D03*
Y-51181D02*
D03*
X15748Y-3937D02*
D03*
Y-5906D02*
D03*
Y-7874D02*
D03*
Y-13780D02*
D03*
Y-17717D02*
D03*
Y-23622D02*
D03*
Y-25591D02*
D03*
Y-27559D02*
D03*
Y-29528D02*
D03*
Y-31496D02*
D03*
Y-37402D02*
D03*
Y-41339D02*
D03*
Y-47244D02*
D03*
Y-49213D02*
D03*
Y-51181D02*
D03*
X13780Y-3937D02*
D03*
Y-5906D02*
D03*
Y-9843D02*
D03*
Y-11811D02*
D03*
Y-15748D02*
D03*
Y-19685D02*
D03*
Y-21654D02*
D03*
Y-27559D02*
D03*
Y-33465D02*
D03*
Y-35433D02*
D03*
Y-37402D02*
D03*
Y-39370D02*
D03*
Y-43307D02*
D03*
Y-45276D02*
D03*
Y-49213D02*
D03*
Y-51181D02*
D03*
X11811Y-3937D02*
D03*
Y-5906D02*
D03*
Y-7874D02*
D03*
Y-11811D02*
D03*
Y-13780D02*
D03*
Y-17717D02*
D03*
Y-23622D02*
D03*
Y-25591D02*
D03*
Y-27559D02*
D03*
Y-29528D02*
D03*
Y-31496D02*
D03*
Y-37402D02*
D03*
Y-41339D02*
D03*
Y-43307D02*
D03*
Y-47244D02*
D03*
Y-49213D02*
D03*
Y-51181D02*
D03*
X9843Y-3937D02*
D03*
Y-5906D02*
D03*
Y-9843D02*
D03*
Y-15748D02*
D03*
Y-17717D02*
D03*
Y-19685D02*
D03*
Y-21654D02*
D03*
Y-27559D02*
D03*
Y-29528D02*
D03*
Y-33465D02*
D03*
Y-35433D02*
D03*
Y-37402D02*
D03*
Y-39370D02*
D03*
Y-45276D02*
D03*
Y-49213D02*
D03*
Y-51181D02*
D03*
X7874Y-3937D02*
D03*
Y-5906D02*
D03*
Y-7874D02*
D03*
Y-9843D02*
D03*
Y-15748D02*
D03*
Y-17717D02*
D03*
Y-23622D02*
D03*
Y-25591D02*
D03*
Y-29528D02*
D03*
Y-31496D02*
D03*
Y-37402D02*
D03*
Y-39370D02*
D03*
Y-45276D02*
D03*
Y-47244D02*
D03*
Y-49213D02*
D03*
Y-51181D02*
D03*
X5906Y-3937D02*
D03*
Y-5906D02*
D03*
Y-11811D02*
D03*
Y-13780D02*
D03*
Y-17717D02*
D03*
Y-19685D02*
D03*
Y-21654D02*
D03*
Y-23622D02*
D03*
Y-27559D02*
D03*
Y-31496D02*
D03*
Y-33465D02*
D03*
Y-35433D02*
D03*
Y-37402D02*
D03*
Y-41339D02*
D03*
Y-43307D02*
D03*
Y-49213D02*
D03*
Y-51181D02*
D03*
X3937Y-3937D02*
D03*
Y-5906D02*
D03*
Y-11811D02*
D03*
Y-15748D02*
D03*
Y-19685D02*
D03*
Y-21654D02*
D03*
Y-25591D02*
D03*
Y-27559D02*
D03*
Y-29528D02*
D03*
Y-33465D02*
D03*
Y-35433D02*
D03*
Y-39370D02*
D03*
Y-43307D02*
D03*
Y-49213D02*
D03*
Y-51181D02*
D03*
X1969Y-3937D02*
D03*
Y-5906D02*
D03*
Y-7874D02*
D03*
Y-9843D02*
D03*
Y-13780D02*
D03*
Y-17717D02*
D03*
Y-23622D02*
D03*
Y-27559D02*
D03*
Y-31496D02*
D03*
Y-37402D02*
D03*
Y-41339D02*
D03*
Y-45276D02*
D03*
Y-47244D02*
D03*
Y-49213D02*
D03*
Y-51181D02*
D03*
X0Y-3937D02*
D03*
Y-5906D02*
D03*
Y-7874D02*
D03*
Y-11811D02*
D03*
Y-15748D02*
D03*
Y-17717D02*
D03*
Y-23622D02*
D03*
Y-25591D02*
D03*
Y-29528D02*
D03*
Y-31496D02*
D03*
Y-37402D02*
D03*
Y-39370D02*
D03*
Y-43307D02*
D03*
Y-47244D02*
D03*
Y-49213D02*
D03*
Y-51181D02*
D03*
X-1969Y-3937D02*
D03*
Y-5906D02*
D03*
Y-9843D02*
D03*
Y-13780D02*
D03*
Y-19685D02*
D03*
Y-21654D02*
D03*
Y-25591D02*
D03*
Y-29528D02*
D03*
Y-33465D02*
D03*
Y-35433D02*
D03*
Y-41339D02*
D03*
Y-45276D02*
D03*
Y-49213D02*
D03*
Y-51181D02*
D03*
X-3937Y-3937D02*
D03*
Y-5906D02*
D03*
Y-11811D02*
D03*
Y-13780D02*
D03*
Y-19685D02*
D03*
Y-23622D02*
D03*
Y-27559D02*
D03*
Y-31496D02*
D03*
Y-35433D02*
D03*
Y-41339D02*
D03*
Y-43307D02*
D03*
Y-49213D02*
D03*
Y-51181D02*
D03*
X-5906Y-3937D02*
D03*
Y-5906D02*
D03*
Y-7874D02*
D03*
Y-9843D02*
D03*
Y-11811D02*
D03*
Y-13780D02*
D03*
Y-15748D02*
D03*
Y-17717D02*
D03*
Y-19685D02*
D03*
Y-21654D02*
D03*
Y-23622D02*
D03*
Y-25591D02*
D03*
Y-27559D02*
D03*
Y-29528D02*
D03*
Y-31496D02*
D03*
Y-33465D02*
D03*
Y-35433D02*
D03*
Y-37402D02*
D03*
Y-39370D02*
D03*
Y-41339D02*
D03*
Y-43307D02*
D03*
Y-45276D02*
D03*
Y-47244D02*
D03*
Y-49213D02*
D03*
Y-51181D02*
D03*
X-7874Y-3937D02*
D03*
Y-5906D02*
D03*
Y-7874D02*
D03*
Y-9843D02*
D03*
Y-11811D02*
D03*
Y-13780D02*
D03*
Y-15748D02*
D03*
Y-17717D02*
D03*
Y-19685D02*
D03*
Y-21654D02*
D03*
Y-23622D02*
D03*
Y-25591D02*
D03*
Y-27559D02*
D03*
Y-29528D02*
D03*
Y-31496D02*
D03*
Y-33465D02*
D03*
Y-35433D02*
D03*
Y-37402D02*
D03*
Y-39370D02*
D03*
Y-41339D02*
D03*
Y-43307D02*
D03*
Y-45276D02*
D03*
Y-47244D02*
D03*
Y-49213D02*
D03*
Y-51181D02*
D03*
D18*
X9843Y43307D02*
D03*
X37402D02*
D03*
D19*
X-19685Y46260D02*
D03*
Y38386D02*
D03*
X-25591Y46260D02*
D03*
Y38386D02*
D03*
X-13780Y46260D02*
D03*
Y38386D02*
D03*
X-7874Y46260D02*
D03*
Y38386D02*
D03*
X-1969Y46260D02*
D03*
Y38386D02*
D03*
X3937Y46260D02*
D03*
Y38386D02*
D03*
X87598Y61024D02*
D03*
Y53150D02*
D03*
X35433Y27559D02*
D03*
Y19685D02*
D03*
D20*
X-17815Y-31496D02*
D03*
X-29429D02*
D03*
Y-47244D02*
D03*
X-17815D02*
D03*
D21*
X-18406Y-36713D02*
D03*
X-28839D02*
D03*
Y-26280D02*
D03*
X-18406D02*
D03*
Y-42028D02*
D03*
X-28839D02*
D03*
Y-52461D02*
D03*
X-18406D02*
D03*
D22*
X-23622Y-31496D02*
D03*
Y-47244D02*
D03*
D23*
X-17815Y-27953D02*
D03*
Y-29528D02*
D03*
Y-33465D02*
D03*
Y-35039D02*
D03*
X-29429D02*
D03*
Y-33465D02*
D03*
Y-29528D02*
D03*
Y-27953D02*
D03*
Y-43701D02*
D03*
Y-45276D02*
D03*
Y-49213D02*
D03*
Y-50787D02*
D03*
X-17815D02*
D03*
Y-49213D02*
D03*
Y-45276D02*
D03*
Y-43701D02*
D03*
D24*
X-20079Y-37303D02*
D03*
X-21654D02*
D03*
X-25591D02*
D03*
X-27165D02*
D03*
Y-25689D02*
D03*
X-25591D02*
D03*
X-21654D02*
D03*
X-20079D02*
D03*
Y-41437D02*
D03*
X-21654D02*
D03*
X-25591D02*
D03*
X-27165D02*
D03*
Y-53051D02*
D03*
X-25591D02*
D03*
X-21654D02*
D03*
X-20079D02*
D03*
D25*
X-23622Y-37303D02*
D03*
Y-25689D02*
D03*
Y-41437D02*
D03*
Y-53051D02*
D03*
D26*
X43753Y-93753D02*
D03*
X41247Y-91247D02*
D03*
X83753Y91247D02*
D03*
X81247Y93753D02*
D03*
X51247D02*
D03*
X53753Y91247D02*
D03*
X81247Y-91247D02*
D03*
X83753Y-93753D02*
D03*
D27*
X37500Y-90728D02*
D03*
Y-94272D02*
D03*
X57500Y90728D02*
D03*
Y94272D02*
D03*
X27500D02*
D03*
Y90728D02*
D03*
X87500D02*
D03*
Y94272D02*
D03*
X92500Y-86978D02*
D03*
Y-90522D02*
D03*
D28*
X31247Y-93753D02*
D03*
X33753Y-91247D02*
D03*
X93753Y93753D02*
D03*
X91247Y91247D02*
D03*
X63753Y93753D02*
D03*
X61247Y91247D02*
D03*
X31228Y91267D02*
D03*
X33733Y93772D02*
D03*
X72503Y-92497D02*
D03*
X69997Y-95003D02*
D03*
X81247Y-83753D02*
D03*
X83753Y-81247D02*
D03*
X62503Y-92497D02*
D03*
X59997Y-95003D02*
D03*
X92503Y-81247D02*
D03*
X89997Y-83753D02*
D03*
X62503Y-82497D02*
D03*
X59997Y-85003D02*
D03*
D29*
X64272Y-87500D02*
D03*
X60728D02*
D03*
X80728Y-97500D02*
D03*
X84272D02*
D03*
X76968Y60039D02*
D03*
X80512D02*
D03*
X91772Y-93750D02*
D03*
X88228D02*
D03*
X80512Y57087D02*
D03*
X76968D02*
D03*
D30*
X58858Y-15748D02*
D03*
Y-10827D02*
D03*
Y-50394D02*
D03*
Y-46063D02*
D03*
Y-41732D02*
D03*
Y-37402D02*
D03*
Y-33071D02*
D03*
Y-28740D02*
D03*
Y-24409D02*
D03*
Y-20079D02*
D03*
D31*
X89370Y-59724D02*
D03*
Y-3268D02*
D03*
D32*
X1969Y1969D02*
D03*
Y9843D02*
D03*
X13780Y1969D02*
D03*
Y9843D02*
D03*
X-9843Y1969D02*
D03*
Y9843D02*
D03*
X25591Y1969D02*
D03*
Y9843D02*
D03*
D33*
X33268Y2756D02*
D03*
X39567D02*
D03*
Y11024D02*
D03*
X33268D02*
D03*
M02*
