G04*
G04 #@! TF.GenerationSoftware,Altium Limited,Altium Designer,24.5.2 (23)*
G04*
G04 Layer_Color=16777215*
%FSLAX25Y25*%
%MOIN*%
G70*
G04*
G04 #@! TF.SameCoordinates,883B40CB-B18D-427C-8B65-5A5AB1BE87B9*
G04*
G04*
G04 #@! TF.FilePolarity,Positive*
G04*
G01*
G75*
%ADD10C,0.00787*%
%ADD11C,0.00591*%
G36*
X52658Y-70929D02*
X52349D01*
Y-70581D01*
X52658D01*
Y-70929D01*
D02*
G37*
G36*
X46053Y-72543D02*
X45767D01*
Y-72335D01*
X45741Y-72378D01*
X45712Y-72414D01*
X45684Y-72444D01*
X45658Y-72469D01*
X45637Y-72489D01*
X45626Y-72498D01*
X45618Y-72504D01*
X45610Y-72508D01*
X45606Y-72512D01*
X45603Y-72514D01*
X45602Y-72515D01*
X45566Y-72536D01*
X45529Y-72550D01*
X45496Y-72562D01*
X45467Y-72569D01*
X45441Y-72573D01*
X45431Y-72575D01*
X45422D01*
X45415Y-72576D01*
X45405D01*
X45368Y-72573D01*
X45334Y-72567D01*
X45300Y-72559D01*
X45268Y-72546D01*
X45238Y-72531D01*
X45210Y-72515D01*
X45183Y-72496D01*
X45160Y-72479D01*
X45138Y-72460D01*
X45119Y-72443D01*
X45101Y-72427D01*
X45088Y-72412D01*
X45077Y-72399D01*
X45070Y-72391D01*
X45064Y-72383D01*
X45062Y-72382D01*
X45036Y-72344D01*
X45015Y-72302D01*
X44994Y-72259D01*
X44978Y-72212D01*
X44964Y-72167D01*
X44952Y-72121D01*
X44942Y-72074D01*
X44935Y-72031D01*
X44928Y-71989D01*
X44923Y-71950D01*
X44920Y-71915D01*
X44919Y-71885D01*
X44917Y-71871D01*
Y-71860D01*
X44916Y-71850D01*
Y-71841D01*
Y-71834D01*
Y-71829D01*
Y-71826D01*
Y-71825D01*
X44917Y-71758D01*
X44922Y-71697D01*
X44929Y-71639D01*
X44938Y-71586D01*
X44949Y-71536D01*
X44961Y-71491D01*
X44974Y-71451D01*
X44987Y-71413D01*
X45002Y-71381D01*
X45015Y-71354D01*
X45026Y-71329D01*
X45036Y-71310D01*
X45046Y-71294D01*
X45054Y-71284D01*
X45058Y-71277D01*
X45059Y-71276D01*
X45087Y-71242D01*
X45115Y-71213D01*
X45144Y-71188D01*
X45174Y-71167D01*
X45203Y-71149D01*
X45232Y-71133D01*
X45260Y-71122D01*
X45286Y-71112D01*
X45310Y-71104D01*
X45334Y-71099D01*
X45354Y-71094D01*
X45371Y-71091D01*
X45386Y-71090D01*
X45397Y-71088D01*
X45406D01*
X45442Y-71090D01*
X45476Y-71096D01*
X45507Y-71104D01*
X45535Y-71113D01*
X45558Y-71123D01*
X45567Y-71128D01*
X45576Y-71131D01*
X45581Y-71135D01*
X45586Y-71136D01*
X45589Y-71139D01*
X45590D01*
X45621Y-71159D01*
X45650Y-71183D01*
X45676Y-71207D01*
X45699Y-71232D01*
X45718Y-71254D01*
X45732Y-71271D01*
X45737Y-71277D01*
X45741Y-71283D01*
X45742Y-71286D01*
X45744Y-71287D01*
Y-70581D01*
X46053D01*
Y-72543D01*
D02*
G37*
G36*
X51648Y-71090D02*
X51685Y-71096D01*
X51718Y-71106D01*
X51751Y-71117D01*
X51782Y-71132D01*
X51811Y-71146D01*
X51837Y-71164D01*
X51862Y-71181D01*
X51883Y-71199D01*
X51902Y-71215D01*
X51919Y-71231D01*
X51933Y-71245D01*
X51944Y-71257D01*
X51951Y-71265D01*
X51957Y-71273D01*
X51959Y-71274D01*
X51983Y-71310D01*
X52006Y-71351D01*
X52025Y-71394D01*
X52041Y-71438D01*
X52056Y-71484D01*
X52067Y-71529D01*
X52076Y-71576D01*
X52085Y-71619D01*
X52091Y-71661D01*
X52095Y-71699D01*
X52098Y-71735D01*
X52099Y-71766D01*
X52101Y-71779D01*
Y-71790D01*
X52102Y-71800D01*
Y-71809D01*
Y-71816D01*
Y-71821D01*
Y-71824D01*
Y-71825D01*
X52101Y-71887D01*
X52095Y-71947D01*
X52088Y-72002D01*
X52079Y-72054D01*
X52067Y-72103D01*
X52054Y-72147D01*
X52040Y-72189D01*
X52025Y-72225D01*
X52012Y-72259D01*
X51998Y-72288D01*
X51985Y-72312D01*
X51973Y-72333D01*
X51964Y-72348D01*
X51956Y-72360D01*
X51951Y-72366D01*
X51950Y-72369D01*
X51924Y-72399D01*
X51898Y-72427D01*
X51870Y-72450D01*
X51843Y-72469D01*
X51815Y-72486D01*
X51789Y-72501D01*
X51763Y-72512D01*
X51737Y-72521D01*
X51714Y-72528D01*
X51692Y-72534D01*
X51673Y-72537D01*
X51656Y-72540D01*
X51643Y-72541D01*
X51632Y-72543D01*
X51624D01*
X51585Y-72540D01*
X51548Y-72534D01*
X51516Y-72525D01*
X51487Y-72514D01*
X51464Y-72504D01*
X51454Y-72499D01*
X51445Y-72495D01*
X51439Y-72492D01*
X51435Y-72489D01*
X51432Y-72486D01*
X51431D01*
X51399Y-72462D01*
X51370Y-72434D01*
X51342Y-72407D01*
X51319Y-72378D01*
X51300Y-72353D01*
X51293Y-72343D01*
X51286Y-72333D01*
X51281Y-72325D01*
X51277Y-72318D01*
X51276Y-72315D01*
X51274Y-72314D01*
Y-72521D01*
Y-72546D01*
X51276Y-72570D01*
X51277Y-72592D01*
X51279Y-72611D01*
X51280Y-72628D01*
X51281Y-72646D01*
X51284Y-72660D01*
X51286Y-72672D01*
X51289Y-72683D01*
X51292Y-72694D01*
X51293Y-72701D01*
X51294Y-72707D01*
X51296Y-72712D01*
X51297Y-72715D01*
X51299Y-72718D01*
X51309Y-72738D01*
X51319Y-72755D01*
X51331Y-72769D01*
X51342Y-72779D01*
X51353Y-72788D01*
X51360Y-72794D01*
X51366Y-72796D01*
X51367Y-72798D01*
X51392Y-72810D01*
X51419Y-72818D01*
X51447Y-72824D01*
X51473Y-72828D01*
X51496Y-72831D01*
X51505D01*
X51513Y-72833D01*
X51531D01*
X51561Y-72831D01*
X51589Y-72827D01*
X51611Y-72823D01*
X51628Y-72815D01*
X51643Y-72810D01*
X51653Y-72805D01*
X51658Y-72801D01*
X51660Y-72799D01*
X51673Y-72785D01*
X51685Y-72768D01*
X51693Y-72750D01*
X51699Y-72731D01*
X51703Y-72715D01*
X51706Y-72702D01*
X51708Y-72692D01*
Y-72691D01*
Y-72689D01*
X52061Y-72637D01*
Y-72683D01*
X52059Y-72731D01*
X52053Y-72775D01*
X52043Y-72815D01*
X52037Y-72833D01*
X52031Y-72849D01*
X52027Y-72863D01*
X52021Y-72876D01*
X52015Y-72888D01*
X52011Y-72898D01*
X52008Y-72905D01*
X52005Y-72911D01*
X52002Y-72914D01*
Y-72915D01*
X51977Y-72952D01*
X51948Y-72982D01*
X51919Y-73008D01*
X51892Y-73030D01*
X51866Y-73046D01*
X51856Y-73053D01*
X51846Y-73058D01*
X51838Y-73062D01*
X51831Y-73065D01*
X51828Y-73068D01*
X51827D01*
X51803Y-73076D01*
X51780Y-73085D01*
X51730Y-73098D01*
X51679Y-73107D01*
X51629Y-73113D01*
X51606Y-73115D01*
X51586Y-73117D01*
X51567Y-73118D01*
X51551D01*
X51538Y-73120D01*
X51519D01*
X51482Y-73118D01*
X51445Y-73117D01*
X51412Y-73113D01*
X51381Y-73108D01*
X51353Y-73104D01*
X51326Y-73097D01*
X51302Y-73091D01*
X51280Y-73084D01*
X51260Y-73078D01*
X51244Y-73071D01*
X51229Y-73065D01*
X51218Y-73060D01*
X51208Y-73055D01*
X51202Y-73052D01*
X51197Y-73050D01*
X51196Y-73049D01*
X51174Y-73034D01*
X51155Y-73020D01*
X51119Y-72987D01*
X51089Y-72952D01*
X51065Y-72918D01*
X51047Y-72888D01*
X51038Y-72875D01*
X51032Y-72863D01*
X51028Y-72853D01*
X51025Y-72846D01*
X51022Y-72842D01*
Y-72840D01*
X51012Y-72812D01*
X51003Y-72782D01*
X50996Y-72749D01*
X50989Y-72712D01*
X50978Y-72640D01*
X50976Y-72602D01*
X50973Y-72567D01*
X50970Y-72533D01*
X50968Y-72501D01*
X50967Y-72473D01*
Y-72447D01*
X50965Y-72427D01*
Y-72411D01*
Y-72405D01*
Y-72401D01*
Y-72399D01*
Y-72398D01*
Y-71122D01*
X51254D01*
Y-71322D01*
X51280Y-71281D01*
X51308Y-71245D01*
X51335Y-71216D01*
X51360Y-71191D01*
X51381Y-71172D01*
X51390Y-71165D01*
X51399Y-71158D01*
X51405Y-71154D01*
X51409Y-71151D01*
X51412Y-71148D01*
X51413D01*
X51447Y-71128D01*
X51482Y-71113D01*
X51515Y-71103D01*
X51545Y-71096D01*
X51572Y-71091D01*
X51583Y-71090D01*
X51592D01*
X51600Y-71088D01*
X51611D01*
X51648Y-71090D01*
D02*
G37*
G36*
X44369Y-72549D02*
X44377Y-72576D01*
X44384Y-72602D01*
X44392Y-72625D01*
X44400Y-72646D01*
X44408Y-72666D01*
X44416Y-72683D01*
X44423Y-72698D01*
X44430Y-72712D01*
X44438Y-72724D01*
X44443Y-72734D01*
X44449Y-72741D01*
X44453Y-72749D01*
X44458Y-72755D01*
X44461Y-72757D01*
X44464Y-72759D01*
Y-72760D01*
X44485Y-72781D01*
X44510Y-72795D01*
X44535Y-72805D01*
X44558Y-72812D01*
X44578Y-72817D01*
X44594Y-72818D01*
X44600Y-72820D01*
X44609D01*
X44630Y-72818D01*
X44653Y-72817D01*
X44675Y-72814D01*
X44694Y-72811D01*
X44712Y-72808D01*
X44726Y-72805D01*
X44735Y-72802D01*
X44738D01*
X44712Y-73097D01*
X44680Y-73104D01*
X44648Y-73110D01*
X44619Y-73114D01*
X44593Y-73117D01*
X44569Y-73118D01*
X44561D01*
X44552Y-73120D01*
X44537D01*
X44495Y-73118D01*
X44458Y-73114D01*
X44423Y-73108D01*
X44395Y-73101D01*
X44382Y-73098D01*
X44372Y-73094D01*
X44362Y-73091D01*
X44355Y-73088D01*
X44349Y-73085D01*
X44343Y-73084D01*
X44342Y-73082D01*
X44340D01*
X44311Y-73066D01*
X44287Y-73049D01*
X44263Y-73031D01*
X44245Y-73014D01*
X44230Y-73000D01*
X44219Y-72987D01*
X44213Y-72978D01*
X44210Y-72976D01*
Y-72975D01*
X44200Y-72960D01*
X44191Y-72946D01*
X44172Y-72911D01*
X44153Y-72875D01*
X44137Y-72839D01*
X44131Y-72821D01*
X44124Y-72805D01*
X44118Y-72792D01*
X44114Y-72779D01*
X44111Y-72769D01*
X44108Y-72762D01*
X44105Y-72756D01*
Y-72755D01*
X44027Y-72491D01*
X43615Y-71122D01*
X43936D01*
X44207Y-72132D01*
X44484Y-71122D01*
X44813D01*
X44369Y-72549D01*
D02*
G37*
G36*
X54754Y-71090D02*
X54793Y-71096D01*
X54831Y-71106D01*
X54866Y-71116D01*
X54898Y-71131D01*
X54928Y-71146D01*
X54956Y-71162D01*
X54982Y-71178D01*
X55004Y-71196D01*
X55024Y-71212D01*
X55041Y-71228D01*
X55054Y-71241D01*
X55066Y-71252D01*
X55073Y-71262D01*
X55079Y-71268D01*
X55080Y-71270D01*
X55110Y-71312D01*
X55136Y-71355D01*
X55157Y-71402D01*
X55176Y-71450D01*
X55194Y-71497D01*
X55207Y-71545D01*
X55218Y-71592D01*
X55227Y-71635D01*
X55233Y-71679D01*
X55238Y-71716D01*
X55241Y-71751D01*
X55244Y-71781D01*
X55246Y-71795D01*
Y-71806D01*
X55247Y-71816D01*
Y-71825D01*
Y-71832D01*
Y-71837D01*
Y-71839D01*
Y-71841D01*
X55246Y-71908D01*
X55240Y-71969D01*
X55231Y-72028D01*
X55221Y-72082D01*
X55209Y-72132D01*
X55195Y-72179D01*
X55181Y-72221D01*
X55164Y-72259D01*
X55149Y-72292D01*
X55134Y-72321D01*
X55120Y-72346D01*
X55108Y-72366D01*
X55096Y-72383D01*
X55089Y-72395D01*
X55083Y-72401D01*
X55082Y-72404D01*
X55054Y-72434D01*
X55024Y-72460D01*
X54993Y-72483D01*
X54960Y-72504D01*
X54927Y-72520D01*
X54893Y-72534D01*
X54861Y-72546D01*
X54830Y-72554D01*
X54799Y-72562D01*
X54772Y-72567D01*
X54747Y-72570D01*
X54725Y-72573D01*
X54708Y-72575D01*
X54695Y-72576D01*
X54683D01*
X54648Y-72575D01*
X54616Y-72572D01*
X54585Y-72566D01*
X54554Y-72560D01*
X54527Y-72553D01*
X54501Y-72544D01*
X54477Y-72534D01*
X54456Y-72524D01*
X54435Y-72515D01*
X54418Y-72505D01*
X54403Y-72496D01*
X54390Y-72489D01*
X54380Y-72483D01*
X54373Y-72478D01*
X54369Y-72475D01*
X54367Y-72473D01*
X54344Y-72453D01*
X54321Y-72430D01*
X54300Y-72405D01*
X54282Y-72379D01*
X54264Y-72353D01*
X54248Y-72327D01*
X54234Y-72301D01*
X54222Y-72275D01*
X54211Y-72250D01*
X54200Y-72228D01*
X54193Y-72206D01*
X54186Y-72189D01*
X54181Y-72175D01*
X54177Y-72163D01*
X54174Y-72157D01*
Y-72154D01*
X54480Y-72092D01*
X54490Y-72128D01*
X54503Y-72158D01*
X54518Y-72186D01*
X54532Y-72209D01*
X54548Y-72228D01*
X54566Y-72246D01*
X54582Y-72259D01*
X54599Y-72269D01*
X54615Y-72277D01*
X54629Y-72285D01*
X54643Y-72289D01*
X54654Y-72292D01*
X54664Y-72293D01*
X54673Y-72295D01*
X54679D01*
X54698Y-72293D01*
X54716Y-72290D01*
X54734Y-72286D01*
X54751Y-72280D01*
X54782Y-72266D01*
X54806Y-72248D01*
X54828Y-72233D01*
X54837Y-72225D01*
X54844Y-72218D01*
X54850Y-72212D01*
X54854Y-72208D01*
X54856Y-72205D01*
X54857Y-72203D01*
X54870Y-72185D01*
X54882Y-72166D01*
X54891Y-72144D01*
X54899Y-72124D01*
X54912Y-72080D01*
X54921Y-72037D01*
X54924Y-72018D01*
X54927Y-71999D01*
X54928Y-71983D01*
X54930Y-71969D01*
X54931Y-71957D01*
Y-71948D01*
Y-71943D01*
Y-71941D01*
X54160D01*
Y-71899D01*
X54161Y-71824D01*
X54167Y-71754D01*
X54174Y-71687D01*
X54184Y-71626D01*
X54197Y-71571D01*
X54211Y-71519D01*
X54226Y-71473D01*
X54241Y-71432D01*
X54255Y-71394D01*
X54271Y-71363D01*
X54284Y-71336D01*
X54296Y-71313D01*
X54308Y-71296D01*
X54315Y-71284D01*
X54321Y-71277D01*
X54322Y-71274D01*
X54350Y-71241D01*
X54380Y-71213D01*
X54411Y-71188D01*
X54442Y-71167D01*
X54476Y-71149D01*
X54508Y-71133D01*
X54540Y-71122D01*
X54571Y-71112D01*
X54601Y-71104D01*
X54627Y-71099D01*
X54651Y-71094D01*
X54673Y-71091D01*
X54689Y-71090D01*
X54702Y-71088D01*
X54714D01*
X54754Y-71090D01*
D02*
G37*
G36*
X48883D02*
X48922Y-71096D01*
X48960Y-71106D01*
X48995Y-71116D01*
X49027Y-71131D01*
X49057Y-71146D01*
X49085Y-71162D01*
X49111Y-71178D01*
X49132Y-71196D01*
X49153Y-71212D01*
X49170Y-71228D01*
X49183Y-71241D01*
X49195Y-71252D01*
X49202Y-71262D01*
X49208Y-71268D01*
X49209Y-71270D01*
X49238Y-71312D01*
X49264Y-71355D01*
X49286Y-71402D01*
X49305Y-71450D01*
X49323Y-71497D01*
X49336Y-71545D01*
X49347Y-71592D01*
X49356Y-71635D01*
X49362Y-71679D01*
X49367Y-71716D01*
X49370Y-71751D01*
X49373Y-71781D01*
X49375Y-71795D01*
Y-71806D01*
X49376Y-71816D01*
Y-71825D01*
Y-71832D01*
Y-71837D01*
Y-71839D01*
Y-71841D01*
X49375Y-71908D01*
X49369Y-71969D01*
X49360Y-72028D01*
X49350Y-72082D01*
X49338Y-72132D01*
X49324Y-72179D01*
X49309Y-72221D01*
X49294Y-72259D01*
X49278Y-72292D01*
X49263Y-72321D01*
X49249Y-72346D01*
X49237Y-72366D01*
X49225Y-72383D01*
X49218Y-72395D01*
X49212Y-72401D01*
X49211Y-72404D01*
X49183Y-72434D01*
X49153Y-72460D01*
X49122Y-72483D01*
X49089Y-72504D01*
X49056Y-72520D01*
X49022Y-72534D01*
X48990Y-72546D01*
X48959Y-72554D01*
X48928Y-72562D01*
X48900Y-72567D01*
X48876Y-72570D01*
X48854Y-72573D01*
X48837Y-72575D01*
X48824Y-72576D01*
X48812D01*
X48777Y-72575D01*
X48745Y-72572D01*
X48713Y-72566D01*
X48683Y-72560D01*
X48656Y-72553D01*
X48629Y-72544D01*
X48606Y-72534D01*
X48584Y-72524D01*
X48564Y-72515D01*
X48547Y-72505D01*
X48532Y-72496D01*
X48519Y-72489D01*
X48509Y-72483D01*
X48502Y-72478D01*
X48497Y-72475D01*
X48496Y-72473D01*
X48473Y-72453D01*
X48450Y-72430D01*
X48429Y-72405D01*
X48410Y-72379D01*
X48393Y-72353D01*
X48377Y-72327D01*
X48363Y-72301D01*
X48351Y-72275D01*
X48339Y-72250D01*
X48329Y-72228D01*
X48322Y-72206D01*
X48315Y-72189D01*
X48310Y-72175D01*
X48306Y-72163D01*
X48303Y-72157D01*
Y-72154D01*
X48609Y-72092D01*
X48619Y-72128D01*
X48632Y-72158D01*
X48647Y-72186D01*
X48661Y-72209D01*
X48677Y-72228D01*
X48695Y-72246D01*
X48711Y-72259D01*
X48728Y-72269D01*
X48744Y-72277D01*
X48758Y-72285D01*
X48772Y-72289D01*
X48783Y-72292D01*
X48793Y-72293D01*
X48802Y-72295D01*
X48808D01*
X48827Y-72293D01*
X48845Y-72290D01*
X48863Y-72286D01*
X48880Y-72280D01*
X48911Y-72266D01*
X48935Y-72248D01*
X48957Y-72233D01*
X48966Y-72225D01*
X48973Y-72218D01*
X48979Y-72212D01*
X48983Y-72208D01*
X48985Y-72205D01*
X48986Y-72203D01*
X48999Y-72185D01*
X49011Y-72166D01*
X49020Y-72144D01*
X49028Y-72124D01*
X49041Y-72080D01*
X49050Y-72037D01*
X49053Y-72018D01*
X49056Y-71999D01*
X49057Y-71983D01*
X49059Y-71969D01*
X49060Y-71957D01*
Y-71948D01*
Y-71943D01*
Y-71941D01*
X48289D01*
Y-71899D01*
X48290Y-71824D01*
X48296Y-71754D01*
X48303Y-71687D01*
X48313Y-71626D01*
X48326Y-71571D01*
X48339Y-71519D01*
X48355Y-71473D01*
X48370Y-71432D01*
X48384Y-71394D01*
X48400Y-71363D01*
X48413Y-71336D01*
X48425Y-71313D01*
X48436Y-71296D01*
X48444Y-71284D01*
X48450Y-71277D01*
X48451Y-71274D01*
X48479Y-71241D01*
X48509Y-71213D01*
X48540Y-71188D01*
X48571Y-71167D01*
X48605Y-71149D01*
X48637Y-71133D01*
X48669Y-71122D01*
X48700Y-71112D01*
X48730Y-71104D01*
X48755Y-71099D01*
X48780Y-71094D01*
X48802Y-71091D01*
X48818Y-71090D01*
X48831Y-71088D01*
X48842D01*
X48883Y-71090D01*
D02*
G37*
G36*
X56778Y-72543D02*
X56133D01*
X56100Y-72540D01*
X56066Y-72537D01*
X56036Y-72534D01*
X56008Y-72530D01*
X55982Y-72525D01*
X55958Y-72521D01*
X55936Y-72515D01*
X55916Y-72509D01*
X55898Y-72505D01*
X55884Y-72501D01*
X55872Y-72496D01*
X55862Y-72492D01*
X55855Y-72491D01*
X55850Y-72488D01*
X55849D01*
X55804Y-72465D01*
X55762Y-72438D01*
X55726Y-72412D01*
X55710Y-72398D01*
X55695Y-72385D01*
X55682Y-72373D01*
X55671Y-72361D01*
X55660Y-72351D01*
X55652Y-72341D01*
X55645Y-72334D01*
X55640Y-72328D01*
X55637Y-72325D01*
X55636Y-72324D01*
X55620Y-72302D01*
X55604Y-72279D01*
X55575Y-72231D01*
X55550Y-72180D01*
X55530Y-72132D01*
X55520Y-72111D01*
X55512Y-72090D01*
X55505Y-72071D01*
X55500Y-72056D01*
X55495Y-72043D01*
X55492Y-72034D01*
X55489Y-72027D01*
Y-72025D01*
X55479Y-71989D01*
X55471Y-71953D01*
X55456Y-71876D01*
X55446Y-71802D01*
X55441Y-71767D01*
X55439Y-71734D01*
X55436Y-71702D01*
X55434Y-71673D01*
X55433Y-71648D01*
Y-71625D01*
X55431Y-71608D01*
Y-71595D01*
Y-71586D01*
Y-71583D01*
Y-71531D01*
X55434Y-71481D01*
X55436Y-71434D01*
X55440Y-71390D01*
X55444Y-71348D01*
X55449Y-71309D01*
X55453Y-71273D01*
X55459Y-71241D01*
X55465Y-71212D01*
X55469Y-71186D01*
X55473Y-71162D01*
X55478Y-71144D01*
X55481Y-71129D01*
X55484Y-71119D01*
X55487Y-71112D01*
Y-71110D01*
X55497Y-71075D01*
X55508Y-71042D01*
X55521Y-71012D01*
X55533Y-70981D01*
X55546Y-70955D01*
X55559Y-70929D01*
X55571Y-70906D01*
X55584Y-70884D01*
X55595Y-70865D01*
X55605Y-70849D01*
X55614Y-70835D01*
X55623Y-70823D01*
X55630Y-70813D01*
X55634Y-70807D01*
X55637Y-70803D01*
X55639Y-70801D01*
X55656Y-70780D01*
X55675Y-70759D01*
X55694Y-70742D01*
X55711Y-70724D01*
X55730Y-70709D01*
X55747Y-70696D01*
X55779Y-70672D01*
X55794Y-70662D01*
X55807Y-70653D01*
X55820Y-70648D01*
X55830Y-70642D01*
X55837Y-70638D01*
X55843Y-70635D01*
X55848Y-70632D01*
X55849D01*
X55871Y-70623D01*
X55895Y-70614D01*
X55922Y-70609D01*
X55949Y-70603D01*
X56006Y-70594D01*
X56061Y-70587D01*
X56085Y-70585D01*
X56110Y-70584D01*
X56132Y-70582D01*
X56151D01*
X56165Y-70581D01*
X56778D01*
Y-72543D01*
D02*
G37*
G36*
X52658D02*
X52349D01*
Y-71122D01*
X52658D01*
Y-72543D01*
D02*
G37*
G36*
X50036Y-71091D02*
X50075Y-71099D01*
X50111Y-71107D01*
X50143Y-71119D01*
X50156Y-71125D01*
X50169Y-71131D01*
X50179Y-71135D01*
X50188Y-71139D01*
X50195Y-71144D01*
X50201Y-71146D01*
X50204Y-71148D01*
X50205Y-71149D01*
X50240Y-71174D01*
X50272Y-71203D01*
X50301Y-71232D01*
X50327Y-71261D01*
X50348Y-71289D01*
X50356Y-71299D01*
X50364Y-71309D01*
X50369Y-71317D01*
X50374Y-71323D01*
X50375Y-71328D01*
X50377Y-71329D01*
Y-71122D01*
X50662D01*
Y-72543D01*
X50353D01*
Y-71899D01*
Y-71855D01*
X50352Y-71815D01*
X50350Y-71777D01*
X50349Y-71744D01*
X50348Y-71713D01*
X50346Y-71686D01*
X50343Y-71661D01*
X50340Y-71641D01*
X50339Y-71622D01*
X50336Y-71606D01*
X50335Y-71593D01*
X50333Y-71583D01*
X50332Y-71576D01*
X50330Y-71570D01*
X50329Y-71567D01*
Y-71566D01*
X50317Y-71534D01*
X50304Y-71506D01*
X50290Y-71483D01*
X50275Y-71463D01*
X50262Y-71447D01*
X50251Y-71435D01*
X50243Y-71429D01*
X50240Y-71426D01*
X50216Y-71409D01*
X50191Y-71397D01*
X50168Y-71389D01*
X50146Y-71381D01*
X50127Y-71378D01*
X50113Y-71377D01*
X50107Y-71376D01*
X50100D01*
X50078Y-71377D01*
X50058Y-71381D01*
X50039Y-71389D01*
X50023Y-71394D01*
X50010Y-71402D01*
X50001Y-71409D01*
X49994Y-71413D01*
X49992Y-71415D01*
X49976Y-71431D01*
X49962Y-71448D01*
X49950Y-71467D01*
X49942Y-71486D01*
X49936Y-71502D01*
X49930Y-71515D01*
X49929Y-71523D01*
X49927Y-71525D01*
Y-71526D01*
X49924Y-71541D01*
X49921Y-71560D01*
X49918Y-71580D01*
X49916Y-71602D01*
X49913Y-71651D01*
X49911Y-71699D01*
X49910Y-71722D01*
Y-71745D01*
X49908Y-71764D01*
Y-71783D01*
Y-71798D01*
Y-71808D01*
Y-71815D01*
Y-71818D01*
Y-72543D01*
X49599D01*
Y-71660D01*
Y-71622D01*
X49601Y-71586D01*
X49602Y-71552D01*
X49605Y-71522D01*
X49608Y-71493D01*
X49611Y-71467D01*
X49614Y-71444D01*
X49617Y-71422D01*
X49621Y-71403D01*
X49624Y-71387D01*
X49627Y-71373D01*
X49630Y-71361D01*
X49633Y-71352D01*
X49634Y-71346D01*
X49636Y-71342D01*
Y-71341D01*
X49652Y-71300D01*
X49670Y-71265D01*
X49692Y-71235D01*
X49712Y-71209D01*
X49733Y-71187D01*
X49742Y-71178D01*
X49749Y-71172D01*
X49756Y-71167D01*
X49760Y-71162D01*
X49763Y-71161D01*
X49765Y-71159D01*
X49782Y-71146D01*
X49801Y-71136D01*
X49820Y-71126D01*
X49839Y-71119D01*
X49878Y-71106D01*
X49913Y-71097D01*
X49930Y-71094D01*
X49944Y-71093D01*
X49958Y-71090D01*
X49969D01*
X49979Y-71088D01*
X49992D01*
X50036Y-71091D01*
D02*
G37*
G36*
X53526Y-71090D02*
X53567Y-71094D01*
X53606Y-71100D01*
X53642Y-71107D01*
X53674Y-71116D01*
X53704Y-71126D01*
X53732Y-71138D01*
X53757Y-71148D01*
X53778Y-71159D01*
X53797Y-71171D01*
X53813Y-71181D01*
X53826Y-71190D01*
X53836Y-71197D01*
X53844Y-71203D01*
X53848Y-71207D01*
X53849Y-71209D01*
X53871Y-71232D01*
X53890Y-71257D01*
X53907Y-71283D01*
X53922Y-71309D01*
X53934Y-71335D01*
X53944Y-71361D01*
X53952Y-71387D01*
X53958Y-71412D01*
X53964Y-71435D01*
X53967Y-71457D01*
X53970Y-71477D01*
X53973Y-71493D01*
Y-71508D01*
X53974Y-71518D01*
Y-71523D01*
Y-71526D01*
X53973Y-71563D01*
X53968Y-71597D01*
X53962Y-71629D01*
X53954Y-71658D01*
X53945Y-71687D01*
X53934Y-71712D01*
X53922Y-71735D01*
X53910Y-71757D01*
X53899Y-71776D01*
X53887Y-71792D01*
X53875Y-71806D01*
X53867Y-71818D01*
X53858Y-71826D01*
X53852Y-71832D01*
X53848Y-71837D01*
X53847Y-71838D01*
X53836Y-71847D01*
X53825Y-71855D01*
X53796Y-71873D01*
X53764Y-71890D01*
X53728Y-71906D01*
X53689Y-71924D01*
X53648Y-71940D01*
X53565Y-71969D01*
X53526Y-71982D01*
X53488Y-71993D01*
X53453Y-72005D01*
X53423Y-72013D01*
X53410Y-72018D01*
X53399Y-72021D01*
X53387Y-72024D01*
X53378Y-72027D01*
X53372Y-72028D01*
X53367Y-72030D01*
X53364Y-72031D01*
X53362D01*
X53336Y-72038D01*
X53316Y-72045D01*
X53298Y-72054D01*
X53284Y-72061D01*
X53274Y-72067D01*
X53268Y-72073D01*
X53264Y-72076D01*
X53262Y-72077D01*
X53253Y-72088D01*
X53248Y-72101D01*
X53243Y-72112D01*
X53240Y-72124D01*
X53239Y-72135D01*
X53237Y-72144D01*
Y-72150D01*
Y-72151D01*
X53240Y-72176D01*
X53246Y-72198D01*
X53255Y-72216D01*
X53265Y-72233D01*
X53275Y-72246D01*
X53284Y-72256D01*
X53290Y-72262D01*
X53293Y-72263D01*
X53316Y-72277D01*
X53342Y-72288D01*
X53369Y-72295D01*
X53397Y-72299D01*
X53422Y-72302D01*
X53432Y-72303D01*
X53440Y-72305D01*
X53459D01*
X53497Y-72302D01*
X53530Y-72295D01*
X53559Y-72285D01*
X53585Y-72270D01*
X53609Y-72253D01*
X53629Y-72234D01*
X53646Y-72214D01*
X53661Y-72192D01*
X53674Y-72172D01*
X53684Y-72151D01*
X53691Y-72132D01*
X53697Y-72115D01*
X53703Y-72101D01*
X53706Y-72090D01*
X53707Y-72083D01*
Y-72080D01*
X54016Y-72138D01*
X54006Y-72177D01*
X53996Y-72214D01*
X53983Y-72248D01*
X53968Y-72280D01*
X53952Y-72309D01*
X53938Y-72335D01*
X53922Y-72360D01*
X53906Y-72382D01*
X53890Y-72401D01*
X53877Y-72418D01*
X53864Y-72433D01*
X53852Y-72444D01*
X53842Y-72453D01*
X53835Y-72459D01*
X53831Y-72463D01*
X53829Y-72465D01*
X53802Y-72485D01*
X53773Y-72501D01*
X53742Y-72517D01*
X53710Y-72528D01*
X53680Y-72540D01*
X53649Y-72549D01*
X53619Y-72556D01*
X53590Y-72562D01*
X53564Y-72567D01*
X53539Y-72570D01*
X53516Y-72573D01*
X53497Y-72575D01*
X53481D01*
X53470Y-72576D01*
X53459D01*
X53414Y-72575D01*
X53371Y-72570D01*
X53330Y-72563D01*
X53293Y-72556D01*
X53258Y-72546D01*
X53226Y-72534D01*
X53197Y-72522D01*
X53171Y-72509D01*
X53148Y-72496D01*
X53127Y-72485D01*
X53110Y-72473D01*
X53095Y-72463D01*
X53084Y-72454D01*
X53075Y-72448D01*
X53071Y-72444D01*
X53069Y-72443D01*
X53045Y-72417D01*
X53023Y-72389D01*
X53004Y-72361D01*
X52987Y-72333D01*
X52974Y-72305D01*
X52962Y-72276D01*
X52952Y-72248D01*
X52945Y-72222D01*
X52939Y-72198D01*
X52934Y-72175D01*
X52932Y-72154D01*
X52929Y-72137D01*
Y-72122D01*
X52927Y-72111D01*
Y-72105D01*
Y-72102D01*
X52929Y-72070D01*
X52932Y-72041D01*
X52936Y-72013D01*
X52942Y-71987D01*
X52949Y-71963D01*
X52956Y-71940D01*
X52965Y-71919D01*
X52972Y-71900D01*
X52981Y-71885D01*
X52990Y-71870D01*
X52997Y-71857D01*
X53004Y-71847D01*
X53010Y-71838D01*
X53014Y-71832D01*
X53017Y-71829D01*
X53019Y-71828D01*
X53037Y-71809D01*
X53061Y-71790D01*
X53085Y-71773D01*
X53113Y-71757D01*
X53171Y-71726D01*
X53229Y-71702D01*
X53256Y-71690D01*
X53282Y-71681D01*
X53307Y-71673D01*
X53327Y-71666D01*
X53345Y-71660D01*
X53358Y-71655D01*
X53367Y-71654D01*
X53368Y-71653D01*
X53369D01*
X53410Y-71641D01*
X53448Y-71629D01*
X53481Y-71619D01*
X53510Y-71610D01*
X53535Y-71602D01*
X53558Y-71593D01*
X53577Y-71586D01*
X53594Y-71580D01*
X53607Y-71574D01*
X53619Y-71570D01*
X53628Y-71566D01*
X53635Y-71561D01*
X53639Y-71558D01*
X53642Y-71557D01*
X53645Y-71555D01*
X53659Y-71544D01*
X53670Y-71531D01*
X53678Y-71518D01*
X53683Y-71505D01*
X53686Y-71494D01*
X53687Y-71484D01*
X53689Y-71478D01*
Y-71477D01*
X53687Y-71458D01*
X53681Y-71442D01*
X53674Y-71426D01*
X53664Y-71415D01*
X53655Y-71404D01*
X53648Y-71397D01*
X53642Y-71393D01*
X53641Y-71391D01*
X53630Y-71386D01*
X53620Y-71380D01*
X53596Y-71373D01*
X53568Y-71367D01*
X53542Y-71363D01*
X53517Y-71360D01*
X53506D01*
X53497Y-71358D01*
X53478D01*
X53445Y-71360D01*
X53416Y-71365D01*
X53390Y-71374D01*
X53367Y-71386D01*
X53346Y-71399D01*
X53327Y-71413D01*
X53312Y-71428D01*
X53298Y-71444D01*
X53288Y-71461D01*
X53278Y-71476D01*
X53271Y-71490D01*
X53265Y-71503D01*
X53261Y-71515D01*
X53258Y-71523D01*
X53256Y-71529D01*
Y-71531D01*
X52966Y-71465D01*
X52977Y-71429D01*
X52988Y-71396D01*
X53000Y-71365D01*
X53013Y-71336D01*
X53027Y-71310D01*
X53042Y-71287D01*
X53055Y-71267D01*
X53069Y-71248D01*
X53082Y-71231D01*
X53094Y-71216D01*
X53106Y-71204D01*
X53116Y-71196D01*
X53123Y-71188D01*
X53129Y-71183D01*
X53133Y-71180D01*
X53135Y-71178D01*
X53158Y-71162D01*
X53184Y-71149D01*
X53211Y-71136D01*
X53239Y-71126D01*
X53268Y-71117D01*
X53297Y-71110D01*
X53354Y-71100D01*
X53380Y-71096D01*
X53404Y-71093D01*
X53426Y-71091D01*
X53445Y-71090D01*
X53461Y-71088D01*
X53483D01*
X53526Y-71090D01*
D02*
G37*
G36*
X47278Y-71287D02*
X47306Y-71252D01*
X47333Y-71222D01*
X47359Y-71197D01*
X47382Y-71175D01*
X47404Y-71159D01*
X47420Y-71148D01*
X47426Y-71145D01*
X47430Y-71142D01*
X47433Y-71139D01*
X47435D01*
X47466Y-71122D01*
X47498Y-71110D01*
X47529Y-71101D01*
X47556Y-71094D01*
X47581Y-71091D01*
X47591Y-71090D01*
X47600D01*
X47606Y-71088D01*
X47616D01*
X47654Y-71090D01*
X47690Y-71097D01*
X47725Y-71106D01*
X47758Y-71117D01*
X47788Y-71132D01*
X47817Y-71148D01*
X47844Y-71164D01*
X47868Y-71181D01*
X47890Y-71199D01*
X47909Y-71216D01*
X47926Y-71232D01*
X47939Y-71246D01*
X47951Y-71258D01*
X47958Y-71267D01*
X47964Y-71274D01*
X47965Y-71276D01*
X47990Y-71312D01*
X48012Y-71352D01*
X48030Y-71394D01*
X48046Y-71439D01*
X48060Y-71486D01*
X48071Y-71531D01*
X48081Y-71576D01*
X48088Y-71619D01*
X48094Y-71661D01*
X48099Y-71700D01*
X48102Y-71735D01*
X48103Y-71766D01*
X48105Y-71779D01*
Y-71790D01*
X48106Y-71800D01*
Y-71809D01*
Y-71816D01*
Y-71821D01*
Y-71824D01*
Y-71825D01*
X48105Y-71890D01*
X48100Y-71953D01*
X48093Y-72011D01*
X48083Y-72064D01*
X48073Y-72115D01*
X48060Y-72160D01*
X48046Y-72202D01*
X48033Y-72240D01*
X48020Y-72273D01*
X48007Y-72301D01*
X47994Y-72325D01*
X47984Y-72346D01*
X47974Y-72361D01*
X47967Y-72373D01*
X47962Y-72379D01*
X47961Y-72382D01*
X47933Y-72417D01*
X47904Y-72446D01*
X47875Y-72472D01*
X47846Y-72493D01*
X47817Y-72512D01*
X47790Y-72528D01*
X47762Y-72541D01*
X47736Y-72552D01*
X47712Y-72560D01*
X47690Y-72566D01*
X47670Y-72570D01*
X47654Y-72573D01*
X47639Y-72575D01*
X47629Y-72576D01*
X47620D01*
X47583Y-72573D01*
X47546Y-72567D01*
X47513Y-72557D01*
X47484Y-72546D01*
X47471Y-72541D01*
X47459Y-72536D01*
X47448Y-72530D01*
X47439Y-72525D01*
X47433Y-72522D01*
X47427Y-72520D01*
X47425Y-72517D01*
X47423D01*
X47388Y-72492D01*
X47356Y-72463D01*
X47327Y-72433D01*
X47303Y-72404D01*
X47282Y-72376D01*
X47274Y-72366D01*
X47268Y-72356D01*
X47262Y-72347D01*
X47258Y-72341D01*
X47256Y-72337D01*
X47255Y-72335D01*
Y-72543D01*
X46969D01*
Y-70581D01*
X47278D01*
Y-71287D01*
D02*
G37*
G36*
X40522Y-77775D02*
X40518Y-77873D01*
X40514Y-77967D01*
X40504Y-78051D01*
X40489Y-78127D01*
X40475Y-78197D01*
X40456Y-78262D01*
X40438Y-78317D01*
X40416Y-78364D01*
X40398Y-78408D01*
X40380Y-78444D01*
X40362Y-78477D01*
X40347Y-78499D01*
X40332Y-78521D01*
X40322Y-78532D01*
X40318Y-78539D01*
X40314Y-78543D01*
X40271Y-78579D01*
X40223Y-78612D01*
X40169Y-78641D01*
X40107Y-78663D01*
X40045Y-78685D01*
X39983Y-78703D01*
X39856Y-78728D01*
X39797Y-78735D01*
X39739Y-78743D01*
X39688Y-78746D01*
X39645Y-78750D01*
X39604Y-78754D01*
X37289D01*
X37191Y-78750D01*
X37100Y-78746D01*
X37016Y-78735D01*
X36940Y-78721D01*
X36871Y-78706D01*
X36813Y-78688D01*
X36754Y-78670D01*
X36707Y-78648D01*
X36667Y-78630D01*
X36631Y-78612D01*
X36601Y-78593D01*
X36576Y-78579D01*
X36558Y-78564D01*
X36547Y-78553D01*
X36540Y-78550D01*
X36536Y-78546D01*
X36500Y-78503D01*
X36467Y-78452D01*
X36438Y-78397D01*
X36412Y-78335D01*
X36394Y-78273D01*
X36376Y-78208D01*
X36350Y-78080D01*
X36343Y-78018D01*
X36336Y-77964D01*
X36332Y-77909D01*
X36329Y-77865D01*
X36325Y-77829D01*
Y-77800D01*
Y-77782D01*
Y-77775D01*
Y-74790D01*
X37104D01*
Y-78073D01*
X39732D01*
Y-74790D01*
X40522D01*
Y-77775D01*
D02*
G37*
G36*
X28269D02*
X28266Y-77873D01*
X28262Y-77967D01*
X28251Y-78051D01*
X28237Y-78127D01*
X28222Y-78197D01*
X28204Y-78262D01*
X28186Y-78317D01*
X28164Y-78364D01*
X28146Y-78408D01*
X28128Y-78444D01*
X28109Y-78477D01*
X28095Y-78499D01*
X28080Y-78521D01*
X28069Y-78532D01*
X28066Y-78539D01*
X28062Y-78543D01*
X28018Y-78579D01*
X27971Y-78612D01*
X27916Y-78641D01*
X27855Y-78663D01*
X27793Y-78685D01*
X27731Y-78703D01*
X27603Y-78728D01*
X27545Y-78735D01*
X27487Y-78743D01*
X27436Y-78746D01*
X27392Y-78750D01*
X27352Y-78754D01*
X25037D01*
X24939Y-78750D01*
X24848Y-78746D01*
X24764Y-78735D01*
X24688Y-78721D01*
X24619Y-78706D01*
X24560Y-78688D01*
X24502Y-78670D01*
X24455Y-78648D01*
X24415Y-78630D01*
X24378Y-78612D01*
X24349Y-78593D01*
X24324Y-78579D01*
X24306Y-78564D01*
X24295Y-78553D01*
X24287Y-78550D01*
X24284Y-78546D01*
X24247Y-78503D01*
X24215Y-78452D01*
X24185Y-78397D01*
X24160Y-78335D01*
X24142Y-78273D01*
X24124Y-78208D01*
X24098Y-78080D01*
X24091Y-78018D01*
X24083Y-77964D01*
X24080Y-77909D01*
X24076Y-77865D01*
X24073Y-77829D01*
Y-77800D01*
Y-77782D01*
Y-77775D01*
Y-74790D01*
X24852D01*
Y-78073D01*
X27480D01*
Y-74790D01*
X28269D01*
Y-77775D01*
D02*
G37*
G36*
X56636Y-75459D02*
X54892D01*
Y-78754D01*
X54106D01*
Y-75459D01*
X52355D01*
Y-74790D01*
X56636D01*
Y-75459D01*
D02*
G37*
G36*
X50532Y-74793D02*
X50623Y-74801D01*
X50706Y-74808D01*
X50783Y-74822D01*
X50852Y-74841D01*
X50918Y-74859D01*
X50972Y-74877D01*
X51020Y-74895D01*
X51063Y-74917D01*
X51100Y-74935D01*
X51129Y-74954D01*
X51154Y-74972D01*
X51172Y-74986D01*
X51183Y-74993D01*
X51191Y-75001D01*
X51194Y-75004D01*
X51231Y-75048D01*
X51260Y-75099D01*
X51289Y-75154D01*
X51311Y-75216D01*
X51347Y-75339D01*
X51373Y-75467D01*
X51380Y-75529D01*
X51387Y-75583D01*
X51391Y-75634D01*
X51394Y-75678D01*
X51398Y-75718D01*
Y-75743D01*
Y-75761D01*
Y-75769D01*
Y-77775D01*
X51394Y-77873D01*
X51391Y-77967D01*
X51380Y-78051D01*
X51365Y-78127D01*
X51351Y-78197D01*
X51333Y-78262D01*
X51314Y-78317D01*
X51296Y-78364D01*
X51278Y-78408D01*
X51260Y-78444D01*
X51242Y-78477D01*
X51227Y-78499D01*
X51213Y-78521D01*
X51201Y-78532D01*
X51198Y-78539D01*
X51194Y-78543D01*
X51151Y-78579D01*
X51103Y-78612D01*
X51045Y-78641D01*
X50987Y-78663D01*
X50925Y-78685D01*
X50859Y-78703D01*
X50736Y-78728D01*
X50674Y-78735D01*
X50616Y-78743D01*
X50564Y-78746D01*
X50521Y-78750D01*
X50481Y-78754D01*
X47791D01*
X47693Y-78750D01*
X47602Y-78746D01*
X47518Y-78735D01*
X47441Y-78721D01*
X47372Y-78706D01*
X47314Y-78688D01*
X47256Y-78670D01*
X47208Y-78648D01*
X47168Y-78630D01*
X47132Y-78612D01*
X47103Y-78593D01*
X47077Y-78579D01*
X47059Y-78564D01*
X47048Y-78553D01*
X47041Y-78550D01*
X47037Y-78546D01*
X47001Y-78503D01*
X46968Y-78452D01*
X46939Y-78397D01*
X46914Y-78335D01*
X46895Y-78273D01*
X46877Y-78208D01*
X46852Y-78080D01*
X46845Y-78018D01*
X46837Y-77964D01*
X46834Y-77909D01*
X46830Y-77865D01*
X46826Y-77829D01*
Y-77800D01*
Y-77782D01*
Y-77775D01*
Y-75769D01*
X46830Y-75671D01*
X46834Y-75576D01*
X46845Y-75492D01*
X46859Y-75416D01*
X46874Y-75347D01*
X46892Y-75285D01*
X46914Y-75226D01*
X46932Y-75179D01*
X46950Y-75135D01*
X46972Y-75099D01*
X46990Y-75070D01*
X47005Y-75045D01*
X47019Y-75026D01*
X47026Y-75015D01*
X47034Y-75008D01*
X47037Y-75004D01*
X47081Y-74968D01*
X47128Y-74932D01*
X47183Y-74906D01*
X47241Y-74881D01*
X47303Y-74859D01*
X47369Y-74841D01*
X47492Y-74815D01*
X47551Y-74808D01*
X47609Y-74801D01*
X47656Y-74797D01*
X47703Y-74793D01*
X47740Y-74790D01*
X50430D01*
X50532Y-74793D01*
D02*
G37*
G36*
X45811Y-75459D02*
X44067D01*
Y-78754D01*
X43281D01*
Y-75459D01*
X41530D01*
Y-74790D01*
X45811D01*
Y-75459D01*
D02*
G37*
G36*
X34367Y-78754D02*
X32095D01*
X32000Y-78750D01*
X31909Y-78746D01*
X31826Y-78743D01*
X31746Y-78735D01*
X31673Y-78732D01*
X31604Y-78724D01*
X31542Y-78717D01*
X31487Y-78710D01*
X31436Y-78703D01*
X31393Y-78699D01*
X31360Y-78692D01*
X31331Y-78688D01*
X31313Y-78685D01*
X31298Y-78681D01*
X31294D01*
X31163Y-78648D01*
X31043Y-78604D01*
X30934Y-78553D01*
X30883Y-78528D01*
X30839Y-78503D01*
X30799Y-78481D01*
X30763Y-78459D01*
X30730Y-78437D01*
X30705Y-78419D01*
X30683Y-78404D01*
X30665Y-78393D01*
X30657Y-78386D01*
X30654Y-78382D01*
X30588Y-78342D01*
X30526Y-78302D01*
X30468Y-78255D01*
X30413Y-78204D01*
X30359Y-78149D01*
X30312Y-78098D01*
X30272Y-78044D01*
X30231Y-77993D01*
X30195Y-77942D01*
X30166Y-77898D01*
X30141Y-77855D01*
X30119Y-77818D01*
X30101Y-77789D01*
X30090Y-77763D01*
X30082Y-77749D01*
X30079Y-77745D01*
X30039Y-77662D01*
X30006Y-77574D01*
X29977Y-77487D01*
X29951Y-77399D01*
X29929Y-77316D01*
X29915Y-77232D01*
X29900Y-77152D01*
X29886Y-77079D01*
X29878Y-77010D01*
X29871Y-76945D01*
X29868Y-76890D01*
X29864Y-76839D01*
X29860Y-76803D01*
Y-76774D01*
Y-76755D01*
Y-76748D01*
X29864Y-76653D01*
X29871Y-76559D01*
X29882Y-76468D01*
X29893Y-76380D01*
X29911Y-76297D01*
X29929Y-76220D01*
X29951Y-76144D01*
X29969Y-76078D01*
X29991Y-76016D01*
X30013Y-75958D01*
X30031Y-75911D01*
X30046Y-75871D01*
X30060Y-75838D01*
X30071Y-75813D01*
X30079Y-75798D01*
X30082Y-75794D01*
X30126Y-75714D01*
X30170Y-75638D01*
X30217Y-75569D01*
X30264Y-75503D01*
X30312Y-75445D01*
X30359Y-75390D01*
X30406Y-75343D01*
X30450Y-75299D01*
X30490Y-75259D01*
X30530Y-75226D01*
X30566Y-75197D01*
X30595Y-75172D01*
X30621Y-75154D01*
X30639Y-75143D01*
X30650Y-75135D01*
X30654Y-75132D01*
X30763Y-75066D01*
X30876Y-75008D01*
X30985Y-74964D01*
X31087Y-74928D01*
X31131Y-74913D01*
X31171Y-74899D01*
X31211Y-74888D01*
X31240Y-74881D01*
X31265Y-74873D01*
X31287Y-74870D01*
X31298Y-74866D01*
X31302D01*
X31371Y-74852D01*
X31444Y-74841D01*
X31593Y-74822D01*
X31742Y-74808D01*
X31815Y-74804D01*
X31884Y-74801D01*
X31946Y-74797D01*
X32008Y-74793D01*
X32059D01*
X32106Y-74790D01*
X34367D01*
Y-78754D01*
D02*
G37*
%LPC*%
G36*
X45500Y-71376D02*
X45490D01*
X45470Y-71377D01*
X45450Y-71380D01*
X45432Y-71386D01*
X45415Y-71393D01*
X45383Y-71410D01*
X45357Y-71429D01*
X45335Y-71450D01*
X45326Y-71460D01*
X45319Y-71467D01*
X45313Y-71474D01*
X45309Y-71480D01*
X45307Y-71483D01*
X45306Y-71484D01*
X45293Y-71506D01*
X45281Y-71531D01*
X45271Y-71557D01*
X45263Y-71584D01*
X45250Y-71642D01*
X45241Y-71700D01*
X45238Y-71728D01*
X45236Y-71753D01*
X45235Y-71776D01*
X45234Y-71796D01*
X45232Y-71812D01*
Y-71825D01*
Y-71832D01*
Y-71835D01*
X45234Y-71877D01*
X45235Y-71916D01*
X45239Y-71953D01*
X45244Y-71984D01*
X45250Y-72015D01*
X45255Y-72044D01*
X45261Y-72069D01*
X45268Y-72090D01*
X45276Y-72111D01*
X45281Y-72127D01*
X45287Y-72141D01*
X45293Y-72153D01*
X45297Y-72161D01*
X45302Y-72167D01*
X45303Y-72172D01*
X45305Y-72173D01*
X45319Y-72192D01*
X45332Y-72208D01*
X45348Y-72222D01*
X45362Y-72234D01*
X45377Y-72244D01*
X45392Y-72253D01*
X45406Y-72260D01*
X45419Y-72266D01*
X45442Y-72273D01*
X45452Y-72276D01*
X45461Y-72277D01*
X45468D01*
X45474Y-72279D01*
X45479D01*
X45505Y-72277D01*
X45529Y-72272D01*
X45553Y-72263D01*
X45573Y-72254D01*
X45589Y-72246D01*
X45602Y-72237D01*
X45610Y-72231D01*
X45612Y-72230D01*
X45613D01*
X45637Y-72209D01*
X45656Y-72185D01*
X45673Y-72161D01*
X45686Y-72137D01*
X45698Y-72117D01*
X45706Y-72099D01*
X45708Y-72092D01*
X45711Y-72088D01*
X45712Y-72085D01*
Y-72083D01*
X45718Y-72064D01*
X45724Y-72043D01*
X45732Y-71998D01*
X45738Y-71951D01*
X45742Y-71906D01*
X45744Y-71885D01*
X45745Y-71866D01*
Y-71847D01*
X45747Y-71832D01*
Y-71819D01*
Y-71811D01*
Y-71803D01*
Y-71802D01*
X45745Y-71763D01*
X45744Y-71726D01*
X45740Y-71692D01*
X45735Y-71661D01*
X45729Y-71632D01*
X45724Y-71606D01*
X45716Y-71581D01*
X45709Y-71561D01*
X45703Y-71542D01*
X45696Y-71526D01*
X45690Y-71512D01*
X45684Y-71502D01*
X45680Y-71493D01*
X45676Y-71486D01*
X45674Y-71483D01*
X45673Y-71481D01*
X45658Y-71463D01*
X45644Y-71447D01*
X45628Y-71432D01*
X45612Y-71421D01*
X45597Y-71410D01*
X45581Y-71402D01*
X45567Y-71394D01*
X45553Y-71389D01*
X45528Y-71381D01*
X45518Y-71378D01*
X45507Y-71377D01*
X45500Y-71376D01*
D02*
G37*
G36*
X51541D02*
X51531D01*
X51511Y-71377D01*
X51492Y-71380D01*
X51473Y-71386D01*
X51455Y-71393D01*
X51424Y-71409D01*
X51396Y-71429D01*
X51374Y-71450D01*
X51366Y-71458D01*
X51358Y-71465D01*
X51353Y-71473D01*
X51348Y-71478D01*
X51347Y-71481D01*
X51345Y-71483D01*
X51332Y-71505D01*
X51321Y-71528D01*
X51310Y-71552D01*
X51302Y-71580D01*
X51289Y-71634D01*
X51279Y-71687D01*
X51276Y-71713D01*
X51274Y-71737D01*
X51273Y-71757D01*
X51271Y-71776D01*
X51270Y-71790D01*
Y-71802D01*
Y-71809D01*
Y-71812D01*
X51271Y-71851D01*
X51273Y-71887D01*
X51277Y-71922D01*
X51283Y-71954D01*
X51289Y-71982D01*
X51294Y-72009D01*
X51302Y-72032D01*
X51309Y-72054D01*
X51318Y-72073D01*
X51325Y-72089D01*
X51331Y-72102D01*
X51336Y-72114D01*
X51342Y-72122D01*
X51347Y-72129D01*
X51348Y-72132D01*
X51350Y-72134D01*
X51364Y-72153D01*
X51380Y-72169D01*
X51396Y-72183D01*
X51412Y-72195D01*
X51428Y-72205D01*
X51444Y-72214D01*
X51458Y-72221D01*
X51473Y-72227D01*
X51499Y-72234D01*
X51511Y-72237D01*
X51519Y-72238D01*
X51528D01*
X51534Y-72240D01*
X51538D01*
X51557Y-72238D01*
X51576Y-72235D01*
X51593Y-72230D01*
X51609Y-72224D01*
X51638Y-72206D01*
X51664Y-72188D01*
X51685Y-72169D01*
X51693Y-72160D01*
X51701Y-72151D01*
X51706Y-72145D01*
X51711Y-72140D01*
X51712Y-72137D01*
X51714Y-72135D01*
X51727Y-72115D01*
X51737Y-72090D01*
X51747Y-72066D01*
X51756Y-72040D01*
X51769Y-71984D01*
X51777Y-71929D01*
X51780Y-71905D01*
X51782Y-71880D01*
X51783Y-71860D01*
X51785Y-71841D01*
X51786Y-71825D01*
Y-71813D01*
Y-71806D01*
Y-71803D01*
X51785Y-71764D01*
X51783Y-71726D01*
X51779Y-71693D01*
X51775Y-71661D01*
X51769Y-71632D01*
X51763Y-71606D01*
X51757Y-71581D01*
X51750Y-71561D01*
X51743Y-71542D01*
X51737Y-71526D01*
X51731Y-71512D01*
X51725Y-71502D01*
X51721Y-71493D01*
X51716Y-71486D01*
X51715Y-71483D01*
X51714Y-71481D01*
X51699Y-71463D01*
X51685Y-71447D01*
X51670Y-71432D01*
X51654Y-71421D01*
X51640Y-71410D01*
X51624Y-71402D01*
X51609Y-71394D01*
X51595Y-71389D01*
X51570Y-71381D01*
X51558Y-71378D01*
X51550Y-71377D01*
X51541Y-71376D01*
D02*
G37*
G36*
X54705D02*
X54695D01*
X54677Y-71377D01*
X54661Y-71378D01*
X54647Y-71383D01*
X54631Y-71389D01*
X54605Y-71402D01*
X54582Y-71418D01*
X54563Y-71434D01*
X54548Y-71447D01*
X54544Y-71452D01*
X54540Y-71455D01*
X54538Y-71458D01*
X54537Y-71460D01*
X54525Y-71476D01*
X54514Y-71494D01*
X54496Y-71534D01*
X54483Y-71576D01*
X54474Y-71616D01*
X54471Y-71635D01*
X54469Y-71654D01*
X54467Y-71670D01*
X54466Y-71683D01*
Y-71694D01*
X54464Y-71703D01*
Y-71709D01*
Y-71710D01*
X54927D01*
Y-71681D01*
X54924Y-71654D01*
X54921Y-71629D01*
X54917Y-71605D01*
X54912Y-71583D01*
X54906Y-71563D01*
X54901Y-71545D01*
X54893Y-71528D01*
X54888Y-71513D01*
X54882Y-71500D01*
X54876Y-71489D01*
X54870Y-71480D01*
X54866Y-71473D01*
X54863Y-71468D01*
X54860Y-71465D01*
Y-71464D01*
X54847Y-71448D01*
X54834Y-71435D01*
X54819Y-71423D01*
X54806Y-71413D01*
X54792Y-71404D01*
X54779Y-71397D01*
X54753Y-71387D01*
X54729Y-71380D01*
X54719Y-71378D01*
X54711Y-71377D01*
X54705Y-71376D01*
D02*
G37*
G36*
X48834D02*
X48824D01*
X48806Y-71377D01*
X48790Y-71378D01*
X48776Y-71383D01*
X48760Y-71389D01*
X48734Y-71402D01*
X48711Y-71418D01*
X48692Y-71434D01*
X48677Y-71447D01*
X48673Y-71452D01*
X48669Y-71455D01*
X48667Y-71458D01*
X48666Y-71460D01*
X48654Y-71476D01*
X48643Y-71494D01*
X48625Y-71534D01*
X48612Y-71576D01*
X48603Y-71616D01*
X48600Y-71635D01*
X48597Y-71654D01*
X48596Y-71670D01*
X48595Y-71683D01*
Y-71694D01*
X48593Y-71703D01*
Y-71709D01*
Y-71710D01*
X49056D01*
Y-71681D01*
X49053Y-71654D01*
X49050Y-71629D01*
X49046Y-71605D01*
X49041Y-71583D01*
X49035Y-71563D01*
X49030Y-71545D01*
X49022Y-71528D01*
X49017Y-71513D01*
X49011Y-71500D01*
X49005Y-71489D01*
X48999Y-71480D01*
X48995Y-71473D01*
X48992Y-71468D01*
X48989Y-71465D01*
Y-71464D01*
X48976Y-71448D01*
X48963Y-71435D01*
X48948Y-71423D01*
X48935Y-71413D01*
X48921Y-71404D01*
X48908Y-71397D01*
X48882Y-71387D01*
X48858Y-71380D01*
X48848Y-71378D01*
X48840Y-71377D01*
X48834Y-71376D01*
D02*
G37*
G36*
X56455Y-70913D02*
X56240D01*
X56212Y-70914D01*
X56185Y-70916D01*
X56161Y-70917D01*
X56139Y-70919D01*
X56120Y-70920D01*
X56103Y-70922D01*
X56088Y-70923D01*
X56077Y-70925D01*
X56066Y-70926D01*
X56058Y-70928D01*
X56052Y-70929D01*
X56048D01*
X56046Y-70930D01*
X56045D01*
X56011Y-70941D01*
X55982Y-70955D01*
X55955Y-70971D01*
X55933Y-70987D01*
X55914Y-71001D01*
X55901Y-71014D01*
X55892Y-71023D01*
X55889Y-71025D01*
Y-71026D01*
X55868Y-71055D01*
X55848Y-71087D01*
X55832Y-71120D01*
X55818Y-71152D01*
X55808Y-71181D01*
X55804Y-71193D01*
X55801Y-71204D01*
X55798Y-71213D01*
X55797Y-71219D01*
X55795Y-71223D01*
Y-71225D01*
X55790Y-71249D01*
X55785Y-71276D01*
X55778Y-71331D01*
X55772Y-71387D01*
X55771Y-71416D01*
X55769Y-71442D01*
X55768Y-71468D01*
X55766Y-71491D01*
Y-71513D01*
X55765Y-71531D01*
Y-71547D01*
Y-71557D01*
Y-71564D01*
Y-71567D01*
Y-71605D01*
X55766Y-71642D01*
X55768Y-71676D01*
X55769Y-71709D01*
X55772Y-71738D01*
X55775Y-71767D01*
X55778Y-71792D01*
X55779Y-71815D01*
X55782Y-71837D01*
X55785Y-71854D01*
X55788Y-71870D01*
X55791Y-71883D01*
X55792Y-71893D01*
X55794Y-71900D01*
X55795Y-71905D01*
Y-71906D01*
X55801Y-71929D01*
X55807Y-71951D01*
X55813Y-71971D01*
X55818Y-71989D01*
X55826Y-72006D01*
X55832Y-72021D01*
X55837Y-72035D01*
X55843Y-72047D01*
X55849Y-72058D01*
X55853Y-72067D01*
X55858Y-72076D01*
X55862Y-72082D01*
X55868Y-72090D01*
X55869Y-72093D01*
X55887Y-72114D01*
X55907Y-72132D01*
X55926Y-72147D01*
X55945Y-72160D01*
X55961Y-72169D01*
X55974Y-72176D01*
X55982Y-72180D01*
X55984Y-72182D01*
X55985D01*
X56000Y-72186D01*
X56014Y-72192D01*
X56050Y-72199D01*
X56087Y-72203D01*
X56125Y-72206D01*
X56142Y-72208D01*
X56158Y-72209D01*
X56172D01*
X56185Y-72211D01*
X56455D01*
Y-70913D01*
D02*
G37*
G36*
X47545Y-71376D02*
X47535D01*
X47514Y-71377D01*
X47494Y-71380D01*
X47477Y-71386D01*
X47459Y-71393D01*
X47427Y-71410D01*
X47401Y-71429D01*
X47379Y-71450D01*
X47371Y-71460D01*
X47363Y-71467D01*
X47358Y-71474D01*
X47353Y-71480D01*
X47352Y-71483D01*
X47350Y-71484D01*
X47337Y-71506D01*
X47326Y-71531D01*
X47316Y-71557D01*
X47307Y-71586D01*
X47294Y-71644D01*
X47285Y-71702D01*
X47282Y-71729D01*
X47281Y-71755D01*
X47280Y-71777D01*
X47278Y-71798D01*
X47276Y-71815D01*
Y-71828D01*
Y-71835D01*
Y-71838D01*
X47278Y-71879D01*
X47280Y-71916D01*
X47284Y-71951D01*
X47288Y-71983D01*
X47294Y-72013D01*
X47300Y-72041D01*
X47307Y-72066D01*
X47314Y-72088D01*
X47322Y-72106D01*
X47329Y-72124D01*
X47335Y-72138D01*
X47340Y-72150D01*
X47345Y-72158D01*
X47349Y-72164D01*
X47350Y-72169D01*
X47352Y-72170D01*
X47366Y-72189D01*
X47381Y-72206D01*
X47395Y-72221D01*
X47410Y-72233D01*
X47426Y-72244D01*
X47440Y-72253D01*
X47453Y-72260D01*
X47468Y-72266D01*
X47491Y-72273D01*
X47501Y-72276D01*
X47510Y-72277D01*
X47517D01*
X47523Y-72279D01*
X47527D01*
X47555Y-72277D01*
X47581Y-72272D01*
X47604Y-72264D01*
X47624Y-72256D01*
X47642Y-72247D01*
X47655Y-72240D01*
X47662Y-72234D01*
X47665Y-72233D01*
X47685Y-72212D01*
X47704Y-72190D01*
X47720Y-72166D01*
X47733Y-72144D01*
X47745Y-72122D01*
X47752Y-72106D01*
X47755Y-72099D01*
X47756Y-72095D01*
X47758Y-72092D01*
Y-72090D01*
X47764Y-72071D01*
X47768Y-72050D01*
X47777Y-72005D01*
X47783Y-71957D01*
X47785Y-71911D01*
X47787Y-71889D01*
X47788Y-71868D01*
Y-71850D01*
X47790Y-71834D01*
Y-71821D01*
Y-71811D01*
Y-71803D01*
Y-71802D01*
X47788Y-71763D01*
X47787Y-71726D01*
X47783Y-71693D01*
X47778Y-71663D01*
X47772Y-71634D01*
X47767Y-71608D01*
X47759Y-71583D01*
X47752Y-71563D01*
X47746Y-71544D01*
X47739Y-71528D01*
X47733Y-71513D01*
X47728Y-71503D01*
X47723Y-71494D01*
X47719Y-71487D01*
X47717Y-71484D01*
X47716Y-71483D01*
X47701Y-71464D01*
X47687Y-71448D01*
X47671Y-71434D01*
X47657Y-71421D01*
X47640Y-71410D01*
X47626Y-71402D01*
X47611Y-71394D01*
X47597Y-71389D01*
X47572Y-71381D01*
X47562Y-71378D01*
X47552Y-71377D01*
X47545Y-71376D01*
D02*
G37*
G36*
X50612Y-75459D02*
X47605D01*
Y-78073D01*
X50612D01*
Y-75459D01*
D02*
G37*
G36*
X33577D02*
X32284D01*
X32124Y-75463D01*
X31975Y-75474D01*
X31840Y-75489D01*
X31717Y-75507D01*
X31604Y-75529D01*
X31498Y-75554D01*
X31407Y-75583D01*
X31327Y-75609D01*
X31254Y-75638D01*
X31196Y-75667D01*
X31145Y-75692D01*
X31105Y-75714D01*
X31072Y-75732D01*
X31051Y-75747D01*
X31036Y-75758D01*
X31032Y-75761D01*
X30967Y-75823D01*
X30912Y-75889D01*
X30861Y-75962D01*
X30821Y-76042D01*
X30785Y-76122D01*
X30756Y-76206D01*
X30730Y-76286D01*
X30712Y-76366D01*
X30694Y-76442D01*
X30683Y-76515D01*
X30676Y-76581D01*
X30672Y-76635D01*
X30668Y-76683D01*
X30665Y-76719D01*
Y-76741D01*
Y-76744D01*
Y-76748D01*
X30668Y-76879D01*
X30679Y-76999D01*
X30697Y-77108D01*
X30719Y-77210D01*
X30748Y-77301D01*
X30777Y-77385D01*
X30810Y-77461D01*
X30843Y-77527D01*
X30879Y-77585D01*
X30912Y-77636D01*
X30941Y-77676D01*
X30967Y-77713D01*
X30992Y-77738D01*
X31010Y-77756D01*
X31021Y-77767D01*
X31025Y-77771D01*
X31098Y-77825D01*
X31181Y-77869D01*
X31276Y-77909D01*
X31374Y-77946D01*
X31476Y-77975D01*
X31582Y-78000D01*
X31688Y-78018D01*
X31789Y-78036D01*
X31888Y-78048D01*
X31982Y-78058D01*
X32066Y-78062D01*
X32139Y-78069D01*
X32201D01*
X32223Y-78073D01*
X33577D01*
Y-75459D01*
D02*
G37*
%LPD*%
D10*
X52894Y-2894D02*
X62106D01*
X52894Y-12106D02*
X62106D01*
Y-2894D01*
X52894Y-12106D02*
Y-2894D01*
X72894Y-62894D02*
X82106D01*
X72894Y-72106D02*
X82106D01*
X72894D02*
Y-62894D01*
X82106Y-72106D02*
Y-62894D01*
X92894Y-102106D02*
X102106D01*
X92894Y-92894D02*
X102106D01*
X92894Y-102106D02*
Y-92894D01*
X102106Y-102106D02*
Y-92894D01*
X92894Y-92106D02*
X102106D01*
X92894Y-82894D02*
X102106D01*
X92894Y-92106D02*
Y-82894D01*
X102106Y-92106D02*
Y-82894D01*
X82894Y-102106D02*
X92106D01*
X82894Y-92894D02*
X92106D01*
X82894Y-102106D02*
Y-92894D01*
X92106Y-102106D02*
Y-92894D01*
X62894Y-102106D02*
X72106D01*
X62894Y-92894D02*
X72106D01*
X62894Y-102106D02*
Y-92894D01*
X72106Y-102106D02*
Y-92894D01*
X72894Y-102106D02*
X82106D01*
X72894Y-92894D02*
X82106D01*
X72894Y-102106D02*
Y-92894D01*
X82106Y-102106D02*
Y-92894D01*
X72894Y-92106D02*
X82106D01*
X72894Y-82894D02*
X82106D01*
X72894Y-92106D02*
Y-82894D01*
X82106Y-92106D02*
Y-82894D01*
X102106Y-82106D02*
Y-72894D01*
X92894Y-82106D02*
Y-72894D01*
Y-82106D02*
X102106D01*
X92894Y-72894D02*
X102106D01*
Y-72106D02*
Y-62894D01*
X92894Y-72106D02*
Y-62894D01*
Y-72106D02*
X102106D01*
X92894Y-62894D02*
X102106D01*
X92106Y-82106D02*
Y-72894D01*
X82894Y-82106D02*
Y-72894D01*
Y-82106D02*
X92106D01*
X82894Y-72894D02*
X92106D01*
Y-72106D02*
Y-62894D01*
X82894Y-72106D02*
Y-62894D01*
Y-72106D02*
X92106D01*
X82894Y-62894D02*
X92106D01*
X82106Y-82106D02*
Y-72894D01*
X72894Y-82106D02*
Y-72894D01*
Y-82106D02*
X82106D01*
X72894Y-72894D02*
X82106D01*
X72106Y-82106D02*
Y-72894D01*
X62894Y-82106D02*
Y-72894D01*
Y-82106D02*
X72106D01*
X62894Y-72894D02*
X72106D01*
Y-72106D02*
Y-62894D01*
X62894Y-72106D02*
Y-62894D01*
Y-72106D02*
X72106D01*
X62894Y-62894D02*
X72106D01*
X92894Y-22894D02*
X102106D01*
X92894Y-32106D02*
X102106D01*
Y-22894D01*
X92894Y-32106D02*
Y-22894D01*
Y-12894D02*
X102106D01*
X92894Y-22106D02*
X102106D01*
Y-12894D01*
X92894Y-22106D02*
Y-12894D01*
X82894D02*
X92106D01*
X82894Y-22106D02*
X92106D01*
Y-12894D01*
X82894Y-22106D02*
Y-12894D01*
X72894D02*
X82106D01*
X72894Y-22106D02*
X82106D01*
Y-12894D01*
X72894Y-22106D02*
Y-12894D01*
X52894Y27106D02*
X62106D01*
X52894Y17894D02*
X62106D01*
Y27106D01*
X52894Y17894D02*
Y27106D01*
X72894Y-22894D02*
X82106D01*
X72894Y-32106D02*
X82106D01*
Y-22894D01*
X72894Y-32106D02*
Y-22894D01*
X92894Y-32894D02*
X102106D01*
X92894Y-42106D02*
X102106D01*
Y-32894D01*
X92894Y-42106D02*
Y-32894D01*
X82894D02*
X92106D01*
X82894Y-42106D02*
X92106D01*
Y-32894D01*
X82894Y-42106D02*
Y-32894D01*
X102106Y-62106D02*
Y-52894D01*
X92894Y-62106D02*
Y-52894D01*
Y-62106D02*
X102106D01*
X92894Y-52894D02*
X102106D01*
X82106Y-62106D02*
Y-52894D01*
X72894Y-62106D02*
Y-52894D01*
Y-62106D02*
X82106D01*
X72894Y-52894D02*
X82106D01*
X-82106Y-102106D02*
X-72894D01*
X-82106Y-92894D02*
X-72894D01*
Y-102106D02*
Y-92894D01*
X-82106Y-102106D02*
Y-92894D01*
X-72106Y-102106D02*
X-62894D01*
X-72106Y-92894D02*
X-62894D01*
Y-102106D02*
Y-92894D01*
X-72106Y-102106D02*
Y-92894D01*
X-102106Y-102106D02*
X-92894D01*
X-102106Y-92894D02*
X-92894D01*
Y-102106D02*
Y-92894D01*
X-102106Y-102106D02*
Y-92894D01*
X-92106Y-102106D02*
X-82894D01*
X-92106Y-92894D02*
X-82894D01*
Y-102106D02*
Y-92894D01*
X-92106Y-102106D02*
Y-92894D01*
X52894Y27894D02*
Y37106D01*
X62106Y27894D02*
Y37106D01*
X52894Y27894D02*
X62106D01*
X52894Y37106D02*
X62106D01*
X52894Y-2106D02*
Y7106D01*
X62106Y-2106D02*
Y7106D01*
X52894Y-2106D02*
X62106D01*
X52894Y7106D02*
X62106D01*
X52894Y7894D02*
Y17106D01*
X62106Y7894D02*
Y17106D01*
X52894Y7894D02*
X62106D01*
X52894Y17106D02*
X62106D01*
X92894Y-12106D02*
Y-2894D01*
X102106Y-12106D02*
Y-2894D01*
X92894Y-12106D02*
X102106D01*
X92894Y-2894D02*
X102106D01*
X82894Y-12106D02*
Y-2894D01*
X92106Y-12106D02*
Y-2894D01*
X82894Y-12106D02*
X92106D01*
X82894Y-2894D02*
X92106D01*
X72894Y-12106D02*
Y-2894D01*
X82106Y-12106D02*
Y-2894D01*
X72894Y-12106D02*
X82106D01*
X72894Y-2894D02*
X82106D01*
X62894Y-12106D02*
Y-2894D01*
X72106Y-12106D02*
Y-2894D01*
X62894Y-12106D02*
X72106D01*
X62894Y-2894D02*
X72106D01*
X92894Y-52106D02*
Y-42894D01*
X102106Y-52106D02*
Y-42894D01*
X92894Y-52106D02*
X102106D01*
X92894Y-42894D02*
X102106D01*
X82894Y-52106D02*
Y-42894D01*
X92106Y-52106D02*
Y-42894D01*
X82894Y-52106D02*
X92106D01*
X82894Y-42894D02*
X92106D01*
X72894Y-52106D02*
Y-42894D01*
X82106Y-52106D02*
Y-42894D01*
X72894Y-52106D02*
X82106D01*
X72894Y-42894D02*
X82106D01*
X62894Y-52106D02*
Y-42894D01*
X72106Y-52106D02*
Y-42894D01*
X62894Y-52106D02*
X72106D01*
X62894Y-42894D02*
X72106D01*
X92894Y7894D02*
Y17106D01*
X102106Y7894D02*
Y17106D01*
X92894Y7894D02*
X102106D01*
X92894Y17106D02*
X102106D01*
X82894Y7894D02*
Y17106D01*
X92106Y7894D02*
Y17106D01*
X82894Y7894D02*
X92106D01*
X82894Y17106D02*
X92106D01*
X72894Y7894D02*
Y17106D01*
X82106Y7894D02*
Y17106D01*
X72894Y7894D02*
X82106D01*
X72894Y17106D02*
X82106D01*
X62894Y7894D02*
Y17106D01*
X72106Y7894D02*
Y17106D01*
X62894Y7894D02*
X72106D01*
X62894Y17106D02*
X72106D01*
X92894Y-2106D02*
Y7106D01*
X102106Y-2106D02*
Y7106D01*
X92894Y-2106D02*
X102106D01*
X92894Y7106D02*
X102106D01*
X72894Y-2106D02*
Y7106D01*
X82106Y-2106D02*
Y7106D01*
X72894Y-2106D02*
X82106D01*
X72894Y7106D02*
X82106D01*
X72894Y-42106D02*
Y-32894D01*
X82106Y-42106D02*
Y-32894D01*
X72894Y-42106D02*
X82106D01*
X72894Y-32894D02*
X82106D01*
X62894Y-42106D02*
Y-32894D01*
X72106Y-42106D02*
Y-32894D01*
X62894Y-42106D02*
X72106D01*
X62894Y-32894D02*
X72106D01*
X52894Y37894D02*
Y47106D01*
X62106Y37894D02*
Y47106D01*
X52894Y37894D02*
X62106D01*
X52894Y47106D02*
X62106D01*
X72894Y27106D02*
X82106D01*
X72894Y17894D02*
X82106D01*
X72894D02*
Y27106D01*
X82106Y17894D02*
Y27106D01*
X62894D02*
X72106D01*
X62894Y17894D02*
X72106D01*
X62894D02*
Y27106D01*
X72106Y17894D02*
Y27106D01*
X72894Y37106D02*
X82106D01*
X72894Y27894D02*
X82106D01*
X72894D02*
Y37106D01*
X82106Y27894D02*
Y37106D01*
X82894Y27106D02*
X92106D01*
X82894Y17894D02*
X92106D01*
X82894D02*
Y27106D01*
X92106Y17894D02*
Y27106D01*
X92894Y37106D02*
X102106D01*
X92894Y27894D02*
X102106D01*
X92894D02*
Y37106D01*
X102106Y27894D02*
Y37106D01*
X92894Y27106D02*
X102106D01*
X92894Y17894D02*
X102106D01*
X92894D02*
Y27106D01*
X102106Y17894D02*
Y27106D01*
X-72106Y-52106D02*
Y-42894D01*
X-62894Y-52106D02*
Y-42894D01*
X-72106Y-52106D02*
X-62894D01*
X-72106Y-42894D02*
X-62894D01*
X-72106Y7894D02*
Y17106D01*
X-62894Y7894D02*
Y17106D01*
X-72106Y7894D02*
X-62894D01*
X-72106Y17106D02*
X-62894D01*
X-72106Y27894D02*
Y37106D01*
X-62894Y27894D02*
Y37106D01*
X-72106Y27894D02*
X-62894D01*
X-72106Y37106D02*
X-62894D01*
X92894Y37894D02*
X102106D01*
X92894Y47106D02*
X102106D01*
Y37894D02*
Y47106D01*
X92894Y37894D02*
Y47106D01*
X-62894Y-32106D02*
Y-22894D01*
X-72106Y-32106D02*
Y-22894D01*
X-62894D01*
X-72106Y-32106D02*
X-62894D01*
Y-92106D02*
Y-82894D01*
X-72106Y-92106D02*
Y-82894D01*
X-62894D01*
X-72106Y-92106D02*
X-62894D01*
X82894Y37894D02*
Y47106D01*
X92106Y37894D02*
Y47106D01*
X82894Y37894D02*
X92106D01*
X82894Y47106D02*
X92106D01*
X72894Y37894D02*
Y47106D01*
X82106Y37894D02*
Y47106D01*
X72894Y37894D02*
X82106D01*
X72894Y47106D02*
X82106D01*
X62894Y37894D02*
Y47106D01*
X72106Y37894D02*
Y47106D01*
X62894Y37894D02*
X72106D01*
X62894Y47106D02*
X72106D01*
X-102106Y-82106D02*
Y-72894D01*
X-92894Y-82106D02*
Y-72894D01*
X-102106Y-82106D02*
X-92894D01*
X-102106Y-72894D02*
X-92894D01*
X-102106Y-72106D02*
Y-62894D01*
X-92894Y-72106D02*
Y-62894D01*
X-102106Y-72106D02*
X-92894D01*
X-102106Y-62894D02*
X-92894D01*
X-102106Y-62106D02*
Y-52894D01*
X-92894Y-62106D02*
Y-52894D01*
X-102106Y-62106D02*
X-92894D01*
X-102106Y-52894D02*
X-92894D01*
X-102106Y-52106D02*
Y-42894D01*
X-92894Y-52106D02*
Y-42894D01*
X-102106Y-52106D02*
X-92894D01*
X-102106Y-42894D02*
X-92894D01*
X-102106Y-42106D02*
Y-32894D01*
X-92894Y-42106D02*
Y-32894D01*
X-102106Y-42106D02*
X-92894D01*
X-102106Y-32894D02*
X-92894D01*
X-102106Y-32106D02*
Y-22894D01*
X-92894Y-32106D02*
Y-22894D01*
X-102106Y-32106D02*
X-92894D01*
X-102106Y-22894D02*
X-92894D01*
X-92106Y-82106D02*
Y-72894D01*
X-82894Y-82106D02*
Y-72894D01*
X-92106Y-82106D02*
X-82894D01*
X-92106Y-72894D02*
X-82894D01*
X-92106Y-62106D02*
Y-52894D01*
X-82894Y-62106D02*
Y-52894D01*
X-92106Y-62106D02*
X-82894D01*
X-92106Y-52894D02*
X-82894D01*
X-92106Y-52106D02*
Y-42894D01*
X-82894Y-52106D02*
Y-42894D01*
X-92106Y-52106D02*
X-82894D01*
X-92106Y-42894D02*
X-82894D01*
X-92106Y-32106D02*
Y-22894D01*
X-82894Y-32106D02*
Y-22894D01*
X-92106Y-32106D02*
X-82894D01*
X-92106Y-22894D02*
X-82894D01*
X-82106Y-82106D02*
Y-72894D01*
X-72894Y-82106D02*
Y-72894D01*
X-82106Y-82106D02*
X-72894D01*
X-82106Y-72894D02*
X-72894D01*
X-82106Y-72106D02*
Y-62894D01*
X-72894Y-72106D02*
Y-62894D01*
X-82106Y-72106D02*
X-72894D01*
X-82106Y-62894D02*
X-72894D01*
X-82106Y-62106D02*
Y-52894D01*
X-72894Y-62106D02*
Y-52894D01*
X-82106Y-62106D02*
X-72894D01*
X-82106Y-52894D02*
X-72894D01*
X-82106Y-52106D02*
Y-42894D01*
X-72894Y-52106D02*
Y-42894D01*
X-82106Y-52106D02*
X-72894D01*
X-82106Y-42894D02*
X-72894D01*
X-82106Y-42106D02*
Y-32894D01*
X-72894Y-42106D02*
Y-32894D01*
X-82106Y-42106D02*
X-72894D01*
X-82106Y-32894D02*
X-72894D01*
X-82106Y-32106D02*
Y-22894D01*
X-72894Y-32106D02*
Y-22894D01*
X-82106Y-32106D02*
X-72894D01*
X-82106Y-22894D02*
X-72894D01*
X-72106Y-82106D02*
Y-72894D01*
X-62894Y-82106D02*
Y-72894D01*
X-72106Y-82106D02*
X-62894D01*
X-72106Y-72894D02*
X-62894D01*
X-72106Y-62106D02*
Y-52894D01*
X-62894Y-62106D02*
Y-52894D01*
X-72106Y-62106D02*
X-62894D01*
X-72106Y-52894D02*
X-62894D01*
X-102106Y-22106D02*
X-92894D01*
X-102106Y-12894D02*
X-92894D01*
Y-22106D02*
Y-12894D01*
X-102106Y-22106D02*
Y-12894D01*
Y-12106D02*
X-92894D01*
X-102106Y-2894D02*
X-92894D01*
Y-12106D02*
Y-2894D01*
X-102106Y-12106D02*
Y-2894D01*
Y-2106D02*
X-92894D01*
X-102106Y7106D02*
X-92894D01*
Y-2106D02*
Y7106D01*
X-102106Y-2106D02*
Y7106D01*
Y7894D02*
X-92894D01*
X-102106Y17106D02*
X-92894D01*
Y7894D02*
Y17106D01*
X-102106Y7894D02*
Y17106D01*
Y17894D02*
Y27106D01*
X-92894Y17894D02*
Y27106D01*
X-102106Y17894D02*
X-92894D01*
X-102106Y27106D02*
X-92894D01*
X-102106Y27894D02*
Y37106D01*
X-92894Y27894D02*
Y37106D01*
X-102106Y27894D02*
X-92894D01*
X-102106Y37106D02*
X-92894D01*
X-92106Y-22106D02*
Y-12894D01*
X-82894Y-22106D02*
Y-12894D01*
X-92106Y-22106D02*
X-82894D01*
X-92106Y-12894D02*
X-82894D01*
X-92106Y-2106D02*
Y7106D01*
X-82894Y-2106D02*
Y7106D01*
X-92106Y-2106D02*
X-82894D01*
X-92106Y7106D02*
X-82894D01*
X-92106Y7894D02*
Y17106D01*
X-82894Y7894D02*
Y17106D01*
X-92106Y7894D02*
X-82894D01*
X-92106Y17106D02*
X-82894D01*
X-92106Y27894D02*
Y37106D01*
X-82894Y27894D02*
Y37106D01*
X-92106Y27894D02*
X-82894D01*
X-92106Y37106D02*
X-82894D01*
X-82106Y-22106D02*
Y-12894D01*
X-72894Y-22106D02*
Y-12894D01*
X-82106Y-22106D02*
X-72894D01*
X-82106Y-12894D02*
X-72894D01*
X-82106Y-2106D02*
Y7106D01*
X-72894Y-2106D02*
Y7106D01*
X-82106Y-2106D02*
X-72894D01*
X-82106Y7106D02*
X-72894D01*
X-82106Y7894D02*
Y17106D01*
X-72894Y7894D02*
Y17106D01*
X-82106Y7894D02*
X-72894D01*
X-82106Y17106D02*
X-72894D01*
X-82106Y17894D02*
Y27106D01*
X-72894Y17894D02*
Y27106D01*
X-82106Y17894D02*
X-72894D01*
X-82106Y27106D02*
X-72894D01*
X-82106Y27894D02*
Y37106D01*
X-72894Y27894D02*
Y37106D01*
X-82106Y27894D02*
X-72894D01*
X-82106Y37106D02*
X-72894D01*
X-72106Y-22106D02*
Y-12894D01*
X-62894Y-22106D02*
Y-12894D01*
X-72106Y-22106D02*
X-62894D01*
X-72106Y-12894D02*
X-62894D01*
X-72106Y-2106D02*
Y7106D01*
X-62894Y-2106D02*
Y7106D01*
X-72106Y-2106D02*
X-62894D01*
X-72106Y7106D02*
X-62894D01*
X-92106Y17894D02*
Y27106D01*
X-82894Y17894D02*
Y27106D01*
X-92106Y17894D02*
X-82894D01*
X-92106Y27106D02*
X-82894D01*
X-72106Y17894D02*
Y27106D01*
X-62894Y17894D02*
Y27106D01*
X-72106Y17894D02*
X-62894D01*
X-72106Y27106D02*
X-62894D01*
X-92106Y-12106D02*
Y-2894D01*
X-82894Y-12106D02*
Y-2894D01*
X-92106Y-12106D02*
X-82894D01*
X-92106Y-2894D02*
X-82894D01*
X-72106Y-12106D02*
Y-2894D01*
X-62894Y-12106D02*
Y-2894D01*
X-72106Y-12106D02*
X-62894D01*
X-72106Y-2894D02*
X-62894D01*
X-92106Y-42106D02*
Y-32894D01*
X-82894Y-42106D02*
Y-32894D01*
X-92106Y-42106D02*
X-82894D01*
X-92106Y-32894D02*
X-82894D01*
X-72106Y-42106D02*
Y-32894D01*
X-62894Y-42106D02*
Y-32894D01*
X-72106Y-42106D02*
X-62894D01*
X-72106Y-32894D02*
X-62894D01*
X-92106Y-72106D02*
Y-62894D01*
X-82894Y-72106D02*
Y-62894D01*
X-92106Y-72106D02*
X-82894D01*
X-92106Y-62894D02*
X-82894D01*
X-72106Y-72106D02*
Y-62894D01*
X-62894Y-72106D02*
Y-62894D01*
X-72106Y-72106D02*
X-62894D01*
X-72106Y-62894D02*
X-62894D01*
X-82106Y-92106D02*
Y-82894D01*
X-72894Y-92106D02*
Y-82894D01*
X-82106Y-92106D02*
X-72894D01*
X-82106Y-82894D02*
X-72894D01*
X82894Y-92106D02*
Y-82894D01*
X92106Y-92106D02*
Y-82894D01*
X82894Y-92106D02*
X92106D01*
X82894Y-82894D02*
X92106D01*
X62894Y-92106D02*
Y-82894D01*
X72106Y-92106D02*
Y-82894D01*
X62894Y-92106D02*
X72106D01*
X62894Y-82894D02*
X72106D01*
X82894Y-62106D02*
Y-52894D01*
X92106Y-62106D02*
Y-52894D01*
X82894Y-62106D02*
X92106D01*
X82894Y-52894D02*
X92106D01*
X62894Y-62106D02*
Y-52894D01*
X72106Y-62106D02*
Y-52894D01*
X62894Y-62106D02*
X72106D01*
X62894Y-52894D02*
X72106D01*
X82894Y-32106D02*
Y-22894D01*
X92106Y-32106D02*
Y-22894D01*
X82894Y-32106D02*
X92106D01*
X82894Y-22894D02*
X92106D01*
X62894Y-32106D02*
Y-22894D01*
X72106Y-32106D02*
Y-22894D01*
X62894Y-32106D02*
X72106D01*
X62894Y-22894D02*
X72106D01*
X82894Y-2106D02*
Y7106D01*
X92106Y-2106D02*
Y7106D01*
X82894Y-2106D02*
X92106D01*
X82894Y7106D02*
X92106D01*
X62894Y-2106D02*
Y7106D01*
X72106Y-2106D02*
Y7106D01*
X62894Y-2106D02*
X72106D01*
X62894Y7106D02*
X72106D01*
X82894Y27894D02*
Y37106D01*
X92106Y27894D02*
Y37106D01*
X82894Y27894D02*
X92106D01*
X82894Y37106D02*
X92106D01*
X62894Y27894D02*
Y37106D01*
X72106Y27894D02*
Y37106D01*
X62894Y27894D02*
X72106D01*
X62894Y37106D02*
X72106D01*
X-82106Y-12106D02*
Y-2894D01*
X-72894Y-12106D02*
Y-2894D01*
X-82106Y-12106D02*
X-72894D01*
X-82106Y-2894D02*
X-72894D01*
X-102106Y-92106D02*
Y-82894D01*
X-92894Y-92106D02*
Y-82894D01*
X-102106Y-92106D02*
X-92894D01*
X-102106Y-82894D02*
X-92894D01*
X62894Y-22106D02*
Y-12894D01*
X72106Y-22106D02*
Y-12894D01*
X62894Y-22106D02*
X72106D01*
X62894Y-12894D02*
X72106D01*
X-92106Y-92106D02*
Y-82894D01*
X-82894Y-92106D02*
Y-82894D01*
X-92106Y-92106D02*
X-82894D01*
X-92106Y-82894D02*
X-82894D01*
D11*
X-3543Y-100000D02*
X-394D01*
X-3543Y-94882D02*
X-394D01*
X-3347Y23031D02*
Y26181D01*
X-8465Y23031D02*
Y26181D01*
X39961Y-3248D02*
Y-689D01*
X34843Y-3248D02*
Y-689D01*
X59646Y-94095D02*
Y-90945D01*
X54527Y-94095D02*
Y-90945D01*
X100984Y93209D02*
Y95768D01*
X-44587Y87992D02*
X-42028D01*
X-95866Y93209D02*
Y95768D01*
X-100984Y93209D02*
Y95768D01*
X20276Y23327D02*
Y25886D01*
X26181Y23327D02*
Y25886D01*
X37992Y23327D02*
Y25886D01*
X95866Y93209D02*
Y95768D01*
X15157Y23327D02*
Y25886D01*
X95079Y93209D02*
Y95768D01*
X89961Y93209D02*
Y95768D01*
X14370Y23327D02*
Y25886D01*
X9252Y23327D02*
Y25886D01*
X8465Y23327D02*
Y25886D01*
X26280Y93110D02*
X28839D01*
X-44587D02*
X-42028D01*
X3346Y23327D02*
Y25886D01*
X26280Y87992D02*
X28839D01*
X21063Y23327D02*
Y25886D01*
X32874Y23327D02*
Y25886D01*
X32087Y23327D02*
Y25886D01*
X26969Y23327D02*
Y25886D01*
X-100984Y81398D02*
Y83957D01*
X-95866Y81398D02*
Y83957D01*
X4331Y-31890D02*
X7480D01*
X4331Y-37008D02*
X7480D01*
X82087Y92913D02*
Y96063D01*
X87205Y92913D02*
Y96063D01*
X76181Y92913D02*
Y96063D01*
X81299Y92913D02*
Y96063D01*
X70276Y92913D02*
Y96063D01*
X75394Y92913D02*
Y96063D01*
X64370Y92913D02*
Y96063D01*
X69488Y92913D02*
Y96063D01*
X58465Y92913D02*
Y96063D01*
X63583Y92913D02*
Y96063D01*
X87205Y81102D02*
Y84252D01*
X82087Y81102D02*
Y84252D01*
X81299Y81102D02*
Y84252D01*
X76181Y81102D02*
Y84252D01*
X75394Y81102D02*
Y84252D01*
X70276Y81102D02*
Y84252D01*
X69488Y81102D02*
Y84252D01*
X64370Y81102D02*
Y84252D01*
X63583Y81102D02*
Y84252D01*
X58465Y81102D02*
Y84252D01*
X-46850Y-76673D02*
X-43701D01*
X-46850Y-81791D02*
X-43701D01*
X-38976Y-56496D02*
X-35827D01*
X-38976Y-61614D02*
X-35827D01*
X-33071Y30118D02*
X-29921D01*
X-33071Y25000D02*
X-29921D01*
X-48819D02*
X-45669D01*
X-48819Y30118D02*
X-45669D01*
X6496Y63386D02*
Y66535D01*
X1378Y63386D02*
Y66535D01*
X14370Y63386D02*
Y66535D01*
X9252Y63386D02*
Y66535D01*
X-64370Y63386D02*
Y66535D01*
X-69488Y63386D02*
Y66535D01*
X-56496Y63386D02*
Y66535D01*
X-61614Y63386D02*
Y66535D01*
X-29134Y76181D02*
Y79331D01*
X-24016Y76181D02*
Y79331D01*
X17323Y8268D02*
Y11417D01*
X12205Y8268D02*
Y11417D01*
X4331Y4331D02*
X7480D01*
X4331Y9449D02*
X7480D01*
X4331Y10236D02*
X7480D01*
X4331Y15354D02*
X7480D01*
X17323Y-27165D02*
Y-24016D01*
X12205Y-27165D02*
Y-24016D01*
X4331Y-31102D02*
X7480D01*
X4331Y-25984D02*
X7480D01*
X4331Y-25197D02*
X7480D01*
X4331Y-20079D02*
X7480D01*
X17323Y-15354D02*
Y-12205D01*
X12205Y-15354D02*
Y-12205D01*
X4331Y-19291D02*
X7480D01*
X4331Y-14173D02*
X7480D01*
X4331Y-13386D02*
X7480D01*
X4331Y-8268D02*
X7480D01*
X17323Y-3543D02*
Y-394D01*
X12205Y-3543D02*
Y-394D01*
X4331Y-7480D02*
X7480D01*
X4331Y-2362D02*
X7480D01*
X4331Y-1575D02*
X7480D01*
X4331Y3543D02*
X7480D01*
X-42421Y-101378D02*
X-39272D01*
X-42421Y-96260D02*
X-39272D01*
X-35039Y-76673D02*
X-31890D01*
X-35039Y-81791D02*
X-31890D01*
X-36024Y-71949D02*
Y-68799D01*
X-30906Y-71949D02*
Y-68799D01*
X-47835Y-71949D02*
Y-68799D01*
X-42717Y-71949D02*
Y-68799D01*
X-24213Y-71949D02*
Y-68799D01*
X-19094Y-71949D02*
Y-68799D01*
X-30118Y-71949D02*
Y-68799D01*
X-25000Y-71949D02*
Y-68799D01*
X-17323Y93110D02*
X-14173D01*
X-17323Y87992D02*
X-14173D01*
X-88189Y93110D02*
X-85039D01*
X-88189Y87992D02*
X-85039D01*
X-33071Y37008D02*
X-29921D01*
X-33071Y31890D02*
X-29921D01*
X-48819Y37008D02*
X-45669D01*
X-48819Y31890D02*
X-45669D01*
X-35039Y76181D02*
Y79331D01*
X-29921Y76181D02*
Y79331D01*
X29134Y8268D02*
Y11417D01*
X24016Y8268D02*
Y11417D01*
X23228Y8268D02*
Y11417D01*
X18110Y8268D02*
Y11417D01*
X29134Y-27165D02*
Y-24016D01*
X24016Y-27165D02*
Y-24016D01*
X23228Y-27165D02*
Y-24016D01*
X18110Y-27165D02*
Y-24016D01*
X29134Y-15354D02*
Y-12205D01*
X24016Y-15354D02*
Y-12205D01*
X23228Y-15354D02*
Y-12205D01*
X18110Y-15354D02*
Y-12205D01*
X29134Y-3543D02*
Y-394D01*
X24016Y-3543D02*
Y-394D01*
X23228Y-3543D02*
Y-394D01*
X18110Y-3543D02*
Y-394D01*
X-30118Y-96260D02*
X-26969D01*
X-30118Y-101378D02*
X-26969D01*
X-54724D02*
X-51575D01*
X-54724Y-96260D02*
X-51575D01*
X-41929Y12402D02*
X-38780D01*
X-41929Y7283D02*
X-38780D01*
X-41929Y-71949D02*
Y-68799D01*
X-36811Y-71949D02*
Y-68799D01*
X-20276Y23031D02*
Y26181D01*
X-15157Y23031D02*
Y26181D01*
X-14370Y23031D02*
Y26181D01*
X-9252Y23031D02*
Y26181D01*
X-2559Y23031D02*
Y26181D01*
X2559Y23031D02*
Y26181D01*
X-3018Y-95867D02*
Y-99015D01*
X-1444D01*
X-919Y-98491D01*
Y-97441D01*
X-1444Y-96916D01*
X-3018D01*
X-1969D02*
X-919Y-95867D01*
X-7480Y23557D02*
X-4331D01*
Y25131D01*
X-4856Y25656D01*
X-5906D01*
X-6430Y25131D01*
Y23557D01*
Y24606D02*
X-7480Y25656D01*
X38976Y-919D02*
X35827D01*
Y-2493D01*
X36352Y-3018D01*
X37402D01*
X37926Y-2493D01*
Y-919D01*
Y-1969D02*
X38976Y-3018D01*
X58136Y-91470D02*
X58661Y-91995D01*
Y-93045D01*
X58136Y-93569D01*
X56037D01*
X55512Y-93045D01*
Y-91995D01*
X56037Y-91470D01*
X6955Y-35498D02*
X6430Y-36023D01*
X5381D01*
X4856Y-35498D01*
Y-33399D01*
X5381Y-32875D01*
X6430D01*
X6955Y-33399D01*
X85695Y95538D02*
X86220Y95013D01*
Y93963D01*
X85695Y93439D01*
X83596D01*
X83071Y93963D01*
Y95013D01*
X83596Y95538D01*
X79790Y95538D02*
X80314Y95013D01*
Y93963D01*
X79790Y93439D01*
X77691D01*
X77166Y93963D01*
Y95013D01*
X77691Y95538D01*
X73884Y95538D02*
X74409Y95013D01*
Y93963D01*
X73884Y93439D01*
X71785D01*
X71260Y93963D01*
Y95013D01*
X71785Y95538D01*
X67979Y95538D02*
X68503Y95013D01*
Y93963D01*
X67979Y93439D01*
X65880D01*
X65355Y93963D01*
Y95013D01*
X65880Y95538D01*
X62073Y95538D02*
X62598Y95013D01*
Y93963D01*
X62073Y93439D01*
X59974D01*
X59449Y93963D01*
Y95013D01*
X59974Y95538D01*
X83596Y81628D02*
X83071Y82152D01*
Y83202D01*
X83596Y83727D01*
X85695D01*
X86220Y83202D01*
Y82152D01*
X85695Y81628D01*
X77691Y81628D02*
X77166Y82152D01*
Y83202D01*
X77691Y83727D01*
X79790D01*
X80314Y83202D01*
Y82152D01*
X79790Y81628D01*
X71785Y81628D02*
X71260Y82152D01*
Y83202D01*
X71785Y83727D01*
X73884D01*
X74409Y83202D01*
Y82152D01*
X73884Y81628D01*
X65880Y81628D02*
X65355Y82152D01*
Y83202D01*
X65880Y83727D01*
X67979D01*
X68503Y83202D01*
Y82152D01*
X67979Y81628D01*
X59974Y81628D02*
X59449Y82152D01*
Y83202D01*
X59974Y83727D01*
X62073D01*
X62598Y83202D01*
Y82152D01*
X62073Y81628D01*
X-44226Y-80282D02*
X-44751Y-80807D01*
X-45800D01*
X-46325Y-80282D01*
Y-78183D01*
X-45800Y-77658D01*
X-44751D01*
X-44226Y-78183D01*
X-36352Y-60105D02*
X-36877Y-60629D01*
X-37926D01*
X-38451Y-60105D01*
Y-58006D01*
X-37926Y-57481D01*
X-36877D01*
X-36352Y-58006D01*
X-30447Y26509D02*
X-30971Y25985D01*
X-32021D01*
X-32546Y26509D01*
Y28609D01*
X-32021Y29133D01*
X-30971D01*
X-30447Y28609D01*
X-48294Y28609D02*
X-47769Y29133D01*
X-46719D01*
X-46194Y28609D01*
Y26509D01*
X-46719Y25985D01*
X-47769D01*
X-48294Y26509D01*
X2888Y63911D02*
X2363Y64436D01*
Y65485D01*
X2888Y66010D01*
X4986D01*
X5511Y65485D01*
Y64436D01*
X4986Y63911D01*
X10762Y63911D02*
X10237Y64436D01*
Y65485D01*
X10762Y66010D01*
X12860D01*
X13385Y65485D01*
Y64436D01*
X12860Y63911D01*
X-67979Y63911D02*
X-68503Y64436D01*
Y65485D01*
X-67979Y66010D01*
X-65880D01*
X-65355Y65485D01*
Y64436D01*
X-65880Y63911D01*
X-60105Y63911D02*
X-60629Y64436D01*
Y65485D01*
X-60105Y66010D01*
X-58006D01*
X-57481Y65485D01*
Y64436D01*
X-58006Y63911D01*
X-25525Y78805D02*
X-25001Y78281D01*
Y77231D01*
X-25525Y76706D01*
X-27624D01*
X-28149Y77231D01*
Y78281D01*
X-27624Y78805D01*
X13714Y8793D02*
X13190Y9318D01*
Y10367D01*
X13714Y10892D01*
X15813D01*
X16338Y10367D01*
Y9318D01*
X15813Y8793D01*
X4856Y7939D02*
X5381Y8464D01*
X6430D01*
X6955Y7939D01*
Y5840D01*
X6430Y5316D01*
X5381D01*
X4856Y5840D01*
X4856Y13845D02*
X5381Y14370D01*
X6430D01*
X6955Y13845D01*
Y11746D01*
X6430Y11221D01*
X5381D01*
X4856Y11746D01*
X13714Y-26640D02*
X13190Y-26115D01*
Y-25066D01*
X13714Y-24541D01*
X15813D01*
X16338Y-25066D01*
Y-26115D01*
X15813Y-26640D01*
X4856Y-27494D02*
X5381Y-26969D01*
X6430D01*
X6955Y-27494D01*
Y-29593D01*
X6430Y-30118D01*
X5381D01*
X4856Y-29593D01*
X4856Y-21588D02*
X5381Y-21064D01*
X6430D01*
X6955Y-21588D01*
Y-23687D01*
X6430Y-24212D01*
X5381D01*
X4856Y-23687D01*
X13714Y-14829D02*
X13190Y-14304D01*
Y-13255D01*
X13714Y-12730D01*
X15813D01*
X16338Y-13255D01*
Y-14304D01*
X15813Y-14829D01*
X4856Y-15683D02*
X5381Y-15158D01*
X6430D01*
X6955Y-15683D01*
Y-17782D01*
X6430Y-18307D01*
X5381D01*
X4856Y-17782D01*
Y-9777D02*
X5381Y-9252D01*
X6430D01*
X6955Y-9777D01*
Y-11876D01*
X6430Y-12401D01*
X5381D01*
X4856Y-11876D01*
X13714Y-3018D02*
X13190Y-2493D01*
Y-1444D01*
X13714Y-919D01*
X15813D01*
X16338Y-1444D01*
Y-2493D01*
X15813Y-3018D01*
X4856Y-3872D02*
X5381Y-3347D01*
X6430D01*
X6955Y-3872D01*
Y-5971D01*
X6430Y-6496D01*
X5381D01*
X4856Y-5971D01*
X4856Y2034D02*
X5381Y2558D01*
X6430D01*
X6955Y2034D01*
Y-65D01*
X6430Y-590D01*
X5381D01*
X4856Y-65D01*
X-41896Y-97769D02*
X-41371Y-97245D01*
X-40322D01*
X-39797Y-97769D01*
Y-99868D01*
X-40322Y-100393D01*
X-41371D01*
X-41896Y-99868D01*
X-32415Y-80282D02*
X-32940Y-80807D01*
X-33989D01*
X-34514Y-80282D01*
Y-78183D01*
X-33989Y-77658D01*
X-32940D01*
X-32415Y-78183D01*
X-25984Y-27658D02*
X-25787Y-27461D01*
X-25394D01*
X-25197Y-27658D01*
Y-28445D01*
X-25394Y-28642D01*
X-25787D01*
X-25984Y-28445D01*
X-33366Y-29921D02*
X-33563Y-29724D01*
Y-29331D01*
X-33366Y-29134D01*
X-32579D01*
X-32382Y-29331D01*
Y-29724D01*
X-32579Y-29921D01*
X-40453Y-18799D02*
X-40256Y-18996D01*
Y-19390D01*
X-40453Y-19587D01*
X-41240D01*
X-41437Y-19390D01*
Y-18996D01*
X-41240Y-18799D01*
X-35039Y4528D02*
X-35236Y4331D01*
X-35630D01*
X-35827Y4528D01*
Y5315D01*
X-35630Y5512D01*
X-35236D01*
X-35039Y5315D01*
X-40453Y-12402D02*
X-40256Y-12598D01*
Y-12992D01*
X-40453Y-13189D01*
X-41240D01*
X-41437Y-12992D01*
Y-12598D01*
X-41240Y-12402D01*
X-13386Y-6791D02*
X-13583Y-6988D01*
X-13976D01*
X-14173Y-6791D01*
Y-6004D01*
X-13976Y-5807D01*
X-13583D01*
X-13386Y-6004D01*
X-43701Y-25689D02*
X-43504Y-25492D01*
X-43110D01*
X-42913Y-25689D01*
Y-26476D01*
X-43110Y-26673D01*
X-43504D01*
X-43701Y-26476D01*
X-45374Y-21260D02*
X-45177Y-21457D01*
Y-21850D01*
X-45374Y-22047D01*
X-46161D01*
X-46358Y-21850D01*
Y-21457D01*
X-46161Y-21260D01*
X-25984Y-30610D02*
X-25787Y-30414D01*
X-25394D01*
X-25197Y-30610D01*
Y-31398D01*
X-25394Y-31594D01*
X-25787D01*
X-25984Y-31398D01*
X-35335Y-12205D02*
X-35531Y-12008D01*
Y-11614D01*
X-35335Y-11417D01*
X-34547D01*
X-34351Y-11614D01*
Y-12008D01*
X-34547Y-12205D01*
X-35335Y-18110D02*
X-35531Y-17913D01*
Y-17520D01*
X-35335Y-17323D01*
X-34547D01*
X-34351Y-17520D01*
Y-17913D01*
X-34547Y-18110D01*
X-26181Y-23524D02*
X-26378Y-23720D01*
X-26772D01*
X-26968Y-23524D01*
Y-22736D01*
X-26772Y-22540D01*
X-26378D01*
X-26181Y-22736D01*
X-32874Y-18110D02*
X-33071Y-17913D01*
Y-17520D01*
X-32874Y-17323D01*
X-32087D01*
X-31890Y-17520D01*
Y-17913D01*
X-32087Y-18110D01*
X-32874Y-12205D02*
X-33071Y-12008D01*
Y-11614D01*
X-32874Y-11417D01*
X-32087D01*
X-31890Y-11614D01*
Y-12008D01*
X-32087Y-12205D01*
X-26476Y-394D02*
X-26673Y-197D01*
Y197D01*
X-26476Y394D01*
X-25689D01*
X-25492Y197D01*
Y-197D01*
X-25689Y-394D01*
X-30413Y-12205D02*
X-30610Y-12008D01*
Y-11614D01*
X-30413Y-11417D01*
X-29626D01*
X-29429Y-11614D01*
Y-12008D01*
X-29626Y-12205D01*
X-14173Y-30610D02*
X-13976Y-30414D01*
X-13583D01*
X-13386Y-30610D01*
Y-31398D01*
X-13583Y-31594D01*
X-13976D01*
X-14173Y-31398D01*
X-27953Y-12205D02*
X-28149Y-12008D01*
Y-11614D01*
X-27953Y-11417D01*
X-27165D01*
X-26969Y-11614D01*
Y-12008D01*
X-27165Y-12205D01*
X-25492D02*
X-25689Y-12008D01*
Y-11614D01*
X-25492Y-11417D01*
X-24705D01*
X-24508Y-11614D01*
Y-12008D01*
X-24705Y-12205D01*
X-17618Y-394D02*
X-17815Y-197D01*
Y197D01*
X-17618Y394D01*
X-16831D01*
X-16634Y197D01*
Y-197D01*
X-16831Y-394D01*
X-21752Y-11417D02*
X-21555Y-11614D01*
Y-12008D01*
X-21752Y-12205D01*
X-22539D01*
X-22736Y-12008D01*
Y-11614D01*
X-22539Y-11417D01*
X-14173Y-14862D02*
X-13976Y-14666D01*
X-13583D01*
X-13386Y-14862D01*
Y-15650D01*
X-13583Y-15846D01*
X-13976D01*
X-14173Y-15650D01*
X-27953Y-18307D02*
X-27756Y-18110D01*
X-27362D01*
X-27165Y-18307D01*
Y-19094D01*
X-27362Y-19291D01*
X-27756D01*
X-27953Y-19094D01*
X-23524Y-394D02*
X-23720Y-197D01*
Y197D01*
X-23524Y394D01*
X-22736D01*
X-22539Y197D01*
Y-197D01*
X-22736Y-394D01*
X-14173Y-27658D02*
X-13976Y-27461D01*
X-13583D01*
X-13386Y-27658D01*
Y-28445D01*
X-13583Y-28642D01*
X-13976D01*
X-14173Y-28445D01*
X-23031Y-19094D02*
X-23228Y-18898D01*
Y-18504D01*
X-23031Y-18307D01*
X-22244D01*
X-22047Y-18504D01*
Y-18898D01*
X-22244Y-19094D01*
X-14173Y-17815D02*
X-13976Y-17618D01*
X-13583D01*
X-13386Y-17815D01*
Y-18602D01*
X-13583Y-18799D01*
X-13976D01*
X-14173Y-18602D01*
Y-20276D02*
X-13976Y-20079D01*
X-13583D01*
X-13386Y-20276D01*
Y-21063D01*
X-13583Y-21260D01*
X-13976D01*
X-14173Y-21063D01*
Y-11910D02*
X-13976Y-11713D01*
X-13583D01*
X-13386Y-11910D01*
Y-12697D01*
X-13583Y-12893D01*
X-13976D01*
X-14173Y-12697D01*
X-1870Y-7283D02*
X-2067Y-7086D01*
Y-6693D01*
X-1870Y-6496D01*
X-1083D01*
X-886Y-6693D01*
Y-7086D01*
X-1083Y-7283D01*
X-7480Y-4823D02*
X-7677Y-5020D01*
X-8071D01*
X-8268Y-4823D01*
Y-4036D01*
X-8071Y-3839D01*
X-7677D01*
X-7480Y-4036D01*
X-1870Y-13189D02*
X-2067Y-12992D01*
Y-12598D01*
X-1870Y-12402D01*
X-1083D01*
X-886Y-12598D01*
Y-12992D01*
X-1083Y-13189D01*
X-1083Y-18307D02*
X-886Y-18504D01*
Y-18898D01*
X-1083Y-19094D01*
X-1870D01*
X-2067Y-18898D01*
Y-18504D01*
X-1870Y-18307D01*
X-20571Y-394D02*
X-20767Y-197D01*
Y197D01*
X-20571Y394D01*
X-19784D01*
X-19587Y197D01*
Y-197D01*
X-19784Y-394D01*
X-23524Y-6496D02*
X-23327Y-6299D01*
X-22933D01*
X-22736Y-6496D01*
Y-7283D01*
X-22933Y-7480D01*
X-23327D01*
X-23524Y-7283D01*
X-38287Y-13189D02*
X-38484Y-12992D01*
Y-12598D01*
X-38287Y-12402D01*
X-37500D01*
X-37303Y-12598D01*
Y-12992D01*
X-37500Y-13189D01*
X-42913Y-31398D02*
X-43110Y-31594D01*
X-43504D01*
X-43701Y-31398D01*
Y-30610D01*
X-43504Y-30413D01*
X-43110D01*
X-42913Y-30610D01*
X-35532Y-29134D02*
X-35335Y-29331D01*
Y-29724D01*
X-35532Y-29921D01*
X-36319D01*
X-36516Y-29724D01*
Y-29331D01*
X-36319Y-29134D01*
X-39272Y-29921D02*
X-39468Y-29724D01*
Y-29331D01*
X-39272Y-29134D01*
X-38484D01*
X-38288Y-29331D01*
Y-29724D01*
X-38484Y-29921D01*
X-14173Y-8957D02*
X-13976Y-8760D01*
X-13583D01*
X-13386Y-8957D01*
Y-9744D01*
X-13583Y-9941D01*
X-13976D01*
X-14173Y-9744D01*
X-42224Y1575D02*
X-42421Y1772D01*
Y2165D01*
X-42224Y2362D01*
X-41437D01*
X-41240Y2165D01*
Y1772D01*
X-41437Y1575D01*
X-18110Y-23721D02*
X-17913Y-23524D01*
X-17520D01*
X-17323Y-23721D01*
Y-24508D01*
X-17520Y-24704D01*
X-17913D01*
X-18110Y-24508D01*
X-42913Y-29429D02*
X-43110Y-29626D01*
X-43504D01*
X-43701Y-29429D01*
Y-28642D01*
X-43504Y-28445D01*
X-43110D01*
X-42913Y-28642D01*
X-29429Y-394D02*
X-29626Y-197D01*
Y197D01*
X-29429Y394D01*
X-28642D01*
X-28445Y197D01*
Y-197D01*
X-28642Y-394D01*
X-32382D02*
X-32579Y-197D01*
Y197D01*
X-32382Y394D01*
X-31595D01*
X-31398Y197D01*
Y-197D01*
X-31595Y-394D01*
X-35039Y-71424D02*
X-31890D01*
Y-69849D01*
X-32415Y-69324D01*
X-33465D01*
X-33989Y-69849D01*
Y-71424D01*
Y-70374D02*
X-35039Y-69324D01*
X-46850Y-71424D02*
X-43701D01*
Y-69849D01*
X-44226Y-69324D01*
X-45276D01*
X-45800Y-69849D01*
Y-71424D01*
Y-70374D02*
X-46850Y-69324D01*
X-23228Y-71424D02*
X-20079D01*
Y-69849D01*
X-20604Y-69324D01*
X-21654D01*
X-22178Y-69849D01*
Y-71424D01*
Y-70374D02*
X-23228Y-69324D01*
X-29133Y-71424D02*
X-25985D01*
Y-69849D01*
X-26509Y-69324D01*
X-27559D01*
X-28084Y-69849D01*
Y-71424D01*
Y-70374D02*
X-29133Y-69324D01*
X-16798Y92125D02*
Y88977D01*
X-15223D01*
X-14698Y89502D01*
Y90551D01*
X-15223Y91076D01*
X-16798D01*
X-15748D02*
X-14698Y92125D01*
X-87664D02*
Y88977D01*
X-86089D01*
X-85565Y89502D01*
Y90551D01*
X-86089Y91076D01*
X-87664D01*
X-86614D02*
X-85565Y92125D01*
X-32546Y36023D02*
Y32875D01*
X-30971D01*
X-30447Y33399D01*
Y34449D01*
X-30971Y34974D01*
X-32546D01*
X-31496D02*
X-30447Y36023D01*
X-48294D02*
Y32875D01*
X-46719D01*
X-46195Y33399D01*
Y34449D01*
X-46719Y34974D01*
X-48294D01*
X-47244D02*
X-46195Y36023D01*
X-34055Y76706D02*
X-30906D01*
Y78281D01*
X-31431Y78805D01*
X-32480D01*
X-33005Y78281D01*
Y76706D01*
Y77756D02*
X-34055Y78805D01*
X28149Y10892D02*
X25001D01*
Y9318D01*
X25525Y8793D01*
X26575D01*
X27100Y9318D01*
Y10892D01*
Y9843D02*
X28149Y8793D01*
X22244Y10892D02*
X19095D01*
Y9318D01*
X19620Y8793D01*
X20669D01*
X21194Y9318D01*
Y10892D01*
Y9843D02*
X22244Y8793D01*
X28149Y-24541D02*
X25001D01*
Y-26115D01*
X25525Y-26640D01*
X26575D01*
X27100Y-26115D01*
Y-24541D01*
Y-25591D02*
X28149Y-26640D01*
X22244Y-24541D02*
X19095D01*
Y-26115D01*
X19620Y-26640D01*
X20669D01*
X21194Y-26115D01*
Y-24541D01*
Y-25591D02*
X22244Y-26640D01*
X28149Y-12730D02*
X25001D01*
Y-14304D01*
X25525Y-14829D01*
X26575D01*
X27100Y-14304D01*
Y-12730D01*
Y-13780D02*
X28149Y-14829D01*
X22244Y-12730D02*
X19095D01*
Y-14304D01*
X19620Y-14829D01*
X20669D01*
X21194Y-14304D01*
Y-12730D01*
Y-13780D02*
X22244Y-14829D01*
X28149Y-919D02*
X25001D01*
Y-2493D01*
X25525Y-3018D01*
X26575D01*
X27100Y-2493D01*
Y-919D01*
Y-1969D02*
X28149Y-3018D01*
X22244Y-919D02*
X19095D01*
Y-2493D01*
X19620Y-3018D01*
X20669D01*
X21194Y-2493D01*
Y-919D01*
Y-1969D02*
X22244Y-3018D01*
X-29593Y-97245D02*
Y-100393D01*
X-28019D01*
X-27494Y-99869D01*
Y-98819D01*
X-28019Y-98294D01*
X-29593D01*
X-28543D02*
X-27494Y-97245D01*
X-52100Y-100393D02*
Y-97245D01*
X-53674D01*
X-54199Y-97769D01*
Y-98819D01*
X-53674Y-99344D01*
X-52100D01*
X-53150D02*
X-54199Y-100393D01*
X94094Y95538D02*
X90945D01*
Y93963D01*
X91470Y93439D01*
X92520D01*
X93044Y93963D01*
Y95538D01*
Y94488D02*
X94094Y93439D01*
X-41404Y11417D02*
Y8268D01*
X-39830D01*
X-39305Y8793D01*
Y9843D01*
X-39830Y10367D01*
X-41404D01*
X-40354D02*
X-39305Y11417D01*
X-40944Y-71424D02*
X-37796D01*
Y-69849D01*
X-38320Y-69324D01*
X-39370D01*
X-39895Y-69849D01*
Y-71424D01*
Y-70374D02*
X-40944Y-69324D01*
X-19291Y23557D02*
X-16142D01*
Y25131D01*
X-16667Y25656D01*
X-17717D01*
X-18241Y25131D01*
Y23557D01*
Y24606D02*
X-19291Y25656D01*
X-13385Y23557D02*
X-10237D01*
Y25131D01*
X-10762Y25656D01*
X-11811D01*
X-12336Y25131D01*
Y23557D01*
Y24606D02*
X-13385Y25656D01*
X-1574Y23557D02*
X1574D01*
Y25131D01*
X1049Y25656D01*
X0D01*
X-525Y25131D01*
Y23557D01*
Y24606D02*
X-1574Y25656D01*
X13385Y25656D02*
X10237D01*
Y24082D01*
X10761Y23557D01*
X11811D01*
X12336Y24082D01*
Y25656D01*
Y24606D02*
X13385Y23557D01*
X7480Y25656D02*
X4331D01*
Y24081D01*
X4856Y23557D01*
X5906D01*
X6430Y24081D01*
Y25656D01*
Y24606D02*
X7480Y23557D01*
X25196Y25656D02*
X22048D01*
Y24082D01*
X22572Y23557D01*
X23622D01*
X24147Y24082D01*
Y25656D01*
Y24606D02*
X25196Y23557D01*
X19291Y25656D02*
X16142D01*
Y24082D01*
X16667Y23557D01*
X17717D01*
X18241Y24082D01*
Y25656D01*
Y24606D02*
X19291Y23557D01*
X37007Y25656D02*
X33859D01*
Y24082D01*
X34383Y23557D01*
X35433D01*
X35958Y24082D01*
Y25656D01*
Y24606D02*
X37007Y23557D01*
X31102Y25656D02*
X27953D01*
Y24081D01*
X28478Y23557D01*
X29528D01*
X30052Y24081D01*
Y25656D01*
Y24606D02*
X31102Y23557D01*
X-99999Y81628D02*
X-96851D01*
Y83202D01*
X-97376Y83727D01*
X-98425D01*
X-98950Y83202D01*
Y81628D01*
Y82677D02*
X-99999Y83727D01*
X26509Y92125D02*
Y88977D01*
X28084D01*
X28609Y89502D01*
Y90551D01*
X28084Y91076D01*
X26509D01*
X27559D02*
X28609Y92125D01*
X-44357D02*
Y88977D01*
X-42782D01*
X-42258Y89502D01*
Y90551D01*
X-42782Y91076D01*
X-44357D01*
X-43307D02*
X-42258Y92125D01*
X-24016Y10925D02*
Y9744D01*
X-23425D01*
X-23228Y9941D01*
Y10335D01*
X-23425Y10531D01*
X-24016D01*
X-23622D02*
X-23228Y10925D01*
X-19095Y15650D02*
X-20275D01*
Y15059D01*
X-20079Y14862D01*
X-19685D01*
X-19488Y15059D01*
Y15650D01*
Y15256D02*
X-19095Y14862D01*
X-6299Y-19291D02*
X-7480D01*
Y-19882D01*
X-7283Y-20079D01*
X-6890D01*
X-6693Y-19882D01*
Y-19291D01*
Y-19685D02*
X-6299Y-20079D01*
X-8268Y-6792D02*
Y-7972D01*
X-7677D01*
X-7480Y-7775D01*
Y-7382D01*
X-7677Y-7185D01*
X-8268D01*
X-7874D02*
X-7480Y-6792D01*
X17815Y-92126D02*
X16634D01*
Y-92716D01*
X16831Y-92913D01*
X17224D01*
X17421Y-92716D01*
Y-92126D01*
Y-92520D02*
X17815Y-92913D01*
X99999Y95275D02*
X98425Y93701D01*
X96851Y95275D01*
X-96851D02*
X-98425Y93701D01*
X-99999Y95275D01*
M02*
