G04*
G04 #@! TF.GenerationSoftware,Altium Limited,Altium Designer,24.5.2 (23)*
G04*
G04 Layer_Physical_Order=4*
G04 Layer_Color=6710886*
%FSLAX25Y25*%
%MOIN*%
G70*
G04*
G04 #@! TF.SameCoordinates,6DF05ACD-99E5-4A60-94F4-888D25E85DCD*
G04*
G04*
G04 #@! TF.FilePolarity,Negative*
G04*
G01*
G75*
%ADD68C,0.04000*%
%ADD69C,0.13583*%
%ADD70C,0.07205*%
%ADD71C,0.04803*%
%ADD72C,0.04291*%
%ADD73C,0.04724*%
%ADD74C,0.04331*%
%ADD75C,0.09843*%
%ADD76C,0.06299*%
%ADD77C,0.01575*%
D68*
X-102362Y-102362D02*
X102362D01*
Y102362D01*
X-102362D02*
X102362D01*
X-102362Y-102362D02*
Y102362D01*
D69*
X-78740Y-42461D02*
D03*
Y-87461D02*
D03*
Y-16594D02*
D03*
Y28405D02*
D03*
D70*
X-66732Y-34468D02*
D03*
Y-95453D02*
D03*
Y-24587D02*
D03*
Y36398D02*
D03*
D71*
X-98032Y-91043D02*
D03*
Y-38878D02*
D03*
X-43740Y-52461D02*
D03*
X-53740Y-57461D02*
D03*
X-43740Y-62461D02*
D03*
X-53740Y-67461D02*
D03*
X-43740Y-72461D02*
D03*
X-53740Y-77461D02*
D03*
X-43740Y-82461D02*
D03*
Y-11594D02*
D03*
X-53740Y-6594D02*
D03*
X-43740Y-1595D02*
D03*
X-53740Y3405D02*
D03*
X-43740Y8405D02*
D03*
X-53740Y13406D02*
D03*
X-43740Y18406D02*
D03*
X-98032Y31988D02*
D03*
Y-20177D02*
D03*
D72*
X-53740Y-47461D02*
D03*
Y23405D02*
D03*
D73*
X-32500Y-97500D02*
D03*
Y-77500D02*
D03*
Y-67500D02*
D03*
Y-87500D02*
D03*
X-22500Y-77500D02*
D03*
Y-97500D02*
D03*
X-12500Y-87500D02*
D03*
Y-77500D02*
D03*
Y-67500D02*
D03*
Y-97500D02*
D03*
X-2500Y-87500D02*
D03*
Y-77500D02*
D03*
Y-67500D02*
D03*
X-42500Y57500D02*
D03*
X-32500D02*
D03*
X-42500Y67500D02*
D03*
Y87500D02*
D03*
Y97500D02*
D03*
Y77500D02*
D03*
X-32500Y97500D02*
D03*
Y77500D02*
D03*
X-22500Y57500D02*
D03*
Y67500D02*
D03*
Y77500D02*
D03*
Y87500D02*
D03*
Y97500D02*
D03*
X-12500Y57500D02*
D03*
Y67500D02*
D03*
Y87500D02*
D03*
Y77500D02*
D03*
Y97500D02*
D03*
X-2500Y57500D02*
D03*
Y-97500D02*
D03*
X7500D02*
D03*
Y-77500D02*
D03*
X17500Y-97500D02*
D03*
Y-87500D02*
D03*
Y-77500D02*
D03*
X27500D02*
D03*
X17500Y-67500D02*
D03*
X27500Y-97500D02*
D03*
X47500D02*
D03*
X37500D02*
D03*
X27500Y-87500D02*
D03*
X47500D02*
D03*
Y-77500D02*
D03*
X37500D02*
D03*
X27500Y-67500D02*
D03*
X47500D02*
D03*
X57500Y-97500D02*
D03*
X67500D02*
D03*
X77500D02*
D03*
X87500D02*
D03*
X97500D02*
D03*
X57500Y-87500D02*
D03*
X77500D02*
D03*
X87500D02*
D03*
X97500D02*
D03*
X57500Y-77500D02*
D03*
X77500D02*
D03*
X67500D02*
D03*
X97500D02*
D03*
X57500Y-67500D02*
D03*
X77500D02*
D03*
X87500D02*
D03*
X97500D02*
D03*
X7500Y57500D02*
D03*
Y67500D02*
D03*
X-2500Y77500D02*
D03*
X7500D02*
D03*
Y87500D02*
D03*
X-2500Y97500D02*
D03*
X7500D02*
D03*
X17500Y67500D02*
D03*
X27500Y77500D02*
D03*
X17500D02*
D03*
Y87500D02*
D03*
Y97500D02*
D03*
X27500D02*
D03*
X87500Y7500D02*
D03*
X97500D02*
D03*
X87500Y17500D02*
D03*
Y27500D02*
D03*
X97500D02*
D03*
X87500Y37500D02*
D03*
X37500Y67500D02*
D03*
X47500D02*
D03*
X67500D02*
D03*
X47500Y77500D02*
D03*
X37500D02*
D03*
X57500D02*
D03*
X67500D02*
D03*
X77500D02*
D03*
X37500Y87500D02*
D03*
X47500D02*
D03*
X67500D02*
D03*
X47500Y97500D02*
D03*
X37500D02*
D03*
X57500D02*
D03*
X67500D02*
D03*
X87500Y47500D02*
D03*
X97500D02*
D03*
X77500Y67500D02*
D03*
X97500D02*
D03*
X87500Y77500D02*
D03*
X97500D02*
D03*
X77500Y87500D02*
D03*
X97500D02*
D03*
X77500Y97500D02*
D03*
X87500D02*
D03*
X97500D02*
D03*
D74*
X-57087Y82677D02*
D03*
Y72835D02*
D03*
Y64961D02*
D03*
X-67402Y82677D02*
D03*
Y72835D02*
D03*
Y64961D02*
D03*
D75*
X-55709Y94764D02*
D03*
Y43031D02*
D03*
X-78071D02*
D03*
Y94764D02*
D03*
D76*
X70866Y-51181D02*
D03*
Y-11811D02*
D03*
D77*
X-73819Y5906D02*
D03*
X-38386Y-13780D02*
D03*
X-68898Y-45276D02*
D03*
X-45276Y-25591D02*
D03*
X37402Y32480D02*
D03*
X33465Y-1969D02*
D03*
X31496D02*
D03*
X-20669Y-59055D02*
D03*
X-16732Y-51673D02*
D03*
X-19685Y49213D02*
D03*
X-31988Y46260D02*
D03*
X-19685Y38386D02*
D03*
X-13780Y49213D02*
D03*
X3937D02*
D03*
X-1969D02*
D03*
X-7874D02*
D03*
X-27559Y51181D02*
D03*
X-24606D02*
D03*
X3937Y38386D02*
D03*
X-1969D02*
D03*
X-7874D02*
D03*
X-13780D02*
D03*
X-25591D02*
D03*
X-39370Y51181D02*
D03*
X-36417D02*
D03*
X-33465D02*
D03*
X-30512D02*
D03*
X17717Y43307D02*
D03*
X9843D02*
D03*
X-5906Y20669D02*
D03*
X-98425Y-98425D02*
D03*
Y98425D02*
D03*
X-29528Y-19685D02*
D03*
Y-13780D02*
D03*
Y-1969D02*
D03*
Y-7874D02*
D03*
X-23622Y-19685D02*
D03*
Y-5906D02*
D03*
X-17717Y-10827D02*
D03*
X-15748D02*
D03*
X-17717Y-984D02*
D03*
X-15748Y-2461D02*
D03*
X-68898Y-49213D02*
D03*
X21250Y-90000D02*
D03*
X69882Y-37402D02*
D03*
Y-35433D02*
D03*
X74803Y-15748D02*
D03*
X-42323Y-31496D02*
D03*
Y-38386D02*
D03*
X22500Y-97500D02*
D03*
X31875Y-86250D02*
D03*
X69882Y-46260D02*
D03*
X88583Y-49213D02*
D03*
X52165Y-57087D02*
D03*
X48228D02*
D03*
X82677Y-58071D02*
D03*
X98917Y-36909D02*
D03*
X72500Y96250D02*
D03*
X43750Y81250D02*
D03*
X23750Y92500D02*
D03*
X-68898Y-15748D02*
D03*
X33465Y22638D02*
D03*
X31496Y16732D02*
D03*
Y14764D02*
D03*
X29528Y16732D02*
D03*
Y14764D02*
D03*
Y12795D02*
D03*
X74803Y20669D02*
D03*
Y18701D02*
D03*
Y57087D02*
D03*
X75787Y60039D02*
D03*
X48720Y59055D02*
D03*
X2500Y95000D02*
D03*
X54626Y60532D02*
D03*
X58071Y62008D02*
D03*
X59547Y63484D02*
D03*
X15000Y71250D02*
D03*
X80709Y61516D02*
D03*
X61250Y85000D02*
D03*
X62500Y87500D02*
D03*
X81201Y46260D02*
D03*
X80709Y50197D02*
D03*
X91875Y-93750D02*
D03*
Y-90000D02*
D03*
X39370Y-21654D02*
D03*
X37402Y-57087D02*
D03*
X33465D02*
D03*
X29528D02*
D03*
X25591D02*
D03*
X80709Y54167D02*
D03*
X85630Y-20669D02*
D03*
Y-12795D02*
D03*
Y-8858D02*
D03*
X74803Y-3937D02*
D03*
Y-7874D02*
D03*
X-11319Y-20177D02*
D03*
X-13287Y-19685D02*
D03*
X7874Y-31496D02*
D03*
X0Y-35433D02*
D03*
X1969Y-29528D02*
D03*
X29528D02*
D03*
X69390Y-27067D02*
D03*
Y-23130D02*
D03*
Y-19193D02*
D03*
X98917Y-32480D02*
D03*
Y-24606D02*
D03*
X29528Y18701D02*
D03*
X-7874Y2953D02*
D03*
X74803Y12795D02*
D03*
Y14764D02*
D03*
Y16732D02*
D03*
X83661Y56102D02*
D03*
Y50197D02*
D03*
X26250Y-83125D02*
D03*
X18750Y-82500D02*
D03*
Y-72500D02*
D03*
X-17500Y-73750D02*
D03*
X-34449Y-52658D02*
D03*
X-27559Y-54134D02*
D03*
X-25591D02*
D03*
X-23622Y-53051D02*
D03*
X-42323Y-44291D02*
D03*
X-34449Y-36909D02*
D03*
X-31004Y-24606D02*
D03*
Y-39862D02*
D03*
X-29035Y-41831D02*
D03*
Y-26083D02*
D03*
X-27559Y-38386D02*
D03*
X-25591Y-40354D02*
D03*
Y-24606D02*
D03*
Y-38386D02*
D03*
X-23622Y-37303D02*
D03*
Y-24606D02*
D03*
X-21654Y-54134D02*
D03*
X-18750Y-71250D02*
D03*
X-15256Y-50197D02*
D03*
X-13287Y-49213D02*
D03*
X-12303Y-58563D02*
D03*
X-7874Y-53150D02*
D03*
X-4429Y-60039D02*
D03*
X-3445Y-47244D02*
D03*
X-23622Y-42323D02*
D03*
X-21654Y-38386D02*
D03*
X-19931Y-40600D02*
D03*
X-16732Y-35433D02*
D03*
Y-33465D02*
D03*
X-16240Y-26575D02*
D03*
X-15734Y-29528D02*
D03*
X-14764Y-44783D02*
D03*
X-14272Y-42815D02*
D03*
X-13287Y-25591D02*
D03*
X-9843Y-39370D02*
D03*
Y-41339D02*
D03*
X-7874Y-23622D02*
D03*
X-5906Y-41339D02*
D03*
Y-23622D02*
D03*
Y-21654D02*
D03*
X-3937Y-39370D02*
D03*
X-98425Y61024D02*
D03*
X-78740D02*
D03*
X-98425Y66929D02*
D03*
Y84646D02*
D03*
Y72835D02*
D03*
Y78740D02*
D03*
X-78740Y66929D02*
D03*
Y72835D02*
D03*
Y84646D02*
D03*
Y78740D02*
D03*
X-13780Y-10827D02*
D03*
Y-14764D02*
D03*
X-9843Y984D02*
D03*
X-7874Y-19685D02*
D03*
X-3937Y-5906D02*
D03*
Y-3937D02*
D03*
X-13780Y20669D02*
D03*
X-11811Y984D02*
D03*
Y2953D02*
D03*
X-9843D02*
D03*
X-9843Y20630D02*
D03*
Y25591D02*
D03*
X-7874Y984D02*
D03*
X-5906Y14764D02*
D03*
Y26575D02*
D03*
X11319Y-64961D02*
D03*
X9356Y-63478D02*
D03*
X7382Y-62992D02*
D03*
X-492Y-60039D02*
D03*
X11319Y-58563D02*
D03*
Y-54626D02*
D03*
X1969Y-47244D02*
D03*
X0D02*
D03*
X1969Y-45276D02*
D03*
X0D02*
D03*
X9843D02*
D03*
X1969Y-43307D02*
D03*
X3937D02*
D03*
X9843D02*
D03*
X3937Y-41339D02*
D03*
X5906D02*
D03*
X7874D02*
D03*
X3937Y-39370D02*
D03*
X0D02*
D03*
X1969Y-37402D02*
D03*
X12303Y-67421D02*
D03*
X13780Y-47244D02*
D03*
X13780Y-45276D02*
D03*
X17717D02*
D03*
X11811Y-43307D02*
D03*
X15748D02*
D03*
X21654D02*
D03*
X13780Y-43307D02*
D03*
X17717D02*
D03*
X19685D02*
D03*
X13780Y-41339D02*
D03*
X23622Y-39370D02*
D03*
X13780Y-37402D02*
D03*
X0D02*
D03*
X7874D02*
D03*
X5906Y-35433D02*
D03*
X13780D02*
D03*
Y-33465D02*
D03*
X5906Y-31496D02*
D03*
X3937D02*
D03*
X13780Y-29528D02*
D03*
X3937Y-25591D02*
D03*
X13780D02*
D03*
X1969Y-23622D02*
D03*
X7874Y-23622D02*
D03*
X3937Y-21654D02*
D03*
X9843D02*
D03*
X3937Y-19685D02*
D03*
X9843D02*
D03*
X5906Y-17717D02*
D03*
X15748Y-37402D02*
D03*
X19685D02*
D03*
X21654D02*
D03*
Y-35433D02*
D03*
X23622D02*
D03*
X25591D02*
D03*
X23622Y-31496D02*
D03*
X25591D02*
D03*
X19685Y-29528D02*
D03*
X25591D02*
D03*
X15748Y-27559D02*
D03*
X23622Y-25591D02*
D03*
X25591D02*
D03*
X23622Y-23622D02*
D03*
X19685D02*
D03*
X25591D02*
D03*
X13780Y-19685D02*
D03*
X17717D02*
D03*
X21654D02*
D03*
X25591D02*
D03*
X15748Y-17717D02*
D03*
X19685D02*
D03*
X29528Y-47244D02*
D03*
X31496D02*
D03*
X46752D02*
D03*
X39370Y-45276D02*
D03*
X33465D02*
D03*
X37402D02*
D03*
X35433D02*
D03*
X33465Y-43307D02*
D03*
X43307D02*
D03*
X92500Y-81250D02*
D03*
X90000Y-73750D02*
D03*
X61516Y-50197D02*
D03*
Y-45768D02*
D03*
X29528Y-41339D02*
D03*
X31496D02*
D03*
X33465Y-39370D02*
D03*
X33465Y-37402D02*
D03*
X35433D02*
D03*
X27559Y-35433D02*
D03*
X33465D02*
D03*
X35433D02*
D03*
X33465Y-31496D02*
D03*
X35433D02*
D03*
X31496Y-29528D02*
D03*
X27559D02*
D03*
X33465D02*
D03*
Y-25591D02*
D03*
X35433D02*
D03*
X43307Y-22638D02*
D03*
X31496Y-21654D02*
D03*
X27559D02*
D03*
X33465D02*
D03*
X35433D02*
D03*
X37402Y-19685D02*
D03*
X43799Y-19193D02*
D03*
X33465Y-17717D02*
D03*
X35433D02*
D03*
X61516Y-37402D02*
D03*
X93578Y-49016D02*
D03*
X58071Y-33957D02*
D03*
X60532D02*
D03*
X58071Y-31988D02*
D03*
X60532D02*
D03*
X61516Y-30020D02*
D03*
X93578Y-41535D02*
D03*
Y-37205D02*
D03*
X61516Y-24114D02*
D03*
Y-19193D02*
D03*
X93578Y-29724D02*
D03*
X-0Y984D02*
D03*
X1969D02*
D03*
X3937Y-5906D02*
D03*
X5906D02*
D03*
Y-15748D02*
D03*
X9843D02*
D03*
X27559D02*
D03*
X19685Y-9843D02*
D03*
X13780Y-7874D02*
D03*
X11811Y-7874D02*
D03*
X15748D02*
D03*
X11811Y-5906D02*
D03*
X15748D02*
D03*
X17717D02*
D03*
X13780Y-5906D02*
D03*
X15748Y-3937D02*
D03*
X11811Y984D02*
D03*
X13780D02*
D03*
X15748D02*
D03*
X27559D02*
D03*
X23622D02*
D03*
X25591D02*
D03*
X-0Y2953D02*
D03*
X1969D02*
D03*
X3937D02*
D03*
X11811D02*
D03*
X5906Y14764D02*
D03*
X1969Y20630D02*
D03*
X-1969Y20669D02*
D03*
X5906D02*
D03*
X9843D02*
D03*
X1969Y25591D02*
D03*
X5906Y26575D02*
D03*
X13780Y2953D02*
D03*
X15748D02*
D03*
X27559D02*
D03*
X25591D02*
D03*
X23622D02*
D03*
X17717Y14764D02*
D03*
X13780Y20630D02*
D03*
X25591D02*
D03*
X17717Y20669D02*
D03*
X21654D02*
D03*
X13780Y25591D02*
D03*
X25591D02*
D03*
X17717Y26575D02*
D03*
X29528Y-17717D02*
D03*
X29528Y26575D02*
D03*
Y-5906D02*
D03*
Y20669D02*
D03*
X27559Y-5906D02*
D03*
X31496Y-17717D02*
D03*
X33465Y-13780D02*
D03*
X35433D02*
D03*
X33465Y-11811D02*
D03*
X35433D02*
D03*
X33465Y-9843D02*
D03*
X33465Y10335D02*
D03*
M02*
