M48
;Layer_Color=9474304
;FILE_FORMAT=2:5
INCH
;TYPE=PLATED
T01F00S00C0.00787
T02F00S00C0.03504
T03F00S00C0.03543
T04F00S00C0.03937
T05F00S00C0.04016
T06F00S00C0.06417
T07F00S00C0.09055
%
T01
X0413386Y0442913
X0433071
X0492436Y0467589
X0494311
X0528686Y0458839
X0530561
X0536186Y0457589
X0538061Y0458214
X0534936Y0452589
X0533061Y0451339
X0534311Y0443839
X0543686Y0455089
X0603686Y0451339
Y0447589
X0604311Y0460089
X0601811Y0467589
X0604331Y0483268
X0598425
X0594488
X0600394Y0492126
X0605389Y0492323
Y0496063
Y0499803
Y0504134
Y0507874
Y0511614
X0610728Y0508858
X0610728Y0504429
Y0496555
X0596949Y0496063
Y0507874
X0597441Y0520669
Y0528543
Y0532480
X0604823Y0533957
X0597441Y0542323
X0586614Y0537402
Y0533464
Y0525591
X0581201Y0522146
Y0520177
Y0518209
Y0516240
Y0514272
X0581693Y0505905
Y0503937
X0575295Y0502953
X0573327Y0503937
X0572342Y0507382
Y0509350
X0569882
Y0507382
X0573327Y0511319
X0575295Y0510335
Y0518209
Y0520669
X0573327Y0522146
Y0517224
X0571850Y0500492
X0572835Y0499016
X0570374
X0569390Y0500492
X0573327Y0495571
X0575295Y0494587
Y0490158
X0573327Y0491142
X0581693Y0495079
X0558563Y0494095
X0555118Y0498032
X0553642Y0496555
X0551181Y0496063
Y0494095
X0549213Y0496063
X0547244
Y0494095
X0545276
X0543307
X0541339
X0543307Y0496063
X0545276
Y0498032
X0543307Y0500000
X0541339
X0539370Y0501968
X0535433Y0501968
X0533465Y0503937
X0531496
X0533465Y0505905
X0535433
X0537402
X0539370
X0537402Y0507874
X0537402Y0509842
X0535433
X0533465
X0531496Y0511811
X0533465Y0513779
X0537402
X0537402Y0515748
X0535433
Y0517717
X0537402
Y0519685
X0539370
X0543307
Y0521654
X0543307Y0523622
X0541339
X0545276Y0523622
X0547244
Y0519685
X0545276
Y0517717
X0545276Y0515748
X0547244
X0545276Y0511811
X0543307
X0543307Y0513779
X0541339Y0513779
X0541339Y0511811
X0539370Y0511811
X0537402Y0511811
X0545276Y0509842
X0547244
Y0505905
X0545276
X0545276Y0503937
X0547244
X0545276Y0501968
X0539370Y0496063
X0537402
X0533465Y0498032
X0531496Y0498032
X0529528
Y0500000
Y0496063
X0525591
X0525591Y0494095
X0525591Y0498032
X0527559Y0498032
X0523622
X0521654
Y0496063
Y0500000
X0519685
X0517717
X0515748
Y0501968
Y0498032
X0513779
Y0496063
Y0494095
X0511811
Y0496063
X0508366Y0494095
X0505905Y0496063
X0505905Y0500000
X0507874
X0507874Y0501968
X0509842
X0511811
X0511811Y0503937
X0513779
X0511811Y0505905
X0509842Y0503937
X0503937Y0507874
Y0515748
Y0517717
X0505905
Y0515748
Y0519685
Y0521654
X0503937
X0500492Y0521161
X0498524Y0521654
X0495079
X0488189
X0486221
X0482283
Y0527559
Y0533464
Y0539370
X0486221Y0535433
X0488189
X0494095Y0538386
Y0540354
X0496063Y0538878
Y0536909
Y0530512
X0498032
Y0528543
X0496063
X0494095
Y0530512
X0498032Y0526575
X0498524Y0515748
X0498032Y0513779
X0495571Y0514764
X0496077Y0511811
X0495571Y0509842
X0495079Y0507874
Y0505905
X0491142Y0506890
X0488189
Y0504035
X0486221Y0502953
Y0500984
X0488189Y0499016
Y0497047
Y0494095
X0485236
X0482283
X0482776Y0499508
X0482283Y0502953
X0484252
X0480807Y0501476
X0477362Y0504429
Y0497047
X0469488
Y0502953
Y0509842
X0477362Y0514764
X0480807Y0516732
X0482776Y0515256
X0486221Y0516732
X0488189
Y0512795
Y0509842
X0485236
X0482382
X0485236Y0506890
X0490158Y0502953
X0491880Y0500738
X0494095Y0500984
X0497539Y0498524
X0497047Y0496555
X0496063Y0494833
X0496801Y0493110
X0496555Y0491142
X0495079Y0489665
X0491142Y0491142
X0488189
Y0488287
X0486221Y0487205
X0484252
X0482283
X0477362Y0488681
X0485236Y0491142
X0490158Y0487205
X0491142Y0482283
X0497539Y0482776
X0499508
X0507382Y0481299
X0509350
X0511319
X0519193Y0478346
X0521167Y0477860
X0523130Y0476378
X0524114Y0473917
X0523686Y0471964
X0528686Y0468839
X0530561
X0523130Y0482776
Y0484744
Y0486713
X0523622Y0500000
X0525591
X0525591Y0503937
Y0505905
X0527559
X0527559Y0503937
X0525591Y0507874
X0527559Y0509842
X0525591Y0511811
X0521654Y0511811
Y0513779
X0521654Y0509842
X0519685
X0517717
X0515748
X0513779Y0511811
X0515748Y0513779
Y0515748
Y0519685
X0517717
Y0521654
X0515748
X0517717Y0523622
X0517717Y0525591
X0515748
Y0529528
X0517717
X0521654
X0521654Y0531496
X0523622Y0531496
X0523622Y0533465
X0523622Y0535433
X0525591Y0535433
X0527559Y0535433
X0527559Y0533465
X0525591Y0533464
X0525591Y0531496
X0529528Y0529528
X0531496
Y0531496
X0533465Y0531496
Y0533465
X0533465Y0535433
Y0537402
X0529528
Y0535433
X0527559Y0537402
X0525591
X0523622
X0521654
X0517717
X0515748
Y0535433
X0517717
X0515748Y0531496
X0507874Y0535433
Y0537402
X0505905
X0503937Y0542323
Y0544291
X0501968
Y0542323
X0500000
Y0544291
X0500000Y0554626
X0498032
X0497047Y0556102
X0499016
X0498032Y0557579
X0500000
X0501968Y0561969
X0505905Y0562008
X0509842
X0513779Y0561969
X0517717Y0562008
X0521654
X0525591Y0561969
X0529528Y0562008
X0533465
X0537402Y0561969
X0541339Y0562008
Y0560039
Y0558071
X0543307
Y0556102
X0541339
Y0554134
X0535433Y0554626
X0533465
X0532480Y0556102
X0534449
X0535433Y0557579
X0533465
X0529528Y0556102
X0522638
X0520669
X0521654Y0554626
X0523622
Y0557579
X0521654
X0517717Y0556102
X0510827
X0508858
X0509842Y0554626
X0511811
Y0557579
X0509842
X0505905Y0556102
Y0567913
X0501968Y0566929
Y0568898
X0498032Y0562008
Y0579724
X0503937
X0509842
X0515748
Y0590551
X0517717Y0590551
X0511811
X0509842Y0590551
X0505905Y0590551
X0503937Y0590551
X0500000Y0590551
X0498032Y0590551
X0494095Y0590551
X0492126
X0488681Y0591043
X0485728
X0482776
X0484252Y0592520
X0481299
X0479823Y0591043
X0476870
X0478346Y0592520
X0475394
X0473917Y0591043
X0472441Y0592520
X0479823Y0587598
Y0585630
X0486221Y0579724
X0492126Y0579724
X0487205Y0592520
X0521654Y0584646
X0529528
Y0567913
X0525591Y0566929
Y0568898
X0517717Y0567913
X0513779Y0566929
Y0568898
X0537402
Y0566929
X0541339Y0567913
X0547244Y0568898
X0549213Y0573819
X0549213Y0584646
X0545276Y0563976
Y0551673
Y0544783
Y0539370
X0543307
X0541339Y0537402
X0539370
Y0535433
X0541339
X0543307
X0543307Y0533465
X0543307Y0531496
X0545276Y0531496
X0545276Y0529528
X0545276Y0527559
X0547244
Y0529528
X0547244Y0533464
Y0535433
X0551181Y0537402
X0539370Y0542323
Y0544291
X0537402
Y0542323
X0535433
Y0544291
X0527559
Y0542323
X0525591
X0523622
Y0544291
X0525591
X0515748
X0513779
Y0542323
X0511811
Y0544291
X0509842Y0523622
Y0521654
Y0517717
X0513779
X0519685Y0517717
X0521654Y0519685
Y0521654
Y0523622
Y0525591
X0525591Y0523622
X0525591Y0521654
Y0519685
X0529528
Y0521654
Y0523622
X0527559
X0531496
X0533465Y0521654
X0537402
X0537402Y0525591
X0539370
X0537402Y0527559
X0535433Y0527559
X0539370Y0529528
Y0531496
X0549213Y0521654
X0551181Y0519685
X0553150Y0519193
X0555118Y0518701
X0555610Y0522146
X0531496Y0517717
X0529528Y0515748
X0525591
X0527559Y0513779
X0521654Y0505905
X0519685
Y0503937
X0517717Y0505905
X0501968Y0501968
X0500000
Y0500000
X0501968
X0498524Y0492126
X0503937Y0490158
Y0488189
X0491142Y0494095
Y0497047
Y0509842
Y0512795
X0475394Y0527559
X0473425
X0491186Y0470089
X0493061
X0537402Y0484252
X0539370
X0541339
X0545276
X0547244
X0549213
X0551181
X0558071
X0560039
X0563976
X0610728Y0516732
X0586614Y0554134
Y0556102
Y0558071
Y0560039
Y0562008
X0593012Y0587598
Y0589567
X0592520Y0591535
Y0593504
Y0595506
X0595472Y0595472
Y0597441
Y0593504
Y0591535
X0592520Y0602854
X0587598Y0601378
X0586614Y0598425
X0599409Y0602362
X0607283Y0601378
X0569882Y0603346
X0568405Y0601870
X0566437
X0560532Y0600394
Y0598425
X0571358Y0604823
X0555561Y0622589
X0553686Y0621964
X0528686Y0613839
X0526811Y0612589
X0433071Y0614173
Y0608268
Y0602362
X0425197
X0421260
Y0608268
X0425197
Y0614173
X0421260
Y0620079
X0425197
X0433071
X0413386
Y0614173
Y0608268
Y0602362
X0438976Y0549213
X0437992Y0547244
X0442913Y0545276
Y0553150
Y0525591
Y0523622
X0430118Y0516240
Y0513287
Y0510335
Y0507382
X0441929Y0498032
X0442913Y0496063
Y0492126
X0443898Y0490158
X0442913Y0482283
Y0474409
X0466535Y0515748
X0468504
X0433071Y0625984
X0425197
X0421260
X0413386
Y0633858
Y0639764
X0514311Y0638214
Y0636339
X0533686Y0633214
X0535561Y0633839
X0574311Y0628839
X0573061Y0626339
X0584311Y0637589
Y0639464
T02
X0458071Y0493878
Y0564744
T03
X0444410Y0596457
Y0606299
Y0614173
Y0624016
X0454724
Y0614173
Y0606299
Y0596457
T04
X0479311Y0443839
Y0453839
Y0463839
X0489311
Y0453839
Y0443839
X0499311
Y0453839
Y0463839
X0509311
Y0453839
Y0443839
X0519311
Y0453839
Y0463839
X0529311
Y0453839
Y0443839
X0539311
X0549311
X0559311
Y0453839
X0549311
X0539311
Y0463839
X0549311
X0559311
X0569311
Y0453839
Y0443839
X0579311
X0589311
X0599311
X0609311
Y0453839
X0599311
X0589311
X0579311
Y0463839
X0589311
X0599311
X0609311
Y0473839
X0599311
X0589311
X0579311
X0569311
X0559311
X0549311
X0539311
X0529311
X0519311
X0509311
X0499311
X0489311
X0479311
Y0598839
X0469311
Y0608839
Y0618839
X0479311
Y0608839
X0489311
Y0598839
X0499311
Y0608839
Y0618839
X0489311
X0509311
Y0608839
Y0598839
X0519311
Y0608839
Y0618839
X0529311
Y0608839
X0539311
Y0618839
X0549311
Y0608839
X0559311
X0569311
X0579311
Y0618839
X0569311
X0559311
X0589311
Y0608839
X0599311
X0609311
Y0618839
X0599311
Y0588839
Y0578839
Y0568839
Y0558839
Y0548839
X0609311
Y0558839
Y0568839
Y0578839
Y0588839
Y0628839
X0599311
X0589311
X0579311
X0569311
X0559311
X0549311
X0539311
X0529311
X0519311
X0509311
X0499311
X0489311
X0479311
X0469311
Y0638839
X0479311
X0489311
X0499311
X0509311
X0519311
X0529311
X0539311
X0549311
X0559311
X0569311
X0579311
X0589311
X0599311
X0609311
T05
X0413779Y0450295
Y0460295
X0458071Y0463878
X0468071Y0458878
Y0468878
Y0478878
Y0488878
X0458071Y0483878
Y0473878
Y0534744
Y0544744
Y0554744
X0468071Y0549744
Y0539744
Y0529744
Y0559744
X0413779Y0563327
Y0573327
Y0531161
Y0521161
Y0502461
Y0492461
T06
X0445079Y0445886
Y0506870
Y0516752
Y0577736
T07
X0433740Y0584370
X0456102
Y0636102
X0433740
M30
