G04*
G04 #@! TF.GenerationSoftware,Altium Limited,Altium Designer,24.5.2 (23)*
G04*
G04 Layer_Color=2752767*
%FSLAX25Y25*%
%MOIN*%
G70*
G04*
G04 #@! TF.SameCoordinates,6DF05ACD-99E5-4A60-94F4-888D25E85DCD*
G04*
G04*
G04 #@! TF.FilePolarity,Positive*
G04*
G01*
G75*
%ADD80C,0.00500*%
%ADD81C,0.00667*%
%ADD82C,0.00400*%
D80*
X-80740Y-44461D02*
X-79740Y-42461D01*
X-80740Y-40461D01*
X-78740Y-41461D01*
X-76740Y-40461D01*
X-77740Y-42461D01*
X-76740Y-44461D01*
X-78740Y-43461D01*
X-80740Y-44461D01*
Y-89461D02*
X-79740Y-87461D01*
X-80740Y-85461D01*
X-78740Y-86461D01*
X-76740Y-85461D01*
X-77740Y-87461D01*
X-76740Y-89461D01*
X-78740Y-88461D01*
X-80740Y-89461D01*
X-66732Y-36468D02*
X-65732Y-35469D01*
X-64732D01*
X-65732Y-34468D01*
X-64732Y-33468D01*
X-65732D01*
X-66732Y-32469D01*
X-67732Y-33468D01*
X-68732D01*
X-67732Y-34468D01*
X-68732Y-35469D01*
X-67732D01*
X-66732Y-36468D01*
Y-97453D02*
X-65732Y-96453D01*
X-64732D01*
X-65732Y-95453D01*
X-64732Y-94453D01*
X-65732D01*
X-66732Y-93453D01*
X-67732Y-94453D01*
X-68732D01*
X-67732Y-95453D01*
X-68732Y-96453D01*
X-67732D01*
X-66732Y-97453D01*
X-53740Y-49461D02*
X-55740Y-45461D01*
X-51740D01*
X-53740Y-49461D01*
X-34500Y-99500D02*
X-33500D01*
X-32500Y-98500D01*
X-31500Y-99500D01*
X-30500D01*
Y-98500D01*
X-31500Y-97500D01*
X-30500Y-96500D01*
Y-95500D01*
X-31500D01*
X-32500Y-96500D01*
X-33500Y-95500D01*
X-34500D01*
Y-96500D01*
X-33500Y-97500D01*
X-34500Y-98500D01*
Y-99500D01*
Y-79500D02*
X-33500D01*
X-32500Y-78500D01*
X-31500Y-79500D01*
X-30500D01*
Y-78500D01*
X-31500Y-77500D01*
X-30500Y-76500D01*
Y-75500D01*
X-31500D01*
X-32500Y-76500D01*
X-33500Y-75500D01*
X-34500D01*
Y-76500D01*
X-33500Y-77500D01*
X-34500Y-78500D01*
Y-79500D01*
Y-69500D02*
X-33500D01*
X-32500Y-68500D01*
X-31500Y-69500D01*
X-30500D01*
Y-68500D01*
X-31500Y-67500D01*
X-30500Y-66500D01*
Y-65500D01*
X-31500D01*
X-32500Y-66500D01*
X-33500Y-65500D01*
X-34500D01*
Y-66500D01*
X-33500Y-67500D01*
X-34500Y-68500D01*
Y-69500D01*
Y-89500D02*
X-33500D01*
X-32500Y-88500D01*
X-31500Y-89500D01*
X-30500D01*
Y-88500D01*
X-31500Y-87500D01*
X-30500Y-86500D01*
Y-85500D01*
X-31500D01*
X-32500Y-86500D01*
X-33500Y-85500D01*
X-34500D01*
Y-86500D01*
X-33500Y-87500D01*
X-34500Y-88500D01*
Y-89500D01*
X-53740Y21406D02*
X-55740Y25405D01*
X-51740D01*
X-53740Y21406D01*
X-66732Y-26587D02*
X-65732Y-25587D01*
X-64732D01*
X-65732Y-24587D01*
X-64732Y-23587D01*
X-65732D01*
X-66732Y-22587D01*
X-67732Y-23587D01*
X-68732D01*
X-67732Y-24587D01*
X-68732Y-25587D01*
X-67732D01*
X-66732Y-26587D01*
Y34398D02*
X-65732Y35398D01*
X-64732D01*
X-65732Y36398D01*
X-64732Y37398D01*
X-65732D01*
X-66732Y38398D01*
X-67732Y37398D01*
X-68732D01*
X-67732Y36398D01*
X-68732Y35398D01*
X-67732D01*
X-66732Y34398D01*
X-80740Y-18595D02*
X-79740Y-16594D01*
X-80740Y-14594D01*
X-78740Y-15595D01*
X-76740Y-14594D01*
X-77740Y-16594D01*
X-76740Y-18595D01*
X-78740Y-17594D01*
X-80740Y-18595D01*
Y26406D02*
X-79740Y28405D01*
X-80740Y30406D01*
X-78740Y29406D01*
X-76740Y30406D01*
X-77740Y28405D01*
X-76740Y26406D01*
X-78740Y27406D01*
X-80740Y26406D01*
X-24500Y-79500D02*
X-23500D01*
X-22500Y-78500D01*
X-21500Y-79500D01*
X-20500D01*
Y-78500D01*
X-21500Y-77500D01*
X-20500Y-76500D01*
Y-75500D01*
X-21500D01*
X-22500Y-76500D01*
X-23500Y-75500D01*
X-24500D01*
Y-76500D01*
X-23500Y-77500D01*
X-24500Y-78500D01*
Y-79500D01*
Y-99500D02*
X-23500D01*
X-22500Y-98500D01*
X-21500Y-99500D01*
X-20500D01*
Y-98500D01*
X-21500Y-97500D01*
X-20500Y-96500D01*
Y-95500D01*
X-21500D01*
X-22500Y-96500D01*
X-23500Y-95500D01*
X-24500D01*
Y-96500D01*
X-23500Y-97500D01*
X-24500Y-98500D01*
Y-99500D01*
Y-89500D02*
X-23500D01*
X-22500Y-88500D01*
X-21500Y-89500D01*
X-20500D01*
Y-88500D01*
X-21500Y-87500D01*
X-20500Y-86500D01*
Y-85500D01*
X-21500D01*
X-22500Y-86500D01*
X-23500Y-85500D01*
X-24500D01*
Y-86500D01*
X-23500Y-87500D01*
X-24500Y-88500D01*
Y-89500D01*
Y-69500D02*
X-23500D01*
X-22500Y-68500D01*
X-21500Y-69500D01*
X-20500D01*
Y-68500D01*
X-21500Y-67500D01*
X-20500Y-66500D01*
Y-65500D01*
X-21500D01*
X-22500Y-66500D01*
X-23500Y-65500D01*
X-24500D01*
Y-66500D01*
X-23500Y-67500D01*
X-24500Y-68500D01*
Y-69500D01*
X-14500Y-89500D02*
X-13500D01*
X-12500Y-88500D01*
X-11500Y-89500D01*
X-10500D01*
Y-88500D01*
X-11500Y-87500D01*
X-10500Y-86500D01*
Y-85500D01*
X-11500D01*
X-12500Y-86500D01*
X-13500Y-85500D01*
X-14500D01*
Y-86500D01*
X-13500Y-87500D01*
X-14500Y-88500D01*
Y-89500D01*
Y-79500D02*
X-13500D01*
X-12500Y-78500D01*
X-11500Y-79500D01*
X-10500D01*
Y-78500D01*
X-11500Y-77500D01*
X-10500Y-76500D01*
Y-75500D01*
X-11500D01*
X-12500Y-76500D01*
X-13500Y-75500D01*
X-14500D01*
Y-76500D01*
X-13500Y-77500D01*
X-14500Y-78500D01*
Y-79500D01*
Y-69500D02*
X-13500D01*
X-12500Y-68500D01*
X-11500Y-69500D01*
X-10500D01*
Y-68500D01*
X-11500Y-67500D01*
X-10500Y-66500D01*
Y-65500D01*
X-11500D01*
X-12500Y-66500D01*
X-13500Y-65500D01*
X-14500D01*
Y-66500D01*
X-13500Y-67500D01*
X-14500Y-68500D01*
Y-69500D01*
Y-99500D02*
X-13500D01*
X-12500Y-98500D01*
X-11500Y-99500D01*
X-10500D01*
Y-98500D01*
X-11500Y-97500D01*
X-10500Y-96500D01*
Y-95500D01*
X-11500D01*
X-12500Y-96500D01*
X-13500Y-95500D01*
X-14500D01*
Y-96500D01*
X-13500Y-97500D01*
X-14500Y-98500D01*
Y-99500D01*
X-4500Y-89500D02*
X-3500D01*
X-2500Y-88500D01*
X-1500Y-89500D01*
X-500D01*
Y-88500D01*
X-1500Y-87500D01*
X-500Y-86500D01*
Y-85500D01*
X-1500D01*
X-2500Y-86500D01*
X-3500Y-85500D01*
X-4500D01*
Y-86500D01*
X-3500Y-87500D01*
X-4500Y-88500D01*
Y-89500D01*
Y-79500D02*
X-3500D01*
X-2500Y-78500D01*
X-1500Y-79500D01*
X-500D01*
Y-78500D01*
X-1500Y-77500D01*
X-500Y-76500D01*
Y-75500D01*
X-1500D01*
X-2500Y-76500D01*
X-3500Y-75500D01*
X-4500D01*
Y-76500D01*
X-3500Y-77500D01*
X-4500Y-78500D01*
Y-79500D01*
Y-69500D02*
X-3500D01*
X-2500Y-68500D01*
X-1500Y-69500D01*
X-500D01*
Y-68500D01*
X-1500Y-67500D01*
X-500Y-66500D01*
Y-65500D01*
X-1500D01*
X-2500Y-66500D01*
X-3500Y-65500D01*
X-4500D01*
Y-66500D01*
X-3500Y-67500D01*
X-4500Y-68500D01*
Y-69500D01*
X-57709Y92764D02*
Y96764D01*
X-53709D01*
Y92764D01*
X-57709D01*
X-56909Y93564D02*
Y95964D01*
X-54509D01*
Y93564D01*
X-56909D01*
X-57709Y41032D02*
Y45031D01*
X-53709D01*
Y41032D01*
X-57709D01*
X-56909Y41831D02*
Y44232D01*
X-54509D01*
Y41831D01*
X-56909D01*
X-80071Y41032D02*
Y45031D01*
X-76071D01*
Y41032D01*
X-80071D01*
X-79271Y41831D02*
Y44232D01*
X-76871D01*
Y41831D01*
X-79271D01*
X-80071Y92764D02*
Y96764D01*
X-76071D01*
Y92764D01*
X-80071D01*
X-79271Y93564D02*
Y95964D01*
X-76871D01*
Y93564D01*
X-79271D01*
X-44500Y55500D02*
X-43500D01*
X-42500Y56500D01*
X-41500Y55500D01*
X-40500D01*
Y56500D01*
X-41500Y57500D01*
X-40500Y58500D01*
Y59500D01*
X-41500D01*
X-42500Y58500D01*
X-43500Y59500D01*
X-44500D01*
Y58500D01*
X-43500Y57500D01*
X-44500Y56500D01*
Y55500D01*
X-34500D02*
X-33500D01*
X-32500Y56500D01*
X-31500Y55500D01*
X-30500D01*
Y56500D01*
X-31500Y57500D01*
X-30500Y58500D01*
Y59500D01*
X-31500D01*
X-32500Y58500D01*
X-33500Y59500D01*
X-34500D01*
Y58500D01*
X-33500Y57500D01*
X-34500Y56500D01*
Y55500D01*
X-44500Y65500D02*
X-43500D01*
X-42500Y66500D01*
X-41500Y65500D01*
X-40500D01*
Y66500D01*
X-41500Y67500D01*
X-40500Y68500D01*
Y69500D01*
X-41500D01*
X-42500Y68500D01*
X-43500Y69500D01*
X-44500D01*
Y68500D01*
X-43500Y67500D01*
X-44500Y66500D01*
Y65500D01*
Y85500D02*
X-43500D01*
X-42500Y86500D01*
X-41500Y85500D01*
X-40500D01*
Y86500D01*
X-41500Y87500D01*
X-40500Y88500D01*
Y89500D01*
X-41500D01*
X-42500Y88500D01*
X-43500Y89500D01*
X-44500D01*
Y88500D01*
X-43500Y87500D01*
X-44500Y86500D01*
Y85500D01*
Y95500D02*
X-43500D01*
X-42500Y96500D01*
X-41500Y95500D01*
X-40500D01*
Y96500D01*
X-41500Y97500D01*
X-40500Y98500D01*
Y99500D01*
X-41500D01*
X-42500Y98500D01*
X-43500Y99500D01*
X-44500D01*
Y98500D01*
X-43500Y97500D01*
X-44500Y96500D01*
Y95500D01*
Y75500D02*
X-43500D01*
X-42500Y76500D01*
X-41500Y75500D01*
X-40500D01*
Y76500D01*
X-41500Y77500D01*
X-40500Y78500D01*
Y79500D01*
X-41500D01*
X-42500Y78500D01*
X-43500Y79500D01*
X-44500D01*
Y78500D01*
X-43500Y77500D01*
X-44500Y76500D01*
Y75500D01*
X-34500Y65500D02*
X-33500D01*
X-32500Y66500D01*
X-31500Y65500D01*
X-30500D01*
Y66500D01*
X-31500Y67500D01*
X-30500Y68500D01*
Y69500D01*
X-31500D01*
X-32500Y68500D01*
X-33500Y69500D01*
X-34500D01*
Y68500D01*
X-33500Y67500D01*
X-34500Y66500D01*
Y65500D01*
Y95500D02*
X-33500D01*
X-32500Y96500D01*
X-31500Y95500D01*
X-30500D01*
Y96500D01*
X-31500Y97500D01*
X-30500Y98500D01*
Y99500D01*
X-31500D01*
X-32500Y98500D01*
X-33500Y99500D01*
X-34500D01*
Y98500D01*
X-33500Y97500D01*
X-34500Y96500D01*
Y95500D01*
Y85500D02*
X-33500D01*
X-32500Y86500D01*
X-31500Y85500D01*
X-30500D01*
Y86500D01*
X-31500Y87500D01*
X-30500Y88500D01*
Y89500D01*
X-31500D01*
X-32500Y88500D01*
X-33500Y89500D01*
X-34500D01*
Y88500D01*
X-33500Y87500D01*
X-34500Y86500D01*
Y85500D01*
Y75500D02*
X-33500D01*
X-32500Y76500D01*
X-31500Y75500D01*
X-30500D01*
Y76500D01*
X-31500Y77500D01*
X-30500Y78500D01*
Y79500D01*
X-31500D01*
X-32500Y78500D01*
X-33500Y79500D01*
X-34500D01*
Y78500D01*
X-33500Y77500D01*
X-34500Y76500D01*
Y75500D01*
X-24500Y55500D02*
X-23500D01*
X-22500Y56500D01*
X-21500Y55500D01*
X-20500D01*
Y56500D01*
X-21500Y57500D01*
X-20500Y58500D01*
Y59500D01*
X-21500D01*
X-22500Y58500D01*
X-23500Y59500D01*
X-24500D01*
Y58500D01*
X-23500Y57500D01*
X-24500Y56500D01*
Y55500D01*
Y65500D02*
X-23500D01*
X-22500Y66500D01*
X-21500Y65500D01*
X-20500D01*
Y66500D01*
X-21500Y67500D01*
X-20500Y68500D01*
Y69500D01*
X-21500D01*
X-22500Y68500D01*
X-23500Y69500D01*
X-24500D01*
Y68500D01*
X-23500Y67500D01*
X-24500Y66500D01*
Y65500D01*
Y75500D02*
X-23500D01*
X-22500Y76500D01*
X-21500Y75500D01*
X-20500D01*
Y76500D01*
X-21500Y77500D01*
X-20500Y78500D01*
Y79500D01*
X-21500D01*
X-22500Y78500D01*
X-23500Y79500D01*
X-24500D01*
Y78500D01*
X-23500Y77500D01*
X-24500Y76500D01*
Y75500D01*
Y85500D02*
X-23500D01*
X-22500Y86500D01*
X-21500Y85500D01*
X-20500D01*
Y86500D01*
X-21500Y87500D01*
X-20500Y88500D01*
Y89500D01*
X-21500D01*
X-22500Y88500D01*
X-23500Y89500D01*
X-24500D01*
Y88500D01*
X-23500Y87500D01*
X-24500Y86500D01*
Y85500D01*
Y95500D02*
X-23500D01*
X-22500Y96500D01*
X-21500Y95500D01*
X-20500D01*
Y96500D01*
X-21500Y97500D01*
X-20500Y98500D01*
Y99500D01*
X-21500D01*
X-22500Y98500D01*
X-23500Y99500D01*
X-24500D01*
Y98500D01*
X-23500Y97500D01*
X-24500Y96500D01*
Y95500D01*
X-14500Y55500D02*
X-13500D01*
X-12500Y56500D01*
X-11500Y55500D01*
X-10500D01*
Y56500D01*
X-11500Y57500D01*
X-10500Y58500D01*
Y59500D01*
X-11500D01*
X-12500Y58500D01*
X-13500Y59500D01*
X-14500D01*
Y58500D01*
X-13500Y57500D01*
X-14500Y56500D01*
Y55500D01*
Y65500D02*
X-13500D01*
X-12500Y66500D01*
X-11500Y65500D01*
X-10500D01*
Y66500D01*
X-11500Y67500D01*
X-10500Y68500D01*
Y69500D01*
X-11500D01*
X-12500Y68500D01*
X-13500Y69500D01*
X-14500D01*
Y68500D01*
X-13500Y67500D01*
X-14500Y66500D01*
Y65500D01*
Y85500D02*
X-13500D01*
X-12500Y86500D01*
X-11500Y85500D01*
X-10500D01*
Y86500D01*
X-11500Y87500D01*
X-10500Y88500D01*
Y89500D01*
X-11500D01*
X-12500Y88500D01*
X-13500Y89500D01*
X-14500D01*
Y88500D01*
X-13500Y87500D01*
X-14500Y86500D01*
Y85500D01*
Y75500D02*
X-13500D01*
X-12500Y76500D01*
X-11500Y75500D01*
X-10500D01*
Y76500D01*
X-11500Y77500D01*
X-10500Y78500D01*
Y79500D01*
X-11500D01*
X-12500Y78500D01*
X-13500Y79500D01*
X-14500D01*
Y78500D01*
X-13500Y77500D01*
X-14500Y76500D01*
Y75500D01*
Y95500D02*
X-13500D01*
X-12500Y96500D01*
X-11500Y95500D01*
X-10500D01*
Y96500D01*
X-11500Y97500D01*
X-10500Y98500D01*
Y99500D01*
X-11500D01*
X-12500Y98500D01*
X-13500Y99500D01*
X-14500D01*
Y98500D01*
X-13500Y97500D01*
X-14500Y96500D01*
Y95500D01*
X-4500Y55500D02*
X-3500D01*
X-2500Y56500D01*
X-1500Y55500D01*
X-500D01*
Y56500D01*
X-1500Y57500D01*
X-500Y58500D01*
Y59500D01*
X-1500D01*
X-2500Y58500D01*
X-3500Y59500D01*
X-4500D01*
Y58500D01*
X-3500Y57500D01*
X-4500Y56500D01*
Y55500D01*
Y85500D02*
X-3500D01*
X-2500Y86500D01*
X-1500Y85500D01*
X-500D01*
Y86500D01*
X-1500Y87500D01*
X-500Y88500D01*
Y89500D01*
X-1500D01*
X-2500Y88500D01*
X-3500Y89500D01*
X-4500D01*
Y88500D01*
X-3500Y87500D01*
X-4500Y86500D01*
Y85500D01*
Y-99500D02*
X-3500D01*
X-2500Y-98500D01*
X-1500Y-99500D01*
X-500D01*
Y-98500D01*
X-1500Y-97500D01*
X-500Y-96500D01*
Y-95500D01*
X-1500D01*
X-2500Y-96500D01*
X-3500Y-95500D01*
X-4500D01*
Y-96500D01*
X-3500Y-97500D01*
X-4500Y-98500D01*
Y-99500D01*
X5500D02*
X6500D01*
X7500Y-98500D01*
X8500Y-99500D01*
X9500D01*
Y-98500D01*
X8500Y-97500D01*
X9500Y-96500D01*
Y-95500D01*
X8500D01*
X7500Y-96500D01*
X6500Y-95500D01*
X5500D01*
Y-96500D01*
X6500Y-97500D01*
X5500Y-98500D01*
Y-99500D01*
Y-89500D02*
X6500D01*
X7500Y-88500D01*
X8500Y-89500D01*
X9500D01*
Y-88500D01*
X8500Y-87500D01*
X9500Y-86500D01*
Y-85500D01*
X8500D01*
X7500Y-86500D01*
X6500Y-85500D01*
X5500D01*
Y-86500D01*
X6500Y-87500D01*
X5500Y-88500D01*
Y-89500D01*
Y-79500D02*
X6500D01*
X7500Y-78500D01*
X8500Y-79500D01*
X9500D01*
Y-78500D01*
X8500Y-77500D01*
X9500Y-76500D01*
Y-75500D01*
X8500D01*
X7500Y-76500D01*
X6500Y-75500D01*
X5500D01*
Y-76500D01*
X6500Y-77500D01*
X5500Y-78500D01*
Y-79500D01*
Y-69500D02*
X6500D01*
X7500Y-68500D01*
X8500Y-69500D01*
X9500D01*
Y-68500D01*
X8500Y-67500D01*
X9500Y-66500D01*
Y-65500D01*
X8500D01*
X7500Y-66500D01*
X6500Y-65500D01*
X5500D01*
Y-66500D01*
X6500Y-67500D01*
X5500Y-68500D01*
Y-69500D01*
X15500Y-99500D02*
X16500D01*
X17500Y-98500D01*
X18500Y-99500D01*
X19500D01*
Y-98500D01*
X18500Y-97500D01*
X19500Y-96500D01*
Y-95500D01*
X18500D01*
X17500Y-96500D01*
X16500Y-95500D01*
X15500D01*
Y-96500D01*
X16500Y-97500D01*
X15500Y-98500D01*
Y-99500D01*
Y-89500D02*
X16500D01*
X17500Y-88500D01*
X18500Y-89500D01*
X19500D01*
Y-88500D01*
X18500Y-87500D01*
X19500Y-86500D01*
Y-85500D01*
X18500D01*
X17500Y-86500D01*
X16500Y-85500D01*
X15500D01*
Y-86500D01*
X16500Y-87500D01*
X15500Y-88500D01*
Y-89500D01*
Y-79500D02*
X16500D01*
X17500Y-78500D01*
X18500Y-79500D01*
X19500D01*
Y-78500D01*
X18500Y-77500D01*
X19500Y-76500D01*
Y-75500D01*
X18500D01*
X17500Y-76500D01*
X16500Y-75500D01*
X15500D01*
Y-76500D01*
X16500Y-77500D01*
X15500Y-78500D01*
Y-79500D01*
X25500D02*
X26500D01*
X27500Y-78500D01*
X28500Y-79500D01*
X29500D01*
Y-78500D01*
X28500Y-77500D01*
X29500Y-76500D01*
Y-75500D01*
X28500D01*
X27500Y-76500D01*
X26500Y-75500D01*
X25500D01*
Y-76500D01*
X26500Y-77500D01*
X25500Y-78500D01*
Y-79500D01*
X15500Y-69500D02*
X16500D01*
X17500Y-68500D01*
X18500Y-69500D01*
X19500D01*
Y-68500D01*
X18500Y-67500D01*
X19500Y-66500D01*
Y-65500D01*
X18500D01*
X17500Y-66500D01*
X16500Y-65500D01*
X15500D01*
Y-66500D01*
X16500Y-67500D01*
X15500Y-68500D01*
Y-69500D01*
X25500Y-99500D02*
X26500D01*
X27500Y-98500D01*
X28500Y-99500D01*
X29500D01*
Y-98500D01*
X28500Y-97500D01*
X29500Y-96500D01*
Y-95500D01*
X28500D01*
X27500Y-96500D01*
X26500Y-95500D01*
X25500D01*
Y-96500D01*
X26500Y-97500D01*
X25500Y-98500D01*
Y-99500D01*
X45500D02*
X46500D01*
X47500Y-98500D01*
X48500Y-99500D01*
X49500D01*
Y-98500D01*
X48500Y-97500D01*
X49500Y-96500D01*
Y-95500D01*
X48500D01*
X47500Y-96500D01*
X46500Y-95500D01*
X45500D01*
Y-96500D01*
X46500Y-97500D01*
X45500Y-98500D01*
Y-99500D01*
X35500D02*
X36500D01*
X37500Y-98500D01*
X38500Y-99500D01*
X39500D01*
Y-98500D01*
X38500Y-97500D01*
X39500Y-96500D01*
Y-95500D01*
X38500D01*
X37500Y-96500D01*
X36500Y-95500D01*
X35500D01*
Y-96500D01*
X36500Y-97500D01*
X35500Y-98500D01*
Y-99500D01*
X25500Y-89500D02*
X26500D01*
X27500Y-88500D01*
X28500Y-89500D01*
X29500D01*
Y-88500D01*
X28500Y-87500D01*
X29500Y-86500D01*
Y-85500D01*
X28500D01*
X27500Y-86500D01*
X26500Y-85500D01*
X25500D01*
Y-86500D01*
X26500Y-87500D01*
X25500Y-88500D01*
Y-89500D01*
X45500D02*
X46500D01*
X47500Y-88500D01*
X48500Y-89500D01*
X49500D01*
Y-88500D01*
X48500Y-87500D01*
X49500Y-86500D01*
Y-85500D01*
X48500D01*
X47500Y-86500D01*
X46500Y-85500D01*
X45500D01*
Y-86500D01*
X46500Y-87500D01*
X45500Y-88500D01*
Y-89500D01*
X35500D02*
X36500D01*
X37500Y-88500D01*
X38500Y-89500D01*
X39500D01*
Y-88500D01*
X38500Y-87500D01*
X39500Y-86500D01*
Y-85500D01*
X38500D01*
X37500Y-86500D01*
X36500Y-85500D01*
X35500D01*
Y-86500D01*
X36500Y-87500D01*
X35500Y-88500D01*
Y-89500D01*
X45500Y-79500D02*
X46500D01*
X47500Y-78500D01*
X48500Y-79500D01*
X49500D01*
Y-78500D01*
X48500Y-77500D01*
X49500Y-76500D01*
Y-75500D01*
X48500D01*
X47500Y-76500D01*
X46500Y-75500D01*
X45500D01*
Y-76500D01*
X46500Y-77500D01*
X45500Y-78500D01*
Y-79500D01*
X35500D02*
X36500D01*
X37500Y-78500D01*
X38500Y-79500D01*
X39500D01*
Y-78500D01*
X38500Y-77500D01*
X39500Y-76500D01*
Y-75500D01*
X38500D01*
X37500Y-76500D01*
X36500Y-75500D01*
X35500D01*
Y-76500D01*
X36500Y-77500D01*
X35500Y-78500D01*
Y-79500D01*
X25500Y-69500D02*
X26500D01*
X27500Y-68500D01*
X28500Y-69500D01*
X29500D01*
Y-68500D01*
X28500Y-67500D01*
X29500Y-66500D01*
Y-65500D01*
X28500D01*
X27500Y-66500D01*
X26500Y-65500D01*
X25500D01*
Y-66500D01*
X26500Y-67500D01*
X25500Y-68500D01*
Y-69500D01*
X45500D02*
X46500D01*
X47500Y-68500D01*
X48500Y-69500D01*
X49500D01*
Y-68500D01*
X48500Y-67500D01*
X49500Y-66500D01*
Y-65500D01*
X48500D01*
X47500Y-66500D01*
X46500Y-65500D01*
X45500D01*
Y-66500D01*
X46500Y-67500D01*
X45500Y-68500D01*
Y-69500D01*
X35500D02*
X36500D01*
X37500Y-68500D01*
X38500Y-69500D01*
X39500D01*
Y-68500D01*
X38500Y-67500D01*
X39500Y-66500D01*
Y-65500D01*
X38500D01*
X37500Y-66500D01*
X36500Y-65500D01*
X35500D01*
Y-66500D01*
X36500Y-67500D01*
X35500Y-68500D01*
Y-69500D01*
X55500Y-99500D02*
X56500D01*
X57500Y-98500D01*
X58500Y-99500D01*
X59500D01*
Y-98500D01*
X58500Y-97500D01*
X59500Y-96500D01*
Y-95500D01*
X58500D01*
X57500Y-96500D01*
X56500Y-95500D01*
X55500D01*
Y-96500D01*
X56500Y-97500D01*
X55500Y-98500D01*
Y-99500D01*
X65500D02*
X66500D01*
X67500Y-98500D01*
X68500Y-99500D01*
X69500D01*
Y-98500D01*
X68500Y-97500D01*
X69500Y-96500D01*
Y-95500D01*
X68500D01*
X67500Y-96500D01*
X66500Y-95500D01*
X65500D01*
Y-96500D01*
X66500Y-97500D01*
X65500Y-98500D01*
Y-99500D01*
X75500D02*
X76500D01*
X77500Y-98500D01*
X78500Y-99500D01*
X79500D01*
Y-98500D01*
X78500Y-97500D01*
X79500Y-96500D01*
Y-95500D01*
X78500D01*
X77500Y-96500D01*
X76500Y-95500D01*
X75500D01*
Y-96500D01*
X76500Y-97500D01*
X75500Y-98500D01*
Y-99500D01*
X85500D02*
X86500D01*
X87500Y-98500D01*
X88500Y-99500D01*
X89500D01*
Y-98500D01*
X88500Y-97500D01*
X89500Y-96500D01*
Y-95500D01*
X88500D01*
X87500Y-96500D01*
X86500Y-95500D01*
X85500D01*
Y-96500D01*
X86500Y-97500D01*
X85500Y-98500D01*
Y-99500D01*
X95500D02*
X96500D01*
X97500Y-98500D01*
X98500Y-99500D01*
X99500D01*
Y-98500D01*
X98500Y-97500D01*
X99500Y-96500D01*
Y-95500D01*
X98500D01*
X97500Y-96500D01*
X96500Y-95500D01*
X95500D01*
Y-96500D01*
X96500Y-97500D01*
X95500Y-98500D01*
Y-99500D01*
X55500Y-89500D02*
X56500D01*
X57500Y-88500D01*
X58500Y-89500D01*
X59500D01*
Y-88500D01*
X58500Y-87500D01*
X59500Y-86500D01*
Y-85500D01*
X58500D01*
X57500Y-86500D01*
X56500Y-85500D01*
X55500D01*
Y-86500D01*
X56500Y-87500D01*
X55500Y-88500D01*
Y-89500D01*
X75500D02*
X76500D01*
X77500Y-88500D01*
X78500Y-89500D01*
X79500D01*
Y-88500D01*
X78500Y-87500D01*
X79500Y-86500D01*
Y-85500D01*
X78500D01*
X77500Y-86500D01*
X76500Y-85500D01*
X75500D01*
Y-86500D01*
X76500Y-87500D01*
X75500Y-88500D01*
Y-89500D01*
X65500D02*
X66500D01*
X67500Y-88500D01*
X68500Y-89500D01*
X69500D01*
Y-88500D01*
X68500Y-87500D01*
X69500Y-86500D01*
Y-85500D01*
X68500D01*
X67500Y-86500D01*
X66500Y-85500D01*
X65500D01*
Y-86500D01*
X66500Y-87500D01*
X65500Y-88500D01*
Y-89500D01*
X85500D02*
X86500D01*
X87500Y-88500D01*
X88500Y-89500D01*
X89500D01*
Y-88500D01*
X88500Y-87500D01*
X89500Y-86500D01*
Y-85500D01*
X88500D01*
X87500Y-86500D01*
X86500Y-85500D01*
X85500D01*
Y-86500D01*
X86500Y-87500D01*
X85500Y-88500D01*
Y-89500D01*
X95500D02*
X96500D01*
X97500Y-88500D01*
X98500Y-89500D01*
X99500D01*
Y-88500D01*
X98500Y-87500D01*
X99500Y-86500D01*
Y-85500D01*
X98500D01*
X97500Y-86500D01*
X96500Y-85500D01*
X95500D01*
Y-86500D01*
X96500Y-87500D01*
X95500Y-88500D01*
Y-89500D01*
X55500Y-79500D02*
X56500D01*
X57500Y-78500D01*
X58500Y-79500D01*
X59500D01*
Y-78500D01*
X58500Y-77500D01*
X59500Y-76500D01*
Y-75500D01*
X58500D01*
X57500Y-76500D01*
X56500Y-75500D01*
X55500D01*
Y-76500D01*
X56500Y-77500D01*
X55500Y-78500D01*
Y-79500D01*
X75500D02*
X76500D01*
X77500Y-78500D01*
X78500Y-79500D01*
X79500D01*
Y-78500D01*
X78500Y-77500D01*
X79500Y-76500D01*
Y-75500D01*
X78500D01*
X77500Y-76500D01*
X76500Y-75500D01*
X75500D01*
Y-76500D01*
X76500Y-77500D01*
X75500Y-78500D01*
Y-79500D01*
X65500D02*
X66500D01*
X67500Y-78500D01*
X68500Y-79500D01*
X69500D01*
Y-78500D01*
X68500Y-77500D01*
X69500Y-76500D01*
Y-75500D01*
X68500D01*
X67500Y-76500D01*
X66500Y-75500D01*
X65500D01*
Y-76500D01*
X66500Y-77500D01*
X65500Y-78500D01*
Y-79500D01*
X85500D02*
X86500D01*
X87500Y-78500D01*
X88500Y-79500D01*
X89500D01*
Y-78500D01*
X88500Y-77500D01*
X89500Y-76500D01*
Y-75500D01*
X88500D01*
X87500Y-76500D01*
X86500Y-75500D01*
X85500D01*
Y-76500D01*
X86500Y-77500D01*
X85500Y-78500D01*
Y-79500D01*
X95500D02*
X96500D01*
X97500Y-78500D01*
X98500Y-79500D01*
X99500D01*
Y-78500D01*
X98500Y-77500D01*
X99500Y-76500D01*
Y-75500D01*
X98500D01*
X97500Y-76500D01*
X96500Y-75500D01*
X95500D01*
Y-76500D01*
X96500Y-77500D01*
X95500Y-78500D01*
Y-79500D01*
X55500Y-69500D02*
X56500D01*
X57500Y-68500D01*
X58500Y-69500D01*
X59500D01*
Y-68500D01*
X58500Y-67500D01*
X59500Y-66500D01*
Y-65500D01*
X58500D01*
X57500Y-66500D01*
X56500Y-65500D01*
X55500D01*
Y-66500D01*
X56500Y-67500D01*
X55500Y-68500D01*
Y-69500D01*
X75500D02*
X76500D01*
X77500Y-68500D01*
X78500Y-69500D01*
X79500D01*
Y-68500D01*
X78500Y-67500D01*
X79500Y-66500D01*
Y-65500D01*
X78500D01*
X77500Y-66500D01*
X76500Y-65500D01*
X75500D01*
Y-66500D01*
X76500Y-67500D01*
X75500Y-68500D01*
Y-69500D01*
X65500D02*
X66500D01*
X67500Y-68500D01*
X68500Y-69500D01*
X69500D01*
Y-68500D01*
X68500Y-67500D01*
X69500Y-66500D01*
Y-65500D01*
X68500D01*
X67500Y-66500D01*
X66500Y-65500D01*
X65500D01*
Y-66500D01*
X66500Y-67500D01*
X65500Y-68500D01*
Y-69500D01*
X85500D02*
X86500D01*
X87500Y-68500D01*
X88500Y-69500D01*
X89500D01*
Y-68500D01*
X88500Y-67500D01*
X89500Y-66500D01*
Y-65500D01*
X88500D01*
X87500Y-66500D01*
X86500Y-65500D01*
X85500D01*
Y-66500D01*
X86500Y-67500D01*
X85500Y-68500D01*
Y-69500D01*
X95500D02*
X96500D01*
X97500Y-68500D01*
X98500Y-69500D01*
X99500D01*
Y-68500D01*
X98500Y-67500D01*
X99500Y-66500D01*
Y-65500D01*
X98500D01*
X97500Y-66500D01*
X96500Y-65500D01*
X95500D01*
Y-66500D01*
X96500Y-67500D01*
X95500Y-68500D01*
Y-69500D01*
X69866Y-52181D02*
Y-53181D01*
X71866D01*
Y-52181D01*
X72866D01*
Y-50181D01*
X71866D01*
Y-49181D01*
X69866D01*
Y-50181D01*
X68866D01*
Y-52181D01*
X69866D01*
Y-12811D02*
Y-13811D01*
X71866D01*
Y-12811D01*
X72866D01*
Y-10811D01*
X71866D01*
Y-9811D01*
X69866D01*
Y-10811D01*
X68866D01*
Y-12811D01*
X69866D01*
X5500Y55500D02*
X6500D01*
X7500Y56500D01*
X8500Y55500D01*
X9500D01*
Y56500D01*
X8500Y57500D01*
X9500Y58500D01*
Y59500D01*
X8500D01*
X7500Y58500D01*
X6500Y59500D01*
X5500D01*
Y58500D01*
X6500Y57500D01*
X5500Y56500D01*
Y55500D01*
X-4500Y65500D02*
X-3500D01*
X-2500Y66500D01*
X-1500Y65500D01*
X-500D01*
Y66500D01*
X-1500Y67500D01*
X-500Y68500D01*
Y69500D01*
X-1500D01*
X-2500Y68500D01*
X-3500Y69500D01*
X-4500D01*
Y68500D01*
X-3500Y67500D01*
X-4500Y66500D01*
Y65500D01*
X5500D02*
X6500D01*
X7500Y66500D01*
X8500Y65500D01*
X9500D01*
Y66500D01*
X8500Y67500D01*
X9500Y68500D01*
Y69500D01*
X8500D01*
X7500Y68500D01*
X6500Y69500D01*
X5500D01*
Y68500D01*
X6500Y67500D01*
X5500Y66500D01*
Y65500D01*
X-4500Y75500D02*
X-3500D01*
X-2500Y76500D01*
X-1500Y75500D01*
X-500D01*
Y76500D01*
X-1500Y77500D01*
X-500Y78500D01*
Y79500D01*
X-1500D01*
X-2500Y78500D01*
X-3500Y79500D01*
X-4500D01*
Y78500D01*
X-3500Y77500D01*
X-4500Y76500D01*
Y75500D01*
X5500D02*
X6500D01*
X7500Y76500D01*
X8500Y75500D01*
X9500D01*
Y76500D01*
X8500Y77500D01*
X9500Y78500D01*
Y79500D01*
X8500D01*
X7500Y78500D01*
X6500Y79500D01*
X5500D01*
Y78500D01*
X6500Y77500D01*
X5500Y76500D01*
Y75500D01*
Y85500D02*
X6500D01*
X7500Y86500D01*
X8500Y85500D01*
X9500D01*
Y86500D01*
X8500Y87500D01*
X9500Y88500D01*
Y89500D01*
X8500D01*
X7500Y88500D01*
X6500Y89500D01*
X5500D01*
Y88500D01*
X6500Y87500D01*
X5500Y86500D01*
Y85500D01*
X-4500Y95500D02*
X-3500D01*
X-2500Y96500D01*
X-1500Y95500D01*
X-500D01*
Y96500D01*
X-1500Y97500D01*
X-500Y98500D01*
Y99500D01*
X-1500D01*
X-2500Y98500D01*
X-3500Y99500D01*
X-4500D01*
Y98500D01*
X-3500Y97500D01*
X-4500Y96500D01*
Y95500D01*
X5500D02*
X6500D01*
X7500Y96500D01*
X8500Y95500D01*
X9500D01*
Y96500D01*
X8500Y97500D01*
X9500Y98500D01*
Y99500D01*
X8500D01*
X7500Y98500D01*
X6500Y99500D01*
X5500D01*
Y98500D01*
X6500Y97500D01*
X5500Y96500D01*
Y95500D01*
X15500Y65500D02*
X16500D01*
X17500Y66500D01*
X18500Y65500D01*
X19500D01*
Y66500D01*
X18500Y67500D01*
X19500Y68500D01*
Y69500D01*
X18500D01*
X17500Y68500D01*
X16500Y69500D01*
X15500D01*
Y68500D01*
X16500Y67500D01*
X15500Y66500D01*
Y65500D01*
X25500D02*
X26500D01*
X27500Y66500D01*
X28500Y65500D01*
X29500D01*
Y66500D01*
X28500Y67500D01*
X29500Y68500D01*
Y69500D01*
X28500D01*
X27500Y68500D01*
X26500Y69500D01*
X25500D01*
Y68500D01*
X26500Y67500D01*
X25500Y66500D01*
Y65500D01*
Y75500D02*
X26500D01*
X27500Y76500D01*
X28500Y75500D01*
X29500D01*
Y76500D01*
X28500Y77500D01*
X29500Y78500D01*
Y79500D01*
X28500D01*
X27500Y78500D01*
X26500Y79500D01*
X25500D01*
Y78500D01*
X26500Y77500D01*
X25500Y76500D01*
Y75500D01*
X15500D02*
X16500D01*
X17500Y76500D01*
X18500Y75500D01*
X19500D01*
Y76500D01*
X18500Y77500D01*
X19500Y78500D01*
Y79500D01*
X18500D01*
X17500Y78500D01*
X16500Y79500D01*
X15500D01*
Y78500D01*
X16500Y77500D01*
X15500Y76500D01*
Y75500D01*
Y85500D02*
X16500D01*
X17500Y86500D01*
X18500Y85500D01*
X19500D01*
Y86500D01*
X18500Y87500D01*
X19500Y88500D01*
Y89500D01*
X18500D01*
X17500Y88500D01*
X16500Y89500D01*
X15500D01*
Y88500D01*
X16500Y87500D01*
X15500Y86500D01*
Y85500D01*
X25500D02*
X26500D01*
X27500Y86500D01*
X28500Y85500D01*
X29500D01*
Y86500D01*
X28500Y87500D01*
X29500Y88500D01*
Y89500D01*
X28500D01*
X27500Y88500D01*
X26500Y89500D01*
X25500D01*
Y88500D01*
X26500Y87500D01*
X25500Y86500D01*
Y85500D01*
X15500Y95500D02*
X16500D01*
X17500Y96500D01*
X18500Y95500D01*
X19500D01*
Y96500D01*
X18500Y97500D01*
X19500Y98500D01*
Y99500D01*
X18500D01*
X17500Y98500D01*
X16500Y99500D01*
X15500D01*
Y98500D01*
X16500Y97500D01*
X15500Y96500D01*
Y95500D01*
X25500D02*
X26500D01*
X27500Y96500D01*
X28500Y95500D01*
X29500D01*
Y96500D01*
X28500Y97500D01*
X29500Y98500D01*
Y99500D01*
X28500D01*
X27500Y98500D01*
X26500Y99500D01*
X25500D01*
Y98500D01*
X26500Y97500D01*
X25500Y96500D01*
Y95500D01*
X85500Y5500D02*
X86500D01*
X87500Y6500D01*
X88500Y5500D01*
X89500D01*
Y6500D01*
X88500Y7500D01*
X89500Y8500D01*
Y9500D01*
X88500D01*
X87500Y8500D01*
X86500Y9500D01*
X85500D01*
Y8500D01*
X86500Y7500D01*
X85500Y6500D01*
Y5500D01*
X95500D02*
X96500D01*
X97500Y6500D01*
X98500Y5500D01*
X99500D01*
Y6500D01*
X98500Y7500D01*
X99500Y8500D01*
Y9500D01*
X98500D01*
X97500Y8500D01*
X96500Y9500D01*
X95500D01*
Y8500D01*
X96500Y7500D01*
X95500Y6500D01*
Y5500D01*
X85500Y15500D02*
X86500D01*
X87500Y16500D01*
X88500Y15500D01*
X89500D01*
Y16500D01*
X88500Y17500D01*
X89500Y18500D01*
Y19500D01*
X88500D01*
X87500Y18500D01*
X86500Y19500D01*
X85500D01*
Y18500D01*
X86500Y17500D01*
X85500Y16500D01*
Y15500D01*
X95500D02*
X96500D01*
X97500Y16500D01*
X98500Y15500D01*
X99500D01*
Y16500D01*
X98500Y17500D01*
X99500Y18500D01*
Y19500D01*
X98500D01*
X97500Y18500D01*
X96500Y19500D01*
X95500D01*
Y18500D01*
X96500Y17500D01*
X95500Y16500D01*
Y15500D01*
X85500Y25500D02*
X86500D01*
X87500Y26500D01*
X88500Y25500D01*
X89500D01*
Y26500D01*
X88500Y27500D01*
X89500Y28500D01*
Y29500D01*
X88500D01*
X87500Y28500D01*
X86500Y29500D01*
X85500D01*
Y28500D01*
X86500Y27500D01*
X85500Y26500D01*
Y25500D01*
X95500D02*
X96500D01*
X97500Y26500D01*
X98500Y25500D01*
X99500D01*
Y26500D01*
X98500Y27500D01*
X99500Y28500D01*
Y29500D01*
X98500D01*
X97500Y28500D01*
X96500Y29500D01*
X95500D01*
Y28500D01*
X96500Y27500D01*
X95500Y26500D01*
Y25500D01*
X85500Y35500D02*
X86500D01*
X87500Y36500D01*
X88500Y35500D01*
X89500D01*
Y36500D01*
X88500Y37500D01*
X89500Y38500D01*
Y39500D01*
X88500D01*
X87500Y38500D01*
X86500Y39500D01*
X85500D01*
Y38500D01*
X86500Y37500D01*
X85500Y36500D01*
Y35500D01*
X95500D02*
X96500D01*
X97500Y36500D01*
X98500Y35500D01*
X99500D01*
Y36500D01*
X98500Y37500D01*
X99500Y38500D01*
Y39500D01*
X98500D01*
X97500Y38500D01*
X96500Y39500D01*
X95500D01*
Y38500D01*
X96500Y37500D01*
X95500Y36500D01*
Y35500D01*
X35500Y65500D02*
X36500D01*
X37500Y66500D01*
X38500Y65500D01*
X39500D01*
Y66500D01*
X38500Y67500D01*
X39500Y68500D01*
Y69500D01*
X38500D01*
X37500Y68500D01*
X36500Y69500D01*
X35500D01*
Y68500D01*
X36500Y67500D01*
X35500Y66500D01*
Y65500D01*
X45500D02*
X46500D01*
X47500Y66500D01*
X48500Y65500D01*
X49500D01*
Y66500D01*
X48500Y67500D01*
X49500Y68500D01*
Y69500D01*
X48500D01*
X47500Y68500D01*
X46500Y69500D01*
X45500D01*
Y68500D01*
X46500Y67500D01*
X45500Y66500D01*
Y65500D01*
X55500D02*
X56500D01*
X57500Y66500D01*
X58500Y65500D01*
X59500D01*
Y66500D01*
X58500Y67500D01*
X59500Y68500D01*
Y69500D01*
X58500D01*
X57500Y68500D01*
X56500Y69500D01*
X55500D01*
Y68500D01*
X56500Y67500D01*
X55500Y66500D01*
Y65500D01*
X65500D02*
X66500D01*
X67500Y66500D01*
X68500Y65500D01*
X69500D01*
Y66500D01*
X68500Y67500D01*
X69500Y68500D01*
Y69500D01*
X68500D01*
X67500Y68500D01*
X66500Y69500D01*
X65500D01*
Y68500D01*
X66500Y67500D01*
X65500Y66500D01*
Y65500D01*
X45500Y75500D02*
X46500D01*
X47500Y76500D01*
X48500Y75500D01*
X49500D01*
Y76500D01*
X48500Y77500D01*
X49500Y78500D01*
Y79500D01*
X48500D01*
X47500Y78500D01*
X46500Y79500D01*
X45500D01*
Y78500D01*
X46500Y77500D01*
X45500Y76500D01*
Y75500D01*
X35500D02*
X36500D01*
X37500Y76500D01*
X38500Y75500D01*
X39500D01*
Y76500D01*
X38500Y77500D01*
X39500Y78500D01*
Y79500D01*
X38500D01*
X37500Y78500D01*
X36500Y79500D01*
X35500D01*
Y78500D01*
X36500Y77500D01*
X35500Y76500D01*
Y75500D01*
X55500D02*
X56500D01*
X57500Y76500D01*
X58500Y75500D01*
X59500D01*
Y76500D01*
X58500Y77500D01*
X59500Y78500D01*
Y79500D01*
X58500D01*
X57500Y78500D01*
X56500Y79500D01*
X55500D01*
Y78500D01*
X56500Y77500D01*
X55500Y76500D01*
Y75500D01*
X65500D02*
X66500D01*
X67500Y76500D01*
X68500Y75500D01*
X69500D01*
Y76500D01*
X68500Y77500D01*
X69500Y78500D01*
Y79500D01*
X68500D01*
X67500Y78500D01*
X66500Y79500D01*
X65500D01*
Y78500D01*
X66500Y77500D01*
X65500Y76500D01*
Y75500D01*
X75500D02*
X76500D01*
X77500Y76500D01*
X78500Y75500D01*
X79500D01*
Y76500D01*
X78500Y77500D01*
X79500Y78500D01*
Y79500D01*
X78500D01*
X77500Y78500D01*
X76500Y79500D01*
X75500D01*
Y78500D01*
X76500Y77500D01*
X75500Y76500D01*
Y75500D01*
X35500Y85500D02*
X36500D01*
X37500Y86500D01*
X38500Y85500D01*
X39500D01*
Y86500D01*
X38500Y87500D01*
X39500Y88500D01*
Y89500D01*
X38500D01*
X37500Y88500D01*
X36500Y89500D01*
X35500D01*
Y88500D01*
X36500Y87500D01*
X35500Y86500D01*
Y85500D01*
X45500D02*
X46500D01*
X47500Y86500D01*
X48500Y85500D01*
X49500D01*
Y86500D01*
X48500Y87500D01*
X49500Y88500D01*
Y89500D01*
X48500D01*
X47500Y88500D01*
X46500Y89500D01*
X45500D01*
Y88500D01*
X46500Y87500D01*
X45500Y86500D01*
Y85500D01*
X55500D02*
X56500D01*
X57500Y86500D01*
X58500Y85500D01*
X59500D01*
Y86500D01*
X58500Y87500D01*
X59500Y88500D01*
Y89500D01*
X58500D01*
X57500Y88500D01*
X56500Y89500D01*
X55500D01*
Y88500D01*
X56500Y87500D01*
X55500Y86500D01*
Y85500D01*
X65500D02*
X66500D01*
X67500Y86500D01*
X68500Y85500D01*
X69500D01*
Y86500D01*
X68500Y87500D01*
X69500Y88500D01*
Y89500D01*
X68500D01*
X67500Y88500D01*
X66500Y89500D01*
X65500D01*
Y88500D01*
X66500Y87500D01*
X65500Y86500D01*
Y85500D01*
X45500Y95500D02*
X46500D01*
X47500Y96500D01*
X48500Y95500D01*
X49500D01*
Y96500D01*
X48500Y97500D01*
X49500Y98500D01*
Y99500D01*
X48500D01*
X47500Y98500D01*
X46500Y99500D01*
X45500D01*
Y98500D01*
X46500Y97500D01*
X45500Y96500D01*
Y95500D01*
X35500D02*
X36500D01*
X37500Y96500D01*
X38500Y95500D01*
X39500D01*
Y96500D01*
X38500Y97500D01*
X39500Y98500D01*
Y99500D01*
X38500D01*
X37500Y98500D01*
X36500Y99500D01*
X35500D01*
Y98500D01*
X36500Y97500D01*
X35500Y96500D01*
Y95500D01*
X55500D02*
X56500D01*
X57500Y96500D01*
X58500Y95500D01*
X59500D01*
Y96500D01*
X58500Y97500D01*
X59500Y98500D01*
Y99500D01*
X58500D01*
X57500Y98500D01*
X56500Y99500D01*
X55500D01*
Y98500D01*
X56500Y97500D01*
X55500Y96500D01*
Y95500D01*
X65500D02*
X66500D01*
X67500Y96500D01*
X68500Y95500D01*
X69500D01*
Y96500D01*
X68500Y97500D01*
X69500Y98500D01*
Y99500D01*
X68500D01*
X67500Y98500D01*
X66500Y99500D01*
X65500D01*
Y98500D01*
X66500Y97500D01*
X65500Y96500D01*
Y95500D01*
X85500Y45500D02*
X86500D01*
X87500Y46500D01*
X88500Y45500D01*
X89500D01*
Y46500D01*
X88500Y47500D01*
X89500Y48500D01*
Y49500D01*
X88500D01*
X87500Y48500D01*
X86500Y49500D01*
X85500D01*
Y48500D01*
X86500Y47500D01*
X85500Y46500D01*
Y45500D01*
X95500D02*
X96500D01*
X97500Y46500D01*
X98500Y45500D01*
X99500D01*
Y46500D01*
X98500Y47500D01*
X99500Y48500D01*
Y49500D01*
X98500D01*
X97500Y48500D01*
X96500Y49500D01*
X95500D01*
Y48500D01*
X96500Y47500D01*
X95500Y46500D01*
Y45500D01*
X75500Y65500D02*
X76500D01*
X77500Y66500D01*
X78500Y65500D01*
X79500D01*
Y66500D01*
X78500Y67500D01*
X79500Y68500D01*
Y69500D01*
X78500D01*
X77500Y68500D01*
X76500Y69500D01*
X75500D01*
Y68500D01*
X76500Y67500D01*
X75500Y66500D01*
Y65500D01*
X85500D02*
X86500D01*
X87500Y66500D01*
X88500Y65500D01*
X89500D01*
Y66500D01*
X88500Y67500D01*
X89500Y68500D01*
Y69500D01*
X88500D01*
X87500Y68500D01*
X86500Y69500D01*
X85500D01*
Y68500D01*
X86500Y67500D01*
X85500Y66500D01*
Y65500D01*
X95500D02*
X96500D01*
X97500Y66500D01*
X98500Y65500D01*
X99500D01*
Y66500D01*
X98500Y67500D01*
X99500Y68500D01*
Y69500D01*
X98500D01*
X97500Y68500D01*
X96500Y69500D01*
X95500D01*
Y68500D01*
X96500Y67500D01*
X95500Y66500D01*
Y65500D01*
X85500Y75500D02*
X86500D01*
X87500Y76500D01*
X88500Y75500D01*
X89500D01*
Y76500D01*
X88500Y77500D01*
X89500Y78500D01*
Y79500D01*
X88500D01*
X87500Y78500D01*
X86500Y79500D01*
X85500D01*
Y78500D01*
X86500Y77500D01*
X85500Y76500D01*
Y75500D01*
X95500D02*
X96500D01*
X97500Y76500D01*
X98500Y75500D01*
X99500D01*
Y76500D01*
X98500Y77500D01*
X99500Y78500D01*
Y79500D01*
X98500D01*
X97500Y78500D01*
X96500Y79500D01*
X95500D01*
Y78500D01*
X96500Y77500D01*
X95500Y76500D01*
Y75500D01*
X75500Y85500D02*
X76500D01*
X77500Y86500D01*
X78500Y85500D01*
X79500D01*
Y86500D01*
X78500Y87500D01*
X79500Y88500D01*
Y89500D01*
X78500D01*
X77500Y88500D01*
X76500Y89500D01*
X75500D01*
Y88500D01*
X76500Y87500D01*
X75500Y86500D01*
Y85500D01*
X85500D02*
X86500D01*
X87500Y86500D01*
X88500Y85500D01*
X89500D01*
Y86500D01*
X88500Y87500D01*
X89500Y88500D01*
Y89500D01*
X88500D01*
X87500Y88500D01*
X86500Y89500D01*
X85500D01*
Y88500D01*
X86500Y87500D01*
X85500Y86500D01*
Y85500D01*
X95500D02*
X96500D01*
X97500Y86500D01*
X98500Y85500D01*
X99500D01*
Y86500D01*
X98500Y87500D01*
X99500Y88500D01*
Y89500D01*
X98500D01*
X97500Y88500D01*
X96500Y89500D01*
X95500D01*
Y88500D01*
X96500Y87500D01*
X95500Y86500D01*
Y85500D01*
X75500Y95500D02*
X76500D01*
X77500Y96500D01*
X78500Y95500D01*
X79500D01*
Y96500D01*
X78500Y97500D01*
X79500Y98500D01*
Y99500D01*
X78500D01*
X77500Y98500D01*
X76500Y99500D01*
X75500D01*
Y98500D01*
X76500Y97500D01*
X75500Y96500D01*
Y95500D01*
X85500D02*
X86500D01*
X87500Y96500D01*
X88500Y95500D01*
X89500D01*
Y96500D01*
X88500Y97500D01*
X89500Y98500D01*
Y99500D01*
X88500D01*
X87500Y98500D01*
X86500Y99500D01*
X85500D01*
Y98500D01*
X86500Y97500D01*
X85500Y96500D01*
Y95500D01*
X95500D02*
X96500D01*
X97500Y96500D01*
X98500Y95500D01*
X99500D01*
Y96500D01*
X98500Y97500D01*
X99500Y98500D01*
Y99500D01*
X98500D01*
X97500Y98500D01*
X96500Y99500D01*
X95500D01*
Y98500D01*
X96500Y97500D01*
X95500Y96500D01*
Y95500D01*
X-71882Y-45307D02*
Y-41307D01*
X-67882D01*
Y-45307D01*
X-71882D01*
X-45307Y-27591D02*
Y-23591D01*
X-41307D01*
Y-27591D01*
X-45307D01*
X-38417Y-15779D02*
Y-11779D01*
X-34417D01*
Y-15779D01*
X-38417D01*
X-74835Y5874D02*
Y9874D01*
X-70835D01*
Y5874D01*
X-74835D01*
X-75819Y3906D02*
Y7905D01*
X-71819D01*
Y3906D01*
X-75819D01*
X-40386Y-15779D02*
Y-11779D01*
X-36386D01*
Y-15779D01*
X-40386D01*
X-70898Y-47276D02*
Y-43276D01*
X-66898D01*
Y-47276D01*
X-70898D01*
X-47276Y-27591D02*
Y-23591D01*
X-43276D01*
Y-27591D01*
X-47276D01*
X-9874Y-27591D02*
Y-23591D01*
X-5874D01*
Y-27591D01*
X-9874D01*
X-7905Y-47276D02*
Y-43276D01*
X-3906D01*
Y-47276D01*
X-7905D01*
X-5937Y-43339D02*
Y-39339D01*
X-1937D01*
Y-43339D01*
X-5937D01*
X35402Y30480D02*
Y34480D01*
X39402D01*
Y30480D01*
X35402D01*
X31465Y-3968D02*
Y32D01*
X35465D01*
Y-3968D01*
X31465D01*
X29496D02*
Y32D01*
X33496D01*
Y-3968D01*
X29496D01*
X25559Y-11842D02*
Y-7842D01*
X29559D01*
Y-11842D01*
X25559D01*
X23591Y-47276D02*
Y-43276D01*
X27591D01*
Y-47276D01*
X23591D01*
X-22669Y-46291D02*
Y-42291D01*
X-18669D01*
Y-46291D01*
X-22669D01*
Y-61055D02*
Y-57055D01*
X-18669D01*
Y-61055D01*
X-22669D01*
X-18732Y-53673D02*
Y-49673D01*
X-14732D01*
Y-53673D01*
X-18732D01*
X-33988Y42291D02*
Y46291D01*
X-29988D01*
Y42291D01*
X-33988D01*
X3906Y47213D02*
Y51213D01*
X7905D01*
Y47213D01*
X3906D01*
X-2000D02*
Y51213D01*
X2000D01*
Y47213D01*
X-2000D01*
X-7905D02*
Y51213D01*
X-3906D01*
Y47213D01*
X-7905D01*
X-13811D02*
Y51213D01*
X-9811D01*
Y47213D01*
X-13811D01*
X-19716D02*
Y51213D01*
X-15717D01*
Y47213D01*
X-19716D01*
X-21685D02*
Y51213D01*
X-17685D01*
Y47213D01*
X-21685D01*
X-33988Y44260D02*
Y48260D01*
X-29988D01*
Y44260D01*
X-33988D01*
X-25130Y47705D02*
Y51705D01*
X-21130D01*
Y47705D01*
X-25130D01*
X-21685Y36386D02*
Y40386D01*
X-17685D01*
Y36386D01*
X-21685D01*
X-28083Y47705D02*
Y51705D01*
X-24083D01*
Y47705D01*
X-28083D01*
X-31035D02*
Y51705D01*
X-27035D01*
Y47705D01*
X-31035D01*
X-33988D02*
Y51705D01*
X-29988D01*
Y47705D01*
X-33988D01*
X-36941D02*
Y51705D01*
X-32941D01*
Y47705D01*
X-36941D01*
X-39894D02*
Y51705D01*
X-35894D01*
Y47705D01*
X-39894D01*
X-15779Y47213D02*
Y51213D01*
X-11779D01*
Y47213D01*
X-15779D01*
X1937D02*
Y51213D01*
X5937D01*
Y47213D01*
X1937D01*
X-3968D02*
Y51213D01*
X32D01*
Y47213D01*
X-3968D01*
X-9874D02*
Y51213D01*
X-5874D01*
Y47213D01*
X-9874D01*
X-29559Y49181D02*
Y53181D01*
X-25559D01*
Y49181D01*
X-29559D01*
X-26606D02*
Y53181D01*
X-22606D01*
Y49181D01*
X-26606D01*
X1937Y36386D02*
Y40386D01*
X5937D01*
Y36386D01*
X1937D01*
X-3968D02*
Y40386D01*
X32D01*
Y36386D01*
X-3968D01*
X-9874D02*
Y40386D01*
X-5874D01*
Y36386D01*
X-9874D01*
X-15779D02*
Y40386D01*
X-11779D01*
Y36386D01*
X-15779D01*
X-27591D02*
Y40386D01*
X-23591D01*
Y36386D01*
X-27591D01*
X-41370Y49181D02*
Y53181D01*
X-37370D01*
Y49181D01*
X-41370D01*
X-38417D02*
Y53181D01*
X-34417D01*
Y49181D01*
X-38417D01*
X-35465D02*
Y53181D01*
X-31465D01*
Y49181D01*
X-35465D01*
X-32512D02*
Y53181D01*
X-28512D01*
Y49181D01*
X-32512D01*
X15717Y41307D02*
Y45307D01*
X19716D01*
Y41307D01*
X15717D01*
X7842D02*
Y45307D01*
X11842D01*
Y41307D01*
X7842D01*
X35402D02*
Y45307D01*
X39402D01*
Y41307D01*
X35402D01*
X-7905Y18669D02*
Y22669D01*
X-3906D01*
Y18669D01*
X-7905D01*
X33433Y25559D02*
Y29559D01*
X37433D01*
Y25559D01*
X33433D01*
X-100425Y-100425D02*
Y-96425D01*
X-96425D01*
Y-100425D01*
X-100425D01*
X-80740D02*
Y-96425D01*
X-76740D01*
Y-100425D01*
X-80740D01*
X-100425Y90520D02*
Y94520D01*
X-96425D01*
Y90520D01*
X-100425D01*
Y96425D02*
Y100425D01*
X-96425D01*
Y96425D01*
X-100425D01*
X-31528Y-21685D02*
Y-17685D01*
X-27528D01*
Y-21685D01*
X-31528D01*
Y-15779D02*
Y-11779D01*
X-27528D01*
Y-15779D01*
X-31528D01*
Y-3968D02*
Y32D01*
X-27528D01*
Y-3968D01*
X-31528D01*
Y-9874D02*
Y-5874D01*
X-27528D01*
Y-9874D01*
X-31528D01*
X-25622Y-21685D02*
Y-17685D01*
X-21622D01*
Y-21685D01*
X-25622D01*
X-27591D02*
Y-17685D01*
X-23591D01*
Y-21685D01*
X-27591D01*
X-25622Y-7905D02*
Y-3906D01*
X-21622D01*
Y-7905D01*
X-25622D01*
X-17748Y-6429D02*
Y-2429D01*
X-13748D01*
Y-6429D01*
X-17748D01*
X-19716Y-12827D02*
Y-8827D01*
X-15717D01*
Y-12827D01*
X-19716D01*
X-17748D02*
Y-8827D01*
X-13748D01*
Y-12827D01*
X-17748D01*
X-18732Y-21685D02*
Y-17685D01*
X-14732D01*
Y-21685D01*
X-18732D01*
X-19716Y-2984D02*
Y1016D01*
X-15717D01*
Y-2984D01*
X-19716D01*
X-17748Y-4461D02*
Y-461D01*
X-13748D01*
Y-4461D01*
X-17748D01*
X-70898Y-51213D02*
Y-47213D01*
X-66898D01*
Y-51213D01*
X-70898D01*
X21125Y-90750D02*
Y-86750D01*
X25125D01*
Y-90750D01*
X21125D01*
X19250Y-92000D02*
Y-88000D01*
X23250D01*
Y-92000D01*
X19250D01*
X67882Y-39402D02*
Y-35402D01*
X71882D01*
Y-39402D01*
X67882D01*
Y-37433D02*
Y-33433D01*
X71882D01*
Y-37433D01*
X67882D01*
X72803Y-17748D02*
Y-13748D01*
X76803D01*
Y-17748D01*
X72803D01*
X-44323Y-33496D02*
Y-29496D01*
X-40323D01*
Y-33496D01*
X-44323D01*
Y-40386D02*
Y-36386D01*
X-40323D01*
Y-40386D01*
X-44323D01*
X20500Y-99500D02*
Y-95500D01*
X24500D01*
Y-99500D01*
X20500D01*
X29875Y-88250D02*
Y-84250D01*
X33875D01*
Y-88250D01*
X29875D01*
X67882Y-48260D02*
Y-44260D01*
X71882D01*
Y-48260D01*
X67882D01*
X84614Y-60071D02*
Y-56071D01*
X88614D01*
Y-60071D01*
X84614D01*
X90520D02*
Y-56071D01*
X94520D01*
Y-60071D01*
X90520D01*
X86583Y-51213D02*
Y-47213D01*
X90583D01*
Y-51213D01*
X86583D01*
X44260Y-59087D02*
Y-55087D01*
X48260D01*
Y-59087D01*
X44260D01*
X50165D02*
Y-55087D01*
X54165D01*
Y-59087D01*
X50165D01*
X46228D02*
Y-55087D01*
X50228D01*
Y-59087D01*
X46228D01*
X37370D02*
Y-55087D01*
X41370D01*
Y-59087D01*
X37370D01*
X80677Y-60071D02*
Y-56071D01*
X84677D01*
Y-60071D01*
X80677D01*
X96917Y-46784D02*
Y-42783D01*
X100917D01*
Y-46784D01*
X96917D01*
Y-38909D02*
Y-34909D01*
X100917D01*
Y-38909D01*
X96917D01*
X70500Y96125D02*
Y100125D01*
X74500D01*
Y96125D01*
X70500D01*
Y94250D02*
Y98250D01*
X74500D01*
Y94250D01*
X70500D01*
X39875Y78625D02*
Y82625D01*
X43875D01*
Y78625D01*
X39875D01*
X41750Y79250D02*
Y83250D01*
X45750D01*
Y79250D01*
X41750D01*
X19875Y89875D02*
Y93875D01*
X23875D01*
Y89875D01*
X19875D01*
X21750Y90500D02*
Y94500D01*
X25750D01*
Y90500D01*
X21750D01*
X-70898Y-17748D02*
Y-13748D01*
X-66898D01*
Y-17748D01*
X-70898D01*
X31465Y20638D02*
Y24638D01*
X35465D01*
Y20638D01*
X31465D01*
X29496Y14732D02*
Y18732D01*
X33496D01*
Y14732D01*
X29496D01*
Y12764D02*
Y16764D01*
X33496D01*
Y12764D01*
X29496D01*
X27528Y14732D02*
Y18732D01*
X31528D01*
Y14732D01*
X27528D01*
Y12764D02*
Y16764D01*
X31528D01*
Y12764D01*
X27528D01*
Y10795D02*
Y14795D01*
X31528D01*
Y10795D01*
X27528D01*
X72803Y18669D02*
Y22669D01*
X76803D01*
Y18669D01*
X72803D01*
Y16701D02*
Y20701D01*
X76803D01*
Y16701D01*
X72803D01*
Y55087D02*
Y59087D01*
X76803D01*
Y55087D01*
X72803D01*
X73787Y58039D02*
Y62039D01*
X77787D01*
Y58039D01*
X73787D01*
X46720Y57055D02*
Y61055D01*
X50721D01*
Y57055D01*
X46720D01*
X500Y93000D02*
Y97000D01*
X4500D01*
Y93000D01*
X500D01*
Y94875D02*
Y98875D01*
X4500D01*
Y94875D01*
X500D01*
X52626Y58531D02*
Y62532D01*
X56626D01*
Y58531D01*
X52626D01*
X54594D02*
Y62532D01*
X58595D01*
Y58531D01*
X54594D01*
X56071Y60008D02*
Y64008D01*
X60071D01*
Y60008D01*
X56071D01*
X57547Y61484D02*
Y65484D01*
X61547D01*
Y61484D01*
X57547D01*
X13000Y69250D02*
Y73250D01*
X17000D01*
Y69250D01*
X13000D01*
X78709Y59516D02*
Y63516D01*
X82709D01*
Y59516D01*
X78709D01*
X59250Y83000D02*
Y87000D01*
X63250D01*
Y83000D01*
X59250D01*
X60500Y85500D02*
Y89500D01*
X64500D01*
Y85500D01*
X60500D01*
X79201Y44260D02*
Y48260D01*
X83201D01*
Y44260D01*
X79201D01*
X78709Y48197D02*
Y52197D01*
X82709D01*
Y48197D01*
X78709D01*
X89875Y-95750D02*
Y-91750D01*
X93875D01*
Y-95750D01*
X89875D01*
Y-92000D02*
Y-88000D01*
X93875D01*
Y-92000D01*
X89875D01*
X37370Y-23653D02*
Y-19654D01*
X41370D01*
Y-23653D01*
X37370D01*
X35402Y-59087D02*
Y-55087D01*
X39402D01*
Y-59087D01*
X35402D01*
X33433D02*
Y-55087D01*
X37433D01*
Y-59087D01*
X33433D01*
X31465D02*
Y-55087D01*
X35465D01*
Y-59087D01*
X31465D01*
X27528D02*
Y-55087D01*
X31528D01*
Y-59087D01*
X27528D01*
X25559D02*
Y-55087D01*
X29559D01*
Y-59087D01*
X25559D01*
X23591D02*
Y-55087D01*
X27591D01*
Y-59087D01*
X23591D01*
X78709Y52167D02*
Y56167D01*
X82709D01*
Y52167D01*
X78709D01*
X-70898Y9811D02*
Y13811D01*
X-66898D01*
Y9811D01*
X-70898D01*
Y-61055D02*
Y-57055D01*
X-66898D01*
Y-61055D01*
X-70898D01*
Y-68929D02*
Y-64929D01*
X-66898D01*
Y-68929D01*
X-70898D01*
X83630Y-22669D02*
Y-18669D01*
X87630D01*
Y-22669D01*
X83630D01*
Y-14795D02*
Y-10795D01*
X87630D01*
Y-14795D01*
X83630D01*
Y-10858D02*
Y-6858D01*
X87630D01*
Y-10858D01*
X83630D01*
X72803Y-5937D02*
Y-1937D01*
X76803D01*
Y-5937D01*
X72803D01*
Y-9874D02*
Y-5874D01*
X76803D01*
Y-9874D01*
X72803D01*
X-3968Y-21685D02*
Y-17685D01*
X32D01*
Y-21685D01*
X-3968D01*
X-13319Y-22177D02*
Y-18177D01*
X-9319D01*
Y-22177D01*
X-13319D01*
X-15287Y-21685D02*
Y-17685D01*
X-11287D01*
Y-21685D01*
X-15287D01*
X5874Y-33496D02*
Y-29496D01*
X9874D01*
Y-33496D01*
X5874D01*
X-2000Y-37433D02*
Y-33433D01*
X2000D01*
Y-37433D01*
X-2000D01*
X5874D02*
Y-33433D01*
X9874D01*
Y-37433D01*
X5874D01*
X7842Y-43339D02*
Y-39339D01*
X11842D01*
Y-43339D01*
X7842D01*
X-32Y-31528D02*
Y-27528D01*
X3968D01*
Y-31528D01*
X-32D01*
X27528D02*
Y-27528D01*
X31528D01*
Y-31528D01*
X27528D01*
X-69913Y-53181D02*
Y-49181D01*
X-65913D01*
Y-53181D01*
X-69913D01*
X-70898Y-19716D02*
Y-15717D01*
X-66898D01*
Y-19716D01*
X-70898D01*
X-7905Y-5937D02*
Y-1937D01*
X-3906D01*
Y-5937D01*
X-7905D01*
X67390Y-29067D02*
Y-25067D01*
X71390D01*
Y-29067D01*
X67390D01*
Y-25130D02*
Y-21130D01*
X71390D01*
Y-25130D01*
X67390D01*
Y-21193D02*
Y-17193D01*
X71390D01*
Y-21193D01*
X67390D01*
X83630Y-1016D02*
Y2984D01*
X87630D01*
Y-1016D01*
X83630D01*
X91012Y-9382D02*
Y-5382D01*
X95012D01*
Y-9382D01*
X91012D01*
X31465Y1445D02*
Y5445D01*
X35465D01*
Y1445D01*
X31465D01*
X96917Y-34480D02*
Y-30480D01*
X100917D01*
Y-34480D01*
X96917D01*
Y-26606D02*
Y-22606D01*
X100917D01*
Y-26606D01*
X96917D01*
X83138Y-35465D02*
Y-31465D01*
X87138D01*
Y-35465D01*
X83138D01*
Y-47276D02*
Y-43276D01*
X87138D01*
Y-47276D01*
X83138D01*
X27528Y16701D02*
Y20701D01*
X31528D01*
Y16701D01*
X27528D01*
X-9874Y953D02*
Y4953D01*
X-5874D01*
Y953D01*
X-9874D01*
X72803Y10795D02*
Y14795D01*
X76803D01*
Y10795D01*
X72803D01*
Y12764D02*
Y16764D01*
X76803D01*
Y12764D01*
X72803D01*
Y14732D02*
Y18732D01*
X76803D01*
Y14732D01*
X72803D01*
X81661Y54102D02*
Y58102D01*
X85661D01*
Y54102D01*
X81661D01*
Y48197D02*
Y52197D01*
X85661D01*
Y48197D01*
X81661D01*
X13748Y-37433D02*
Y-33433D01*
X17748D01*
Y-37433D01*
X13748D01*
X29496Y-47276D02*
Y-43276D01*
X33496D01*
Y-47276D01*
X29496D01*
X24250Y-85125D02*
Y-81125D01*
X28250D01*
Y-85125D01*
X24250D01*
X22375Y-85750D02*
Y-81750D01*
X26375D01*
Y-85750D01*
X22375D01*
X16750Y-84500D02*
Y-80500D01*
X20750D01*
Y-84500D01*
X16750D01*
Y-74500D02*
Y-70500D01*
X20750D01*
Y-74500D01*
X16750D01*
X-19500Y-75750D02*
Y-71750D01*
X-15500D01*
Y-75750D01*
X-19500D01*
X-36449Y-54658D02*
Y-50657D01*
X-32449D01*
Y-54658D01*
X-36449D01*
X-31528Y-49244D02*
Y-45244D01*
X-27528D01*
Y-49244D01*
X-31528D01*
Y-56134D02*
Y-52134D01*
X-27528D01*
Y-56134D01*
X-31528D01*
X-29559D02*
Y-52134D01*
X-25559D01*
Y-56134D01*
X-29559D01*
X-28575Y-52197D02*
Y-48197D01*
X-24575D01*
Y-52197D01*
X-28575D01*
Y-49244D02*
Y-45244D01*
X-24575D01*
Y-49244D01*
X-28575D01*
X-27591Y-56134D02*
Y-52134D01*
X-23591D01*
Y-56134D01*
X-27591D01*
X-25622Y-55051D02*
Y-51051D01*
X-21622D01*
Y-55051D01*
X-25622D01*
Y-49244D02*
Y-45244D01*
X-21622D01*
Y-49244D01*
X-25622D01*
Y-52197D02*
Y-48197D01*
X-21622D01*
Y-52197D01*
X-25622D01*
X-83693Y-30051D02*
Y-26051D01*
X-79693D01*
Y-30051D01*
X-83693D01*
Y-27098D02*
Y-23098D01*
X-79693D01*
Y-27098D01*
X-83693D01*
Y-33004D02*
Y-29004D01*
X-79693D01*
Y-33004D01*
X-83693D01*
Y-35957D02*
Y-31957D01*
X-79693D01*
Y-35957D01*
X-83693D01*
X-44323Y-46291D02*
Y-42291D01*
X-40323D01*
Y-46291D01*
X-44323D01*
X-36449D02*
Y-42291D01*
X-32449D01*
Y-46291D01*
X-36449D01*
Y-28575D02*
Y-24575D01*
X-32449D01*
Y-28575D01*
X-36449D01*
Y-38909D02*
Y-34909D01*
X-32449D01*
Y-38909D01*
X-36449D01*
X-33004Y-26606D02*
Y-22606D01*
X-29004D01*
Y-26606D01*
X-33004D01*
Y-41862D02*
Y-37862D01*
X-29004D01*
Y-41862D01*
X-33004D01*
X-31528Y-40386D02*
Y-36386D01*
X-27528D01*
Y-40386D01*
X-31528D01*
X-31429Y-33496D02*
Y-29496D01*
X-27429D01*
Y-33496D01*
X-31429D01*
X-31035Y-43831D02*
Y-39831D01*
X-27035D01*
Y-43831D01*
X-31035D01*
Y-28083D02*
Y-24083D01*
X-27035D01*
Y-28083D01*
X-31035D01*
X-29559Y-40386D02*
Y-36386D01*
X-25559D01*
Y-40386D01*
X-29559D01*
X-28575Y-36449D02*
Y-32449D01*
X-24575D01*
Y-36449D01*
X-28575D01*
Y-33496D02*
Y-29496D01*
X-24575D01*
Y-33496D01*
X-28575D01*
X-27591Y-42354D02*
Y-38354D01*
X-23591D01*
Y-42354D01*
X-27591D01*
Y-26606D02*
Y-22606D01*
X-23591D01*
Y-26606D01*
X-27591D01*
Y-40386D02*
Y-36386D01*
X-23591D01*
Y-40386D01*
X-27591D01*
X-25622Y-46291D02*
Y-42291D01*
X-21622D01*
Y-46291D01*
X-25622D01*
Y-36449D02*
Y-32449D01*
X-21622D01*
Y-36449D01*
X-25622D01*
Y-30543D02*
Y-26543D01*
X-21622D01*
Y-30543D01*
X-25622D01*
Y-39303D02*
Y-35303D01*
X-21622D01*
Y-39303D01*
X-25622D01*
Y-33496D02*
Y-29496D01*
X-21622D01*
Y-33496D01*
X-25622D01*
Y-26606D02*
Y-22606D01*
X-21622D01*
Y-26606D01*
X-25622D01*
X-23653Y-56134D02*
Y-52134D01*
X-19654D01*
Y-56134D01*
X-23653D01*
X-22669Y-52197D02*
Y-48197D01*
X-18669D01*
Y-52197D01*
X-22669D01*
Y-49244D02*
Y-45244D01*
X-18669D01*
Y-49244D01*
X-22669D01*
X-22625Y-73250D02*
Y-69250D01*
X-18625D01*
Y-73250D01*
X-22625D01*
X-20750D02*
Y-69250D01*
X-16750D01*
Y-73250D01*
X-20750D01*
X-21375Y-75750D02*
Y-71750D01*
X-17375D01*
Y-75750D01*
X-21375D01*
X-17256Y-52197D02*
Y-48197D01*
X-13256D01*
Y-52197D01*
X-17256D01*
X-17010Y-50228D02*
Y-46228D01*
X-13010D01*
Y-50228D01*
X-17010D01*
X-16272Y-60563D02*
Y-56563D01*
X-12272D01*
Y-60563D01*
X-16272D01*
X-15287Y-51213D02*
Y-47213D01*
X-11287D01*
Y-51213D01*
X-15287D01*
X-14303Y-60563D02*
Y-56563D01*
X-10303D01*
Y-60563D01*
X-14303D01*
X-9874Y-55150D02*
Y-51150D01*
X-5874D01*
Y-55150D01*
X-9874D01*
Y-53181D02*
Y-49181D01*
X-5874D01*
Y-53181D01*
X-9874D01*
X-6429Y-62039D02*
Y-58039D01*
X-2429D01*
Y-62039D01*
X-6429D01*
X-5445Y-49244D02*
Y-45244D01*
X-1445D01*
Y-49244D01*
X-5445D01*
X-25622Y-44323D02*
Y-40323D01*
X-21622D01*
Y-44323D01*
X-25622D01*
X-23653Y-40386D02*
Y-36386D01*
X-19654D01*
Y-40386D01*
X-23653D01*
X-22669Y-30543D02*
Y-26543D01*
X-18669D01*
Y-30543D01*
X-22669D01*
Y-36449D02*
Y-32449D01*
X-18669D01*
Y-36449D01*
X-22669D01*
Y-33496D02*
Y-29496D01*
X-18669D01*
Y-33496D01*
X-22669D01*
X-21931Y-42600D02*
Y-38600D01*
X-17931D01*
Y-42600D01*
X-21931D01*
X-19716Y-42354D02*
Y-38354D01*
X-15717D01*
Y-42354D01*
X-19716D01*
X-18732Y-37433D02*
Y-33433D01*
X-14732D01*
Y-37433D01*
X-18732D01*
Y-35465D02*
Y-31465D01*
X-14732D01*
Y-35465D01*
X-18732D01*
X-18240Y-33496D02*
Y-29496D01*
X-14240D01*
Y-33496D01*
X-18240D01*
Y-28575D02*
Y-24575D01*
X-14240D01*
Y-28575D01*
X-18240D01*
X-17748Y-48506D02*
Y-44506D01*
X-13748D01*
Y-48506D01*
X-17748D01*
X-17734Y-31528D02*
Y-27528D01*
X-13734D01*
Y-31528D01*
X-17734D01*
X-16764Y-46784D02*
Y-42783D01*
X-12764D01*
Y-46784D01*
X-16764D01*
X-16272Y-44815D02*
Y-40815D01*
X-12272D01*
Y-44815D01*
X-16272D01*
X-15779Y-29559D02*
Y-25559D01*
X-11779D01*
Y-29559D01*
X-15779D01*
X-15287Y-27591D02*
Y-23591D01*
X-11287D01*
Y-27591D01*
X-15287D01*
X-13811Y-41370D02*
Y-37370D01*
X-9811D01*
Y-41370D01*
X-13811D01*
Y-43339D02*
Y-39339D01*
X-9811D01*
Y-43339D01*
X-13811D01*
X-11842Y-41370D02*
Y-37370D01*
X-7842D01*
Y-41370D01*
X-11842D01*
Y-43339D02*
Y-39339D01*
X-7842D01*
Y-43339D01*
X-11842D01*
X-9874Y-35465D02*
Y-31465D01*
X-5874D01*
Y-35465D01*
X-9874D01*
Y-25622D02*
Y-21622D01*
X-5874D01*
Y-25622D01*
X-9874D01*
X-7905Y-43339D02*
Y-39339D01*
X-3906D01*
Y-43339D01*
X-7905D01*
Y-27591D02*
Y-23591D01*
X-3906D01*
Y-27591D01*
X-7905D01*
Y-25622D02*
Y-21622D01*
X-3906D01*
Y-25622D01*
X-7905D01*
Y-23653D02*
Y-19654D01*
X-3906D01*
Y-23653D01*
X-7905D01*
X-5937Y-41370D02*
Y-37370D01*
X-1937D01*
Y-41370D01*
X-5937D01*
X-100425Y59024D02*
Y63024D01*
X-96425D01*
Y59024D01*
X-100425D01*
X-92551D02*
Y63024D01*
X-88551D01*
Y59024D01*
X-92551D01*
X-88614D02*
Y63024D01*
X-84614D01*
Y59024D01*
X-88614D01*
X-80740D02*
Y63024D01*
X-76740D01*
Y59024D01*
X-80740D01*
X-70898Y1937D02*
Y5937D01*
X-66898D01*
Y1937D01*
X-70898D01*
X-100425Y64929D02*
Y68929D01*
X-96425D01*
Y64929D01*
X-100425D01*
Y82646D02*
Y86646D01*
X-96425D01*
Y82646D01*
X-100425D01*
Y70835D02*
Y74835D01*
X-96425D01*
Y70835D01*
X-100425D01*
Y76740D02*
Y80740D01*
X-96425D01*
Y76740D01*
X-100425D01*
X-92551Y64929D02*
Y68929D01*
X-88551D01*
Y64929D01*
X-92551D01*
Y70835D02*
Y74835D01*
X-88551D01*
Y70835D01*
X-92551D01*
Y76740D02*
Y80740D01*
X-88551D01*
Y76740D01*
X-92551D01*
Y82646D02*
Y86646D01*
X-88551D01*
Y82646D01*
X-92551D01*
X-88614Y64929D02*
Y68929D01*
X-84614D01*
Y64929D01*
X-88614D01*
Y82646D02*
Y86646D01*
X-84614D01*
Y82646D01*
X-88614D01*
Y76740D02*
Y80740D01*
X-84614D01*
Y76740D01*
X-88614D01*
Y70835D02*
Y74835D01*
X-84614D01*
Y70835D01*
X-88614D01*
X-80740Y64929D02*
Y68929D01*
X-76740D01*
Y64929D01*
X-80740D01*
Y70835D02*
Y74835D01*
X-76740D01*
Y70835D01*
X-80740D01*
Y82646D02*
Y86646D01*
X-76740D01*
Y82646D01*
X-80740D01*
Y76740D02*
Y80740D01*
X-76740D01*
Y76740D01*
X-80740D01*
X-19716Y-4953D02*
Y-953D01*
X-15717D01*
Y-4953D01*
X-19716D01*
X-27591Y-7905D02*
Y-3906D01*
X-23591D01*
Y-7905D01*
X-27591D01*
X-19716Y-14795D02*
Y-10795D01*
X-15717D01*
Y-14795D01*
X-19716D01*
X-17748D02*
Y-10795D01*
X-13748D01*
Y-14795D01*
X-17748D01*
X-15779Y-12827D02*
Y-8827D01*
X-11779D01*
Y-12827D01*
X-15779D01*
Y-16764D02*
Y-12764D01*
X-11779D01*
Y-16764D01*
X-15779D01*
Y-14795D02*
Y-10795D01*
X-11779D01*
Y-14795D01*
X-15779D01*
X-11842Y-1016D02*
Y2984D01*
X-7842D01*
Y-1016D01*
X-11842D01*
X-9874Y-21685D02*
Y-17685D01*
X-5874D01*
Y-21685D01*
X-9874D01*
X-7905D02*
Y-17685D01*
X-3906D01*
Y-21685D01*
X-7905D01*
X-5937Y-7905D02*
Y-3906D01*
X-1937D01*
Y-7905D01*
X-5937D01*
Y-5937D02*
Y-1937D01*
X-1937D01*
Y-5937D01*
X-5937D01*
X-16764Y12764D02*
Y16764D01*
X-12764D01*
Y12764D01*
X-16764D01*
X-15779Y11287D02*
Y15287D01*
X-11779D01*
Y11287D01*
X-15779D01*
Y14240D02*
Y18240D01*
X-11779D01*
Y14240D01*
X-15779D01*
Y18669D02*
Y22669D01*
X-11779D01*
Y18669D01*
X-15779D01*
X-14795Y12764D02*
Y16764D01*
X-10795D01*
Y12764D01*
X-14795D01*
X-13811Y-1016D02*
Y2984D01*
X-9811D01*
Y-1016D01*
X-13811D01*
Y953D02*
Y4953D01*
X-9811D01*
Y953D01*
X-13811D01*
X-13811Y11287D02*
Y15287D01*
X-9811D01*
Y11287D01*
X-13811D01*
Y14240D02*
Y18240D01*
X-9811D01*
Y14240D01*
X-13811D01*
X-11842Y953D02*
Y4953D01*
X-7842D01*
Y953D01*
X-11842D01*
X-11842Y18630D02*
Y22630D01*
X-7842D01*
Y18630D01*
X-11842D01*
Y23591D02*
Y27591D01*
X-7842D01*
Y23591D01*
X-11842D01*
Y25559D02*
Y29559D01*
X-7842D01*
Y25559D01*
X-11842D01*
X-9874Y-1016D02*
Y2984D01*
X-5874D01*
Y-1016D01*
X-9874D01*
X-7905Y12764D02*
Y16764D01*
X-3906D01*
Y12764D01*
X-7905D01*
Y24575D02*
Y28575D01*
X-3906D01*
Y24575D01*
X-7905D01*
X-4953Y12764D02*
Y16764D01*
X-953D01*
Y12764D01*
X-4953D01*
X9319Y-66961D02*
Y-62961D01*
X13319D01*
Y-66961D01*
X9319D01*
X7356Y-65478D02*
Y-61479D01*
X11356D01*
Y-65478D01*
X7356D01*
X5382Y-64992D02*
Y-60992D01*
X9382D01*
Y-64992D01*
X5382D01*
X-4461Y-62039D02*
Y-58039D01*
X-461D01*
Y-62039D01*
X-4461D01*
X-2492D02*
Y-58039D01*
X1508D01*
Y-62039D01*
X-2492D01*
X9319Y-60563D02*
Y-56563D01*
X13319D01*
Y-60563D01*
X9319D01*
Y-58595D02*
Y-54594D01*
X13319D01*
Y-58595D01*
X9319D01*
Y-56626D02*
Y-52626D01*
X13319D01*
Y-56626D01*
X9319D01*
X-32Y-49244D02*
Y-45244D01*
X3968D01*
Y-49244D01*
X-32D01*
X-2000D02*
Y-45244D01*
X2000D01*
Y-49244D01*
X-2000D01*
X-32Y-47276D02*
Y-43276D01*
X3968D01*
Y-47276D01*
X-32D01*
X-2000D02*
Y-43276D01*
X2000D01*
Y-47276D01*
X-2000D01*
X7842D02*
Y-43276D01*
X11842D01*
Y-47276D01*
X7842D01*
X-32Y-45307D02*
Y-41307D01*
X3968D01*
Y-45307D01*
X-32D01*
X1937D02*
Y-41307D01*
X5937D01*
Y-45307D01*
X1937D01*
X7842D02*
Y-41307D01*
X11842D01*
Y-45307D01*
X7842D01*
X1937Y-43339D02*
Y-39339D01*
X5937D01*
Y-43339D01*
X1937D01*
X3906D02*
Y-39339D01*
X7905D01*
Y-43339D01*
X3906D01*
X5874D02*
Y-39339D01*
X9874D01*
Y-43339D01*
X5874D01*
X1937Y-41370D02*
Y-37370D01*
X5937D01*
Y-41370D01*
X1937D01*
X-3968D02*
Y-37370D01*
X32D01*
Y-41370D01*
X-3968D01*
X-2000D02*
Y-37370D01*
X2000D01*
Y-41370D01*
X-2000D01*
X-3968Y-39402D02*
Y-35402D01*
X32D01*
Y-39402D01*
X-3968D01*
X-32D02*
Y-35402D01*
X3968D01*
Y-39402D01*
X-32D01*
X14875Y-84500D02*
Y-80500D01*
X18875D01*
Y-84500D01*
X14875D01*
Y-74500D02*
Y-70500D01*
X18875D01*
Y-74500D01*
X14875D01*
X9875Y-71375D02*
Y-67375D01*
X13875D01*
Y-71375D01*
X9875D01*
X10303Y-69421D02*
Y-65421D01*
X14303D01*
Y-69421D01*
X10303D01*
X11779Y-49244D02*
Y-45244D01*
X15779D01*
Y-49244D01*
X11779D01*
X11779Y-47276D02*
Y-43276D01*
X15779D01*
Y-47276D01*
X11779D01*
X15717D02*
Y-43276D01*
X19716D01*
Y-47276D01*
X15717D01*
X9811Y-45307D02*
Y-41307D01*
X13811D01*
Y-45307D01*
X9811D01*
X13748D02*
Y-41307D01*
X17748D01*
Y-45307D01*
X13748D01*
X19654D02*
Y-41307D01*
X23653D01*
Y-45307D01*
X19654D01*
X11779Y-45307D02*
Y-41307D01*
X15779D01*
Y-45307D01*
X11779D01*
X15717D02*
Y-41307D01*
X19716D01*
Y-45307D01*
X15717D01*
X17685D02*
Y-41307D01*
X21685D01*
Y-45307D01*
X17685D01*
X9811Y-43339D02*
Y-39339D01*
X13811D01*
Y-43339D01*
X9811D01*
X11779D02*
Y-39339D01*
X15779D01*
Y-43339D01*
X11779D01*
X15717D02*
Y-39339D01*
X19716D01*
Y-43339D01*
X15717D01*
X21622Y-41370D02*
Y-37370D01*
X25622D01*
Y-41370D01*
X21622D01*
X11779Y-39402D02*
Y-35402D01*
X15779D01*
Y-39402D01*
X11779D01*
X-2000D02*
Y-35402D01*
X2000D01*
Y-39402D01*
X-2000D01*
X5874D02*
Y-35402D01*
X9874D01*
Y-39402D01*
X5874D01*
X3906Y-37433D02*
Y-33433D01*
X7905D01*
Y-37433D01*
X3906D01*
X7842D02*
Y-33433D01*
X11842D01*
Y-37433D01*
X7842D01*
X11779D02*
Y-33433D01*
X15779D01*
Y-37433D01*
X11779D01*
Y-35465D02*
Y-31465D01*
X15779D01*
Y-35465D01*
X11779D01*
X7842Y-33496D02*
Y-29496D01*
X11842D01*
Y-33496D01*
X7842D01*
X3906D02*
Y-29496D01*
X7905D01*
Y-33496D01*
X3906D01*
X1937D02*
Y-29496D01*
X5937D01*
Y-33496D01*
X1937D01*
X11779Y-31528D02*
Y-27528D01*
X15779D01*
Y-31528D01*
X11779D01*
X7842Y-31528D02*
Y-27528D01*
X11842D01*
Y-31528D01*
X7842D01*
X1937Y-29559D02*
Y-25559D01*
X5937D01*
Y-29559D01*
X1937D01*
X7842D02*
Y-25559D01*
X11842D01*
Y-29559D01*
X7842D01*
X1937Y-27591D02*
Y-23591D01*
X5937D01*
Y-27591D01*
X1937D01*
X11779D02*
Y-23591D01*
X15779D01*
Y-27591D01*
X11779D01*
X-3968Y-25622D02*
Y-21622D01*
X32D01*
Y-25622D01*
X-3968D01*
X-32D02*
Y-21622D01*
X3968D01*
Y-25622D01*
X-32D01*
X5874Y-25622D02*
Y-21622D01*
X9874D01*
Y-25622D01*
X5874D01*
X3906Y-23653D02*
Y-19654D01*
X7905D01*
Y-23653D01*
X3906D01*
X1937D02*
Y-19654D01*
X5937D01*
Y-23653D01*
X1937D01*
X7842D02*
Y-19654D01*
X11842D01*
Y-23653D01*
X7842D01*
X11779D02*
Y-19654D01*
X15779D01*
Y-23653D01*
X11779D01*
X1937Y-21685D02*
Y-17685D01*
X5937D01*
Y-21685D01*
X1937D01*
X3906D02*
Y-17685D01*
X7905D01*
Y-21685D01*
X3906D01*
X7842D02*
Y-17685D01*
X11842D01*
Y-21685D01*
X7842D01*
X-3968Y-19716D02*
Y-15717D01*
X32D01*
Y-19716D01*
X-3968D01*
X11779D02*
Y-15717D01*
X15779D01*
Y-19716D01*
X11779D01*
X3906Y-19716D02*
Y-15717D01*
X7905D01*
Y-19716D01*
X3906D01*
X13748Y-39402D02*
Y-35402D01*
X17748D01*
Y-39402D01*
X13748D01*
X17685D02*
Y-35402D01*
X21685D01*
Y-39402D01*
X17685D01*
X19654D02*
Y-35402D01*
X23654D01*
Y-39402D01*
X19654D01*
Y-37433D02*
Y-33433D01*
X23654D01*
Y-37433D01*
X19654D01*
X21622D02*
Y-33433D01*
X25622D01*
Y-37433D01*
X21622D01*
X23591D02*
Y-33433D01*
X27591D01*
Y-37433D01*
X23591D01*
Y-35465D02*
Y-31465D01*
X27591D01*
Y-35465D01*
X23591D01*
X13748Y-33496D02*
Y-29496D01*
X17748D01*
Y-33496D01*
X13748D01*
X21622D02*
Y-29496D01*
X25622D01*
Y-33496D01*
X21622D01*
X23591D02*
Y-29496D01*
X27591D01*
Y-33496D01*
X23591D01*
X19654D02*
Y-29496D01*
X23654D01*
Y-33496D01*
X19654D01*
X17685Y-31528D02*
Y-27528D01*
X21685D01*
Y-31528D01*
X17685D01*
X23591D02*
Y-27528D01*
X27591D01*
Y-31528D01*
X23591D01*
X13748Y-29559D02*
Y-25559D01*
X17748D01*
Y-29559D01*
X13748D01*
X19654D02*
Y-25559D01*
X23654D01*
Y-29559D01*
X19654D01*
X23591D02*
Y-25559D01*
X27591D01*
Y-29559D01*
X23591D01*
X15717Y-27591D02*
Y-23591D01*
X19716D01*
Y-27591D01*
X15717D01*
X21622D02*
Y-23591D01*
X25622D01*
Y-27591D01*
X21622D01*
X23591D02*
Y-23591D01*
X27591D01*
Y-27591D01*
X23591D01*
X21622Y-25622D02*
Y-21622D01*
X25622D01*
Y-25622D01*
X21622D01*
X17685D02*
Y-21622D01*
X21685D01*
Y-25622D01*
X17685D01*
X23591D02*
Y-21622D01*
X27591D01*
Y-25622D01*
X23591D01*
X15717Y-23653D02*
Y-19654D01*
X19716D01*
Y-23653D01*
X15717D01*
X23591D02*
Y-19654D01*
X27591D01*
Y-23653D01*
X23591D01*
X11779Y-21685D02*
Y-17685D01*
X15779D01*
Y-21685D01*
X11779D01*
X15717D02*
Y-17685D01*
X19716D01*
Y-21685D01*
X15717D01*
X19654D02*
Y-17685D01*
X23654D01*
Y-21685D01*
X19654D01*
X23591D02*
Y-17685D01*
X27591D01*
Y-21685D01*
X23591D01*
X13748Y-19716D02*
Y-15717D01*
X17748D01*
Y-19716D01*
X13748D01*
X15717D02*
Y-15717D01*
X19716D01*
Y-19716D01*
X15717D01*
X17685D02*
Y-15717D01*
X21685D01*
Y-19716D01*
X17685D01*
X27528Y-49244D02*
Y-45244D01*
X31528D01*
Y-49244D01*
X27528D01*
X37370D02*
Y-45244D01*
X41370D01*
Y-49244D01*
X37370D01*
X29496D02*
Y-45244D01*
X33496D01*
Y-49244D01*
X29496D01*
X31465D02*
Y-45244D01*
X35465D01*
Y-49244D01*
X31465D01*
X33433D02*
Y-45244D01*
X37433D01*
Y-49244D01*
X33433D01*
X44752D02*
Y-45244D01*
X48752D01*
Y-49244D01*
X44752D01*
X37370Y-47276D02*
Y-43276D01*
X41370D01*
Y-47276D01*
X37370D01*
X25559D02*
Y-43276D01*
X29559D01*
Y-47276D01*
X25559D01*
X31465D02*
Y-43276D01*
X35465D01*
Y-47276D01*
X31465D01*
X35402D02*
Y-43276D01*
X39402D01*
Y-47276D01*
X35402D01*
X33433D02*
Y-43276D01*
X37433D01*
Y-47276D01*
X33433D01*
X39831Y-46784D02*
Y-42783D01*
X43831D01*
Y-46784D01*
X39831D01*
X31465Y-45307D02*
Y-41307D01*
X35465D01*
Y-45307D01*
X31465D01*
X41307D02*
Y-41307D01*
X45307D01*
Y-45307D01*
X41307D01*
X90500Y-83250D02*
Y-79250D01*
X94500D01*
Y-83250D01*
X90500D01*
X88000Y-75750D02*
Y-71750D01*
X92000D01*
Y-75750D01*
X88000D01*
X61484Y-53181D02*
Y-49181D01*
X65484D01*
Y-53181D01*
X61484D01*
X59516Y-52197D02*
Y-48197D01*
X63516D01*
Y-52197D01*
X59516D01*
X61484Y-48752D02*
Y-44752D01*
X65484D01*
Y-48752D01*
X61484D01*
X59516Y-47768D02*
Y-43768D01*
X63516D01*
Y-47768D01*
X59516D01*
X27528Y-43339D02*
Y-39339D01*
X31528D01*
Y-43339D01*
X27528D01*
X29496D02*
Y-39339D01*
X33496D01*
Y-43339D01*
X29496D01*
X25559Y-41370D02*
Y-37370D01*
X29559D01*
Y-41370D01*
X25559D01*
X31465Y-41370D02*
Y-37370D01*
X35465D01*
Y-41370D01*
X31465D01*
X31465Y-39402D02*
Y-35402D01*
X35465D01*
Y-39402D01*
X31465D01*
X33433D02*
Y-35402D01*
X37433D01*
Y-39402D01*
X33433D01*
X25559Y-37433D02*
Y-33433D01*
X29559D01*
Y-37433D01*
X25559D01*
X31465D02*
Y-33433D01*
X35465D01*
Y-37433D01*
X31465D01*
X33433D02*
Y-33433D01*
X37433D01*
Y-37433D01*
X33433D01*
X31465Y-33496D02*
Y-29496D01*
X35465D01*
Y-33496D01*
X31465D01*
X33433D02*
Y-29496D01*
X37433D01*
Y-33496D01*
X33433D01*
X29496Y-31528D02*
Y-27528D01*
X33496D01*
Y-31528D01*
X29496D01*
X25559D02*
Y-27528D01*
X29559D01*
Y-31528D01*
X25559D01*
X31465D02*
Y-27528D01*
X35465D01*
Y-31528D01*
X31465D01*
X29496Y-29559D02*
Y-25559D01*
X33496D01*
Y-29559D01*
X29496D01*
X27528Y-29559D02*
Y-25559D01*
X31528D01*
Y-29559D01*
X27528D01*
X31465Y-27591D02*
Y-23591D01*
X35465D01*
Y-27591D01*
X31465D01*
X33433D02*
Y-23591D01*
X37433D01*
Y-27591D01*
X33433D01*
X31465Y-25622D02*
Y-21622D01*
X35465D01*
Y-25622D01*
X31465D01*
X41307Y-24638D02*
Y-20638D01*
X45307D01*
Y-24638D01*
X41307D01*
X39339Y-24146D02*
Y-20146D01*
X43339D01*
Y-24146D01*
X39339D01*
X29496Y-23653D02*
Y-19654D01*
X33496D01*
Y-23653D01*
X29496D01*
X25559D02*
Y-19654D01*
X29559D01*
Y-23653D01*
X25559D01*
X31465D02*
Y-19654D01*
X35465D01*
Y-23653D01*
X31465D01*
X33433D02*
Y-19654D01*
X37433D01*
Y-23653D01*
X33433D01*
X29496Y-21685D02*
Y-17685D01*
X33496D01*
Y-21685D01*
X29496D01*
X35402Y-21685D02*
Y-17685D01*
X39402D01*
Y-21685D01*
X35402D01*
X41799Y-21193D02*
Y-17193D01*
X45799D01*
Y-21193D01*
X41799D01*
X31465Y-19716D02*
Y-15717D01*
X35465D01*
Y-19716D01*
X31465D01*
X33433D02*
Y-15717D01*
X37433D01*
Y-19716D01*
X33433D01*
X56563Y-44323D02*
Y-40323D01*
X60563D01*
Y-44323D01*
X56563D01*
X59024D02*
Y-40323D01*
X63024D01*
Y-44323D01*
X59024D01*
X55579Y-42847D02*
Y-38846D01*
X59579D01*
Y-42847D01*
X55579D01*
X58039D02*
Y-38846D01*
X62039D01*
Y-42847D01*
X58039D01*
X61484Y-40386D02*
Y-36386D01*
X65484D01*
Y-40386D01*
X61484D01*
X59516Y-39402D02*
Y-35402D01*
X63516D01*
Y-39402D01*
X59516D01*
X91578Y-51016D02*
Y-47016D01*
X95578D01*
Y-51016D01*
X91578D01*
X56071Y-35957D02*
Y-31957D01*
X60071D01*
Y-35957D01*
X56071D01*
X58531D02*
Y-31957D01*
X62532D01*
Y-35957D01*
X58531D01*
X91578Y-47276D02*
Y-43276D01*
X95578D01*
Y-47276D01*
X91578D01*
X56071Y-33988D02*
Y-29988D01*
X60071D01*
Y-33988D01*
X56071D01*
X58531D02*
Y-29988D01*
X62532D01*
Y-33988D01*
X58531D01*
X67390Y-27098D02*
Y-23098D01*
X71390D01*
Y-27098D01*
X67390D01*
X61484Y-33004D02*
Y-29004D01*
X65484D01*
Y-33004D01*
X61484D01*
X59516Y-32020D02*
Y-28020D01*
X63516D01*
Y-32020D01*
X59516D01*
X91578Y-43535D02*
Y-39535D01*
X95578D01*
Y-43535D01*
X91578D01*
X67390Y-23161D02*
Y-19161D01*
X71390D01*
Y-23161D01*
X67390D01*
X91578Y-39205D02*
Y-35205D01*
X95578D01*
Y-39205D01*
X91578D01*
X59516Y-26114D02*
Y-22114D01*
X63516D01*
Y-26114D01*
X59516D01*
X61484Y-25130D02*
Y-21130D01*
X65484D01*
Y-25130D01*
X61484D01*
X91578Y-35465D02*
Y-31465D01*
X95578D01*
Y-35465D01*
X91578D01*
X61484Y-22669D02*
Y-18669D01*
X65484D01*
Y-22669D01*
X61484D01*
X59516Y-21193D02*
Y-17193D01*
X63516D01*
Y-21193D01*
X59516D01*
X91578Y-31724D02*
Y-27724D01*
X95578D01*
Y-31724D01*
X91578D01*
X-2000Y-1016D02*
Y2984D01*
X2000D01*
Y-1016D01*
X-2000D01*
X-32D02*
Y2984D01*
X3968D01*
Y-1016D01*
X-32D01*
X1937Y-11842D02*
Y-7842D01*
X5937D01*
Y-11842D01*
X1937D01*
Y-5937D02*
Y-1937D01*
X5937D01*
Y-5937D01*
X1937D01*
Y-7905D02*
Y-3906D01*
X5937D01*
Y-7905D01*
X1937D01*
X1937Y-17748D02*
Y-13748D01*
X5937D01*
Y-17748D01*
X1937D01*
Y-13811D02*
Y-9811D01*
X5937D01*
Y-13811D01*
X1937D01*
X3906Y-7905D02*
Y-3906D01*
X7905D01*
Y-7905D01*
X3906D01*
Y-5937D02*
Y-1937D01*
X7905D01*
Y-5937D01*
X3906D01*
Y-17748D02*
Y-13748D01*
X7905D01*
Y-17748D01*
X3906D01*
X3906Y-13811D02*
Y-9811D01*
X7905D01*
Y-13811D01*
X3906D01*
X7842D02*
Y-9811D01*
X11842D01*
Y-13811D01*
X7842D01*
Y-5937D02*
Y-1937D01*
X11842D01*
Y-5937D01*
X7842D01*
X7842Y-17748D02*
Y-13748D01*
X11842D01*
Y-17748D01*
X7842D01*
Y-11842D02*
Y-7842D01*
X11842D01*
Y-11842D01*
X7842D01*
Y-19716D02*
Y-15717D01*
X11842D01*
Y-19716D01*
X7842D01*
X23591Y-17748D02*
Y-13748D01*
X27591D01*
Y-17748D01*
X23591D01*
X25559D02*
Y-13748D01*
X29559D01*
Y-17748D01*
X25559D01*
X21622Y-15779D02*
Y-11779D01*
X25622D01*
Y-15779D01*
X21622D01*
X23591Y-15779D02*
Y-11779D01*
X27591D01*
Y-15779D01*
X23591D01*
X15717Y-13811D02*
Y-9811D01*
X19716D01*
Y-13811D01*
X15717D01*
X17685D02*
Y-9811D01*
X21685D01*
Y-13811D01*
X17685D01*
X9811Y-11842D02*
Y-7842D01*
X13811D01*
Y-11842D01*
X9811D01*
X17685D02*
Y-7842D01*
X21685D01*
Y-11842D01*
X17685D01*
X11779Y-11842D02*
Y-7842D01*
X15779D01*
Y-11842D01*
X11779D01*
X19654D02*
Y-7842D01*
X23654D01*
Y-11842D01*
X19654D01*
X11779Y-9874D02*
Y-5874D01*
X15779D01*
Y-9874D01*
X11779D01*
X9811Y-9874D02*
Y-5874D01*
X13811D01*
Y-9874D01*
X9811D01*
X19654D02*
Y-5874D01*
X23654D01*
Y-9874D01*
X19654D01*
X13748D02*
Y-5874D01*
X17748D01*
Y-9874D01*
X13748D01*
X9811Y-7905D02*
Y-3906D01*
X13811D01*
Y-7905D01*
X9811D01*
X13748D02*
Y-3906D01*
X17748D01*
Y-7905D01*
X13748D01*
X19654D02*
Y-3906D01*
X23653D01*
Y-7905D01*
X19654D01*
X15717D02*
Y-3906D01*
X19716D01*
Y-7905D01*
X15717D01*
X11779Y-7905D02*
Y-3906D01*
X15779D01*
Y-7905D01*
X11779D01*
X9811Y-5937D02*
Y-1937D01*
X13811D01*
Y-5937D01*
X9811D01*
X11779D02*
Y-1937D01*
X15779D01*
Y-5937D01*
X11779D01*
X13748D02*
Y-1937D01*
X17748D01*
Y-5937D01*
X13748D01*
X15717D02*
Y-1937D01*
X19716D01*
Y-5937D01*
X15717D01*
X19654D02*
Y-1937D01*
X23653D01*
Y-5937D01*
X19654D01*
X25559D02*
Y-1937D01*
X29559D01*
Y-5937D01*
X25559D01*
X9811Y-1016D02*
Y2984D01*
X13811D01*
Y-1016D01*
X9811D01*
X11779D02*
Y2984D01*
X15779D01*
Y-1016D01*
X11779D01*
X13748D02*
Y2984D01*
X17748D01*
Y-1016D01*
X13748D01*
X25559D02*
Y2984D01*
X29559D01*
Y-1016D01*
X25559D01*
X21622D02*
Y2984D01*
X25622D01*
Y-1016D01*
X21622D01*
X23591D02*
Y2984D01*
X27591D01*
Y-1016D01*
X23591D01*
X-2000Y953D02*
Y4953D01*
X2000D01*
Y953D01*
X-2000D01*
X-32D02*
Y4953D01*
X3968D01*
Y953D01*
X-32D01*
X1937D02*
Y4953D01*
X5937D01*
Y953D01*
X1937D01*
X9811D02*
Y4953D01*
X13811D01*
Y953D01*
X9811D01*
X-3968Y11287D02*
Y15287D01*
X32D01*
Y11287D01*
X-3968D01*
X-2000D02*
Y15287D01*
X2000D01*
Y11287D01*
X-2000D01*
X7842D02*
Y15287D01*
X11842D01*
Y11287D01*
X7842D01*
X9811D02*
Y15287D01*
X13811D01*
Y11287D01*
X9811D01*
X-2984Y12764D02*
Y16764D01*
X1016D01*
Y12764D01*
X-2984D01*
X3906D02*
Y16764D01*
X7905D01*
Y12764D01*
X3906D01*
X6858D02*
Y16764D01*
X10858D01*
Y12764D01*
X6858D01*
X8827D02*
Y16764D01*
X12827D01*
Y12764D01*
X8827D01*
X-2000Y14240D02*
Y18240D01*
X2000D01*
Y14240D01*
X-2000D01*
X-3968D02*
Y18240D01*
X32D01*
Y14240D01*
X-3968D01*
X7842D02*
Y18240D01*
X11842D01*
Y14240D01*
X7842D01*
X-32Y18630D02*
Y22630D01*
X3968D01*
Y18630D01*
X-32D01*
X-3968Y18669D02*
Y22669D01*
X32D01*
Y18669D01*
X-3968D01*
X3906D02*
Y22669D01*
X7905D01*
Y18669D01*
X3906D01*
X7842D02*
Y22669D01*
X11842D01*
Y18669D01*
X7842D01*
X-32Y23591D02*
Y27591D01*
X3968D01*
Y23591D01*
X-32D01*
X3906Y24575D02*
Y28575D01*
X7905D01*
Y24575D01*
X3906D01*
X-32Y25559D02*
Y29559D01*
X3968D01*
Y25559D01*
X-32D01*
X11779Y953D02*
Y4953D01*
X15779D01*
Y953D01*
X11779D01*
X13748D02*
Y4953D01*
X17748D01*
Y953D01*
X13748D01*
X25559D02*
Y4953D01*
X29559D01*
Y953D01*
X25559D01*
X23591D02*
Y4953D01*
X27591D01*
Y953D01*
X23591D01*
X21622D02*
Y4953D01*
X25622D01*
Y953D01*
X21622D01*
X21622Y11287D02*
Y15287D01*
X25622D01*
Y11287D01*
X21622D01*
X19654D02*
Y15287D01*
X23653D01*
Y11287D01*
X19654D01*
X15717Y12764D02*
Y16764D01*
X19716D01*
Y12764D01*
X15717D01*
X18669D02*
Y16764D01*
X22669D01*
Y12764D01*
X18669D01*
X20638D02*
Y16764D01*
X24638D01*
Y12764D01*
X20638D01*
X9811Y14240D02*
Y18240D01*
X13811D01*
Y14240D01*
X9811D01*
X19654D02*
Y18240D01*
X23653D01*
Y14240D01*
X19654D01*
X21622D02*
Y18240D01*
X25622D01*
Y14240D01*
X21622D01*
X11779Y18630D02*
Y22630D01*
X15779D01*
Y18630D01*
X11779D01*
X23591D02*
Y22630D01*
X27591D01*
Y18630D01*
X23591D01*
X15717Y18669D02*
Y22669D01*
X19716D01*
Y18669D01*
X15717D01*
X19654D02*
Y22669D01*
X23653D01*
Y18669D01*
X19654D01*
X11779Y23591D02*
Y27591D01*
X15779D01*
Y23591D01*
X11779D01*
X23591D02*
Y27591D01*
X27591D01*
Y23591D01*
X23591D01*
X15717Y24575D02*
Y28575D01*
X19716D01*
Y24575D01*
X15717D01*
X11779Y25559D02*
Y29559D01*
X15779D01*
Y25559D01*
X11779D01*
X23591D02*
Y29559D01*
X27591D01*
Y25559D01*
X23591D01*
X14875Y70500D02*
Y74500D01*
X18875D01*
Y70500D01*
X14875D01*
X27528Y-19716D02*
Y-15717D01*
X31528D01*
Y-19716D01*
X27528D01*
X25559Y-13811D02*
Y-9811D01*
X29559D01*
Y-13811D01*
X25559D01*
X27528Y24575D02*
Y28575D01*
X31528D01*
Y24575D01*
X27528D01*
Y-7905D02*
Y-3906D01*
X31528D01*
Y-7905D01*
X27528D01*
X29496Y-11842D02*
Y-7842D01*
X33496D01*
Y-11842D01*
X29496D01*
X27528Y-5937D02*
Y-1937D01*
X31528D01*
Y-5937D01*
X27528D01*
X29496Y-7905D02*
Y-3906D01*
X33496D01*
Y-7905D01*
X29496D01*
X27528Y18669D02*
Y22669D01*
X31528D01*
Y18669D01*
X27528D01*
X25559Y-7905D02*
Y-3906D01*
X29559D01*
Y-7905D01*
X25559D01*
X29496Y-19716D02*
Y-15717D01*
X33496D01*
Y-19716D01*
X29496D01*
Y-9874D02*
Y-5874D01*
X33496D01*
Y-9874D01*
X29496D01*
X31465Y-15779D02*
Y-11779D01*
X35465D01*
Y-15779D01*
X31465D01*
X33433D02*
Y-11779D01*
X37433D01*
Y-15779D01*
X33433D01*
X31465Y-13811D02*
Y-9811D01*
X35465D01*
Y-13811D01*
X31465D01*
X33433D02*
Y-9811D01*
X37433D01*
Y-13811D01*
X33433D01*
X31465Y-11842D02*
Y-7842D01*
X35465D01*
Y-11842D01*
X31465D01*
X33433Y-9874D02*
Y-5874D01*
X37433D01*
Y-9874D01*
X33433D01*
Y-7905D02*
Y-3906D01*
X37433D01*
Y-7905D01*
X33433D01*
X37370Y-5937D02*
Y-1937D01*
X41370D01*
Y-5937D01*
X37370D01*
X31465Y8335D02*
Y12335D01*
X35465D01*
Y8335D01*
X31465D01*
X46720Y55087D02*
Y59087D01*
X50721D01*
Y55087D01*
X46720D01*
X79201Y46228D02*
Y50228D01*
X83201D01*
Y46228D01*
X79201D01*
X78709Y50165D02*
Y54165D01*
X82709D01*
Y50165D01*
X78709D01*
X81661D02*
Y54165D01*
X85661D01*
Y50165D01*
X81661D01*
Y52134D02*
Y56134D01*
X85661D01*
Y52134D01*
X81661D01*
X93472Y58039D02*
Y62039D01*
X97472D01*
Y58039D01*
X93472D01*
X85598Y59024D02*
Y63024D01*
X89598D01*
Y59024D01*
X85598D01*
D81*
X-96031Y-91043D02*
G03*
X-96031Y-91043I-2000J0D01*
G01*
Y-48878D02*
G03*
X-96031Y-48878I-2000J0D01*
G01*
Y-81043D02*
G03*
X-96031Y-81043I-2000J0D01*
G01*
Y-38878D02*
G03*
X-96031Y-38878I-2000J0D01*
G01*
X-41740Y-52461D02*
G03*
X-41740Y-52461I-2000J0D01*
G01*
X-51740Y-57461D02*
G03*
X-51740Y-57461I-2000J0D01*
G01*
X-41740Y-62461D02*
G03*
X-41740Y-62461I-2000J0D01*
G01*
X-51740Y-67461D02*
G03*
X-51740Y-67461I-2000J0D01*
G01*
X-41740Y-72461D02*
G03*
X-41740Y-72461I-2000J0D01*
G01*
X-51740Y-77461D02*
G03*
X-51740Y-77461I-2000J0D01*
G01*
X-41740Y-82461D02*
G03*
X-41740Y-82461I-2000J0D01*
G01*
Y-11594D02*
G03*
X-41740Y-11594I-2000J0D01*
G01*
X-51740Y-6594D02*
G03*
X-51740Y-6594I-2000J0D01*
G01*
X-41740Y-1595D02*
G03*
X-41740Y-1595I-2000J0D01*
G01*
X-51740Y3405D02*
G03*
X-51740Y3405I-2000J0D01*
G01*
X-41740Y8405D02*
G03*
X-41740Y8405I-2000J0D01*
G01*
X-51740Y13406D02*
G03*
X-51740Y13406I-2000J0D01*
G01*
X-41740Y18406D02*
G03*
X-41740Y18406I-2000J0D01*
G01*
X-96031Y31988D02*
G03*
X-96031Y31988I-2000J0D01*
G01*
Y-10177D02*
G03*
X-96031Y-10177I-2000J0D01*
G01*
Y21988D02*
G03*
X-96031Y21988I-2000J0D01*
G01*
Y-20177D02*
G03*
X-96031Y-20177I-2000J0D01*
G01*
X-55087Y82677D02*
G03*
X-55087Y82677I-2000J0D01*
G01*
Y72835D02*
G03*
X-55087Y72835I-2000J0D01*
G01*
Y64961D02*
G03*
X-55087Y64961I-2000J0D01*
G01*
Y55118D02*
G03*
X-55087Y55118I-2000J0D01*
G01*
X-65402Y82677D02*
G03*
X-65402Y82677I-2000J0D01*
G01*
Y72835D02*
G03*
X-65402Y72835I-2000J0D01*
G01*
Y64961D02*
G03*
X-65402Y64961I-2000J0D01*
G01*
Y55118D02*
G03*
X-65402Y55118I-2000J0D01*
G01*
D82*
X-55887Y82677D02*
G03*
X-55887Y82677I-1200J0D01*
G01*
Y72835D02*
G03*
X-55887Y72835I-1200J0D01*
G01*
Y64961D02*
G03*
X-55887Y64961I-1200J0D01*
G01*
Y55118D02*
G03*
X-55887Y55118I-1200J0D01*
G01*
X-66202Y82677D02*
G03*
X-66202Y82677I-1200J0D01*
G01*
Y72835D02*
G03*
X-66202Y72835I-1200J0D01*
G01*
Y64961D02*
G03*
X-66202Y64961I-1200J0D01*
G01*
Y55118D02*
G03*
X-66202Y55118I-1200J0D01*
G01*
M02*
