G04*
G04 #@! TF.GenerationSoftware,Altium Limited,Altium Designer,24.5.2 (23)*
G04*
G04 Layer_Color=16777215*
%FSLAX25Y25*%
%MOIN*%
G70*
G04*
G04 #@! TF.SameCoordinates,6DF05ACD-99E5-4A60-94F4-888D25E85DCD*
G04*
G04*
G04 #@! TF.FilePolarity,Positive*
G04*
G01*
G75*
%ADD10C,0.00591*%
%ADD11C,0.00394*%
%ADD12C,0.00787*%
%ADD13C,0.00984*%
D10*
X-11811Y16732D02*
Y17717D01*
Y16732D02*
X-10827D01*
X0D02*
Y17717D01*
Y16732D02*
X984D01*
X11811D02*
Y17717D01*
Y16732D02*
X12795D01*
X23622D02*
Y17717D01*
Y16732D02*
X24606D01*
X41804Y-92639D02*
X42639Y-91804D01*
X43057Y-92222D01*
Y-92500D01*
X42778Y-92778D01*
X42500D01*
X42083Y-92361D01*
X42361Y-92639D02*
X42361Y-93196D01*
X36910Y-92106D02*
X38090D01*
Y-92697D01*
X37894Y-92894D01*
X37500D01*
X37303Y-92697D01*
Y-92106D01*
Y-92500D02*
X36910Y-92894D01*
X32361Y-91804D02*
X33196Y-92639D01*
X32778Y-93057D01*
X32500D01*
X32222Y-92778D01*
Y-92500D01*
X32639Y-92083D01*
X32361Y-92361D02*
X31804Y-92361D01*
X62894Y-86910D02*
Y-88090D01*
X62303D01*
X62106Y-87894D01*
Y-87500D01*
X62303Y-87303D01*
X62894D01*
X62500D02*
X62106Y-86910D01*
X92639Y91804D02*
X91804Y92639D01*
X92222Y93057D01*
X92500D01*
X92778Y92778D01*
Y92500D01*
X92361Y92083D01*
X92639Y92361D02*
X93196Y92361D01*
X83196Y92639D02*
X82361Y91804D01*
X81943Y92222D01*
Y92500D01*
X82222Y92778D01*
X82500D01*
X82917Y92361D01*
X82639Y92639D02*
X82639Y93196D01*
X62639Y91804D02*
X61804Y92639D01*
X62222Y93057D01*
X62500D01*
X62778Y92778D01*
Y92500D01*
X62361Y92083D01*
X62639Y92361D02*
X63196Y92361D01*
X58090Y92106D02*
X56910D01*
Y92697D01*
X57106Y92894D01*
X57500D01*
X57697Y92697D01*
Y92106D01*
Y92500D02*
X58090Y92894D01*
X53196Y92639D02*
X52361Y91804D01*
X51943Y92222D01*
Y92500D01*
X52222Y92778D01*
X52500D01*
X52917Y92361D01*
X52639Y92639D02*
X52639Y93196D01*
X32620Y91824D02*
X31785Y92659D01*
X32202Y93076D01*
X32480D01*
X32759Y92798D01*
Y92520D01*
X32341Y92102D01*
X32620Y92380D02*
X33176Y92381D01*
X28090Y92106D02*
X26910D01*
Y92697D01*
X27106Y92894D01*
X27500D01*
X27697Y92697D01*
Y92106D01*
Y92500D02*
X28090Y92894D01*
X82106Y-98090D02*
Y-96910D01*
X82697D01*
X82894Y-97106D01*
Y-97500D01*
X82697Y-97697D01*
X82106D01*
X82500D02*
X82894Y-98090D01*
X71389Y-94446D02*
X70554Y-93611D01*
X70972Y-93193D01*
X71250D01*
X71528Y-93472D01*
Y-93750D01*
X71111Y-94167D01*
X71389Y-93889D02*
X71946Y-93889D01*
X81804Y-92639D02*
X82639Y-91804D01*
X83057Y-92222D01*
Y-92500D01*
X82778Y-92778D01*
X82500D01*
X82083Y-92361D01*
X82361Y-92639D02*
X82361Y-93196D01*
X79134Y60630D02*
Y59449D01*
X78543D01*
X78347Y59646D01*
Y60039D01*
X78543Y60236D01*
X79134D01*
X78740D02*
X78347Y60630D01*
X82361Y-81804D02*
X83196Y-82639D01*
X82778Y-83057D01*
X82500D01*
X82222Y-82778D01*
Y-82500D01*
X82639Y-82083D01*
X82361Y-82361D02*
X81804Y-82361D01*
X88090Y92106D02*
X86910D01*
Y92697D01*
X87106Y92894D01*
X87500D01*
X87697Y92697D01*
Y92106D01*
Y92500D02*
X88090Y92894D01*
X61389Y-94446D02*
X60554Y-93611D01*
X60972Y-93193D01*
X61250D01*
X61528Y-93472D01*
Y-93750D01*
X61111Y-94167D01*
X61389Y-93889D02*
X61946Y-93889D01*
X90394Y-93160D02*
Y-94340D01*
X89803D01*
X89606Y-94144D01*
Y-93750D01*
X89803Y-93553D01*
X90394D01*
X90000D02*
X89606Y-93160D01*
X93090Y-89144D02*
X91910D01*
Y-88553D01*
X92106Y-88356D01*
X92500D01*
X92697Y-88553D01*
Y-89144D01*
Y-88750D02*
X93090Y-88356D01*
X91111Y-81804D02*
X91946Y-82639D01*
X91528Y-83057D01*
X91250D01*
X90972Y-82778D01*
Y-82500D01*
X91389Y-82083D01*
X91111Y-82361D02*
X90554Y-82361D01*
X61389Y-84446D02*
X60554Y-83611D01*
X60972Y-83193D01*
X61250D01*
X61528Y-83472D01*
Y-83750D01*
X61111Y-84167D01*
X61389Y-83889D02*
X61946Y-83889D01*
X79134Y57677D02*
Y56496D01*
X78543D01*
X78347Y56693D01*
Y57087D01*
X78543Y57283D01*
X79134D01*
X78740D02*
X78347Y57677D01*
D11*
X-26181Y-61614D02*
X-23031D01*
X-26181Y-56496D02*
X-23031D01*
X-22244Y40748D02*
Y43898D01*
X-17126Y40748D02*
Y43898D01*
X-28150Y40748D02*
Y43898D01*
X-23031Y40748D02*
Y43898D01*
X-16339Y40748D02*
Y43898D01*
X-11220Y40748D02*
Y43898D01*
X-10433Y40748D02*
Y43898D01*
X-5315Y40748D02*
Y43898D01*
X-4528Y40748D02*
Y43898D01*
X591Y40748D02*
Y43898D01*
X1378Y40748D02*
Y43898D01*
X6496Y40748D02*
Y43898D01*
X90158Y55512D02*
Y58661D01*
X85039Y55512D02*
Y58661D01*
X94291Y62598D02*
X97441D01*
X94291Y57480D02*
X97441D01*
X394Y29134D02*
X3543D01*
X394Y24016D02*
X3543D01*
X-11417Y29134D02*
X-8268D01*
X-11417Y24016D02*
X-8268D01*
X-591Y4331D02*
Y7480D01*
X4528Y4331D02*
Y7480D01*
X11220Y4331D02*
Y7480D01*
X16339Y4331D02*
Y7480D01*
X12205Y29134D02*
X15354D01*
X12205Y24016D02*
X15354D01*
X24016Y29134D02*
X27165D01*
X24016Y24016D02*
X27165D01*
X-12402Y4331D02*
Y7480D01*
X-7283Y4331D02*
Y7480D01*
X-26181Y-15157D02*
X-23031D01*
X-26181Y-20276D02*
X-23031D01*
X-26181Y-9252D02*
X-23031D01*
X-26181Y-14370D02*
X-23031D01*
X-26181Y2559D02*
X-23031D01*
X-26181Y-2559D02*
X-23031D01*
X-26181Y-3347D02*
X-23031D01*
X-26181Y-8465D02*
X-23031D01*
X23031Y4331D02*
Y7480D01*
X28150Y4331D02*
Y7480D01*
X32874Y22047D02*
Y25197D01*
X37992Y22047D02*
Y25197D01*
X-23294Y-57087D02*
Y-61023D01*
X-25262D01*
X-25918Y-60367D01*
Y-59055D01*
X-25262Y-58399D01*
X-23294D01*
X-24606D02*
X-25918Y-57087D01*
X-21653Y43307D02*
X-19685Y41339D01*
X-17717Y43307D01*
X-27558D02*
X-25591Y41339D01*
X-23623Y43307D01*
X-15747D02*
X-13780Y41339D01*
X-11812Y43307D01*
X-9842D02*
X-7874Y41339D01*
X-5906Y43307D01*
X-3936D02*
X-1969Y41339D01*
X-1Y43307D01*
X1969D02*
X3937Y41339D01*
X5905Y43307D01*
X88910Y55775D02*
X89566Y56431D01*
Y57743D01*
X88910Y58398D01*
X86286D01*
X85631Y57743D01*
Y56431D01*
X86286Y55775D01*
X97178Y61351D02*
X96522Y62007D01*
X95210D01*
X94554Y61351D01*
Y58727D01*
X95210Y58072D01*
X96522D01*
X97178Y58727D01*
X3280Y28543D02*
Y24607D01*
X1312D01*
X657Y25263D01*
Y26575D01*
X1312Y27231D01*
X3280D01*
X1969D02*
X657Y28543D01*
X-8531D02*
Y24607D01*
X-10498D01*
X-11154Y25263D01*
Y26575D01*
X-10498Y27231D01*
X-8531D01*
X-9843D02*
X-11154Y28543D01*
X3936Y6561D02*
Y5249D01*
Y5906D01*
X1D01*
Y6561D01*
Y5249D01*
X15747Y6561D02*
Y5249D01*
Y5906D01*
X11812D01*
Y6561D01*
Y5249D01*
X15091Y28543D02*
Y24607D01*
X13124D01*
X12468Y25263D01*
Y26575D01*
X13124Y27231D01*
X15091D01*
X13780D02*
X12468Y28543D01*
X26902D02*
Y24607D01*
X24935D01*
X24279Y25263D01*
Y26575D01*
X24935Y27231D01*
X26902D01*
X25591D02*
X24279Y28543D01*
X-7875Y6561D02*
Y5250D01*
Y5906D01*
X-11810D01*
Y6561D01*
Y5250D01*
X-23622Y-15749D02*
X-25590Y-17717D01*
X-23622Y-19684D01*
Y-9843D02*
X-25590Y-11811D01*
X-23622Y-13779D01*
Y1968D02*
X-25590Y0D01*
X-23622Y-1968D01*
X-23622Y-3938D02*
X-25590Y-5906D01*
X-23622Y-7873D01*
X27558Y6561D02*
Y5249D01*
Y5906D01*
X23623D01*
Y6561D01*
Y5249D01*
X37401Y22310D02*
X33465D01*
Y24278D01*
X34121Y24934D01*
X35433D01*
X36089Y24278D01*
Y22310D01*
Y23622D02*
X37401Y24934D01*
D12*
X40157Y-2362D02*
X40945Y-3150D01*
X-9449Y-52756D02*
Y-2362D01*
Y-52756D02*
X40945D01*
Y-2362D01*
X-9449D02*
X40945D01*
X-18898Y-24803D02*
X-16929D01*
Y-26772D02*
Y-24803D01*
Y-42520D02*
Y-40551D01*
X-18898D02*
X-16929D01*
X-37795Y-96535D02*
Y-33386D01*
X-60039Y-96535D02*
X-37795D01*
X-60039Y-33386D02*
X-37795D01*
X-98425Y-96535D02*
X-74803D01*
X-98425Y-33386D02*
X-74803D01*
X-98425Y37480D02*
X-74803D01*
X-98425Y-25669D02*
X-74803D01*
X-60039Y37480D02*
X-37795D01*
X-60039Y-25669D02*
X-37795D01*
Y37480D01*
X-50787Y50000D02*
Y87795D01*
X-96457Y41732D02*
X-85433D01*
X-96457Y96063D02*
X-85433D01*
X57087Y-2362D02*
X83465D01*
X57087Y-8661D02*
Y-2362D01*
Y-60630D02*
X83465D01*
X57087D02*
Y-52756D01*
X82894Y2894D02*
Y12106D01*
X92106Y2894D02*
Y12106D01*
X82894Y2894D02*
X92106D01*
X82894Y12106D02*
X92106D01*
X92894Y2894D02*
Y12106D01*
X102106Y2894D02*
Y12106D01*
X92894Y2894D02*
X102106D01*
X92894Y12106D02*
X102106D01*
X82894Y12894D02*
Y22106D01*
X92106Y12894D02*
Y22106D01*
X82894Y12894D02*
X92106D01*
X82894Y22106D02*
X92106D01*
X92894Y12894D02*
Y22106D01*
X102106Y12894D02*
Y22106D01*
X92894Y12894D02*
X102106D01*
X92894Y22106D02*
X102106D01*
X92106Y22894D02*
Y32106D01*
X82894Y22894D02*
Y32106D01*
X92106D01*
X82894Y22894D02*
X92106D01*
X92894D02*
Y32106D01*
X102106Y22894D02*
Y32106D01*
X92894Y22894D02*
X102106D01*
X92894Y32106D02*
X102106D01*
X92106Y32894D02*
Y42106D01*
X82894Y32894D02*
Y42106D01*
X92106D01*
X82894Y32894D02*
X92106D01*
X102106D02*
Y42106D01*
X92894Y32894D02*
Y42106D01*
X102106D01*
X92894Y32894D02*
X102106D01*
X92106Y42894D02*
Y52106D01*
X82894Y42894D02*
Y52106D01*
X92106D01*
X82894Y42894D02*
X92106D01*
X92894D02*
Y52106D01*
X102106Y42894D02*
Y52106D01*
X92894Y42894D02*
X102106D01*
X92894Y52106D02*
X102106D01*
D13*
X12303Y49705D02*
X34941D01*
X12303Y36909D02*
X34941D01*
M02*
