G04*
G04 #@! TF.GenerationSoftware,Altium Limited,Altium Designer,24.5.2 (23)*
G04*
G04 Layer_Color=12040119*
%FSLAX25Y25*%
%MOIN*%
G70*
G04*
G04 #@! TF.SameCoordinates,6DF05ACD-99E5-4A60-94F4-888D25E85DCD*
G04*
G04*
G04 #@! TF.FilePolarity,Positive*
G04*
G01*
G75*
%ADD16R,0.03150X0.05118*%
%ADD19R,0.05118X0.03150*%
%ADD27R,0.01968X0.01575*%
%ADD29R,0.01575X0.01968*%
%ADD79R,0.03975X0.01803*%
D16*
X17717Y43307D02*
D03*
X9843D02*
D03*
X-90551Y-98425D02*
D03*
X-98425D02*
D03*
X-86614D02*
D03*
X-78740D02*
D03*
X-90551Y98425D02*
D03*
X-98425D02*
D03*
X-90551Y92520D02*
D03*
X-98425D02*
D03*
X-20669Y-17717D02*
D03*
X-28543D02*
D03*
Y-11811D02*
D03*
X-20669D02*
D03*
X-61024Y-59055D02*
D03*
X-68898D02*
D03*
X74311Y-45276D02*
D03*
X66437D02*
D03*
Y-39370D02*
D03*
X74311D02*
D03*
X66437Y-33465D02*
D03*
X74311D02*
D03*
X66437Y-27559D02*
D03*
X74311D02*
D03*
X-68898Y11811D02*
D03*
X-61024D02*
D03*
X-98425Y61024D02*
D03*
X-90551D02*
D03*
X-78740D02*
D03*
X-86614D02*
D03*
X-78740Y66929D02*
D03*
X-86614D02*
D03*
X-98425D02*
D03*
X-90551D02*
D03*
X-98425Y72835D02*
D03*
X-90551D02*
D03*
X-78740D02*
D03*
X-86614D02*
D03*
X-98425Y78740D02*
D03*
X-90551D02*
D03*
X-78740D02*
D03*
X-86614D02*
D03*
X-98425Y84646D02*
D03*
X-90551D02*
D03*
X-78740D02*
D03*
X-86614D02*
D03*
X-5906Y14764D02*
D03*
X-13780D02*
D03*
X5906D02*
D03*
X-1969D02*
D03*
X-5906Y20669D02*
D03*
X-13780D02*
D03*
X5906D02*
D03*
X-1969D02*
D03*
X-13780Y26575D02*
D03*
X-5906D02*
D03*
X-1969D02*
D03*
X5906D02*
D03*
X17717Y14764D02*
D03*
X9843D02*
D03*
X17717Y20669D02*
D03*
X9843D02*
D03*
Y26575D02*
D03*
X17717D02*
D03*
X29528Y14764D02*
D03*
X21654D02*
D03*
X29528Y20669D02*
D03*
X21654D02*
D03*
Y26575D02*
D03*
X29528D02*
D03*
X66437Y-21654D02*
D03*
X74311D02*
D03*
X-20669Y-5906D02*
D03*
X-28543D02*
D03*
X-20669Y0D02*
D03*
X-28543D02*
D03*
X-68898Y3937D02*
D03*
X-61024D02*
D03*
X-68898Y-66929D02*
D03*
X-61024D02*
D03*
X-81693Y-32480D02*
D03*
X-73819D02*
D03*
X-81693Y-26575D02*
D03*
X-73819D02*
D03*
D19*
X-90551Y-39370D02*
D03*
Y-47244D02*
D03*
Y31496D02*
D03*
Y23622D02*
D03*
X-25591Y46260D02*
D03*
Y38386D02*
D03*
X3937Y46260D02*
D03*
Y38386D02*
D03*
X-1969Y46260D02*
D03*
Y38386D02*
D03*
X-13780Y46260D02*
D03*
Y38386D02*
D03*
X-19685Y46260D02*
D03*
Y38386D02*
D03*
X-7874Y46260D02*
D03*
Y38386D02*
D03*
X98819Y-36909D02*
D03*
Y-44783D02*
D03*
Y-32480D02*
D03*
Y-24606D02*
D03*
Y-49213D02*
D03*
Y-57087D02*
D03*
X-9843Y-44291D02*
D03*
Y-36417D02*
D03*
X59055Y-41339D02*
D03*
Y-33465D02*
D03*
X-12795Y9843D02*
D03*
Y1969D02*
D03*
X-6890Y9843D02*
D03*
Y1969D02*
D03*
X-984Y9843D02*
D03*
Y1969D02*
D03*
X4921Y9843D02*
D03*
Y1969D02*
D03*
X10827D02*
D03*
Y9843D02*
D03*
X16732Y1969D02*
D03*
Y9843D02*
D03*
X22638D02*
D03*
Y1969D02*
D03*
X28543Y9843D02*
D03*
Y1969D02*
D03*
X79232Y-49213D02*
D03*
Y-41339D02*
D03*
Y-37402D02*
D03*
Y-29528D02*
D03*
X34449Y1969D02*
D03*
Y9843D02*
D03*
X97441Y1969D02*
D03*
Y-5906D02*
D03*
X-90551Y-11811D02*
D03*
Y-19685D02*
D03*
X-90551Y-82677D02*
D03*
Y-90551D02*
D03*
X-34449Y-43307D02*
D03*
Y-51181D02*
D03*
X-27559D02*
D03*
Y-43307D02*
D03*
X-34449Y-27559D02*
D03*
Y-35433D02*
D03*
X-27559D02*
D03*
Y-27559D02*
D03*
D27*
X-10335Y-25394D02*
D03*
Y-21850D02*
D03*
X7382Y-9646D02*
D03*
Y-6102D02*
D03*
X28051Y-23819D02*
D03*
Y-27362D02*
D03*
X-4921Y-33661D02*
D03*
Y-37205D02*
D03*
X6398Y-12008D02*
D03*
Y-15551D02*
D03*
X26083Y-41535D02*
D03*
Y-45079D02*
D03*
X31004Y-23819D02*
D03*
Y-27362D02*
D03*
X23130Y-24803D02*
D03*
Y-28346D02*
D03*
X31004Y-12008D02*
D03*
Y-15551D02*
D03*
X15256D02*
D03*
Y-12008D02*
D03*
X18701Y-25787D02*
D03*
Y-29331D02*
D03*
X28051Y-12008D02*
D03*
Y-15551D02*
D03*
X18209Y-12008D02*
D03*
Y-15551D02*
D03*
X20669D02*
D03*
Y-12008D02*
D03*
X12303D02*
D03*
Y-15551D02*
D03*
X4429Y-9646D02*
D03*
Y-6102D02*
D03*
X6890Y-21358D02*
D03*
Y-24902D02*
D03*
X31004Y-45079D02*
D03*
Y-41535D02*
D03*
X9350Y-15551D02*
D03*
Y-12008D02*
D03*
X24114Y-19488D02*
D03*
Y-15945D02*
D03*
X29035Y-45079D02*
D03*
Y-41535D02*
D03*
D29*
X-17028Y-19685D02*
D03*
X-13484D02*
D03*
X21457Y-6890D02*
D03*
X17913D02*
D03*
X90748Y17224D02*
D03*
X94291D02*
D03*
X31299Y-32972D02*
D03*
X27756D02*
D03*
X20965Y-40846D02*
D03*
X17421D02*
D03*
X14567D02*
D03*
X11024D02*
D03*
X19882Y-45768D02*
D03*
X23425D02*
D03*
X13583Y-34941D02*
D03*
X10039D02*
D03*
X15945D02*
D03*
X19488D02*
D03*
X15945Y-32480D02*
D03*
X19488D02*
D03*
X13583D02*
D03*
X10039D02*
D03*
X-1772Y-26083D02*
D03*
X1772D02*
D03*
X13583Y-30020D02*
D03*
X10039D02*
D03*
X13583Y-27559D02*
D03*
X10039D02*
D03*
Y-25098D02*
D03*
X13583D02*
D03*
X1772Y-17224D02*
D03*
X-1772D02*
D03*
X13583Y-22146D02*
D03*
X10039D02*
D03*
X1772Y-23130D02*
D03*
X-1772D02*
D03*
X20472Y-22638D02*
D03*
X16929D02*
D03*
X8661Y-1476D02*
D03*
X5118D02*
D03*
X14567D02*
D03*
X11024D02*
D03*
X20472D02*
D03*
X16929D02*
D03*
X1772Y-20177D02*
D03*
X-1772D02*
D03*
X14567Y-37894D02*
D03*
X11024D02*
D03*
X27756Y-35925D02*
D03*
X31299D02*
D03*
X27756Y-38878D02*
D03*
X31299D02*
D03*
X-3740Y-41831D02*
D03*
X-197D02*
D03*
X1772Y-29035D02*
D03*
X-1772D02*
D03*
Y-31988D02*
D03*
X1772D02*
D03*
D79*
X84572Y-41535D02*
D03*
X93578Y-49016D02*
D03*
Y-45276D02*
D03*
Y-41535D02*
D03*
X84572Y-49016D02*
D03*
Y-29724D02*
D03*
X93578Y-37205D02*
D03*
Y-33465D02*
D03*
Y-29724D02*
D03*
X84572Y-37205D02*
D03*
M02*
