G04*
G04 #@! TF.GenerationSoftware,Altium Limited,Altium Designer,24.5.2 (23)*
G04*
G04 Layer_Color=14277081*
%FSLAX25Y25*%
%MOIN*%
G70*
G04*
G04 #@! TF.SameCoordinates,CBD31915-EBAD-4892-8028-A86A5986D7F8*
G04*
G04*
G04 #@! TF.FilePolarity,Negative*
G04*
G01*
G75*
%ADD20C,0.07874*%
%ADD21C,0.05906*%
D20*
X95000Y40000D02*
D03*
X55000D02*
D03*
X75000D02*
D03*
X295000Y-255000D02*
D03*
X315000D02*
D03*
X275000D02*
D03*
X35000D02*
D03*
X75000D02*
D03*
X55000D02*
D03*
X115000D02*
D03*
X135000D02*
D03*
X95000D02*
D03*
X155000D02*
D03*
X195000D02*
D03*
X175000D02*
D03*
X235000D02*
D03*
X255000D02*
D03*
X215000D02*
D03*
X155000Y40000D02*
D03*
X115000D02*
D03*
X135000D02*
D03*
X15000D02*
D03*
X-5000D02*
D03*
X35000D02*
D03*
X215000D02*
D03*
X175000D02*
D03*
X195000D02*
D03*
X275000D02*
D03*
X235000D02*
D03*
X255000D02*
D03*
X-60000Y-65000D02*
D03*
Y-85000D02*
D03*
Y-45000D02*
D03*
Y-105000D02*
D03*
Y-145000D02*
D03*
Y-125000D02*
D03*
Y-185000D02*
D03*
Y-205000D02*
D03*
Y-165000D02*
D03*
Y-225000D02*
D03*
Y-265000D02*
D03*
Y-245000D02*
D03*
Y35000D02*
D03*
Y15000D02*
D03*
Y-25000D02*
D03*
Y-5000D02*
D03*
D21*
X290000Y-90000D02*
D03*
X300000Y-80000D02*
D03*
X290000D02*
D03*
X0Y-50000D02*
D03*
X10000Y-80000D02*
D03*
X0Y-110000D02*
D03*
X10000Y-140000D02*
D03*
X0Y-170000D02*
D03*
Y-180000D02*
D03*
Y-190000D02*
D03*
X10000Y-200000D02*
D03*
X0Y-230000D02*
D03*
X290000Y-20000D02*
D03*
X300000Y0D02*
D03*
Y-40000D02*
D03*
Y-70000D02*
D03*
X290000Y-100000D02*
D03*
X300000Y-120000D02*
D03*
Y-140000D02*
D03*
Y20000D02*
D03*
Y10000D02*
D03*
X290000Y20000D02*
D03*
X300000Y-170000D02*
D03*
X290000D02*
D03*
X300000Y-160000D02*
D03*
X290000D02*
D03*
X300000Y-150000D02*
D03*
X290000D02*
D03*
Y-140000D02*
D03*
X300000Y-130000D02*
D03*
X290000D02*
D03*
Y-120000D02*
D03*
X300000Y-110000D02*
D03*
X290000D02*
D03*
X300000Y-100000D02*
D03*
Y-90000D02*
D03*
X290000Y-70000D02*
D03*
X300000Y-60000D02*
D03*
X290000D02*
D03*
X300000Y-50000D02*
D03*
X290000D02*
D03*
Y-40000D02*
D03*
X300000Y-30000D02*
D03*
X290000D02*
D03*
X300000Y-20000D02*
D03*
Y-10000D02*
D03*
X290000D02*
D03*
Y0D02*
D03*
Y10000D02*
D03*
X40000Y-130000D02*
D03*
X30000D02*
D03*
X40000Y-120000D02*
D03*
X30000D02*
D03*
X40000Y-110000D02*
D03*
X30000D02*
D03*
X40000Y-100000D02*
D03*
X30000D02*
D03*
X40000Y-90000D02*
D03*
X30000D02*
D03*
X40000Y-80000D02*
D03*
X30000D02*
D03*
X40000Y-70000D02*
D03*
X30000D02*
D03*
X40000Y-60000D02*
D03*
X30000D02*
D03*
X40000Y-50000D02*
D03*
X30000D02*
D03*
X40000Y-40000D02*
D03*
X30000D02*
D03*
X40000Y-30000D02*
D03*
X30000D02*
D03*
X40000Y-20000D02*
D03*
X30000D02*
D03*
X40000Y-10000D02*
D03*
X30000D02*
D03*
X40000Y0D02*
D03*
X30000D02*
D03*
X10000Y-260000D02*
D03*
X0D02*
D03*
X10000Y-250000D02*
D03*
X0D02*
D03*
X10000Y-240000D02*
D03*
X0D02*
D03*
X10000Y-230000D02*
D03*
Y-220000D02*
D03*
X0D02*
D03*
X10000Y-210000D02*
D03*
X0D02*
D03*
Y-200000D02*
D03*
X10000Y-190000D02*
D03*
Y-180000D02*
D03*
Y-170000D02*
D03*
Y-160000D02*
D03*
X0D02*
D03*
X10000Y-150000D02*
D03*
X0D02*
D03*
Y-140000D02*
D03*
X10000Y-130000D02*
D03*
X0D02*
D03*
X10000Y-120000D02*
D03*
X0D02*
D03*
X10000Y-110000D02*
D03*
Y-100000D02*
D03*
X0D02*
D03*
X10000Y-90000D02*
D03*
X0D02*
D03*
Y-80000D02*
D03*
X10000Y-70000D02*
D03*
X0D02*
D03*
X10000Y-60000D02*
D03*
X0D02*
D03*
X10000Y-50000D02*
D03*
Y-40000D02*
D03*
X0D02*
D03*
X10000Y-30000D02*
D03*
X0D02*
D03*
X10000Y-20000D02*
D03*
X0D02*
D03*
X10000Y-10000D02*
D03*
X0D02*
D03*
X10000Y0D02*
D03*
X0D02*
D03*
M02*
