M48
;Layer_Color=9474304
;FILE_FORMAT=2:5
INCH
;TYPE=PLATED
T01F00S00C0.00787
T02F00S00C0.03937
T03F00S00C0.04724
%
T01
X1094902Y0609902
X1097402Y0607402
X1104902Y0609902
Y0624902
X1092402Y0609902
X1089902Y0607402
X1079902
X1069902Y0609902
X1059902
X1044902
X1034902Y0619902
X1032402Y0617402
X1019902Y0609902
X1004902
X0999902
X0984902
X0959902
X0944902
X0939902
X1082402Y0592402
X1084902Y0594902
X0924902Y0609902
X0899902
X0884902
X0879902
X0864902
X0839902
X0824902
X0819902
X0777402Y0612402
X0767402Y0614902
Y0594902
X0777402Y0592402
Y0577402
X0767402
Y0554902
X0777402Y0552402
Y0532402
X0767402Y0534902
Y0517402
X0777402
Y0637402
X0767402
Y0654902
X0777402Y0652402
Y0672402
X0767402Y0674902
Y0697402
X0777402
Y0711710
X0767402Y0714902
Y0734902
X0777402Y0732402
X0757402Y0772402
X0754902
Y0777402
X0849902
X0882402Y0772402
X0909902Y0777402
X0942402Y0772402
X0992402
X1024902Y0777402
X1027559Y0685039
X1043307
Y0653543
X1027559
X0992402Y0787402
Y0792402
X0942402
X0909902Y0787402
X0882402Y0792402
X0849902Y0787402
X0772402Y0792402
X0767402Y0789902
Y0784902
X0762402Y0792402
X0754902Y0782402
X0742126Y0840551
X0712598
T02
X1077402Y0617402
X1087402
X0797402
X0787402
Y0607402
Y0597402
Y0587402
X0797402
Y0577402
Y0567402
Y0557402
X0787402
Y0547402
Y0537402
Y0527402
X0797402
Y0537402
Y0547402
X0787402Y0567402
Y0577402
X0797402Y0597402
Y0607402
Y0627402
X0787402
Y0637402
X0797402
Y0647402
X0787402
Y0657402
X0797402
Y0667402
X0787402
Y0677402
X0797402
Y0687402
X0787402
Y0697402
X0797402
Y0707402
X0787402
Y0717402
X0797402
Y0727402
X0787402
Y0737402
X0797402
Y0747402
X0787402
Y0757402
X0797402
Y0767402
X0787402
Y0777402
X0797402
X0817402
Y0767402
Y0757402
Y0747402
Y0737402
Y0727402
Y0717402
Y0707402
Y0697402
Y0687402
Y0677402
Y0667402
Y0657402
X0827402
Y0667402
Y0677402
Y0687402
Y0697402
Y0707402
Y0717402
Y0727402
Y0737402
Y0747402
Y0757402
Y0767402
Y0777402
X1077402
Y0767402
Y0757402
Y0747402
X1087402
Y0737402
Y0727402
Y0717402
Y0707402
X1077402
Y0697402
Y0687402
Y0677402
Y0667402
X1087402
Y0657402
Y0647402
Y0637402
Y0627402
X1077402
Y0637402
Y0647402
Y0657402
X1087402Y0677402
Y0687402
Y0697402
X1077402Y0717402
Y0727402
Y0737402
X1087402Y0757402
Y0767402
Y0777402
Y0787402
Y0797402
Y0807402
X1077402
Y0797402
Y0787402
X0827402
X0817402
X0797402
X0787402
T03
X1102402Y0532402
X1082402
X1062402
X1042402
X1022402
X1002402
X0982402
X0962402
X0942402
X0922402
X0902402
X0882402
X0862402
X0842402
X0822402
X0727402Y0522402
Y0542402
Y0562402
Y0582402
Y0602402
Y0622402
Y0642402
Y0662402
Y0682402
Y0702402
Y0722402
Y0742402
Y0762402
X0942402Y0827402
X0962402
X0982402
X1002402
X1022402
X1042402
X1062402
X0922402
X0902402
X0882402
X0862402
X0842402
X0822402
X0802402
X0782402
X0727402Y0822402
Y0802402
Y0782402
M30
