G04*
G04 #@! TF.GenerationSoftware,Altium Limited,Altium Designer,24.5.2 (23)*
G04*
G04 Layer_Color=2752767*
%FSLAX25Y25*%
%MOIN*%
G70*
G04*
G04 #@! TF.SameCoordinates,CBD31915-EBAD-4892-8028-A86A5986D7F8*
G04*
G04*
G04 #@! TF.FilePolarity,Positive*
G04*
G01*
G75*
%ADD24C,0.00500*%
%ADD25C,0.00667*%
D24*
X93000Y38000D02*
X94000Y40000D01*
X93000Y42000D01*
X95000Y41000D01*
X97000Y42000D01*
X96000Y40000D01*
X97000Y38000D01*
X95000Y39000D01*
X93000Y38000D01*
X53000D02*
X54000Y40000D01*
X53000Y42000D01*
X55000Y41000D01*
X57000Y42000D01*
X56000Y40000D01*
X57000Y38000D01*
X55000Y39000D01*
X53000Y38000D01*
X73000D02*
X74000Y40000D01*
X73000Y42000D01*
X75000Y41000D01*
X77000Y42000D01*
X76000Y40000D01*
X77000Y38000D01*
X75000Y39000D01*
X73000Y38000D01*
X293000Y-257000D02*
X294000Y-255000D01*
X293000Y-253000D01*
X295000Y-254000D01*
X297000Y-253000D01*
X296000Y-255000D01*
X297000Y-257000D01*
X295000Y-256000D01*
X293000Y-257000D01*
X313000D02*
X314000Y-255000D01*
X313000Y-253000D01*
X315000Y-254000D01*
X317000Y-253000D01*
X316000Y-255000D01*
X317000Y-257000D01*
X315000Y-256000D01*
X313000Y-257000D01*
X273000D02*
X274000Y-255000D01*
X273000Y-253000D01*
X275000Y-254000D01*
X277000Y-253000D01*
X276000Y-255000D01*
X277000Y-257000D01*
X275000Y-256000D01*
X273000Y-257000D01*
X33000D02*
X34000Y-255000D01*
X33000Y-253000D01*
X35000Y-254000D01*
X37000Y-253000D01*
X36000Y-255000D01*
X37000Y-257000D01*
X35000Y-256000D01*
X33000Y-257000D01*
X73000D02*
X74000Y-255000D01*
X73000Y-253000D01*
X75000Y-254000D01*
X77000Y-253000D01*
X76000Y-255000D01*
X77000Y-257000D01*
X75000Y-256000D01*
X73000Y-257000D01*
X53000D02*
X54000Y-255000D01*
X53000Y-253000D01*
X55000Y-254000D01*
X57000Y-253000D01*
X56000Y-255000D01*
X57000Y-257000D01*
X55000Y-256000D01*
X53000Y-257000D01*
X113000D02*
X114000Y-255000D01*
X113000Y-253000D01*
X115000Y-254000D01*
X117000Y-253000D01*
X116000Y-255000D01*
X117000Y-257000D01*
X115000Y-256000D01*
X113000Y-257000D01*
X133000D02*
X134000Y-255000D01*
X133000Y-253000D01*
X135000Y-254000D01*
X137000Y-253000D01*
X136000Y-255000D01*
X137000Y-257000D01*
X135000Y-256000D01*
X133000Y-257000D01*
X93000D02*
X94000Y-255000D01*
X93000Y-253000D01*
X95000Y-254000D01*
X97000Y-253000D01*
X96000Y-255000D01*
X97000Y-257000D01*
X95000Y-256000D01*
X93000Y-257000D01*
X153000D02*
X154000Y-255000D01*
X153000Y-253000D01*
X155000Y-254000D01*
X157000Y-253000D01*
X156000Y-255000D01*
X157000Y-257000D01*
X155000Y-256000D01*
X153000Y-257000D01*
X193000D02*
X194000Y-255000D01*
X193000Y-253000D01*
X195000Y-254000D01*
X197000Y-253000D01*
X196000Y-255000D01*
X197000Y-257000D01*
X195000Y-256000D01*
X193000Y-257000D01*
X173000D02*
X174000Y-255000D01*
X173000Y-253000D01*
X175000Y-254000D01*
X177000Y-253000D01*
X176000Y-255000D01*
X177000Y-257000D01*
X175000Y-256000D01*
X173000Y-257000D01*
X233000D02*
X234000Y-255000D01*
X233000Y-253000D01*
X235000Y-254000D01*
X237000Y-253000D01*
X236000Y-255000D01*
X237000Y-257000D01*
X235000Y-256000D01*
X233000Y-257000D01*
X253000D02*
X254000Y-255000D01*
X253000Y-253000D01*
X255000Y-254000D01*
X257000Y-253000D01*
X256000Y-255000D01*
X257000Y-257000D01*
X255000Y-256000D01*
X253000Y-257000D01*
X213000D02*
X214000Y-255000D01*
X213000Y-253000D01*
X215000Y-254000D01*
X217000Y-253000D01*
X216000Y-255000D01*
X217000Y-257000D01*
X215000Y-256000D01*
X213000Y-257000D01*
X153000Y38000D02*
X154000Y40000D01*
X153000Y42000D01*
X155000Y41000D01*
X157000Y42000D01*
X156000Y40000D01*
X157000Y38000D01*
X155000Y39000D01*
X153000Y38000D01*
X113000D02*
X114000Y40000D01*
X113000Y42000D01*
X115000Y41000D01*
X117000Y42000D01*
X116000Y40000D01*
X117000Y38000D01*
X115000Y39000D01*
X113000Y38000D01*
X133000D02*
X134000Y40000D01*
X133000Y42000D01*
X135000Y41000D01*
X137000Y42000D01*
X136000Y40000D01*
X137000Y38000D01*
X135000Y39000D01*
X133000Y38000D01*
X13000D02*
X14000Y40000D01*
X13000Y42000D01*
X15000Y41000D01*
X17000Y42000D01*
X16000Y40000D01*
X17000Y38000D01*
X15000Y39000D01*
X13000Y38000D01*
X-7000D02*
X-6000Y40000D01*
X-7000Y42000D01*
X-5000Y41000D01*
X-3000Y42000D01*
X-4000Y40000D01*
X-3000Y38000D01*
X-5000Y39000D01*
X-7000Y38000D01*
X33000D02*
X34000Y40000D01*
X33000Y42000D01*
X35000Y41000D01*
X37000Y42000D01*
X36000Y40000D01*
X37000Y38000D01*
X35000Y39000D01*
X33000Y38000D01*
X213000D02*
X214000Y40000D01*
X213000Y42000D01*
X215000Y41000D01*
X217000Y42000D01*
X216000Y40000D01*
X217000Y38000D01*
X215000Y39000D01*
X213000Y38000D01*
X173000D02*
X174000Y40000D01*
X173000Y42000D01*
X175000Y41000D01*
X177000Y42000D01*
X176000Y40000D01*
X177000Y38000D01*
X175000Y39000D01*
X173000Y38000D01*
X193000D02*
X194000Y40000D01*
X193000Y42000D01*
X195000Y41000D01*
X197000Y42000D01*
X196000Y40000D01*
X197000Y38000D01*
X195000Y39000D01*
X193000Y38000D01*
X273000D02*
X274000Y40000D01*
X273000Y42000D01*
X275000Y41000D01*
X277000Y42000D01*
X276000Y40000D01*
X277000Y38000D01*
X275000Y39000D01*
X273000Y38000D01*
X233000D02*
X234000Y40000D01*
X233000Y42000D01*
X235000Y41000D01*
X237000Y42000D01*
X236000Y40000D01*
X237000Y38000D01*
X235000Y39000D01*
X233000Y38000D01*
X253000D02*
X254000Y40000D01*
X253000Y42000D01*
X255000Y41000D01*
X257000Y42000D01*
X256000Y40000D01*
X257000Y38000D01*
X255000Y39000D01*
X253000Y38000D01*
X-62000Y-67000D02*
X-61000Y-65000D01*
X-62000Y-63000D01*
X-60000Y-64000D01*
X-58000Y-63000D01*
X-59000Y-65000D01*
X-58000Y-67000D01*
X-60000Y-66000D01*
X-62000Y-67000D01*
Y-87000D02*
X-61000Y-85000D01*
X-62000Y-83000D01*
X-60000Y-84000D01*
X-58000Y-83000D01*
X-59000Y-85000D01*
X-58000Y-87000D01*
X-60000Y-86000D01*
X-62000Y-87000D01*
Y-47000D02*
X-61000Y-45000D01*
X-62000Y-43000D01*
X-60000Y-44000D01*
X-58000Y-43000D01*
X-59000Y-45000D01*
X-58000Y-47000D01*
X-60000Y-46000D01*
X-62000Y-47000D01*
Y-107000D02*
X-61000Y-105000D01*
X-62000Y-103000D01*
X-60000Y-104000D01*
X-58000Y-103000D01*
X-59000Y-105000D01*
X-58000Y-107000D01*
X-60000Y-106000D01*
X-62000Y-107000D01*
Y-147000D02*
X-61000Y-145000D01*
X-62000Y-143000D01*
X-60000Y-144000D01*
X-58000Y-143000D01*
X-59000Y-145000D01*
X-58000Y-147000D01*
X-60000Y-146000D01*
X-62000Y-147000D01*
Y-127000D02*
X-61000Y-125000D01*
X-62000Y-123000D01*
X-60000Y-124000D01*
X-58000Y-123000D01*
X-59000Y-125000D01*
X-58000Y-127000D01*
X-60000Y-126000D01*
X-62000Y-127000D01*
Y-187000D02*
X-61000Y-185000D01*
X-62000Y-183000D01*
X-60000Y-184000D01*
X-58000Y-183000D01*
X-59000Y-185000D01*
X-58000Y-187000D01*
X-60000Y-186000D01*
X-62000Y-187000D01*
Y-207000D02*
X-61000Y-205000D01*
X-62000Y-203000D01*
X-60000Y-204000D01*
X-58000Y-203000D01*
X-59000Y-205000D01*
X-58000Y-207000D01*
X-60000Y-206000D01*
X-62000Y-207000D01*
Y-167000D02*
X-61000Y-165000D01*
X-62000Y-163000D01*
X-60000Y-164000D01*
X-58000Y-163000D01*
X-59000Y-165000D01*
X-58000Y-167000D01*
X-60000Y-166000D01*
X-62000Y-167000D01*
Y-227000D02*
X-61000Y-225000D01*
X-62000Y-223000D01*
X-60000Y-224000D01*
X-58000Y-223000D01*
X-59000Y-225000D01*
X-58000Y-227000D01*
X-60000Y-226000D01*
X-62000Y-227000D01*
Y-267000D02*
X-61000Y-265000D01*
X-62000Y-263000D01*
X-60000Y-264000D01*
X-58000Y-263000D01*
X-59000Y-265000D01*
X-58000Y-267000D01*
X-60000Y-266000D01*
X-62000Y-267000D01*
Y-247000D02*
X-61000Y-245000D01*
X-62000Y-243000D01*
X-60000Y-244000D01*
X-58000Y-243000D01*
X-59000Y-245000D01*
X-58000Y-247000D01*
X-60000Y-246000D01*
X-62000Y-247000D01*
Y33000D02*
X-61000Y35000D01*
X-62000Y37000D01*
X-60000Y36000D01*
X-58000Y37000D01*
X-59000Y35000D01*
X-58000Y33000D01*
X-60000Y34000D01*
X-62000Y33000D01*
Y13000D02*
X-61000Y15000D01*
X-62000Y17000D01*
X-60000Y16000D01*
X-58000Y17000D01*
X-59000Y15000D01*
X-58000Y13000D01*
X-60000Y14000D01*
X-62000Y13000D01*
Y-27000D02*
X-61000Y-25000D01*
X-62000Y-23000D01*
X-60000Y-24000D01*
X-58000Y-23000D01*
X-59000Y-25000D01*
X-58000Y-27000D01*
X-60000Y-26000D01*
X-62000Y-27000D01*
Y-7000D02*
X-61000Y-5000D01*
X-62000Y-3000D01*
X-60000Y-4000D01*
X-58000Y-3000D01*
X-59000Y-5000D01*
X-58000Y-7000D01*
X-60000Y-6000D01*
X-62000Y-7000D01*
X238158Y-104362D02*
Y-100362D01*
X242158D01*
Y-104362D01*
X238158D01*
X253906D02*
Y-100362D01*
X257906D01*
Y-104362D01*
X253906D01*
X238158Y-135858D02*
Y-131858D01*
X242158D01*
Y-135858D01*
X238158D01*
X253906D02*
Y-131858D01*
X257906D01*
Y-135858D01*
X253906D01*
X-47276Y51150D02*
Y55150D01*
X-43276D01*
Y51150D01*
X-47276D01*
X-76803D02*
Y55150D01*
X-72803D01*
Y51150D01*
X-76803D01*
X-27000Y3000D02*
Y7000D01*
X-23000D01*
Y3000D01*
X-27000D01*
X-17000D02*
Y7000D01*
X-13000D01*
Y3000D01*
X-17000D01*
X30500Y-179500D02*
Y-175500D01*
X34500D01*
Y-179500D01*
X30500D01*
X280500D02*
Y-175500D01*
X284500D01*
Y-179500D01*
X280500D01*
X290500Y-182000D02*
Y-178000D01*
X294500D01*
Y-182000D01*
X290500D01*
X315500Y-164500D02*
Y-160500D01*
X319500D01*
Y-164500D01*
X315500D01*
Y-179500D02*
Y-175500D01*
X319500D01*
Y-179500D01*
X315500D01*
X270500D02*
Y-175500D01*
X274500D01*
Y-179500D01*
X270500D01*
X255500D02*
Y-175500D01*
X259500D01*
Y-179500D01*
X255500D01*
X230500D02*
Y-175500D01*
X234500D01*
Y-179500D01*
X230500D01*
X215500D02*
Y-175500D01*
X219500D01*
Y-179500D01*
X215500D01*
X210500D02*
Y-175500D01*
X214500D01*
Y-179500D01*
X210500D01*
X195500D02*
Y-175500D01*
X199500D01*
Y-179500D01*
X195500D01*
X170500D02*
Y-175500D01*
X174500D01*
Y-179500D01*
X170500D01*
X155500D02*
Y-175500D01*
X159500D01*
Y-179500D01*
X155500D01*
X150500D02*
Y-175500D01*
X154500D01*
Y-179500D01*
X150500D01*
X135500D02*
Y-175500D01*
X139500D01*
Y-179500D01*
X135500D01*
X110500D02*
Y-175500D01*
X114500D01*
Y-179500D01*
X110500D01*
X95500D02*
Y-175500D01*
X99500D01*
Y-179500D01*
X95500D01*
X90500D02*
Y-175500D01*
X94500D01*
Y-179500D01*
X90500D01*
X50500D02*
Y-175500D01*
X54500D01*
Y-179500D01*
X50500D01*
X75500D02*
Y-175500D01*
X79500D01*
Y-179500D01*
X75500D01*
X35500D02*
Y-175500D01*
X39500D01*
Y-179500D01*
X35500D01*
X235500Y-12000D02*
Y-8000D01*
X239500D01*
Y-12000D01*
X235500D01*
X203000Y-17000D02*
Y-13000D01*
X207000D01*
Y-17000D01*
X203000D01*
X153000D02*
Y-13000D01*
X157000D01*
Y-17000D01*
X153000D01*
X120500Y-12000D02*
Y-8000D01*
X124500D01*
Y-12000D01*
X120500D01*
X93000Y-17000D02*
Y-13000D01*
X97000D01*
Y-17000D01*
X93000D01*
X60500Y-12000D02*
Y-8000D01*
X64500D01*
Y-12000D01*
X60500D01*
X203000Y3000D02*
Y7000D01*
X207000D01*
Y3000D01*
X203000D01*
Y-2000D02*
Y2000D01*
X207000D01*
Y-2000D01*
X203000D01*
X153000Y3000D02*
Y7000D01*
X157000D01*
Y3000D01*
X153000D01*
X120500Y-2000D02*
Y2000D01*
X124500D01*
Y-2000D01*
X120500D01*
X93000Y3000D02*
Y7000D01*
X97000D01*
Y3000D01*
X93000D01*
X60500Y-2000D02*
Y2000D01*
X64500D01*
Y-2000D01*
X60500D01*
X-22000Y-234500D02*
Y-230500D01*
X-18000D01*
Y-234500D01*
X-22000D01*
Y-174500D02*
Y-170500D01*
X-18000D01*
Y-174500D01*
X-22000D01*
Y-114500D02*
Y-110500D01*
X-18000D01*
Y-114500D01*
X-22000D01*
Y-54500D02*
Y-50500D01*
X-18000D01*
Y-54500D01*
X-22000D01*
Y-134500D02*
Y-130500D01*
X-18000D01*
Y-134500D01*
X-22000D01*
Y-194500D02*
Y-190500D01*
X-18000D01*
Y-194500D01*
X-22000D01*
Y-254500D02*
Y-250500D01*
X-18000D01*
Y-254500D01*
X-22000D01*
Y-272000D02*
Y-268000D01*
X-18000D01*
Y-272000D01*
X-22000D01*
Y-212000D02*
Y-208000D01*
X-18000D01*
Y-212000D01*
X-22000D01*
Y-152000D02*
Y-148000D01*
X-18000D01*
Y-152000D01*
X-22000D01*
Y-92000D02*
Y-88000D01*
X-18000D01*
Y-92000D01*
X-22000D01*
Y-74500D02*
Y-70500D01*
X-18000D01*
Y-74500D01*
X-22000D01*
X-12000Y-137000D02*
Y-133000D01*
X-8000D01*
Y-137000D01*
X-12000D01*
Y-197000D02*
Y-193000D01*
X-8000D01*
Y-197000D01*
X-12000D01*
Y-257000D02*
Y-253000D01*
X-8000D01*
Y-257000D01*
X-12000D01*
Y-272000D02*
Y-268000D01*
X-8000D01*
Y-272000D01*
X-12000D01*
Y-237000D02*
Y-233000D01*
X-8000D01*
Y-237000D01*
X-12000D01*
Y-212000D02*
Y-208000D01*
X-8000D01*
Y-212000D01*
X-12000D01*
Y-177000D02*
Y-173000D01*
X-8000D01*
Y-177000D01*
X-12000D01*
Y-77692D02*
Y-73692D01*
X-8000D01*
Y-77692D01*
X-12000D01*
Y-152000D02*
Y-148000D01*
X-8000D01*
Y-152000D01*
X-12000D01*
Y-117000D02*
Y-113000D01*
X-8000D01*
Y-117000D01*
X-12000D01*
Y-92000D02*
Y-88000D01*
X-8000D01*
Y-92000D01*
X-12000D01*
Y-57000D02*
Y-53000D01*
X-8000D01*
Y-57000D01*
X-12000D01*
X-34500Y-7000D02*
Y-3000D01*
X-30500D01*
Y-7000D01*
X-34500D01*
Y-12000D02*
Y-8000D01*
X-30500D01*
Y-12000D01*
X-34500D01*
X-22000Y-4500D02*
Y-500D01*
X-18000D01*
Y-4500D01*
X-22000D01*
Y500D02*
Y4500D01*
X-18000D01*
Y500D01*
X-22000D01*
X305500Y-179500D02*
Y-175500D01*
X309500D01*
Y-179500D01*
X305500D01*
X303000D02*
Y-175500D01*
X307000D01*
Y-179500D01*
X303000D01*
X293000Y-197000D02*
Y-193000D01*
X297000D01*
Y-197000D01*
X293000D01*
X245500Y-169500D02*
Y-165500D01*
X249500D01*
Y-169500D01*
X245500D01*
X-34500Y-17000D02*
Y-13000D01*
X-30500D01*
Y-17000D01*
X-34500D01*
X-32000D02*
Y-13000D01*
X-28000D01*
Y-17000D01*
X-32000D01*
X308000Y-182000D02*
Y-178000D01*
X312000D01*
Y-182000D01*
X308000D01*
X300500D02*
Y-178000D01*
X304500D01*
Y-182000D01*
X300500D01*
X295500Y-194500D02*
Y-190500D01*
X299500D01*
Y-194500D01*
X295500D01*
X243000Y-172000D02*
Y-168000D01*
X247000D01*
Y-172000D01*
X243000D01*
D25*
X292000Y-90000D02*
G03*
X292000Y-90000I-2000J0D01*
G01*
X302000Y-80000D02*
G03*
X302000Y-80000I-2000J0D01*
G01*
X292000D02*
G03*
X292000Y-80000I-2000J0D01*
G01*
X2000Y-50000D02*
G03*
X2000Y-50000I-2000J0D01*
G01*
X12000Y-80000D02*
G03*
X12000Y-80000I-2000J0D01*
G01*
X2000Y-110000D02*
G03*
X2000Y-110000I-2000J0D01*
G01*
X12000Y-140000D02*
G03*
X12000Y-140000I-2000J0D01*
G01*
X2000Y-170000D02*
G03*
X2000Y-170000I-2000J0D01*
G01*
Y-180000D02*
G03*
X2000Y-180000I-2000J0D01*
G01*
Y-190000D02*
G03*
X2000Y-190000I-2000J0D01*
G01*
X12000Y-200000D02*
G03*
X12000Y-200000I-2000J0D01*
G01*
X2000Y-230000D02*
G03*
X2000Y-230000I-2000J0D01*
G01*
X292000Y-20000D02*
G03*
X292000Y-20000I-2000J0D01*
G01*
X302000Y0D02*
G03*
X302000Y0I-2000J0D01*
G01*
Y-40000D02*
G03*
X302000Y-40000I-2000J0D01*
G01*
Y-70000D02*
G03*
X302000Y-70000I-2000J0D01*
G01*
X292000Y-100000D02*
G03*
X292000Y-100000I-2000J0D01*
G01*
X302000Y-120000D02*
G03*
X302000Y-120000I-2000J0D01*
G01*
Y-140000D02*
G03*
X302000Y-140000I-2000J0D01*
G01*
Y20000D02*
G03*
X302000Y20000I-2000J0D01*
G01*
Y10000D02*
G03*
X302000Y10000I-2000J0D01*
G01*
X292000Y20000D02*
G03*
X292000Y20000I-2000J0D01*
G01*
X302000Y-170000D02*
G03*
X302000Y-170000I-2000J0D01*
G01*
X292000D02*
G03*
X292000Y-170000I-2000J0D01*
G01*
X302000Y-160000D02*
G03*
X302000Y-160000I-2000J0D01*
G01*
X292000D02*
G03*
X292000Y-160000I-2000J0D01*
G01*
X302000Y-150000D02*
G03*
X302000Y-150000I-2000J0D01*
G01*
X292000D02*
G03*
X292000Y-150000I-2000J0D01*
G01*
Y-140000D02*
G03*
X292000Y-140000I-2000J0D01*
G01*
X302000Y-130000D02*
G03*
X302000Y-130000I-2000J0D01*
G01*
X292000D02*
G03*
X292000Y-130000I-2000J0D01*
G01*
Y-120000D02*
G03*
X292000Y-120000I-2000J0D01*
G01*
X302000Y-110000D02*
G03*
X302000Y-110000I-2000J0D01*
G01*
X292000D02*
G03*
X292000Y-110000I-2000J0D01*
G01*
X302000Y-100000D02*
G03*
X302000Y-100000I-2000J0D01*
G01*
Y-90000D02*
G03*
X302000Y-90000I-2000J0D01*
G01*
X292000Y-70000D02*
G03*
X292000Y-70000I-2000J0D01*
G01*
X302000Y-60000D02*
G03*
X302000Y-60000I-2000J0D01*
G01*
X292000D02*
G03*
X292000Y-60000I-2000J0D01*
G01*
X302000Y-50000D02*
G03*
X302000Y-50000I-2000J0D01*
G01*
X292000D02*
G03*
X292000Y-50000I-2000J0D01*
G01*
Y-40000D02*
G03*
X292000Y-40000I-2000J0D01*
G01*
X302000Y-30000D02*
G03*
X302000Y-30000I-2000J0D01*
G01*
X292000D02*
G03*
X292000Y-30000I-2000J0D01*
G01*
X302000Y-20000D02*
G03*
X302000Y-20000I-2000J0D01*
G01*
Y-10000D02*
G03*
X302000Y-10000I-2000J0D01*
G01*
X292000D02*
G03*
X292000Y-10000I-2000J0D01*
G01*
Y0D02*
G03*
X292000Y0I-2000J0D01*
G01*
Y10000D02*
G03*
X292000Y10000I-2000J0D01*
G01*
X42000Y-130000D02*
G03*
X42000Y-130000I-2000J0D01*
G01*
X32000D02*
G03*
X32000Y-130000I-2000J0D01*
G01*
X42000Y-120000D02*
G03*
X42000Y-120000I-2000J0D01*
G01*
X32000D02*
G03*
X32000Y-120000I-2000J0D01*
G01*
X42000Y-110000D02*
G03*
X42000Y-110000I-2000J0D01*
G01*
X32000D02*
G03*
X32000Y-110000I-2000J0D01*
G01*
X42000Y-100000D02*
G03*
X42000Y-100000I-2000J0D01*
G01*
X32000D02*
G03*
X32000Y-100000I-2000J0D01*
G01*
X42000Y-90000D02*
G03*
X42000Y-90000I-2000J0D01*
G01*
X32000D02*
G03*
X32000Y-90000I-2000J0D01*
G01*
X42000Y-80000D02*
G03*
X42000Y-80000I-2000J0D01*
G01*
X32000D02*
G03*
X32000Y-80000I-2000J0D01*
G01*
X42000Y-70000D02*
G03*
X42000Y-70000I-2000J0D01*
G01*
X32000D02*
G03*
X32000Y-70000I-2000J0D01*
G01*
X42000Y-60000D02*
G03*
X42000Y-60000I-2000J0D01*
G01*
X32000D02*
G03*
X32000Y-60000I-2000J0D01*
G01*
X42000Y-50000D02*
G03*
X42000Y-50000I-2000J0D01*
G01*
X32000D02*
G03*
X32000Y-50000I-2000J0D01*
G01*
X42000Y-40000D02*
G03*
X42000Y-40000I-2000J0D01*
G01*
X32000D02*
G03*
X32000Y-40000I-2000J0D01*
G01*
X42000Y-30000D02*
G03*
X42000Y-30000I-2000J0D01*
G01*
X32000D02*
G03*
X32000Y-30000I-2000J0D01*
G01*
X42000Y-20000D02*
G03*
X42000Y-20000I-2000J0D01*
G01*
X32000D02*
G03*
X32000Y-20000I-2000J0D01*
G01*
X42000Y-10000D02*
G03*
X42000Y-10000I-2000J0D01*
G01*
X32000D02*
G03*
X32000Y-10000I-2000J0D01*
G01*
X42000Y0D02*
G03*
X42000Y0I-2000J0D01*
G01*
X32000D02*
G03*
X32000Y0I-2000J0D01*
G01*
X12000Y-260000D02*
G03*
X12000Y-260000I-2000J0D01*
G01*
X2000D02*
G03*
X2000Y-260000I-2000J0D01*
G01*
X12000Y-250000D02*
G03*
X12000Y-250000I-2000J0D01*
G01*
X2000D02*
G03*
X2000Y-250000I-2000J0D01*
G01*
X12000Y-240000D02*
G03*
X12000Y-240000I-2000J0D01*
G01*
X2000D02*
G03*
X2000Y-240000I-2000J0D01*
G01*
X12000Y-230000D02*
G03*
X12000Y-230000I-2000J0D01*
G01*
Y-220000D02*
G03*
X12000Y-220000I-2000J0D01*
G01*
X2000D02*
G03*
X2000Y-220000I-2000J0D01*
G01*
X12000Y-210000D02*
G03*
X12000Y-210000I-2000J0D01*
G01*
X2000D02*
G03*
X2000Y-210000I-2000J0D01*
G01*
Y-200000D02*
G03*
X2000Y-200000I-2000J0D01*
G01*
X12000Y-190000D02*
G03*
X12000Y-190000I-2000J0D01*
G01*
Y-180000D02*
G03*
X12000Y-180000I-2000J0D01*
G01*
Y-170000D02*
G03*
X12000Y-170000I-2000J0D01*
G01*
Y-160000D02*
G03*
X12000Y-160000I-2000J0D01*
G01*
X2000D02*
G03*
X2000Y-160000I-2000J0D01*
G01*
X12000Y-150000D02*
G03*
X12000Y-150000I-2000J0D01*
G01*
X2000D02*
G03*
X2000Y-150000I-2000J0D01*
G01*
Y-140000D02*
G03*
X2000Y-140000I-2000J0D01*
G01*
X12000Y-130000D02*
G03*
X12000Y-130000I-2000J0D01*
G01*
X2000D02*
G03*
X2000Y-130000I-2000J0D01*
G01*
X12000Y-120000D02*
G03*
X12000Y-120000I-2000J0D01*
G01*
X2000D02*
G03*
X2000Y-120000I-2000J0D01*
G01*
X12000Y-110000D02*
G03*
X12000Y-110000I-2000J0D01*
G01*
Y-100000D02*
G03*
X12000Y-100000I-2000J0D01*
G01*
X2000D02*
G03*
X2000Y-100000I-2000J0D01*
G01*
X12000Y-90000D02*
G03*
X12000Y-90000I-2000J0D01*
G01*
X2000D02*
G03*
X2000Y-90000I-2000J0D01*
G01*
Y-80000D02*
G03*
X2000Y-80000I-2000J0D01*
G01*
X12000Y-70000D02*
G03*
X12000Y-70000I-2000J0D01*
G01*
X2000D02*
G03*
X2000Y-70000I-2000J0D01*
G01*
X12000Y-60000D02*
G03*
X12000Y-60000I-2000J0D01*
G01*
X2000D02*
G03*
X2000Y-60000I-2000J0D01*
G01*
X12000Y-50000D02*
G03*
X12000Y-50000I-2000J0D01*
G01*
Y-40000D02*
G03*
X12000Y-40000I-2000J0D01*
G01*
X2000D02*
G03*
X2000Y-40000I-2000J0D01*
G01*
X12000Y-30000D02*
G03*
X12000Y-30000I-2000J0D01*
G01*
X2000D02*
G03*
X2000Y-30000I-2000J0D01*
G01*
X12000Y-20000D02*
G03*
X12000Y-20000I-2000J0D01*
G01*
X2000D02*
G03*
X2000Y-20000I-2000J0D01*
G01*
X12000Y-10000D02*
G03*
X12000Y-10000I-2000J0D01*
G01*
X2000D02*
G03*
X2000Y-10000I-2000J0D01*
G01*
X12000Y0D02*
G03*
X12000Y0I-2000J0D01*
G01*
X2000D02*
G03*
X2000Y0I-2000J0D01*
G01*
M02*
