G04*
G04 #@! TF.GenerationSoftware,Altium Limited,Altium Designer,24.5.2 (23)*
G04*
G04 Layer_Color=12040119*
%FSLAX25Y25*%
%MOIN*%
G70*
G04*
G04 #@! TF.SameCoordinates,CBD31915-EBAD-4892-8028-A86A5986D7F8*
G04*
G04*
G04 #@! TF.FilePolarity,Positive*
G04*
G01*
G75*
%ADD12R,0.04941X0.02000*%
%ADD13R,0.05118X0.03150*%
%ADD14R,0.03150X0.05118*%
%ADD15R,0.02197X0.06456*%
%ADD16O,0.01575X0.05709*%
%ADD17R,0.03150X0.02165*%
D12*
X-30320Y-72500D02*
D03*
Y-67500D02*
D03*
Y-62500D02*
D03*
Y-57500D02*
D03*
X-9680D02*
D03*
Y-62500D02*
D03*
Y-67500D02*
D03*
Y-72500D02*
D03*
Y-132500D02*
D03*
Y-127500D02*
D03*
Y-122500D02*
D03*
Y-117500D02*
D03*
X-30320D02*
D03*
Y-122500D02*
D03*
Y-127500D02*
D03*
Y-132500D02*
D03*
Y-192500D02*
D03*
Y-187500D02*
D03*
Y-182500D02*
D03*
Y-177500D02*
D03*
X-9680D02*
D03*
Y-182500D02*
D03*
Y-187500D02*
D03*
Y-192500D02*
D03*
Y-252500D02*
D03*
Y-247500D02*
D03*
Y-242500D02*
D03*
Y-237500D02*
D03*
X-30320D02*
D03*
Y-242500D02*
D03*
Y-247500D02*
D03*
Y-252500D02*
D03*
D13*
X240158Y-114173D02*
D03*
Y-106299D02*
D03*
X255906Y-114173D02*
D03*
Y-106299D02*
D03*
X240158Y-129921D02*
D03*
Y-122047D02*
D03*
X255906Y-129921D02*
D03*
Y-122047D02*
D03*
X-20000Y-78563D02*
D03*
Y-86437D02*
D03*
Y-138563D02*
D03*
Y-146437D02*
D03*
Y-198563D02*
D03*
Y-206437D02*
D03*
Y-258563D02*
D03*
Y-266437D02*
D03*
X317500Y-166063D02*
D03*
Y-173937D02*
D03*
X277500Y-178937D02*
D03*
Y-171063D02*
D03*
X210000Y-8563D02*
D03*
Y-16437D02*
D03*
Y-1437D02*
D03*
Y6437D02*
D03*
X150000Y-8563D02*
D03*
Y-16437D02*
D03*
Y-1437D02*
D03*
Y6437D02*
D03*
X90000Y-8563D02*
D03*
Y-16437D02*
D03*
Y-1437D02*
D03*
Y6437D02*
D03*
X205000Y-223937D02*
D03*
Y-216063D02*
D03*
X145000Y-223937D02*
D03*
Y-216063D02*
D03*
X25000Y-223937D02*
D03*
Y-216063D02*
D03*
X265000Y-223937D02*
D03*
Y-216063D02*
D03*
X85000Y-223937D02*
D03*
Y-216063D02*
D03*
X-10000Y-266437D02*
D03*
Y-258563D02*
D03*
Y-206437D02*
D03*
Y-198563D02*
D03*
Y-146437D02*
D03*
Y-138563D02*
D03*
Y-86437D02*
D03*
Y-78563D02*
D03*
X-30000Y-43563D02*
D03*
Y-51437D02*
D03*
Y-103563D02*
D03*
Y-111437D02*
D03*
Y-146437D02*
D03*
Y-138563D02*
D03*
Y-163563D02*
D03*
Y-171437D02*
D03*
Y-206437D02*
D03*
Y-198563D02*
D03*
Y-223563D02*
D03*
Y-231437D02*
D03*
Y-266437D02*
D03*
Y-258563D02*
D03*
Y-86437D02*
D03*
Y-78563D02*
D03*
X-25000Y1437D02*
D03*
Y-6437D02*
D03*
X-15000Y1437D02*
D03*
Y-6437D02*
D03*
D14*
X-62992Y53150D02*
D03*
X-70866D02*
D03*
X-49213D02*
D03*
X-57087D02*
D03*
X101063Y-177500D02*
D03*
X108937D02*
D03*
X141063D02*
D03*
X148937D02*
D03*
X161063D02*
D03*
X168937D02*
D03*
X201063D02*
D03*
X208937D02*
D03*
X221063D02*
D03*
X228937D02*
D03*
X261063D02*
D03*
X268937D02*
D03*
X48937D02*
D03*
X41063D02*
D03*
X88937D02*
D03*
X81063D02*
D03*
D15*
X317500Y-224100D02*
D03*
X312500D02*
D03*
X307500D02*
D03*
X302500D02*
D03*
X297500D02*
D03*
X292500D02*
D03*
X287500D02*
D03*
X282500D02*
D03*
X277500D02*
D03*
X272500D02*
D03*
Y-185900D02*
D03*
X277500D02*
D03*
X282500D02*
D03*
X287500D02*
D03*
X292500D02*
D03*
X297500D02*
D03*
X302500D02*
D03*
X307500D02*
D03*
X312500D02*
D03*
X317500D02*
D03*
X197500D02*
D03*
X192500D02*
D03*
X187500D02*
D03*
X182500D02*
D03*
X177500D02*
D03*
X172500D02*
D03*
X167500D02*
D03*
X162500D02*
D03*
X157500D02*
D03*
X152500D02*
D03*
Y-224100D02*
D03*
X157500D02*
D03*
X162500D02*
D03*
X167500D02*
D03*
X172500D02*
D03*
X177500D02*
D03*
X182500D02*
D03*
X187500D02*
D03*
X192500D02*
D03*
X197500D02*
D03*
X77500Y-185900D02*
D03*
X72500D02*
D03*
X67500D02*
D03*
X62500D02*
D03*
X57500D02*
D03*
X52500D02*
D03*
X47500D02*
D03*
X42500D02*
D03*
X37500D02*
D03*
X32500D02*
D03*
Y-224100D02*
D03*
X37500D02*
D03*
X42500D02*
D03*
X47500D02*
D03*
X52500D02*
D03*
X57500D02*
D03*
X62500D02*
D03*
X67500D02*
D03*
X72500D02*
D03*
X77500D02*
D03*
X137500Y-185900D02*
D03*
X132500D02*
D03*
X127500D02*
D03*
X122500D02*
D03*
X117500D02*
D03*
X112500D02*
D03*
X107500D02*
D03*
X102500D02*
D03*
X97500D02*
D03*
X92500D02*
D03*
Y-224100D02*
D03*
X97500D02*
D03*
X102500D02*
D03*
X107500D02*
D03*
X112500D02*
D03*
X117500D02*
D03*
X122500D02*
D03*
X127500D02*
D03*
X132500D02*
D03*
X137500D02*
D03*
X257500Y-185900D02*
D03*
X252500D02*
D03*
X247500D02*
D03*
X242500D02*
D03*
X237500D02*
D03*
X232500D02*
D03*
X227500D02*
D03*
X222500D02*
D03*
X217500D02*
D03*
X212500D02*
D03*
Y-224100D02*
D03*
X217500D02*
D03*
X222500D02*
D03*
X227500D02*
D03*
X232500D02*
D03*
X237500D02*
D03*
X242500D02*
D03*
X247500D02*
D03*
X252500D02*
D03*
X257500D02*
D03*
D16*
X143750Y5728D02*
D03*
X141250D02*
D03*
X138750D02*
D03*
X136250D02*
D03*
X133750D02*
D03*
X131250D02*
D03*
X128750D02*
D03*
X126250D02*
D03*
Y-15728D02*
D03*
X128750D02*
D03*
X131250D02*
D03*
X133750D02*
D03*
X136250D02*
D03*
X138750D02*
D03*
X141250D02*
D03*
X143750D02*
D03*
X83750D02*
D03*
X81250D02*
D03*
X78750D02*
D03*
X76250D02*
D03*
X73750D02*
D03*
X71250D02*
D03*
X68750D02*
D03*
X66250D02*
D03*
Y5728D02*
D03*
X68750D02*
D03*
X71250D02*
D03*
X73750D02*
D03*
X76250D02*
D03*
X78750D02*
D03*
X81250D02*
D03*
X83750D02*
D03*
X216250Y5728D02*
D03*
X218750D02*
D03*
X221250D02*
D03*
X223750D02*
D03*
X226250D02*
D03*
X228750D02*
D03*
X231250D02*
D03*
X233750D02*
D03*
Y-15728D02*
D03*
X231250D02*
D03*
X228750D02*
D03*
X226250D02*
D03*
X223750D02*
D03*
X221250D02*
D03*
X218750D02*
D03*
X216250D02*
D03*
D17*
X-25020Y-11260D02*
D03*
Y-15000D02*
D03*
Y-18740D02*
D03*
X-14980D02*
D03*
Y-11260D02*
D03*
M02*
