G04*
G04 #@! TF.GenerationSoftware,Altium Limited,Altium Designer,24.5.2 (23)*
G04*
G04 Layer_Physical_Order=1*
G04 Layer_Color=6711008*
%FSLAX25Y25*%
%MOIN*%
G70*
G04*
G04 #@! TF.SameCoordinates,CBD31915-EBAD-4892-8028-A86A5986D7F8*
G04*
G04*
G04 #@! TF.FilePolarity,Positive*
G04*
G01*
G75*
%ADD10C,0.00787*%
%ADD12R,0.04941X0.02000*%
%ADD15R,0.02197X0.06456*%
%ADD16O,0.01575X0.05709*%
%ADD17R,0.03150X0.02165*%
%ADD18R,0.05512X0.03543*%
%ADD19R,0.03543X0.05512*%
%ADD20C,0.07874*%
%ADD21C,0.05906*%
%ADD22C,0.01968*%
%ADD23C,0.01968*%
D10*
X240158Y-133858D02*
Y-129921D01*
Y-106299D02*
Y-102362D01*
Y-122047D02*
Y-114173D01*
X255906Y-106299D02*
Y-102362D01*
Y-133858D02*
Y-129921D01*
Y-122047D02*
Y-114173D01*
X231250Y5728D02*
Y13750D01*
X127500Y-65000D02*
X277500D01*
X81250Y-18750D02*
Y-15728D01*
Y-18750D02*
X127500Y-65000D01*
X78750Y-23750D02*
Y-15728D01*
X125000Y-70000D02*
X275000D01*
X78750Y-23750D02*
X125000Y-70000D01*
X76250Y-28750D02*
Y-15728D01*
X122500Y-75000D02*
X272500D01*
X76250Y-28750D02*
X122500Y-75000D01*
X73750Y-33750D02*
Y-15728D01*
X120000Y-80000D02*
X262500D01*
X73750Y-33750D02*
X120000Y-80000D01*
X71250Y-38750D02*
Y-15728D01*
Y-38750D02*
X117500Y-85000D01*
X68750Y-43750D02*
Y-15728D01*
Y-43750D02*
X115000Y-90000D01*
X172500Y-50000D02*
X290000D01*
X141250Y-18750D02*
Y-15728D01*
Y-18750D02*
X172500Y-50000D01*
X138750Y-23750D02*
Y-15728D01*
Y-23750D02*
X170000Y-55000D01*
X295000D01*
X136250Y-28750D02*
Y-15728D01*
Y-28750D02*
X167500Y-60000D01*
X280000D01*
X231250Y-18750D02*
X232500Y-20000D01*
X260000D01*
X290000Y10000D01*
X228750Y-21250D02*
Y-15728D01*
Y-21250D02*
X232500Y-25000D01*
X265000D01*
X290000Y0D01*
X232500Y-30000D02*
X270000D01*
X290000Y-10000D01*
X226250Y-23750D02*
X232500Y-30000D01*
X223750Y-26250D02*
X232500Y-35000D01*
X285000D01*
X221250Y-28750D02*
X232500Y-40000D01*
X282500D01*
X218750Y-33750D02*
X230000Y-45000D01*
X280000D01*
X226250Y-23750D02*
Y-15728D01*
X223750Y-26250D02*
Y-15728D01*
X221250Y-28750D02*
Y-15728D01*
X218750Y-33750D02*
Y-15728D01*
X-62992Y53150D02*
X-57087D01*
X-49213D02*
X-45276D01*
X-74803D02*
X-70866D01*
X-25000Y1437D02*
Y5000D01*
X-15000Y1437D02*
Y5000D01*
X32500Y-185900D02*
Y-177500D01*
X277500D02*
X282500D01*
X277500Y-178937D02*
Y-177500D01*
X292500Y-185900D02*
Y-180000D01*
X317500Y-166063D02*
Y-162500D01*
X210000Y-10000D02*
X233750D01*
X237500D01*
X205000Y-15000D02*
X210000D01*
X216250D01*
X210000Y-16437D02*
Y-15000D01*
X150000D02*
X155000D01*
X143750D02*
X150000D01*
X126250Y-10000D02*
X150000D01*
X122500D02*
X126250D01*
X90000Y-15000D02*
X95000D01*
X83750D02*
X90000D01*
Y-16437D02*
Y-15000D01*
X66250Y-10000D02*
X90000D01*
X62500D02*
X66250D01*
X210000Y5000D02*
X216250D01*
X205000D02*
X210000D01*
Y0D02*
X233750D01*
X205000D02*
X210000D01*
Y-1437D02*
Y0D01*
X150000Y5000D02*
X155000D01*
X143750D02*
X150000D01*
X126250Y0D02*
X150000D01*
X122500D02*
X126250D01*
X83750Y5000D02*
X90000D01*
X95000D01*
X90000D02*
Y6437D01*
X66250Y0D02*
X90000D01*
X62500D02*
X66250D01*
X-20000Y-237500D02*
Y-232500D01*
X-30320Y-237500D02*
X-20000D01*
Y-177500D02*
Y-172500D01*
X-30320Y-177500D02*
X-20000D01*
Y-117500D02*
Y-112500D01*
X-30320Y-117500D02*
X-20000D01*
Y-57500D02*
Y-52500D01*
X-30320Y-57500D02*
X-20000D01*
Y-270000D02*
Y-267874D01*
X-21437Y-266437D02*
X-20000Y-267874D01*
X-30320Y-252500D02*
X-20000D01*
Y-258563D02*
Y-252500D01*
Y-210000D02*
Y-206437D01*
Y-198563D02*
Y-192500D01*
X-30320D02*
X-20000D01*
Y-150000D02*
Y-147874D01*
X-21437Y-146437D02*
X-20000Y-147874D01*
Y-138563D02*
Y-132500D01*
X-30320D02*
X-20000D01*
Y-90000D02*
Y-86437D01*
Y-78563D02*
Y-72500D01*
X-30320D02*
X-20000D01*
X-10000Y-258563D02*
Y-252820D01*
Y-270000D02*
Y-266437D01*
Y-237500D02*
Y-235000D01*
Y-237500D02*
X-9680D01*
X-10000Y-210000D02*
Y-206437D01*
Y-198563D02*
Y-192500D01*
X-9680D01*
X-10000Y-177500D02*
Y-175000D01*
Y-177500D02*
X-9680D01*
X-10000Y-75692D02*
Y-72820D01*
Y-78563D02*
Y-75692D01*
Y-132820D02*
Y-132500D01*
Y-138563D02*
Y-132820D01*
Y-132500D02*
X-9680D01*
X-10000Y-150000D02*
Y-146437D01*
Y-117500D02*
Y-115000D01*
Y-117500D02*
X-9680D01*
X-10000Y-90000D02*
Y-86437D01*
X22500Y-210000D02*
X162500D01*
X20000Y-230000D02*
Y-212500D01*
X22500Y-210000D01*
X55000Y-197500D02*
X70000D01*
X72500Y-195000D02*
X117500D01*
X70000Y-197500D02*
X72500Y-195000D01*
X52500D02*
X55000Y-197500D01*
X7500Y-195000D02*
X52500D01*
X162500Y-210000D02*
X182500Y-190000D01*
X20000Y-202500D02*
X120000D01*
X15000Y-207500D02*
X20000Y-202500D01*
X120000D02*
X132500Y-190000D01*
X117500Y-195000D02*
X122500Y-190000D01*
X-21437Y-266437D02*
X-20000D01*
X-21437Y-146437D02*
X-20000D01*
X-7500Y0D02*
X0D01*
X-10000Y-2500D02*
X-7500Y0D01*
X-10000Y-12500D02*
Y-2500D01*
X-12500Y-15000D02*
X-10000Y-12500D01*
X-17500Y-15000D02*
X-12500D01*
X-21240Y-18740D02*
X-17500Y-15000D01*
X-25020Y-18740D02*
X-21240D01*
X297500Y-192500D02*
X307500D01*
X315000D02*
Y-180000D01*
X252500Y-200000D02*
X307500D01*
X315000Y-192500D01*
X317500Y-185900D02*
Y-173937D01*
X305000Y-10000D02*
X317500Y-22500D01*
Y-157500D02*
Y-22500D01*
X312500Y-162500D02*
X317500Y-157500D01*
X312500Y-177500D02*
Y-162500D01*
Y-177500D02*
X315000Y-180000D01*
X312500Y-185900D02*
Y-182500D01*
X310000Y-180000D02*
X312500Y-182500D01*
X302500Y-185900D02*
Y-180000D01*
X307500Y-192500D02*
Y-185900D01*
X297500Y-192500D02*
Y-185900D01*
X215000Y-140000D02*
X245000Y-170000D01*
X305000Y-145000D02*
X310000Y-140000D01*
X285000Y-145000D02*
X305000D01*
X252500Y-177500D02*
X285000Y-145000D01*
X252500Y-185900D02*
Y-177500D01*
X300000Y-10000D02*
X305000D01*
X242500Y-190000D02*
X252500Y-200000D01*
X150000Y-140000D02*
X215000D01*
X242500Y-190000D02*
Y-185900D01*
X5060Y-12560D02*
X7500Y-15000D01*
X0Y-10000D02*
X2560Y-12560D01*
X5060D01*
X7500Y-15000D02*
X15000D01*
X47500Y-37500D02*
X150000Y-140000D01*
X47500Y-37500D02*
Y-20000D01*
X42500Y-15000D02*
X47500Y-20000D01*
X25000Y-15000D02*
X42500D01*
X15000Y-5000D02*
X25000Y-15000D01*
X-2500Y-5000D02*
X15000D01*
X-5000Y-7500D02*
X-2500Y-5000D01*
X-5000Y-12500D02*
Y-7500D01*
Y-12500D02*
X-2500Y-15000D01*
X2500D01*
X5000Y-17500D01*
Y-65000D02*
Y-17500D01*
Y-65000D02*
X10000Y-70000D01*
X20000Y-80000D02*
X25000Y-85000D01*
X20000Y-80000D02*
Y-70000D01*
X10000Y-60000D02*
X20000Y-70000D01*
X15000Y-225000D02*
Y-207500D01*
X145000Y-150000D02*
X212500D01*
X50000Y-55000D02*
X145000Y-150000D01*
X212500D02*
X237500Y-175000D01*
X25000Y-45000D02*
X32500D01*
X37500Y-55000D02*
X50000D01*
X35000Y-52500D02*
X37500Y-55000D01*
X35000Y-52500D02*
Y-47500D01*
X32500Y-45000D02*
X35000Y-47500D01*
X192500Y-185900D02*
Y-177500D01*
X175000Y-160000D02*
X192500Y-177500D01*
X140000Y-160000D02*
X175000D01*
X45000Y-65000D02*
X140000Y-160000D01*
X25000Y-65000D02*
X45000D01*
X10000Y-50000D02*
X25000Y-65000D01*
X177500Y-180000D02*
X187500D01*
Y-185900D02*
Y-180000D01*
X177500Y-185900D02*
Y-180000D01*
Y-177500D01*
X5000Y-197500D02*
X7500Y-195000D01*
X-11437Y-258563D02*
X-10000D01*
X25000Y-225000D02*
Y-223937D01*
Y-225000D02*
X32500D01*
X233750Y5728D02*
Y7500D01*
X126250Y5728D02*
Y7500D01*
X66250Y5728D02*
Y7500D01*
X170000Y-170000D02*
X177500Y-177500D01*
X25000Y-85000D02*
X50000D01*
X135000Y-170000D02*
X170000D01*
X50000Y-85000D02*
X135000Y-170000D01*
X67500Y-185900D02*
Y-167500D01*
X25379Y-135379D02*
X35379D01*
X67500Y-167500D01*
X20000Y-130000D02*
X25379Y-135379D01*
X72500Y-185900D02*
Y-145000D01*
X42500Y-115000D02*
X72500Y-145000D01*
X27500Y-115000D02*
X42500D01*
X25000Y-112500D02*
X27500Y-115000D01*
X25000Y-112500D02*
Y-105000D01*
X7500Y-115000D02*
X15000D01*
X20000Y-130000D02*
Y-120000D01*
X15000Y-115000D02*
X20000Y-120000D01*
X10000Y-90000D02*
X25000Y-105000D01*
X127500Y-180000D02*
Y-177500D01*
X45000Y-95000D02*
X127500Y-177500D01*
X25000Y-95000D02*
X45000D01*
X117500Y-180000D02*
X127500D01*
X117500Y-185900D02*
Y-180000D01*
X127500Y-185900D02*
Y-180000D01*
X297500Y-110000D02*
X300000D01*
X292500Y-105000D02*
X297500Y-110000D01*
X310000Y-140000D02*
Y-30000D01*
X300000Y-20000D02*
X310000Y-30000D01*
X287500Y-105000D02*
X292500D01*
X237500Y-180000D02*
Y-175000D01*
Y-185900D02*
Y-180000D01*
X247500D01*
Y-185900D02*
Y-180000D01*
X15000Y-15000D02*
X20000Y-20000D01*
Y-40000D02*
Y-20000D01*
Y-40000D02*
X25000Y-45000D01*
X0Y-90000D02*
X5000Y-85000D01*
X15000D01*
X25000Y-95000D01*
X57500Y-192500D02*
Y-185900D01*
Y-192500D02*
X67500D01*
Y-185900D01*
X-5000Y-75000D02*
X0Y-70000D01*
X-5000Y-92500D02*
Y-75000D01*
Y-92500D02*
X-2500Y-95000D01*
X2500D01*
X5000Y-97500D01*
Y-112500D02*
Y-97500D01*
Y-112500D02*
X7500Y-115000D01*
X0Y-150000D02*
X5000Y-155000D01*
X35000D01*
X62500Y-182500D01*
Y-185900D02*
Y-182500D01*
X280000Y-45000D02*
X295000D01*
X282500Y-40000D02*
X290000D01*
X257500Y-90000D02*
X285000Y-117500D01*
X287500D01*
X272500Y-75000D02*
X285000Y-87500D01*
X287500D02*
X290000Y-90000D01*
X285000Y-87500D02*
X287500D01*
Y-117500D02*
X290000Y-120000D01*
X115000Y-90000D02*
X257500D01*
X117500Y-85000D02*
X260000D01*
X285000Y-110000D01*
X290000D01*
X262500Y-80000D02*
X287500Y-105000D01*
X275000Y-70000D02*
X285000Y-80000D01*
X290000D01*
X295000Y-75000D02*
X300000Y-80000D01*
X277500Y-65000D02*
X287500Y-75000D01*
X295000D01*
X280000Y-60000D02*
X290000Y-70000D01*
X295000Y-55000D02*
X300000Y-60000D01*
X141250Y5728D02*
Y18750D01*
X155000Y32500D02*
Y40000D01*
X141250Y18750D02*
X155000Y32500D01*
X115000Y40000D02*
X136250Y18750D01*
Y5728D02*
Y18750D01*
X135000Y40000D02*
X138750Y36250D01*
Y5728D02*
Y36250D01*
X295000Y-35000D02*
X300000Y-30000D01*
X295000Y-45000D02*
X300000Y-50000D01*
X285000Y-35000D02*
X295000D01*
X231250Y-18750D02*
Y-15728D01*
X276142Y-172421D02*
X277500Y-171063D01*
X272500Y-172500D02*
X276142D01*
Y-172421D01*
X55000Y40000D02*
X62500D01*
X76250Y5728D02*
Y26250D01*
X62500Y40000D02*
X76250Y26250D01*
X62500Y32500D02*
X73750Y21250D01*
X42500Y32500D02*
X62500D01*
X73750Y5728D02*
Y21250D01*
X27500Y27500D02*
X62500D01*
X71250Y18750D01*
Y5728D02*
Y18750D01*
X68750Y5728D02*
Y16250D01*
X12500Y22500D02*
X62500D01*
X68750Y16250D01*
X81250Y5728D02*
Y16250D01*
X95000Y30000D02*
Y40000D01*
X81250Y16250D02*
X95000Y30000D01*
X-5000Y40000D02*
X12500Y22500D01*
X15000Y40000D02*
X27500Y27500D01*
X35000Y40000D02*
X42500Y32500D01*
X75000Y40000D02*
X78750Y36250D01*
Y5728D02*
Y36250D01*
X235000Y25000D02*
X240000D01*
X228750Y18750D02*
X235000Y25000D01*
X228750Y5728D02*
Y18750D01*
X175000Y40000D02*
X197500Y17500D01*
X215000D01*
X218750Y13750D01*
Y5728D02*
Y13750D01*
X195000Y40000D02*
X210000Y25000D01*
X215000D01*
X221250Y18750D01*
Y5728D02*
Y18750D01*
X215000Y40000D02*
X223750Y31250D01*
Y5728D02*
Y31250D01*
X226250D02*
X235000Y40000D01*
X226250Y5728D02*
Y31250D01*
X240000Y25000D02*
X255000Y40000D01*
X252500Y17500D02*
X275000Y40000D01*
X235000Y17500D02*
X252500D01*
X231250Y13750D02*
X235000Y17500D01*
X132500Y-190000D02*
Y-185900D01*
X182500Y-190000D02*
Y-185900D01*
X5000Y-255000D02*
Y-197500D01*
X10000Y-240000D02*
X20000Y-230000D01*
X10000D02*
X15000Y-225000D01*
X0Y-260000D02*
X5000Y-255000D01*
X122500Y-190000D02*
Y-185900D01*
X233750Y-15728D02*
Y-10000D01*
X210000D02*
Y-8563D01*
X126250Y-15728D02*
Y-10000D01*
X150000D02*
Y-8563D01*
X66250Y-15728D02*
Y-10000D01*
X90000D02*
Y-8563D01*
X233750Y0D02*
Y5728D01*
X126250Y0D02*
Y5728D01*
X150000Y-1437D02*
Y0D01*
X66250D02*
Y5728D01*
X90000Y-1437D02*
Y0D01*
X216250Y5000D02*
Y5728D01*
X210000Y5000D02*
Y6437D01*
X216250Y-15728D02*
Y-15000D01*
X143750Y5000D02*
Y5728D01*
X150000Y5000D02*
Y6437D01*
X143750Y-15728D02*
Y-15000D01*
X150000Y-16437D02*
Y-15000D01*
X83750Y5000D02*
Y5728D01*
Y-15728D02*
Y-15000D01*
X272500Y-177500D02*
Y-172500D01*
X277500Y-185900D02*
Y-178937D01*
X272500Y-185900D02*
Y-177500D01*
X268937D02*
X272500D01*
X257500D02*
X261063D01*
X257500Y-185900D02*
Y-177500D01*
X232500Y-185900D02*
Y-177500D01*
X228937D02*
X232500D01*
X217500D02*
X221063D01*
X217500Y-185900D02*
Y-177500D01*
X212500Y-185900D02*
Y-177500D01*
X208937D02*
X212500D01*
X197500D02*
X201063D01*
X197500Y-185900D02*
Y-177500D01*
X172500Y-185900D02*
Y-177500D01*
X168937D02*
X172500D01*
X157500D02*
X161063D01*
X157500Y-185900D02*
Y-177500D01*
X152500Y-185900D02*
Y-177500D01*
X148937D02*
X152500D01*
X137500D02*
X141063D01*
X137500Y-185900D02*
Y-177500D01*
X112500Y-185900D02*
Y-177500D01*
X108937D02*
X112500D01*
X97500D02*
X101063D01*
X97500Y-185900D02*
Y-177500D01*
X92500Y-185900D02*
Y-177500D01*
X88937D02*
X92500D01*
X77500D02*
X81063D01*
X77500Y-185900D02*
Y-177500D01*
X52500Y-185900D02*
Y-177500D01*
X48937D02*
X52500D01*
X37500D02*
X41063D01*
X37500Y-185900D02*
Y-177500D01*
X282500Y-217500D02*
X297500D01*
Y-224100D02*
Y-217500D01*
X277500D02*
X282500D01*
Y-224100D02*
Y-217500D01*
X266437D02*
X277500D01*
Y-224100D02*
Y-217500D01*
X265000Y-216063D02*
X266437Y-217500D01*
X237500Y-224100D02*
Y-217500D01*
X222500D02*
X237500D01*
X222500Y-224100D02*
Y-217500D01*
X217500D02*
X222500D01*
X206437D02*
X217500D01*
Y-224100D02*
Y-217500D01*
X205000Y-216063D02*
X206437Y-217500D01*
X177500Y-224100D02*
Y-217500D01*
X162500D02*
X177500D01*
X157500D02*
X162500D01*
Y-224100D02*
Y-217500D01*
X157500Y-224100D02*
Y-217500D01*
X146437D02*
X157500D01*
X145000Y-216063D02*
X146437Y-217500D01*
X102500D02*
X117500D01*
Y-224100D02*
Y-217500D01*
X102500Y-224100D02*
Y-217500D01*
X97500D02*
X102500D01*
X97500Y-224100D02*
Y-217500D01*
X85000Y-216063D02*
X86437Y-217500D01*
X97500D01*
X37500D02*
X42500D01*
X25000Y-216063D02*
X26437Y-217500D01*
X37500D01*
Y-224100D02*
Y-217500D01*
X42500D02*
X57500D01*
X42500Y-224100D02*
Y-217500D01*
X57500Y-224100D02*
Y-217500D01*
X317500Y-224100D02*
Y-217500D01*
X302500D02*
X317500D01*
X302500Y-224100D02*
Y-217500D01*
X307500Y-222500D02*
X312500D01*
Y-224100D02*
Y-222500D01*
X307500Y-224100D02*
Y-222500D01*
X257500Y-224100D02*
Y-217500D01*
X242500D02*
X257500D01*
X242500Y-224100D02*
Y-217500D01*
X247500Y-222500D02*
X252500D01*
Y-224100D02*
Y-222500D01*
X247500Y-224100D02*
Y-222500D01*
X187500D02*
X192500D01*
Y-224100D02*
Y-222500D01*
X187500Y-224100D02*
Y-222500D01*
X197500Y-224100D02*
Y-217500D01*
X182500D02*
X197500D01*
X182500Y-224100D02*
Y-217500D01*
X127500Y-222500D02*
X132500D01*
Y-224100D02*
Y-222500D01*
X127500Y-224100D02*
Y-222500D01*
X137500Y-224100D02*
Y-217500D01*
X122500D02*
X137500D01*
X122500Y-224100D02*
Y-217500D01*
X62500Y-224100D02*
Y-217500D01*
X77500D01*
Y-224100D02*
Y-217500D01*
X67500Y-222500D02*
X72500D01*
Y-224100D02*
Y-222500D01*
X67500Y-224100D02*
Y-222500D01*
X307500Y-247500D02*
X315000Y-255000D01*
X307500Y-247500D02*
Y-224100D01*
X295000Y-255000D02*
X302500Y-247500D01*
Y-224100D01*
X247500Y-247500D02*
X255000Y-255000D01*
X247500Y-247500D02*
Y-224100D01*
X235000Y-255000D02*
X242500Y-247500D01*
Y-224100D01*
X187500Y-247500D02*
X195000Y-255000D01*
X187500Y-247500D02*
Y-224100D01*
X175000Y-255000D02*
X182500Y-247500D01*
Y-224100D01*
X127500Y-247500D02*
X135000Y-255000D01*
X127500Y-247500D02*
Y-224100D01*
X115000Y-255000D02*
X122500Y-247500D01*
Y-224100D01*
X67500Y-247500D02*
X75000Y-255000D01*
X67500Y-247500D02*
Y-224100D01*
X55000Y-255000D02*
X62500Y-247500D01*
Y-224100D01*
X265000Y-225000D02*
X272500D01*
Y-230000D02*
Y-225000D01*
X265000D02*
Y-223937D01*
X272500Y-225000D02*
Y-224100D01*
X275000Y-230000D02*
X292500D01*
X272500D02*
X275000D01*
Y-255000D02*
Y-230000D01*
X292500D02*
Y-224100D01*
X205000Y-225000D02*
X212500D01*
Y-230000D02*
Y-225000D01*
X205000D02*
Y-223937D01*
X212500Y-225000D02*
Y-224100D01*
X215000Y-230000D02*
X232500D01*
X212500D02*
X215000D01*
Y-255000D02*
Y-230000D01*
X232500D02*
Y-224100D01*
X145000Y-225000D02*
X152500D01*
Y-230000D02*
Y-225000D01*
X145000D02*
Y-223937D01*
X152500Y-225000D02*
Y-224100D01*
X155000Y-230000D02*
X172500D01*
X152500D02*
X155000D01*
Y-255000D02*
Y-230000D01*
X172500D02*
Y-224100D01*
X95000Y-230000D02*
X112500D01*
X92500D02*
X95000D01*
Y-255000D02*
Y-230000D01*
X85000Y-225000D02*
X92500D01*
Y-230000D02*
Y-225000D01*
X85000D02*
Y-223937D01*
X92500Y-225000D02*
Y-224100D01*
X112500Y-230000D02*
Y-224100D01*
X35000Y-230000D02*
X52500D01*
X32500D02*
X35000D01*
Y-255000D02*
Y-230000D01*
X32500Y-225000D02*
Y-224100D01*
Y-230000D02*
Y-225000D01*
X52500Y-230000D02*
Y-224100D01*
X-60000Y-45000D02*
X-31437D01*
X-30000Y-43563D01*
X-60000Y-85000D02*
X-31437D01*
X-30000Y-86437D01*
X-60000Y-105000D02*
X-31437D01*
X-30000Y-103563D01*
X-60000Y-145000D02*
X-31437D01*
X-30000Y-146437D01*
X-60000Y-165000D02*
X-31437D01*
X-30000Y-163563D01*
X-60000Y-205000D02*
X-31437D01*
X-30000Y-206437D01*
X-60000Y-225000D02*
X-31437D01*
X-30000Y-223563D01*
X-60000Y-265000D02*
X-31437D01*
X-30000Y-266437D01*
X-31437Y-51437D02*
X-30000D01*
X-35000Y-55000D02*
X-31437Y-51437D01*
X-35000Y-60000D02*
Y-55000D01*
Y-60000D02*
X-32500Y-62500D01*
X-30320D01*
X-32500Y-67500D02*
X-30320D01*
X-35000Y-70000D02*
X-32500Y-67500D01*
X-35000Y-75000D02*
Y-70000D01*
Y-75000D02*
X-31437Y-78563D01*
X-30000D01*
X-31437Y-111437D02*
X-30000D01*
X-35000Y-115000D02*
X-31437Y-111437D01*
X-35000Y-120000D02*
Y-115000D01*
Y-120000D02*
X-32500Y-122500D01*
X-30320D01*
X-32500Y-127500D02*
X-30320D01*
X-35000Y-130000D02*
X-32500Y-127500D01*
X-35000Y-135000D02*
Y-130000D01*
Y-135000D02*
X-31437Y-138563D01*
X-30000D01*
X-31437Y-171437D02*
X-30000D01*
X-35000Y-175000D02*
X-31437Y-171437D01*
X-35000Y-180000D02*
Y-175000D01*
Y-180000D02*
X-32500Y-182500D01*
X-30320D01*
X-32500Y-187500D02*
X-30320D01*
X-35000Y-190000D02*
X-32500Y-187500D01*
X-35000Y-195000D02*
Y-190000D01*
Y-195000D02*
X-31437Y-198563D01*
X-30000D01*
X-31437Y-231437D02*
X-30000D01*
X-35000Y-235000D02*
X-31437Y-231437D01*
X-35000Y-240000D02*
Y-235000D01*
Y-240000D02*
X-32500Y-242500D01*
X-30320D01*
X-31437Y-258563D02*
X-30000D01*
X-35000Y-255000D02*
X-31437Y-258563D01*
X-35000Y-255000D02*
Y-250000D01*
X-32500Y-247500D01*
X-30320D01*
X-5000Y-25000D02*
X0Y-20000D01*
X-5000Y-60000D02*
Y-25000D01*
X-7500Y-62500D02*
X-5000Y-60000D01*
X-9680Y-62500D02*
X-7500D01*
Y-67500D02*
X0Y-60000D01*
X-9680Y-67500D02*
X-7500D01*
X5000Y-125000D02*
X10000Y-130000D01*
X-5000Y-125000D02*
X5000D01*
X-7500Y-127500D02*
X-5000Y-125000D01*
X-9680Y-127500D02*
X-7500D01*
X-5000Y-105000D02*
X0Y-100000D01*
X-5000Y-120000D02*
Y-105000D01*
X-7500Y-122500D02*
X-5000Y-120000D01*
X-9680Y-122500D02*
X-7500D01*
X5000Y-175000D02*
X10000Y-170000D01*
X-2500Y-175000D02*
X5000D01*
X-5000Y-177500D02*
X-2500Y-175000D01*
X-5000Y-180000D02*
Y-177500D01*
X-7500Y-182500D02*
X-5000Y-180000D01*
X-9680Y-182500D02*
X-7500D01*
X5000Y-185000D02*
X10000Y-180000D01*
X-5000Y-185000D02*
X5000D01*
X-7500Y-187500D02*
X-5000Y-185000D01*
X-9680Y-187500D02*
X-7500D01*
Y-247500D02*
X0Y-240000D01*
X-9680Y-247500D02*
X-7500D01*
X-5000Y-225000D02*
X0Y-220000D01*
X-5000Y-240000D02*
Y-225000D01*
X-7500Y-242500D02*
X-5000Y-240000D01*
X-9680Y-242500D02*
X-7500D01*
X-10000Y-72820D02*
X-9680Y-72500D01*
X-10000Y-132820D02*
X-9680Y-132500D01*
X-10000Y-252820D02*
X-9680Y-252500D01*
D12*
X-30320Y-72500D02*
D03*
Y-67500D02*
D03*
Y-62500D02*
D03*
Y-57500D02*
D03*
X-9680D02*
D03*
Y-62500D02*
D03*
Y-67500D02*
D03*
Y-72500D02*
D03*
Y-132500D02*
D03*
Y-127500D02*
D03*
Y-122500D02*
D03*
Y-117500D02*
D03*
X-30320D02*
D03*
Y-122500D02*
D03*
Y-127500D02*
D03*
Y-132500D02*
D03*
Y-192500D02*
D03*
Y-187500D02*
D03*
Y-182500D02*
D03*
Y-177500D02*
D03*
X-9680D02*
D03*
Y-182500D02*
D03*
Y-187500D02*
D03*
Y-192500D02*
D03*
Y-252500D02*
D03*
Y-247500D02*
D03*
Y-242500D02*
D03*
Y-237500D02*
D03*
X-30320D02*
D03*
Y-242500D02*
D03*
Y-247500D02*
D03*
Y-252500D02*
D03*
D15*
X317500Y-224100D02*
D03*
X312500D02*
D03*
X307500D02*
D03*
X302500D02*
D03*
X297500D02*
D03*
X292500D02*
D03*
X287500D02*
D03*
X282500D02*
D03*
X277500D02*
D03*
X272500D02*
D03*
Y-185900D02*
D03*
X277500D02*
D03*
X282500D02*
D03*
X287500D02*
D03*
X292500D02*
D03*
X297500D02*
D03*
X302500D02*
D03*
X307500D02*
D03*
X312500D02*
D03*
X317500D02*
D03*
X197500D02*
D03*
X192500D02*
D03*
X187500D02*
D03*
X182500D02*
D03*
X177500D02*
D03*
X172500D02*
D03*
X167500D02*
D03*
X162500D02*
D03*
X157500D02*
D03*
X152500D02*
D03*
Y-224100D02*
D03*
X157500D02*
D03*
X162500D02*
D03*
X167500D02*
D03*
X172500D02*
D03*
X177500D02*
D03*
X182500D02*
D03*
X187500D02*
D03*
X192500D02*
D03*
X197500D02*
D03*
X77500Y-185900D02*
D03*
X72500D02*
D03*
X67500D02*
D03*
X62500D02*
D03*
X57500D02*
D03*
X52500D02*
D03*
X47500D02*
D03*
X42500D02*
D03*
X37500D02*
D03*
X32500D02*
D03*
Y-224100D02*
D03*
X37500D02*
D03*
X42500D02*
D03*
X47500D02*
D03*
X52500D02*
D03*
X57500D02*
D03*
X62500D02*
D03*
X67500D02*
D03*
X72500D02*
D03*
X77500D02*
D03*
X137500Y-185900D02*
D03*
X132500D02*
D03*
X127500D02*
D03*
X122500D02*
D03*
X117500D02*
D03*
X112500D02*
D03*
X107500D02*
D03*
X102500D02*
D03*
X97500D02*
D03*
X92500D02*
D03*
Y-224100D02*
D03*
X97500D02*
D03*
X102500D02*
D03*
X107500D02*
D03*
X112500D02*
D03*
X117500D02*
D03*
X122500D02*
D03*
X127500D02*
D03*
X132500D02*
D03*
X137500D02*
D03*
X257500Y-185900D02*
D03*
X252500D02*
D03*
X247500D02*
D03*
X242500D02*
D03*
X237500D02*
D03*
X232500D02*
D03*
X227500D02*
D03*
X222500D02*
D03*
X217500D02*
D03*
X212500D02*
D03*
Y-224100D02*
D03*
X217500D02*
D03*
X222500D02*
D03*
X227500D02*
D03*
X232500D02*
D03*
X237500D02*
D03*
X242500D02*
D03*
X247500D02*
D03*
X252500D02*
D03*
X257500D02*
D03*
D16*
X143750Y5728D02*
D03*
X141250D02*
D03*
X138750D02*
D03*
X136250D02*
D03*
X133750D02*
D03*
X131250D02*
D03*
X128750D02*
D03*
X126250D02*
D03*
Y-15728D02*
D03*
X128750D02*
D03*
X131250D02*
D03*
X133750D02*
D03*
X136250D02*
D03*
X138750D02*
D03*
X141250D02*
D03*
X143750D02*
D03*
X83750D02*
D03*
X81250D02*
D03*
X78750D02*
D03*
X76250D02*
D03*
X73750D02*
D03*
X71250D02*
D03*
X68750D02*
D03*
X66250D02*
D03*
Y5728D02*
D03*
X68750D02*
D03*
X71250D02*
D03*
X73750D02*
D03*
X76250D02*
D03*
X78750D02*
D03*
X81250D02*
D03*
X83750D02*
D03*
X216250Y5728D02*
D03*
X218750D02*
D03*
X221250D02*
D03*
X223750D02*
D03*
X226250D02*
D03*
X228750D02*
D03*
X231250D02*
D03*
X233750D02*
D03*
Y-15728D02*
D03*
X231250D02*
D03*
X228750D02*
D03*
X226250D02*
D03*
X223750D02*
D03*
X221250D02*
D03*
X218750D02*
D03*
X216250D02*
D03*
D17*
X-25020Y-11260D02*
D03*
Y-15000D02*
D03*
Y-18740D02*
D03*
X-14980D02*
D03*
Y-11260D02*
D03*
D18*
X240158Y-114173D02*
D03*
Y-106299D02*
D03*
X255906Y-114173D02*
D03*
Y-106299D02*
D03*
X240158Y-129921D02*
D03*
Y-122047D02*
D03*
X255906Y-129921D02*
D03*
Y-122047D02*
D03*
X-20000Y-78563D02*
D03*
Y-86437D02*
D03*
Y-138563D02*
D03*
Y-146437D02*
D03*
Y-198563D02*
D03*
Y-206437D02*
D03*
Y-258563D02*
D03*
Y-266437D02*
D03*
X317500Y-166063D02*
D03*
Y-173937D02*
D03*
X277500Y-178937D02*
D03*
Y-171063D02*
D03*
X210000Y-8563D02*
D03*
Y-16437D02*
D03*
Y-1437D02*
D03*
Y6437D02*
D03*
X150000Y-8563D02*
D03*
Y-16437D02*
D03*
Y-1437D02*
D03*
Y6437D02*
D03*
X90000Y-8563D02*
D03*
Y-16437D02*
D03*
Y-1437D02*
D03*
Y6437D02*
D03*
X205000Y-223937D02*
D03*
Y-216063D02*
D03*
X145000Y-223937D02*
D03*
Y-216063D02*
D03*
X25000Y-223937D02*
D03*
Y-216063D02*
D03*
X265000Y-223937D02*
D03*
Y-216063D02*
D03*
X85000Y-223937D02*
D03*
Y-216063D02*
D03*
X-10000Y-266437D02*
D03*
Y-258563D02*
D03*
Y-206437D02*
D03*
Y-198563D02*
D03*
Y-146437D02*
D03*
Y-138563D02*
D03*
Y-86437D02*
D03*
Y-78563D02*
D03*
X-30000Y-43563D02*
D03*
Y-51437D02*
D03*
Y-103563D02*
D03*
Y-111437D02*
D03*
Y-146437D02*
D03*
Y-138563D02*
D03*
Y-163563D02*
D03*
Y-171437D02*
D03*
Y-206437D02*
D03*
Y-198563D02*
D03*
Y-223563D02*
D03*
Y-231437D02*
D03*
Y-266437D02*
D03*
Y-258563D02*
D03*
Y-86437D02*
D03*
Y-78563D02*
D03*
X-25000Y1437D02*
D03*
Y-6437D02*
D03*
X-15000Y1437D02*
D03*
Y-6437D02*
D03*
D19*
X-62992Y53150D02*
D03*
X-70866D02*
D03*
X-49213D02*
D03*
X-57087D02*
D03*
X101063Y-177500D02*
D03*
X108937D02*
D03*
X141063D02*
D03*
X148937D02*
D03*
X161063D02*
D03*
X168937D02*
D03*
X201063D02*
D03*
X208937D02*
D03*
X221063D02*
D03*
X228937D02*
D03*
X261063D02*
D03*
X268937D02*
D03*
X48937D02*
D03*
X41063D02*
D03*
X88937D02*
D03*
X81063D02*
D03*
D20*
X95000Y40000D02*
D03*
X55000D02*
D03*
X75000D02*
D03*
X295000Y-255000D02*
D03*
X315000D02*
D03*
X275000D02*
D03*
X35000D02*
D03*
X75000D02*
D03*
X55000D02*
D03*
X115000D02*
D03*
X135000D02*
D03*
X95000D02*
D03*
X155000D02*
D03*
X195000D02*
D03*
X175000D02*
D03*
X235000D02*
D03*
X255000D02*
D03*
X215000D02*
D03*
X155000Y40000D02*
D03*
X115000D02*
D03*
X135000D02*
D03*
X15000D02*
D03*
X-5000D02*
D03*
X35000D02*
D03*
X215000D02*
D03*
X175000D02*
D03*
X195000D02*
D03*
X275000D02*
D03*
X235000D02*
D03*
X255000D02*
D03*
X-60000Y-65000D02*
D03*
Y-85000D02*
D03*
Y-45000D02*
D03*
Y-105000D02*
D03*
Y-145000D02*
D03*
Y-125000D02*
D03*
Y-185000D02*
D03*
Y-205000D02*
D03*
Y-165000D02*
D03*
Y-225000D02*
D03*
Y-265000D02*
D03*
Y-245000D02*
D03*
Y35000D02*
D03*
Y15000D02*
D03*
Y-25000D02*
D03*
Y-5000D02*
D03*
D21*
X290000Y-90000D02*
D03*
X300000Y-80000D02*
D03*
X290000D02*
D03*
X0Y-50000D02*
D03*
X10000Y-80000D02*
D03*
X0Y-110000D02*
D03*
X10000Y-140000D02*
D03*
X0Y-170000D02*
D03*
Y-180000D02*
D03*
Y-190000D02*
D03*
X10000Y-200000D02*
D03*
X0Y-230000D02*
D03*
X290000Y-20000D02*
D03*
X300000Y0D02*
D03*
Y-40000D02*
D03*
Y-70000D02*
D03*
X290000Y-100000D02*
D03*
X300000Y-120000D02*
D03*
Y-140000D02*
D03*
Y20000D02*
D03*
Y10000D02*
D03*
X290000Y20000D02*
D03*
X300000Y-170000D02*
D03*
X290000D02*
D03*
X300000Y-160000D02*
D03*
X290000D02*
D03*
X300000Y-150000D02*
D03*
X290000D02*
D03*
Y-140000D02*
D03*
X300000Y-130000D02*
D03*
X290000D02*
D03*
Y-120000D02*
D03*
X300000Y-110000D02*
D03*
X290000D02*
D03*
X300000Y-100000D02*
D03*
Y-90000D02*
D03*
X290000Y-70000D02*
D03*
X300000Y-60000D02*
D03*
X290000D02*
D03*
X300000Y-50000D02*
D03*
X290000D02*
D03*
Y-40000D02*
D03*
X300000Y-30000D02*
D03*
X290000D02*
D03*
X300000Y-20000D02*
D03*
Y-10000D02*
D03*
X290000D02*
D03*
Y0D02*
D03*
Y10000D02*
D03*
X40000Y-130000D02*
D03*
X30000D02*
D03*
X40000Y-120000D02*
D03*
X30000D02*
D03*
X40000Y-110000D02*
D03*
X30000D02*
D03*
X40000Y-100000D02*
D03*
X30000D02*
D03*
X40000Y-90000D02*
D03*
X30000D02*
D03*
X40000Y-80000D02*
D03*
X30000D02*
D03*
X40000Y-70000D02*
D03*
X30000D02*
D03*
X40000Y-60000D02*
D03*
X30000D02*
D03*
X40000Y-50000D02*
D03*
X30000D02*
D03*
X40000Y-40000D02*
D03*
X30000D02*
D03*
X40000Y-30000D02*
D03*
X30000D02*
D03*
X40000Y-20000D02*
D03*
X30000D02*
D03*
X40000Y-10000D02*
D03*
X30000D02*
D03*
X40000Y0D02*
D03*
X30000D02*
D03*
X10000Y-260000D02*
D03*
X0D02*
D03*
X10000Y-250000D02*
D03*
X0D02*
D03*
X10000Y-240000D02*
D03*
X0D02*
D03*
X10000Y-230000D02*
D03*
Y-220000D02*
D03*
X0D02*
D03*
X10000Y-210000D02*
D03*
X0D02*
D03*
Y-200000D02*
D03*
X10000Y-190000D02*
D03*
Y-180000D02*
D03*
Y-170000D02*
D03*
Y-160000D02*
D03*
X0D02*
D03*
X10000Y-150000D02*
D03*
X0D02*
D03*
Y-140000D02*
D03*
X10000Y-130000D02*
D03*
X0D02*
D03*
X10000Y-120000D02*
D03*
X0D02*
D03*
X10000Y-110000D02*
D03*
Y-100000D02*
D03*
X0D02*
D03*
X10000Y-90000D02*
D03*
X0D02*
D03*
Y-80000D02*
D03*
X10000Y-70000D02*
D03*
X0D02*
D03*
X10000Y-60000D02*
D03*
X0D02*
D03*
X10000Y-50000D02*
D03*
Y-40000D02*
D03*
X0D02*
D03*
X10000Y-30000D02*
D03*
X0D02*
D03*
X10000Y-20000D02*
D03*
X0D02*
D03*
X10000Y-10000D02*
D03*
X0D02*
D03*
X10000Y0D02*
D03*
X0D02*
D03*
D22*
X-10000Y-57500D02*
Y-55000D01*
Y-57500D02*
X-9680D01*
X-25014Y-10000D02*
X-25000Y-6437D01*
X-25020Y-11260D02*
X-25014Y-10000D01*
X-32500D02*
X-25014D01*
Y-10000D01*
X-32500Y-10000D02*
Y35000D01*
X-60000D02*
X-32500D01*
X-20000Y-2500D02*
Y2500D01*
Y-2500D02*
X-15000D01*
Y-6437D02*
Y-2500D01*
X-32500Y-15000D02*
X-30000D01*
X-25020D01*
X-15000Y-6437D02*
X-14980Y-11260D01*
D23*
X240158Y-102362D02*
D03*
X255906D02*
D03*
X240158Y-133858D02*
D03*
X255906D02*
D03*
X-45276Y53150D02*
D03*
X-74803D02*
D03*
X-25000Y5000D02*
D03*
X-15000D02*
D03*
X32500Y-177500D02*
D03*
X282500D02*
D03*
X292500Y-180000D02*
D03*
X317500Y-162500D02*
D03*
Y-177500D02*
D03*
X272500D02*
D03*
X257500D02*
D03*
X232500D02*
D03*
X217500D02*
D03*
X212500D02*
D03*
X197500D02*
D03*
X172500D02*
D03*
X157500D02*
D03*
X152500D02*
D03*
X137500D02*
D03*
X112500D02*
D03*
X97500D02*
D03*
X92500D02*
D03*
X52500D02*
D03*
X77500D02*
D03*
X37500D02*
D03*
X237500Y-10000D02*
D03*
X205000Y-15000D02*
D03*
X155000D02*
D03*
X122500Y-10000D02*
D03*
X95000Y-15000D02*
D03*
X62500Y-10000D02*
D03*
X205000Y5000D02*
D03*
Y0D02*
D03*
X155000Y5000D02*
D03*
X122500Y0D02*
D03*
X95000Y5000D02*
D03*
X62500Y0D02*
D03*
X-20000Y-232500D02*
D03*
Y-172500D02*
D03*
Y-112500D02*
D03*
Y-52500D02*
D03*
Y-132500D02*
D03*
Y-192500D02*
D03*
Y-252500D02*
D03*
Y-270000D02*
D03*
Y-210000D02*
D03*
Y-150000D02*
D03*
Y-90000D02*
D03*
Y-72500D02*
D03*
X-10000Y-135000D02*
D03*
Y-195000D02*
D03*
Y-255000D02*
D03*
Y-270000D02*
D03*
Y-235000D02*
D03*
Y-210000D02*
D03*
Y-175000D02*
D03*
Y-75692D02*
D03*
Y-150000D02*
D03*
Y-115000D02*
D03*
Y-90000D02*
D03*
Y-55000D02*
D03*
X-32500Y-5000D02*
D03*
Y-10000D02*
D03*
X-20000Y-2500D02*
D03*
Y2500D02*
D03*
X307500Y-177500D02*
D03*
X305000D02*
D03*
X295000Y-195000D02*
D03*
X247500Y-167500D02*
D03*
X-32500Y-15000D02*
D03*
X-30000D02*
D03*
X310000Y-180000D02*
D03*
X302500D02*
D03*
X297500Y-192500D02*
D03*
X245000Y-170000D02*
D03*
M02*
