G04*
G04 #@! TF.GenerationSoftware,Altium Limited,Altium Designer,24.5.2 (23)*
G04*
G04 Layer_Color=16777215*
%FSLAX25Y25*%
%MOIN*%
G70*
G04*
G04 #@! TF.SameCoordinates,CBD31915-EBAD-4892-8028-A86A5986D7F8*
G04*
G04*
G04 #@! TF.FilePolarity,Positive*
G04*
G01*
G75*
%ADD10C,0.00787*%
%ADD11C,0.00591*%
G36*
X80512Y-119603D02*
X79842D01*
Y-119100D01*
X79828D01*
X79824Y-119108D01*
X79813Y-119126D01*
X79795Y-119151D01*
X79766Y-119188D01*
X79733Y-119231D01*
X79690Y-119282D01*
X79642Y-119333D01*
X79584Y-119384D01*
X79518Y-119439D01*
X79446Y-119490D01*
X79362Y-119541D01*
X79274Y-119581D01*
X79176Y-119617D01*
X79071Y-119646D01*
X78958Y-119665D01*
X78834Y-119672D01*
X78809D01*
X78783Y-119668D01*
X78743Y-119665D01*
X78696Y-119661D01*
X78645Y-119650D01*
X78583Y-119639D01*
X78521Y-119621D01*
X78452Y-119603D01*
X78383Y-119573D01*
X78310Y-119544D01*
X78237Y-119504D01*
X78164Y-119461D01*
X78092Y-119406D01*
X78026Y-119344D01*
X77960Y-119275D01*
X77957Y-119271D01*
X77946Y-119257D01*
X77931Y-119235D01*
X77909Y-119202D01*
X77884Y-119162D01*
X77859Y-119115D01*
X77826Y-119057D01*
X77797Y-118991D01*
X77768Y-118918D01*
X77738Y-118838D01*
X77709Y-118747D01*
X77684Y-118653D01*
X77662Y-118551D01*
X77648Y-118438D01*
X77636Y-118321D01*
X77633Y-118198D01*
Y-118194D01*
Y-118190D01*
Y-118179D01*
Y-118165D01*
X77636Y-118128D01*
X77640Y-118078D01*
X77644Y-118012D01*
X77651Y-117943D01*
X77662Y-117863D01*
X77677Y-117775D01*
X77698Y-117684D01*
X77720Y-117586D01*
X77749Y-117491D01*
X77786Y-117390D01*
X77826Y-117295D01*
X77873Y-117200D01*
X77931Y-117109D01*
X77993Y-117022D01*
X77997Y-117018D01*
X78012Y-117004D01*
X78030Y-116982D01*
X78059Y-116953D01*
X78095Y-116920D01*
X78139Y-116880D01*
X78193Y-116840D01*
X78252Y-116800D01*
X78317Y-116760D01*
X78390Y-116720D01*
X78470Y-116680D01*
X78554Y-116647D01*
X78649Y-116618D01*
X78747Y-116596D01*
X78852Y-116581D01*
X78961Y-116578D01*
X78987D01*
X79020Y-116581D01*
X79060Y-116585D01*
X79107Y-116592D01*
X79165Y-116603D01*
X79227Y-116618D01*
X79293Y-116636D01*
X79362Y-116662D01*
X79435Y-116694D01*
X79507Y-116734D01*
X79580Y-116782D01*
X79650Y-116836D01*
X79715Y-116898D01*
X79773Y-116975D01*
X79828Y-117058D01*
X79842D01*
Y-115227D01*
X80512D01*
Y-119603D01*
D02*
G37*
G36*
X72857Y-116581D02*
X72897Y-116585D01*
X72945Y-116589D01*
X72999Y-116600D01*
X73057Y-116611D01*
X73123Y-116629D01*
X73192Y-116647D01*
X73265Y-116676D01*
X73338Y-116705D01*
X73410Y-116745D01*
X73483Y-116789D01*
X73553Y-116843D01*
X73618Y-116905D01*
X73680Y-116975D01*
X73684Y-116978D01*
X73694Y-116993D01*
X73709Y-117015D01*
X73731Y-117047D01*
X73753Y-117087D01*
X73782Y-117135D01*
X73807Y-117193D01*
X73840Y-117255D01*
X73869Y-117328D01*
X73898Y-117408D01*
X73924Y-117495D01*
X73946Y-117590D01*
X73967Y-117692D01*
X73982Y-117801D01*
X73993Y-117917D01*
X73997Y-118037D01*
Y-118041D01*
Y-118045D01*
Y-118056D01*
Y-118070D01*
X73993Y-118110D01*
Y-118161D01*
X73986Y-118223D01*
X73978Y-118296D01*
X73967Y-118376D01*
X73953Y-118463D01*
X73935Y-118554D01*
X73909Y-118653D01*
X73880Y-118751D01*
X73847Y-118849D01*
X73804Y-118947D01*
X73756Y-119042D01*
X73702Y-119133D01*
X73640Y-119220D01*
X73636Y-119224D01*
X73625Y-119239D01*
X73603Y-119261D01*
X73574Y-119290D01*
X73538Y-119322D01*
X73494Y-119362D01*
X73443Y-119402D01*
X73385Y-119442D01*
X73320Y-119483D01*
X73247Y-119523D01*
X73170Y-119563D01*
X73083Y-119595D01*
X72988Y-119624D01*
X72890Y-119646D01*
X72784Y-119661D01*
X72672Y-119665D01*
X72646D01*
X72617Y-119661D01*
X72577Y-119657D01*
X72530Y-119650D01*
X72475Y-119639D01*
X72417Y-119624D01*
X72351Y-119603D01*
X72282Y-119577D01*
X72209Y-119544D01*
X72136Y-119504D01*
X72064Y-119457D01*
X71991Y-119399D01*
X71922Y-119333D01*
X71860Y-119257D01*
X71798Y-119169D01*
X71787D01*
Y-120960D01*
X71117D01*
Y-116647D01*
X71787D01*
Y-117171D01*
X71798D01*
X71802Y-117164D01*
X71812Y-117146D01*
X71834Y-117116D01*
X71864Y-117077D01*
X71900Y-117033D01*
X71944Y-116982D01*
X71995Y-116931D01*
X72053Y-116873D01*
X72122Y-116818D01*
X72195Y-116767D01*
X72278Y-116716D01*
X72369Y-116669D01*
X72464Y-116632D01*
X72570Y-116603D01*
X72682Y-116585D01*
X72803Y-116578D01*
X72828D01*
X72857Y-116581D01*
D02*
G37*
G36*
X87799Y-120072D02*
Y-120076D01*
X87796Y-120083D01*
X87788Y-120094D01*
X87781Y-120112D01*
X87770Y-120134D01*
X87756Y-120156D01*
X87723Y-120214D01*
X87679Y-120287D01*
X87628Y-120363D01*
X87567Y-120447D01*
X87497Y-120531D01*
X87421Y-120618D01*
X87334Y-120702D01*
X87239Y-120778D01*
X87133Y-120847D01*
X87020Y-120909D01*
X86962Y-120931D01*
X86900Y-120953D01*
X86839Y-120971D01*
X86773Y-120982D01*
X86704Y-120990D01*
X86635Y-120993D01*
X86598D01*
X86562Y-120990D01*
X86511D01*
X86456Y-120982D01*
X86398Y-120975D01*
X86336Y-120968D01*
X86282Y-120953D01*
Y-120400D01*
X86285D01*
X86289Y-120403D01*
X86307Y-120407D01*
X86340Y-120414D01*
X86376Y-120425D01*
X86423Y-120436D01*
X86471Y-120443D01*
X86522Y-120447D01*
X86569Y-120451D01*
X86587D01*
X86606Y-120447D01*
X86631Y-120443D01*
X86664Y-120440D01*
X86700Y-120433D01*
X86740Y-120418D01*
X86780Y-120403D01*
X86827Y-120385D01*
X86871Y-120360D01*
X86918Y-120331D01*
X86966Y-120294D01*
X87010Y-120251D01*
X87053Y-120203D01*
X87093Y-120145D01*
X87130Y-120080D01*
X87330Y-119595D01*
X86154Y-116647D01*
X86897D01*
X87603Y-118795D01*
Y-118798D01*
X87607Y-118802D01*
X87610Y-118816D01*
X87614Y-118835D01*
X87621Y-118864D01*
X87628Y-118900D01*
X87639Y-118951D01*
X87654Y-119009D01*
X87668D01*
Y-119006D01*
X87672Y-118995D01*
X87676Y-118980D01*
X87679Y-118958D01*
X87687Y-118929D01*
X87697Y-118893D01*
X87708Y-118849D01*
X87719Y-118802D01*
X88458Y-116647D01*
X89135D01*
X87799Y-120072D01*
D02*
G37*
G36*
X61308Y-119603D02*
X60583D01*
X59495Y-116647D01*
X60219D01*
X60874Y-118714D01*
Y-118718D01*
X60878Y-118725D01*
X60882Y-118736D01*
X60885Y-118754D01*
X60892Y-118773D01*
X60900Y-118795D01*
X60914Y-118849D01*
X60933Y-118915D01*
X60947Y-118980D01*
X60958Y-119049D01*
X60969Y-119115D01*
X60976D01*
Y-119111D01*
Y-119104D01*
X60980Y-119093D01*
Y-119079D01*
X60987Y-119038D01*
X60994Y-118984D01*
X61005Y-118926D01*
X61020Y-118860D01*
X61038Y-118791D01*
X61056Y-118725D01*
X61744Y-116647D01*
X62450D01*
X61308Y-119603D01*
D02*
G37*
G36*
X66716D02*
X66043D01*
Y-115227D01*
X66716D01*
Y-119603D01*
D02*
G37*
G36*
X53889Y-115468D02*
X53940Y-115471D01*
X54002Y-115479D01*
X54071Y-115486D01*
X54148Y-115497D01*
X54231Y-115508D01*
X54322Y-115526D01*
X54417Y-115548D01*
X54515Y-115569D01*
X54617Y-115599D01*
X54723Y-115631D01*
X54828Y-115671D01*
X54937Y-115715D01*
X55043Y-115766D01*
X55149Y-115824D01*
X55254Y-115886D01*
X55356Y-115955D01*
X55454Y-116035D01*
X55549Y-116119D01*
X55640Y-116214D01*
X55724Y-116316D01*
X55800Y-116429D01*
X55869Y-116549D01*
X55931Y-116676D01*
X55982Y-116818D01*
X56022Y-116967D01*
X56055Y-117127D01*
X56073Y-117302D01*
X56081Y-117484D01*
Y-117488D01*
Y-117495D01*
Y-117510D01*
Y-117528D01*
X56077Y-117550D01*
Y-117575D01*
X56073Y-117608D01*
X56069Y-117644D01*
X56066Y-117681D01*
X56062Y-117724D01*
X56048Y-117819D01*
X56026Y-117921D01*
X56000Y-118034D01*
X55968Y-118154D01*
X55924Y-118281D01*
X55873Y-118409D01*
X55811Y-118536D01*
X55738Y-118667D01*
X55655Y-118791D01*
X55556Y-118911D01*
X55502Y-118969D01*
X55444Y-119024D01*
X55436Y-119031D01*
X55425Y-119038D01*
X55414Y-119049D01*
X55378Y-119079D01*
X55327Y-119115D01*
X55265Y-119159D01*
X55189Y-119206D01*
X55098Y-119261D01*
X54992Y-119311D01*
X54879Y-119366D01*
X54752Y-119421D01*
X54610Y-119468D01*
X54461Y-119512D01*
X54297Y-119548D01*
X54122Y-119577D01*
X53940Y-119595D01*
X53744Y-119603D01*
X52597D01*
Y-115464D01*
X53849D01*
X53889Y-115468D01*
D02*
G37*
G36*
X83679Y-117171D02*
X83690D01*
X83693Y-117164D01*
X83704Y-117146D01*
X83726Y-117116D01*
X83755Y-117077D01*
X83792Y-117033D01*
X83836Y-116982D01*
X83886Y-116931D01*
X83945Y-116873D01*
X84014Y-116818D01*
X84087Y-116767D01*
X84170Y-116716D01*
X84261Y-116669D01*
X84356Y-116632D01*
X84461Y-116603D01*
X84574Y-116585D01*
X84694Y-116578D01*
X84720D01*
X84749Y-116581D01*
X84785Y-116585D01*
X84833Y-116589D01*
X84887Y-116600D01*
X84949Y-116611D01*
X85015Y-116629D01*
X85084Y-116651D01*
X85157Y-116676D01*
X85230Y-116709D01*
X85302Y-116745D01*
X85372Y-116793D01*
X85444Y-116847D01*
X85510Y-116909D01*
X85572Y-116978D01*
X85575Y-116982D01*
X85586Y-116996D01*
X85601Y-117018D01*
X85623Y-117051D01*
X85645Y-117091D01*
X85674Y-117138D01*
X85699Y-117197D01*
X85732Y-117259D01*
X85761Y-117331D01*
X85790Y-117411D01*
X85816Y-117499D01*
X85838Y-117593D01*
X85859Y-117695D01*
X85874Y-117805D01*
X85885Y-117921D01*
X85888Y-118041D01*
Y-118045D01*
Y-118048D01*
Y-118059D01*
Y-118074D01*
X85885Y-118114D01*
Y-118165D01*
X85878Y-118227D01*
X85870Y-118299D01*
X85859Y-118380D01*
X85845Y-118467D01*
X85826Y-118558D01*
X85801Y-118656D01*
X85772Y-118754D01*
X85739Y-118853D01*
X85695Y-118951D01*
X85648Y-119049D01*
X85594Y-119140D01*
X85532Y-119228D01*
X85528Y-119231D01*
X85517Y-119246D01*
X85495Y-119268D01*
X85466Y-119297D01*
X85430Y-119330D01*
X85386Y-119370D01*
X85335Y-119410D01*
X85277Y-119450D01*
X85211Y-119490D01*
X85139Y-119530D01*
X85062Y-119570D01*
X84975Y-119603D01*
X84880Y-119632D01*
X84782Y-119654D01*
X84676Y-119668D01*
X84563Y-119672D01*
X84538D01*
X84509Y-119668D01*
X84469Y-119665D01*
X84421Y-119657D01*
X84363Y-119646D01*
X84305Y-119632D01*
X84236Y-119610D01*
X84167Y-119584D01*
X84097Y-119552D01*
X84025Y-119512D01*
X83952Y-119464D01*
X83879Y-119406D01*
X83814Y-119341D01*
X83748Y-119264D01*
X83690Y-119177D01*
X83679D01*
Y-119603D01*
X83009D01*
Y-115227D01*
X83679D01*
Y-117171D01*
D02*
G37*
G36*
X75973Y-116581D02*
X76013Y-116585D01*
X76064Y-116589D01*
X76122Y-116600D01*
X76188Y-116611D01*
X76257Y-116625D01*
X76333Y-116647D01*
X76410Y-116672D01*
X76486Y-116705D01*
X76563Y-116745D01*
X76643Y-116789D01*
X76716Y-116840D01*
X76785Y-116902D01*
X76850Y-116971D01*
X76854Y-116975D01*
X76865Y-116989D01*
X76883Y-117011D01*
X76901Y-117044D01*
X76927Y-117084D01*
X76956Y-117131D01*
X76985Y-117186D01*
X77018Y-117251D01*
X77051Y-117324D01*
X77080Y-117404D01*
X77109Y-117495D01*
X77134Y-117590D01*
X77156Y-117695D01*
X77171Y-117808D01*
X77182Y-117925D01*
X77185Y-118052D01*
Y-118307D01*
X75169D01*
Y-118310D01*
Y-118325D01*
X75172Y-118347D01*
X75176Y-118376D01*
X75179Y-118409D01*
X75183Y-118449D01*
X75194Y-118492D01*
X75205Y-118540D01*
X75234Y-118642D01*
X75256Y-118696D01*
X75278Y-118747D01*
X75307Y-118798D01*
X75340Y-118849D01*
X75376Y-118896D01*
X75420Y-118940D01*
X75423Y-118944D01*
X75431Y-118951D01*
X75445Y-118962D01*
X75463Y-118973D01*
X75489Y-118991D01*
X75518Y-119009D01*
X75555Y-119031D01*
X75595Y-119049D01*
X75638Y-119071D01*
X75689Y-119093D01*
X75744Y-119111D01*
X75806Y-119126D01*
X75867Y-119140D01*
X75937Y-119151D01*
X76010Y-119159D01*
X76086Y-119162D01*
X76108D01*
X76133Y-119159D01*
X76166D01*
X76206Y-119155D01*
X76257Y-119148D01*
X76312Y-119137D01*
X76373Y-119126D01*
X76435Y-119111D01*
X76504Y-119093D01*
X76577Y-119071D01*
X76650Y-119042D01*
X76727Y-119009D01*
X76803Y-118973D01*
X76879Y-118929D01*
X76952Y-118878D01*
Y-119421D01*
X76949Y-119424D01*
X76934Y-119432D01*
X76912Y-119442D01*
X76879Y-119461D01*
X76839Y-119479D01*
X76788Y-119501D01*
X76734Y-119523D01*
X76668Y-119544D01*
X76595Y-119570D01*
X76515Y-119592D01*
X76428Y-119614D01*
X76333Y-119632D01*
X76231Y-119650D01*
X76122Y-119661D01*
X76006Y-119668D01*
X75886Y-119672D01*
X75857D01*
X75824Y-119668D01*
X75776Y-119665D01*
X75722Y-119661D01*
X75660Y-119650D01*
X75591Y-119639D01*
X75514Y-119621D01*
X75434Y-119599D01*
X75351Y-119573D01*
X75263Y-119541D01*
X75179Y-119504D01*
X75096Y-119457D01*
X75012Y-119402D01*
X74936Y-119341D01*
X74863Y-119271D01*
X74859Y-119268D01*
X74848Y-119253D01*
X74830Y-119228D01*
X74805Y-119195D01*
X74775Y-119155D01*
X74746Y-119104D01*
X74714Y-119046D01*
X74677Y-118977D01*
X74645Y-118904D01*
X74608Y-118816D01*
X74579Y-118725D01*
X74550Y-118623D01*
X74524Y-118514D01*
X74506Y-118398D01*
X74495Y-118270D01*
X74492Y-118139D01*
Y-118136D01*
Y-118132D01*
Y-118121D01*
Y-118110D01*
X74495Y-118074D01*
X74499Y-118023D01*
X74502Y-117965D01*
X74513Y-117899D01*
X74524Y-117823D01*
X74542Y-117739D01*
X74564Y-117652D01*
X74590Y-117561D01*
X74623Y-117466D01*
X74663Y-117371D01*
X74710Y-117280D01*
X74765Y-117186D01*
X74827Y-117098D01*
X74899Y-117015D01*
X74903Y-117011D01*
X74918Y-116996D01*
X74939Y-116975D01*
X74972Y-116945D01*
X75012Y-116913D01*
X75059Y-116876D01*
X75118Y-116836D01*
X75179Y-116796D01*
X75249Y-116756D01*
X75325Y-116716D01*
X75409Y-116680D01*
X75500Y-116647D01*
X75595Y-116618D01*
X75696Y-116596D01*
X75802Y-116581D01*
X75915Y-116578D01*
X75940D01*
X75973Y-116581D01*
D02*
G37*
G36*
X69035D02*
X69082Y-116585D01*
X69141Y-116589D01*
X69210Y-116600D01*
X69283Y-116611D01*
X69363Y-116629D01*
X69450Y-116651D01*
X69538Y-116676D01*
X69625Y-116709D01*
X69716Y-116749D01*
X69803Y-116796D01*
X69891Y-116851D01*
X69971Y-116913D01*
X70047Y-116985D01*
X70051Y-116989D01*
X70065Y-117004D01*
X70083Y-117029D01*
X70109Y-117062D01*
X70138Y-117102D01*
X70171Y-117153D01*
X70207Y-117211D01*
X70244Y-117280D01*
X70280Y-117357D01*
X70313Y-117440D01*
X70346Y-117532D01*
X70375Y-117633D01*
X70400Y-117743D01*
X70418Y-117859D01*
X70433Y-117983D01*
X70437Y-118114D01*
Y-118117D01*
Y-118121D01*
Y-118132D01*
Y-118147D01*
X70433Y-118183D01*
X70429Y-118230D01*
X70426Y-118292D01*
X70415Y-118361D01*
X70400Y-118438D01*
X70386Y-118522D01*
X70364Y-118609D01*
X70335Y-118704D01*
X70302Y-118798D01*
X70262Y-118893D01*
X70211Y-118988D01*
X70156Y-119079D01*
X70091Y-119166D01*
X70018Y-119250D01*
X70014Y-119253D01*
X70000Y-119268D01*
X69974Y-119290D01*
X69942Y-119315D01*
X69902Y-119348D01*
X69851Y-119384D01*
X69789Y-119421D01*
X69723Y-119461D01*
X69647Y-119501D01*
X69563Y-119537D01*
X69468Y-119573D01*
X69370Y-119606D01*
X69261Y-119632D01*
X69148Y-119654D01*
X69024Y-119668D01*
X68897Y-119672D01*
X68868D01*
X68831Y-119668D01*
X68784Y-119665D01*
X68726Y-119661D01*
X68660Y-119650D01*
X68584Y-119639D01*
X68504Y-119621D01*
X68420Y-119599D01*
X68329Y-119570D01*
X68238Y-119537D01*
X68147Y-119497D01*
X68056Y-119450D01*
X67969Y-119395D01*
X67885Y-119333D01*
X67805Y-119261D01*
X67801Y-119257D01*
X67787Y-119242D01*
X67769Y-119217D01*
X67743Y-119184D01*
X67710Y-119144D01*
X67677Y-119093D01*
X67637Y-119035D01*
X67601Y-118966D01*
X67565Y-118893D01*
X67525Y-118809D01*
X67492Y-118718D01*
X67463Y-118620D01*
X67434Y-118518D01*
X67415Y-118405D01*
X67401Y-118285D01*
X67397Y-118161D01*
Y-118158D01*
Y-118154D01*
Y-118143D01*
Y-118128D01*
X67401Y-118088D01*
X67405Y-118037D01*
X67412Y-117976D01*
X67419Y-117903D01*
X67434Y-117823D01*
X67452Y-117735D01*
X67474Y-117644D01*
X67503Y-117550D01*
X67536Y-117451D01*
X67576Y-117353D01*
X67627Y-117259D01*
X67681Y-117167D01*
X67747Y-117080D01*
X67823Y-116996D01*
X67827Y-116993D01*
X67841Y-116978D01*
X67867Y-116956D01*
X67900Y-116931D01*
X67943Y-116898D01*
X67994Y-116865D01*
X68056Y-116825D01*
X68125Y-116785D01*
X68205Y-116749D01*
X68289Y-116709D01*
X68384Y-116676D01*
X68486Y-116643D01*
X68595Y-116618D01*
X68715Y-116596D01*
X68839Y-116581D01*
X68970Y-116578D01*
X68999D01*
X69035Y-116581D01*
D02*
G37*
G36*
X64194D02*
X64234Y-116585D01*
X64285Y-116589D01*
X64343Y-116600D01*
X64409Y-116611D01*
X64478Y-116625D01*
X64554Y-116647D01*
X64631Y-116672D01*
X64707Y-116705D01*
X64784Y-116745D01*
X64864Y-116789D01*
X64937Y-116840D01*
X65006Y-116902D01*
X65071Y-116971D01*
X65075Y-116975D01*
X65086Y-116989D01*
X65104Y-117011D01*
X65122Y-117044D01*
X65148Y-117084D01*
X65177Y-117131D01*
X65206Y-117186D01*
X65239Y-117251D01*
X65272Y-117324D01*
X65301Y-117404D01*
X65330Y-117495D01*
X65355Y-117590D01*
X65377Y-117695D01*
X65392Y-117808D01*
X65403Y-117925D01*
X65406Y-118052D01*
Y-118307D01*
X63390D01*
Y-118310D01*
Y-118325D01*
X63393Y-118347D01*
X63397Y-118376D01*
X63401Y-118409D01*
X63404Y-118449D01*
X63415Y-118492D01*
X63426Y-118540D01*
X63455Y-118642D01*
X63477Y-118696D01*
X63499Y-118747D01*
X63528Y-118798D01*
X63561Y-118849D01*
X63597Y-118896D01*
X63641Y-118940D01*
X63644Y-118944D01*
X63652Y-118951D01*
X63666Y-118962D01*
X63684Y-118973D01*
X63710Y-118991D01*
X63739Y-119009D01*
X63775Y-119031D01*
X63815Y-119049D01*
X63859Y-119071D01*
X63910Y-119093D01*
X63965Y-119111D01*
X64027Y-119126D01*
X64088Y-119140D01*
X64158Y-119151D01*
X64230Y-119159D01*
X64307Y-119162D01*
X64329D01*
X64354Y-119159D01*
X64387D01*
X64427Y-119155D01*
X64478Y-119148D01*
X64533Y-119137D01*
X64594Y-119126D01*
X64656Y-119111D01*
X64726Y-119093D01*
X64798Y-119071D01*
X64871Y-119042D01*
X64947Y-119009D01*
X65024Y-118973D01*
X65100Y-118929D01*
X65173Y-118878D01*
Y-119421D01*
X65170Y-119424D01*
X65155Y-119432D01*
X65133Y-119442D01*
X65100Y-119461D01*
X65060Y-119479D01*
X65009Y-119501D01*
X64955Y-119523D01*
X64889Y-119544D01*
X64816Y-119570D01*
X64736Y-119592D01*
X64649Y-119614D01*
X64554Y-119632D01*
X64452Y-119650D01*
X64343Y-119661D01*
X64227Y-119668D01*
X64107Y-119672D01*
X64078D01*
X64045Y-119668D01*
X63998Y-119665D01*
X63943Y-119661D01*
X63881Y-119650D01*
X63812Y-119639D01*
X63735Y-119621D01*
X63655Y-119599D01*
X63572Y-119573D01*
X63484Y-119541D01*
X63401Y-119504D01*
X63317Y-119457D01*
X63233Y-119402D01*
X63157Y-119341D01*
X63084Y-119271D01*
X63080Y-119268D01*
X63069Y-119253D01*
X63051Y-119228D01*
X63026Y-119195D01*
X62997Y-119155D01*
X62967Y-119104D01*
X62935Y-119046D01*
X62898Y-118977D01*
X62865Y-118904D01*
X62829Y-118816D01*
X62800Y-118725D01*
X62771Y-118623D01*
X62745Y-118514D01*
X62727Y-118398D01*
X62716Y-118270D01*
X62713Y-118139D01*
Y-118136D01*
Y-118132D01*
Y-118121D01*
Y-118110D01*
X62716Y-118074D01*
X62720Y-118023D01*
X62723Y-117965D01*
X62734Y-117899D01*
X62745Y-117823D01*
X62764Y-117739D01*
X62785Y-117652D01*
X62811Y-117561D01*
X62844Y-117466D01*
X62884Y-117371D01*
X62931Y-117280D01*
X62985Y-117186D01*
X63047Y-117098D01*
X63120Y-117015D01*
X63124Y-117011D01*
X63138Y-116996D01*
X63160Y-116975D01*
X63193Y-116945D01*
X63233Y-116913D01*
X63280Y-116876D01*
X63339Y-116836D01*
X63401Y-116796D01*
X63470Y-116756D01*
X63546Y-116716D01*
X63630Y-116680D01*
X63721Y-116647D01*
X63815Y-116618D01*
X63917Y-116596D01*
X64023Y-116581D01*
X64136Y-116578D01*
X64161D01*
X64194Y-116581D01*
D02*
G37*
G36*
X58053D02*
X58093Y-116585D01*
X58144Y-116589D01*
X58203Y-116600D01*
X58268Y-116611D01*
X58337Y-116625D01*
X58414Y-116647D01*
X58490Y-116672D01*
X58567Y-116705D01*
X58643Y-116745D01*
X58723Y-116789D01*
X58796Y-116840D01*
X58865Y-116902D01*
X58931Y-116971D01*
X58934Y-116975D01*
X58945Y-116989D01*
X58963Y-117011D01*
X58982Y-117044D01*
X59007Y-117084D01*
X59036Y-117131D01*
X59065Y-117186D01*
X59098Y-117251D01*
X59131Y-117324D01*
X59160Y-117404D01*
X59189Y-117495D01*
X59215Y-117590D01*
X59236Y-117695D01*
X59251Y-117808D01*
X59262Y-117925D01*
X59266Y-118052D01*
Y-118307D01*
X57249D01*
Y-118310D01*
Y-118325D01*
X57253Y-118347D01*
X57256Y-118376D01*
X57260Y-118409D01*
X57263Y-118449D01*
X57274Y-118492D01*
X57285Y-118540D01*
X57314Y-118642D01*
X57336Y-118696D01*
X57358Y-118747D01*
X57387Y-118798D01*
X57420Y-118849D01*
X57456Y-118896D01*
X57500Y-118940D01*
X57504Y-118944D01*
X57511Y-118951D01*
X57525Y-118962D01*
X57544Y-118973D01*
X57569Y-118991D01*
X57598Y-119009D01*
X57635Y-119031D01*
X57675Y-119049D01*
X57718Y-119071D01*
X57769Y-119093D01*
X57824Y-119111D01*
X57886Y-119126D01*
X57948Y-119140D01*
X58017Y-119151D01*
X58090Y-119159D01*
X58166Y-119162D01*
X58188D01*
X58214Y-119159D01*
X58246D01*
X58286Y-119155D01*
X58337Y-119148D01*
X58392Y-119137D01*
X58454Y-119126D01*
X58516Y-119111D01*
X58585Y-119093D01*
X58658Y-119071D01*
X58730Y-119042D01*
X58807Y-119009D01*
X58883Y-118973D01*
X58960Y-118929D01*
X59032Y-118878D01*
Y-119421D01*
X59029Y-119424D01*
X59014Y-119432D01*
X58992Y-119442D01*
X58960Y-119461D01*
X58920Y-119479D01*
X58869Y-119501D01*
X58814Y-119523D01*
X58749Y-119544D01*
X58676Y-119570D01*
X58596Y-119592D01*
X58508Y-119614D01*
X58414Y-119632D01*
X58312Y-119650D01*
X58203Y-119661D01*
X58086Y-119668D01*
X57966Y-119672D01*
X57937D01*
X57904Y-119668D01*
X57857Y-119665D01*
X57802Y-119661D01*
X57740Y-119650D01*
X57671Y-119639D01*
X57595Y-119621D01*
X57515Y-119599D01*
X57431Y-119573D01*
X57344Y-119541D01*
X57260Y-119504D01*
X57176Y-119457D01*
X57092Y-119402D01*
X57016Y-119341D01*
X56943Y-119271D01*
X56940Y-119268D01*
X56929Y-119253D01*
X56910Y-119228D01*
X56885Y-119195D01*
X56856Y-119155D01*
X56827Y-119104D01*
X56794Y-119046D01*
X56757Y-118977D01*
X56725Y-118904D01*
X56688Y-118816D01*
X56659Y-118725D01*
X56630Y-118623D01*
X56605Y-118514D01*
X56586Y-118398D01*
X56576Y-118270D01*
X56572Y-118139D01*
Y-118136D01*
Y-118132D01*
Y-118121D01*
Y-118110D01*
X56576Y-118074D01*
X56579Y-118023D01*
X56583Y-117965D01*
X56594Y-117899D01*
X56605Y-117823D01*
X56623Y-117739D01*
X56645Y-117652D01*
X56670Y-117561D01*
X56703Y-117466D01*
X56743Y-117371D01*
X56790Y-117280D01*
X56845Y-117186D01*
X56907Y-117098D01*
X56980Y-117015D01*
X56983Y-117011D01*
X56998Y-116996D01*
X57020Y-116975D01*
X57052Y-116945D01*
X57092Y-116913D01*
X57140Y-116876D01*
X57198Y-116836D01*
X57260Y-116796D01*
X57329Y-116756D01*
X57405Y-116716D01*
X57489Y-116680D01*
X57580Y-116647D01*
X57675Y-116618D01*
X57777Y-116596D01*
X57882Y-116581D01*
X57995Y-116578D01*
X58021D01*
X58053Y-116581D01*
D02*
G37*
G36*
X146562Y-124242D02*
X146642Y-124257D01*
X146730Y-124286D01*
X146824Y-124322D01*
X146919Y-124381D01*
X147014Y-124454D01*
X147021Y-124461D01*
X147050Y-124490D01*
X147087Y-124541D01*
X147138Y-124607D01*
X147181Y-124680D01*
X147218Y-124775D01*
X147247Y-124884D01*
X147254Y-125001D01*
Y-125015D01*
Y-125051D01*
X147240Y-125110D01*
X147225Y-125183D01*
X147196Y-125270D01*
X147152Y-125358D01*
X147094Y-125445D01*
X147014Y-125533D01*
X147007Y-125540D01*
X146970Y-125569D01*
X146919Y-125598D01*
X146853Y-125642D01*
X146773Y-125679D01*
X146671Y-125715D01*
X146562Y-125744D01*
X146438Y-125751D01*
X146387D01*
X146321Y-125737D01*
X146248Y-125722D01*
X146154Y-125700D01*
X146066Y-125664D01*
X145971Y-125613D01*
X145877Y-125540D01*
X145869Y-125533D01*
X145840Y-125504D01*
X145804Y-125452D01*
X145760Y-125394D01*
X145716Y-125314D01*
X145680Y-125226D01*
X145651Y-125117D01*
X145643Y-125001D01*
Y-124993D01*
Y-124986D01*
X145651Y-124942D01*
X145658Y-124884D01*
X145673Y-124811D01*
X145702Y-124723D01*
X145745Y-124629D01*
X145796Y-124541D01*
X145877Y-124454D01*
X145884Y-124446D01*
X145920Y-124417D01*
X145971Y-124381D01*
X146037Y-124337D01*
X146117Y-124301D01*
X146212Y-124264D01*
X146321Y-124235D01*
X146438Y-124228D01*
X146496D01*
X146562Y-124242D01*
D02*
G37*
G36*
X60059D02*
X60139Y-124257D01*
X60226Y-124286D01*
X60321Y-124322D01*
X60416Y-124381D01*
X60511Y-124454D01*
X60518Y-124461D01*
X60547Y-124490D01*
X60584Y-124541D01*
X60635Y-124607D01*
X60678Y-124680D01*
X60715Y-124775D01*
X60744Y-124884D01*
X60751Y-125001D01*
Y-125015D01*
Y-125051D01*
X60737Y-125110D01*
X60722Y-125183D01*
X60693Y-125270D01*
X60649Y-125358D01*
X60591Y-125445D01*
X60511Y-125533D01*
X60503Y-125540D01*
X60467Y-125569D01*
X60416Y-125598D01*
X60350Y-125642D01*
X60270Y-125679D01*
X60168Y-125715D01*
X60059Y-125744D01*
X59935Y-125751D01*
X59884D01*
X59818Y-125737D01*
X59745Y-125722D01*
X59650Y-125700D01*
X59563Y-125664D01*
X59468Y-125613D01*
X59373Y-125540D01*
X59366Y-125533D01*
X59337Y-125504D01*
X59301Y-125452D01*
X59257Y-125394D01*
X59213Y-125314D01*
X59177Y-125226D01*
X59148Y-125117D01*
X59140Y-125001D01*
Y-124993D01*
Y-124986D01*
X59148Y-124942D01*
X59155Y-124884D01*
X59169Y-124811D01*
X59198Y-124723D01*
X59242Y-124629D01*
X59293Y-124541D01*
X59373Y-124454D01*
X59381Y-124446D01*
X59417Y-124417D01*
X59468Y-124381D01*
X59534Y-124337D01*
X59614Y-124301D01*
X59709Y-124264D01*
X59818Y-124235D01*
X59935Y-124228D01*
X59993D01*
X60059Y-124242D01*
D02*
G37*
G36*
X123336Y-132910D02*
X121995D01*
Y-131904D01*
X121965D01*
X121958Y-131919D01*
X121936Y-131955D01*
X121900Y-132006D01*
X121842Y-132079D01*
X121776Y-132167D01*
X121688Y-132269D01*
X121594Y-132371D01*
X121477Y-132473D01*
X121346Y-132582D01*
X121200Y-132684D01*
X121032Y-132786D01*
X120857Y-132866D01*
X120660Y-132939D01*
X120449Y-132998D01*
X120223Y-133034D01*
X119975Y-133049D01*
X119924D01*
X119873Y-133041D01*
X119793Y-133034D01*
X119698Y-133027D01*
X119596Y-133005D01*
X119472Y-132983D01*
X119348Y-132947D01*
X119210Y-132910D01*
X119071Y-132852D01*
X118925Y-132793D01*
X118780Y-132713D01*
X118634Y-132626D01*
X118488Y-132517D01*
X118357Y-132393D01*
X118226Y-132254D01*
X118218Y-132247D01*
X118196Y-132218D01*
X118167Y-132174D01*
X118124Y-132108D01*
X118073Y-132028D01*
X118022Y-131933D01*
X117956Y-131817D01*
X117898Y-131685D01*
X117839Y-131540D01*
X117781Y-131379D01*
X117723Y-131197D01*
X117672Y-131008D01*
X117628Y-130803D01*
X117599Y-130577D01*
X117577Y-130344D01*
X117570Y-130096D01*
Y-130089D01*
Y-130082D01*
Y-130060D01*
Y-130031D01*
X117577Y-129958D01*
X117584Y-129856D01*
X117591Y-129724D01*
X117606Y-129586D01*
X117628Y-129426D01*
X117657Y-129251D01*
X117701Y-129068D01*
X117745Y-128872D01*
X117803Y-128682D01*
X117876Y-128478D01*
X117956Y-128288D01*
X118051Y-128099D01*
X118167Y-127917D01*
X118291Y-127742D01*
X118299Y-127734D01*
X118328Y-127705D01*
X118364Y-127661D01*
X118422Y-127603D01*
X118495Y-127537D01*
X118583Y-127457D01*
X118692Y-127377D01*
X118809Y-127297D01*
X118940Y-127217D01*
X119086Y-127137D01*
X119246Y-127056D01*
X119414Y-126991D01*
X119604Y-126932D01*
X119800Y-126889D01*
X120012Y-126859D01*
X120230Y-126852D01*
X120281D01*
X120347Y-126859D01*
X120427Y-126867D01*
X120522Y-126881D01*
X120639Y-126903D01*
X120763Y-126932D01*
X120894Y-126969D01*
X121032Y-127020D01*
X121178Y-127085D01*
X121324Y-127166D01*
X121470Y-127260D01*
X121608Y-127370D01*
X121739Y-127494D01*
X121856Y-127647D01*
X121965Y-127814D01*
X121995D01*
Y-124148D01*
X123336D01*
Y-132910D01*
D02*
G37*
G36*
X114420Y-126859D02*
X114486D01*
X114566Y-126874D01*
X114661Y-126889D01*
X114763Y-126903D01*
X114872Y-126932D01*
X114989Y-126962D01*
X115113Y-127005D01*
X115237Y-127056D01*
X115353Y-127122D01*
X115477Y-127195D01*
X115594Y-127275D01*
X115696Y-127377D01*
X115798Y-127486D01*
X115805Y-127494D01*
X115820Y-127516D01*
X115842Y-127552D01*
X115878Y-127603D01*
X115915Y-127669D01*
X115958Y-127749D01*
X116009Y-127844D01*
X116053Y-127946D01*
X116104Y-128070D01*
X116148Y-128201D01*
X116192Y-128354D01*
X116228Y-128514D01*
X116265Y-128689D01*
X116287Y-128879D01*
X116301Y-129076D01*
X116308Y-129294D01*
Y-132910D01*
X114967D01*
Y-129579D01*
Y-129571D01*
Y-129557D01*
Y-129535D01*
Y-129506D01*
X114960Y-129469D01*
Y-129426D01*
X114952Y-129316D01*
X114931Y-129192D01*
X114909Y-129054D01*
X114872Y-128901D01*
X114821Y-128748D01*
X114756Y-128595D01*
X114683Y-128441D01*
X114588Y-128303D01*
X114471Y-128179D01*
X114340Y-128070D01*
X114260Y-128026D01*
X114180Y-127989D01*
X114092Y-127960D01*
X113997Y-127938D01*
X113903Y-127924D01*
X113793Y-127917D01*
X113735D01*
X113691Y-127924D01*
X113640Y-127931D01*
X113582Y-127938D01*
X113436Y-127975D01*
X113276Y-128033D01*
X113196Y-128070D01*
X113108Y-128113D01*
X113021Y-128164D01*
X112940Y-128230D01*
X112860Y-128303D01*
X112780Y-128383D01*
X112773Y-128390D01*
X112765Y-128405D01*
X112744Y-128427D01*
X112722Y-128463D01*
X112692Y-128507D01*
X112656Y-128565D01*
X112620Y-128631D01*
X112583Y-128697D01*
X112547Y-128777D01*
X112510Y-128864D01*
X112481Y-128959D01*
X112445Y-129061D01*
X112401Y-129287D01*
X112394Y-129411D01*
X112386Y-129535D01*
Y-132910D01*
X111038D01*
Y-126991D01*
X112386D01*
Y-127975D01*
X112408D01*
X112416Y-127960D01*
X112437Y-127924D01*
X112481Y-127873D01*
X112532Y-127800D01*
X112598Y-127712D01*
X112685Y-127618D01*
X112780Y-127516D01*
X112897Y-127413D01*
X113028Y-127311D01*
X113166Y-127209D01*
X113327Y-127115D01*
X113494Y-127027D01*
X113684Y-126954D01*
X113881Y-126903D01*
X114100Y-126867D01*
X114325Y-126852D01*
X114369D01*
X114420Y-126859D01*
D02*
G37*
G36*
X144382Y-126896D02*
X144462Y-126903D01*
X144557Y-126918D01*
X144645Y-126940D01*
X144732Y-126969D01*
X144812Y-127005D01*
Y-128266D01*
X144798Y-128259D01*
X144769Y-128237D01*
X144710Y-128208D01*
X144637Y-128172D01*
X144535Y-128135D01*
X144419Y-128106D01*
X144273Y-128084D01*
X144112Y-128077D01*
X144054D01*
X144018Y-128084D01*
X143967Y-128092D01*
X143908Y-128106D01*
X143770Y-128142D01*
X143690Y-128172D01*
X143609Y-128208D01*
X143529Y-128252D01*
X143442Y-128303D01*
X143362Y-128368D01*
X143281Y-128441D01*
X143201Y-128522D01*
X143121Y-128616D01*
X143114Y-128624D01*
X143106Y-128638D01*
X143085Y-128675D01*
X143055Y-128718D01*
X143026Y-128769D01*
X142997Y-128835D01*
X142961Y-128915D01*
X142924Y-129003D01*
X142880Y-129097D01*
X142844Y-129214D01*
X142815Y-129331D01*
X142786Y-129462D01*
X142756Y-129601D01*
X142735Y-129754D01*
X142727Y-129914D01*
X142720Y-130082D01*
Y-132910D01*
X141379D01*
Y-126991D01*
X142720D01*
Y-128215D01*
X142742D01*
Y-128208D01*
X142749Y-128186D01*
X142764Y-128157D01*
X142778Y-128113D01*
X142800Y-128062D01*
X142829Y-127997D01*
X142895Y-127858D01*
X142975Y-127698D01*
X143077Y-127537D01*
X143201Y-127384D01*
X143347Y-127239D01*
X143354Y-127231D01*
X143369Y-127224D01*
X143391Y-127209D01*
X143420Y-127180D01*
X143456Y-127158D01*
X143500Y-127129D01*
X143617Y-127064D01*
X143748Y-126998D01*
X143901Y-126940D01*
X144076Y-126903D01*
X144164Y-126896D01*
X144258Y-126889D01*
X144317D01*
X144382Y-126896D01*
D02*
G37*
G36*
X102960D02*
X103041Y-126903D01*
X103135Y-126918D01*
X103223Y-126940D01*
X103310Y-126969D01*
X103391Y-127005D01*
Y-128266D01*
X103376Y-128259D01*
X103347Y-128237D01*
X103288Y-128208D01*
X103216Y-128172D01*
X103113Y-128135D01*
X102997Y-128106D01*
X102851Y-128084D01*
X102691Y-128077D01*
X102632D01*
X102596Y-128084D01*
X102545Y-128092D01*
X102487Y-128106D01*
X102348Y-128142D01*
X102268Y-128172D01*
X102188Y-128208D01*
X102108Y-128252D01*
X102020Y-128303D01*
X101940Y-128368D01*
X101860Y-128441D01*
X101779Y-128522D01*
X101699Y-128616D01*
X101692Y-128624D01*
X101685Y-128638D01*
X101663Y-128675D01*
X101634Y-128718D01*
X101604Y-128769D01*
X101575Y-128835D01*
X101539Y-128915D01*
X101502Y-129003D01*
X101459Y-129097D01*
X101422Y-129214D01*
X101393Y-129331D01*
X101364Y-129462D01*
X101335Y-129601D01*
X101313Y-129754D01*
X101306Y-129914D01*
X101298Y-130082D01*
Y-132910D01*
X99957D01*
Y-126991D01*
X101298D01*
Y-128215D01*
X101320D01*
Y-128208D01*
X101327Y-128186D01*
X101342Y-128157D01*
X101357Y-128113D01*
X101379Y-128062D01*
X101408Y-127997D01*
X101473Y-127858D01*
X101553Y-127698D01*
X101655Y-127537D01*
X101779Y-127384D01*
X101925Y-127239D01*
X101933Y-127231D01*
X101947Y-127224D01*
X101969Y-127209D01*
X101998Y-127180D01*
X102035Y-127158D01*
X102078Y-127129D01*
X102195Y-127064D01*
X102326Y-126998D01*
X102479Y-126940D01*
X102654Y-126903D01*
X102742Y-126896D01*
X102837Y-126889D01*
X102895D01*
X102960Y-126896D01*
D02*
G37*
G36*
X157336Y-126859D02*
X157409D01*
X157490Y-126867D01*
X157584Y-126874D01*
X157686Y-126881D01*
X157796Y-126896D01*
X157912Y-126918D01*
X158160Y-126962D01*
X158415Y-127020D01*
X158663Y-127107D01*
Y-128274D01*
X158656Y-128266D01*
X158634Y-128252D01*
X158598Y-128237D01*
X158554Y-128208D01*
X158496Y-128172D01*
X158423Y-128135D01*
X158343Y-128099D01*
X158255Y-128055D01*
X158153Y-128019D01*
X158044Y-127982D01*
X157927Y-127946D01*
X157796Y-127909D01*
X157665Y-127880D01*
X157526Y-127866D01*
X157387Y-127851D01*
X157234Y-127844D01*
X157140D01*
X157081Y-127851D01*
X157008Y-127858D01*
X156928Y-127866D01*
X156768Y-127902D01*
X156761D01*
X156731Y-127909D01*
X156695Y-127924D01*
X156651Y-127938D01*
X156535Y-127982D01*
X156418Y-128048D01*
X156411Y-128055D01*
X156396Y-128062D01*
X156367Y-128084D01*
X156338Y-128106D01*
X156265Y-128179D01*
X156192Y-128266D01*
Y-128274D01*
X156177Y-128288D01*
X156170Y-128317D01*
X156156Y-128354D01*
X156141Y-128398D01*
X156126Y-128441D01*
X156119Y-128500D01*
X156112Y-128558D01*
Y-128565D01*
Y-128587D01*
X156119Y-128624D01*
Y-128667D01*
X156148Y-128769D01*
X156163Y-128828D01*
X156192Y-128879D01*
X156199Y-128886D01*
X156207Y-128901D01*
X156228Y-128922D01*
X156258Y-128959D01*
X156331Y-129032D01*
X156432Y-129112D01*
X156440Y-129119D01*
X156462Y-129127D01*
X156498Y-129148D01*
X156542Y-129170D01*
X156593Y-129200D01*
X156658Y-129236D01*
X156731Y-129265D01*
X156812Y-129302D01*
X156819D01*
X156855Y-129316D01*
X156899Y-129331D01*
X156965Y-129353D01*
X157038Y-129382D01*
X157125Y-129411D01*
X157220Y-129440D01*
X157329Y-129477D01*
X157336D01*
X157344Y-129484D01*
X157366Y-129491D01*
X157395Y-129506D01*
X157468Y-129535D01*
X157555Y-129579D01*
X157665Y-129622D01*
X157781Y-129681D01*
X158015Y-129797D01*
X158029Y-129805D01*
X158065Y-129826D01*
X158124Y-129856D01*
X158197Y-129907D01*
X158277Y-129958D01*
X158364Y-130023D01*
X158452Y-130089D01*
X158532Y-130169D01*
X158539Y-130176D01*
X158569Y-130206D01*
X158605Y-130249D01*
X158656Y-130308D01*
X158707Y-130373D01*
X158758Y-130453D01*
X158816Y-130548D01*
X158860Y-130643D01*
X158867Y-130657D01*
X158882Y-130687D01*
X158897Y-130745D01*
X158918Y-130818D01*
X158940Y-130913D01*
X158962Y-131022D01*
X158969Y-131146D01*
X158977Y-131277D01*
Y-131284D01*
Y-131299D01*
Y-131321D01*
Y-131350D01*
X158969Y-131438D01*
X158948Y-131547D01*
X158926Y-131671D01*
X158889Y-131802D01*
X158838Y-131933D01*
X158765Y-132064D01*
X158758Y-132079D01*
X158729Y-132123D01*
X158685Y-132181D01*
X158619Y-132261D01*
X158539Y-132349D01*
X158445Y-132436D01*
X158335Y-132531D01*
X158211Y-132619D01*
X158204D01*
X158197Y-132626D01*
X158175Y-132640D01*
X158153Y-132655D01*
X158080Y-132692D01*
X157985Y-132743D01*
X157869Y-132793D01*
X157730Y-132845D01*
X157577Y-132896D01*
X157409Y-132939D01*
X157402D01*
X157387Y-132947D01*
X157366D01*
X157329Y-132954D01*
X157293Y-132961D01*
X157242Y-132976D01*
X157118Y-132990D01*
X156979Y-133012D01*
X156819Y-133034D01*
X156637Y-133041D01*
X156454Y-133049D01*
X156360D01*
X156294Y-133041D01*
X156207D01*
X156112Y-133034D01*
X156002Y-133019D01*
X155878Y-133005D01*
X155755Y-132990D01*
X155616Y-132968D01*
X155332Y-132910D01*
X155047Y-132830D01*
X154909Y-132786D01*
X154770Y-132728D01*
Y-131481D01*
X154778Y-131489D01*
X154807Y-131503D01*
X154843Y-131532D01*
X154902Y-131569D01*
X154974Y-131613D01*
X155055Y-131664D01*
X155157Y-131715D01*
X155266Y-131766D01*
X155383Y-131824D01*
X155507Y-131875D01*
X155645Y-131926D01*
X155791Y-131970D01*
X155944Y-132006D01*
X156105Y-132035D01*
X156265Y-132050D01*
X156432Y-132057D01*
X156484D01*
X156542Y-132050D01*
X156622Y-132043D01*
X156717Y-132035D01*
X156819Y-132021D01*
X156928Y-131999D01*
X157045Y-131970D01*
X157154Y-131933D01*
X157264Y-131882D01*
X157366Y-131824D01*
X157460Y-131758D01*
X157541Y-131671D01*
X157599Y-131576D01*
X157635Y-131467D01*
X157650Y-131343D01*
Y-131335D01*
Y-131306D01*
X157643Y-131270D01*
X157635Y-131226D01*
X157621Y-131168D01*
X157606Y-131109D01*
X157577Y-131051D01*
X157541Y-131000D01*
X157533Y-130993D01*
X157519Y-130978D01*
X157497Y-130949D01*
X157468Y-130913D01*
X157431Y-130876D01*
X157380Y-130833D01*
X157329Y-130789D01*
X157264Y-130745D01*
X157256Y-130738D01*
X157234Y-130723D01*
X157198Y-130709D01*
X157147Y-130679D01*
X157089Y-130650D01*
X157016Y-130614D01*
X156936Y-130585D01*
X156848Y-130548D01*
X156841Y-130541D01*
X156804Y-130534D01*
X156753Y-130512D01*
X156688Y-130490D01*
X156607Y-130461D01*
X156520Y-130432D01*
X156418Y-130388D01*
X156309Y-130351D01*
X156301D01*
X156294Y-130344D01*
X156250Y-130322D01*
X156177Y-130293D01*
X156090Y-130257D01*
X155988Y-130213D01*
X155878Y-130162D01*
X155652Y-130045D01*
X155638Y-130038D01*
X155602Y-130016D01*
X155551Y-129987D01*
X155485Y-129936D01*
X155405Y-129885D01*
X155324Y-129826D01*
X155244Y-129754D01*
X155164Y-129681D01*
X155157Y-129673D01*
X155135Y-129644D01*
X155098Y-129601D01*
X155055Y-129542D01*
X155011Y-129477D01*
X154960Y-129396D01*
X154916Y-129309D01*
X154873Y-129214D01*
X154865Y-129200D01*
X154858Y-129170D01*
X154843Y-129112D01*
X154829Y-129039D01*
X154807Y-128952D01*
X154792Y-128850D01*
X154785Y-128733D01*
X154778Y-128609D01*
Y-128602D01*
Y-128587D01*
Y-128565D01*
Y-128536D01*
X154792Y-128456D01*
X154807Y-128354D01*
X154829Y-128237D01*
X154865Y-128106D01*
X154916Y-127975D01*
X154982Y-127851D01*
Y-127844D01*
X154989Y-127836D01*
X155018Y-127793D01*
X155062Y-127734D01*
X155128Y-127661D01*
X155201Y-127574D01*
X155295Y-127479D01*
X155405Y-127392D01*
X155521Y-127304D01*
X155529D01*
X155536Y-127297D01*
X155580Y-127268D01*
X155652Y-127224D01*
X155747Y-127180D01*
X155864Y-127122D01*
X155995Y-127064D01*
X156141Y-127013D01*
X156294Y-126969D01*
X156301D01*
X156316Y-126962D01*
X156338Y-126954D01*
X156367Y-126947D01*
X156411Y-126940D01*
X156454Y-126932D01*
X156571Y-126910D01*
X156710Y-126889D01*
X156863Y-126867D01*
X157023Y-126859D01*
X157198Y-126852D01*
X157278D01*
X157336Y-126859D01*
D02*
G37*
G36*
X134191D02*
X134264D01*
X134344Y-126867D01*
X134439Y-126874D01*
X134541Y-126881D01*
X134650Y-126896D01*
X134767Y-126918D01*
X135014Y-126962D01*
X135270Y-127020D01*
X135518Y-127107D01*
Y-128274D01*
X135510Y-128266D01*
X135488Y-128252D01*
X135452Y-128237D01*
X135408Y-128208D01*
X135350Y-128172D01*
X135277Y-128135D01*
X135197Y-128099D01*
X135109Y-128055D01*
X135007Y-128019D01*
X134898Y-127982D01*
X134781Y-127946D01*
X134650Y-127909D01*
X134519Y-127880D01*
X134380Y-127866D01*
X134242Y-127851D01*
X134089Y-127844D01*
X133994D01*
X133936Y-127851D01*
X133863Y-127858D01*
X133782Y-127866D01*
X133622Y-127902D01*
X133615D01*
X133586Y-127909D01*
X133549Y-127924D01*
X133505Y-127938D01*
X133389Y-127982D01*
X133272Y-128048D01*
X133265Y-128055D01*
X133250Y-128062D01*
X133221Y-128084D01*
X133192Y-128106D01*
X133119Y-128179D01*
X133046Y-128266D01*
Y-128274D01*
X133032Y-128288D01*
X133024Y-128317D01*
X133010Y-128354D01*
X132995Y-128398D01*
X132981Y-128441D01*
X132973Y-128500D01*
X132966Y-128558D01*
Y-128565D01*
Y-128587D01*
X132973Y-128624D01*
Y-128667D01*
X133002Y-128769D01*
X133017Y-128828D01*
X133046Y-128879D01*
X133054Y-128886D01*
X133061Y-128901D01*
X133083Y-128922D01*
X133112Y-128959D01*
X133185Y-129032D01*
X133287Y-129112D01*
X133294Y-129119D01*
X133316Y-129127D01*
X133352Y-129148D01*
X133396Y-129170D01*
X133447Y-129200D01*
X133513Y-129236D01*
X133586Y-129265D01*
X133666Y-129302D01*
X133673D01*
X133710Y-129316D01*
X133753Y-129331D01*
X133819Y-129353D01*
X133892Y-129382D01*
X133979Y-129411D01*
X134074Y-129440D01*
X134184Y-129477D01*
X134191D01*
X134198Y-129484D01*
X134220Y-129491D01*
X134249Y-129506D01*
X134322Y-129535D01*
X134409Y-129579D01*
X134519Y-129622D01*
X134635Y-129681D01*
X134869Y-129797D01*
X134883Y-129805D01*
X134920Y-129826D01*
X134978Y-129856D01*
X135051Y-129907D01*
X135131Y-129958D01*
X135219Y-130023D01*
X135306Y-130089D01*
X135386Y-130169D01*
X135394Y-130176D01*
X135423Y-130206D01*
X135459Y-130249D01*
X135510Y-130308D01*
X135561Y-130373D01*
X135612Y-130453D01*
X135671Y-130548D01*
X135714Y-130643D01*
X135722Y-130657D01*
X135736Y-130687D01*
X135751Y-130745D01*
X135773Y-130818D01*
X135795Y-130913D01*
X135816Y-131022D01*
X135824Y-131146D01*
X135831Y-131277D01*
Y-131284D01*
Y-131299D01*
Y-131321D01*
Y-131350D01*
X135824Y-131438D01*
X135802Y-131547D01*
X135780Y-131671D01*
X135743Y-131802D01*
X135693Y-131933D01*
X135620Y-132064D01*
X135612Y-132079D01*
X135583Y-132123D01*
X135539Y-132181D01*
X135474Y-132261D01*
X135394Y-132349D01*
X135299Y-132436D01*
X135189Y-132531D01*
X135066Y-132619D01*
X135058D01*
X135051Y-132626D01*
X135029Y-132640D01*
X135007Y-132655D01*
X134934Y-132692D01*
X134840Y-132743D01*
X134723Y-132793D01*
X134584Y-132845D01*
X134431Y-132896D01*
X134264Y-132939D01*
X134256D01*
X134242Y-132947D01*
X134220D01*
X134184Y-132954D01*
X134147Y-132961D01*
X134096Y-132976D01*
X133972Y-132990D01*
X133834Y-133012D01*
X133673Y-133034D01*
X133491Y-133041D01*
X133309Y-133049D01*
X133214D01*
X133148Y-133041D01*
X133061D01*
X132966Y-133034D01*
X132857Y-133019D01*
X132733Y-133005D01*
X132609Y-132990D01*
X132470Y-132968D01*
X132186Y-132910D01*
X131902Y-132830D01*
X131763Y-132786D01*
X131625Y-132728D01*
Y-131481D01*
X131632Y-131489D01*
X131661Y-131503D01*
X131698Y-131532D01*
X131756Y-131569D01*
X131829Y-131613D01*
X131909Y-131664D01*
X132011Y-131715D01*
X132120Y-131766D01*
X132237Y-131824D01*
X132361Y-131875D01*
X132500Y-131926D01*
X132645Y-131970D01*
X132798Y-132006D01*
X132959Y-132035D01*
X133119Y-132050D01*
X133287Y-132057D01*
X133338D01*
X133396Y-132050D01*
X133476Y-132043D01*
X133571Y-132035D01*
X133673Y-132021D01*
X133782Y-131999D01*
X133899Y-131970D01*
X134009Y-131933D01*
X134118Y-131882D01*
X134220Y-131824D01*
X134315Y-131758D01*
X134395Y-131671D01*
X134453Y-131576D01*
X134490Y-131467D01*
X134504Y-131343D01*
Y-131335D01*
Y-131306D01*
X134497Y-131270D01*
X134490Y-131226D01*
X134475Y-131168D01*
X134460Y-131109D01*
X134431Y-131051D01*
X134395Y-131000D01*
X134388Y-130993D01*
X134373Y-130978D01*
X134351Y-130949D01*
X134322Y-130913D01*
X134285Y-130876D01*
X134234Y-130833D01*
X134184Y-130789D01*
X134118Y-130745D01*
X134111Y-130738D01*
X134089Y-130723D01*
X134052Y-130709D01*
X134001Y-130679D01*
X133943Y-130650D01*
X133870Y-130614D01*
X133790Y-130585D01*
X133702Y-130548D01*
X133695Y-130541D01*
X133659Y-130534D01*
X133607Y-130512D01*
X133542Y-130490D01*
X133462Y-130461D01*
X133374Y-130432D01*
X133272Y-130388D01*
X133163Y-130351D01*
X133156D01*
X133148Y-130344D01*
X133105Y-130322D01*
X133032Y-130293D01*
X132944Y-130257D01*
X132842Y-130213D01*
X132733Y-130162D01*
X132507Y-130045D01*
X132492Y-130038D01*
X132456Y-130016D01*
X132405Y-129987D01*
X132339Y-129936D01*
X132259Y-129885D01*
X132179Y-129826D01*
X132098Y-129754D01*
X132018Y-129681D01*
X132011Y-129673D01*
X131989Y-129644D01*
X131953Y-129601D01*
X131909Y-129542D01*
X131865Y-129477D01*
X131814Y-129396D01*
X131771Y-129309D01*
X131727Y-129214D01*
X131719Y-129200D01*
X131712Y-129170D01*
X131698Y-129112D01*
X131683Y-129039D01*
X131661Y-128952D01*
X131647Y-128850D01*
X131639Y-128733D01*
X131632Y-128609D01*
Y-128602D01*
Y-128587D01*
Y-128565D01*
Y-128536D01*
X131647Y-128456D01*
X131661Y-128354D01*
X131683Y-128237D01*
X131719Y-128106D01*
X131771Y-127975D01*
X131836Y-127851D01*
Y-127844D01*
X131843Y-127836D01*
X131872Y-127793D01*
X131916Y-127734D01*
X131982Y-127661D01*
X132055Y-127574D01*
X132150Y-127479D01*
X132259Y-127392D01*
X132376Y-127304D01*
X132383D01*
X132390Y-127297D01*
X132434Y-127268D01*
X132507Y-127224D01*
X132601Y-127180D01*
X132718Y-127122D01*
X132849Y-127064D01*
X132995Y-127013D01*
X133148Y-126969D01*
X133156D01*
X133170Y-126962D01*
X133192Y-126954D01*
X133221Y-126947D01*
X133265Y-126940D01*
X133309Y-126932D01*
X133425Y-126910D01*
X133564Y-126889D01*
X133717Y-126867D01*
X133877Y-126859D01*
X134052Y-126852D01*
X134132D01*
X134191Y-126859D01*
D02*
G37*
G36*
X83861Y-129899D02*
Y-132910D01*
X82490D01*
Y-129929D01*
X79836Y-124621D01*
X81404D01*
X83037Y-128186D01*
X83044Y-128201D01*
X83051Y-128230D01*
X83073Y-128266D01*
X83095Y-128325D01*
X83124Y-128412D01*
X83139Y-128463D01*
X83161Y-128522D01*
X83183Y-128587D01*
X83212Y-128660D01*
X83226D01*
Y-128653D01*
X83234Y-128624D01*
X83248Y-128587D01*
X83270Y-128529D01*
X83292Y-128463D01*
X83328Y-128383D01*
X83365Y-128288D01*
X83416Y-128186D01*
X85122Y-124621D01*
X86580D01*
X83861Y-129899D01*
D02*
G37*
G36*
X130247Y-132910D02*
X128905D01*
Y-131977D01*
X128884D01*
X128876Y-131992D01*
X128855Y-132021D01*
X128825Y-132079D01*
X128774Y-132145D01*
X128709Y-132225D01*
X128636Y-132312D01*
X128541Y-132414D01*
X128439Y-132509D01*
X128315Y-132611D01*
X128184Y-132706D01*
X128038Y-132801D01*
X127870Y-132881D01*
X127695Y-132947D01*
X127498Y-133005D01*
X127294Y-133034D01*
X127068Y-133049D01*
X127017D01*
X126981Y-133041D01*
X126930D01*
X126872Y-133034D01*
X126813Y-133019D01*
X126740Y-133012D01*
X126580Y-132968D01*
X126405Y-132917D01*
X126216Y-132837D01*
X126121Y-132786D01*
X126019Y-132735D01*
X125924Y-132670D01*
X125822Y-132604D01*
X125727Y-132524D01*
X125632Y-132436D01*
X125545Y-132334D01*
X125457Y-132232D01*
X125377Y-132116D01*
X125297Y-131984D01*
X125224Y-131846D01*
X125166Y-131700D01*
X125107Y-131540D01*
X125056Y-131365D01*
X125020Y-131175D01*
X124991Y-130978D01*
X124976Y-130760D01*
X124969Y-130534D01*
Y-126991D01*
X126310D01*
Y-130395D01*
Y-130402D01*
Y-130410D01*
Y-130432D01*
Y-130461D01*
X126318Y-130541D01*
X126332Y-130643D01*
X126347Y-130767D01*
X126376Y-130898D01*
X126412Y-131044D01*
X126463Y-131190D01*
X126529Y-131335D01*
X126609Y-131481D01*
X126711Y-131613D01*
X126828Y-131737D01*
X126974Y-131839D01*
X127134Y-131919D01*
X127229Y-131948D01*
X127324Y-131970D01*
X127433Y-131977D01*
X127542Y-131984D01*
X127601D01*
X127644Y-131977D01*
X127695Y-131970D01*
X127754Y-131963D01*
X127892Y-131926D01*
X128045Y-131875D01*
X128126Y-131839D01*
X128206Y-131802D01*
X128286Y-131751D01*
X128366Y-131693D01*
X128446Y-131627D01*
X128519Y-131547D01*
X128526Y-131540D01*
X128534Y-131525D01*
X128556Y-131503D01*
X128577Y-131467D01*
X128607Y-131423D01*
X128643Y-131372D01*
X128680Y-131306D01*
X128716Y-131241D01*
X128745Y-131161D01*
X128782Y-131073D01*
X128818Y-130978D01*
X128847Y-130876D01*
X128869Y-130767D01*
X128891Y-130650D01*
X128898Y-130526D01*
X128905Y-130395D01*
Y-126991D01*
X130247D01*
Y-132910D01*
D02*
G37*
G36*
X147101D02*
X145760D01*
Y-126991D01*
X147101D01*
Y-132910D01*
D02*
G37*
G36*
X109150D02*
X107735D01*
Y-124621D01*
X109150D01*
Y-132910D01*
D02*
G37*
G36*
X96173Y-126859D02*
X96224D01*
X96283Y-126867D01*
X96356Y-126874D01*
X96429Y-126889D01*
X96596Y-126918D01*
X96786Y-126969D01*
X96990Y-127034D01*
X97201Y-127129D01*
X97413Y-127246D01*
X97515Y-127311D01*
X97617Y-127392D01*
X97712Y-127479D01*
X97806Y-127567D01*
X97894Y-127669D01*
X97974Y-127785D01*
X98047Y-127902D01*
X98120Y-128033D01*
X98178Y-128179D01*
X98229Y-128332D01*
X98266Y-128492D01*
X98302Y-128675D01*
X98317Y-128857D01*
X98324Y-129061D01*
Y-132910D01*
X97019D01*
Y-131984D01*
X96997D01*
X96990Y-131999D01*
X96968Y-132028D01*
X96932Y-132079D01*
X96881Y-132152D01*
X96822Y-132232D01*
X96742Y-132320D01*
X96647Y-132414D01*
X96545Y-132517D01*
X96421Y-132619D01*
X96290Y-132713D01*
X96144Y-132801D01*
X95977Y-132881D01*
X95802Y-132947D01*
X95612Y-133005D01*
X95415Y-133034D01*
X95196Y-133049D01*
X95116D01*
X95051Y-133041D01*
X94978Y-133034D01*
X94898Y-133027D01*
X94803Y-133012D01*
X94701Y-132990D01*
X94482Y-132932D01*
X94373Y-132896D01*
X94256Y-132852D01*
X94147Y-132793D01*
X94037Y-132728D01*
X93928Y-132655D01*
X93833Y-132575D01*
X93826Y-132568D01*
X93811Y-132553D01*
X93790Y-132524D01*
X93753Y-132487D01*
X93717Y-132444D01*
X93680Y-132385D01*
X93629Y-132320D01*
X93585Y-132239D01*
X93542Y-132152D01*
X93498Y-132057D01*
X93454Y-131955D01*
X93418Y-131846D01*
X93381Y-131729D01*
X93360Y-131598D01*
X93345Y-131467D01*
X93338Y-131321D01*
Y-131314D01*
Y-131299D01*
Y-131277D01*
X93345Y-131248D01*
Y-131212D01*
X93352Y-131168D01*
X93367Y-131059D01*
X93396Y-130927D01*
X93440Y-130781D01*
X93498Y-130621D01*
X93578Y-130453D01*
X93680Y-130279D01*
X93811Y-130111D01*
X93884Y-130031D01*
X93964Y-129950D01*
X94052Y-129870D01*
X94154Y-129797D01*
X94256Y-129724D01*
X94373Y-129659D01*
X94497Y-129593D01*
X94635Y-129535D01*
X94774Y-129484D01*
X94927Y-129440D01*
X95095Y-129404D01*
X95269Y-129375D01*
X97026Y-129119D01*
Y-129112D01*
Y-129105D01*
Y-129061D01*
X97019Y-129003D01*
X97004Y-128922D01*
X96990Y-128828D01*
X96961Y-128718D01*
X96924Y-128602D01*
X96873Y-128485D01*
X96815Y-128368D01*
X96735Y-128252D01*
X96633Y-128142D01*
X96516Y-128048D01*
X96385Y-127968D01*
X96217Y-127902D01*
X96035Y-127866D01*
X95933Y-127851D01*
X95780D01*
X95721Y-127858D01*
X95648Y-127866D01*
X95554Y-127873D01*
X95444Y-127887D01*
X95320Y-127909D01*
X95189Y-127938D01*
X95043Y-127982D01*
X94890Y-128026D01*
X94737Y-128084D01*
X94570Y-128157D01*
X94409Y-128245D01*
X94241Y-128339D01*
X94074Y-128449D01*
X93914Y-128580D01*
Y-127413D01*
X93928Y-127406D01*
X93957Y-127392D01*
X94008Y-127363D01*
X94081Y-127326D01*
X94169Y-127282D01*
X94278Y-127239D01*
X94402Y-127188D01*
X94540Y-127129D01*
X94686Y-127078D01*
X94854Y-127027D01*
X95036Y-126983D01*
X95226Y-126940D01*
X95423Y-126903D01*
X95634Y-126874D01*
X95853Y-126859D01*
X96079Y-126852D01*
X96137D01*
X96173Y-126859D01*
D02*
G37*
G36*
X70833Y-127975D02*
X70855D01*
X70863Y-127960D01*
X70884Y-127924D01*
X70928Y-127873D01*
X70979Y-127800D01*
X71052Y-127712D01*
X71132Y-127618D01*
X71234Y-127516D01*
X71344Y-127413D01*
X71475Y-127311D01*
X71621Y-127209D01*
X71774Y-127115D01*
X71949Y-127027D01*
X72131Y-126954D01*
X72335Y-126903D01*
X72546Y-126867D01*
X72773Y-126852D01*
X72824D01*
X72860Y-126859D01*
X72904D01*
X72955Y-126867D01*
X73079Y-126889D01*
X73232Y-126925D01*
X73399Y-126976D01*
X73574Y-127056D01*
X73764Y-127151D01*
X73851Y-127217D01*
X73946Y-127282D01*
X74034Y-127355D01*
X74121Y-127443D01*
X74209Y-127537D01*
X74289Y-127639D01*
X74369Y-127749D01*
X74442Y-127873D01*
X74507Y-128004D01*
X74566Y-128150D01*
X74617Y-128303D01*
X74661Y-128471D01*
X74697Y-128646D01*
X74726Y-128842D01*
X74741Y-129046D01*
X74748Y-129265D01*
Y-132910D01*
X73407D01*
Y-129681D01*
Y-129673D01*
Y-129659D01*
Y-129637D01*
Y-129608D01*
X73399Y-129564D01*
Y-129520D01*
X73392Y-129404D01*
X73370Y-129272D01*
X73348Y-129119D01*
X73312Y-128966D01*
X73261Y-128799D01*
X73195Y-128631D01*
X73122Y-128478D01*
X73028Y-128325D01*
X72911Y-128193D01*
X72780Y-128077D01*
X72700Y-128033D01*
X72619Y-127989D01*
X72532Y-127960D01*
X72437Y-127938D01*
X72342Y-127924D01*
X72233Y-127917D01*
X72175D01*
X72138Y-127924D01*
X72087Y-127931D01*
X72022Y-127946D01*
X71890Y-127982D01*
X71810Y-128004D01*
X71730Y-128040D01*
X71650Y-128084D01*
X71562Y-128128D01*
X71475Y-128193D01*
X71395Y-128259D01*
X71315Y-128339D01*
X71234Y-128427D01*
X71227Y-128434D01*
X71220Y-128449D01*
X71198Y-128478D01*
X71169Y-128522D01*
X71140Y-128573D01*
X71110Y-128631D01*
X71074Y-128704D01*
X71038Y-128784D01*
X70994Y-128872D01*
X70957Y-128966D01*
X70928Y-129076D01*
X70899Y-129192D01*
X70870Y-129316D01*
X70848Y-129447D01*
X70841Y-129586D01*
X70833Y-129732D01*
Y-132910D01*
X69485D01*
Y-124148D01*
X70833D01*
Y-127975D01*
D02*
G37*
G36*
X60598Y-132910D02*
X59257D01*
Y-126991D01*
X60598D01*
Y-132910D01*
D02*
G37*
G36*
X55000Y-131751D02*
X58207D01*
Y-132910D01*
X53622D01*
Y-124621D01*
X55000D01*
Y-131751D01*
D02*
G37*
G36*
X138805Y-126991D02*
X140220D01*
Y-128040D01*
X138805D01*
Y-131000D01*
Y-131008D01*
Y-131022D01*
Y-131051D01*
Y-131088D01*
X138813Y-131131D01*
Y-131182D01*
X138827Y-131292D01*
X138849Y-131416D01*
X138885Y-131547D01*
X138929Y-131664D01*
X138995Y-131758D01*
X139002Y-131766D01*
X139031Y-131795D01*
X139082Y-131824D01*
X139148Y-131868D01*
X139235Y-131904D01*
X139352Y-131941D01*
X139483Y-131970D01*
X139636Y-131977D01*
X139695D01*
X139753Y-131970D01*
X139833Y-131955D01*
X139928Y-131926D01*
X140023Y-131897D01*
X140125Y-131846D01*
X140220Y-131780D01*
Y-132852D01*
X140212D01*
X140205Y-132859D01*
X140183Y-132866D01*
X140147Y-132881D01*
X140110Y-132896D01*
X140067Y-132910D01*
X140008Y-132932D01*
X139950Y-132947D01*
X139877Y-132961D01*
X139797Y-132983D01*
X139622Y-133012D01*
X139418Y-133034D01*
X139192Y-133041D01*
X139119D01*
X139075Y-133034D01*
X139031Y-133027D01*
X138922Y-133012D01*
X138791Y-132990D01*
X138645Y-132954D01*
X138492Y-132903D01*
X138331Y-132837D01*
X138164Y-132750D01*
X138011Y-132640D01*
X137865Y-132509D01*
X137734Y-132349D01*
X137675Y-132254D01*
X137624Y-132159D01*
X137581Y-132050D01*
X137537Y-131941D01*
X137508Y-131817D01*
X137486Y-131685D01*
X137471Y-131547D01*
X137464Y-131394D01*
Y-128040D01*
X136480D01*
Y-126991D01*
X137464D01*
Y-125627D01*
X138805Y-125241D01*
Y-126991D01*
D02*
G37*
G36*
X78080D02*
X79494D01*
Y-128040D01*
X78080D01*
Y-131000D01*
Y-131008D01*
Y-131022D01*
Y-131051D01*
Y-131088D01*
X78087Y-131131D01*
Y-131182D01*
X78101Y-131292D01*
X78123Y-131416D01*
X78160Y-131547D01*
X78203Y-131664D01*
X78269Y-131758D01*
X78276Y-131766D01*
X78306Y-131795D01*
X78357Y-131824D01*
X78422Y-131868D01*
X78510Y-131904D01*
X78626Y-131941D01*
X78758Y-131970D01*
X78911Y-131977D01*
X78969D01*
X79027Y-131970D01*
X79107Y-131955D01*
X79202Y-131926D01*
X79297Y-131897D01*
X79399Y-131846D01*
X79494Y-131780D01*
Y-132852D01*
X79487D01*
X79479Y-132859D01*
X79457Y-132866D01*
X79421Y-132881D01*
X79384Y-132896D01*
X79341Y-132910D01*
X79282Y-132932D01*
X79224Y-132947D01*
X79151Y-132961D01*
X79071Y-132983D01*
X78896Y-133012D01*
X78692Y-133034D01*
X78466Y-133041D01*
X78393D01*
X78349Y-133034D01*
X78306Y-133027D01*
X78196Y-133012D01*
X78065Y-132990D01*
X77919Y-132954D01*
X77766Y-132903D01*
X77606Y-132837D01*
X77438Y-132750D01*
X77285Y-132640D01*
X77139Y-132509D01*
X77008Y-132349D01*
X76950Y-132254D01*
X76899Y-132159D01*
X76855Y-132050D01*
X76811Y-131941D01*
X76782Y-131817D01*
X76760Y-131685D01*
X76746Y-131547D01*
X76738Y-131394D01*
Y-128040D01*
X75754D01*
Y-126991D01*
X76738D01*
Y-125627D01*
X78080Y-125241D01*
Y-126991D01*
D02*
G37*
G36*
X151439Y-126859D02*
X151519Y-126867D01*
X151621Y-126874D01*
X151738Y-126896D01*
X151869Y-126918D01*
X152007Y-126947D01*
X152161Y-126991D01*
X152314Y-127042D01*
X152467Y-127107D01*
X152620Y-127188D01*
X152780Y-127275D01*
X152926Y-127377D01*
X153065Y-127501D01*
X153196Y-127639D01*
X153203Y-127647D01*
X153225Y-127676D01*
X153261Y-127720D01*
X153298Y-127785D01*
X153349Y-127866D01*
X153407Y-127960D01*
X153465Y-128070D01*
X153531Y-128201D01*
X153597Y-128347D01*
X153655Y-128507D01*
X153713Y-128689D01*
X153764Y-128879D01*
X153808Y-129090D01*
X153837Y-129316D01*
X153859Y-129550D01*
X153867Y-129805D01*
Y-130315D01*
X149828D01*
Y-130322D01*
Y-130351D01*
X149835Y-130395D01*
X149842Y-130453D01*
X149850Y-130519D01*
X149857Y-130599D01*
X149879Y-130687D01*
X149901Y-130781D01*
X149959Y-130986D01*
X150003Y-131095D01*
X150047Y-131197D01*
X150105Y-131299D01*
X150170Y-131401D01*
X150243Y-131496D01*
X150331Y-131583D01*
X150338Y-131591D01*
X150353Y-131605D01*
X150382Y-131627D01*
X150418Y-131649D01*
X150469Y-131685D01*
X150528Y-131722D01*
X150601Y-131766D01*
X150681Y-131802D01*
X150768Y-131846D01*
X150870Y-131890D01*
X150980Y-131926D01*
X151103Y-131955D01*
X151227Y-131984D01*
X151366Y-132006D01*
X151512Y-132021D01*
X151665Y-132028D01*
X151709D01*
X151760Y-132021D01*
X151825D01*
X151905Y-132013D01*
X152007Y-131999D01*
X152117Y-131977D01*
X152241Y-131955D01*
X152365Y-131926D01*
X152503Y-131890D01*
X152649Y-131846D01*
X152795Y-131788D01*
X152948Y-131722D01*
X153101Y-131649D01*
X153254Y-131562D01*
X153400Y-131459D01*
Y-132546D01*
X153393Y-132553D01*
X153363Y-132568D01*
X153320Y-132589D01*
X153254Y-132626D01*
X153174Y-132662D01*
X153072Y-132706D01*
X152963Y-132750D01*
X152831Y-132793D01*
X152685Y-132845D01*
X152525Y-132888D01*
X152350Y-132932D01*
X152161Y-132968D01*
X151956Y-133005D01*
X151738Y-133027D01*
X151505Y-133041D01*
X151264Y-133049D01*
X151206D01*
X151140Y-133041D01*
X151045Y-133034D01*
X150936Y-133027D01*
X150812Y-133005D01*
X150673Y-132983D01*
X150520Y-132947D01*
X150360Y-132903D01*
X150192Y-132852D01*
X150017Y-132786D01*
X149850Y-132713D01*
X149682Y-132619D01*
X149514Y-132509D01*
X149361Y-132385D01*
X149215Y-132247D01*
X149208Y-132239D01*
X149186Y-132210D01*
X149150Y-132159D01*
X149099Y-132094D01*
X149040Y-132013D01*
X148982Y-131911D01*
X148917Y-131795D01*
X148844Y-131656D01*
X148778Y-131510D01*
X148705Y-131335D01*
X148647Y-131153D01*
X148589Y-130949D01*
X148538Y-130730D01*
X148501Y-130497D01*
X148479Y-130242D01*
X148472Y-129980D01*
Y-129972D01*
Y-129965D01*
Y-129943D01*
Y-129921D01*
X148479Y-129848D01*
X148486Y-129746D01*
X148494Y-129630D01*
X148516Y-129498D01*
X148538Y-129345D01*
X148574Y-129178D01*
X148618Y-129003D01*
X148669Y-128821D01*
X148734Y-128631D01*
X148814Y-128441D01*
X148909Y-128259D01*
X149019Y-128070D01*
X149143Y-127895D01*
X149288Y-127727D01*
X149296Y-127720D01*
X149325Y-127690D01*
X149369Y-127647D01*
X149434Y-127588D01*
X149514Y-127523D01*
X149609Y-127450D01*
X149726Y-127370D01*
X149850Y-127290D01*
X149988Y-127209D01*
X150141Y-127129D01*
X150309Y-127056D01*
X150491Y-126991D01*
X150681Y-126932D01*
X150885Y-126889D01*
X151096Y-126859D01*
X151322Y-126852D01*
X151373D01*
X151439Y-126859D01*
D02*
G37*
G36*
X90072D02*
X90152Y-126867D01*
X90254Y-126874D01*
X90371Y-126896D01*
X90502Y-126918D01*
X90640Y-126947D01*
X90793Y-126991D01*
X90947Y-127042D01*
X91100Y-127107D01*
X91253Y-127188D01*
X91413Y-127275D01*
X91559Y-127377D01*
X91697Y-127501D01*
X91829Y-127639D01*
X91836Y-127647D01*
X91858Y-127676D01*
X91894Y-127720D01*
X91931Y-127785D01*
X91982Y-127866D01*
X92040Y-127960D01*
X92098Y-128070D01*
X92164Y-128201D01*
X92229Y-128347D01*
X92288Y-128507D01*
X92346Y-128689D01*
X92397Y-128879D01*
X92441Y-129090D01*
X92470Y-129316D01*
X92492Y-129550D01*
X92499Y-129805D01*
Y-130315D01*
X88461D01*
Y-130322D01*
Y-130351D01*
X88468Y-130395D01*
X88475Y-130453D01*
X88482Y-130519D01*
X88490Y-130599D01*
X88512Y-130687D01*
X88534Y-130781D01*
X88592Y-130986D01*
X88635Y-131095D01*
X88679Y-131197D01*
X88738Y-131299D01*
X88803Y-131401D01*
X88876Y-131496D01*
X88964Y-131583D01*
X88971Y-131591D01*
X88986Y-131605D01*
X89015Y-131627D01*
X89051Y-131649D01*
X89102Y-131685D01*
X89160Y-131722D01*
X89233Y-131766D01*
X89314Y-131802D01*
X89401Y-131846D01*
X89503Y-131890D01*
X89612Y-131926D01*
X89736Y-131955D01*
X89860Y-131984D01*
X89999Y-132006D01*
X90145Y-132021D01*
X90298Y-132028D01*
X90341D01*
X90392Y-132021D01*
X90458D01*
X90538Y-132013D01*
X90640Y-131999D01*
X90750Y-131977D01*
X90874Y-131955D01*
X90997Y-131926D01*
X91136Y-131890D01*
X91282Y-131846D01*
X91428Y-131788D01*
X91581Y-131722D01*
X91734Y-131649D01*
X91887Y-131562D01*
X92033Y-131459D01*
Y-132546D01*
X92025Y-132553D01*
X91996Y-132568D01*
X91953Y-132589D01*
X91887Y-132626D01*
X91807Y-132662D01*
X91705Y-132706D01*
X91595Y-132750D01*
X91464Y-132793D01*
X91318Y-132845D01*
X91158Y-132888D01*
X90983Y-132932D01*
X90793Y-132968D01*
X90589Y-133005D01*
X90371Y-133027D01*
X90137Y-133041D01*
X89897Y-133049D01*
X89838D01*
X89773Y-133041D01*
X89678Y-133034D01*
X89569Y-133027D01*
X89445Y-133005D01*
X89306Y-132983D01*
X89153Y-132947D01*
X88993Y-132903D01*
X88825Y-132852D01*
X88650Y-132786D01*
X88482Y-132713D01*
X88315Y-132619D01*
X88147Y-132509D01*
X87994Y-132385D01*
X87848Y-132247D01*
X87841Y-132239D01*
X87819Y-132210D01*
X87783Y-132159D01*
X87732Y-132094D01*
X87673Y-132013D01*
X87615Y-131911D01*
X87549Y-131795D01*
X87476Y-131656D01*
X87411Y-131510D01*
X87338Y-131335D01*
X87280Y-131153D01*
X87221Y-130949D01*
X87170Y-130730D01*
X87134Y-130497D01*
X87112Y-130242D01*
X87105Y-129980D01*
Y-129972D01*
Y-129965D01*
Y-129943D01*
Y-129921D01*
X87112Y-129848D01*
X87119Y-129746D01*
X87126Y-129630D01*
X87148Y-129498D01*
X87170Y-129345D01*
X87207Y-129178D01*
X87250Y-129003D01*
X87301Y-128821D01*
X87367Y-128631D01*
X87447Y-128441D01*
X87542Y-128259D01*
X87651Y-128070D01*
X87775Y-127895D01*
X87921Y-127727D01*
X87928Y-127720D01*
X87958Y-127690D01*
X88001Y-127647D01*
X88067Y-127588D01*
X88147Y-127523D01*
X88242Y-127450D01*
X88358Y-127370D01*
X88482Y-127290D01*
X88621Y-127209D01*
X88774Y-127129D01*
X88942Y-127056D01*
X89124Y-126991D01*
X89314Y-126932D01*
X89518Y-126889D01*
X89729Y-126859D01*
X89955Y-126852D01*
X90006D01*
X90072Y-126859D01*
D02*
G37*
G36*
X64739D02*
X64819Y-126867D01*
X64921Y-126881D01*
X65030Y-126903D01*
X65154Y-126932D01*
X65286Y-126969D01*
X65424Y-127020D01*
X65570Y-127085D01*
X65716Y-127166D01*
X65862Y-127260D01*
X66000Y-127370D01*
X66131Y-127494D01*
X66255Y-127647D01*
X66372Y-127814D01*
X66394D01*
Y-126991D01*
X67735D01*
Y-132436D01*
Y-132444D01*
Y-132473D01*
Y-132517D01*
X67728Y-132575D01*
X67721Y-132648D01*
X67713Y-132735D01*
X67699Y-132837D01*
X67684Y-132947D01*
X67662Y-133063D01*
X67633Y-133194D01*
X67560Y-133464D01*
X67516Y-133610D01*
X67458Y-133763D01*
X67400Y-133916D01*
X67327Y-134062D01*
X67247Y-134215D01*
X67152Y-134368D01*
X67050Y-134521D01*
X66933Y-134667D01*
X66809Y-134806D01*
X66671Y-134937D01*
X66518Y-135068D01*
X66357Y-135185D01*
X66175Y-135294D01*
X65978Y-135396D01*
X65767Y-135484D01*
X65541Y-135556D01*
X65300Y-135615D01*
X65038Y-135659D01*
X64761Y-135688D01*
X64462Y-135695D01*
X64353D01*
X64265Y-135688D01*
X64170Y-135680D01*
X64054Y-135673D01*
X63915Y-135659D01*
X63777Y-135644D01*
X63624Y-135622D01*
X63463Y-135600D01*
X63121Y-135527D01*
X62946Y-135484D01*
X62778Y-135433D01*
X62610Y-135367D01*
X62443Y-135301D01*
Y-134084D01*
X62457Y-134091D01*
X62486Y-134106D01*
X62537Y-134135D01*
X62610Y-134171D01*
X62698Y-134215D01*
X62792Y-134259D01*
X62909Y-134310D01*
X63040Y-134361D01*
X63172Y-134412D01*
X63317Y-134463D01*
X63631Y-134550D01*
X63791Y-134587D01*
X63959Y-134616D01*
X64119Y-134631D01*
X64287Y-134638D01*
X64338D01*
X64374Y-134631D01*
X64425D01*
X64484Y-134623D01*
X64542Y-134616D01*
X64615Y-134609D01*
X64775Y-134572D01*
X64950Y-134529D01*
X65147Y-134463D01*
X65344Y-134376D01*
X65534Y-134266D01*
X65636Y-134208D01*
X65730Y-134135D01*
X65818Y-134055D01*
X65905Y-133967D01*
X65986Y-133872D01*
X66066Y-133763D01*
X66139Y-133654D01*
X66197Y-133530D01*
X66255Y-133391D01*
X66306Y-133253D01*
X66343Y-133100D01*
X66372Y-132932D01*
X66386Y-132757D01*
X66394Y-132568D01*
Y-131919D01*
X66372D01*
X66365Y-131933D01*
X66343Y-131970D01*
X66299Y-132021D01*
X66248Y-132094D01*
X66175Y-132181D01*
X66095Y-132276D01*
X65993Y-132378D01*
X65876Y-132480D01*
X65738Y-132589D01*
X65592Y-132692D01*
X65431Y-132786D01*
X65249Y-132874D01*
X65052Y-132947D01*
X64841Y-132998D01*
X64615Y-133034D01*
X64374Y-133049D01*
X64323D01*
X64272Y-133041D01*
X64192Y-133034D01*
X64105Y-133027D01*
X63995Y-133005D01*
X63879Y-132983D01*
X63755Y-132947D01*
X63616Y-132910D01*
X63478Y-132859D01*
X63332Y-132793D01*
X63186Y-132713D01*
X63040Y-132626D01*
X62895Y-132524D01*
X62763Y-132400D01*
X62632Y-132261D01*
X62625Y-132254D01*
X62603Y-132225D01*
X62574Y-132181D01*
X62530Y-132116D01*
X62479Y-132035D01*
X62421Y-131941D01*
X62362Y-131831D01*
X62304Y-131700D01*
X62239Y-131562D01*
X62180Y-131401D01*
X62122Y-131226D01*
X62071Y-131037D01*
X62027Y-130833D01*
X61998Y-130621D01*
X61976Y-130388D01*
X61969Y-130147D01*
Y-130140D01*
Y-130133D01*
Y-130111D01*
Y-130082D01*
X61976Y-130001D01*
X61983Y-129899D01*
X61991Y-129768D01*
X62005Y-129622D01*
X62027Y-129462D01*
X62056Y-129280D01*
X62093Y-129090D01*
X62144Y-128901D01*
X62202Y-128697D01*
X62268Y-128500D01*
X62348Y-128303D01*
X62443Y-128106D01*
X62552Y-127924D01*
X62676Y-127749D01*
X62683Y-127742D01*
X62712Y-127712D01*
X62749Y-127669D01*
X62807Y-127610D01*
X62880Y-127537D01*
X62967Y-127464D01*
X63069Y-127384D01*
X63186Y-127297D01*
X63317Y-127217D01*
X63471Y-127137D01*
X63631Y-127056D01*
X63798Y-126991D01*
X63988Y-126932D01*
X64192Y-126889D01*
X64404Y-126859D01*
X64630Y-126852D01*
X64681D01*
X64739Y-126859D01*
D02*
G37*
G36*
X120555Y-53940D02*
X120669D01*
X120810Y-53952D01*
X120963Y-53965D01*
X121141Y-53991D01*
X121320Y-54016D01*
X121511Y-54042D01*
X121932Y-54131D01*
X122352Y-54246D01*
X122786Y-54399D01*
X122799D01*
X122837Y-54424D01*
X122901Y-54450D01*
X122977Y-54488D01*
X123066Y-54539D01*
X123181Y-54603D01*
X123309Y-54679D01*
X123449Y-54768D01*
X123589Y-54870D01*
X123755Y-54998D01*
X123908Y-55125D01*
X124074Y-55266D01*
X124239Y-55419D01*
X124392Y-55597D01*
X124558Y-55776D01*
X124711Y-55980D01*
X123245Y-57471D01*
X123232Y-57459D01*
X123194Y-57408D01*
X123130Y-57344D01*
X123054Y-57255D01*
X122939Y-57153D01*
X122811Y-57038D01*
X122646Y-56910D01*
X122467Y-56783D01*
X122276Y-56655D01*
X122046Y-56541D01*
X121804Y-56426D01*
X121524Y-56324D01*
X121243Y-56235D01*
X120924Y-56171D01*
X120593Y-56120D01*
X120236Y-56107D01*
X120159D01*
X120083Y-56120D01*
X119968D01*
X119828Y-56145D01*
X119675Y-56171D01*
X119509Y-56209D01*
X119331Y-56260D01*
X119139Y-56324D01*
X118948Y-56413D01*
X118757Y-56502D01*
X118566Y-56630D01*
X118387Y-56770D01*
X118221Y-56936D01*
X118068Y-57127D01*
X117941Y-57344D01*
X117928Y-57357D01*
X117915Y-57395D01*
X117877Y-57471D01*
X117839Y-57573D01*
X117788Y-57701D01*
X117737Y-57867D01*
X117673Y-58058D01*
X117609Y-58275D01*
X117546Y-58530D01*
X117482Y-58810D01*
X117418Y-59116D01*
X117354Y-59460D01*
X117303Y-59830D01*
X117265Y-60238D01*
X117227Y-60672D01*
X117201Y-61143D01*
Y-61653D01*
X117214Y-61628D01*
X117240Y-61590D01*
X117278Y-61526D01*
X117316Y-61462D01*
X117367Y-61373D01*
X117495Y-61182D01*
X117660Y-60965D01*
X117864Y-60723D01*
X118119Y-60480D01*
X118413Y-60238D01*
X118425Y-60225D01*
X118451Y-60213D01*
X118502Y-60174D01*
X118566Y-60136D01*
X118655Y-60085D01*
X118770Y-60034D01*
X118884Y-59983D01*
X119037Y-59919D01*
X119190Y-59856D01*
X119369Y-59805D01*
X119573Y-59754D01*
X119790Y-59703D01*
X120019Y-59664D01*
X120261Y-59626D01*
X120529Y-59613D01*
X120810Y-59601D01*
X120912D01*
X121026Y-59613D01*
X121192Y-59626D01*
X121371Y-59639D01*
X121587Y-59677D01*
X121830Y-59715D01*
X122085Y-59779D01*
X122352Y-59856D01*
X122620Y-59958D01*
X122901Y-60072D01*
X123156Y-60213D01*
X123411Y-60378D01*
X123653Y-60570D01*
X123870Y-60786D01*
X124061Y-61041D01*
X124074Y-61054D01*
X124099Y-61105D01*
X124150Y-61182D01*
X124214Y-61296D01*
X124278Y-61424D01*
X124354Y-61590D01*
X124443Y-61768D01*
X124533Y-61972D01*
X124622Y-62202D01*
X124711Y-62444D01*
X124788Y-62712D01*
X124851Y-62979D01*
X124915Y-63273D01*
X124966Y-63579D01*
X124992Y-63897D01*
X125004Y-64216D01*
Y-64242D01*
Y-64318D01*
X124992Y-64433D01*
X124979Y-64586D01*
X124966Y-64777D01*
X124941Y-64994D01*
X124890Y-65236D01*
X124839Y-65504D01*
X124775Y-65784D01*
X124686Y-66078D01*
X124571Y-66384D01*
X124443Y-66690D01*
X124290Y-66996D01*
X124112Y-67289D01*
X123908Y-67582D01*
X123678Y-67863D01*
X123666Y-67875D01*
X123615Y-67926D01*
X123538Y-67990D01*
X123436Y-68092D01*
X123296Y-68194D01*
X123130Y-68322D01*
X122939Y-68449D01*
X122709Y-68577D01*
X122454Y-68717D01*
X122174Y-68844D01*
X121855Y-68972D01*
X121511Y-69074D01*
X121141Y-69176D01*
X120746Y-69240D01*
X120325Y-69291D01*
X119866Y-69303D01*
X119739D01*
X119662Y-69291D01*
X119586D01*
X119382Y-69265D01*
X119139Y-69240D01*
X118872Y-69189D01*
X118566Y-69125D01*
X118234Y-69048D01*
X117890Y-68934D01*
X117546Y-68793D01*
X117201Y-68628D01*
X116857Y-68436D01*
X116526Y-68194D01*
X116220Y-67914D01*
X115939Y-67595D01*
X115684Y-67238D01*
X115671Y-67212D01*
X115633Y-67149D01*
X115569Y-67021D01*
X115493Y-66868D01*
X115404Y-66664D01*
X115302Y-66409D01*
X115187Y-66129D01*
X115085Y-65797D01*
X114970Y-65440D01*
X114855Y-65045D01*
X114753Y-64611D01*
X114664Y-64140D01*
X114588Y-63642D01*
X114524Y-63107D01*
X114486Y-62546D01*
X114473Y-61959D01*
Y-61947D01*
Y-61934D01*
Y-61857D01*
Y-61743D01*
X114486Y-61590D01*
Y-61398D01*
X114498Y-61169D01*
X114524Y-60914D01*
X114549Y-60646D01*
X114575Y-60340D01*
X114613Y-60021D01*
X114651Y-59690D01*
X114715Y-59346D01*
X114855Y-58657D01*
X114932Y-58300D01*
X115034Y-57956D01*
X115047Y-57930D01*
X115059Y-57879D01*
X115098Y-57777D01*
X115136Y-57650D01*
X115200Y-57497D01*
X115276Y-57318D01*
X115365Y-57127D01*
X115480Y-56910D01*
X115595Y-56681D01*
X115735Y-56439D01*
X115888Y-56196D01*
X116054Y-55954D01*
X116232Y-55712D01*
X116436Y-55470D01*
X116653Y-55253D01*
X116883Y-55036D01*
X116895Y-55023D01*
X116946Y-54985D01*
X117010Y-54934D01*
X117112Y-54858D01*
X117252Y-54781D01*
X117405Y-54679D01*
X117584Y-54590D01*
X117801Y-54475D01*
X118030Y-54373D01*
X118285Y-54271D01*
X118578Y-54182D01*
X118884Y-54105D01*
X119203Y-54029D01*
X119560Y-53978D01*
X119930Y-53940D01*
X120325Y-53927D01*
X120453D01*
X120555Y-53940D01*
D02*
G37*
G36*
X150198Y-60659D02*
X149127D01*
X146157Y-63757D01*
X149357Y-67200D01*
X150453D01*
Y-69074D01*
X145519D01*
Y-67200D01*
X146501D01*
X144652Y-65083D01*
X142816Y-67200D01*
X143683D01*
Y-69074D01*
X139068D01*
Y-67200D01*
X140496D01*
X143479Y-63987D01*
X140304Y-60659D01*
X139144D01*
Y-58772D01*
X144168D01*
Y-60659D01*
X143199D01*
X144920Y-62724D01*
X146756Y-60659D01*
X145863D01*
Y-58772D01*
X150198D01*
Y-60659D01*
D02*
G37*
G36*
X112854Y-56337D02*
X110967D01*
Y-66894D01*
X112662D01*
Y-69074D01*
X106950D01*
Y-66894D01*
X108417D01*
Y-59766D01*
X108327D01*
X103992Y-68028D01*
X102845D01*
X98280Y-59550D01*
X98191D01*
Y-66894D01*
X99747D01*
Y-69074D01*
X94098D01*
Y-66894D01*
X95794D01*
Y-56337D01*
X93920D01*
Y-54156D01*
X97962D01*
X103470Y-64331D01*
X103559D01*
X108786Y-54156D01*
X112854D01*
Y-56337D01*
D02*
G37*
G36*
X91752Y-66894D02*
X93206D01*
Y-69074D01*
X87481D01*
Y-66894D01*
X88998D01*
X88246Y-64854D01*
X82662D01*
X81858Y-66894D01*
X83541D01*
Y-69074D01*
X77893D01*
Y-66894D01*
X79270D01*
X83771Y-56337D01*
X81591D01*
Y-54156D01*
X86385D01*
X91752Y-66894D01*
D02*
G37*
G36*
X135867Y-66256D02*
X138175D01*
X137946Y-68373D01*
X135867D01*
Y-72057D01*
X133317D01*
Y-68373D01*
X126522D01*
X126241Y-66256D01*
X131112Y-57127D01*
X135867D01*
Y-66256D01*
D02*
G37*
G36*
X116432Y-82958D02*
X117516D01*
Y-84297D01*
X114683D01*
Y-82903D01*
X114665Y-82922D01*
X114647Y-82958D01*
X114619Y-83004D01*
X114592Y-83058D01*
X114547Y-83122D01*
X114446Y-83268D01*
X114310Y-83441D01*
X114146Y-83632D01*
X113954Y-83814D01*
X113736Y-83997D01*
X113727Y-84006D01*
X113708Y-84015D01*
X113672Y-84042D01*
X113626Y-84070D01*
X113563Y-84106D01*
X113490Y-84142D01*
X113408Y-84188D01*
X113308Y-84224D01*
X113198Y-84270D01*
X113071Y-84316D01*
X112943Y-84352D01*
X112797Y-84388D01*
X112643Y-84416D01*
X112479Y-84443D01*
X112305Y-84452D01*
X112123Y-84461D01*
X112059D01*
X111987Y-84452D01*
X111886Y-84443D01*
X111759Y-84434D01*
X111622Y-84407D01*
X111467Y-84379D01*
X111294Y-84334D01*
X111112Y-84288D01*
X110930Y-84224D01*
X110739Y-84142D01*
X110547Y-84042D01*
X110356Y-83933D01*
X110174Y-83805D01*
X109992Y-83650D01*
X109828Y-83477D01*
X109818Y-83468D01*
X109791Y-83432D01*
X109755Y-83377D01*
X109700Y-83295D01*
X109636Y-83195D01*
X109563Y-83077D01*
X109491Y-82931D01*
X109408Y-82767D01*
X109327Y-82585D01*
X109254Y-82384D01*
X109181Y-82165D01*
X109117Y-81920D01*
X109072Y-81665D01*
X109026Y-81382D01*
X108999Y-81081D01*
X108990Y-80772D01*
Y-80763D01*
Y-80753D01*
Y-80699D01*
X108999Y-80617D01*
Y-80507D01*
X109017Y-80371D01*
X109035Y-80216D01*
X109053Y-80034D01*
X109090Y-79833D01*
X109135Y-79624D01*
X109181Y-79405D01*
X109245Y-79177D01*
X109327Y-78941D01*
X109418Y-78704D01*
X109518Y-78467D01*
X109645Y-78230D01*
X109782Y-78002D01*
X109791Y-77984D01*
X109818Y-77948D01*
X109864Y-77893D01*
X109937Y-77811D01*
X110019Y-77720D01*
X110128Y-77620D01*
X110247Y-77510D01*
X110392Y-77392D01*
X110565Y-77283D01*
X110748Y-77173D01*
X110948Y-77073D01*
X111176Y-76982D01*
X111422Y-76900D01*
X111695Y-76845D01*
X111978Y-76800D01*
X112287Y-76791D01*
X112369D01*
X112433Y-76800D01*
X112506D01*
X112597Y-76809D01*
X112688Y-76818D01*
X112797Y-76836D01*
X113025Y-76873D01*
X113271Y-76936D01*
X113517Y-77027D01*
X113754Y-77146D01*
X113763D01*
X113781Y-77164D01*
X113809Y-77182D01*
X113854Y-77210D01*
X113963Y-77283D01*
X114100Y-77392D01*
X114246Y-77529D01*
X114401Y-77683D01*
X114547Y-77875D01*
X114683Y-78084D01*
Y-74367D01*
X113089D01*
Y-73019D01*
X116432D01*
Y-82958D01*
D02*
G37*
G36*
X160853Y-76800D02*
X160944Y-76809D01*
X161053Y-76827D01*
X161171Y-76845D01*
X161299Y-76873D01*
X161436Y-76900D01*
X161582Y-76946D01*
X161727Y-77000D01*
X161882Y-77055D01*
X162037Y-77137D01*
X162192Y-77219D01*
X162338Y-77319D01*
X162483Y-77428D01*
X162493Y-77437D01*
X162520Y-77456D01*
X162556Y-77492D01*
X162602Y-77547D01*
X162656Y-77620D01*
X162720Y-77702D01*
X162793Y-77802D01*
X162866Y-77920D01*
X162930Y-78048D01*
X163003Y-78194D01*
X163066Y-78357D01*
X163121Y-78540D01*
X163167Y-78740D01*
X163203Y-78950D01*
X163230Y-79186D01*
X163240Y-79432D01*
Y-82958D01*
X164342D01*
Y-84297D01*
X160406D01*
Y-82958D01*
X161481D01*
Y-80070D01*
Y-80061D01*
Y-80025D01*
Y-79970D01*
X161472Y-79897D01*
Y-79815D01*
X161463Y-79715D01*
X161454Y-79606D01*
X161436Y-79487D01*
X161390Y-79250D01*
X161326Y-79004D01*
X161281Y-78886D01*
X161235Y-78777D01*
X161171Y-78676D01*
X161108Y-78585D01*
Y-78576D01*
X161090Y-78567D01*
X161035Y-78512D01*
X160953Y-78449D01*
X160835Y-78367D01*
X160689Y-78285D01*
X160506Y-78212D01*
X160297Y-78166D01*
X160188Y-78157D01*
X160060Y-78148D01*
X159978D01*
X159924Y-78157D01*
X159851Y-78166D01*
X159769Y-78175D01*
X159678Y-78194D01*
X159577Y-78212D01*
X159368Y-78285D01*
X159258Y-78321D01*
X159149Y-78376D01*
X159040Y-78439D01*
X158931Y-78512D01*
X158830Y-78594D01*
X158739Y-78695D01*
X158730Y-78704D01*
X158721Y-78722D01*
X158694Y-78749D01*
X158666Y-78795D01*
X158630Y-78840D01*
X158584Y-78904D01*
X158539Y-78977D01*
X158493Y-79059D01*
X158448Y-79150D01*
X158402Y-79259D01*
X158320Y-79478D01*
X158265Y-79742D01*
X158247Y-79879D01*
X158238Y-80025D01*
Y-82958D01*
X159340D01*
Y-84297D01*
X155387D01*
Y-82958D01*
X156480D01*
Y-78303D01*
X155332D01*
Y-76936D01*
X158238D01*
Y-78139D01*
X158247Y-78121D01*
X158275Y-78084D01*
X158320Y-78011D01*
X158384Y-77929D01*
X158466Y-77829D01*
X158575Y-77711D01*
X158694Y-77592D01*
X158830Y-77465D01*
X158994Y-77337D01*
X159176Y-77219D01*
X159377Y-77100D01*
X159596Y-77000D01*
X159832Y-76918D01*
X160097Y-76845D01*
X160379Y-76809D01*
X160680Y-76791D01*
X160780D01*
X160853Y-76800D01*
D02*
G37*
G36*
X144400Y-76836D02*
X144464D01*
X144537Y-76845D01*
X144628Y-76863D01*
X144719Y-76882D01*
X144928Y-76927D01*
X145165Y-77000D01*
X145402Y-77100D01*
X145530Y-77164D01*
X145648Y-77237D01*
X145958Y-79533D01*
X144600Y-79697D01*
X144318Y-78430D01*
X144300Y-78421D01*
X144263Y-78403D01*
X144200Y-78376D01*
X144127Y-78348D01*
X144036Y-78321D01*
X143945Y-78294D01*
X143853Y-78276D01*
X143762Y-78266D01*
X143744D01*
X143690Y-78276D01*
X143598Y-78285D01*
X143489Y-78312D01*
X143371Y-78357D01*
X143234Y-78430D01*
X143097Y-78522D01*
X142970Y-78649D01*
X142952Y-78667D01*
X142915Y-78722D01*
X142860Y-78804D01*
X142806Y-78922D01*
X142742Y-79068D01*
X142687Y-79250D01*
X142651Y-79460D01*
X142633Y-79697D01*
Y-82958D01*
X144090D01*
Y-84297D01*
X139781D01*
Y-82958D01*
X140875D01*
Y-78303D01*
X139727D01*
Y-76936D01*
X142505D01*
Y-78303D01*
X142514Y-78285D01*
X142523Y-78248D01*
X142542Y-78212D01*
X142560Y-78157D01*
X142587Y-78093D01*
X142660Y-77948D01*
X142742Y-77784D01*
X142851Y-77610D01*
X142979Y-77428D01*
X143134Y-77264D01*
X143143Y-77255D01*
X143152Y-77246D01*
X143179Y-77228D01*
X143216Y-77192D01*
X143261Y-77164D01*
X143307Y-77128D01*
X143444Y-77046D01*
X143607Y-76964D01*
X143799Y-76891D01*
X144027Y-76845D01*
X144145Y-76836D01*
X144272Y-76827D01*
X144345D01*
X144400Y-76836D01*
D02*
G37*
G36*
X135481Y-76800D02*
X135591Y-76809D01*
X135709Y-76827D01*
X135846Y-76845D01*
X135992Y-76873D01*
X136155Y-76900D01*
X136319Y-76946D01*
X136483Y-76991D01*
X136656Y-77055D01*
X136820Y-77128D01*
X136994Y-77210D01*
X137148Y-77310D01*
X137303Y-77419D01*
X137312Y-77428D01*
X137340Y-77447D01*
X137376Y-77483D01*
X137431Y-77538D01*
X137486Y-77601D01*
X137558Y-77683D01*
X137631Y-77775D01*
X137704Y-77884D01*
X137777Y-78011D01*
X137850Y-78148D01*
X137923Y-78303D01*
X137978Y-78467D01*
X138032Y-78649D01*
X138069Y-78850D01*
X138096Y-79059D01*
X138105Y-79287D01*
Y-82594D01*
Y-82603D01*
Y-82621D01*
Y-82657D01*
X138114Y-82694D01*
X138132Y-82803D01*
X138169Y-82922D01*
X138233Y-83040D01*
X138278Y-83095D01*
X138333Y-83149D01*
X138397Y-83186D01*
X138469Y-83222D01*
X138551Y-83240D01*
X138643Y-83250D01*
X138697D01*
X138743Y-83240D01*
X138797Y-83231D01*
X138870Y-83222D01*
X138943Y-83204D01*
X139025Y-83186D01*
X139034Y-84152D01*
X139025D01*
X139007Y-84161D01*
X138980Y-84179D01*
X138943Y-84197D01*
X138889Y-84224D01*
X138834Y-84252D01*
X138688Y-84306D01*
X138515Y-84361D01*
X138315Y-84416D01*
X138096Y-84452D01*
X137859Y-84461D01*
X137795D01*
X137732Y-84452D01*
X137640Y-84434D01*
X137531Y-84416D01*
X137413Y-84388D01*
X137285Y-84343D01*
X137148Y-84279D01*
X137012Y-84197D01*
X136875Y-84106D01*
X136748Y-83987D01*
X136629Y-83842D01*
X136529Y-83678D01*
X136447Y-83486D01*
X136383Y-83259D01*
X136347Y-83004D01*
Y-82985D01*
X136329Y-83004D01*
X136310Y-83031D01*
X136283Y-83077D01*
X136256Y-83122D01*
X136210Y-83186D01*
X136110Y-83323D01*
X135973Y-83477D01*
X135818Y-83650D01*
X135627Y-83833D01*
X135418Y-84006D01*
X135408Y-84015D01*
X135390Y-84024D01*
X135354Y-84051D01*
X135308Y-84079D01*
X135254Y-84115D01*
X135181Y-84152D01*
X135099Y-84188D01*
X135008Y-84233D01*
X134907Y-84279D01*
X134798Y-84316D01*
X134680Y-84352D01*
X134543Y-84388D01*
X134261Y-84443D01*
X134106Y-84452D01*
X133942Y-84461D01*
X133869D01*
X133805Y-84452D01*
X133741Y-84443D01*
X133659Y-84434D01*
X133568Y-84425D01*
X133459Y-84407D01*
X133231Y-84352D01*
X132976Y-84261D01*
X132839Y-84215D01*
X132703Y-84152D01*
X132557Y-84079D01*
X132420Y-83997D01*
X132411Y-83987D01*
X132393Y-83978D01*
X132348Y-83942D01*
X132302Y-83906D01*
X132247Y-83851D01*
X132184Y-83787D01*
X132120Y-83714D01*
X132047Y-83614D01*
X131974Y-83514D01*
X131910Y-83395D01*
X131846Y-83259D01*
X131792Y-83113D01*
X131746Y-82949D01*
X131710Y-82767D01*
X131683Y-82576D01*
X131673Y-82366D01*
Y-82348D01*
Y-82302D01*
X131683Y-82238D01*
X131692Y-82147D01*
X131710Y-82038D01*
X131728Y-81910D01*
X131764Y-81774D01*
X131810Y-81628D01*
X131865Y-81482D01*
X131938Y-81327D01*
X132029Y-81182D01*
X132129Y-81036D01*
X132256Y-80899D01*
X132402Y-80772D01*
X132566Y-80662D01*
X132757Y-80571D01*
X132767Y-80562D01*
X132803Y-80553D01*
X132867Y-80535D01*
X132949Y-80498D01*
X133049Y-80471D01*
X133167Y-80435D01*
X133304Y-80389D01*
X133459Y-80353D01*
X133623Y-80307D01*
X133805Y-80271D01*
X133996Y-80234D01*
X134206Y-80198D01*
X134415Y-80170D01*
X134634Y-80152D01*
X134862Y-80143D01*
X135099Y-80134D01*
X135399D01*
X135509Y-80143D01*
X135746Y-80152D01*
X135800D01*
X135864Y-80161D01*
X135946D01*
X136037Y-80170D01*
X136137Y-80180D01*
X136347Y-80198D01*
Y-79788D01*
Y-79779D01*
Y-79760D01*
Y-79724D01*
Y-79678D01*
X136338Y-79624D01*
Y-79551D01*
X136319Y-79396D01*
X136292Y-79214D01*
X136247Y-79014D01*
X136192Y-78813D01*
X136119Y-78613D01*
Y-78604D01*
X136110Y-78585D01*
X136092Y-78567D01*
X136074Y-78531D01*
X136037Y-78494D01*
X136001Y-78449D01*
X135946Y-78394D01*
X135891Y-78348D01*
X135818Y-78303D01*
X135736Y-78248D01*
X135645Y-78203D01*
X135536Y-78166D01*
X135418Y-78130D01*
X135281Y-78102D01*
X135135Y-78093D01*
X134971Y-78084D01*
X134844D01*
X134762Y-78093D01*
X134661D01*
X134552Y-78102D01*
X134324Y-78139D01*
X134315D01*
X134270Y-78148D01*
X134215Y-78157D01*
X134142Y-78175D01*
X134051Y-78203D01*
X133951Y-78239D01*
X133851Y-78276D01*
X133741Y-78330D01*
X133450Y-79460D01*
X132038Y-79314D01*
X132348Y-77483D01*
X132357Y-77474D01*
X132384Y-77465D01*
X132430Y-77447D01*
X132484Y-77419D01*
X132557Y-77383D01*
X132639Y-77346D01*
X132730Y-77310D01*
X132839Y-77264D01*
X133067Y-77173D01*
X133313Y-77082D01*
X133559Y-77000D01*
X133805Y-76936D01*
X133814D01*
X133832Y-76927D01*
X133869Y-76918D01*
X133914Y-76909D01*
X133978Y-76900D01*
X134051Y-76891D01*
X134133Y-76873D01*
X134233Y-76863D01*
X134334Y-76845D01*
X134443Y-76836D01*
X134698Y-76809D01*
X134980Y-76800D01*
X135281Y-76791D01*
X135399D01*
X135481Y-76800D01*
D02*
G37*
G36*
X176230Y-78285D02*
X175429D01*
X172787Y-84297D01*
X171511D01*
X168724Y-78285D01*
X167904D01*
Y-76936D01*
X171511D01*
Y-78285D01*
X170609D01*
X172267Y-82020D01*
X172359D01*
X173743Y-78285D01*
X172923D01*
Y-76936D01*
X176230D01*
Y-78285D01*
D02*
G37*
G36*
X180849Y-75606D02*
X180977D01*
X181122Y-75625D01*
X181296Y-75643D01*
X181478Y-75661D01*
X181678Y-75697D01*
X181888Y-75734D01*
X182106Y-75788D01*
X182316Y-75852D01*
X182525Y-75925D01*
X182726Y-76016D01*
X182917Y-76126D01*
X183090Y-76244D01*
X183236Y-76381D01*
X183245Y-76390D01*
X183272Y-76417D01*
X183309Y-76463D01*
X183354Y-76517D01*
X183409Y-76590D01*
X183473Y-76681D01*
X183537Y-76781D01*
X183609Y-76891D01*
X183673Y-77009D01*
X183737Y-77146D01*
X183801Y-77283D01*
X183855Y-77437D01*
X183910Y-77592D01*
X183947Y-77756D01*
X183965Y-77929D01*
X183974Y-78102D01*
Y-78112D01*
Y-78148D01*
X183965Y-78212D01*
Y-78285D01*
X183947Y-78385D01*
X183937Y-78494D01*
X183910Y-78622D01*
X183874Y-78758D01*
X183837Y-78904D01*
X183783Y-79059D01*
X183719Y-79223D01*
X183646Y-79387D01*
X183555Y-79551D01*
X183455Y-79715D01*
X183336Y-79879D01*
X183200Y-80043D01*
X183190Y-80052D01*
X183163Y-80079D01*
X183117Y-80125D01*
X183063Y-80180D01*
X182990Y-80252D01*
X182899Y-80344D01*
X182799Y-80435D01*
X182680Y-80535D01*
X182544Y-80653D01*
X182407Y-80772D01*
X182252Y-80890D01*
X182088Y-81018D01*
X181906Y-81145D01*
X181724Y-81273D01*
X181523Y-81391D01*
X181323Y-81519D01*
X181314Y-81528D01*
X181277Y-81546D01*
X181213Y-81582D01*
X181131Y-81628D01*
X181031Y-81683D01*
X180922Y-81756D01*
X180785Y-81828D01*
X180640Y-81910D01*
X180485Y-82002D01*
X180312Y-82102D01*
X179956Y-82302D01*
X179574Y-82521D01*
X179182Y-82739D01*
X182954D01*
X183090Y-81646D01*
X184566Y-81774D01*
X184329Y-84297D01*
X177187D01*
X177023Y-82876D01*
X177032D01*
X177050Y-82858D01*
X177078Y-82840D01*
X177114Y-82812D01*
X177169Y-82785D01*
X177223Y-82739D01*
X177296Y-82694D01*
X177369Y-82648D01*
X177551Y-82530D01*
X177761Y-82393D01*
X177998Y-82238D01*
X178253Y-82065D01*
X178526Y-81883D01*
X178808Y-81692D01*
X179401Y-81291D01*
X180002Y-80881D01*
X180284Y-80681D01*
X180567Y-80489D01*
X180585Y-80480D01*
X180631Y-80444D01*
X180703Y-80389D01*
X180795Y-80307D01*
X180904Y-80216D01*
X181031Y-80107D01*
X181159Y-79979D01*
X181296Y-79833D01*
X181432Y-79688D01*
X181560Y-79514D01*
X181687Y-79341D01*
X181797Y-79159D01*
X181888Y-78968D01*
X181961Y-78768D01*
X182006Y-78567D01*
X182024Y-78367D01*
Y-78357D01*
Y-78339D01*
Y-78303D01*
X182015Y-78266D01*
X181997Y-78148D01*
X181970Y-78011D01*
X181915Y-77866D01*
X181833Y-77711D01*
X181778Y-77638D01*
X181724Y-77565D01*
X181651Y-77501D01*
X181569Y-77447D01*
X181560D01*
X181551Y-77437D01*
X181523Y-77419D01*
X181487Y-77401D01*
X181441Y-77383D01*
X181387Y-77355D01*
X181259Y-77301D01*
X181086Y-77246D01*
X180886Y-77201D01*
X180658Y-77164D01*
X180394Y-77155D01*
X180266D01*
X180175Y-77164D01*
X180066Y-77173D01*
X179938Y-77182D01*
X179792Y-77201D01*
X179638Y-77219D01*
X179619D01*
X179565Y-77228D01*
X179492Y-77246D01*
X179392Y-77273D01*
X179273Y-77301D01*
X179155Y-77337D01*
X179027Y-77392D01*
X178909Y-77447D01*
X178645Y-78658D01*
X177233Y-78512D01*
X177560Y-76262D01*
X177569D01*
X177597Y-76244D01*
X177642Y-76226D01*
X177697Y-76208D01*
X177770Y-76171D01*
X177861Y-76144D01*
X177961Y-76107D01*
X178071Y-76062D01*
X178189Y-76025D01*
X178317Y-75980D01*
X178590Y-75898D01*
X178891Y-75816D01*
X179200Y-75752D01*
X179209D01*
X179237Y-75743D01*
X179282Y-75734D01*
X179346Y-75725D01*
X179419Y-75716D01*
X179501Y-75706D01*
X179592Y-75688D01*
X179701Y-75670D01*
X179929Y-75643D01*
X180175Y-75625D01*
X180430Y-75606D01*
X180676Y-75597D01*
X180758D01*
X180849Y-75606D01*
D02*
G37*
G36*
X127282Y-73648D02*
X127410Y-73657D01*
X127556Y-73675D01*
X127720Y-73693D01*
X127893Y-73721D01*
X128084Y-73757D01*
X128275Y-73812D01*
X128467Y-73866D01*
X128667Y-73930D01*
X128858Y-74012D01*
X129050Y-74103D01*
X129232Y-74212D01*
X129396Y-74331D01*
X129405Y-74340D01*
X129432Y-74358D01*
X129478Y-74404D01*
X129533Y-74458D01*
X129596Y-74522D01*
X129669Y-74613D01*
X129751Y-74704D01*
X129833Y-74823D01*
X129906Y-74941D01*
X129988Y-75087D01*
X130061Y-75233D01*
X130125Y-75397D01*
X130179Y-75579D01*
X130225Y-75761D01*
X130252Y-75962D01*
X130261Y-76171D01*
Y-76180D01*
Y-76208D01*
Y-76253D01*
X130252Y-76308D01*
X130243Y-76381D01*
X130234Y-76463D01*
X130216Y-76563D01*
X130198Y-76663D01*
X130134Y-76891D01*
X130043Y-77137D01*
X129988Y-77264D01*
X129924Y-77383D01*
X129842Y-77510D01*
X129751Y-77629D01*
X129742Y-77638D01*
X129724Y-77656D01*
X129697Y-77683D01*
X129660Y-77729D01*
X129605Y-77775D01*
X129551Y-77829D01*
X129478Y-77893D01*
X129387Y-77957D01*
X129296Y-78030D01*
X129195Y-78093D01*
X129077Y-78157D01*
X128959Y-78221D01*
X128822Y-78276D01*
X128676Y-78330D01*
X128530Y-78376D01*
X128366Y-78412D01*
Y-78476D01*
X128375D01*
X128421Y-78485D01*
X128476Y-78494D01*
X128558Y-78512D01*
X128649Y-78540D01*
X128758Y-78576D01*
X128886Y-78613D01*
X129013Y-78658D01*
X129150Y-78713D01*
X129296Y-78777D01*
X129432Y-78859D01*
X129578Y-78941D01*
X129715Y-79041D01*
X129851Y-79141D01*
X129979Y-79259D01*
X130088Y-79396D01*
X130097Y-79405D01*
X130116Y-79432D01*
X130143Y-79469D01*
X130179Y-79524D01*
X130225Y-79597D01*
X130270Y-79688D01*
X130325Y-79788D01*
X130380Y-79897D01*
X130425Y-80016D01*
X130480Y-80152D01*
X130526Y-80307D01*
X130571Y-80462D01*
X130607Y-80626D01*
X130635Y-80808D01*
X130653Y-80990D01*
X130662Y-81182D01*
Y-81200D01*
Y-81236D01*
X130653Y-81309D01*
Y-81400D01*
X130635Y-81510D01*
X130617Y-81637D01*
X130589Y-81783D01*
X130553Y-81938D01*
X130507Y-82111D01*
X130444Y-82284D01*
X130380Y-82466D01*
X130289Y-82657D01*
X130188Y-82840D01*
X130070Y-83031D01*
X129933Y-83213D01*
X129779Y-83386D01*
X129769Y-83395D01*
X129742Y-83423D01*
X129687Y-83468D01*
X129614Y-83532D01*
X129523Y-83596D01*
X129405Y-83678D01*
X129268Y-83760D01*
X129113Y-83842D01*
X128940Y-83924D01*
X128740Y-84006D01*
X128521Y-84088D01*
X128284Y-84152D01*
X128020Y-84215D01*
X127738Y-84261D01*
X127428Y-84288D01*
X127100Y-84297D01*
X121725D01*
Y-82739D01*
X122955D01*
Y-75196D01*
X121725D01*
Y-73639D01*
X127182D01*
X127282Y-73648D01*
D02*
G37*
G36*
X95953D02*
X96090D01*
X96254Y-73666D01*
X96445Y-73684D01*
X96654Y-73711D01*
X96882Y-73739D01*
X97119Y-73784D01*
X97356Y-73839D01*
X97611Y-73912D01*
X97857Y-73985D01*
X98094Y-74085D01*
X98322Y-74194D01*
X98540Y-74322D01*
X98732Y-74468D01*
X98741Y-74477D01*
X98777Y-74504D01*
X98823Y-74550D01*
X98887Y-74622D01*
X98959Y-74704D01*
X99041Y-74805D01*
X99132Y-74932D01*
X99224Y-75069D01*
X99315Y-75224D01*
X99406Y-75397D01*
X99488Y-75588D01*
X99561Y-75798D01*
X99624Y-76025D01*
X99670Y-76262D01*
X99706Y-76517D01*
X99716Y-76791D01*
Y-76800D01*
Y-76836D01*
Y-76891D01*
X99706Y-76973D01*
X99697Y-77064D01*
X99688Y-77164D01*
X99670Y-77292D01*
X99643Y-77419D01*
X99579Y-77702D01*
X99533Y-77856D01*
X99470Y-78011D01*
X99406Y-78166D01*
X99333Y-78321D01*
X99242Y-78476D01*
X99142Y-78622D01*
X99132Y-78631D01*
X99114Y-78658D01*
X99087Y-78695D01*
X99041Y-78740D01*
X98978Y-78804D01*
X98914Y-78877D01*
X98832Y-78959D01*
X98732Y-79041D01*
X98631Y-79132D01*
X98513Y-79214D01*
X98385Y-79305D01*
X98249Y-79396D01*
X98094Y-79487D01*
X97939Y-79569D01*
X97766Y-79642D01*
X97584Y-79706D01*
X99205Y-82739D01*
X100517D01*
Y-84297D01*
X98021D01*
X95825Y-80088D01*
X94067D01*
Y-82739D01*
X95315D01*
Y-84297D01*
X91025D01*
Y-82739D01*
X92254D01*
Y-75196D01*
X91025D01*
Y-73639D01*
X95898D01*
X95953Y-73648D01*
D02*
G37*
G36*
X150850Y-76781D02*
X150977Y-76791D01*
X151141Y-76809D01*
X151324Y-76836D01*
X151524Y-76873D01*
X151743Y-76918D01*
X151970Y-76973D01*
X152207Y-77055D01*
X152444Y-77146D01*
X152681Y-77255D01*
X152909Y-77392D01*
X153137Y-77538D01*
X153337Y-77720D01*
X153528Y-77920D01*
X153537Y-77929D01*
X153574Y-77975D01*
X153619Y-78039D01*
X153674Y-78121D01*
X153747Y-78230D01*
X153829Y-78367D01*
X153920Y-78522D01*
X154011Y-78685D01*
X154093Y-78877D01*
X154184Y-79086D01*
X154266Y-79305D01*
X154339Y-79542D01*
X154394Y-79797D01*
X154448Y-80061D01*
X154476Y-80334D01*
X154485Y-80626D01*
Y-80635D01*
Y-80644D01*
Y-80672D01*
Y-80699D01*
X154476Y-80790D01*
X154467Y-80908D01*
X154448Y-81054D01*
X154430Y-81227D01*
X154394Y-81419D01*
X154348Y-81619D01*
X154294Y-81838D01*
X154221Y-82056D01*
X154130Y-82293D01*
X154020Y-82521D01*
X153902Y-82758D01*
X153756Y-82985D01*
X153583Y-83195D01*
X153392Y-83404D01*
X153383Y-83414D01*
X153346Y-83450D01*
X153282Y-83505D01*
X153191Y-83569D01*
X153091Y-83650D01*
X152954Y-83741D01*
X152809Y-83833D01*
X152636Y-83933D01*
X152435Y-84033D01*
X152225Y-84124D01*
X151998Y-84215D01*
X151743Y-84297D01*
X151479Y-84361D01*
X151187Y-84416D01*
X150886Y-84452D01*
X150567Y-84461D01*
X150495D01*
X150403Y-84452D01*
X150285Y-84443D01*
X150139Y-84434D01*
X149975Y-84407D01*
X149793Y-84379D01*
X149593Y-84334D01*
X149383Y-84279D01*
X149155Y-84215D01*
X148928Y-84133D01*
X148700Y-84033D01*
X148481Y-83915D01*
X148254Y-83787D01*
X148044Y-83632D01*
X147844Y-83450D01*
X147835Y-83441D01*
X147798Y-83404D01*
X147752Y-83341D01*
X147689Y-83259D01*
X147607Y-83158D01*
X147525Y-83031D01*
X147424Y-82885D01*
X147333Y-82721D01*
X147242Y-82539D01*
X147142Y-82329D01*
X147060Y-82102D01*
X146987Y-81856D01*
X146914Y-81592D01*
X146869Y-81309D01*
X146832Y-81009D01*
X146823Y-80690D01*
Y-80681D01*
Y-80672D01*
Y-80617D01*
X146832Y-80535D01*
X146842Y-80416D01*
X146851Y-80280D01*
X146878Y-80125D01*
X146905Y-79943D01*
X146942Y-79742D01*
X146996Y-79533D01*
X147060Y-79314D01*
X147133Y-79086D01*
X147233Y-78850D01*
X147343Y-78613D01*
X147470Y-78376D01*
X147616Y-78148D01*
X147789Y-77929D01*
X147798Y-77920D01*
X147835Y-77884D01*
X147889Y-77820D01*
X147971Y-77747D01*
X148071Y-77665D01*
X148199Y-77565D01*
X148345Y-77456D01*
X148518Y-77346D01*
X148709Y-77246D01*
X148919Y-77137D01*
X149155Y-77037D01*
X149410Y-76955D01*
X149693Y-76882D01*
X149994Y-76818D01*
X150321Y-76781D01*
X150668Y-76772D01*
X150750D01*
X150850Y-76781D01*
D02*
G37*
G36*
X104863Y-76800D02*
X104972Y-76809D01*
X105099Y-76818D01*
X105245Y-76836D01*
X105409Y-76863D01*
X105591Y-76900D01*
X105783Y-76955D01*
X105974Y-77009D01*
X106175Y-77082D01*
X106375Y-77173D01*
X106575Y-77283D01*
X106776Y-77401D01*
X106958Y-77538D01*
X107131Y-77702D01*
X107140Y-77711D01*
X107167Y-77747D01*
X107213Y-77793D01*
X107268Y-77866D01*
X107341Y-77957D01*
X107413Y-78066D01*
X107495Y-78184D01*
X107577Y-78330D01*
X107668Y-78494D01*
X107750Y-78667D01*
X107823Y-78850D01*
X107896Y-79059D01*
X107951Y-79278D01*
X107996Y-79505D01*
X108033Y-79751D01*
X108042Y-80006D01*
Y-80016D01*
Y-80025D01*
Y-80052D01*
Y-80088D01*
X108033Y-80180D01*
Y-80298D01*
X108015Y-80444D01*
X107996Y-80617D01*
X107978Y-80799D01*
X107942Y-80990D01*
X102977D01*
Y-80999D01*
Y-81018D01*
X102986Y-81045D01*
Y-81081D01*
X103004Y-81182D01*
X103032Y-81309D01*
X103068Y-81473D01*
X103123Y-81646D01*
X103186Y-81828D01*
X103278Y-82020D01*
X103387Y-82220D01*
X103524Y-82402D01*
X103678Y-82576D01*
X103870Y-82730D01*
X104088Y-82867D01*
X104334Y-82967D01*
X104471Y-83004D01*
X104626Y-83031D01*
X104781Y-83049D01*
X104945Y-83058D01*
X105027D01*
X105081Y-83049D01*
X105154D01*
X105236Y-83040D01*
X105418Y-83004D01*
X105610Y-82958D01*
X105810Y-82885D01*
X106001Y-82785D01*
X106083Y-82721D01*
X106156Y-82648D01*
Y-82639D01*
X106175Y-82630D01*
X106220Y-82576D01*
X106284Y-82494D01*
X106357Y-82384D01*
X106439Y-82257D01*
X106521Y-82102D01*
X106594Y-81947D01*
X106648Y-81774D01*
X108106Y-82056D01*
Y-82065D01*
X108097Y-82102D01*
X108088Y-82147D01*
X108079Y-82220D01*
X108060Y-82302D01*
X108033Y-82402D01*
X107996Y-82512D01*
X107951Y-82630D01*
X107896Y-82758D01*
X107833Y-82894D01*
X107750Y-83031D01*
X107659Y-83177D01*
X107559Y-83323D01*
X107441Y-83459D01*
X107304Y-83605D01*
X107149Y-83741D01*
X107140Y-83751D01*
X107113Y-83769D01*
X107058Y-83805D01*
X106994Y-83851D01*
X106903Y-83906D01*
X106803Y-83969D01*
X106676Y-84033D01*
X106539Y-84097D01*
X106384Y-84170D01*
X106202Y-84233D01*
X106010Y-84297D01*
X105801Y-84352D01*
X105582Y-84398D01*
X105336Y-84434D01*
X105081Y-84452D01*
X104808Y-84461D01*
X104735D01*
X104653Y-84452D01*
X104544Y-84443D01*
X104407Y-84434D01*
X104243Y-84416D01*
X104070Y-84379D01*
X103879Y-84343D01*
X103669Y-84297D01*
X103460Y-84233D01*
X103241Y-84152D01*
X103013Y-84070D01*
X102795Y-83960D01*
X102576Y-83833D01*
X102366Y-83687D01*
X102166Y-83523D01*
X102157Y-83514D01*
X102120Y-83477D01*
X102075Y-83423D01*
X102002Y-83350D01*
X101929Y-83250D01*
X101838Y-83122D01*
X101747Y-82985D01*
X101656Y-82821D01*
X101556Y-82630D01*
X101465Y-82430D01*
X101374Y-82202D01*
X101301Y-81947D01*
X101228Y-81683D01*
X101182Y-81391D01*
X101146Y-81081D01*
X101137Y-80744D01*
Y-80735D01*
Y-80726D01*
Y-80672D01*
X101146Y-80580D01*
X101155Y-80462D01*
X101164Y-80316D01*
X101182Y-80152D01*
X101219Y-79961D01*
X101255Y-79751D01*
X101301Y-79542D01*
X101364Y-79314D01*
X101446Y-79077D01*
X101528Y-78840D01*
X101638Y-78604D01*
X101765Y-78367D01*
X101911Y-78139D01*
X102075Y-77920D01*
X102084Y-77911D01*
X102120Y-77875D01*
X102175Y-77820D01*
X102248Y-77747D01*
X102348Y-77656D01*
X102467Y-77565D01*
X102603Y-77465D01*
X102758Y-77355D01*
X102940Y-77246D01*
X103141Y-77146D01*
X103350Y-77055D01*
X103587Y-76964D01*
X103842Y-76891D01*
X104116Y-76836D01*
X104407Y-76800D01*
X104717Y-76791D01*
X104781D01*
X104863Y-76800D01*
D02*
G37*
%LPC*%
G36*
X79122Y-117113D02*
X79085D01*
X79060Y-117116D01*
X79027Y-117120D01*
X78991Y-117127D01*
X78951Y-117135D01*
X78907Y-117149D01*
X78860Y-117164D01*
X78812Y-117182D01*
X78765Y-117204D01*
X78714Y-117229D01*
X78667Y-117262D01*
X78619Y-117302D01*
X78576Y-117342D01*
X78532Y-117393D01*
X78528Y-117397D01*
X78521Y-117408D01*
X78514Y-117422D01*
X78499Y-117444D01*
X78481Y-117473D01*
X78463Y-117510D01*
X78445Y-117550D01*
X78426Y-117593D01*
X78405Y-117648D01*
X78386Y-117706D01*
X78368Y-117768D01*
X78350Y-117837D01*
X78335Y-117914D01*
X78328Y-117994D01*
X78321Y-118078D01*
X78317Y-118168D01*
Y-118172D01*
Y-118187D01*
Y-118212D01*
X78321Y-118241D01*
X78325Y-118281D01*
X78328Y-118325D01*
X78335Y-118372D01*
X78343Y-118427D01*
X78368Y-118540D01*
X78405Y-118660D01*
X78426Y-118718D01*
X78456Y-118776D01*
X78485Y-118831D01*
X78521Y-118882D01*
X78525Y-118886D01*
X78532Y-118893D01*
X78543Y-118907D01*
X78557Y-118922D01*
X78579Y-118940D01*
X78605Y-118962D01*
X78634Y-118988D01*
X78670Y-119009D01*
X78707Y-119035D01*
X78747Y-119060D01*
X78794Y-119082D01*
X78845Y-119100D01*
X78896Y-119115D01*
X78954Y-119129D01*
X79013Y-119137D01*
X79078Y-119140D01*
X79111D01*
X79136Y-119137D01*
X79165Y-119133D01*
X79198Y-119126D01*
X79238Y-119118D01*
X79278Y-119108D01*
X79322Y-119097D01*
X79365Y-119079D01*
X79413Y-119060D01*
X79460Y-119035D01*
X79504Y-119006D01*
X79551Y-118973D01*
X79595Y-118933D01*
X79635Y-118889D01*
X79638Y-118886D01*
X79646Y-118878D01*
X79653Y-118864D01*
X79668Y-118845D01*
X79686Y-118820D01*
X79704Y-118791D01*
X79722Y-118754D01*
X79744Y-118714D01*
X79762Y-118671D01*
X79781Y-118623D01*
X79799Y-118572D01*
X79817Y-118514D01*
X79831Y-118452D01*
X79839Y-118391D01*
X79846Y-118321D01*
X79850Y-118252D01*
Y-117866D01*
Y-117863D01*
Y-117852D01*
Y-117837D01*
X79846Y-117815D01*
X79842Y-117786D01*
X79839Y-117757D01*
X79831Y-117721D01*
X79824Y-117681D01*
X79799Y-117601D01*
X79784Y-117553D01*
X79762Y-117510D01*
X79737Y-117466D01*
X79711Y-117419D01*
X79679Y-117375D01*
X79642Y-117335D01*
X79638Y-117331D01*
X79631Y-117324D01*
X79620Y-117313D01*
X79606Y-117298D01*
X79584Y-117284D01*
X79562Y-117266D01*
X79533Y-117244D01*
X79500Y-117222D01*
X79464Y-117204D01*
X79427Y-117182D01*
X79336Y-117146D01*
X79289Y-117135D01*
X79234Y-117124D01*
X79180Y-117116D01*
X79122Y-117113D01*
D02*
G37*
G36*
X72577D02*
X72540D01*
X72519Y-117116D01*
X72486Y-117120D01*
X72453Y-117127D01*
X72413Y-117135D01*
X72369Y-117146D01*
X72326Y-117157D01*
X72278Y-117175D01*
X72228Y-117197D01*
X72180Y-117218D01*
X72133Y-117251D01*
X72085Y-117284D01*
X72042Y-117324D01*
X71998Y-117368D01*
X71995Y-117371D01*
X71987Y-117379D01*
X71980Y-117393D01*
X71965Y-117415D01*
X71947Y-117437D01*
X71929Y-117470D01*
X71911Y-117502D01*
X71893Y-117542D01*
X71871Y-117586D01*
X71853Y-117633D01*
X71834Y-117688D01*
X71816Y-117743D01*
X71802Y-117805D01*
X71794Y-117866D01*
X71787Y-117936D01*
X71783Y-118005D01*
Y-118369D01*
Y-118372D01*
Y-118383D01*
Y-118401D01*
X71787Y-118423D01*
X71791Y-118452D01*
X71794Y-118482D01*
X71802Y-118518D01*
X71809Y-118558D01*
X71834Y-118645D01*
X71871Y-118736D01*
X71893Y-118784D01*
X71922Y-118831D01*
X71951Y-118875D01*
X71987Y-118918D01*
X71991Y-118922D01*
X71998Y-118929D01*
X72009Y-118940D01*
X72024Y-118951D01*
X72045Y-118969D01*
X72071Y-118988D01*
X72100Y-119009D01*
X72129Y-119027D01*
X72166Y-119049D01*
X72206Y-119071D01*
X72297Y-119104D01*
X72344Y-119118D01*
X72399Y-119129D01*
X72453Y-119137D01*
X72511Y-119140D01*
X72530D01*
X72548Y-119137D01*
X72573D01*
X72606Y-119133D01*
X72642Y-119126D01*
X72682Y-119115D01*
X72726Y-119104D01*
X72770Y-119089D01*
X72821Y-119071D01*
X72868Y-119046D01*
X72916Y-119020D01*
X72966Y-118988D01*
X73010Y-118947D01*
X73057Y-118904D01*
X73097Y-118853D01*
X73101Y-118849D01*
X73108Y-118838D01*
X73116Y-118824D01*
X73130Y-118798D01*
X73145Y-118769D01*
X73163Y-118733D01*
X73185Y-118693D01*
X73203Y-118642D01*
X73221Y-118587D01*
X73243Y-118529D01*
X73261Y-118460D01*
X73276Y-118391D01*
X73290Y-118310D01*
X73301Y-118227D01*
X73305Y-118139D01*
X73309Y-118045D01*
Y-118041D01*
Y-118026D01*
Y-118001D01*
X73305Y-117972D01*
X73301Y-117936D01*
X73298Y-117892D01*
X73290Y-117844D01*
X73283Y-117794D01*
X73261Y-117684D01*
X73225Y-117571D01*
X73203Y-117517D01*
X73174Y-117462D01*
X73145Y-117408D01*
X73108Y-117360D01*
X73105Y-117357D01*
X73101Y-117350D01*
X73087Y-117339D01*
X73072Y-117320D01*
X73054Y-117302D01*
X73028Y-117280D01*
X72999Y-117259D01*
X72970Y-117237D01*
X72934Y-117215D01*
X72894Y-117189D01*
X72850Y-117171D01*
X72803Y-117153D01*
X72752Y-117135D01*
X72697Y-117124D01*
X72639Y-117116D01*
X72577Y-117113D01*
D02*
G37*
G36*
X53856Y-116046D02*
X53281D01*
Y-119024D01*
X53860D01*
X53896Y-119020D01*
X53947Y-119017D01*
X54009Y-119013D01*
X54079Y-119002D01*
X54155Y-118991D01*
X54239Y-118973D01*
X54330Y-118955D01*
X54421Y-118926D01*
X54515Y-118896D01*
X54610Y-118856D01*
X54701Y-118813D01*
X54792Y-118758D01*
X54876Y-118696D01*
X54956Y-118627D01*
X54959Y-118623D01*
X54974Y-118609D01*
X54992Y-118587D01*
X55018Y-118554D01*
X55050Y-118514D01*
X55083Y-118463D01*
X55120Y-118405D01*
X55159Y-118336D01*
X55196Y-118263D01*
X55232Y-118179D01*
X55265Y-118085D01*
X55298Y-117987D01*
X55323Y-117877D01*
X55342Y-117761D01*
X55356Y-117633D01*
X55360Y-117502D01*
Y-117499D01*
Y-117484D01*
Y-117466D01*
X55356Y-117440D01*
X55352Y-117408D01*
X55349Y-117368D01*
X55345Y-117324D01*
X55338Y-117273D01*
X55327Y-117222D01*
X55312Y-117164D01*
X55280Y-117040D01*
X55258Y-116978D01*
X55232Y-116909D01*
X55203Y-116843D01*
X55171Y-116774D01*
X55134Y-116705D01*
X55094Y-116640D01*
X55047Y-116570D01*
X54992Y-116509D01*
X54934Y-116443D01*
X54872Y-116385D01*
X54803Y-116327D01*
X54726Y-116272D01*
X54643Y-116225D01*
X54555Y-116181D01*
X54457Y-116141D01*
X54352Y-116108D01*
X54242Y-116083D01*
X54122Y-116061D01*
X53995Y-116050D01*
X53856Y-116046D01*
D02*
G37*
G36*
X84469Y-117113D02*
X84432D01*
X84411Y-117116D01*
X84378Y-117120D01*
X84345Y-117127D01*
X84305Y-117135D01*
X84261Y-117146D01*
X84218Y-117157D01*
X84170Y-117175D01*
X84119Y-117197D01*
X84072Y-117218D01*
X84025Y-117251D01*
X83977Y-117284D01*
X83934Y-117324D01*
X83890Y-117368D01*
X83886Y-117371D01*
X83879Y-117379D01*
X83872Y-117393D01*
X83857Y-117415D01*
X83839Y-117437D01*
X83821Y-117470D01*
X83803Y-117502D01*
X83785Y-117542D01*
X83763Y-117586D01*
X83745Y-117633D01*
X83726Y-117688D01*
X83708Y-117743D01*
X83693Y-117805D01*
X83686Y-117866D01*
X83679Y-117936D01*
X83675Y-118005D01*
Y-118369D01*
Y-118372D01*
Y-118383D01*
Y-118401D01*
X83679Y-118423D01*
X83683Y-118452D01*
X83686Y-118482D01*
X83693Y-118518D01*
X83701Y-118558D01*
X83726Y-118645D01*
X83763Y-118736D01*
X83785Y-118784D01*
X83814Y-118831D01*
X83843Y-118875D01*
X83879Y-118918D01*
X83883Y-118922D01*
X83890Y-118929D01*
X83901Y-118940D01*
X83916Y-118951D01*
X83937Y-118969D01*
X83963Y-118988D01*
X83992Y-119009D01*
X84021Y-119027D01*
X84057Y-119049D01*
X84097Y-119071D01*
X84188Y-119104D01*
X84236Y-119118D01*
X84290Y-119129D01*
X84345Y-119137D01*
X84403Y-119140D01*
X84421D01*
X84440Y-119137D01*
X84465D01*
X84498Y-119133D01*
X84534Y-119126D01*
X84574Y-119115D01*
X84618Y-119104D01*
X84662Y-119089D01*
X84713Y-119071D01*
X84760Y-119046D01*
X84807Y-119020D01*
X84858Y-118988D01*
X84902Y-118947D01*
X84949Y-118904D01*
X84989Y-118853D01*
X84993Y-118849D01*
X85000Y-118838D01*
X85008Y-118824D01*
X85022Y-118798D01*
X85037Y-118769D01*
X85055Y-118733D01*
X85077Y-118693D01*
X85095Y-118642D01*
X85113Y-118587D01*
X85135Y-118529D01*
X85153Y-118460D01*
X85168Y-118391D01*
X85182Y-118310D01*
X85193Y-118227D01*
X85197Y-118139D01*
X85201Y-118045D01*
Y-118041D01*
Y-118026D01*
Y-118001D01*
X85197Y-117972D01*
X85193Y-117936D01*
X85189Y-117892D01*
X85182Y-117844D01*
X85175Y-117794D01*
X85153Y-117684D01*
X85117Y-117571D01*
X85095Y-117517D01*
X85066Y-117462D01*
X85037Y-117408D01*
X85000Y-117360D01*
X84997Y-117357D01*
X84993Y-117350D01*
X84978Y-117339D01*
X84964Y-117320D01*
X84946Y-117302D01*
X84920Y-117280D01*
X84891Y-117259D01*
X84862Y-117237D01*
X84825Y-117215D01*
X84785Y-117189D01*
X84742Y-117171D01*
X84694Y-117153D01*
X84644Y-117135D01*
X84589Y-117124D01*
X84531Y-117116D01*
X84469Y-117113D01*
D02*
G37*
G36*
X75904Y-117073D02*
X75875D01*
X75857Y-117077D01*
X75831Y-117080D01*
X75802Y-117084D01*
X75736Y-117098D01*
X75660Y-117124D01*
X75616Y-117142D01*
X75576Y-117160D01*
X75536Y-117186D01*
X75496Y-117215D01*
X75456Y-117248D01*
X75416Y-117284D01*
X75412Y-117288D01*
X75409Y-117295D01*
X75398Y-117306D01*
X75383Y-117320D01*
X75369Y-117342D01*
X75351Y-117368D01*
X75332Y-117397D01*
X75311Y-117433D01*
X75289Y-117470D01*
X75267Y-117510D01*
X75249Y-117557D01*
X75227Y-117604D01*
X75194Y-117713D01*
X75169Y-117834D01*
X76537D01*
Y-117830D01*
Y-117819D01*
Y-117801D01*
X76534Y-117775D01*
X76530Y-117746D01*
X76526Y-117710D01*
X76523Y-117673D01*
X76515Y-117630D01*
X76494Y-117542D01*
X76464Y-117448D01*
X76421Y-117357D01*
X76395Y-117317D01*
X76366Y-117277D01*
X76363Y-117273D01*
X76359Y-117269D01*
X76348Y-117259D01*
X76337Y-117244D01*
X76319Y-117229D01*
X76297Y-117211D01*
X76246Y-117175D01*
X76180Y-117138D01*
X76100Y-117106D01*
X76010Y-117080D01*
X75959Y-117077D01*
X75904Y-117073D01*
D02*
G37*
G36*
X68930Y-117113D02*
X68893D01*
X68864Y-117116D01*
X68831Y-117120D01*
X68795Y-117127D01*
X68751Y-117135D01*
X68704Y-117146D01*
X68657Y-117160D01*
X68606Y-117182D01*
X68555Y-117204D01*
X68500Y-117229D01*
X68449Y-117262D01*
X68398Y-117298D01*
X68351Y-117342D01*
X68307Y-117390D01*
X68304Y-117393D01*
X68296Y-117400D01*
X68285Y-117419D01*
X68271Y-117440D01*
X68256Y-117466D01*
X68234Y-117502D01*
X68216Y-117542D01*
X68194Y-117586D01*
X68173Y-117637D01*
X68154Y-117692D01*
X68133Y-117754D01*
X68118Y-117823D01*
X68103Y-117895D01*
X68093Y-117972D01*
X68085Y-118056D01*
X68081Y-118143D01*
Y-118147D01*
Y-118165D01*
Y-118187D01*
X68085Y-118219D01*
X68089Y-118260D01*
X68093Y-118303D01*
X68100Y-118354D01*
X68111Y-118409D01*
X68136Y-118525D01*
X68158Y-118587D01*
X68180Y-118649D01*
X68205Y-118707D01*
X68234Y-118765D01*
X68271Y-118824D01*
X68311Y-118875D01*
X68314Y-118878D01*
X68322Y-118886D01*
X68336Y-118900D01*
X68354Y-118915D01*
X68376Y-118937D01*
X68405Y-118958D01*
X68438Y-118984D01*
X68475Y-119006D01*
X68518Y-119031D01*
X68566Y-119057D01*
X68617Y-119079D01*
X68671Y-119100D01*
X68730Y-119115D01*
X68791Y-119129D01*
X68861Y-119137D01*
X68930Y-119140D01*
X68948D01*
X68966Y-119137D01*
X68995D01*
X69028Y-119133D01*
X69068Y-119126D01*
X69108Y-119118D01*
X69155Y-119108D01*
X69203Y-119093D01*
X69254Y-119075D01*
X69305Y-119057D01*
X69352Y-119031D01*
X69403Y-118998D01*
X69450Y-118966D01*
X69498Y-118926D01*
X69538Y-118878D01*
X69541Y-118875D01*
X69548Y-118867D01*
X69556Y-118849D01*
X69570Y-118831D01*
X69585Y-118802D01*
X69603Y-118769D01*
X69625Y-118733D01*
X69643Y-118685D01*
X69661Y-118638D01*
X69683Y-118580D01*
X69701Y-118518D01*
X69716Y-118452D01*
X69731Y-118380D01*
X69741Y-118303D01*
X69745Y-118219D01*
X69749Y-118132D01*
Y-118125D01*
Y-118110D01*
Y-118085D01*
X69745Y-118052D01*
X69741Y-118012D01*
X69738Y-117965D01*
X69731Y-117910D01*
X69723Y-117855D01*
X69698Y-117735D01*
X69679Y-117670D01*
X69661Y-117608D01*
X69636Y-117546D01*
X69607Y-117488D01*
X69574Y-117430D01*
X69538Y-117379D01*
X69534Y-117375D01*
X69527Y-117368D01*
X69516Y-117353D01*
X69498Y-117339D01*
X69476Y-117317D01*
X69450Y-117295D01*
X69417Y-117269D01*
X69381Y-117244D01*
X69341Y-117222D01*
X69297Y-117197D01*
X69246Y-117175D01*
X69192Y-117153D01*
X69134Y-117138D01*
X69072Y-117124D01*
X69002Y-117116D01*
X68930Y-117113D01*
D02*
G37*
G36*
X64125Y-117073D02*
X64096D01*
X64078Y-117077D01*
X64052Y-117080D01*
X64023Y-117084D01*
X63957Y-117098D01*
X63881Y-117124D01*
X63837Y-117142D01*
X63797Y-117160D01*
X63757Y-117186D01*
X63717Y-117215D01*
X63677Y-117248D01*
X63637Y-117284D01*
X63634Y-117288D01*
X63630Y-117295D01*
X63619Y-117306D01*
X63604Y-117320D01*
X63590Y-117342D01*
X63572Y-117368D01*
X63553Y-117397D01*
X63532Y-117433D01*
X63510Y-117470D01*
X63488Y-117510D01*
X63470Y-117557D01*
X63448Y-117604D01*
X63415Y-117713D01*
X63390Y-117834D01*
X64758D01*
Y-117830D01*
Y-117819D01*
Y-117801D01*
X64755Y-117775D01*
X64751Y-117746D01*
X64747Y-117710D01*
X64744Y-117673D01*
X64736Y-117630D01*
X64714Y-117542D01*
X64685Y-117448D01*
X64642Y-117357D01*
X64616Y-117317D01*
X64587Y-117277D01*
X64583Y-117273D01*
X64580Y-117269D01*
X64569Y-117259D01*
X64558Y-117244D01*
X64540Y-117229D01*
X64518Y-117211D01*
X64467Y-117175D01*
X64402Y-117138D01*
X64321Y-117106D01*
X64230Y-117080D01*
X64179Y-117077D01*
X64125Y-117073D01*
D02*
G37*
G36*
X57984D02*
X57955D01*
X57937Y-117077D01*
X57911Y-117080D01*
X57882Y-117084D01*
X57817Y-117098D01*
X57740Y-117124D01*
X57697Y-117142D01*
X57657Y-117160D01*
X57617Y-117186D01*
X57577Y-117215D01*
X57537Y-117248D01*
X57496Y-117284D01*
X57493Y-117288D01*
X57489Y-117295D01*
X57478Y-117306D01*
X57464Y-117320D01*
X57449Y-117342D01*
X57431Y-117368D01*
X57413Y-117397D01*
X57391Y-117433D01*
X57369Y-117470D01*
X57347Y-117510D01*
X57329Y-117557D01*
X57307Y-117604D01*
X57274Y-117713D01*
X57249Y-117834D01*
X58618D01*
Y-117830D01*
Y-117819D01*
Y-117801D01*
X58614Y-117775D01*
X58610Y-117746D01*
X58607Y-117710D01*
X58603Y-117673D01*
X58596Y-117630D01*
X58574Y-117542D01*
X58545Y-117448D01*
X58501Y-117357D01*
X58476Y-117317D01*
X58447Y-117277D01*
X58443Y-117273D01*
X58439Y-117269D01*
X58428Y-117259D01*
X58417Y-117244D01*
X58399Y-117229D01*
X58377Y-117211D01*
X58326Y-117175D01*
X58261Y-117138D01*
X58181Y-117106D01*
X58090Y-117080D01*
X58039Y-117077D01*
X57984Y-117073D01*
D02*
G37*
G36*
X120551Y-127924D02*
X120478D01*
X120427Y-127931D01*
X120362Y-127938D01*
X120289Y-127953D01*
X120209Y-127968D01*
X120121Y-127997D01*
X120026Y-128026D01*
X119931Y-128062D01*
X119837Y-128106D01*
X119735Y-128157D01*
X119640Y-128223D01*
X119545Y-128303D01*
X119458Y-128383D01*
X119370Y-128485D01*
X119363Y-128492D01*
X119348Y-128514D01*
X119334Y-128543D01*
X119305Y-128587D01*
X119268Y-128646D01*
X119232Y-128718D01*
X119195Y-128799D01*
X119159Y-128886D01*
X119115Y-128995D01*
X119079Y-129112D01*
X119042Y-129236D01*
X119006Y-129375D01*
X118976Y-129528D01*
X118962Y-129688D01*
X118947Y-129856D01*
X118940Y-130038D01*
Y-130045D01*
Y-130074D01*
Y-130125D01*
X118947Y-130184D01*
X118955Y-130264D01*
X118962Y-130351D01*
X118976Y-130446D01*
X118991Y-130555D01*
X119042Y-130781D01*
X119115Y-131022D01*
X119159Y-131139D01*
X119217Y-131255D01*
X119275Y-131365D01*
X119348Y-131467D01*
X119356Y-131474D01*
X119370Y-131489D01*
X119392Y-131518D01*
X119421Y-131547D01*
X119465Y-131583D01*
X119516Y-131627D01*
X119574Y-131678D01*
X119647Y-131722D01*
X119720Y-131773D01*
X119800Y-131824D01*
X119895Y-131868D01*
X119997Y-131904D01*
X120099Y-131933D01*
X120216Y-131963D01*
X120333Y-131977D01*
X120464Y-131984D01*
X120529D01*
X120580Y-131977D01*
X120639Y-131970D01*
X120704Y-131955D01*
X120784Y-131941D01*
X120865Y-131919D01*
X120952Y-131897D01*
X121040Y-131860D01*
X121134Y-131824D01*
X121229Y-131773D01*
X121317Y-131715D01*
X121411Y-131649D01*
X121499Y-131569D01*
X121579Y-131481D01*
X121586Y-131474D01*
X121601Y-131459D01*
X121616Y-131430D01*
X121645Y-131394D01*
X121681Y-131343D01*
X121718Y-131284D01*
X121754Y-131212D01*
X121798Y-131131D01*
X121834Y-131044D01*
X121871Y-130949D01*
X121907Y-130847D01*
X121944Y-130730D01*
X121973Y-130606D01*
X121987Y-130483D01*
X122002Y-130344D01*
X122009Y-130206D01*
Y-129433D01*
Y-129426D01*
Y-129404D01*
Y-129375D01*
X122002Y-129331D01*
X121995Y-129272D01*
X121987Y-129214D01*
X121973Y-129141D01*
X121958Y-129061D01*
X121907Y-128901D01*
X121878Y-128806D01*
X121834Y-128718D01*
X121783Y-128631D01*
X121732Y-128536D01*
X121667Y-128449D01*
X121594Y-128368D01*
X121586Y-128361D01*
X121572Y-128347D01*
X121550Y-128325D01*
X121521Y-128296D01*
X121477Y-128266D01*
X121433Y-128230D01*
X121375Y-128186D01*
X121309Y-128142D01*
X121236Y-128106D01*
X121163Y-128062D01*
X120981Y-127989D01*
X120887Y-127968D01*
X120777Y-127946D01*
X120668Y-127931D01*
X120551Y-127924D01*
D02*
G37*
G36*
X97026Y-130001D02*
X95780Y-130176D01*
X95758D01*
X95721Y-130184D01*
X95685Y-130191D01*
X95634Y-130198D01*
X95583Y-130213D01*
X95459Y-130242D01*
X95313Y-130279D01*
X95175Y-130330D01*
X95036Y-130388D01*
X94912Y-130461D01*
X94898Y-130468D01*
X94868Y-130497D01*
X94818Y-130555D01*
X94766Y-130628D01*
X94715Y-130723D01*
X94664Y-130847D01*
X94635Y-131000D01*
X94621Y-131175D01*
Y-131182D01*
Y-131190D01*
Y-131212D01*
X94628Y-131241D01*
X94635Y-131306D01*
X94657Y-131394D01*
X94686Y-131496D01*
X94737Y-131598D01*
X94803Y-131700D01*
X94890Y-131795D01*
X94905Y-131802D01*
X94941Y-131831D01*
X95000Y-131868D01*
X95080Y-131911D01*
X95182Y-131955D01*
X95306Y-131992D01*
X95452Y-132021D01*
X95612Y-132028D01*
X95670D01*
X95714Y-132021D01*
X95765Y-132013D01*
X95831Y-132006D01*
X95969Y-131977D01*
X96130Y-131926D01*
X96210Y-131890D01*
X96297Y-131846D01*
X96385Y-131795D01*
X96465Y-131737D01*
X96545Y-131671D01*
X96625Y-131598D01*
X96633Y-131591D01*
X96640Y-131576D01*
X96662Y-131554D01*
X96691Y-131518D01*
X96720Y-131481D01*
X96749Y-131430D01*
X96786Y-131372D01*
X96829Y-131299D01*
X96866Y-131226D01*
X96902Y-131146D01*
X96961Y-130964D01*
X97012Y-130752D01*
X97019Y-130636D01*
X97026Y-130519D01*
Y-130001D01*
D02*
G37*
G36*
X151300Y-127844D02*
X151242D01*
X151206Y-127851D01*
X151155Y-127858D01*
X151096Y-127866D01*
X150965Y-127895D01*
X150812Y-127946D01*
X150724Y-127982D01*
X150644Y-128019D01*
X150564Y-128070D01*
X150484Y-128128D01*
X150404Y-128193D01*
X150323Y-128266D01*
X150316Y-128274D01*
X150309Y-128288D01*
X150287Y-128310D01*
X150258Y-128339D01*
X150229Y-128383D01*
X150192Y-128434D01*
X150156Y-128492D01*
X150112Y-128565D01*
X150068Y-128638D01*
X150025Y-128718D01*
X149988Y-128813D01*
X149944Y-128908D01*
X149879Y-129127D01*
X149828Y-129367D01*
X152569D01*
Y-129360D01*
Y-129338D01*
Y-129302D01*
X152562Y-129251D01*
X152554Y-129192D01*
X152547Y-129119D01*
X152540Y-129046D01*
X152525Y-128959D01*
X152481Y-128784D01*
X152423Y-128595D01*
X152336Y-128412D01*
X152285Y-128332D01*
X152226Y-128252D01*
X152219Y-128245D01*
X152212Y-128237D01*
X152190Y-128215D01*
X152168Y-128186D01*
X152131Y-128157D01*
X152088Y-128121D01*
X151986Y-128048D01*
X151854Y-127975D01*
X151694Y-127909D01*
X151512Y-127858D01*
X151410Y-127851D01*
X151300Y-127844D01*
D02*
G37*
G36*
X89933D02*
X89875D01*
X89838Y-127851D01*
X89787Y-127858D01*
X89729Y-127866D01*
X89598Y-127895D01*
X89445Y-127946D01*
X89357Y-127982D01*
X89277Y-128019D01*
X89197Y-128070D01*
X89117Y-128128D01*
X89037Y-128193D01*
X88956Y-128266D01*
X88949Y-128274D01*
X88942Y-128288D01*
X88920Y-128310D01*
X88891Y-128339D01*
X88862Y-128383D01*
X88825Y-128434D01*
X88789Y-128492D01*
X88745Y-128565D01*
X88701Y-128638D01*
X88657Y-128718D01*
X88621Y-128813D01*
X88577Y-128908D01*
X88512Y-129127D01*
X88461Y-129367D01*
X91202D01*
Y-129360D01*
Y-129338D01*
Y-129302D01*
X91194Y-129251D01*
X91187Y-129192D01*
X91180Y-129119D01*
X91172Y-129046D01*
X91158Y-128959D01*
X91114Y-128784D01*
X91056Y-128595D01*
X90968Y-128412D01*
X90917Y-128332D01*
X90859Y-128252D01*
X90852Y-128245D01*
X90844Y-128237D01*
X90822Y-128215D01*
X90801Y-128186D01*
X90764Y-128157D01*
X90720Y-128121D01*
X90618Y-128048D01*
X90487Y-127975D01*
X90327Y-127909D01*
X90145Y-127858D01*
X90043Y-127851D01*
X89933Y-127844D01*
D02*
G37*
G36*
X64965Y-127924D02*
X64892D01*
X64841Y-127931D01*
X64775Y-127938D01*
X64702Y-127953D01*
X64615Y-127975D01*
X64527Y-127997D01*
X64433Y-128026D01*
X64338Y-128062D01*
X64236Y-128106D01*
X64141Y-128164D01*
X64039Y-128230D01*
X63944Y-128303D01*
X63857Y-128390D01*
X63769Y-128492D01*
X63762Y-128500D01*
X63748Y-128522D01*
X63733Y-128551D01*
X63704Y-128595D01*
X63667Y-128653D01*
X63631Y-128726D01*
X63594Y-128806D01*
X63558Y-128901D01*
X63514Y-129003D01*
X63478Y-129127D01*
X63441Y-129251D01*
X63405Y-129396D01*
X63376Y-129542D01*
X63361Y-129710D01*
X63346Y-129885D01*
X63339Y-130067D01*
Y-130074D01*
Y-130104D01*
Y-130147D01*
X63346Y-130213D01*
X63354Y-130286D01*
X63361Y-130366D01*
X63376Y-130461D01*
X63390Y-130563D01*
X63441Y-130789D01*
X63514Y-131022D01*
X63558Y-131139D01*
X63616Y-131248D01*
X63675Y-131357D01*
X63748Y-131459D01*
X63755Y-131467D01*
X63769Y-131481D01*
X63791Y-131510D01*
X63820Y-131540D01*
X63864Y-131576D01*
X63915Y-131620D01*
X63973Y-131671D01*
X64039Y-131715D01*
X64119Y-131766D01*
X64200Y-131817D01*
X64287Y-131860D01*
X64389Y-131897D01*
X64491Y-131926D01*
X64608Y-131955D01*
X64724Y-131970D01*
X64848Y-131977D01*
X64914D01*
X64965Y-131970D01*
X65023Y-131963D01*
X65089Y-131948D01*
X65169Y-131933D01*
X65249Y-131911D01*
X65424Y-131853D01*
X65519Y-131817D01*
X65614Y-131766D01*
X65709Y-131707D01*
X65796Y-131642D01*
X65891Y-131569D01*
X65971Y-131481D01*
X65978Y-131474D01*
X65993Y-131459D01*
X66015Y-131430D01*
X66036Y-131394D01*
X66073Y-131343D01*
X66109Y-131284D01*
X66146Y-131212D01*
X66190Y-131131D01*
X66233Y-131044D01*
X66270Y-130949D01*
X66306Y-130847D01*
X66343Y-130730D01*
X66365Y-130606D01*
X66386Y-130483D01*
X66401Y-130344D01*
X66408Y-130206D01*
Y-129433D01*
Y-129426D01*
Y-129404D01*
Y-129375D01*
X66401Y-129331D01*
X66394Y-129272D01*
X66386Y-129214D01*
X66372Y-129141D01*
X66357Y-129068D01*
X66306Y-128901D01*
X66277Y-128813D01*
X66233Y-128726D01*
X66182Y-128631D01*
X66131Y-128543D01*
X66066Y-128456D01*
X65993Y-128368D01*
X65986Y-128361D01*
X65971Y-128347D01*
X65949Y-128325D01*
X65920Y-128296D01*
X65876Y-128266D01*
X65832Y-128230D01*
X65774Y-128186D01*
X65709Y-128142D01*
X65563Y-128062D01*
X65388Y-127989D01*
X65293Y-127968D01*
X65184Y-127946D01*
X65082Y-127931D01*
X64965Y-127924D01*
D02*
G37*
G36*
X120032Y-61692D02*
X119904D01*
X119802Y-61704D01*
X119688Y-61717D01*
X119560Y-61730D01*
X119407Y-61755D01*
X119254Y-61794D01*
X118910Y-61883D01*
X118744Y-61947D01*
X118578Y-62023D01*
X118413Y-62112D01*
X118260Y-62214D01*
X118107Y-62329D01*
X117979Y-62469D01*
X117966Y-62482D01*
X117954Y-62508D01*
X117915Y-62546D01*
X117877Y-62610D01*
X117826Y-62673D01*
X117775Y-62763D01*
X117711Y-62865D01*
X117648Y-62979D01*
X117533Y-63234D01*
X117418Y-63528D01*
X117329Y-63846D01*
X117291Y-64012D01*
X117278Y-64191D01*
Y-64203D01*
X117291Y-64254D01*
Y-64318D01*
X117316Y-64420D01*
X117329Y-64535D01*
X117354Y-64662D01*
X117393Y-64815D01*
X117431Y-64968D01*
X117520Y-65313D01*
X117648Y-65670D01*
X117813Y-66014D01*
X117903Y-66167D01*
X118005Y-66320D01*
X118017Y-66333D01*
X118030Y-66345D01*
X118068Y-66384D01*
X118119Y-66435D01*
X118183Y-66486D01*
X118260Y-66549D01*
X118349Y-66626D01*
X118464Y-66690D01*
X118578Y-66753D01*
X118719Y-66830D01*
X118884Y-66894D01*
X119050Y-66945D01*
X119241Y-66996D01*
X119445Y-67021D01*
X119675Y-67047D01*
X119917Y-67059D01*
X120045D01*
X120134Y-67047D01*
X120249Y-67034D01*
X120363Y-67021D01*
X120504Y-66996D01*
X120657Y-66970D01*
X120963Y-66881D01*
X121128Y-66817D01*
X121281Y-66753D01*
X121434Y-66664D01*
X121575Y-66575D01*
X121702Y-66460D01*
X121817Y-66333D01*
X121830Y-66320D01*
X121842Y-66294D01*
X121868Y-66256D01*
X121906Y-66192D01*
X121944Y-66116D01*
X121995Y-66027D01*
X122046Y-65925D01*
X122110Y-65810D01*
X122161Y-65670D01*
X122212Y-65517D01*
X122263Y-65351D01*
X122301Y-65172D01*
X122340Y-64981D01*
X122365Y-64777D01*
X122391Y-64560D01*
Y-64331D01*
Y-64318D01*
Y-64280D01*
Y-64216D01*
X122378Y-64127D01*
Y-64025D01*
X122365Y-63897D01*
X122352Y-63770D01*
X122327Y-63630D01*
X122263Y-63311D01*
X122161Y-62992D01*
X122034Y-62673D01*
X121855Y-62393D01*
Y-62380D01*
X121830Y-62367D01*
X121791Y-62329D01*
X121753Y-62278D01*
X121689Y-62227D01*
X121613Y-62176D01*
X121524Y-62112D01*
X121422Y-62036D01*
X121307Y-61972D01*
X121179Y-61908D01*
X121026Y-61857D01*
X120861Y-61806D01*
X120682Y-61755D01*
X120478Y-61717D01*
X120261Y-61704D01*
X120032Y-61692D01*
D02*
G37*
G36*
X85607Y-57816D02*
X85467D01*
X83401Y-62992D01*
X87558D01*
X85607Y-57816D01*
D02*
G37*
G36*
X133317Y-59307D02*
X132348D01*
X128702Y-66256D01*
X133317D01*
Y-59307D01*
D02*
G37*
G36*
X112797Y-78203D02*
X112715D01*
X112652Y-78212D01*
X112570Y-78221D01*
X112488Y-78239D01*
X112388Y-78257D01*
X112287Y-78285D01*
X112169Y-78321D01*
X112050Y-78367D01*
X111932Y-78421D01*
X111814Y-78485D01*
X111695Y-78558D01*
X111577Y-78649D01*
X111467Y-78749D01*
X111358Y-78868D01*
X111349Y-78877D01*
X111331Y-78895D01*
X111303Y-78941D01*
X111276Y-78986D01*
X111231Y-79059D01*
X111185Y-79141D01*
X111139Y-79232D01*
X111085Y-79341D01*
X111030Y-79469D01*
X110985Y-79606D01*
X110939Y-79751D01*
X110893Y-79915D01*
X110866Y-80088D01*
X110839Y-80271D01*
X110821Y-80471D01*
X110811Y-80681D01*
Y-80690D01*
Y-80735D01*
Y-80790D01*
X110821Y-80872D01*
X110830Y-80963D01*
X110839Y-81081D01*
X110857Y-81200D01*
X110884Y-81336D01*
X110948Y-81619D01*
X110994Y-81765D01*
X111039Y-81910D01*
X111103Y-82056D01*
X111176Y-82193D01*
X111258Y-82329D01*
X111358Y-82448D01*
X111367Y-82457D01*
X111385Y-82475D01*
X111413Y-82503D01*
X111458Y-82539D01*
X111513Y-82594D01*
X111568Y-82639D01*
X111650Y-82694D01*
X111732Y-82749D01*
X111923Y-82867D01*
X112151Y-82958D01*
X112269Y-83004D01*
X112397Y-83031D01*
X112533Y-83049D01*
X112679Y-83058D01*
X112715D01*
X112770Y-83049D01*
X112825D01*
X112907Y-83031D01*
X112989Y-83022D01*
X113089Y-82995D01*
X113198Y-82967D01*
X113308Y-82931D01*
X113426Y-82876D01*
X113544Y-82821D01*
X113663Y-82749D01*
X113790Y-82667D01*
X113900Y-82566D01*
X114018Y-82448D01*
X114118Y-82320D01*
X114128Y-82311D01*
X114146Y-82284D01*
X114173Y-82248D01*
X114200Y-82193D01*
X114246Y-82120D01*
X114292Y-82047D01*
X114346Y-81947D01*
X114392Y-81847D01*
X114446Y-81737D01*
X114501Y-81619D01*
X114592Y-81355D01*
X114629Y-81209D01*
X114656Y-81063D01*
X114674Y-80917D01*
X114683Y-80763D01*
Y-80198D01*
Y-80189D01*
Y-80161D01*
X114674Y-80107D01*
Y-80043D01*
X114665Y-79970D01*
X114647Y-79879D01*
X114629Y-79779D01*
X114610Y-79678D01*
X114537Y-79442D01*
X114492Y-79323D01*
X114437Y-79205D01*
X114374Y-79086D01*
X114301Y-78968D01*
X114219Y-78850D01*
X114118Y-78749D01*
X114109Y-78740D01*
X114091Y-78722D01*
X114064Y-78695D01*
X114018Y-78667D01*
X113973Y-78622D01*
X113909Y-78576D01*
X113836Y-78531D01*
X113754Y-78476D01*
X113663Y-78421D01*
X113563Y-78376D01*
X113335Y-78285D01*
X113207Y-78257D01*
X113080Y-78230D01*
X112943Y-78212D01*
X112797Y-78203D01*
D02*
G37*
G36*
X135172Y-81018D02*
X135062D01*
X135008Y-81027D01*
X134935D01*
X134780Y-81045D01*
X134598Y-81072D01*
X134397Y-81118D01*
X134197Y-81173D01*
X133996Y-81255D01*
X133987D01*
X133978Y-81264D01*
X133951Y-81282D01*
X133914Y-81300D01*
X133832Y-81364D01*
X133741Y-81455D01*
X133641Y-81573D01*
X133596Y-81655D01*
X133559Y-81737D01*
X133523Y-81828D01*
X133495Y-81929D01*
X133486Y-82038D01*
X133477Y-82165D01*
Y-82175D01*
Y-82211D01*
X133486Y-82257D01*
X133495Y-82320D01*
X133514Y-82393D01*
X133532Y-82484D01*
X133568Y-82576D01*
X133614Y-82667D01*
X133668Y-82758D01*
X133741Y-82849D01*
X133823Y-82931D01*
X133923Y-83013D01*
X134051Y-83077D01*
X134188Y-83122D01*
X134352Y-83158D01*
X134543Y-83168D01*
X134607D01*
X134652Y-83158D01*
X134707Y-83149D01*
X134771Y-83140D01*
X134926Y-83113D01*
X135108Y-83058D01*
X135308Y-82976D01*
X135408Y-82931D01*
X135518Y-82867D01*
X135627Y-82803D01*
X135727Y-82721D01*
X135736Y-82712D01*
X135755Y-82703D01*
X135782Y-82676D01*
X135818Y-82639D01*
X135855Y-82585D01*
X135909Y-82530D01*
X135955Y-82466D01*
X136010Y-82384D01*
X136064Y-82293D01*
X136119Y-82193D01*
X136174Y-82083D01*
X136219Y-81965D01*
X136265Y-81838D01*
X136301Y-81692D01*
X136329Y-81546D01*
X136347Y-81382D01*
Y-81118D01*
X136338D01*
X136301Y-81109D01*
X136247D01*
X136174Y-81100D01*
X136083Y-81090D01*
X135992Y-81081D01*
X135773Y-81054D01*
X135764D01*
X135727Y-81045D01*
X135663D01*
X135591Y-81036D01*
X135500Y-81027D01*
X135399D01*
X135172Y-81018D01*
D02*
G37*
G36*
X126590Y-75196D02*
X124768D01*
Y-78121D01*
X126572D01*
X126636Y-78112D01*
X126708D01*
X126799Y-78102D01*
X126900Y-78084D01*
X127000Y-78066D01*
X127228Y-78021D01*
X127455Y-77948D01*
X127665Y-77838D01*
X127765Y-77775D01*
X127856Y-77702D01*
X127865Y-77693D01*
X127875Y-77683D01*
X127902Y-77656D01*
X127929Y-77629D01*
X128002Y-77538D01*
X128084Y-77410D01*
X128166Y-77255D01*
X128239Y-77073D01*
X128294Y-76863D01*
X128303Y-76745D01*
X128312Y-76627D01*
Y-76617D01*
Y-76590D01*
Y-76545D01*
X128303Y-76490D01*
X128294Y-76426D01*
X128284Y-76344D01*
X128248Y-76171D01*
X128193Y-75980D01*
X128111Y-75798D01*
X128057Y-75706D01*
X127993Y-75625D01*
X127911Y-75561D01*
X127829Y-75497D01*
X127820D01*
X127811Y-75488D01*
X127783Y-75470D01*
X127738Y-75451D01*
X127692Y-75424D01*
X127638Y-75406D01*
X127574Y-75379D01*
X127492Y-75342D01*
X127319Y-75287D01*
X127100Y-75242D01*
X126863Y-75205D01*
X126590Y-75196D01*
D02*
G37*
G36*
X127064Y-79542D02*
X124768D01*
Y-82739D01*
X126745D01*
X126845Y-82730D01*
X126973Y-82712D01*
X127128Y-82694D01*
X127301Y-82657D01*
X127492Y-82603D01*
X127683Y-82539D01*
X127875Y-82448D01*
X128057Y-82348D01*
X128230Y-82211D01*
X128385Y-82056D01*
X128512Y-81865D01*
X128612Y-81655D01*
X128649Y-81528D01*
X128685Y-81400D01*
X128694Y-81264D01*
X128703Y-81118D01*
Y-81109D01*
Y-81100D01*
Y-81054D01*
X128694Y-80972D01*
X128676Y-80872D01*
X128649Y-80753D01*
X128612Y-80617D01*
X128549Y-80480D01*
X128476Y-80325D01*
X128385Y-80180D01*
X128266Y-80043D01*
X128121Y-79906D01*
X127947Y-79788D01*
X127738Y-79688D01*
X127619Y-79642D01*
X127492Y-79606D01*
X127364Y-79578D01*
X127219Y-79560D01*
X127064Y-79542D01*
D02*
G37*
G36*
X95689Y-75196D02*
X94067D01*
Y-78631D01*
X95579D01*
X95661Y-78622D01*
X95771Y-78613D01*
X95889Y-78604D01*
X96026Y-78594D01*
X96172Y-78576D01*
X96472Y-78522D01*
X96773Y-78430D01*
X96910Y-78385D01*
X97046Y-78321D01*
X97165Y-78248D01*
X97265Y-78166D01*
X97274Y-78157D01*
X97283Y-78148D01*
X97310Y-78121D01*
X97347Y-78075D01*
X97383Y-78030D01*
X97429Y-77975D01*
X97474Y-77902D01*
X97520Y-77820D01*
X97566Y-77729D01*
X97611Y-77629D01*
X97657Y-77519D01*
X97693Y-77401D01*
X97729Y-77273D01*
X97757Y-77137D01*
X97766Y-76991D01*
X97775Y-76836D01*
Y-76827D01*
Y-76800D01*
Y-76754D01*
X97766Y-76690D01*
X97757Y-76617D01*
X97748Y-76535D01*
X97711Y-76335D01*
X97648Y-76135D01*
X97602Y-76025D01*
X97556Y-75925D01*
X97493Y-75825D01*
X97420Y-75725D01*
X97338Y-75643D01*
X97247Y-75570D01*
X97238D01*
X97219Y-75552D01*
X97192Y-75533D01*
X97146Y-75515D01*
X97092Y-75479D01*
X97019Y-75451D01*
X96928Y-75415D01*
X96828Y-75379D01*
X96709Y-75351D01*
X96582Y-75315D01*
X96436Y-75278D01*
X96272Y-75251D01*
X96099Y-75233D01*
X95898Y-75215D01*
X95689Y-75196D01*
D02*
G37*
G36*
X150631Y-78148D02*
X150540D01*
X150476Y-78157D01*
X150394Y-78166D01*
X150303Y-78184D01*
X150203Y-78203D01*
X150094Y-78230D01*
X149985Y-78266D01*
X149857Y-78312D01*
X149739Y-78367D01*
X149620Y-78430D01*
X149493Y-78503D01*
X149383Y-78594D01*
X149265Y-78695D01*
X149165Y-78813D01*
X149155Y-78822D01*
X149146Y-78840D01*
X149119Y-78886D01*
X149083Y-78931D01*
X149046Y-79004D01*
X149001Y-79086D01*
X148955Y-79177D01*
X148909Y-79287D01*
X148855Y-79405D01*
X148809Y-79542D01*
X148764Y-79688D01*
X148727Y-79843D01*
X148691Y-80016D01*
X148663Y-80198D01*
X148654Y-80389D01*
X148645Y-80599D01*
Y-80608D01*
Y-80644D01*
Y-80699D01*
X148654Y-80772D01*
X148663Y-80863D01*
X148673Y-80972D01*
X148691Y-81081D01*
X148709Y-81209D01*
X148764Y-81491D01*
X148855Y-81783D01*
X148919Y-81938D01*
X148982Y-82083D01*
X149055Y-82229D01*
X149146Y-82366D01*
X149155Y-82375D01*
X149174Y-82393D01*
X149201Y-82430D01*
X149237Y-82475D01*
X149292Y-82530D01*
X149356Y-82594D01*
X149429Y-82657D01*
X149520Y-82721D01*
X149620Y-82794D01*
X149729Y-82858D01*
X149848Y-82922D01*
X149985Y-82976D01*
X150130Y-83022D01*
X150285Y-83058D01*
X150449Y-83077D01*
X150631Y-83086D01*
X150677D01*
X150722Y-83077D01*
X150786D01*
X150868Y-83067D01*
X150959Y-83049D01*
X151059Y-83031D01*
X151169Y-82995D01*
X151287Y-82958D01*
X151415Y-82912D01*
X151533Y-82858D01*
X151661Y-82794D01*
X151779Y-82712D01*
X151898Y-82621D01*
X152007Y-82512D01*
X152116Y-82393D01*
X152125Y-82384D01*
X152144Y-82357D01*
X152171Y-82320D01*
X152198Y-82266D01*
X152244Y-82193D01*
X152289Y-82111D01*
X152335Y-82011D01*
X152390Y-81901D01*
X152444Y-81783D01*
X152490Y-81646D01*
X152535Y-81491D01*
X152581Y-81336D01*
X152608Y-81163D01*
X152636Y-80981D01*
X152654Y-80781D01*
X152663Y-80580D01*
Y-80562D01*
Y-80526D01*
Y-80471D01*
X152654Y-80389D01*
X152645Y-80289D01*
X152636Y-80170D01*
X152617Y-80043D01*
X152590Y-79906D01*
X152526Y-79615D01*
X152481Y-79469D01*
X152426Y-79323D01*
X152362Y-79168D01*
X152280Y-79032D01*
X152198Y-78895D01*
X152098Y-78777D01*
X152089Y-78768D01*
X152071Y-78749D01*
X152043Y-78722D01*
X151998Y-78676D01*
X151943Y-78631D01*
X151870Y-78576D01*
X151797Y-78522D01*
X151706Y-78458D01*
X151606Y-78403D01*
X151488Y-78348D01*
X151369Y-78294D01*
X151242Y-78248D01*
X151105Y-78203D01*
X150950Y-78175D01*
X150795Y-78157D01*
X150631Y-78148D01*
D02*
G37*
G36*
X104699Y-78084D02*
X104626D01*
X104571Y-78093D01*
X104498Y-78102D01*
X104425Y-78112D01*
X104252Y-78148D01*
X104061Y-78212D01*
X103961Y-78257D01*
X103860Y-78303D01*
X103760Y-78367D01*
X103669Y-78439D01*
X103578Y-78522D01*
X103496Y-78613D01*
Y-78622D01*
X103478Y-78640D01*
X103460Y-78667D01*
X103432Y-78704D01*
X103396Y-78758D01*
X103359Y-78813D01*
X103323Y-78886D01*
X103278Y-78968D01*
X103196Y-79159D01*
X103113Y-79378D01*
X103041Y-79624D01*
X102995Y-79906D01*
X106238D01*
Y-79897D01*
Y-79879D01*
Y-79843D01*
Y-79797D01*
Y-79733D01*
Y-79669D01*
X106220Y-79505D01*
X106193Y-79314D01*
X106138Y-79105D01*
X106047Y-78886D01*
X105992Y-78777D01*
X105929Y-78667D01*
Y-78658D01*
X105910Y-78640D01*
X105892Y-78613D01*
X105856Y-78576D01*
X105819Y-78531D01*
X105764Y-78485D01*
X105710Y-78430D01*
X105637Y-78376D01*
X105555Y-78321D01*
X105464Y-78266D01*
X105364Y-78221D01*
X105254Y-78175D01*
X105136Y-78139D01*
X104999Y-78112D01*
X104853Y-78093D01*
X104699Y-78084D01*
D02*
G37*
%LPD*%
D10*
X-12913Y-74449D02*
Y-55551D01*
X-27087Y-74449D02*
X-12913D01*
X-27087D02*
Y-55551D01*
X-12913D01*
X-14488Y-74449D02*
X-12913Y-72874D01*
X-14488Y-134449D02*
X-12913Y-132874D01*
X-27087Y-115551D02*
X-12913D01*
X-27087Y-134449D02*
Y-115551D01*
Y-134449D02*
X-12913D01*
Y-115551D01*
Y-194449D02*
Y-175551D01*
X-27087Y-194449D02*
X-12913D01*
X-27087D02*
Y-175551D01*
X-12913D01*
X-14488Y-194449D02*
X-12913Y-192874D01*
X-14488Y-254449D02*
X-12913Y-252874D01*
X-27087Y-235551D02*
X-12913D01*
X-27087Y-254449D02*
Y-235551D01*
Y-254449D02*
X-12913D01*
Y-235551D01*
X167500Y16250D02*
X282500D01*
X-12500D02*
X162500D01*
X45000Y17559D02*
X105000D01*
X45000Y61654D02*
X105000D01*
Y17559D02*
Y61654D01*
X45000Y17559D02*
Y61654D01*
X-10000Y-235000D02*
Y-220000D01*
Y-175000D02*
Y-160000D01*
Y-115000D02*
Y-100000D01*
Y-55000D02*
Y-40000D01*
X-30000Y-270000D02*
X-10000D01*
X-30000Y-220000D02*
X-10000D01*
X-30000Y-210000D02*
X-10000D01*
X-30000Y-160000D02*
X-10000D01*
X-30000Y-150000D02*
X-10000D01*
X-30000Y-100000D02*
X-10000D01*
X-30000Y-90000D02*
X-10000D01*
X-30000Y-40000D02*
X-10000D01*
X-35000Y-270000D02*
X-30000D01*
X-35000Y-220000D02*
X-30000D01*
X-35000Y-210000D02*
X-30000D01*
X-35000Y-160000D02*
X-30000D01*
X-35000Y-150000D02*
X-30000D01*
X-35000Y-100000D02*
X-30000D01*
X-35000Y-90000D02*
X-30000D01*
X-35000Y-40000D02*
X-30000D01*
X-35000Y-270000D02*
Y-220000D01*
Y-210000D02*
Y-160000D01*
Y-150000D02*
Y-100000D01*
Y-90000D02*
Y-40000D01*
X319862Y-219764D02*
Y-190236D01*
X270138Y-219764D02*
Y-190236D01*
X270394D02*
X319606D01*
X270394Y-219764D02*
X319606D01*
X317638Y-190236D02*
X319606Y-192205D01*
X197638Y-190236D02*
X199606Y-192205D01*
X150394Y-219764D02*
X199606D01*
X150394Y-190236D02*
X199606D01*
X150138Y-219764D02*
Y-190236D01*
X199862Y-219764D02*
Y-190236D01*
X77638D02*
X79606Y-192205D01*
X30394Y-219764D02*
X79606D01*
X30394Y-190236D02*
X79606D01*
X30138Y-219764D02*
Y-190236D01*
X79862Y-219764D02*
Y-190236D01*
X325000Y-276654D02*
Y-232559D01*
X265000Y-276654D02*
Y-232559D01*
Y-276654D02*
X325000D01*
X265000Y-232559D02*
X325000D01*
X85000Y-276654D02*
Y-232559D01*
X25000Y-276654D02*
Y-232559D01*
Y-276654D02*
X85000D01*
X25000Y-232559D02*
X85000D01*
X145000Y-276654D02*
Y-232559D01*
X85000Y-276654D02*
Y-232559D01*
Y-276654D02*
X145000D01*
X85000Y-232559D02*
X145000D01*
X205000Y-276654D02*
Y-232559D01*
X145000Y-276654D02*
Y-232559D01*
Y-276654D02*
X205000D01*
X145000Y-232559D02*
X205000D01*
X265000Y-276654D02*
Y-232559D01*
X205000Y-276654D02*
Y-232559D01*
Y-276654D02*
X265000D01*
X205000Y-232559D02*
X265000D01*
X105000Y17559D02*
Y61654D01*
X165000Y17559D02*
Y61654D01*
X105000D02*
X165000D01*
X105000Y17559D02*
X165000D01*
X-15000D02*
Y61654D01*
X45000Y17559D02*
Y61654D01*
X-15000D02*
X45000D01*
X-15000Y17559D02*
X45000D01*
X165000D02*
Y61654D01*
X225000Y17559D02*
Y61654D01*
X165000D02*
X225000D01*
X165000Y17559D02*
X225000D01*
Y61654D01*
X285000Y17559D02*
Y61654D01*
X225000D02*
X285000D01*
X225000Y17559D02*
X285000D01*
X-81653Y-95000D02*
X-37559D01*
X-81653Y-35000D02*
X-37559D01*
X-81653Y-95000D02*
Y-35000D01*
X-37559Y-95000D02*
Y-35000D01*
X-81653Y-155000D02*
X-37559D01*
X-81653Y-95000D02*
X-37559D01*
X-81653Y-155000D02*
Y-95000D01*
X-37559Y-155000D02*
Y-95000D01*
X-81653Y-215000D02*
X-37559D01*
X-81653Y-155000D02*
X-37559D01*
X-81653Y-215000D02*
Y-155000D01*
X-37559Y-215000D02*
Y-155000D01*
X-81653Y-275000D02*
X-37559D01*
X-81653Y-215000D02*
X-37559D01*
X-81653Y-275000D02*
Y-215000D01*
X-37559Y-275000D02*
Y-215000D01*
X-81653Y5000D02*
X-37559D01*
X-81653Y45000D02*
X-37559D01*
X-81653Y5000D02*
Y45000D01*
X-37559Y5000D02*
Y45000D01*
X-81653Y-35000D02*
X-37559D01*
X-81653Y5000D02*
X-37559D01*
X-81653Y-35000D02*
Y5000D01*
X-37559Y-35000D02*
Y5000D01*
X142382Y1890D02*
X144350Y-79D01*
X125650Y-11890D02*
Y1890D01*
Y-11890D02*
X144350D01*
Y1890D01*
X125650D02*
X144350D01*
X137638Y-190236D02*
X139606Y-192205D01*
X90394Y-219764D02*
X139606D01*
X90394Y-190236D02*
X139606D01*
X90138Y-219764D02*
Y-190236D01*
X139862Y-219764D02*
Y-190236D01*
X257638D02*
X259606Y-192205D01*
X210394Y-219764D02*
X259606D01*
X210394Y-190236D02*
X259606D01*
X210138Y-219764D02*
Y-190236D01*
X259862Y-219764D02*
Y-190236D01*
X65650Y1890D02*
X84350D01*
Y-11890D02*
Y1890D01*
X65650Y-11890D02*
X84350D01*
X65650D02*
Y1890D01*
X82382D02*
X84350Y-79D01*
X215650Y-11890D02*
X234350D01*
X215650D02*
Y1890D01*
X234350D01*
Y-11890D02*
Y1890D01*
X215650Y-9921D02*
X217618Y-11890D01*
X285000Y-175000D02*
X305000D01*
X-5000Y-265000D02*
X15000D01*
X285000Y-175000D02*
Y25000D01*
X305000Y-175000D02*
Y25000D01*
X285000D02*
X305000D01*
X25000Y-135000D02*
Y5000D01*
X-5000Y-265000D02*
Y5000D01*
X15000D01*
Y-265000D02*
Y5000D01*
X25000Y-135000D02*
X45000D01*
X25000Y5000D02*
X45000D01*
Y-135000D02*
Y5000D01*
X294344Y-177438D02*
X293688Y-176782D01*
X292376D01*
X291720Y-177438D01*
Y-178094D01*
X292376Y-178750D01*
X293688D01*
X294344Y-179406D01*
Y-180062D01*
X293688Y-180718D01*
X292376D01*
X291720Y-180062D01*
X295656Y-177438D02*
X296312Y-176782D01*
X297624D01*
X298280Y-177438D01*
Y-180062D01*
X297624Y-180718D01*
X296312D01*
X295656Y-180062D01*
Y-177438D01*
X236720Y-173032D02*
X239344D01*
Y-173688D01*
X236720Y-176312D01*
Y-176968D01*
X239344D01*
X240656Y-173688D02*
X241312Y-173032D01*
X242624D01*
X243280Y-173688D01*
Y-176312D01*
X242624Y-176968D01*
X241312D01*
X240656Y-176312D01*
Y-173688D01*
X176720Y-173032D02*
Y-173688D01*
X178032Y-175000D01*
X179344Y-173688D01*
Y-173032D01*
X178032Y-175000D02*
Y-176968D01*
X180656Y-173688D02*
X181312Y-173032D01*
X182624D01*
X183280Y-173688D01*
Y-176312D01*
X182624Y-176968D01*
X181312D01*
X180656Y-176312D01*
Y-173688D01*
X117376Y-173032D02*
X120000Y-176968D01*
Y-173032D02*
X117376Y-176968D01*
X121312D02*
X122624D01*
X121968D01*
Y-173032D01*
X121312Y-173688D01*
X56720Y-173032D02*
X59344Y-176968D01*
Y-173032D02*
X56720Y-176968D01*
X60656Y-173688D02*
X61312Y-173032D01*
X62624D01*
X63280Y-173688D01*
Y-176312D01*
X62624Y-176968D01*
X61312D01*
X60656Y-176312D01*
Y-173688D01*
X239502Y-94489D02*
X236878D01*
Y-96457D01*
X238190Y-95801D01*
X238846D01*
X239502Y-96457D01*
Y-97769D01*
X238846Y-98425D01*
X237534D01*
X236878Y-97769D01*
X240813Y-94489D02*
Y-97113D01*
X242125Y-98425D01*
X243437Y-97113D01*
Y-94489D01*
X249018Y-95145D02*
X249674Y-94489D01*
X250986D01*
X251642Y-95145D01*
Y-95801D01*
X250986Y-96457D01*
X250330D01*
X250986D01*
X251642Y-97113D01*
Y-97769D01*
X250986Y-98425D01*
X249674D01*
X249018Y-97769D01*
X252954Y-98425D02*
Y-97769D01*
X253610D01*
Y-98425D01*
X252954D01*
X256234Y-95145D02*
X256889Y-94489D01*
X258201D01*
X258857Y-95145D01*
Y-95801D01*
X258201Y-96457D01*
X257545D01*
X258201D01*
X258857Y-97113D01*
Y-97769D01*
X258201Y-98425D01*
X256889D01*
X256234Y-97769D01*
X260169Y-94489D02*
Y-97113D01*
X261481Y-98425D01*
X262793Y-97113D01*
Y-94489D01*
X273688Y14468D02*
X272376D01*
X271720Y13812D01*
Y11188D01*
X272376Y10532D01*
X273688D01*
X274344Y11188D01*
Y13812D01*
X273688Y14468D01*
X278280D02*
X275656D01*
Y12500D01*
X276968Y13156D01*
X277624D01*
X278280Y12500D01*
Y11188D01*
X277624Y10532D01*
X276312D01*
X275656Y11188D01*
X253688Y14468D02*
X252376D01*
X251720Y13812D01*
Y11188D01*
X252376Y10532D01*
X253688D01*
X254344Y11188D01*
Y13812D01*
X253688Y14468D01*
X257624Y10532D02*
Y14468D01*
X255656Y12500D01*
X258280D01*
X233688Y14468D02*
X232376D01*
X231720Y13812D01*
Y11188D01*
X232376Y10532D01*
X233688D01*
X234344Y11188D01*
Y13812D01*
X233688Y14468D01*
X235656Y13812D02*
X236312Y14468D01*
X237624D01*
X238280Y13812D01*
Y13156D01*
X237624Y12500D01*
X236968D01*
X237624D01*
X238280Y11844D01*
Y11188D01*
X237624Y10532D01*
X236312D01*
X235656Y11188D01*
X216188Y14468D02*
X214876D01*
X214220Y13812D01*
Y11188D01*
X214876Y10532D01*
X216188D01*
X216844Y11188D01*
Y13812D01*
X216188Y14468D01*
X220780Y10532D02*
X218156D01*
X220780Y13156D01*
Y13812D01*
X220124Y14468D01*
X218812D01*
X218156Y13812D01*
X194344Y14468D02*
X193032D01*
X192376Y13812D01*
Y11188D01*
X193032Y10532D01*
X194344D01*
X195000Y11188D01*
Y13812D01*
X194344Y14468D01*
X196312Y10532D02*
X197624D01*
X196968D01*
Y14468D01*
X196312Y13812D01*
X173688Y14468D02*
X172376D01*
X171720Y13812D01*
Y11188D01*
X172376Y10532D01*
X173688D01*
X174344Y11188D01*
Y13812D01*
X173688Y14468D01*
X175656Y13812D02*
X176312Y14468D01*
X177624D01*
X178280Y13812D01*
Y11188D01*
X177624Y10532D01*
X176312D01*
X175656Y11188D01*
Y13812D01*
X152048Y14468D02*
X153360D01*
X152704D01*
Y10532D01*
X152048D01*
X153360D01*
X155328Y13812D02*
X155984Y14468D01*
X157296D01*
X157952Y13812D01*
Y13156D01*
X157296Y12500D01*
X157952Y11844D01*
Y11188D01*
X157296Y10532D01*
X155984D01*
X155328Y11188D01*
Y11844D01*
X155984Y12500D01*
X155328Y13156D01*
Y13812D01*
X155984Y12500D02*
X157296D01*
X132048Y14468D02*
X133360D01*
X132704D01*
Y10532D01*
X132048D01*
X133360D01*
X135328Y14468D02*
X137952D01*
Y13812D01*
X135328Y11188D01*
Y10532D01*
X112048Y14468D02*
X113360D01*
X112704D01*
Y10532D01*
X112048D01*
X113360D01*
X117952Y14468D02*
X116640Y13812D01*
X115328Y12500D01*
Y11188D01*
X115984Y10532D01*
X117296D01*
X117952Y11188D01*
Y11844D01*
X117296Y12500D01*
X115328D01*
X92048Y14468D02*
X93360D01*
X92704D01*
Y10532D01*
X92048D01*
X93360D01*
X97952Y14468D02*
X95328D01*
Y12500D01*
X96640Y13156D01*
X97296D01*
X97952Y12500D01*
Y11188D01*
X97296Y10532D01*
X95984D01*
X95328Y11188D01*
X74548Y14468D02*
X75860D01*
X75204D01*
Y10532D01*
X74548D01*
X75860D01*
X79796D02*
Y14468D01*
X77828Y12500D01*
X80452D01*
X52048Y14468D02*
X53360D01*
X52704D01*
Y10532D01*
X52048D01*
X53360D01*
X55328Y13812D02*
X55984Y14468D01*
X57296D01*
X57952Y13812D01*
Y13156D01*
X57296Y12500D01*
X56640D01*
X57296D01*
X57952Y11844D01*
Y11188D01*
X57296Y10532D01*
X55984D01*
X55328Y11188D01*
X32048Y14468D02*
X33360D01*
X32704D01*
Y10532D01*
X32048D01*
X33360D01*
X37952D02*
X35328D01*
X37952Y13156D01*
Y13812D01*
X37296Y14468D01*
X35984D01*
X35328Y13812D01*
X12704Y14468D02*
X14016D01*
X13360D01*
Y10532D01*
X12704D01*
X14016D01*
X15984D02*
X17296D01*
X16640D01*
Y14468D01*
X15984Y13812D01*
X-7952Y14468D02*
X-6640D01*
X-7296D01*
Y10532D01*
X-7952D01*
X-6640D01*
X-4672Y13812D02*
X-4016Y14468D01*
X-2704D01*
X-2048Y13812D01*
Y11188D01*
X-2704Y10532D01*
X-4016D01*
X-4672Y11188D01*
Y13812D01*
X-19213Y-223032D02*
X-16589D01*
Y-223688D01*
X-19213Y-226312D01*
Y-226968D01*
X-16589D01*
X-15277Y-223688D02*
X-14621Y-223032D01*
X-13309D01*
X-12653Y-223688D01*
Y-226312D01*
X-13309Y-226968D01*
X-14621D01*
X-15277Y-226312D01*
Y-223688D01*
X-19213Y-163032D02*
Y-163688D01*
X-17901Y-165000D01*
X-16589Y-163688D01*
Y-163032D01*
X-17901Y-165000D02*
Y-166968D01*
X-15277Y-163688D02*
X-14621Y-163032D01*
X-13309D01*
X-12653Y-163688D01*
Y-166312D01*
X-13309Y-166968D01*
X-14621D01*
X-15277Y-166312D01*
Y-163688D01*
X-19213Y-103032D02*
X-16589Y-106968D01*
Y-103032D02*
X-19213Y-106968D01*
X-15277D02*
X-13965D01*
X-14621D01*
Y-103032D01*
X-15277Y-103688D01*
X-19213Y-43032D02*
X-16589Y-46968D01*
Y-43032D02*
X-19213Y-46968D01*
X-15277Y-43688D02*
X-14621Y-43032D01*
X-13309D01*
X-12653Y-43688D01*
Y-46312D01*
X-13309Y-46968D01*
X-14621D01*
X-15277Y-46312D01*
Y-43688D01*
X-34468Y-9920D02*
Y-8608D01*
Y-9264D01*
X-30532D01*
Y-9920D01*
Y-8608D01*
X-34468Y-4016D02*
Y-6640D01*
X-32500D01*
X-33156Y-5328D01*
Y-4672D01*
X-32500Y-4016D01*
X-31188D01*
X-30532Y-4672D01*
Y-5984D01*
X-31188Y-6640D01*
X-34468Y-2704D02*
X-31844D01*
X-30532Y-1392D01*
X-31844Y-80D01*
X-34468D01*
X-34213Y-23032D02*
X-32901D01*
X-33557D01*
Y-26968D01*
X-34213D01*
X-32901D01*
X-28309Y-23688D02*
X-28965Y-23032D01*
X-30277D01*
X-30933Y-23688D01*
Y-26312D01*
X-30277Y-26968D01*
X-28965D01*
X-28309Y-26312D01*
Y-25000D01*
X-29621D01*
X-26997Y-26968D02*
Y-23032D01*
X-24373Y-26968D01*
Y-23032D01*
X-23061D02*
Y-26968D01*
X-21093D01*
X-20437Y-26312D01*
Y-23688D01*
X-21093Y-23032D01*
X-23061D01*
X-31589Y36968D02*
X-34213D01*
Y35000D01*
X-32901Y35656D01*
X-32245D01*
X-31589Y35000D01*
Y33688D01*
X-32245Y33032D01*
X-33557D01*
X-34213Y33688D01*
X-30277Y36968D02*
Y34344D01*
X-28965Y33032D01*
X-27653Y34344D01*
Y36968D01*
X-31589Y16312D02*
X-32245Y16968D01*
X-33557D01*
X-34213Y16312D01*
Y13688D01*
X-33557Y13032D01*
X-32245D01*
X-31589Y13688D01*
Y15000D01*
X-32901D01*
X-30277Y13032D02*
Y16968D01*
X-27653Y13032D01*
Y16968D01*
X-26341D02*
Y13032D01*
X-24373D01*
X-23717Y13688D01*
Y16312D01*
X-24373Y16968D01*
X-26341D01*
X-42321Y55117D02*
X-41009D01*
X-41665D01*
Y51182D01*
X-42321D01*
X-41009D01*
X-36418Y55117D02*
X-39042D01*
Y53150D01*
X-37730Y53806D01*
X-37074D01*
X-36418Y53150D01*
Y51838D01*
X-37074Y51182D01*
X-38385D01*
X-39042Y51838D01*
X-35106Y55117D02*
Y52494D01*
X-33794Y51182D01*
X-32482Y52494D01*
Y55117D01*
D11*
X242717Y-111811D02*
Y-108661D01*
X237598Y-111811D02*
Y-108661D01*
X258465Y-111811D02*
Y-108661D01*
X253346Y-111811D02*
Y-108661D01*
X242717Y-127559D02*
Y-124409D01*
X237598Y-127559D02*
Y-124409D01*
X258465Y-127559D02*
Y-124409D01*
X253346Y-127559D02*
Y-124409D01*
X-68504Y55709D02*
X-65354D01*
X-68504Y50591D02*
X-65354D01*
X-54724Y55709D02*
X-51575D01*
X-54724Y50591D02*
X-51575D01*
X-22559Y-84075D02*
Y-80925D01*
X-17441Y-84075D02*
Y-80925D01*
X-22559Y-144075D02*
Y-140925D01*
X-17441Y-144075D02*
Y-140925D01*
X-22559Y-204075D02*
Y-200925D01*
X-17441Y-204075D02*
Y-200925D01*
X-22559Y-264075D02*
Y-260925D01*
X-17441Y-264075D02*
Y-260925D01*
X314941Y-171575D02*
Y-168425D01*
X320059Y-171575D02*
Y-168425D01*
X103425Y-180059D02*
X106575D01*
X103425Y-174941D02*
X106575D01*
X143425Y-180059D02*
X146575D01*
X143425Y-174941D02*
X146575D01*
X163425Y-180059D02*
X166575D01*
X163425Y-174941D02*
X166575D01*
X203425Y-180059D02*
X206575D01*
X203425Y-174941D02*
X206575D01*
X223425Y-180059D02*
X226575D01*
X223425Y-174941D02*
X226575D01*
X263425Y-180059D02*
X266575D01*
X263425Y-174941D02*
X266575D01*
X280059Y-176575D02*
Y-173425D01*
X274941Y-176575D02*
Y-173425D01*
X207441Y-14075D02*
Y-10925D01*
X212559Y-14075D02*
Y-10925D01*
Y925D02*
Y4075D01*
X207441Y925D02*
Y4075D01*
X147441Y-14075D02*
Y-10925D01*
X152559Y-14075D02*
Y-10925D01*
Y925D02*
Y4075D01*
X147441Y925D02*
Y4075D01*
X87441Y-14075D02*
Y-10925D01*
X92559Y-14075D02*
Y-10925D01*
Y925D02*
Y4075D01*
X87441Y925D02*
Y4075D01*
X207559Y-221575D02*
Y-218425D01*
X202441Y-221575D02*
Y-218425D01*
X147559Y-221575D02*
Y-218425D01*
X142441Y-221575D02*
Y-218425D01*
X43425Y-174941D02*
X46575D01*
X43425Y-180059D02*
X46575D01*
X83425Y-174941D02*
X86575D01*
X83425Y-180059D02*
X86575D01*
X27559Y-221575D02*
Y-218425D01*
X22441Y-221575D02*
Y-218425D01*
X267559Y-221575D02*
Y-218425D01*
X262441Y-221575D02*
Y-218425D01*
X87559Y-221575D02*
Y-218425D01*
X82441Y-221575D02*
Y-218425D01*
X-7441Y-264075D02*
Y-260925D01*
X-12559Y-264075D02*
Y-260925D01*
X-7441Y-204075D02*
Y-200925D01*
X-12559Y-204075D02*
Y-200925D01*
X-7441Y-144075D02*
Y-140925D01*
X-12559Y-144075D02*
Y-140925D01*
X-7441Y-84075D02*
Y-80925D01*
X-12559Y-84075D02*
Y-80925D01*
X-32559Y-49075D02*
Y-45925D01*
X-27441Y-49075D02*
Y-45925D01*
X-32559Y-109075D02*
Y-105925D01*
X-27441Y-109075D02*
Y-105925D01*
Y-144075D02*
Y-140925D01*
X-32559Y-144075D02*
Y-140925D01*
Y-169075D02*
Y-165925D01*
X-27441Y-169075D02*
Y-165925D01*
Y-204075D02*
Y-200925D01*
X-32559Y-204075D02*
Y-200925D01*
Y-229075D02*
Y-225925D01*
X-27441Y-229075D02*
Y-225925D01*
Y-264075D02*
Y-260925D01*
X-32559Y-264075D02*
Y-260925D01*
X-27441Y-84075D02*
Y-80925D01*
X-32559Y-84075D02*
Y-80925D01*
X-27559Y-4075D02*
Y-925D01*
X-22441Y-4075D02*
Y-925D01*
X-17559Y-4075D02*
Y-925D01*
X-12441Y-4075D02*
Y-925D01*
X238583Y-109449D02*
X240158Y-111023D01*
X241732Y-109449D01*
X254331D02*
X255906Y-111023D01*
X257480Y-109449D01*
X241732Y-127034D02*
X238583D01*
Y-125460D01*
X239108Y-124935D01*
X240158D01*
X240682Y-125460D01*
Y-127034D01*
Y-125984D02*
X241732Y-124935D01*
X257480Y-127034D02*
X254331D01*
Y-125460D01*
X254856Y-124935D01*
X255906D01*
X256430Y-125460D01*
Y-127034D01*
Y-125984D02*
X257480Y-124935D01*
X-67716Y51575D02*
X-66142Y53150D01*
X-67716Y54724D01*
X-52100Y54724D02*
Y51575D01*
X-53674D01*
X-54199Y52100D01*
Y53150D01*
X-53674Y53674D01*
X-52100D01*
X-53150D02*
X-54199Y54724D01*
X-21049Y-81450D02*
X-21574Y-81975D01*
Y-83025D01*
X-21049Y-83549D01*
X-18950D01*
X-18426Y-83025D01*
Y-81975D01*
X-18950Y-81450D01*
X-21050Y-141451D02*
X-21574Y-141975D01*
Y-143025D01*
X-21050Y-143550D01*
X-18950D01*
X-18426Y-143025D01*
Y-141975D01*
X-18950Y-141451D01*
X-21049Y-201450D02*
X-21574Y-201975D01*
Y-203025D01*
X-21049Y-203550D01*
X-18950D01*
X-18426Y-203025D01*
Y-201975D01*
X-18950Y-201450D01*
X-21049Y-261451D02*
X-21574Y-261975D01*
Y-263025D01*
X-21049Y-263549D01*
X-18950D01*
X-18426Y-263025D01*
Y-261975D01*
X-18950Y-261451D01*
X318549Y-171049D02*
X319074Y-170525D01*
Y-169475D01*
X318549Y-168950D01*
X316451D01*
X315926Y-169475D01*
Y-170525D01*
X316451Y-171049D01*
X103951Y-178550D02*
X104475Y-179074D01*
X105525D01*
X106050Y-178550D01*
Y-176451D01*
X105525Y-175926D01*
X104475D01*
X103951Y-176451D01*
X143950Y-178550D02*
X144475Y-179074D01*
X145525D01*
X146049Y-178550D01*
Y-176451D01*
X145525Y-175926D01*
X144475D01*
X143950Y-176451D01*
X163951Y-178550D02*
X164475Y-179074D01*
X165525D01*
X166050Y-178550D01*
Y-176451D01*
X165525Y-175926D01*
X164475D01*
X163951Y-176451D01*
X203951Y-178550D02*
X204475Y-179074D01*
X205525D01*
X206049Y-178550D01*
Y-176451D01*
X205525Y-175926D01*
X204475D01*
X203951Y-176451D01*
X223951Y-178550D02*
X224475Y-179074D01*
X225525D01*
X226049Y-178550D01*
Y-176451D01*
X225525Y-175926D01*
X224475D01*
X223951Y-176451D01*
X263950Y-178550D02*
X264475Y-179074D01*
X265525D01*
X266050Y-178550D01*
Y-176451D01*
X265525Y-175926D01*
X264475D01*
X263950Y-176451D01*
X278550Y-176049D02*
X279074Y-175525D01*
Y-174475D01*
X278550Y-173951D01*
X276450D01*
X275926Y-174475D01*
Y-175525D01*
X276450Y-176049D01*
X211050Y-13550D02*
X211574Y-13025D01*
Y-11975D01*
X211050Y-11451D01*
X208950D01*
X208426Y-11975D01*
Y-13025D01*
X208950Y-13550D01*
X208950Y3550D02*
X208426Y3025D01*
Y1975D01*
X208950Y1450D01*
X211050D01*
X211574Y1975D01*
Y3025D01*
X211050Y3550D01*
X151049Y-13550D02*
X151574Y-13025D01*
Y-11975D01*
X151049Y-11451D01*
X148951D01*
X148426Y-11975D01*
Y-13025D01*
X148951Y-13550D01*
X148950Y3550D02*
X148426Y3025D01*
Y1975D01*
X148950Y1450D01*
X151049D01*
X151574Y1975D01*
Y3025D01*
X151049Y3550D01*
X91049Y-13550D02*
X91574Y-13025D01*
Y-11975D01*
X91049Y-11451D01*
X88951D01*
X88426Y-11975D01*
Y-13025D01*
X88951Y-13550D01*
X88950Y3550D02*
X88426Y3025D01*
Y1975D01*
X88950Y1450D01*
X91049D01*
X91574Y1975D01*
Y3025D01*
X91049Y3550D01*
X203951Y-218951D02*
X203426Y-219475D01*
Y-220525D01*
X203951Y-221049D01*
X206049D01*
X206574Y-220525D01*
Y-219475D01*
X206049Y-218951D01*
X143950D02*
X143426Y-219475D01*
Y-220525D01*
X143950Y-221049D01*
X146049D01*
X146574Y-220525D01*
Y-219475D01*
X146049Y-218951D01*
X43951Y-178550D02*
X44475Y-179074D01*
X45525D01*
X46049Y-178550D01*
Y-176451D01*
X45525Y-175926D01*
X44475D01*
X43951Y-176451D01*
X83950Y-178550D02*
X84475Y-179074D01*
X85525D01*
X86049Y-178550D01*
Y-176451D01*
X85525Y-175926D01*
X84475D01*
X83950Y-176451D01*
X23950Y-218951D02*
X23426Y-219475D01*
Y-220525D01*
X23950Y-221049D01*
X26050D01*
X26574Y-220525D01*
Y-219475D01*
X26050Y-218951D01*
X263950Y-218951D02*
X263426Y-219475D01*
Y-220525D01*
X263950Y-221049D01*
X266050D01*
X266574Y-220525D01*
Y-219475D01*
X266050Y-218951D01*
X83951Y-218951D02*
X83426Y-219475D01*
Y-220525D01*
X83951Y-221049D01*
X86049D01*
X86574Y-220525D01*
Y-219475D01*
X86049Y-218951D01*
X-11050Y-261451D02*
X-11574Y-261975D01*
Y-263025D01*
X-11050Y-263549D01*
X-8951D01*
X-8426Y-263025D01*
Y-261975D01*
X-8951Y-261451D01*
X-11050Y-201450D02*
X-11574Y-201975D01*
Y-203025D01*
X-11050Y-203550D01*
X-8951D01*
X-8426Y-203025D01*
Y-201975D01*
X-8951Y-201450D01*
X-11050Y-141451D02*
X-11574Y-141975D01*
Y-143025D01*
X-11050Y-143550D01*
X-8951D01*
X-8426Y-143025D01*
Y-141975D01*
X-8951Y-141451D01*
X-11050Y-81450D02*
X-11574Y-81975D01*
Y-83025D01*
X-11050Y-83549D01*
X-8951D01*
X-8426Y-83025D01*
Y-81975D01*
X-8951Y-81450D01*
X-28426Y-48550D02*
X-31574D01*
Y-46975D01*
X-31049Y-46450D01*
X-30000D01*
X-29475Y-46975D01*
Y-48550D01*
Y-47500D02*
X-28426Y-46450D01*
Y-108549D02*
X-31574D01*
Y-106975D01*
X-31049Y-106450D01*
X-30000D01*
X-29475Y-106975D01*
Y-108549D01*
Y-107500D02*
X-28426Y-106450D01*
X-31574Y-141451D02*
X-28426D01*
Y-143025D01*
X-28951Y-143550D01*
X-30000D01*
X-30525Y-143025D01*
Y-141451D01*
Y-142500D02*
X-31574Y-143550D01*
X-28426Y-168550D02*
X-31574D01*
Y-166975D01*
X-31049Y-166451D01*
X-30000D01*
X-29475Y-166975D01*
Y-168550D01*
Y-167500D02*
X-28426Y-166451D01*
X-31574Y-201450D02*
X-28426D01*
Y-203025D01*
X-28951Y-203550D01*
X-30000D01*
X-30525Y-203025D01*
Y-201450D01*
Y-202500D02*
X-31574Y-203550D01*
X-28426Y-228550D02*
X-31574D01*
Y-226975D01*
X-31049Y-226450D01*
X-30000D01*
X-29475Y-226975D01*
Y-228550D01*
Y-227500D02*
X-28426Y-226450D01*
X-31574Y-261451D02*
X-28426D01*
Y-263025D01*
X-28951Y-263549D01*
X-30000D01*
X-30525Y-263025D01*
Y-261451D01*
Y-262500D02*
X-31574Y-263549D01*
Y-81450D02*
X-28426D01*
Y-83025D01*
X-28951Y-83549D01*
X-30000D01*
X-30525Y-83025D01*
Y-81450D01*
Y-82500D02*
X-31574Y-83549D01*
X-23950Y-3550D02*
X-23426Y-3025D01*
Y-1975D01*
X-23950Y-1450D01*
X-26050D01*
X-26574Y-1975D01*
Y-3025D01*
X-26050Y-3550D01*
X-13950D02*
X-13426Y-3025D01*
Y-1975D01*
X-13950Y-1450D01*
X-16049D01*
X-16574Y-1975D01*
Y-3025D01*
X-16049Y-3550D01*
M02*
