G04*
G04 #@! TF.GenerationSoftware,Altium Limited,Altium Designer,24.5.2 (23)*
G04*
G04 Layer_Color=16777215*
%FSLAX25Y25*%
%MOIN*%
G70*
G04*
G04 #@! TF.SameCoordinates,5896D42C-AEC6-4B40-896E-768CB86E770B*
G04*
G04*
G04 #@! TF.FilePolarity,Positive*
G04*
G01*
G75*
%ADD10C,0.00591*%
%ADD11C,0.00787*%
G36*
X31549Y94655D02*
X31607Y94651D01*
X31677Y94647D01*
X31753Y94640D01*
X31837Y94633D01*
X31924Y94622D01*
X32019Y94607D01*
X32212Y94571D01*
X32310Y94549D01*
X32408Y94524D01*
X32503Y94491D01*
X32594Y94454D01*
Y93748D01*
X32590Y93752D01*
X32572Y93763D01*
X32547Y93777D01*
X32510Y93799D01*
X32463Y93821D01*
X32408Y93850D01*
X32346Y93876D01*
X32274Y93908D01*
X32193Y93937D01*
X32106Y93967D01*
X32015Y93992D01*
X31913Y94014D01*
X31808Y94036D01*
X31695Y94050D01*
X31578Y94061D01*
X31458Y94065D01*
X31429D01*
X31393Y94061D01*
X31349Y94058D01*
X31291Y94050D01*
X31225Y94043D01*
X31152Y94029D01*
X31076Y94010D01*
X30989Y93988D01*
X30901Y93959D01*
X30814Y93923D01*
X30723Y93879D01*
X30632Y93832D01*
X30541Y93774D01*
X30454Y93704D01*
X30373Y93628D01*
X30370Y93624D01*
X30355Y93610D01*
X30333Y93584D01*
X30308Y93548D01*
X30275Y93504D01*
X30239Y93453D01*
X30202Y93392D01*
X30162Y93322D01*
X30122Y93246D01*
X30086Y93162D01*
X30049Y93068D01*
X30017Y92969D01*
X29991Y92860D01*
X29969Y92747D01*
X29955Y92627D01*
X29951Y92500D01*
Y92496D01*
Y92492D01*
Y92481D01*
Y92467D01*
X29955Y92431D01*
X29959Y92383D01*
X29962Y92321D01*
X29969Y92252D01*
X29980Y92176D01*
X29999Y92096D01*
X30017Y92005D01*
X30039Y91914D01*
X30071Y91823D01*
X30104Y91728D01*
X30148Y91637D01*
X30195Y91546D01*
X30250Y91462D01*
X30315Y91382D01*
X30319Y91378D01*
X30333Y91364D01*
X30352Y91346D01*
X30381Y91320D01*
X30417Y91287D01*
X30465Y91255D01*
X30515Y91215D01*
X30574Y91178D01*
X30643Y91142D01*
X30716Y91102D01*
X30796Y91069D01*
X30887Y91040D01*
X30981Y91011D01*
X31080Y90993D01*
X31189Y90978D01*
X31302Y90974D01*
X31342D01*
X31374Y90978D01*
X31411D01*
X31455Y90982D01*
X31502Y90989D01*
X31556Y90996D01*
X31669Y91014D01*
X31793Y91044D01*
X31920Y91084D01*
X31982Y91109D01*
X32041Y91138D01*
Y92121D01*
X31171D01*
Y92700D01*
X32725D01*
Y90734D01*
X32718Y90731D01*
X32696Y90720D01*
X32659Y90702D01*
X32612Y90680D01*
X32550Y90654D01*
X32481Y90621D01*
X32397Y90592D01*
X32303Y90560D01*
X32201Y90523D01*
X32092Y90494D01*
X31971Y90465D01*
X31848Y90436D01*
X31713Y90414D01*
X31578Y90396D01*
X31433Y90385D01*
X31287Y90381D01*
X31247D01*
X31225Y90385D01*
X31200D01*
X31167Y90389D01*
X31134D01*
X31058Y90399D01*
X30967Y90410D01*
X30865Y90429D01*
X30756Y90454D01*
X30639Y90483D01*
X30519Y90519D01*
X30395Y90567D01*
X30272Y90621D01*
X30148Y90687D01*
X30024Y90763D01*
X29908Y90851D01*
X29798Y90949D01*
X29791Y90956D01*
X29773Y90974D01*
X29747Y91007D01*
X29711Y91055D01*
X29667Y91109D01*
X29620Y91178D01*
X29569Y91262D01*
X29514Y91353D01*
X29460Y91455D01*
X29409Y91571D01*
X29362Y91695D01*
X29318Y91830D01*
X29281Y91972D01*
X29256Y92128D01*
X29238Y92292D01*
X29230Y92463D01*
Y92467D01*
Y92474D01*
Y92489D01*
Y92507D01*
X29234Y92529D01*
Y92558D01*
X29238Y92587D01*
X29241Y92623D01*
X29245Y92664D01*
X29249Y92703D01*
X29263Y92798D01*
X29281Y92907D01*
X29307Y93020D01*
X29340Y93144D01*
X29383Y93271D01*
X29434Y93402D01*
X29493Y93533D01*
X29565Y93664D01*
X29649Y93796D01*
X29744Y93919D01*
X29795Y93981D01*
X29853Y94039D01*
X29857Y94043D01*
X29860Y94047D01*
X29882Y94065D01*
X29919Y94098D01*
X29966Y94138D01*
X30028Y94181D01*
X30101Y94236D01*
X30188Y94291D01*
X30283Y94349D01*
X30392Y94407D01*
X30512Y94462D01*
X30643Y94516D01*
X30781Y94560D01*
X30930Y94600D01*
X31091Y94633D01*
X31258Y94651D01*
X31433Y94658D01*
X31498D01*
X31549Y94655D01*
D02*
G37*
G36*
X37126Y90450D02*
X36376D01*
X34399Y93490D01*
X34396Y93493D01*
X34388Y93512D01*
X34374Y93533D01*
X34356Y93563D01*
X34337Y93599D01*
X34316Y93639D01*
X34275Y93730D01*
X34257D01*
Y93723D01*
X34261Y93715D01*
Y93704D01*
Y93686D01*
X34265Y93664D01*
Y93639D01*
X34268Y93610D01*
X34272Y93573D01*
Y93533D01*
X34275Y93486D01*
Y93435D01*
Y93377D01*
X34279Y93311D01*
Y93242D01*
Y93162D01*
Y90450D01*
X33617D01*
Y94589D01*
X34418D01*
X36325Y91619D01*
Y91615D01*
X36332Y91611D01*
X36343Y91590D01*
X36365Y91557D01*
X36390Y91517D01*
X36416Y91477D01*
X36445Y91433D01*
X36467Y91393D01*
X36481Y91364D01*
X36492D01*
Y91368D01*
Y91371D01*
X36489Y91382D01*
Y91397D01*
X36485Y91415D01*
Y91437D01*
X36481Y91462D01*
Y91495D01*
X36478Y91531D01*
X36474Y91571D01*
Y91619D01*
X36470Y91670D01*
Y91724D01*
X36467Y91783D01*
Y91852D01*
Y91921D01*
Y94589D01*
X37126D01*
Y90450D01*
D02*
G37*
G36*
X39444Y94585D02*
X39495Y94582D01*
X39557Y94574D01*
X39626Y94567D01*
X39703Y94556D01*
X39786Y94545D01*
X39878Y94527D01*
X39972Y94505D01*
X40070Y94484D01*
X40172Y94454D01*
X40278Y94422D01*
X40383Y94382D01*
X40493Y94338D01*
X40598Y94287D01*
X40704Y94229D01*
X40809Y94167D01*
X40911Y94098D01*
X41010Y94018D01*
X41104Y93934D01*
X41195Y93839D01*
X41279Y93737D01*
X41355Y93624D01*
X41425Y93504D01*
X41486Y93377D01*
X41537Y93235D01*
X41577Y93086D01*
X41610Y92926D01*
X41628Y92751D01*
X41636Y92569D01*
Y92565D01*
Y92558D01*
Y92543D01*
Y92525D01*
X41632Y92503D01*
Y92478D01*
X41628Y92445D01*
X41625Y92409D01*
X41621Y92372D01*
X41617Y92329D01*
X41603Y92234D01*
X41581Y92132D01*
X41556Y92019D01*
X41523Y91899D01*
X41479Y91772D01*
X41428Y91644D01*
X41366Y91517D01*
X41293Y91386D01*
X41210Y91262D01*
X41111Y91142D01*
X41057Y91084D01*
X40999Y91029D01*
X40991Y91022D01*
X40980Y91014D01*
X40969Y91004D01*
X40933Y90974D01*
X40882Y90938D01*
X40820Y90894D01*
X40744Y90847D01*
X40653Y90793D01*
X40547Y90741D01*
X40434Y90687D01*
X40307Y90632D01*
X40165Y90585D01*
X40016Y90541D01*
X39852Y90505D01*
X39677Y90476D01*
X39495Y90458D01*
X39299Y90450D01*
X38152D01*
Y94589D01*
X39404D01*
X39444Y94585D01*
D02*
G37*
G36*
X-33622Y90489D02*
X-34390D01*
X-35850Y94627D01*
X-35100D01*
X-34081Y91486D01*
X-34077Y91479D01*
X-34073Y91461D01*
X-34063Y91428D01*
X-34052Y91388D01*
X-34041Y91337D01*
X-34026Y91275D01*
X-34015Y91209D01*
X-34004Y91136D01*
X-33994D01*
Y91140D01*
Y91144D01*
X-33990Y91166D01*
X-33983Y91198D01*
X-33975Y91242D01*
X-33964Y91293D01*
X-33950Y91355D01*
X-33932Y91420D01*
X-33910Y91490D01*
X-32865Y94627D01*
X-32137D01*
X-33622Y90489D01*
D02*
G37*
G36*
X-36469Y94056D02*
X-37950D01*
X-38019Y93015D01*
X-38001D01*
X-37986Y93018D01*
X-37950D01*
X-37899Y93022D01*
X-37845Y93026D01*
X-37783D01*
X-37659Y93029D01*
X-37630D01*
X-37597Y93026D01*
X-37550D01*
X-37495Y93018D01*
X-37433Y93011D01*
X-37360Y93000D01*
X-37284Y92986D01*
X-37204Y92967D01*
X-37120Y92946D01*
X-37036Y92920D01*
X-36953Y92887D01*
X-36869Y92847D01*
X-36789Y92804D01*
X-36713Y92749D01*
X-36643Y92691D01*
X-36640Y92687D01*
X-36629Y92676D01*
X-36611Y92654D01*
X-36585Y92629D01*
X-36560Y92596D01*
X-36531Y92552D01*
X-36498Y92505D01*
X-36461Y92447D01*
X-36429Y92385D01*
X-36396Y92316D01*
X-36367Y92239D01*
X-36338Y92159D01*
X-36316Y92068D01*
X-36298Y91974D01*
X-36287Y91872D01*
X-36283Y91766D01*
Y91759D01*
Y91741D01*
X-36287Y91708D01*
X-36290Y91664D01*
X-36294Y91613D01*
X-36305Y91551D01*
X-36316Y91486D01*
X-36334Y91413D01*
X-36356Y91337D01*
X-36385Y91257D01*
X-36418Y91173D01*
X-36458Y91089D01*
X-36505Y91009D01*
X-36560Y90929D01*
X-36621Y90853D01*
X-36694Y90780D01*
X-36698Y90776D01*
X-36713Y90765D01*
X-36738Y90747D01*
X-36771Y90721D01*
X-36811Y90696D01*
X-36862Y90663D01*
X-36920Y90631D01*
X-36989Y90598D01*
X-37066Y90561D01*
X-37149Y90529D01*
X-37244Y90496D01*
X-37342Y90470D01*
X-37451Y90445D01*
X-37568Y90427D01*
X-37692Y90416D01*
X-37823Y90412D01*
X-37881D01*
X-37921Y90416D01*
X-37972D01*
X-38030Y90419D01*
X-38096Y90427D01*
X-38165Y90434D01*
X-38311Y90452D01*
X-38460Y90481D01*
X-38536Y90503D01*
X-38605Y90525D01*
X-38671Y90551D01*
X-38729Y90580D01*
Y91224D01*
X-38726Y91220D01*
X-38711Y91213D01*
X-38689Y91198D01*
X-38660Y91180D01*
X-38620Y91162D01*
X-38576Y91136D01*
X-38529Y91115D01*
X-38474Y91089D01*
X-38412Y91064D01*
X-38347Y91038D01*
X-38281Y91013D01*
X-38209Y90995D01*
X-38136Y90976D01*
X-38059Y90962D01*
X-37979Y90955D01*
X-37903Y90951D01*
X-37863D01*
X-37834Y90955D01*
X-37797Y90958D01*
X-37757Y90962D01*
X-37710Y90969D01*
X-37659Y90976D01*
X-37553Y91002D01*
X-37495Y91020D01*
X-37440Y91042D01*
X-37382Y91067D01*
X-37328Y91097D01*
X-37277Y91129D01*
X-37226Y91166D01*
X-37222Y91169D01*
X-37215Y91176D01*
X-37200Y91188D01*
X-37186Y91206D01*
X-37168Y91228D01*
X-37146Y91253D01*
X-37120Y91282D01*
X-37095Y91319D01*
X-37073Y91355D01*
X-37047Y91399D01*
X-37026Y91446D01*
X-37007Y91497D01*
X-36993Y91551D01*
X-36978Y91610D01*
X-36971Y91672D01*
X-36967Y91737D01*
Y91741D01*
Y91752D01*
Y91770D01*
X-36971Y91795D01*
X-36975Y91825D01*
X-36982Y91861D01*
X-36989Y91897D01*
X-37000Y91937D01*
X-37015Y91981D01*
X-37033Y92028D01*
X-37051Y92072D01*
X-37077Y92119D01*
X-37109Y92163D01*
X-37142Y92207D01*
X-37182Y92247D01*
X-37229Y92287D01*
X-37233Y92290D01*
X-37240Y92294D01*
X-37255Y92305D01*
X-37277Y92316D01*
X-37306Y92334D01*
X-37335Y92349D01*
X-37375Y92367D01*
X-37419Y92385D01*
X-37470Y92403D01*
X-37524Y92421D01*
X-37586Y92440D01*
X-37652Y92454D01*
X-37725Y92465D01*
X-37804Y92476D01*
X-37888Y92480D01*
X-37976Y92483D01*
X-38056D01*
X-38085Y92480D01*
X-38125D01*
X-38165Y92476D01*
X-38216D01*
X-38270Y92472D01*
X-38332Y92469D01*
X-38401Y92465D01*
X-38478Y92458D01*
X-38565Y92454D01*
X-38656Y92447D01*
X-38507Y94627D01*
X-36469D01*
Y94056D01*
D02*
G37*
G36*
X34239Y-50094D02*
X34261D01*
X34286Y-50098D01*
X34341Y-50108D01*
X34406Y-50123D01*
X34475Y-50148D01*
X34541Y-50185D01*
X34603Y-50232D01*
X34607D01*
X34610Y-50239D01*
X34628Y-50258D01*
X34654Y-50287D01*
X34683Y-50327D01*
X34708Y-50381D01*
X34734Y-50440D01*
X34752Y-50512D01*
X34759Y-50549D01*
Y-50589D01*
Y-50592D01*
Y-50600D01*
Y-50611D01*
X34756Y-50625D01*
X34752Y-50665D01*
X34741Y-50716D01*
X34723Y-50775D01*
X34694Y-50836D01*
X34654Y-50895D01*
X34632Y-50924D01*
X34603Y-50953D01*
X34596Y-50960D01*
X34574Y-50975D01*
X34541Y-50997D01*
X34494Y-51022D01*
X34435Y-51047D01*
X34366Y-51069D01*
X34286Y-51084D01*
X34199Y-51091D01*
X34173D01*
X34159Y-51087D01*
X34137D01*
X34111Y-51084D01*
X34057Y-51073D01*
X33991Y-51055D01*
X33926Y-51029D01*
X33857Y-50993D01*
X33795Y-50946D01*
X33788Y-50938D01*
X33769Y-50920D01*
X33744Y-50887D01*
X33718Y-50847D01*
X33689Y-50793D01*
X33664Y-50735D01*
X33646Y-50665D01*
X33642Y-50629D01*
X33638Y-50589D01*
Y-50585D01*
Y-50578D01*
Y-50567D01*
X33642Y-50552D01*
X33646Y-50512D01*
X33656Y-50462D01*
X33678Y-50407D01*
X33704Y-50345D01*
X33744Y-50287D01*
X33766Y-50258D01*
X33795Y-50232D01*
X33798D01*
X33802Y-50225D01*
X33824Y-50210D01*
X33857Y-50188D01*
X33904Y-50159D01*
X33962Y-50134D01*
X34031Y-50112D01*
X34111Y-50098D01*
X34199Y-50090D01*
X34224D01*
X34239Y-50094D01*
D02*
G37*
G36*
X-13846Y-50094D02*
X-13824D01*
X-13798Y-50098D01*
X-13744Y-50108D01*
X-13678Y-50123D01*
X-13609Y-50148D01*
X-13543Y-50185D01*
X-13482Y-50232D01*
X-13478D01*
X-13474Y-50239D01*
X-13456Y-50258D01*
X-13431Y-50287D01*
X-13401Y-50327D01*
X-13376Y-50381D01*
X-13351Y-50440D01*
X-13332Y-50512D01*
X-13325Y-50549D01*
Y-50589D01*
Y-50592D01*
Y-50600D01*
Y-50611D01*
X-13329Y-50625D01*
X-13332Y-50665D01*
X-13343Y-50716D01*
X-13361Y-50775D01*
X-13390Y-50836D01*
X-13431Y-50895D01*
X-13452Y-50924D01*
X-13482Y-50953D01*
X-13489Y-50960D01*
X-13511Y-50975D01*
X-13543Y-50997D01*
X-13591Y-51022D01*
X-13649Y-51047D01*
X-13718Y-51069D01*
X-13798Y-51084D01*
X-13886Y-51091D01*
X-13911D01*
X-13926Y-51087D01*
X-13947D01*
X-13973Y-51084D01*
X-14028Y-51073D01*
X-14093Y-51055D01*
X-14159Y-51029D01*
X-14228Y-50993D01*
X-14290Y-50946D01*
X-14297Y-50938D01*
X-14315Y-50920D01*
X-14341Y-50887D01*
X-14366Y-50847D01*
X-14395Y-50793D01*
X-14421Y-50735D01*
X-14439Y-50665D01*
X-14443Y-50629D01*
X-14446Y-50589D01*
Y-50585D01*
Y-50578D01*
Y-50567D01*
X-14443Y-50552D01*
X-14439Y-50512D01*
X-14428Y-50462D01*
X-14406Y-50407D01*
X-14381Y-50345D01*
X-14341Y-50287D01*
X-14319Y-50258D01*
X-14290Y-50232D01*
X-14286D01*
X-14282Y-50225D01*
X-14261Y-50210D01*
X-14228Y-50188D01*
X-14180Y-50159D01*
X-14122Y-50134D01*
X-14053Y-50112D01*
X-13973Y-50098D01*
X-13886Y-50090D01*
X-13860D01*
X-13846Y-50094D01*
D02*
G37*
G36*
X21339Y-54742D02*
X20367D01*
Y-54309D01*
X20352D01*
X20349Y-54316D01*
X20338Y-54331D01*
X20316Y-54356D01*
X20290Y-54389D01*
X20258Y-54425D01*
X20214Y-54469D01*
X20163Y-54516D01*
X20105Y-54564D01*
X20043Y-54611D01*
X19970Y-54658D01*
X19890Y-54698D01*
X19803Y-54738D01*
X19704Y-54771D01*
X19602Y-54797D01*
X19493Y-54811D01*
X19377Y-54818D01*
X19351D01*
X19319Y-54815D01*
X19278Y-54811D01*
X19228Y-54804D01*
X19173Y-54797D01*
X19107Y-54782D01*
X19038Y-54768D01*
X18962Y-54746D01*
X18885Y-54717D01*
X18805Y-54684D01*
X18729Y-54644D01*
X18649Y-54597D01*
X18572Y-54542D01*
X18496Y-54476D01*
X18427Y-54404D01*
X18423Y-54400D01*
X18412Y-54385D01*
X18394Y-54360D01*
X18372Y-54327D01*
X18343Y-54283D01*
X18314Y-54233D01*
X18281Y-54171D01*
X18248Y-54102D01*
X18216Y-54021D01*
X18183Y-53934D01*
X18154Y-53839D01*
X18125Y-53734D01*
X18103Y-53625D01*
X18085Y-53505D01*
X18074Y-53373D01*
X18070Y-53239D01*
Y-53235D01*
Y-53232D01*
Y-53221D01*
Y-53202D01*
Y-53184D01*
X18074Y-53162D01*
X18077Y-53108D01*
X18081Y-53042D01*
X18092Y-52966D01*
X18103Y-52882D01*
X18121Y-52787D01*
X18139Y-52689D01*
X18168Y-52591D01*
X18197Y-52485D01*
X18237Y-52380D01*
X18281Y-52278D01*
X18336Y-52176D01*
X18398Y-52078D01*
X18467Y-51987D01*
X18470Y-51983D01*
X18485Y-51965D01*
X18507Y-51943D01*
X18540Y-51914D01*
X18580Y-51877D01*
X18627Y-51837D01*
X18681Y-51794D01*
X18747Y-51750D01*
X18816Y-51706D01*
X18896Y-51663D01*
X18980Y-51623D01*
X19071Y-51586D01*
X19169Y-51557D01*
X19275Y-51535D01*
X19388Y-51517D01*
X19504Y-51513D01*
X19530D01*
X19562Y-51517D01*
X19602Y-51521D01*
X19653Y-51528D01*
X19712Y-51535D01*
X19773Y-51550D01*
X19839Y-51568D01*
X19908Y-51594D01*
X19981Y-51623D01*
X20054Y-51655D01*
X20123Y-51699D01*
X20188Y-51750D01*
X20250Y-51808D01*
X20309Y-51877D01*
X20356Y-51954D01*
X20367D01*
Y-50076D01*
X21339D01*
Y-54742D01*
D02*
G37*
G36*
X16479Y-51517D02*
X16505D01*
X16534Y-51521D01*
X16563Y-51528D01*
X16599Y-51535D01*
X16680Y-51553D01*
X16767Y-51583D01*
X16861Y-51623D01*
X16913Y-51648D01*
X16960Y-51677D01*
X17011Y-51706D01*
X17058Y-51746D01*
X17105Y-51786D01*
X17153Y-51830D01*
X17196Y-51881D01*
X17240Y-51936D01*
X17284Y-51998D01*
X17320Y-52063D01*
X17357Y-52132D01*
X17386Y-52209D01*
X17415Y-52292D01*
X17440Y-52383D01*
X17458Y-52482D01*
X17473Y-52584D01*
X17480Y-52696D01*
X17484Y-52813D01*
Y-54742D01*
X16516D01*
Y-52995D01*
Y-52991D01*
Y-52988D01*
Y-52977D01*
Y-52962D01*
X16512Y-52926D01*
X16508Y-52878D01*
X16501Y-52824D01*
X16487Y-52762D01*
X16472Y-52696D01*
X16450Y-52627D01*
X16421Y-52558D01*
X16388Y-52493D01*
X16345Y-52431D01*
X16294Y-52376D01*
X16235Y-52329D01*
X16166Y-52292D01*
X16126Y-52278D01*
X16083Y-52267D01*
X16039Y-52263D01*
X15992Y-52260D01*
X15966D01*
X15948Y-52263D01*
X15926Y-52267D01*
X15904Y-52271D01*
X15842Y-52285D01*
X15777Y-52307D01*
X15708Y-52343D01*
X15671Y-52365D01*
X15639Y-52391D01*
X15606Y-52420D01*
X15573Y-52456D01*
Y-52460D01*
X15566Y-52464D01*
X15558Y-52474D01*
X15548Y-52493D01*
X15537Y-52511D01*
X15522Y-52533D01*
X15507Y-52558D01*
X15493Y-52591D01*
X15464Y-52660D01*
X15438Y-52744D01*
X15420Y-52842D01*
X15416Y-52893D01*
X15413Y-52948D01*
Y-54742D01*
X14441D01*
Y-51590D01*
X15413D01*
Y-52092D01*
X15424D01*
X15427Y-52085D01*
X15438Y-52067D01*
X15460Y-52038D01*
X15489Y-52001D01*
X15526Y-51957D01*
X15569Y-51910D01*
X15620Y-51856D01*
X15678Y-51801D01*
X15748Y-51750D01*
X15824Y-51695D01*
X15904Y-51648D01*
X15995Y-51604D01*
X16093Y-51568D01*
X16203Y-51539D01*
X16316Y-51521D01*
X16436Y-51513D01*
X16461D01*
X16479Y-51517D01*
D02*
G37*
G36*
X33067Y-51539D02*
X33103D01*
X33140Y-51546D01*
X33180Y-51553D01*
X33220Y-51561D01*
X33256Y-51575D01*
Y-52471D01*
X33252D01*
X33249Y-52467D01*
X33238Y-52460D01*
X33223Y-52456D01*
X33187Y-52438D01*
X33140Y-52420D01*
X33078Y-52405D01*
X33009Y-52387D01*
X32928Y-52376D01*
X32845Y-52372D01*
X32816D01*
X32794Y-52376D01*
X32765Y-52380D01*
X32736Y-52383D01*
X32663Y-52402D01*
X32586Y-52431D01*
X32543Y-52449D01*
X32503Y-52471D01*
X32463Y-52496D01*
X32423Y-52529D01*
X32386Y-52565D01*
X32350Y-52605D01*
X32346Y-52609D01*
X32342Y-52616D01*
X32335Y-52631D01*
X32321Y-52649D01*
X32310Y-52671D01*
X32295Y-52700D01*
X32277Y-52733D01*
X32262Y-52773D01*
X32244Y-52816D01*
X32230Y-52864D01*
X32211Y-52915D01*
X32201Y-52969D01*
X32190Y-53031D01*
X32179Y-53097D01*
X32175Y-53166D01*
X32171Y-53239D01*
Y-54742D01*
X31199D01*
Y-51590D01*
X32171D01*
Y-52176D01*
X32182D01*
Y-52172D01*
X32186Y-52169D01*
X32193Y-52147D01*
X32208Y-52118D01*
X32226Y-52074D01*
X32255Y-52027D01*
X32288Y-51972D01*
X32324Y-51914D01*
X32372Y-51856D01*
X32426Y-51797D01*
X32484Y-51739D01*
X32554Y-51684D01*
X32630Y-51634D01*
X32714Y-51594D01*
X32805Y-51564D01*
X32903Y-51543D01*
X32958Y-51535D01*
X33038D01*
X33067Y-51539D01*
D02*
G37*
G36*
X10062Y-51539D02*
X10098D01*
X10135Y-51546D01*
X10175Y-51553D01*
X10215Y-51561D01*
X10251Y-51575D01*
Y-52471D01*
X10248D01*
X10244Y-52467D01*
X10233Y-52460D01*
X10219Y-52456D01*
X10182Y-52438D01*
X10135Y-52420D01*
X10073Y-52405D01*
X10004Y-52387D01*
X9924Y-52376D01*
X9840Y-52372D01*
X9811D01*
X9789Y-52376D01*
X9760Y-52380D01*
X9731Y-52383D01*
X9658Y-52402D01*
X9582Y-52431D01*
X9538Y-52449D01*
X9498Y-52471D01*
X9458Y-52496D01*
X9418Y-52529D01*
X9381Y-52565D01*
X9345Y-52605D01*
X9341Y-52609D01*
X9338Y-52616D01*
X9330Y-52631D01*
X9316Y-52649D01*
X9305Y-52671D01*
X9290Y-52700D01*
X9272Y-52733D01*
X9258Y-52773D01*
X9239Y-52816D01*
X9225Y-52864D01*
X9207Y-52915D01*
X9196Y-52969D01*
X9185Y-53031D01*
X9174Y-53097D01*
X9170Y-53166D01*
X9167Y-53239D01*
Y-54742D01*
X8195D01*
Y-51590D01*
X9167D01*
Y-52176D01*
X9178D01*
Y-52172D01*
X9181Y-52169D01*
X9188Y-52147D01*
X9203Y-52118D01*
X9221Y-52074D01*
X9250Y-52027D01*
X9283Y-51972D01*
X9319Y-51914D01*
X9367Y-51856D01*
X9421Y-51797D01*
X9480Y-51739D01*
X9549Y-51684D01*
X9625Y-51634D01*
X9709Y-51594D01*
X9800Y-51564D01*
X9898Y-51543D01*
X9953Y-51535D01*
X10033D01*
X10062Y-51539D01*
D02*
G37*
G36*
X-447Y-53173D02*
Y-54742D01*
X-1440D01*
Y-53192D01*
X-2842Y-50327D01*
X-1706D01*
X-996Y-51976D01*
Y-51979D01*
X-993Y-51987D01*
X-985Y-52008D01*
X-982Y-52019D01*
X-978Y-52038D01*
X-971Y-52059D01*
X-964Y-52085D01*
X-956Y-52114D01*
X-945Y-52147D01*
X-934Y-52187D01*
X-924Y-52231D01*
X-909Y-52281D01*
X-894Y-52336D01*
X-883D01*
Y-52332D01*
X-880Y-52325D01*
Y-52314D01*
X-876Y-52300D01*
X-869Y-52260D01*
X-854Y-52209D01*
X-843Y-52154D01*
X-825Y-52096D01*
X-807Y-52038D01*
X-785Y-51987D01*
X-61Y-50327D01*
X991D01*
X-447Y-53173D01*
D02*
G37*
G36*
X40212Y-51517D02*
X40278Y-51521D01*
X40350Y-51528D01*
X40427Y-51535D01*
X40507Y-51546D01*
X40518D01*
X40529Y-51550D01*
X40543Y-51553D01*
X40562Y-51557D01*
X40587Y-51561D01*
X40642Y-51572D01*
X40707Y-51583D01*
X40776Y-51601D01*
X40853Y-51619D01*
X40933Y-51641D01*
Y-52391D01*
X40929D01*
X40926Y-52387D01*
X40915Y-52380D01*
X40900Y-52372D01*
X40864Y-52354D01*
X40813Y-52332D01*
X40755Y-52303D01*
X40689Y-52278D01*
X40613Y-52252D01*
X40536Y-52231D01*
X40532D01*
X40525Y-52227D01*
X40514D01*
X40500Y-52223D01*
X40481Y-52216D01*
X40460Y-52212D01*
X40405Y-52201D01*
X40343Y-52194D01*
X40270Y-52183D01*
X40198Y-52179D01*
X40121Y-52176D01*
X40088D01*
X40063Y-52179D01*
X40034D01*
X40005Y-52183D01*
X39939Y-52194D01*
X39935D01*
X39925Y-52198D01*
X39910Y-52201D01*
X39888Y-52209D01*
X39841Y-52223D01*
X39790Y-52245D01*
X39786D01*
X39779Y-52252D01*
X39768Y-52260D01*
X39753Y-52267D01*
X39721Y-52292D01*
X39692Y-52329D01*
Y-52332D01*
X39684Y-52336D01*
X39681Y-52347D01*
X39673Y-52362D01*
X39663Y-52398D01*
X39655Y-52442D01*
Y-52445D01*
Y-52456D01*
X39659Y-52471D01*
X39663Y-52493D01*
X39670Y-52518D01*
X39677Y-52540D01*
X39692Y-52565D01*
X39710Y-52591D01*
X39713Y-52595D01*
X39721Y-52602D01*
X39732Y-52613D01*
X39750Y-52627D01*
X39768Y-52645D01*
X39794Y-52660D01*
X39852Y-52696D01*
X39855Y-52700D01*
X39866Y-52704D01*
X39888Y-52711D01*
X39910Y-52722D01*
X39939Y-52737D01*
X39976Y-52747D01*
X40052Y-52776D01*
X40056D01*
X40070Y-52784D01*
X40092Y-52791D01*
X40121Y-52798D01*
X40154Y-52809D01*
X40190Y-52824D01*
X40267Y-52849D01*
X40270D01*
X40274Y-52853D01*
X40285Y-52857D01*
X40299Y-52860D01*
X40336Y-52875D01*
X40383Y-52893D01*
X40438Y-52915D01*
X40500Y-52937D01*
X40562Y-52966D01*
X40620Y-52995D01*
X40623D01*
X40627Y-52999D01*
X40645Y-53009D01*
X40674Y-53028D01*
X40711Y-53049D01*
X40755Y-53075D01*
X40798Y-53108D01*
X40846Y-53144D01*
X40889Y-53184D01*
X40893Y-53188D01*
X40907Y-53202D01*
X40929Y-53224D01*
X40955Y-53253D01*
X40980Y-53293D01*
X41009Y-53333D01*
X41035Y-53384D01*
X41060Y-53435D01*
X41064Y-53443D01*
X41071Y-53461D01*
X41078Y-53494D01*
X41093Y-53534D01*
X41104Y-53585D01*
X41111Y-53643D01*
X41118Y-53708D01*
X41122Y-53781D01*
Y-53785D01*
Y-53792D01*
Y-53807D01*
Y-53829D01*
X41118Y-53854D01*
X41115Y-53879D01*
X41108Y-53945D01*
X41093Y-54021D01*
X41071Y-54102D01*
X41038Y-54185D01*
X40998Y-54262D01*
Y-54265D01*
X40995Y-54269D01*
X40987Y-54280D01*
X40977Y-54294D01*
X40951Y-54331D01*
X40915Y-54374D01*
X40867Y-54425D01*
X40813Y-54480D01*
X40747Y-54531D01*
X40674Y-54582D01*
X40671D01*
X40667Y-54586D01*
X40653Y-54593D01*
X40638Y-54604D01*
X40620Y-54611D01*
X40598Y-54626D01*
X40543Y-54651D01*
X40474Y-54680D01*
X40394Y-54709D01*
X40307Y-54738D01*
X40212Y-54760D01*
X40209D01*
X40201Y-54764D01*
X40187D01*
X40168Y-54768D01*
X40143Y-54775D01*
X40114Y-54778D01*
X40081Y-54782D01*
X40045Y-54789D01*
X39965Y-54800D01*
X39870Y-54808D01*
X39772Y-54815D01*
X39666Y-54818D01*
X39615D01*
X39579Y-54815D01*
X39531D01*
X39477Y-54811D01*
X39419Y-54804D01*
X39349Y-54797D01*
X39280Y-54789D01*
X39204Y-54778D01*
X39040Y-54749D01*
X38873Y-54709D01*
X38789Y-54688D01*
X38705Y-54658D01*
Y-53869D01*
X38709D01*
X38716Y-53876D01*
X38727Y-53883D01*
X38745Y-53894D01*
X38767Y-53905D01*
X38792Y-53920D01*
X38854Y-53949D01*
X38924Y-53985D01*
X39004Y-54021D01*
X39091Y-54058D01*
X39178Y-54087D01*
X39182D01*
X39189Y-54090D01*
X39204Y-54094D01*
X39218Y-54098D01*
X39240Y-54102D01*
X39266Y-54109D01*
X39324Y-54120D01*
X39397Y-54134D01*
X39473Y-54145D01*
X39553Y-54152D01*
X39633Y-54156D01*
X39677D01*
X39699Y-54152D01*
X39724D01*
X39783Y-54149D01*
X39848Y-54138D01*
X39914Y-54127D01*
X39979Y-54109D01*
X40041Y-54087D01*
X40048Y-54083D01*
X40063Y-54072D01*
X40088Y-54058D01*
X40117Y-54032D01*
X40143Y-54003D01*
X40168Y-53967D01*
X40183Y-53923D01*
X40190Y-53872D01*
Y-53869D01*
Y-53858D01*
X40187Y-53839D01*
X40183Y-53817D01*
X40172Y-53796D01*
X40161Y-53770D01*
X40143Y-53745D01*
X40121Y-53719D01*
X40117Y-53716D01*
X40110Y-53708D01*
X40092Y-53697D01*
X40074Y-53683D01*
X40048Y-53665D01*
X40019Y-53646D01*
X39983Y-53628D01*
X39946Y-53610D01*
X39943Y-53606D01*
X39928Y-53603D01*
X39906Y-53592D01*
X39877Y-53581D01*
X39845Y-53570D01*
X39804Y-53556D01*
X39761Y-53541D01*
X39713Y-53526D01*
X39710D01*
X39692Y-53519D01*
X39670Y-53512D01*
X39637Y-53501D01*
X39601Y-53490D01*
X39561Y-53475D01*
X39473Y-53443D01*
X39470D01*
X39466Y-53439D01*
X39455Y-53435D01*
X39440Y-53432D01*
X39408Y-53417D01*
X39360Y-53399D01*
X39309Y-53377D01*
X39255Y-53352D01*
X39197Y-53322D01*
X39142Y-53293D01*
X39135Y-53290D01*
X39120Y-53279D01*
X39091Y-53261D01*
X39058Y-53239D01*
X39022Y-53210D01*
X38982Y-53177D01*
X38942Y-53144D01*
X38902Y-53104D01*
X38898Y-53101D01*
X38887Y-53086D01*
X38869Y-53060D01*
X38847Y-53031D01*
X38822Y-52995D01*
X38796Y-52951D01*
X38774Y-52904D01*
X38752Y-52853D01*
X38749Y-52846D01*
X38745Y-52828D01*
X38738Y-52798D01*
X38731Y-52758D01*
X38720Y-52707D01*
X38712Y-52653D01*
X38709Y-52587D01*
X38705Y-52518D01*
Y-52514D01*
Y-52507D01*
Y-52493D01*
X38709Y-52474D01*
Y-52449D01*
X38712Y-52423D01*
X38720Y-52362D01*
X38734Y-52289D01*
X38752Y-52212D01*
X38782Y-52136D01*
X38818Y-52063D01*
Y-52059D01*
X38825Y-52056D01*
X38829Y-52045D01*
X38840Y-52030D01*
X38865Y-51998D01*
X38902Y-51954D01*
X38945Y-51903D01*
X38996Y-51852D01*
X39058Y-51801D01*
X39127Y-51754D01*
X39131D01*
X39135Y-51746D01*
X39146Y-51743D01*
X39160Y-51732D01*
X39178Y-51724D01*
X39200Y-51710D01*
X39255Y-51684D01*
X39320Y-51655D01*
X39393Y-51626D01*
X39477Y-51597D01*
X39568Y-51572D01*
X39571D01*
X39579Y-51568D01*
X39593Y-51564D01*
X39612Y-51561D01*
X39633Y-51557D01*
X39659Y-51553D01*
X39692Y-51546D01*
X39724Y-51543D01*
X39801Y-51532D01*
X39888Y-51521D01*
X39983Y-51517D01*
X40081Y-51513D01*
X40157D01*
X40212Y-51517D01*
D02*
G37*
G36*
X27276D02*
X27341Y-51521D01*
X27414Y-51528D01*
X27490Y-51535D01*
X27570Y-51546D01*
X27581D01*
X27592Y-51550D01*
X27607Y-51553D01*
X27625Y-51557D01*
X27650Y-51561D01*
X27705Y-51572D01*
X27771Y-51583D01*
X27840Y-51601D01*
X27916Y-51619D01*
X27996Y-51641D01*
Y-52391D01*
X27993D01*
X27989Y-52387D01*
X27978Y-52380D01*
X27964Y-52372D01*
X27927Y-52354D01*
X27876Y-52332D01*
X27818Y-52303D01*
X27752Y-52278D01*
X27676Y-52252D01*
X27599Y-52231D01*
X27596D01*
X27589Y-52227D01*
X27578D01*
X27563Y-52223D01*
X27545Y-52216D01*
X27523Y-52212D01*
X27468Y-52201D01*
X27407Y-52194D01*
X27334Y-52183D01*
X27261Y-52179D01*
X27185Y-52176D01*
X27152D01*
X27126Y-52179D01*
X27097D01*
X27068Y-52183D01*
X27003Y-52194D01*
X26999D01*
X26988Y-52198D01*
X26973Y-52201D01*
X26952Y-52209D01*
X26904Y-52223D01*
X26853Y-52245D01*
X26850D01*
X26842Y-52252D01*
X26831Y-52260D01*
X26817Y-52267D01*
X26784Y-52292D01*
X26755Y-52329D01*
Y-52332D01*
X26748Y-52336D01*
X26744Y-52347D01*
X26737Y-52362D01*
X26726Y-52398D01*
X26719Y-52442D01*
Y-52445D01*
Y-52456D01*
X26722Y-52471D01*
X26726Y-52493D01*
X26733Y-52518D01*
X26741Y-52540D01*
X26755Y-52565D01*
X26773Y-52591D01*
X26777Y-52595D01*
X26784Y-52602D01*
X26795Y-52613D01*
X26813Y-52627D01*
X26831Y-52645D01*
X26857Y-52660D01*
X26915Y-52696D01*
X26919Y-52700D01*
X26930Y-52704D01*
X26952Y-52711D01*
X26973Y-52722D01*
X27003Y-52737D01*
X27039Y-52747D01*
X27115Y-52776D01*
X27119D01*
X27134Y-52784D01*
X27155Y-52791D01*
X27185Y-52798D01*
X27217Y-52809D01*
X27254Y-52824D01*
X27330Y-52849D01*
X27334D01*
X27337Y-52853D01*
X27348Y-52857D01*
X27363Y-52860D01*
X27399Y-52875D01*
X27447Y-52893D01*
X27501Y-52915D01*
X27563Y-52937D01*
X27625Y-52966D01*
X27683Y-52995D01*
X27687D01*
X27691Y-52999D01*
X27709Y-53009D01*
X27738Y-53028D01*
X27774Y-53049D01*
X27818Y-53075D01*
X27862Y-53108D01*
X27909Y-53144D01*
X27953Y-53184D01*
X27956Y-53188D01*
X27971Y-53202D01*
X27993Y-53224D01*
X28018Y-53253D01*
X28044Y-53293D01*
X28073Y-53333D01*
X28098Y-53384D01*
X28124Y-53435D01*
X28127Y-53443D01*
X28135Y-53461D01*
X28142Y-53494D01*
X28156Y-53534D01*
X28167Y-53585D01*
X28175Y-53643D01*
X28182Y-53708D01*
X28186Y-53781D01*
Y-53785D01*
Y-53792D01*
Y-53807D01*
Y-53829D01*
X28182Y-53854D01*
X28178Y-53879D01*
X28171Y-53945D01*
X28156Y-54021D01*
X28135Y-54102D01*
X28102Y-54185D01*
X28062Y-54262D01*
Y-54265D01*
X28058Y-54269D01*
X28051Y-54280D01*
X28040Y-54294D01*
X28014Y-54331D01*
X27978Y-54374D01*
X27931Y-54425D01*
X27876Y-54480D01*
X27811Y-54531D01*
X27738Y-54582D01*
X27734D01*
X27731Y-54586D01*
X27716Y-54593D01*
X27701Y-54604D01*
X27683Y-54611D01*
X27661Y-54626D01*
X27607Y-54651D01*
X27538Y-54680D01*
X27458Y-54709D01*
X27370Y-54738D01*
X27276Y-54760D01*
X27272D01*
X27265Y-54764D01*
X27250D01*
X27232Y-54768D01*
X27206Y-54775D01*
X27177Y-54778D01*
X27145Y-54782D01*
X27108Y-54789D01*
X27028Y-54800D01*
X26933Y-54808D01*
X26835Y-54815D01*
X26730Y-54818D01*
X26679D01*
X26642Y-54815D01*
X26595D01*
X26540Y-54811D01*
X26482Y-54804D01*
X26413Y-54797D01*
X26344Y-54789D01*
X26267Y-54778D01*
X26103Y-54749D01*
X25936Y-54709D01*
X25852Y-54688D01*
X25769Y-54658D01*
Y-53869D01*
X25772D01*
X25780Y-53876D01*
X25790Y-53883D01*
X25809Y-53894D01*
X25831Y-53905D01*
X25856Y-53920D01*
X25918Y-53949D01*
X25987Y-53985D01*
X26067Y-54021D01*
X26154Y-54058D01*
X26242Y-54087D01*
X26245D01*
X26253Y-54090D01*
X26267Y-54094D01*
X26282Y-54098D01*
X26304Y-54102D01*
X26329Y-54109D01*
X26387Y-54120D01*
X26460Y-54134D01*
X26537Y-54145D01*
X26617Y-54152D01*
X26697Y-54156D01*
X26741D01*
X26762Y-54152D01*
X26788D01*
X26846Y-54149D01*
X26912Y-54138D01*
X26977Y-54127D01*
X27043Y-54109D01*
X27104Y-54087D01*
X27112Y-54083D01*
X27126Y-54072D01*
X27152Y-54058D01*
X27181Y-54032D01*
X27206Y-54003D01*
X27232Y-53967D01*
X27246Y-53923D01*
X27254Y-53872D01*
Y-53869D01*
Y-53858D01*
X27250Y-53839D01*
X27246Y-53817D01*
X27235Y-53796D01*
X27225Y-53770D01*
X27206Y-53745D01*
X27185Y-53719D01*
X27181Y-53716D01*
X27174Y-53708D01*
X27155Y-53697D01*
X27137Y-53683D01*
X27112Y-53665D01*
X27083Y-53646D01*
X27046Y-53628D01*
X27010Y-53610D01*
X27006Y-53606D01*
X26992Y-53603D01*
X26970Y-53592D01*
X26941Y-53581D01*
X26908Y-53570D01*
X26868Y-53556D01*
X26824Y-53541D01*
X26777Y-53526D01*
X26773D01*
X26755Y-53519D01*
X26733Y-53512D01*
X26700Y-53501D01*
X26664Y-53490D01*
X26624Y-53475D01*
X26537Y-53443D01*
X26533D01*
X26529Y-53439D01*
X26518Y-53435D01*
X26504Y-53432D01*
X26471Y-53417D01*
X26424Y-53399D01*
X26373Y-53377D01*
X26318Y-53352D01*
X26260Y-53322D01*
X26205Y-53293D01*
X26198Y-53290D01*
X26184Y-53279D01*
X26154Y-53261D01*
X26122Y-53239D01*
X26085Y-53210D01*
X26045Y-53177D01*
X26005Y-53144D01*
X25965Y-53104D01*
X25962Y-53101D01*
X25951Y-53086D01*
X25932Y-53060D01*
X25911Y-53031D01*
X25885Y-52995D01*
X25860Y-52951D01*
X25838Y-52904D01*
X25816Y-52853D01*
X25812Y-52846D01*
X25809Y-52828D01*
X25801Y-52798D01*
X25794Y-52758D01*
X25783Y-52707D01*
X25776Y-52653D01*
X25772Y-52587D01*
X25769Y-52518D01*
Y-52514D01*
Y-52507D01*
Y-52493D01*
X25772Y-52474D01*
Y-52449D01*
X25776Y-52423D01*
X25783Y-52362D01*
X25798Y-52289D01*
X25816Y-52212D01*
X25845Y-52136D01*
X25881Y-52063D01*
Y-52059D01*
X25889Y-52056D01*
X25892Y-52045D01*
X25903Y-52030D01*
X25929Y-51998D01*
X25965Y-51954D01*
X26009Y-51903D01*
X26060Y-51852D01*
X26122Y-51801D01*
X26191Y-51754D01*
X26195D01*
X26198Y-51746D01*
X26209Y-51743D01*
X26224Y-51732D01*
X26242Y-51724D01*
X26264Y-51710D01*
X26318Y-51684D01*
X26384Y-51655D01*
X26457Y-51626D01*
X26540Y-51597D01*
X26631Y-51572D01*
X26635D01*
X26642Y-51568D01*
X26657Y-51564D01*
X26675Y-51561D01*
X26697Y-51557D01*
X26722Y-51553D01*
X26755Y-51546D01*
X26788Y-51543D01*
X26864Y-51532D01*
X26952Y-51521D01*
X27046Y-51517D01*
X27145Y-51513D01*
X27221D01*
X27276Y-51517D01*
D02*
G37*
G36*
X25153Y-54742D02*
X24185D01*
Y-54262D01*
X24167D01*
X24163Y-54269D01*
X24149Y-54287D01*
X24131Y-54313D01*
X24102Y-54349D01*
X24065Y-54389D01*
X24021Y-54436D01*
X23970Y-54487D01*
X23912Y-54538D01*
X23847Y-54593D01*
X23774Y-54644D01*
X23694Y-54688D01*
X23610Y-54731D01*
X23519Y-54768D01*
X23421Y-54793D01*
X23315Y-54811D01*
X23206Y-54818D01*
X23181D01*
X23159Y-54815D01*
X23133D01*
X23104Y-54811D01*
X23071Y-54804D01*
X23035Y-54797D01*
X22951Y-54778D01*
X22860Y-54749D01*
X22762Y-54706D01*
X22711Y-54680D01*
X22660Y-54651D01*
X22605Y-54618D01*
X22555Y-54582D01*
X22507Y-54542D01*
X22456Y-54495D01*
X22409Y-54444D01*
X22365Y-54389D01*
X22321Y-54327D01*
X22282Y-54258D01*
X22245Y-54185D01*
X22212Y-54109D01*
X22183Y-54021D01*
X22158Y-53930D01*
X22136Y-53832D01*
X22121Y-53727D01*
X22114Y-53614D01*
X22110Y-53494D01*
Y-51590D01*
X23079D01*
Y-53406D01*
Y-53413D01*
Y-53435D01*
X23082Y-53468D01*
X23086Y-53512D01*
X23093Y-53559D01*
X23108Y-53617D01*
X23122Y-53676D01*
X23144Y-53737D01*
X23173Y-53803D01*
X23206Y-53861D01*
X23250Y-53920D01*
X23301Y-53967D01*
X23363Y-54010D01*
X23432Y-54043D01*
X23515Y-54065D01*
X23559Y-54069D01*
X23606Y-54072D01*
X23632D01*
X23650Y-54069D01*
X23672Y-54065D01*
X23697Y-54061D01*
X23756Y-54050D01*
X23825Y-54029D01*
X23894Y-53996D01*
X23927Y-53974D01*
X23963Y-53949D01*
X23996Y-53923D01*
X24025Y-53890D01*
X24029Y-53887D01*
X24032Y-53883D01*
X24040Y-53872D01*
X24050Y-53858D01*
X24061Y-53839D01*
X24076Y-53817D01*
X24091Y-53788D01*
X24105Y-53759D01*
X24120Y-53727D01*
X24134Y-53690D01*
X24160Y-53603D01*
X24178Y-53508D01*
X24185Y-53453D01*
Y-53395D01*
Y-51590D01*
X25153D01*
Y-54742D01*
D02*
G37*
G36*
X34679D02*
X33707D01*
Y-51590D01*
X34679D01*
Y-54742D01*
D02*
G37*
G36*
X13902Y-51095D02*
X13535D01*
Y-53974D01*
X13902D01*
Y-54742D01*
X12170D01*
X12173Y-53974D01*
X12541D01*
Y-51095D01*
X12173D01*
Y-50327D01*
X13902D01*
Y-51095D01*
D02*
G37*
G36*
X6134Y-51517D02*
X6164D01*
X6200Y-51521D01*
X6244Y-51528D01*
X6287Y-51535D01*
X6338Y-51543D01*
X6389Y-51553D01*
X6502Y-51583D01*
X6626Y-51626D01*
X6688Y-51652D01*
X6753Y-51681D01*
X6815Y-51714D01*
X6877Y-51754D01*
X6939Y-51794D01*
X7001Y-51841D01*
X7059Y-51896D01*
X7114Y-51950D01*
X7165Y-52012D01*
X7215Y-52081D01*
X7263Y-52154D01*
X7303Y-52234D01*
X7339Y-52321D01*
X7368Y-52416D01*
X7394Y-52514D01*
X7412Y-52624D01*
X7423Y-52737D01*
X7427Y-52860D01*
Y-54742D01*
X6506D01*
Y-54291D01*
X6491D01*
X6487Y-54298D01*
X6477Y-54313D01*
X6458Y-54338D01*
X6433Y-54374D01*
X6400Y-54414D01*
X6357Y-54458D01*
X6309Y-54505D01*
X6255Y-54553D01*
X6193Y-54604D01*
X6123Y-54651D01*
X6047Y-54695D01*
X5960Y-54735D01*
X5869Y-54771D01*
X5770Y-54797D01*
X5665Y-54811D01*
X5552Y-54819D01*
X5508D01*
X5476Y-54815D01*
X5439Y-54811D01*
X5392Y-54804D01*
X5345Y-54797D01*
X5290Y-54786D01*
X5232Y-54771D01*
X5173Y-54757D01*
X5115Y-54735D01*
X5053Y-54709D01*
X4995Y-54680D01*
X4937Y-54644D01*
X4882Y-54604D01*
X4831Y-54560D01*
X4828Y-54557D01*
X4820Y-54549D01*
X4806Y-54535D01*
X4791Y-54513D01*
X4769Y-54487D01*
X4748Y-54454D01*
X4726Y-54418D01*
X4700Y-54374D01*
X4675Y-54327D01*
X4653Y-54276D01*
X4631Y-54218D01*
X4609Y-54156D01*
X4595Y-54090D01*
X4580Y-54021D01*
X4573Y-53945D01*
X4569Y-53865D01*
Y-53861D01*
Y-53854D01*
Y-53843D01*
X4573Y-53825D01*
Y-53803D01*
X4577Y-53781D01*
X4587Y-53719D01*
X4602Y-53650D01*
X4628Y-53566D01*
X4660Y-53483D01*
X4704Y-53392D01*
X4762Y-53297D01*
X4795Y-53250D01*
X4835Y-53206D01*
X4875Y-53162D01*
X4922Y-53119D01*
X4973Y-53075D01*
X5028Y-53035D01*
X5086Y-52995D01*
X5152Y-52959D01*
X5221Y-52926D01*
X5297Y-52897D01*
X5377Y-52868D01*
X5465Y-52846D01*
X5556Y-52824D01*
X5654Y-52809D01*
X6513Y-52693D01*
Y-52685D01*
Y-52671D01*
X6509Y-52645D01*
X6506Y-52613D01*
X6495Y-52573D01*
X6484Y-52529D01*
X6466Y-52482D01*
X6444Y-52434D01*
X6411Y-52387D01*
X6375Y-52340D01*
X6331Y-52296D01*
X6276Y-52256D01*
X6211Y-52223D01*
X6134Y-52198D01*
X6047Y-52183D01*
X5949Y-52176D01*
X5923D01*
X5894Y-52179D01*
X5854D01*
X5803Y-52187D01*
X5745Y-52194D01*
X5676Y-52205D01*
X5603Y-52216D01*
X5523Y-52234D01*
X5439Y-52256D01*
X5352Y-52285D01*
X5261Y-52318D01*
X5166Y-52354D01*
X5072Y-52402D01*
X4973Y-52452D01*
X4879Y-52511D01*
Y-51779D01*
X4882D01*
X4890Y-51775D01*
X4901Y-51768D01*
X4915Y-51761D01*
X4937Y-51754D01*
X4962Y-51743D01*
X4992Y-51732D01*
X5024Y-51717D01*
X5061Y-51703D01*
X5101Y-51688D01*
X5148Y-51674D01*
X5195Y-51659D01*
X5250Y-51644D01*
X5308Y-51626D01*
X5366Y-51612D01*
X5432Y-51597D01*
X5436D01*
X5446Y-51594D01*
X5468Y-51590D01*
X5490Y-51583D01*
X5523Y-51579D01*
X5559Y-51572D01*
X5599Y-51564D01*
X5647Y-51553D01*
X5745Y-51539D01*
X5854Y-51528D01*
X5963Y-51517D01*
X6076Y-51513D01*
X6109D01*
X6134Y-51517D01*
D02*
G37*
G36*
X-7712Y-52059D02*
X-7701D01*
X-7698Y-52052D01*
X-7683Y-52038D01*
X-7665Y-52008D01*
X-7636Y-51976D01*
X-7599Y-51932D01*
X-7556Y-51888D01*
X-7505Y-51837D01*
X-7446Y-51786D01*
X-7381Y-51736D01*
X-7308Y-51684D01*
X-7228Y-51641D01*
X-7141Y-51597D01*
X-7050Y-51564D01*
X-6951Y-51535D01*
X-6846Y-51521D01*
X-6733Y-51513D01*
X-6707D01*
X-6686Y-51517D01*
X-6664D01*
X-6635Y-51521D01*
X-6602Y-51528D01*
X-6566Y-51535D01*
X-6485Y-51553D01*
X-6394Y-51583D01*
X-6296Y-51623D01*
X-6245Y-51648D01*
X-6194Y-51674D01*
X-6147Y-51706D01*
X-6096Y-51743D01*
X-6045Y-51783D01*
X-5998Y-51830D01*
X-5954Y-51881D01*
X-5907Y-51936D01*
X-5867Y-51994D01*
X-5827Y-52059D01*
X-5790Y-52132D01*
X-5757Y-52209D01*
X-5728Y-52292D01*
X-5706Y-52380D01*
X-5685Y-52478D01*
X-5670Y-52580D01*
X-5663Y-52693D01*
X-5659Y-52809D01*
Y-54742D01*
X-6627D01*
Y-52955D01*
Y-52951D01*
Y-52948D01*
Y-52926D01*
X-6631Y-52889D01*
X-6635Y-52846D01*
X-6642Y-52795D01*
X-6653Y-52737D01*
X-6671Y-52671D01*
X-6689Y-52605D01*
X-6718Y-52544D01*
X-6751Y-52478D01*
X-6791Y-52420D01*
X-6842Y-52369D01*
X-6900Y-52325D01*
X-6966Y-52289D01*
X-7046Y-52267D01*
X-7086Y-52263D01*
X-7133Y-52260D01*
X-7159D01*
X-7177Y-52263D01*
X-7199Y-52267D01*
X-7224Y-52271D01*
X-7283Y-52285D01*
X-7348Y-52307D01*
X-7417Y-52343D01*
X-7454Y-52365D01*
X-7486Y-52391D01*
X-7519Y-52420D01*
X-7552Y-52456D01*
Y-52460D01*
X-7559Y-52464D01*
X-7566Y-52474D01*
X-7577Y-52493D01*
X-7588Y-52511D01*
X-7603Y-52533D01*
X-7617Y-52558D01*
X-7632Y-52591D01*
X-7661Y-52660D01*
X-7687Y-52744D01*
X-7705Y-52842D01*
X-7709Y-52893D01*
X-7712Y-52948D01*
Y-54742D01*
X-8684D01*
Y-50076D01*
X-7712D01*
Y-52059D01*
D02*
G37*
G36*
X-13405Y-54742D02*
X-14377D01*
Y-51590D01*
X-13405D01*
Y-54742D01*
D02*
G37*
G36*
X-16506Y-53934D02*
X-14876D01*
Y-54742D01*
X-17500D01*
Y-50327D01*
X-16506D01*
Y-53934D01*
D02*
G37*
G36*
X36954Y-51517D02*
X37002Y-51521D01*
X37060Y-51524D01*
X37125Y-51535D01*
X37202Y-51546D01*
X37282Y-51564D01*
X37366Y-51586D01*
X37453Y-51615D01*
X37540Y-51648D01*
X37628Y-51688D01*
X37715Y-51736D01*
X37802Y-51790D01*
X37883Y-51852D01*
X37955Y-51925D01*
X37959Y-51928D01*
X37973Y-51943D01*
X37992Y-51968D01*
X38014Y-51998D01*
X38043Y-52041D01*
X38075Y-52092D01*
X38108Y-52150D01*
X38145Y-52216D01*
X38181Y-52292D01*
X38214Y-52376D01*
X38247Y-52467D01*
X38276Y-52565D01*
X38298Y-52671D01*
X38319Y-52784D01*
X38330Y-52908D01*
X38334Y-53035D01*
Y-53443D01*
X36277D01*
Y-53446D01*
Y-53450D01*
X36281Y-53472D01*
X36288Y-53505D01*
X36299Y-53548D01*
X36314Y-53603D01*
X36336Y-53661D01*
X36365Y-53723D01*
X36405Y-53785D01*
X36452Y-53850D01*
X36510Y-53912D01*
X36579Y-53970D01*
X36663Y-54021D01*
X36707Y-54047D01*
X36758Y-54069D01*
X36812Y-54087D01*
X36871Y-54102D01*
X36929Y-54112D01*
X36994Y-54123D01*
X37067Y-54127D01*
X37140Y-54131D01*
X37191D01*
X37227Y-54127D01*
X37275Y-54123D01*
X37326Y-54116D01*
X37384Y-54109D01*
X37449Y-54098D01*
X37519Y-54087D01*
X37591Y-54069D01*
X37668Y-54050D01*
X37748Y-54025D01*
X37824Y-53996D01*
X37904Y-53963D01*
X37981Y-53927D01*
X38057Y-53883D01*
Y-54586D01*
X38054Y-54589D01*
X38035Y-54597D01*
X38014Y-54607D01*
X37977Y-54622D01*
X37933Y-54640D01*
X37883Y-54658D01*
X37821Y-54680D01*
X37751Y-54702D01*
X37671Y-54724D01*
X37584Y-54746D01*
X37493Y-54764D01*
X37391Y-54782D01*
X37282Y-54797D01*
X37169Y-54808D01*
X37045Y-54815D01*
X36918Y-54818D01*
X36867D01*
X36845Y-54815D01*
X36790Y-54811D01*
X36729Y-54804D01*
X36652Y-54797D01*
X36572Y-54782D01*
X36485Y-54764D01*
X36390Y-54742D01*
X36292Y-54717D01*
X36194Y-54680D01*
X36095Y-54640D01*
X35997Y-54593D01*
X35902Y-54535D01*
X35815Y-54469D01*
X35731Y-54396D01*
X35728Y-54393D01*
X35713Y-54378D01*
X35691Y-54353D01*
X35666Y-54320D01*
X35633Y-54276D01*
X35600Y-54222D01*
X35560Y-54160D01*
X35524Y-54090D01*
X35484Y-54010D01*
X35444Y-53923D01*
X35411Y-53825D01*
X35378Y-53719D01*
X35353Y-53606D01*
X35331Y-53486D01*
X35316Y-53355D01*
X35313Y-53217D01*
Y-53213D01*
Y-53210D01*
Y-53199D01*
Y-53180D01*
X35316Y-53162D01*
Y-53140D01*
X35320Y-53086D01*
X35327Y-53020D01*
X35338Y-52944D01*
X35349Y-52860D01*
X35371Y-52766D01*
X35393Y-52667D01*
X35425Y-52569D01*
X35462Y-52464D01*
X35506Y-52362D01*
X35557Y-52256D01*
X35618Y-52158D01*
X35688Y-52063D01*
X35768Y-51972D01*
X35771Y-51968D01*
X35789Y-51954D01*
X35815Y-51928D01*
X35848Y-51899D01*
X35895Y-51867D01*
X35946Y-51827D01*
X36008Y-51786D01*
X36077Y-51743D01*
X36157Y-51699D01*
X36241Y-51659D01*
X36336Y-51619D01*
X36434Y-51586D01*
X36539Y-51557D01*
X36649Y-51532D01*
X36765Y-51517D01*
X36889Y-51513D01*
X36918D01*
X36954Y-51517D01*
D02*
G37*
G36*
X29944Y-51590D02*
X30654D01*
Y-52307D01*
X29944D01*
Y-53581D01*
Y-53585D01*
Y-53603D01*
X29947Y-53625D01*
X29951Y-53657D01*
X29955Y-53694D01*
X29965Y-53737D01*
X29976Y-53781D01*
X29991Y-53825D01*
X30013Y-53872D01*
X30038Y-53916D01*
X30071Y-53960D01*
X30108Y-53996D01*
X30151Y-54029D01*
X30206Y-54050D01*
X30264Y-54065D01*
X30333Y-54072D01*
X30359D01*
X30391Y-54069D01*
X30431Y-54061D01*
X30479Y-54050D01*
X30533Y-54036D01*
X30592Y-54014D01*
X30654Y-53985D01*
Y-54706D01*
X30650D01*
X30643Y-54709D01*
X30632Y-54717D01*
X30613Y-54724D01*
X30588Y-54731D01*
X30562Y-54742D01*
X30530Y-54753D01*
X30490Y-54760D01*
X30446Y-54771D01*
X30399Y-54782D01*
X30344Y-54793D01*
X30286Y-54800D01*
X30224Y-54808D01*
X30155Y-54815D01*
X30082Y-54818D01*
X29976D01*
X29958Y-54815D01*
X29936D01*
X29907Y-54811D01*
X29875Y-54808D01*
X29842Y-54800D01*
X29765Y-54786D01*
X29678Y-54764D01*
X29583Y-54728D01*
X29489Y-54684D01*
X29394Y-54629D01*
X29347Y-54597D01*
X29299Y-54557D01*
X29256Y-54516D01*
X29212Y-54473D01*
X29172Y-54422D01*
X29136Y-54367D01*
X29103Y-54309D01*
X29070Y-54247D01*
X29045Y-54178D01*
X29019Y-54105D01*
X29001Y-54025D01*
X28986Y-53941D01*
X28979Y-53850D01*
X28975Y-53752D01*
Y-52307D01*
X28466D01*
Y-51590D01*
X28975D01*
Y-50913D01*
X29944Y-50633D01*
Y-51590D01*
D02*
G37*
G36*
X2847Y-51517D02*
X2895Y-51521D01*
X2953Y-51524D01*
X3019Y-51535D01*
X3095Y-51546D01*
X3175Y-51564D01*
X3259Y-51586D01*
X3346Y-51615D01*
X3434Y-51648D01*
X3521Y-51688D01*
X3608Y-51736D01*
X3696Y-51790D01*
X3776Y-51852D01*
X3849Y-51925D01*
X3852Y-51928D01*
X3867Y-51943D01*
X3885Y-51968D01*
X3907Y-51998D01*
X3936Y-52041D01*
X3969Y-52092D01*
X4001Y-52150D01*
X4038Y-52216D01*
X4074Y-52292D01*
X4107Y-52376D01*
X4140Y-52467D01*
X4169Y-52565D01*
X4191Y-52671D01*
X4213Y-52784D01*
X4223Y-52908D01*
X4227Y-53035D01*
Y-53443D01*
X2170D01*
Y-53446D01*
Y-53450D01*
X2174Y-53472D01*
X2181Y-53505D01*
X2192Y-53548D01*
X2207Y-53603D01*
X2229Y-53661D01*
X2258Y-53723D01*
X2298Y-53785D01*
X2345Y-53850D01*
X2403Y-53912D01*
X2473Y-53970D01*
X2556Y-54021D01*
X2600Y-54047D01*
X2651Y-54069D01*
X2706Y-54087D01*
X2764Y-54102D01*
X2822Y-54112D01*
X2888Y-54123D01*
X2960Y-54127D01*
X3033Y-54131D01*
X3084D01*
X3121Y-54127D01*
X3168Y-54123D01*
X3219Y-54116D01*
X3277Y-54109D01*
X3343Y-54098D01*
X3412Y-54087D01*
X3484Y-54069D01*
X3561Y-54050D01*
X3641Y-54025D01*
X3717Y-53996D01*
X3798Y-53963D01*
X3874Y-53927D01*
X3950Y-53883D01*
Y-54586D01*
X3947Y-54589D01*
X3929Y-54597D01*
X3907Y-54607D01*
X3870Y-54622D01*
X3827Y-54640D01*
X3776Y-54658D01*
X3714Y-54680D01*
X3645Y-54702D01*
X3565Y-54724D01*
X3477Y-54746D01*
X3386Y-54764D01*
X3284Y-54782D01*
X3175Y-54797D01*
X3062Y-54808D01*
X2939Y-54815D01*
X2811Y-54819D01*
X2760D01*
X2738Y-54815D01*
X2684Y-54811D01*
X2622Y-54804D01*
X2545Y-54797D01*
X2465Y-54782D01*
X2378Y-54764D01*
X2283Y-54742D01*
X2185Y-54717D01*
X2087Y-54680D01*
X1988Y-54640D01*
X1890Y-54593D01*
X1796Y-54535D01*
X1708Y-54469D01*
X1625Y-54396D01*
X1621Y-54393D01*
X1606Y-54378D01*
X1584Y-54353D01*
X1559Y-54320D01*
X1526Y-54276D01*
X1493Y-54222D01*
X1453Y-54160D01*
X1417Y-54090D01*
X1377Y-54010D01*
X1337Y-53923D01*
X1304Y-53825D01*
X1271Y-53719D01*
X1246Y-53606D01*
X1224Y-53486D01*
X1209Y-53355D01*
X1206Y-53217D01*
Y-53213D01*
Y-53210D01*
Y-53199D01*
Y-53181D01*
X1209Y-53162D01*
Y-53140D01*
X1213Y-53086D01*
X1220Y-53020D01*
X1231Y-52944D01*
X1242Y-52860D01*
X1264Y-52766D01*
X1286Y-52667D01*
X1319Y-52569D01*
X1355Y-52464D01*
X1399Y-52362D01*
X1450Y-52256D01*
X1512Y-52158D01*
X1581Y-52063D01*
X1661Y-51972D01*
X1664Y-51968D01*
X1683Y-51954D01*
X1708Y-51928D01*
X1741Y-51899D01*
X1788Y-51867D01*
X1839Y-51827D01*
X1901Y-51786D01*
X1970Y-51743D01*
X2050Y-51699D01*
X2134Y-51659D01*
X2229Y-51619D01*
X2327Y-51586D01*
X2433Y-51557D01*
X2542Y-51532D01*
X2658Y-51517D01*
X2782Y-51513D01*
X2811D01*
X2847Y-51517D01*
D02*
G37*
G36*
X-3690Y-51590D02*
X-2980D01*
Y-52307D01*
X-3690D01*
Y-53581D01*
Y-53585D01*
Y-53603D01*
X-3686Y-53625D01*
X-3683Y-53657D01*
X-3679Y-53694D01*
X-3668Y-53737D01*
X-3657Y-53781D01*
X-3643Y-53825D01*
X-3621Y-53872D01*
X-3595Y-53916D01*
X-3562Y-53960D01*
X-3526Y-53996D01*
X-3482Y-54029D01*
X-3428Y-54050D01*
X-3370Y-54065D01*
X-3300Y-54072D01*
X-3275D01*
X-3242Y-54069D01*
X-3202Y-54061D01*
X-3155Y-54050D01*
X-3100Y-54036D01*
X-3042Y-54014D01*
X-2980Y-53985D01*
Y-54706D01*
X-2984D01*
X-2991Y-54709D01*
X-3002Y-54717D01*
X-3020Y-54724D01*
X-3046Y-54731D01*
X-3071Y-54742D01*
X-3104Y-54753D01*
X-3144Y-54760D01*
X-3188Y-54771D01*
X-3235Y-54782D01*
X-3289Y-54793D01*
X-3348Y-54800D01*
X-3410Y-54808D01*
X-3479Y-54815D01*
X-3552Y-54819D01*
X-3657D01*
X-3675Y-54815D01*
X-3697D01*
X-3726Y-54811D01*
X-3759Y-54808D01*
X-3792Y-54800D01*
X-3868Y-54786D01*
X-3956Y-54764D01*
X-4050Y-54728D01*
X-4145Y-54684D01*
X-4240Y-54629D01*
X-4287Y-54597D01*
X-4334Y-54557D01*
X-4378Y-54516D01*
X-4422Y-54473D01*
X-4462Y-54422D01*
X-4498Y-54367D01*
X-4531Y-54309D01*
X-4563Y-54247D01*
X-4589Y-54178D01*
X-4614Y-54105D01*
X-4633Y-54025D01*
X-4647Y-53941D01*
X-4654Y-53850D01*
X-4658Y-53752D01*
Y-52307D01*
X-5168D01*
Y-51590D01*
X-4658D01*
Y-50913D01*
X-3690Y-50633D01*
Y-51590D01*
D02*
G37*
G36*
X-11287Y-51517D02*
X-11247Y-51521D01*
X-11199Y-51528D01*
X-11145Y-51535D01*
X-11083Y-51550D01*
X-11017Y-51568D01*
X-10948Y-51594D01*
X-10879Y-51623D01*
X-10806Y-51659D01*
X-10733Y-51699D01*
X-10664Y-51750D01*
X-10599Y-51812D01*
X-10537Y-51877D01*
X-10479Y-51957D01*
X-10468D01*
Y-51590D01*
X-9492D01*
Y-54385D01*
Y-54389D01*
Y-54396D01*
Y-54407D01*
Y-54425D01*
X-9496Y-54444D01*
Y-54469D01*
Y-54498D01*
X-9499Y-54531D01*
X-9507Y-54604D01*
X-9518Y-54688D01*
X-9536Y-54782D01*
X-9554Y-54880D01*
X-9583Y-54990D01*
X-9616Y-55099D01*
X-9656Y-55212D01*
X-9707Y-55325D01*
X-9765Y-55437D01*
X-9834Y-55543D01*
X-9911Y-55645D01*
X-10002Y-55739D01*
X-10009Y-55743D01*
X-10024Y-55761D01*
X-10056Y-55783D01*
X-10096Y-55816D01*
X-10147Y-55852D01*
X-10213Y-55892D01*
X-10289Y-55936D01*
X-10377Y-55980D01*
X-10475Y-56027D01*
X-10584Y-56071D01*
X-10704Y-56111D01*
X-10835Y-56147D01*
X-10981Y-56180D01*
X-11134Y-56202D01*
X-11298Y-56216D01*
X-11472Y-56224D01*
X-11534D01*
X-11578Y-56220D01*
X-11632Y-56216D01*
X-11694Y-56213D01*
X-11763Y-56209D01*
X-11836Y-56202D01*
X-11916Y-56191D01*
X-11996Y-56180D01*
X-12167Y-56147D01*
X-12251Y-56125D01*
X-12331Y-56100D01*
X-12408Y-56074D01*
X-12481Y-56042D01*
Y-55223D01*
X-12473Y-55226D01*
X-12459Y-55234D01*
X-12433Y-55248D01*
X-12397Y-55266D01*
X-12353Y-55288D01*
X-12302Y-55314D01*
X-12240Y-55339D01*
X-12175Y-55365D01*
X-12106Y-55390D01*
X-12029Y-55415D01*
X-11949Y-55441D01*
X-11862Y-55463D01*
X-11774Y-55481D01*
X-11687Y-55496D01*
X-11592Y-55503D01*
X-11501Y-55506D01*
X-11479D01*
X-11454Y-55503D01*
X-11421D01*
X-11378Y-55499D01*
X-11330Y-55492D01*
X-11276Y-55485D01*
X-11221Y-55474D01*
X-11159Y-55459D01*
X-11097Y-55441D01*
X-11032Y-55423D01*
X-10970Y-55397D01*
X-10908Y-55365D01*
X-10846Y-55332D01*
X-10792Y-55292D01*
X-10737Y-55244D01*
X-10733Y-55241D01*
X-10726Y-55234D01*
X-10712Y-55219D01*
X-10693Y-55197D01*
X-10675Y-55172D01*
X-10650Y-55139D01*
X-10624Y-55099D01*
X-10599Y-55059D01*
X-10573Y-55011D01*
X-10551Y-54957D01*
X-10526Y-54899D01*
X-10508Y-54837D01*
X-10489Y-54768D01*
X-10475Y-54695D01*
X-10468Y-54618D01*
X-10464Y-54538D01*
Y-54291D01*
X-10479D01*
X-10482Y-54298D01*
X-10493Y-54313D01*
X-10515Y-54338D01*
X-10540Y-54374D01*
X-10577Y-54414D01*
X-10617Y-54458D01*
X-10668Y-54505D01*
X-10726Y-54553D01*
X-10792Y-54604D01*
X-10864Y-54651D01*
X-10944Y-54695D01*
X-11032Y-54735D01*
X-11130Y-54771D01*
X-11232Y-54797D01*
X-11341Y-54811D01*
X-11461Y-54819D01*
X-11487D01*
X-11520Y-54815D01*
X-11560Y-54811D01*
X-11611Y-54804D01*
X-11672Y-54797D01*
X-11738Y-54782D01*
X-11807Y-54764D01*
X-11884Y-54742D01*
X-11960Y-54717D01*
X-12040Y-54680D01*
X-12120Y-54640D01*
X-12200Y-54593D01*
X-12277Y-54535D01*
X-12349Y-54469D01*
X-12419Y-54396D01*
X-12422Y-54393D01*
X-12433Y-54378D01*
X-12451Y-54353D01*
X-12473Y-54320D01*
X-12499Y-54276D01*
X-12531Y-54225D01*
X-12561Y-54163D01*
X-12593Y-54094D01*
X-12630Y-54018D01*
X-12659Y-53930D01*
X-12688Y-53836D01*
X-12717Y-53737D01*
X-12739Y-53628D01*
X-12757Y-53512D01*
X-12768Y-53388D01*
X-12772Y-53257D01*
Y-53253D01*
Y-53246D01*
Y-53235D01*
Y-53221D01*
Y-53202D01*
X-12768Y-53181D01*
X-12764Y-53126D01*
X-12761Y-53057D01*
X-12750Y-52980D01*
X-12739Y-52893D01*
X-12721Y-52798D01*
X-12703Y-52696D01*
X-12677Y-52595D01*
X-12644Y-52489D01*
X-12604Y-52383D01*
X-12561Y-52278D01*
X-12510Y-52176D01*
X-12448Y-52078D01*
X-12379Y-51987D01*
X-12375Y-51983D01*
X-12360Y-51965D01*
X-12339Y-51943D01*
X-12306Y-51914D01*
X-12269Y-51877D01*
X-12218Y-51837D01*
X-12164Y-51794D01*
X-12102Y-51750D01*
X-12029Y-51706D01*
X-11953Y-51663D01*
X-11869Y-51623D01*
X-11774Y-51586D01*
X-11676Y-51557D01*
X-11570Y-51535D01*
X-11458Y-51517D01*
X-11341Y-51513D01*
X-11316D01*
X-11287Y-51517D01*
D02*
G37*
G36*
X-14275Y8117D02*
X-15124D01*
Y10232D01*
Y10235D01*
Y10245D01*
Y10257D01*
Y10273D01*
X-15143Y10242D01*
X-15178Y10188D01*
X-16437Y8515D01*
X-16660D01*
X-17897Y10178D01*
X-17900Y10184D01*
X-17916Y10200D01*
X-17935Y10222D01*
X-17957Y10254D01*
X-17983Y10286D01*
X-17987Y10292D01*
X-17986Y10283D01*
Y10232D01*
Y8117D01*
X-18743D01*
Y11568D01*
X-18021D01*
X-16491Y9561D01*
X-14997Y11568D01*
X-14275D01*
Y8117D01*
D02*
G37*
G36*
X10478Y8117D02*
X9858D01*
X7403Y10181D01*
X7400Y10184D01*
X7387Y10197D01*
X7368Y10213D01*
X7343Y10235D01*
X7289Y10286D01*
X7263Y10308D01*
X7252Y10318D01*
X7254Y10308D01*
X7257Y10264D01*
X7260Y10210D01*
Y10207D01*
Y10203D01*
X7263Y10184D01*
Y10159D01*
X7266Y10124D01*
Y10086D01*
X7270Y10048D01*
Y10009D01*
Y9974D01*
Y8117D01*
X6443D01*
Y11568D01*
X7060D01*
X9438Y9561D01*
X9441Y9558D01*
X9454Y9548D01*
X9476Y9536D01*
X9502Y9517D01*
X9531Y9491D01*
X9562Y9466D01*
X9629Y9405D01*
X9632Y9402D01*
X9642Y9389D01*
X9658Y9374D01*
X9670Y9354D01*
X9672Y9352D01*
X9670Y9370D01*
X9667Y9421D01*
X9664Y9475D01*
X9661Y9526D01*
X9658Y9574D01*
Y9580D01*
Y9593D01*
X9655Y9615D01*
Y9641D01*
X9651Y9701D01*
Y9733D01*
Y9758D01*
Y11568D01*
X10478Y11568D01*
Y8117D01*
D02*
G37*
G36*
X-9798Y8966D02*
Y8960D01*
Y8944D01*
Y8922D01*
X-9801Y8887D01*
X-9804Y8849D01*
X-9807Y8804D01*
X-9814Y8753D01*
X-9823Y8703D01*
X-9845Y8591D01*
X-9861Y8534D01*
X-9880Y8480D01*
X-9903Y8429D01*
X-9928Y8381D01*
X-9957Y8337D01*
X-9992Y8299D01*
X-9995Y8295D01*
X-10001Y8292D01*
X-10014Y8283D01*
X-10030Y8270D01*
X-10052Y8257D01*
X-10077Y8241D01*
X-10112Y8225D01*
X-10151Y8210D01*
X-10195Y8190D01*
X-10246Y8175D01*
X-10303Y8159D01*
X-10367Y8146D01*
X-10437Y8133D01*
X-10513Y8124D01*
X-10596Y8121D01*
X-10688Y8117D01*
X-12160D01*
X-12195Y8121D01*
X-12237Y8124D01*
X-12284Y8127D01*
X-12335Y8133D01*
X-12389Y8140D01*
X-12507Y8162D01*
X-12564Y8178D01*
X-12621Y8194D01*
X-12675Y8216D01*
X-12726Y8238D01*
X-12774Y8267D01*
X-12812Y8299D01*
X-12815Y8302D01*
X-12822Y8308D01*
X-12828Y8318D01*
X-12841Y8334D01*
X-12857Y8356D01*
X-12873Y8381D01*
X-12889Y8413D01*
X-12904Y8451D01*
X-12923Y8493D01*
X-12939Y8544D01*
X-12955Y8597D01*
X-12971Y8658D01*
X-12984Y8725D01*
X-12990Y8798D01*
X-12997Y8881D01*
X-13000Y8966D01*
Y9704D01*
X-12087Y9870D01*
Y8871D01*
X-10704D01*
Y11568D01*
X-9798D01*
Y8966D01*
D02*
G37*
G36*
X17649Y11564D02*
X17684Y11561D01*
X17722Y11558D01*
X17767Y11555D01*
X17814Y11545D01*
X17913Y11526D01*
X18018Y11495D01*
X18066Y11475D01*
X18113Y11453D01*
X18158Y11428D01*
X18196Y11396D01*
X18199Y11393D01*
X18205Y11386D01*
X18215Y11377D01*
X18228Y11364D01*
X18244Y11345D01*
X18260Y11323D01*
X18279Y11294D01*
X18298Y11266D01*
X18314Y11231D01*
X18333Y11189D01*
X18349Y11145D01*
X18364Y11097D01*
X18377Y11043D01*
X18387Y10986D01*
X18393Y10925D01*
X18396Y10859D01*
Y10079D01*
Y10076D01*
Y10063D01*
Y10045D01*
X18393Y10019D01*
X18390Y9990D01*
X18387Y9955D01*
X18380Y9917D01*
X18371Y9876D01*
X18349Y9787D01*
X18333Y9742D01*
X18310Y9698D01*
X18288Y9657D01*
X18263Y9615D01*
X18231Y9577D01*
X18196Y9542D01*
X18193Y9539D01*
X18186Y9536D01*
X18174Y9526D01*
X18158Y9517D01*
X18139Y9504D01*
X18110Y9488D01*
X18081Y9472D01*
X18046Y9456D01*
X18005Y9440D01*
X17957Y9424D01*
X17910Y9412D01*
X17853Y9396D01*
X17792Y9386D01*
X17725Y9377D01*
X17655Y9374D01*
X17579Y9370D01*
X17210D01*
X18743Y8117D01*
X17541D01*
X16205Y9370D01*
X15569D01*
Y8117D01*
X14676D01*
Y11568D01*
X17620D01*
X17649Y11564D01*
D02*
G37*
G36*
X13060Y8117D02*
X12154D01*
Y11568D01*
X13060D01*
Y8117D01*
D02*
G37*
G36*
X2871Y8871D02*
X5362D01*
Y8117D01*
X1965D01*
Y11568D01*
X2871D01*
Y8871D01*
D02*
G37*
G36*
X-1612D02*
X878D01*
Y8117D01*
X-2519D01*
Y11568D01*
X-1612D01*
Y8871D01*
D02*
G37*
G36*
X-4939Y11564D02*
X-4897Y11561D01*
X-4849Y11558D01*
X-4799Y11552D01*
X-4741Y11545D01*
X-4627Y11523D01*
X-4570Y11507D01*
X-4512Y11488D01*
X-4458Y11466D01*
X-4408Y11444D01*
X-4360Y11412D01*
X-4322Y11380D01*
X-4318Y11377D01*
X-4312Y11371D01*
X-4302Y11361D01*
X-4293Y11342D01*
X-4277Y11323D01*
X-4261Y11294D01*
X-4245Y11262D01*
X-4226Y11227D01*
X-4207Y11183D01*
X-4191Y11135D01*
X-4175Y11081D01*
X-4159Y11021D01*
X-4150Y10954D01*
X-4140Y10881D01*
X-4134Y10801D01*
X-4131Y10715D01*
Y8966D01*
Y8960D01*
Y8944D01*
Y8922D01*
X-4134Y8887D01*
X-4137Y8849D01*
X-4140Y8804D01*
X-4147Y8753D01*
X-4153Y8703D01*
X-4179Y8591D01*
X-4191Y8534D01*
X-4210Y8480D01*
X-4233Y8429D01*
X-4258Y8381D01*
X-4287Y8337D01*
X-4322Y8299D01*
X-4325Y8295D01*
X-4331Y8292D01*
X-4344Y8283D01*
X-4360Y8270D01*
X-4382Y8257D01*
X-4408Y8241D01*
X-4442Y8225D01*
X-4481Y8210D01*
X-4525Y8190D01*
X-4576Y8175D01*
X-4633Y8159D01*
X-4697Y8146D01*
X-4767Y8133D01*
X-4846Y8124D01*
X-4929Y8121D01*
X-5021Y8117D01*
X-7511D01*
X-7546Y8121D01*
X-7587Y8124D01*
X-7635Y8127D01*
X-7686Y8133D01*
X-7740Y8140D01*
X-7858Y8162D01*
X-7915Y8178D01*
X-7972Y8194D01*
X-8026Y8216D01*
X-8077Y8238D01*
X-8125Y8267D01*
X-8163Y8299D01*
X-8166Y8302D01*
X-8173Y8308D01*
X-8179Y8318D01*
X-8192Y8334D01*
X-8208Y8356D01*
X-8224Y8381D01*
X-8239Y8413D01*
X-8255Y8451D01*
X-8274Y8493D01*
X-8290Y8544D01*
X-8306Y8597D01*
X-8322Y8658D01*
X-8335Y8725D01*
X-8341Y8798D01*
X-8348Y8881D01*
X-8351Y8966D01*
Y10715D01*
Y10722D01*
Y10738D01*
Y10760D01*
X-8348Y10795D01*
X-8344Y10833D01*
X-8341Y10878D01*
X-8335Y10925D01*
X-8328Y10979D01*
X-8306Y11088D01*
X-8290Y11145D01*
X-8271Y11199D01*
X-8249Y11250D01*
X-8224Y11297D01*
X-8195Y11342D01*
X-8163Y11380D01*
X-8160Y11383D01*
X-8153Y11390D01*
X-8141Y11396D01*
X-8125Y11409D01*
X-8103Y11425D01*
X-8077Y11440D01*
X-8042Y11456D01*
X-8004Y11475D01*
X-7959Y11491D01*
X-7909Y11507D01*
X-7851Y11523D01*
X-7788Y11539D01*
X-7718Y11552D01*
X-7642Y11558D01*
X-7556Y11564D01*
X-7463Y11568D01*
X-4973D01*
X-4939Y11564D01*
D02*
G37*
%LPC*%
G36*
X39412Y94007D02*
X38837D01*
Y91029D01*
X39415D01*
X39452Y91033D01*
X39503Y91036D01*
X39564Y91040D01*
X39634Y91051D01*
X39710Y91062D01*
X39794Y91080D01*
X39885Y91098D01*
X39976Y91127D01*
X40070Y91157D01*
X40165Y91197D01*
X40256Y91240D01*
X40347Y91295D01*
X40431Y91357D01*
X40511Y91426D01*
X40514Y91430D01*
X40529Y91444D01*
X40547Y91466D01*
X40573Y91499D01*
X40606Y91539D01*
X40638Y91590D01*
X40675Y91648D01*
X40715Y91717D01*
X40751Y91790D01*
X40788Y91874D01*
X40820Y91968D01*
X40853Y92067D01*
X40878Y92176D01*
X40897Y92292D01*
X40911Y92420D01*
X40915Y92551D01*
Y92554D01*
Y92569D01*
Y92587D01*
X40911Y92612D01*
X40908Y92645D01*
X40904Y92685D01*
X40900Y92729D01*
X40893Y92780D01*
X40882Y92831D01*
X40868Y92889D01*
X40835Y93013D01*
X40813Y93075D01*
X40788Y93144D01*
X40758Y93209D01*
X40726Y93279D01*
X40689Y93348D01*
X40649Y93413D01*
X40602Y93483D01*
X40547Y93544D01*
X40489Y93610D01*
X40427Y93668D01*
X40358Y93726D01*
X40282Y93781D01*
X40198Y93828D01*
X40110Y93872D01*
X40012Y93912D01*
X39907Y93945D01*
X39797Y93970D01*
X39677Y93992D01*
X39550Y94003D01*
X39412Y94007D01*
D02*
G37*
G36*
X19741Y-52260D02*
X19708D01*
X19686Y-52263D01*
X19661Y-52267D01*
X19628Y-52274D01*
X19555Y-52292D01*
X19515Y-52303D01*
X19475Y-52321D01*
X19431Y-52343D01*
X19391Y-52365D01*
X19348Y-52398D01*
X19308Y-52431D01*
X19271Y-52471D01*
X19235Y-52514D01*
X19231Y-52518D01*
X19228Y-52525D01*
X19220Y-52540D01*
X19206Y-52562D01*
X19195Y-52587D01*
X19180Y-52616D01*
X19162Y-52656D01*
X19147Y-52696D01*
X19129Y-52744D01*
X19115Y-52795D01*
X19096Y-52853D01*
X19086Y-52915D01*
X19075Y-52980D01*
X19064Y-53053D01*
X19060Y-53130D01*
X19056Y-53210D01*
Y-53213D01*
Y-53228D01*
Y-53250D01*
X19060Y-53279D01*
Y-53312D01*
X19067Y-53352D01*
X19071Y-53399D01*
X19078Y-53446D01*
X19100Y-53548D01*
X19129Y-53654D01*
X19173Y-53759D01*
X19202Y-53807D01*
X19231Y-53850D01*
X19235Y-53854D01*
X19238Y-53861D01*
X19249Y-53872D01*
X19264Y-53883D01*
X19282Y-53901D01*
X19304Y-53920D01*
X19329Y-53941D01*
X19359Y-53960D01*
X19428Y-54003D01*
X19508Y-54036D01*
X19555Y-54050D01*
X19606Y-54061D01*
X19661Y-54069D01*
X19715Y-54072D01*
X19744D01*
X19763Y-54069D01*
X19788Y-54065D01*
X19817Y-54061D01*
X19886Y-54043D01*
X19963Y-54014D01*
X20003Y-53996D01*
X20043Y-53974D01*
X20083Y-53949D01*
X20123Y-53916D01*
X20159Y-53879D01*
X20196Y-53839D01*
X20199Y-53836D01*
X20203Y-53829D01*
X20214Y-53814D01*
X20225Y-53796D01*
X20239Y-53774D01*
X20254Y-53745D01*
X20272Y-53708D01*
X20290Y-53672D01*
X20309Y-53628D01*
X20327Y-53581D01*
X20341Y-53530D01*
X20356Y-53475D01*
X20367Y-53413D01*
X20378Y-53348D01*
X20381Y-53282D01*
X20385Y-53210D01*
Y-52973D01*
Y-52969D01*
Y-52959D01*
Y-52944D01*
X20381Y-52922D01*
Y-52897D01*
X20374Y-52864D01*
X20363Y-52795D01*
X20341Y-52715D01*
X20309Y-52627D01*
X20287Y-52587D01*
X20265Y-52543D01*
X20236Y-52504D01*
X20203Y-52464D01*
X20199Y-52460D01*
X20196Y-52456D01*
X20185Y-52445D01*
X20170Y-52431D01*
X20152Y-52416D01*
X20130Y-52398D01*
X20079Y-52362D01*
X20010Y-52325D01*
X19934Y-52292D01*
X19843Y-52267D01*
X19792Y-52263D01*
X19741Y-52260D01*
D02*
G37*
G36*
X6513Y-53250D02*
X5938Y-53326D01*
X5934D01*
X5916Y-53330D01*
X5894Y-53333D01*
X5865Y-53341D01*
X5829Y-53352D01*
X5789Y-53366D01*
X5745Y-53381D01*
X5701Y-53403D01*
X5658Y-53428D01*
X5614Y-53457D01*
X5574Y-53494D01*
X5537Y-53530D01*
X5508Y-53577D01*
X5486Y-53628D01*
X5468Y-53686D01*
X5465Y-53752D01*
Y-53759D01*
X5468Y-53781D01*
X5472Y-53810D01*
X5479Y-53850D01*
X5494Y-53890D01*
X5512Y-53938D01*
X5541Y-53981D01*
X5578Y-54025D01*
X5585Y-54029D01*
X5599Y-54040D01*
X5625Y-54058D01*
X5661Y-54076D01*
X5705Y-54098D01*
X5759Y-54112D01*
X5821Y-54127D01*
X5891Y-54131D01*
X5916D01*
X5938Y-54127D01*
X5960Y-54123D01*
X5989Y-54120D01*
X6051Y-54105D01*
X6120Y-54083D01*
X6196Y-54050D01*
X6233Y-54029D01*
X6269Y-54003D01*
X6306Y-53974D01*
X6338Y-53941D01*
X6342Y-53938D01*
X6346Y-53934D01*
X6353Y-53923D01*
X6367Y-53909D01*
X6378Y-53887D01*
X6393Y-53865D01*
X6426Y-53810D01*
X6458Y-53741D01*
X6487Y-53661D01*
X6506Y-53566D01*
X6509Y-53515D01*
X6513Y-53465D01*
Y-53250D01*
D02*
G37*
G36*
X36882Y-52169D02*
X36860D01*
X36841Y-52172D01*
X36823Y-52176D01*
X36798Y-52179D01*
X36743Y-52194D01*
X36681Y-52216D01*
X36612Y-52252D01*
X36579Y-52274D01*
X36543Y-52300D01*
X36510Y-52329D01*
X36478Y-52365D01*
Y-52369D01*
X36470Y-52372D01*
X36463Y-52383D01*
X36452Y-52398D01*
X36437Y-52420D01*
X36423Y-52442D01*
X36405Y-52467D01*
X36386Y-52496D01*
X36350Y-52565D01*
X36317Y-52649D01*
X36288Y-52744D01*
X36270Y-52846D01*
X37431D01*
Y-52842D01*
Y-52838D01*
Y-52816D01*
X37427Y-52784D01*
X37424Y-52740D01*
X37413Y-52689D01*
X37402Y-52631D01*
X37384Y-52569D01*
X37362Y-52507D01*
X37333Y-52445D01*
X37297Y-52383D01*
X37253Y-52325D01*
X37198Y-52274D01*
X37136Y-52231D01*
X37064Y-52198D01*
X36980Y-52176D01*
X36933Y-52172D01*
X36882Y-52169D01*
D02*
G37*
G36*
X2775Y-52169D02*
X2753D01*
X2735Y-52172D01*
X2716Y-52176D01*
X2691Y-52179D01*
X2636Y-52194D01*
X2575Y-52216D01*
X2505Y-52252D01*
X2473Y-52274D01*
X2436Y-52300D01*
X2403Y-52329D01*
X2371Y-52365D01*
Y-52369D01*
X2363Y-52372D01*
X2356Y-52383D01*
X2345Y-52398D01*
X2331Y-52420D01*
X2316Y-52442D01*
X2298Y-52467D01*
X2280Y-52496D01*
X2243Y-52565D01*
X2211Y-52649D01*
X2181Y-52744D01*
X2163Y-52846D01*
X3324D01*
Y-52842D01*
Y-52838D01*
Y-52816D01*
X3321Y-52784D01*
X3317Y-52740D01*
X3306Y-52689D01*
X3295Y-52631D01*
X3277Y-52569D01*
X3255Y-52507D01*
X3226Y-52445D01*
X3190Y-52383D01*
X3146Y-52325D01*
X3091Y-52274D01*
X3029Y-52231D01*
X2957Y-52198D01*
X2873Y-52176D01*
X2826Y-52172D01*
X2775Y-52169D01*
D02*
G37*
G36*
X-11094Y-52260D02*
X-11126D01*
X-11148Y-52263D01*
X-11174Y-52267D01*
X-11207Y-52274D01*
X-11279Y-52292D01*
X-11319Y-52303D01*
X-11359Y-52321D01*
X-11403Y-52343D01*
X-11447Y-52365D01*
X-11487Y-52398D01*
X-11527Y-52431D01*
X-11567Y-52471D01*
X-11603Y-52514D01*
X-11607Y-52518D01*
X-11611Y-52525D01*
X-11621Y-52540D01*
X-11632Y-52562D01*
X-11647Y-52587D01*
X-11661Y-52616D01*
X-11676Y-52656D01*
X-11694Y-52696D01*
X-11712Y-52744D01*
X-11727Y-52798D01*
X-11742Y-52857D01*
X-11756Y-52918D01*
X-11767Y-52988D01*
X-11778Y-53060D01*
X-11782Y-53140D01*
X-11785Y-53224D01*
Y-53228D01*
Y-53242D01*
Y-53261D01*
X-11782Y-53290D01*
Y-53322D01*
X-11774Y-53359D01*
X-11771Y-53403D01*
X-11763Y-53450D01*
X-11742Y-53548D01*
X-11712Y-53654D01*
X-11669Y-53756D01*
X-11640Y-53803D01*
X-11611Y-53847D01*
X-11607Y-53850D01*
X-11603Y-53858D01*
X-11592Y-53869D01*
X-11578Y-53883D01*
X-11560Y-53898D01*
X-11538Y-53920D01*
X-11512Y-53938D01*
X-11483Y-53960D01*
X-11418Y-54000D01*
X-11334Y-54036D01*
X-11287Y-54050D01*
X-11239Y-54061D01*
X-11185Y-54069D01*
X-11130Y-54072D01*
X-11101D01*
X-11079Y-54069D01*
X-11054Y-54065D01*
X-11024Y-54061D01*
X-10955Y-54043D01*
X-10879Y-54018D01*
X-10839Y-53996D01*
X-10795Y-53974D01*
X-10755Y-53949D01*
X-10715Y-53920D01*
X-10679Y-53883D01*
X-10642Y-53843D01*
X-10639Y-53839D01*
X-10635Y-53832D01*
X-10624Y-53818D01*
X-10613Y-53799D01*
X-10599Y-53777D01*
X-10584Y-53748D01*
X-10566Y-53716D01*
X-10548Y-53679D01*
X-10530Y-53636D01*
X-10511Y-53592D01*
X-10497Y-53541D01*
X-10482Y-53486D01*
X-10471Y-53428D01*
X-10460Y-53363D01*
X-10457Y-53297D01*
X-10453Y-53228D01*
Y-52980D01*
Y-52977D01*
Y-52966D01*
Y-52951D01*
X-10457Y-52929D01*
Y-52904D01*
X-10464Y-52875D01*
X-10475Y-52806D01*
X-10497Y-52725D01*
X-10530Y-52638D01*
X-10548Y-52595D01*
X-10573Y-52555D01*
X-10599Y-52511D01*
X-10631Y-52471D01*
X-10635Y-52467D01*
X-10639Y-52460D01*
X-10650Y-52452D01*
X-10664Y-52438D01*
X-10682Y-52423D01*
X-10704Y-52405D01*
X-10755Y-52365D01*
X-10824Y-52325D01*
X-10901Y-52292D01*
X-10944Y-52278D01*
X-10992Y-52267D01*
X-11043Y-52263D01*
X-11094Y-52260D01*
D02*
G37*
G36*
X17236Y10862D02*
X15569D01*
Y10070D01*
X17264D01*
X17296Y10073D01*
X17331Y10076D01*
X17369Y10079D01*
X17407Y10086D01*
X17439Y10095D01*
X17465Y10108D01*
X17468Y10111D01*
X17474Y10118D01*
X17481Y10127D01*
X17493Y10143D01*
X17503Y10165D01*
X17509Y10194D01*
X17515Y10226D01*
X17519Y10267D01*
Y10668D01*
Y10674D01*
Y10687D01*
X17515Y10703D01*
X17512Y10728D01*
X17506Y10750D01*
X17496Y10776D01*
X17484Y10798D01*
X17465Y10817D01*
X17461Y10820D01*
X17455Y10824D01*
X17439Y10830D01*
X17417Y10840D01*
X17385Y10849D01*
X17344Y10855D01*
X17296Y10859D01*
X17236Y10862D01*
D02*
G37*
G36*
X-5034Y10843D02*
X-7444D01*
Y8871D01*
X-5034D01*
Y10843D01*
D02*
G37*
%LPD*%
D10*
X36024Y-39567D02*
Y-36811D01*
Y-39567D02*
X39173D01*
X-31496Y11713D02*
Y11909D01*
X-27559Y11713D02*
Y11909D01*
X-19783Y28248D02*
Y29823D01*
X-22539Y28248D02*
Y29823D01*
X3839Y28248D02*
Y29823D01*
X1083Y28248D02*
Y29823D01*
X31398Y-32480D02*
X31594D01*
X-98Y99902D02*
X98D01*
X41240Y-14764D02*
X41437D01*
X0Y71752D02*
Y71949D01*
X36417Y16634D02*
Y16831D01*
X0Y60925D02*
Y61122D01*
X29528Y16634D02*
Y16831D01*
X32382Y-76772D02*
X32579D01*
X22638Y12697D02*
Y12894D01*
X-5906Y33366D02*
Y33563D01*
X24606Y19587D02*
Y19783D01*
X-1969Y33366D02*
Y33563D01*
X65847Y21654D02*
X66043D01*
X-37500D02*
X-37303D01*
X-37500Y25591D02*
X-37303D01*
X44193Y21654D02*
X44390D01*
X58957Y21654D02*
X59153D01*
X58957Y25591D02*
X59153D01*
X31398Y-28543D02*
X31594D01*
X37303Y21654D02*
X37500D01*
X37303Y25591D02*
X37500D01*
X-45276Y-33563D02*
Y-33366D01*
Y-80807D02*
Y-80610D01*
X-59055Y-55216D02*
Y-55020D01*
X-45276Y-86713D02*
Y-86516D01*
Y-64075D02*
Y-63878D01*
X-63091Y-27559D02*
X-62894D01*
X-62570Y-31073D02*
X-62430Y-30934D01*
X-63062Y-47175D02*
X-62923Y-47314D01*
X-59055Y-47343D02*
Y-47146D01*
X-55680Y-47806D02*
X-55541Y-47667D01*
X-55216Y-27559D02*
X-55020D01*
X-59055Y-31594D02*
Y-31398D01*
Y-78839D02*
Y-78642D01*
X-63091Y-90551D02*
X-62894D01*
X-63091Y-51181D02*
X-62894D01*
X-55188Y-55049D02*
X-55049Y-55188D01*
X-2559Y90453D02*
Y93602D01*
X2559Y90453D02*
Y93602D01*
X30906Y-12205D02*
X34055D01*
X30906Y-17323D02*
X34055D01*
X2559Y78150D02*
Y81299D01*
X-2559Y78150D02*
Y81299D01*
X33858Y6299D02*
Y9449D01*
X38976Y6299D02*
Y9449D01*
X-2559Y51575D02*
Y54724D01*
X2559Y51575D02*
Y54724D01*
X26969Y6299D02*
Y9449D01*
X32087Y6299D02*
Y9449D01*
X-42913Y28937D02*
X-39764D01*
X-42913Y34055D02*
X-39764D01*
X53543Y28937D02*
X56693D01*
X53543Y34055D02*
X56693D01*
X31890Y28937D02*
X35039D01*
X31890Y34055D02*
X35039D01*
X-51181Y34646D02*
Y36220D01*
X-57087Y34646D02*
Y36220D01*
X23819Y33465D02*
X25394D01*
X20374D02*
X21949D01*
X1476Y21358D02*
Y22933D01*
X19882Y25591D02*
X21457D01*
X-22146Y21358D02*
Y22933D01*
X-3740Y25591D02*
X-2165D01*
X-44291Y20866D02*
Y22441D01*
Y24803D02*
Y26378D01*
X-32283Y23622D02*
X-30709D01*
X52165Y24803D02*
Y26378D01*
X52165Y20866D02*
Y22441D01*
X65945Y24803D02*
Y26378D01*
X30512Y24803D02*
Y26378D01*
Y20866D02*
Y22441D01*
X44291Y24803D02*
Y26378D01*
X37402Y-33268D02*
Y-31693D01*
X-31496Y33465D02*
X-30512D01*
X-31496Y32480D02*
Y33465D01*
X64961Y33465D02*
X65945D01*
X64961Y32480D02*
Y33465D01*
X43307Y33465D02*
X44291D01*
X43307Y32480D02*
Y33465D01*
X-20571Y28642D02*
X-21752D01*
Y29232D01*
X-21555Y29429D01*
X-21161D01*
X-20965Y29232D01*
Y28642D01*
Y29035D02*
X-20571Y29429D01*
X3051Y28642D02*
X1870D01*
Y29232D01*
X2067Y29429D01*
X2461D01*
X2657Y29232D01*
Y28642D01*
Y29035D02*
X3051Y29429D01*
X1574Y91240D02*
X-0Y92815D01*
X-1574Y91240D01*
X31693Y-16338D02*
X33268Y-14764D01*
X31693Y-13190D01*
X-1574Y80512D02*
X0Y78937D01*
X1574Y80512D01*
X37992Y7087D02*
X36417Y8661D01*
X34843Y7087D01*
X1574Y52363D02*
X-0Y53937D01*
X-1574Y52363D01*
X31102Y7087D02*
X29528Y8661D01*
X27953Y7087D01*
X-40814Y29922D02*
X-41863D01*
X-41339D01*
Y33070D01*
X-40814D01*
X-41863D01*
X55643Y29922D02*
X54593D01*
X55118D01*
Y33070D01*
X55643D01*
X54593D01*
X33989Y29922D02*
X32940D01*
X33465D01*
Y33070D01*
X33989D01*
X32940D01*
X19357Y-83662D02*
X18045D01*
Y-84646D01*
X18701Y-84318D01*
X19029D01*
X19357Y-84646D01*
Y-85302D01*
X19029Y-85630D01*
X18373D01*
X18045Y-85302D01*
X20013Y-83662D02*
Y-84974D01*
X20669Y-85630D01*
X21325Y-84974D01*
Y-83662D01*
X20014Y9121D02*
X20539Y8071D01*
X21064Y9121D01*
X21588Y8071D02*
X22113D01*
X21851D01*
Y9645D01*
X21588Y9383D01*
X22900Y8071D02*
Y8333D01*
X23163D01*
Y8071D01*
X22900D01*
X25262D02*
X24212D01*
X25262Y9121D01*
Y9383D01*
X24999Y9645D01*
X24475D01*
X24212Y9383D01*
X56595Y-8858D02*
Y-6890D01*
X57251Y-7546D01*
X57907Y-6890D01*
Y-8858D01*
X58563D02*
X59219D01*
X58891D01*
Y-6890D01*
X58563Y-7218D01*
X60203D02*
X60531Y-6890D01*
X61187D01*
X61515Y-7218D01*
Y-7546D01*
X61187Y-7874D01*
X61515Y-8202D01*
Y-8530D01*
X61187Y-8858D01*
X60531D01*
X60203Y-8530D01*
Y-8202D01*
X60531Y-7874D01*
X60203Y-7546D01*
Y-7218D01*
X60531Y-7874D02*
X61187D01*
X56595Y-71850D02*
Y-69882D01*
X57251Y-70538D01*
X57907Y-69882D01*
Y-71850D01*
X58563D02*
X59219D01*
X58891D01*
Y-69882D01*
X58563Y-70210D01*
X60203Y-69882D02*
X61515D01*
Y-70210D01*
X60203Y-71522D01*
Y-71850D01*
X64469Y-16732D02*
Y-14764D01*
X65125Y-15420D01*
X65781Y-14764D01*
Y-16732D01*
X66437D02*
X67093D01*
X66765D01*
Y-14764D01*
X66437Y-15092D01*
X69389Y-14764D02*
X68733Y-15092D01*
X68077Y-15748D01*
Y-16404D01*
X68405Y-16732D01*
X69061D01*
X69389Y-16404D01*
Y-16076D01*
X69061Y-15748D01*
X68077D01*
X64469Y-8858D02*
Y-6890D01*
X65125Y-7546D01*
X65781Y-6890D01*
Y-8858D01*
X66437D02*
X67093D01*
X66765D01*
Y-6890D01*
X66437Y-7218D01*
X69389Y-6890D02*
X68077D01*
Y-7874D01*
X68733Y-7546D01*
X69061D01*
X69389Y-7874D01*
Y-8530D01*
X69061Y-8858D01*
X68405D01*
X68077Y-8530D01*
X56595Y-32480D02*
Y-30512D01*
X57251Y-31168D01*
X57907Y-30512D01*
Y-32480D01*
X58563D02*
X59219D01*
X58891D01*
Y-30512D01*
X58563Y-30840D01*
X61187Y-32480D02*
Y-30512D01*
X60203Y-31496D01*
X61515D01*
X49213Y-984D02*
Y984D01*
X49869Y328D01*
X50525Y984D01*
Y-984D01*
X51181D02*
X51837D01*
X51509D01*
Y984D01*
X51181Y656D01*
X52821D02*
X53149Y984D01*
X53805D01*
X54133Y656D01*
Y328D01*
X53805Y0D01*
X53477D01*
X53805D01*
X54133Y-328D01*
Y-656D01*
X53805Y-984D01*
X53149D01*
X52821Y-656D01*
X64469Y-32480D02*
Y-30512D01*
X65125Y-31168D01*
X65781Y-30512D01*
Y-32480D01*
X66437D02*
X67093D01*
X66765D01*
Y-30512D01*
X66437Y-30840D01*
X69389Y-32480D02*
X68077D01*
X69389Y-31168D01*
Y-30840D01*
X69061Y-30512D01*
X68405D01*
X68077Y-30840D01*
X49049Y-40354D02*
Y-38386D01*
X49705Y-39042D01*
X50361Y-38386D01*
Y-40354D01*
X51017D02*
X51673D01*
X51345D01*
Y-38386D01*
X51017Y-38714D01*
X52657Y-40354D02*
X53313D01*
X52985D01*
Y-38386D01*
X52657Y-38714D01*
X48721Y-24606D02*
Y-22638D01*
X49377Y-23294D01*
X50033Y-22638D01*
Y-24606D01*
X50689D02*
X51345D01*
X51017D01*
Y-22638D01*
X50689Y-22966D01*
X52329D02*
X52657Y-22638D01*
X53313D01*
X53641Y-22966D01*
Y-24278D01*
X53313Y-24606D01*
X52657D01*
X52329Y-24278D01*
Y-22966D01*
X49541Y-32480D02*
Y-30512D01*
X50197Y-31168D01*
X50853Y-30512D01*
Y-32480D01*
X51509Y-32152D02*
X51837Y-32480D01*
X52493D01*
X52821Y-32152D01*
Y-30840D01*
X52493Y-30512D01*
X51837D01*
X51509Y-30840D01*
Y-31168D01*
X51837Y-31496D01*
X52821D01*
X65289Y-24606D02*
Y-22638D01*
X65945Y-23294D01*
X66601Y-22638D01*
Y-24606D01*
X67257Y-22966D02*
X67585Y-22638D01*
X68241D01*
X68569Y-22966D01*
Y-23294D01*
X68241Y-23622D01*
X68569Y-23950D01*
Y-24278D01*
X68241Y-24606D01*
X67585D01*
X67257Y-24278D01*
Y-23950D01*
X67585Y-23622D01*
X67257Y-23294D01*
Y-22966D01*
X67585Y-23622D02*
X68241D01*
X65289Y-48228D02*
Y-46260D01*
X65945Y-46916D01*
X66601Y-46260D01*
Y-48228D01*
X67257Y-46260D02*
X68569D01*
Y-46588D01*
X67257Y-47900D01*
Y-48228D01*
X57415D02*
Y-46260D01*
X58071Y-46916D01*
X58727Y-46260D01*
Y-48228D01*
X60695Y-46260D02*
X60039Y-46588D01*
X59383Y-47244D01*
Y-47900D01*
X59711Y-48228D01*
X60367D01*
X60695Y-47900D01*
Y-47572D01*
X60367Y-47244D01*
X59383D01*
X65289Y-984D02*
Y984D01*
X65945Y328D01*
X66601Y984D01*
Y-984D01*
X68569Y984D02*
X67257D01*
Y0D01*
X67913Y328D01*
X68241D01*
X68569Y0D01*
Y-656D01*
X68241Y-984D01*
X67585D01*
X67257Y-656D01*
X57415Y-24606D02*
Y-22638D01*
X58071Y-23294D01*
X58727Y-22638D01*
Y-24606D01*
X60367D02*
Y-22638D01*
X59383Y-23622D01*
X60695D01*
X49541Y-16732D02*
Y-14764D01*
X50197Y-15420D01*
X50853Y-14764D01*
Y-16732D01*
X51509Y-15092D02*
X51837Y-14764D01*
X52493D01*
X52821Y-15092D01*
Y-15420D01*
X52493Y-15748D01*
X52165D01*
X52493D01*
X52821Y-16076D01*
Y-16404D01*
X52493Y-16732D01*
X51837D01*
X51509Y-16404D01*
X49541Y-56102D02*
Y-54134D01*
X50197Y-54790D01*
X50853Y-54134D01*
Y-56102D01*
X52821D02*
X51509D01*
X52821Y-54790D01*
Y-54462D01*
X52493Y-54134D01*
X51837D01*
X51509Y-54462D01*
X57743Y-56102D02*
Y-54134D01*
X58399Y-54790D01*
X59055Y-54134D01*
Y-56102D01*
X59711D02*
X60367D01*
X60039D01*
Y-54134D01*
X59711Y-54462D01*
X49541Y-8858D02*
Y-6890D01*
X50197Y-7546D01*
X50853Y-6890D01*
Y-8858D01*
X51509Y-7218D02*
X51837Y-6890D01*
X52493D01*
X52821Y-7218D01*
Y-8530D01*
X52493Y-8858D01*
X51837D01*
X51509Y-8530D01*
Y-7218D01*
X65945Y-38714D02*
X65617Y-38386D01*
X64961D01*
X64633Y-38714D01*
Y-39042D01*
X64961Y-39370D01*
X65617D01*
X65945Y-39698D01*
Y-40026D01*
X65617Y-40354D01*
X64961D01*
X64633Y-40026D01*
X66601Y-38386D02*
Y-40354D01*
X67585D01*
X67913Y-40026D01*
Y-38714D01*
X67585Y-38386D01*
X66601D01*
X68569Y-40354D02*
X69225D01*
X68897D01*
Y-38386D01*
X68569Y-38714D01*
X48721Y-46260D02*
X49377D01*
X49049D01*
Y-48228D01*
X48721D01*
X49377D01*
X50361Y-46588D02*
X50689Y-46260D01*
X51345D01*
X51673Y-46588D01*
Y-47900D01*
X51345Y-48228D01*
X50689D01*
X50361Y-47900D01*
Y-46588D01*
X53641D02*
X53313Y-46260D01*
X52657D01*
X52329Y-46588D01*
Y-47900D01*
X52657Y-48228D01*
X53313D01*
X53641Y-47900D01*
X64469Y-54134D02*
Y-55774D01*
X64797Y-56102D01*
X65453D01*
X65781Y-55774D01*
Y-54134D01*
X66437Y-56102D02*
X67093D01*
X66765D01*
Y-54134D01*
X66437Y-54462D01*
X68077Y-56102D02*
Y-54134D01*
X69061D01*
X69389Y-54462D01*
Y-55118D01*
X69061Y-55446D01*
X68077D01*
X68733D02*
X69389Y-56102D01*
X48721Y-62008D02*
Y-63648D01*
X49049Y-63976D01*
X49705D01*
X50033Y-63648D01*
Y-62008D01*
X50689Y-63976D02*
X51345D01*
X51017D01*
Y-62008D01*
X50689Y-62336D01*
X52329Y-62008D02*
X53641D01*
X52985D01*
Y-63976D01*
X64469Y-62008D02*
Y-63648D01*
X64797Y-63976D01*
X65453D01*
X65781Y-63648D01*
Y-62008D01*
X66437Y-63976D02*
X67093D01*
X66765D01*
Y-62008D01*
X66437Y-62336D01*
X69389Y-62008D02*
X68077D01*
Y-62992D01*
X68733D01*
X68077D01*
Y-63976D01*
X49869Y-70210D02*
X49541Y-69882D01*
X48885D01*
X48557Y-70210D01*
Y-70538D01*
X48885Y-70866D01*
X49541D01*
X49869Y-71194D01*
Y-71522D01*
X49541Y-71850D01*
X48885D01*
X48557Y-71522D01*
X51837Y-70210D02*
X51509Y-69882D01*
X50853D01*
X50525Y-70210D01*
Y-71522D01*
X50853Y-71850D01*
X51509D01*
X51837Y-71522D01*
X52493Y-69882D02*
Y-71850D01*
X53805D01*
X64469Y-69882D02*
X65125D01*
X64797D01*
Y-71850D01*
X64469D01*
X65125D01*
X66109D02*
Y-69882D01*
X67093D01*
X67421Y-70210D01*
Y-70866D01*
X67093Y-71194D01*
X66109D01*
X66765D02*
X67421Y-71850D01*
X69389Y-70210D02*
X69061Y-69882D01*
X68405D01*
X68077Y-70210D01*
Y-71522D01*
X68405Y-71850D01*
X69061D01*
X69389Y-71522D01*
X64469Y-77756D02*
X65125D01*
X64797D01*
Y-79724D01*
X64469D01*
X65125D01*
X66109D02*
Y-77756D01*
X67093D01*
X67421Y-78084D01*
Y-78740D01*
X67093Y-79068D01*
X66109D01*
X66765D02*
X67421Y-79724D01*
X68077Y-77756D02*
Y-79724D01*
X69061D01*
X69389Y-79396D01*
Y-78084D01*
X69061Y-77756D01*
X68077D01*
X57743Y-78084D02*
X57415Y-77756D01*
X56759D01*
X56431Y-78084D01*
Y-78412D01*
X56759Y-78740D01*
X57415D01*
X57743Y-79068D01*
Y-79396D01*
X57415Y-79724D01*
X56759D01*
X56431Y-79396D01*
X58399Y-77756D02*
Y-79724D01*
X59383D01*
X59711Y-79396D01*
Y-78084D01*
X59383Y-77756D01*
X58399D01*
X60367Y-78084D02*
X60695Y-77756D01*
X61351D01*
X61679Y-78084D01*
Y-79396D01*
X61351Y-79724D01*
X60695D01*
X60367Y-79396D01*
Y-78084D01*
X64469Y-85630D02*
X65125D01*
X64797D01*
Y-87598D01*
X64469D01*
X65125D01*
X66109Y-85958D02*
X66437Y-85630D01*
X67093D01*
X67421Y-85958D01*
Y-87270D01*
X67093Y-87598D01*
X66437D01*
X66109Y-87270D01*
Y-85958D01*
X68077Y-85630D02*
Y-87598D01*
X69061D01*
X69389Y-87270D01*
Y-85958D01*
X69061Y-85630D01*
X68077D01*
X64633Y-93504D02*
X65289D01*
X64961D01*
Y-95472D01*
X64633D01*
X65289D01*
X66273D02*
X66929D01*
X66601D01*
Y-93504D01*
X66273Y-93832D01*
X67913Y-93504D02*
Y-95472D01*
X68897D01*
X69225Y-95144D01*
Y-93832D01*
X68897Y-93504D01*
X67913D01*
X56759D02*
X57415D01*
X57087D01*
Y-95472D01*
X56759D01*
X57415D01*
X58399D02*
X59055D01*
X58727D01*
Y-93504D01*
X58399Y-93832D01*
X61351D02*
X61023Y-93504D01*
X60367D01*
X60039Y-93832D01*
Y-95144D01*
X60367Y-95472D01*
X61023D01*
X61351Y-95144D01*
X48557Y-77756D02*
Y-79396D01*
X48885Y-79724D01*
X49541D01*
X49869Y-79396D01*
Y-77756D01*
X50525Y-78084D02*
X50853Y-77756D01*
X51509D01*
X51837Y-78084D01*
Y-79396D01*
X51509Y-79724D01*
X50853D01*
X50525Y-79396D01*
Y-78084D01*
X53805Y-77756D02*
X52493D01*
Y-78740D01*
X53149D01*
X52493D01*
Y-79724D01*
X48557Y-85630D02*
Y-87270D01*
X48885Y-87598D01*
X49541D01*
X49869Y-87270D01*
Y-85630D01*
X50525Y-85958D02*
X50853Y-85630D01*
X51509D01*
X51837Y-85958D01*
Y-87270D01*
X51509Y-87598D01*
X50853D01*
X50525Y-87270D01*
Y-85958D01*
X52493Y-85630D02*
X53805D01*
X53149D01*
Y-87598D01*
X48557Y-93504D02*
Y-95144D01*
X48885Y-95472D01*
X49541D01*
X49869Y-95144D01*
Y-93504D01*
X50525Y-93832D02*
X50853Y-93504D01*
X51509D01*
X51837Y-93832D01*
Y-95144D01*
X51509Y-95472D01*
X50853D01*
X50525Y-95144D01*
Y-93832D01*
X52493Y-95472D02*
Y-93504D01*
X53477D01*
X53805Y-93832D01*
Y-94488D01*
X53477Y-94816D01*
X52493D01*
X53149D02*
X53805Y-95472D01*
X41995Y-80053D02*
X41667Y-79725D01*
X41011D01*
X40683Y-80053D01*
Y-81365D01*
X41011Y-81693D01*
X41667D01*
X41995Y-81365D01*
Y-80709D01*
X41339D01*
X42651Y-81693D02*
Y-79725D01*
X43963Y-81693D01*
Y-79725D01*
X44619D02*
Y-81693D01*
X45603D01*
X45931Y-81365D01*
Y-80053D01*
X45603Y-79725D01*
X44619D01*
X32809D02*
X34121D01*
X33465D01*
Y-81693D01*
X36089Y-80053D02*
X35761Y-79725D01*
X35105D01*
X34777Y-80053D01*
Y-81365D01*
X35105Y-81693D01*
X35761D01*
X36089Y-81365D01*
X36745Y-79725D02*
Y-81693D01*
Y-81037D01*
X38057Y-79725D01*
X37073Y-80709D01*
X38057Y-81693D01*
X26247Y-80053D02*
X25919Y-79725D01*
X25263D01*
X24935Y-80053D01*
Y-81365D01*
X25263Y-81693D01*
X25919D01*
X26247Y-81365D01*
Y-80709D01*
X25591D01*
X26903Y-81693D02*
Y-79725D01*
X28215Y-81693D01*
Y-79725D01*
X28871D02*
Y-81693D01*
X29855D01*
X30183Y-81365D01*
Y-80053D01*
X29855Y-79725D01*
X28871D01*
X25263Y-84154D02*
X26575D01*
X25919D01*
Y-86122D01*
X27231Y-84154D02*
Y-86122D01*
X28215D01*
X28543Y-85794D01*
Y-84482D01*
X28215Y-84154D01*
X27231D01*
X29199D02*
X29855D01*
X29527D01*
Y-86122D01*
X29199D01*
X29855D01*
X40683Y-85630D02*
Y-83662D01*
X41667D01*
X41995Y-83990D01*
Y-84646D01*
X41667Y-84974D01*
X40683D01*
X41339D02*
X41995Y-85630D01*
X43963Y-83990D02*
X43635Y-83662D01*
X42979D01*
X42651Y-83990D01*
Y-84318D01*
X42979Y-84646D01*
X43635D01*
X43963Y-84974D01*
Y-85302D01*
X43635Y-85630D01*
X42979D01*
X42651Y-85302D01*
X44619Y-83662D02*
X45931D01*
X45275D01*
Y-85630D01*
X32809Y-83662D02*
X34121D01*
X33465D01*
Y-85630D01*
X34777D02*
Y-83662D01*
X35433Y-84318D01*
X36089Y-83662D01*
Y-85630D01*
X38057Y-83990D02*
X37729Y-83662D01*
X37073D01*
X36745Y-83990D01*
Y-84318D01*
X37073Y-84646D01*
X37729D01*
X38057Y-84974D01*
Y-85302D01*
X37729Y-85630D01*
X37073D01*
X36745Y-85302D01*
X17061Y-79725D02*
X18373D01*
X17717D01*
Y-81693D01*
X19029Y-79725D02*
Y-81693D01*
X20013D01*
X20341Y-81365D01*
Y-80053D01*
X20013Y-79725D01*
X19029D01*
X21981D02*
X21325D01*
X20997Y-80053D01*
Y-81365D01*
X21325Y-81693D01*
X21981D01*
X22309Y-81365D01*
Y-80053D01*
X21981Y-79725D01*
X57415Y8858D02*
Y7546D01*
X58071Y6890D01*
X58727Y7546D01*
Y8858D01*
X59383D02*
Y6890D01*
X60695D01*
X65289Y8858D02*
Y7218D01*
X65617Y6890D01*
X66273D01*
X66601Y7218D01*
Y8858D01*
X67257D02*
Y6890D01*
X68569D01*
X57415Y16732D02*
Y15420D01*
X58071Y14764D01*
X58727Y15420D01*
Y16732D01*
X59383D02*
Y14764D01*
Y15748D01*
X60695D01*
Y16732D01*
Y14764D01*
X65289Y16732D02*
Y15092D01*
X65617Y14764D01*
X66273D01*
X66601Y15092D01*
Y16732D01*
X67257D02*
Y14764D01*
Y15748D01*
X68569D01*
Y16732D01*
Y14764D01*
X49541Y16732D02*
Y14764D01*
X50197Y15420D01*
X50853Y14764D01*
Y16732D01*
X51509D02*
Y14764D01*
Y15748D01*
X52821D01*
Y16732D01*
Y14764D01*
X49541Y8858D02*
Y6890D01*
X50197Y7546D01*
X50853Y6890D01*
Y8858D01*
X51509D02*
Y6890D01*
X52821D01*
X-52657Y-93504D02*
X-52001D01*
X-52329D01*
Y-95472D01*
X-52657D01*
X-52001D01*
X-51017Y-95144D02*
X-50689Y-95472D01*
X-50033D01*
X-49705Y-95144D01*
Y-93832D01*
X-50033Y-93504D01*
X-50689D01*
X-51017Y-93832D01*
Y-94160D01*
X-50689Y-94488D01*
X-49705D01*
X-61351Y-93504D02*
X-60695D01*
X-61023D01*
Y-95472D01*
X-61351D01*
X-60695D01*
X-59711D02*
X-59055D01*
X-59383D01*
Y-93504D01*
X-59711Y-93832D01*
X-56759Y-93504D02*
X-57415Y-93832D01*
X-58071Y-94488D01*
Y-95144D01*
X-57743Y-95472D01*
X-57087D01*
X-56759Y-95144D01*
Y-94816D01*
X-57087Y-94488D01*
X-58071D01*
X-68077Y-93504D02*
X-67421D01*
X-67749D01*
Y-95472D01*
X-68077D01*
X-67421D01*
X-66437D02*
X-65781D01*
X-66109D01*
Y-93504D01*
X-66437Y-93832D01*
X-53477Y-85630D02*
X-52821D01*
X-53149D01*
Y-87598D01*
X-53477D01*
X-52821D01*
X-51837D02*
X-51181D01*
X-51509D01*
Y-85630D01*
X-51837Y-85958D01*
X-50197Y-85630D02*
X-48885D01*
Y-85958D01*
X-50197Y-87270D01*
Y-87598D01*
X-68405Y-85630D02*
X-67749D01*
X-68077D01*
Y-87598D01*
X-68405D01*
X-67749D01*
X-65453Y-85630D02*
X-66765D01*
Y-86614D01*
X-66109Y-86286D01*
X-65781D01*
X-65453Y-86614D01*
Y-87270D01*
X-65781Y-87598D01*
X-66437D01*
X-66765Y-87270D01*
X-52657Y-77756D02*
X-52001D01*
X-52329D01*
Y-79724D01*
X-52657D01*
X-52001D01*
X-49705Y-77756D02*
X-50361Y-78084D01*
X-51017Y-78740D01*
Y-79396D01*
X-50689Y-79724D01*
X-50033D01*
X-49705Y-79396D01*
Y-79068D01*
X-50033Y-78740D01*
X-51017D01*
X-60531Y-77756D02*
X-59875D01*
X-60203D01*
Y-79724D01*
X-60531D01*
X-59875D01*
X-58891Y-77756D02*
X-57579D01*
Y-78084D01*
X-58891Y-79396D01*
Y-79724D01*
X-69225Y-77756D02*
X-68569D01*
X-68897D01*
Y-79724D01*
X-69225D01*
X-68569D01*
X-67585D02*
X-66929D01*
X-67257D01*
Y-77756D01*
X-67585Y-78084D01*
X-65945D02*
X-65617Y-77756D01*
X-64961D01*
X-64633Y-78084D01*
Y-78412D01*
X-64961Y-78740D01*
X-65289D01*
X-64961D01*
X-64633Y-79068D01*
Y-79396D01*
X-64961Y-79724D01*
X-65617D01*
X-65945Y-79396D01*
X-53149Y-69882D02*
X-52493D01*
X-52821D01*
Y-71850D01*
X-53149D01*
X-52493D01*
X-51509D02*
X-50853D01*
X-51181D01*
Y-69882D01*
X-51509Y-70210D01*
X-49869Y-71850D02*
X-49213D01*
X-49541D01*
Y-69882D01*
X-49869Y-70210D01*
X-69225Y-69882D02*
X-68569D01*
X-68897D01*
Y-71850D01*
X-69225D01*
X-68569D01*
X-67585D02*
X-66929D01*
X-67257D01*
Y-69882D01*
X-67585Y-70210D01*
X-64633Y-69882D02*
X-65945D01*
Y-70866D01*
X-65289Y-70538D01*
X-64961D01*
X-64633Y-70866D01*
Y-71522D01*
X-64961Y-71850D01*
X-65617D01*
X-65945Y-71522D01*
X-52657Y-62008D02*
X-52001D01*
X-52329D01*
Y-63976D01*
X-52657D01*
X-52001D01*
X-51017Y-62336D02*
X-50689Y-62008D01*
X-50033D01*
X-49705Y-62336D01*
Y-63648D01*
X-50033Y-63976D01*
X-50689D01*
X-51017Y-63648D01*
Y-62336D01*
X-61351Y-62008D02*
X-60695D01*
X-61023D01*
Y-63976D01*
X-61351D01*
X-60695D01*
X-59711D02*
X-59055D01*
X-59383D01*
Y-62008D01*
X-59711Y-62336D01*
X-56759Y-63976D02*
X-58071D01*
X-56759Y-62664D01*
Y-62336D01*
X-57087Y-62008D01*
X-57743D01*
X-58071Y-62336D01*
X-69225Y-62008D02*
X-68569D01*
X-68897D01*
Y-63976D01*
X-69225D01*
X-68569D01*
X-67585D02*
X-66929D01*
X-67257D01*
Y-62008D01*
X-67585Y-62336D01*
X-65945D02*
X-65617Y-62008D01*
X-64961D01*
X-64633Y-62336D01*
Y-63648D01*
X-64961Y-63976D01*
X-65617D01*
X-65945Y-63648D01*
Y-62336D01*
X-52657Y-54134D02*
X-52001D01*
X-52329D01*
Y-56102D01*
X-52657D01*
X-52001D01*
X-51017Y-54462D02*
X-50689Y-54134D01*
X-50033D01*
X-49705Y-54462D01*
Y-54790D01*
X-50033Y-55118D01*
X-50361D01*
X-50033D01*
X-49705Y-55446D01*
Y-55774D01*
X-50033Y-56102D01*
X-50689D01*
X-51017Y-55774D01*
X-60531Y-54134D02*
X-59875D01*
X-60203D01*
Y-56102D01*
X-60531D01*
X-59875D01*
X-57579D02*
X-58891D01*
X-57579Y-54790D01*
Y-54462D01*
X-57907Y-54134D01*
X-58563D01*
X-58891Y-54462D01*
X-68405Y-54134D02*
X-67749D01*
X-68077D01*
Y-56102D01*
X-68405D01*
X-67749D01*
X-66765Y-54462D02*
X-66437Y-54134D01*
X-65781D01*
X-65453Y-54462D01*
Y-54790D01*
X-65781Y-55118D01*
X-65453Y-55446D01*
Y-55774D01*
X-65781Y-56102D01*
X-66437D01*
X-66765Y-55774D01*
Y-55446D01*
X-66437Y-55118D01*
X-66765Y-54790D01*
Y-54462D01*
X-66437Y-55118D02*
X-65781D01*
X-53477Y-46260D02*
X-52821D01*
X-53149D01*
Y-48228D01*
X-53477D01*
X-52821D01*
X-51837D02*
X-51181D01*
X-51509D01*
Y-46260D01*
X-51837Y-46588D01*
X-49213Y-48228D02*
Y-46260D01*
X-50197Y-47244D01*
X-48885D01*
X-68405Y-46260D02*
X-67749D01*
X-68077D01*
Y-48228D01*
X-68405D01*
X-67749D01*
X-65781D02*
Y-46260D01*
X-66765Y-47244D01*
X-65453D01*
X-53805Y-38386D02*
Y-40026D01*
X-53477Y-40354D01*
X-52821D01*
X-52493Y-40026D01*
Y-38386D01*
X-51837Y-38714D02*
X-51509Y-38386D01*
X-50853D01*
X-50525Y-38714D01*
Y-39042D01*
X-50853Y-39370D01*
X-51181D01*
X-50853D01*
X-50525Y-39698D01*
Y-40026D01*
X-50853Y-40354D01*
X-51509D01*
X-51837Y-40026D01*
X-49869Y-38386D02*
X-48557D01*
X-49213D01*
Y-40354D01*
X-61679Y-38386D02*
Y-40026D01*
X-61351Y-40354D01*
X-60695D01*
X-60367Y-40026D01*
Y-38386D01*
X-58727Y-40354D02*
Y-38386D01*
X-59711Y-39370D01*
X-58399D01*
X-57743Y-40354D02*
Y-38386D01*
X-56759D01*
X-56431Y-38714D01*
Y-39370D01*
X-56759Y-39698D01*
X-57743D01*
X-57087D02*
X-56431Y-40354D01*
X-69553Y-38386D02*
Y-40026D01*
X-69225Y-40354D01*
X-68569D01*
X-68241Y-40026D01*
Y-38386D01*
X-66601Y-40354D02*
Y-38386D01*
X-67585Y-39370D01*
X-66273D01*
X-65617Y-38386D02*
X-64305D01*
X-64961D01*
Y-40354D01*
X-53805Y-30512D02*
Y-32152D01*
X-53477Y-32480D01*
X-52821D01*
X-52493Y-32152D01*
Y-30512D01*
X-50525Y-32480D02*
X-51837D01*
X-50525Y-31168D01*
Y-30840D01*
X-50853Y-30512D01*
X-51509D01*
X-51837Y-30840D01*
X-49869Y-30512D02*
X-48557D01*
X-49213D01*
Y-32480D01*
X-61679Y-30512D02*
Y-32152D01*
X-61351Y-32480D01*
X-60695D01*
X-60367Y-32152D01*
Y-30512D01*
X-58399Y-32480D02*
X-59711D01*
X-58399Y-31168D01*
Y-30840D01*
X-58727Y-30512D01*
X-59383D01*
X-59711Y-30840D01*
X-57743Y-32480D02*
Y-30512D01*
X-56759D01*
X-56431Y-30840D01*
Y-31496D01*
X-56759Y-31824D01*
X-57743D01*
X-57087D02*
X-56431Y-32480D01*
X-69553Y-30512D02*
Y-32152D01*
X-69225Y-32480D01*
X-68569D01*
X-68241Y-32152D01*
Y-30512D01*
X-66273D02*
X-67585D01*
Y-31496D01*
X-66929Y-31168D01*
X-66601D01*
X-66273Y-31496D01*
Y-32152D01*
X-66601Y-32480D01*
X-67257D01*
X-67585Y-32152D01*
X-65617Y-32480D02*
Y-30512D01*
X-64633D01*
X-64305Y-30840D01*
Y-31496D01*
X-64633Y-31824D01*
X-65617D01*
X-64961D02*
X-64305Y-32480D01*
X-53805Y-22638D02*
Y-24278D01*
X-53477Y-24606D01*
X-52821D01*
X-52493Y-24278D01*
Y-22638D01*
X-51837Y-22966D02*
X-51509Y-22638D01*
X-50853D01*
X-50525Y-22966D01*
Y-23294D01*
X-50853Y-23622D01*
X-51181D01*
X-50853D01*
X-50525Y-23950D01*
Y-24278D01*
X-50853Y-24606D01*
X-51509D01*
X-51837Y-24278D01*
X-49869Y-24606D02*
Y-22638D01*
X-48885D01*
X-48557Y-22966D01*
Y-23622D01*
X-48885Y-23950D01*
X-49869D01*
X-49213D02*
X-48557Y-24606D01*
X-69553Y-22638D02*
Y-24278D01*
X-69225Y-24606D01*
X-68569D01*
X-68241Y-24278D01*
Y-22638D01*
X-66273D02*
X-67585D01*
Y-23622D01*
X-66929Y-23294D01*
X-66601D01*
X-66273Y-23622D01*
Y-24278D01*
X-66601Y-24606D01*
X-67257D01*
X-67585Y-24278D01*
X-65617Y-22638D02*
X-64305D01*
X-64961D01*
Y-24606D01*
X-51837Y-14764D02*
X-52493D01*
X-52821Y-15092D01*
Y-16404D01*
X-52493Y-16732D01*
X-51837D01*
X-51509Y-16404D01*
Y-15092D01*
X-51837Y-14764D01*
X-50853Y-15092D02*
X-50525Y-14764D01*
X-49869D01*
X-49541Y-15092D01*
Y-16404D01*
X-49869Y-16732D01*
X-50525D01*
X-50853Y-16404D01*
Y-15092D01*
X-59383Y-14764D02*
X-60039D01*
X-60367Y-15092D01*
Y-16404D01*
X-60039Y-16732D01*
X-59383D01*
X-59055Y-16404D01*
Y-15092D01*
X-59383Y-14764D01*
X-58399Y-16732D02*
X-57743D01*
X-58071D01*
Y-14764D01*
X-58399Y-15092D01*
X-67585Y-14764D02*
X-68241D01*
X-68569Y-15092D01*
Y-16404D01*
X-68241Y-16732D01*
X-67585D01*
X-67257Y-16404D01*
Y-15092D01*
X-67585Y-14764D01*
X-65289D02*
X-65945Y-15092D01*
X-66601Y-15748D01*
Y-16404D01*
X-66273Y-16732D01*
X-65617D01*
X-65289Y-16404D01*
Y-16076D01*
X-65617Y-15748D01*
X-66601D01*
X-51837Y-6890D02*
X-52493D01*
X-52821Y-7218D01*
Y-8530D01*
X-52493Y-8858D01*
X-51837D01*
X-51509Y-8530D01*
Y-7218D01*
X-51837Y-6890D01*
X-49541Y-8858D02*
X-50853D01*
X-49541Y-7546D01*
Y-7218D01*
X-49869Y-6890D01*
X-50525D01*
X-50853Y-7218D01*
X-60531Y-6890D02*
X-61187D01*
X-61515Y-7218D01*
Y-8530D01*
X-61187Y-8858D01*
X-60531D01*
X-60203Y-8530D01*
Y-7218D01*
X-60531Y-6890D01*
X-59547Y-8858D02*
X-58891D01*
X-59219D01*
Y-6890D01*
X-59547Y-7218D01*
X-56595Y-6890D02*
X-57251Y-7218D01*
X-57907Y-7874D01*
Y-8530D01*
X-57579Y-8858D01*
X-56923D01*
X-56595Y-8530D01*
Y-8202D01*
X-56923Y-7874D01*
X-57907D01*
X-67585Y-6890D02*
X-68241D01*
X-68569Y-7218D01*
Y-8530D01*
X-68241Y-8858D01*
X-67585D01*
X-67257Y-8530D01*
Y-7218D01*
X-67585Y-6890D01*
X-66601Y-7218D02*
X-66273Y-6890D01*
X-65617D01*
X-65289Y-7218D01*
Y-7546D01*
X-65617Y-7874D01*
X-65945D01*
X-65617D01*
X-65289Y-8202D01*
Y-8530D01*
X-65617Y-8858D01*
X-66273D01*
X-66601Y-8530D01*
X-52657Y984D02*
X-53313D01*
X-53641Y656D01*
Y-656D01*
X-53313Y-984D01*
X-52657D01*
X-52329Y-656D01*
Y656D01*
X-52657Y984D01*
X-51673Y-984D02*
X-51017D01*
X-51345D01*
Y984D01*
X-51673Y656D01*
X-50033D02*
X-49705Y984D01*
X-49049D01*
X-48721Y656D01*
Y328D01*
X-49049Y0D01*
X-49377D01*
X-49049D01*
X-48721Y-328D01*
Y-656D01*
X-49049Y-984D01*
X-49705D01*
X-50033Y-656D01*
X-68405Y984D02*
X-69061D01*
X-69389Y656D01*
Y-656D01*
X-69061Y-984D01*
X-68405D01*
X-68077Y-656D01*
Y656D01*
X-68405Y984D01*
X-67421Y-984D02*
X-66765D01*
X-67093D01*
Y984D01*
X-67421Y656D01*
X-65781D02*
X-65453Y984D01*
X-64797D01*
X-64469Y656D01*
Y-656D01*
X-64797Y-984D01*
X-65453D01*
X-65781Y-656D01*
Y656D01*
X-51837Y8858D02*
X-52493D01*
X-52821Y8530D01*
Y7218D01*
X-52493Y6890D01*
X-51837D01*
X-51509Y7218D01*
Y8530D01*
X-51837Y8858D01*
X-49541D02*
X-50853D01*
Y7874D01*
X-50197Y8202D01*
X-49869D01*
X-49541Y7874D01*
Y7218D01*
X-49869Y6890D01*
X-50525D01*
X-50853Y7218D01*
X-59711Y8858D02*
X-60367D01*
X-60695Y8530D01*
Y7218D01*
X-60367Y6890D01*
X-59711D01*
X-59383Y7218D01*
Y8530D01*
X-59711Y8858D01*
X-58727D02*
X-57415D01*
Y8530D01*
X-58727Y7218D01*
Y6890D01*
X-67585Y8858D02*
X-68241D01*
X-68569Y8530D01*
Y7218D01*
X-68241Y6890D01*
X-67585D01*
X-67257Y7218D01*
Y8530D01*
X-67585Y8858D01*
X-65617Y6890D02*
Y8858D01*
X-66601Y7874D01*
X-65289D01*
X-52657Y16732D02*
X-53313D01*
X-53641Y16404D01*
Y15092D01*
X-53313Y14764D01*
X-52657D01*
X-52329Y15092D01*
Y16404D01*
X-52657Y16732D01*
X-51673Y14764D02*
X-51017D01*
X-51345D01*
Y16732D01*
X-51673Y16404D01*
X-48721Y14764D02*
X-50033D01*
X-48721Y16076D01*
Y16404D01*
X-49049Y16732D01*
X-49705D01*
X-50033Y16404D01*
X-60203Y16732D02*
X-60859D01*
X-61187Y16404D01*
Y15092D01*
X-60859Y14764D01*
X-60203D01*
X-59875Y15092D01*
Y16404D01*
X-60203Y16732D01*
X-59219Y14764D02*
X-58563D01*
X-58891D01*
Y16732D01*
X-59219Y16404D01*
X-57579Y14764D02*
X-56923D01*
X-57251D01*
Y16732D01*
X-57579Y16404D01*
X-67585Y16732D02*
X-68241D01*
X-68569Y16404D01*
Y15092D01*
X-68241Y14764D01*
X-67585D01*
X-67257Y15092D01*
Y16404D01*
X-67585Y16732D01*
X-66601Y16404D02*
X-66273Y16732D01*
X-65617D01*
X-65289Y16404D01*
Y16076D01*
X-65617Y15748D01*
X-65289Y15420D01*
Y15092D01*
X-65617Y14764D01*
X-66273D01*
X-66601Y15092D01*
Y15420D01*
X-66273Y15748D01*
X-66601Y16076D01*
Y16404D01*
X-66273Y15748D02*
X-65617D01*
X-52657Y24606D02*
X-53313D01*
X-53641Y24278D01*
Y22966D01*
X-53313Y22638D01*
X-52657D01*
X-52329Y22966D01*
Y24278D01*
X-52657Y24606D01*
X-51673Y22638D02*
X-51017D01*
X-51345D01*
Y24606D01*
X-51673Y24278D01*
X-50033Y24606D02*
X-48721D01*
Y24278D01*
X-50033Y22966D01*
Y22638D01*
X-68405Y24606D02*
X-69061D01*
X-69389Y24278D01*
Y22966D01*
X-69061Y22638D01*
X-68405D01*
X-68077Y22966D01*
Y24278D01*
X-68405Y24606D01*
X-67421Y22638D02*
X-66765D01*
X-67093D01*
Y24606D01*
X-67421Y24278D01*
X-64797Y22638D02*
Y24606D01*
X-65781Y23622D01*
X-64469D01*
X-52657Y32480D02*
X-53313D01*
X-53641Y32152D01*
Y30840D01*
X-53313Y30512D01*
X-52657D01*
X-52329Y30840D01*
Y32152D01*
X-52657Y32480D01*
X-51673Y30512D02*
X-51017D01*
X-51345D01*
Y32480D01*
X-51673Y32152D01*
X-48721Y32480D02*
X-50033D01*
Y31496D01*
X-49377Y31824D01*
X-49049D01*
X-48721Y31496D01*
Y30840D01*
X-49049Y30512D01*
X-49705D01*
X-50033Y30840D01*
X-59711Y32480D02*
X-60367D01*
X-60695Y32152D01*
Y30840D01*
X-60367Y30512D01*
X-59711D01*
X-59383Y30840D01*
Y32152D01*
X-59711Y32480D01*
X-58727Y30840D02*
X-58399Y30512D01*
X-57743D01*
X-57415Y30840D01*
Y32152D01*
X-57743Y32480D01*
X-58399D01*
X-58727Y32152D01*
Y31824D01*
X-58399Y31496D01*
X-57415D01*
X-67257Y32480D02*
X-68569D01*
Y31496D01*
X-67913Y31824D01*
X-67585D01*
X-67257Y31496D01*
Y30840D01*
X-67585Y30512D01*
X-68241D01*
X-68569Y30840D01*
X-66601Y32480D02*
Y31168D01*
X-65945Y30512D01*
X-65289Y31168D01*
Y32480D01*
X57743Y656D02*
X57415Y984D01*
X56759D01*
X56431Y656D01*
Y-656D01*
X56759Y-984D01*
X57415D01*
X57743Y-656D01*
Y0D01*
X57087D01*
X58399Y-984D02*
Y984D01*
X59711Y-984D01*
Y984D01*
X60367D02*
Y-984D01*
X61351D01*
X61679Y-656D01*
Y656D01*
X61351Y984D01*
X60367D01*
X57743Y-15092D02*
X57415Y-14764D01*
X56759D01*
X56431Y-15092D01*
Y-16404D01*
X56759Y-16732D01*
X57415D01*
X57743Y-16404D01*
Y-15748D01*
X57087D01*
X58399Y-16732D02*
Y-14764D01*
X59711Y-16732D01*
Y-14764D01*
X60367D02*
Y-16732D01*
X61351D01*
X61679Y-16404D01*
Y-15092D01*
X61351Y-14764D01*
X60367D01*
X57743Y-38714D02*
X57415Y-38386D01*
X56759D01*
X56431Y-38714D01*
Y-40026D01*
X56759Y-40354D01*
X57415D01*
X57743Y-40026D01*
Y-39370D01*
X57087D01*
X58399Y-40354D02*
Y-38386D01*
X59711Y-40354D01*
Y-38386D01*
X60367D02*
Y-40354D01*
X61351D01*
X61679Y-40026D01*
Y-38714D01*
X61351Y-38386D01*
X60367D01*
X57743Y-62336D02*
X57415Y-62008D01*
X56759D01*
X56431Y-62336D01*
Y-63648D01*
X56759Y-63976D01*
X57415D01*
X57743Y-63648D01*
Y-62992D01*
X57087D01*
X58399Y-63976D02*
Y-62008D01*
X59711Y-63976D01*
Y-62008D01*
X60367D02*
Y-63976D01*
X61351D01*
X61679Y-63648D01*
Y-62336D01*
X61351Y-62008D01*
X60367D01*
X57743Y-85958D02*
X57415Y-85630D01*
X56759D01*
X56431Y-85958D01*
Y-87270D01*
X56759Y-87598D01*
X57415D01*
X57743Y-87270D01*
Y-86614D01*
X57087D01*
X58399Y-87598D02*
Y-85630D01*
X59711Y-87598D01*
Y-85630D01*
X60367D02*
Y-87598D01*
X61351D01*
X61679Y-87270D01*
Y-85958D01*
X61351Y-85630D01*
X60367D01*
X-60367Y-85958D02*
X-60695Y-85630D01*
X-61351D01*
X-61679Y-85958D01*
Y-87270D01*
X-61351Y-87598D01*
X-60695D01*
X-60367Y-87270D01*
Y-86614D01*
X-61023D01*
X-59711Y-87598D02*
Y-85630D01*
X-58399Y-87598D01*
Y-85630D01*
X-57743D02*
Y-87598D01*
X-56759D01*
X-56431Y-87270D01*
Y-85958D01*
X-56759Y-85630D01*
X-57743D01*
X-60367Y-70210D02*
X-60695Y-69882D01*
X-61351D01*
X-61679Y-70210D01*
Y-71522D01*
X-61351Y-71850D01*
X-60695D01*
X-60367Y-71522D01*
Y-70866D01*
X-61023D01*
X-59711Y-71850D02*
Y-69882D01*
X-58399Y-71850D01*
Y-69882D01*
X-57743D02*
Y-71850D01*
X-56759D01*
X-56431Y-71522D01*
Y-70210D01*
X-56759Y-69882D01*
X-57743D01*
X-60367Y-46588D02*
X-60695Y-46260D01*
X-61351D01*
X-61679Y-46588D01*
Y-47900D01*
X-61351Y-48228D01*
X-60695D01*
X-60367Y-47900D01*
Y-47244D01*
X-61023D01*
X-59711Y-48228D02*
Y-46260D01*
X-58399Y-48228D01*
Y-46260D01*
X-57743D02*
Y-48228D01*
X-56759D01*
X-56431Y-47900D01*
Y-46588D01*
X-56759Y-46260D01*
X-57743D01*
X-60367Y-22966D02*
X-60695Y-22638D01*
X-61351D01*
X-61679Y-22966D01*
Y-24278D01*
X-61351Y-24606D01*
X-60695D01*
X-60367Y-24278D01*
Y-23622D01*
X-61023D01*
X-59711Y-24606D02*
Y-22638D01*
X-58399Y-24606D01*
Y-22638D01*
X-57743D02*
Y-24606D01*
X-56759D01*
X-56431Y-24278D01*
Y-22966D01*
X-56759Y-22638D01*
X-57743D01*
X-60367Y656D02*
X-60695Y984D01*
X-61351D01*
X-61679Y656D01*
Y-656D01*
X-61351Y-984D01*
X-60695D01*
X-60367Y-656D01*
Y0D01*
X-61023D01*
X-59711Y-984D02*
Y984D01*
X-58399Y-984D01*
Y984D01*
X-57743D02*
Y-984D01*
X-56759D01*
X-56431Y-656D01*
Y656D01*
X-56759Y984D01*
X-57743D01*
X-60367Y24278D02*
X-60695Y24606D01*
X-61351D01*
X-61679Y24278D01*
Y22966D01*
X-61351Y22638D01*
X-60695D01*
X-60367Y22966D01*
Y23622D01*
X-61023D01*
X-59711Y22638D02*
Y24606D01*
X-58399Y22638D01*
Y24606D01*
X-57743D02*
Y22638D01*
X-56759D01*
X-56431Y22966D01*
Y24278D01*
X-56759Y24606D01*
X-57743D01*
D11*
X28543Y-41535D02*
Y-39173D01*
X40354Y-41535D02*
Y-39173D01*
X32480Y-44882D02*
X36417D01*
X32480Y-35827D02*
X36417D01*
X-5118Y16929D02*
Y18898D01*
X-7087Y16929D02*
X-5118D01*
X18504D02*
Y18898D01*
X16535Y16929D02*
X18504D01*
X24409Y-44882D02*
X25197Y-44094D01*
X-25197Y5512D02*
X25197D01*
X-25197Y-44882D02*
Y5512D01*
Y-44882D02*
X25197D01*
Y5512D01*
X-3858Y74803D02*
Y98425D01*
X-67008Y74803D02*
Y98425D01*
X-3858Y37795D02*
Y60039D01*
X-67008Y37795D02*
Y60039D01*
Y37795D02*
X-3858D01*
X67008Y74803D02*
Y98425D01*
X3858Y74803D02*
Y98425D01*
X67008Y37795D02*
Y60039D01*
X3858Y37795D02*
Y60039D01*
Y37795D02*
X67008D01*
M02*
