G04*
G04 #@! TF.GenerationSoftware,Altium Limited,Altium Designer,24.5.2 (23)*
G04*
G04 Layer_Color=14277081*
%FSLAX25Y25*%
%MOIN*%
G70*
G04*
G04 #@! TF.SameCoordinates,5896D42C-AEC6-4B40-896E-768CB86E770B*
G04*
G04*
G04 #@! TF.FilePolarity,Negative*
G04*
G01*
G75*
%ADD33R,0.02362X0.01968*%
%ADD35R,0.01968X0.02362*%
%ADD50R,0.07874X0.10354*%
%ADD51C,0.04921*%
%ADD52C,0.05906*%
%ADD53C,0.10354*%
%ADD54C,0.02756*%
%ADD55R,0.19685X0.05906*%
%ADD56R,0.05906X0.05906*%
%ADD70R,0.01968X0.01968*%
D33*
X-8661Y-64764D02*
D03*
Y-68307D02*
D03*
X-4331Y-64764D02*
D03*
Y-68307D02*
D03*
X-34646Y-64764D02*
D03*
Y-68307D02*
D03*
X-30315Y-64764D02*
D03*
Y-68307D02*
D03*
X-21654Y-64764D02*
D03*
Y-68307D02*
D03*
X4921Y60827D02*
D03*
Y57284D02*
D03*
X-12992Y-68307D02*
D03*
Y-64764D02*
D03*
X-25984Y-68307D02*
D03*
Y-64764D02*
D03*
X-4921Y60827D02*
D03*
Y57284D02*
D03*
X-10827Y-34252D02*
D03*
Y-30709D02*
D03*
X-4921Y-7677D02*
D03*
Y-4134D02*
D03*
X8858Y-10630D02*
D03*
Y-7087D02*
D03*
X-14764Y-34252D02*
D03*
Y-30709D02*
D03*
X-10827Y-20866D02*
D03*
Y-24409D02*
D03*
X-6890Y-34252D02*
D03*
Y-30709D02*
D03*
X13780Y-29331D02*
D03*
Y-25787D02*
D03*
X-5906Y-18504D02*
D03*
Y-14961D02*
D03*
X9843Y-29331D02*
D03*
Y-25787D02*
D03*
X12795Y-10630D02*
D03*
Y-7087D02*
D03*
X4921Y-14567D02*
D03*
Y-11024D02*
D03*
X984Y-10630D02*
D03*
Y-7087D02*
D03*
X-984Y-10630D02*
D03*
Y-7087D02*
D03*
X-4921Y-22835D02*
D03*
Y-26378D02*
D03*
X-2953Y-18504D02*
D03*
Y-14961D02*
D03*
X10827Y-18898D02*
D03*
Y-22441D02*
D03*
X0Y-18504D02*
D03*
Y-14961D02*
D03*
D35*
X1181Y-30512D02*
D03*
X4724D02*
D03*
X-11614Y-27559D02*
D03*
X-8071D02*
D03*
X-197Y-30512D02*
D03*
X-3740D02*
D03*
X-68701Y47244D02*
D03*
X-65158D02*
D03*
X-68701Y49213D02*
D03*
X-65158D02*
D03*
X-68701Y55118D02*
D03*
X-65158D02*
D03*
X-68701Y57087D02*
D03*
X-65158D02*
D03*
X-68701Y51181D02*
D03*
X-65158D02*
D03*
X-68701Y53150D02*
D03*
X-65158D02*
D03*
X-68701Y45276D02*
D03*
X-65158D02*
D03*
X-68701Y39370D02*
D03*
X-65158D02*
D03*
X-68701Y41339D02*
D03*
X-65158D02*
D03*
X-68701Y35433D02*
D03*
X-65158D02*
D03*
X-68701Y37402D02*
D03*
X-65158D02*
D03*
X-68701Y43307D02*
D03*
X-65158D02*
D03*
X4724Y-34449D02*
D03*
X1181D02*
D03*
X-3740D02*
D03*
X-197D02*
D03*
X12598Y-14764D02*
D03*
X9055D02*
D03*
X-12598D02*
D03*
X-9055D02*
D03*
X3150Y-22638D02*
D03*
X6693D02*
D03*
X-7087Y-10827D02*
D03*
X-10630D02*
D03*
X2165Y-26575D02*
D03*
X5709D02*
D03*
X3150Y-18701D02*
D03*
X6693D02*
D03*
D50*
X65925Y66732D02*
D03*
X-65925D02*
D03*
D51*
X-66929Y-27559D02*
D03*
Y-35433D02*
D03*
Y-43307D02*
D03*
X-59055D02*
D03*
X-51181D02*
D03*
Y-27559D02*
D03*
Y-35433D02*
D03*
X-59055D02*
D03*
X51181Y-66929D02*
D03*
X66929Y-59055D02*
D03*
Y-66929D02*
D03*
X51181Y-90551D02*
D03*
Y-98425D02*
D03*
Y-82677D02*
D03*
Y-74803D02*
D03*
X66929Y-43307D02*
D03*
X59055Y-82677D02*
D03*
X51181Y-27559D02*
D03*
Y-35433D02*
D03*
X66929D02*
D03*
X51181Y-43307D02*
D03*
X66929Y-82677D02*
D03*
Y-74803D02*
D03*
X-51181Y19685D02*
D03*
X-59055Y-11811D02*
D03*
X-51181Y27559D02*
D03*
X-66929Y19685D02*
D03*
X-51181Y-3937D02*
D03*
Y11811D02*
D03*
X-59055D02*
D03*
X-66929Y-3937D02*
D03*
X-59055Y27559D02*
D03*
X-66929Y11811D02*
D03*
X-59055Y3937D02*
D03*
X-66929Y-19685D02*
D03*
X-51181Y3937D02*
D03*
X-66929D02*
D03*
Y-11811D02*
D03*
X-51181D02*
D03*
X-59055Y-19685D02*
D03*
X-51181D02*
D03*
Y-90551D02*
D03*
X-59055Y-98425D02*
D03*
X-66929Y-74803D02*
D03*
X-51181Y-51181D02*
D03*
X-66929Y-82677D02*
D03*
X-59055Y-66929D02*
D03*
X-51181Y-74803D02*
D03*
X-66929Y-66929D02*
D03*
X-51181Y-98425D02*
D03*
X-66929Y-59055D02*
D03*
X-59055Y-82677D02*
D03*
X-51181D02*
D03*
X-66929Y-90551D02*
D03*
Y-51181D02*
D03*
X-51181Y-59055D02*
D03*
X-59055D02*
D03*
X-66929Y-98425D02*
D03*
X-51181Y-66929D02*
D03*
X59055Y-51181D02*
D03*
X66929Y-3937D02*
D03*
Y-27559D02*
D03*
Y-51181D02*
D03*
X59055Y-27559D02*
D03*
X51181Y-19685D02*
D03*
X59055Y-59055D02*
D03*
X51181Y-11811D02*
D03*
Y-59055D02*
D03*
X66929Y-11811D02*
D03*
Y-19685D02*
D03*
X51181Y-3937D02*
D03*
X59055Y-35433D02*
D03*
Y-11811D02*
D03*
Y-74803D02*
D03*
X27559Y-98425D02*
D03*
X35433D02*
D03*
X19685Y-90551D02*
D03*
X35433D02*
D03*
X43307Y-98425D02*
D03*
X27559Y-90551D02*
D03*
X43307D02*
D03*
X19685Y-98425D02*
D03*
X51181Y3937D02*
D03*
Y11811D02*
D03*
X59055Y3937D02*
D03*
Y11811D02*
D03*
X66929Y3937D02*
D03*
Y11811D02*
D03*
Y-98425D02*
D03*
X59055D02*
D03*
X66929Y-90551D02*
D03*
X51181Y-51181D02*
D03*
X59055Y-90551D02*
D03*
Y-66929D02*
D03*
Y-43307D02*
D03*
Y-19685D02*
D03*
Y-3937D02*
D03*
X-59055Y-90551D02*
D03*
Y-74803D02*
D03*
Y-51181D02*
D03*
Y-27559D02*
D03*
Y-3937D02*
D03*
Y19685D02*
D03*
X-66929Y27559D02*
D03*
D52*
X-52933Y43740D02*
D03*
X-47933Y53740D02*
D03*
X-42933Y43740D02*
D03*
X-37933Y53740D02*
D03*
X-32933Y43740D02*
D03*
X-27933Y53740D02*
D03*
X-17933D02*
D03*
X-22933Y43740D02*
D03*
X-9350Y98032D02*
D03*
X-51516D02*
D03*
X-19350D02*
D03*
X-61516D02*
D03*
X17933Y43740D02*
D03*
X22933Y53740D02*
D03*
X27933Y43740D02*
D03*
X32933Y53740D02*
D03*
X37933Y43740D02*
D03*
X42933Y53740D02*
D03*
X52933D02*
D03*
X47933Y43740D02*
D03*
X61516Y98032D02*
D03*
X19350D02*
D03*
X51516D02*
D03*
X9350D02*
D03*
D53*
X-4941Y66732D02*
D03*
X4941D02*
D03*
D54*
X3937Y-76772D02*
D03*
X-35433D02*
D03*
D55*
X35433Y98425D02*
D03*
X-35433D02*
D03*
D56*
X0Y-94488D02*
D03*
X-31496D02*
D03*
D70*
X-18701Y-31496D02*
D03*
M02*
