G04*
G04 #@! TF.GenerationSoftware,Altium Limited,Altium Designer,24.5.2 (23)*
G04*
G04 Layer_Color=16777215*
%FSLAX25Y25*%
%MOIN*%
G70*
G04*
G04 #@! TF.SameCoordinates,8E4A67B4-94DB-4DCE-88DE-8842EE920FE8*
G04*
G04*
G04 #@! TF.FilePolarity,Positive*
G04*
G01*
G75*
%ADD11C,0.00591*%
G36*
X31647Y-83581D02*
X31644Y-83669D01*
X31640Y-83755D01*
X31631Y-83830D01*
X31617Y-83899D01*
X31604Y-83961D01*
X31588Y-84020D01*
X31571Y-84070D01*
X31552Y-84112D01*
X31535Y-84152D01*
X31519Y-84184D01*
X31503Y-84214D01*
X31490Y-84233D01*
X31476Y-84253D01*
X31466Y-84263D01*
X31463Y-84270D01*
X31460Y-84273D01*
X31421Y-84306D01*
X31378Y-84335D01*
X31329Y-84361D01*
X31273Y-84381D01*
X31217Y-84401D01*
X31161Y-84417D01*
X31047Y-84440D01*
X30994Y-84447D01*
X30942Y-84453D01*
X30896Y-84457D01*
X30856Y-84460D01*
X30820Y-84463D01*
X28734D01*
X28646Y-84460D01*
X28564Y-84457D01*
X28488Y-84447D01*
X28419Y-84434D01*
X28357Y-84421D01*
X28305Y-84404D01*
X28252Y-84388D01*
X28209Y-84368D01*
X28173Y-84352D01*
X28141Y-84335D01*
X28114Y-84319D01*
X28091Y-84306D01*
X28075Y-84293D01*
X28065Y-84283D01*
X28059Y-84279D01*
X28055Y-84276D01*
X28023Y-84237D01*
X27993Y-84191D01*
X27967Y-84142D01*
X27944Y-84086D01*
X27927Y-84030D01*
X27911Y-83971D01*
X27888Y-83856D01*
X27882Y-83801D01*
X27875Y-83751D01*
X27872Y-83702D01*
X27868Y-83663D01*
X27865Y-83630D01*
Y-83604D01*
Y-83587D01*
Y-83581D01*
Y-80891D01*
X28567D01*
Y-83850D01*
X30935D01*
Y-80891D01*
X31647D01*
Y-83581D01*
D02*
G37*
G36*
X20606D02*
X20603Y-83669D01*
X20600Y-83755D01*
X20590Y-83830D01*
X20577Y-83899D01*
X20564Y-83961D01*
X20547Y-84020D01*
X20531Y-84070D01*
X20511Y-84112D01*
X20495Y-84152D01*
X20479Y-84184D01*
X20462Y-84214D01*
X20449Y-84233D01*
X20436Y-84253D01*
X20426Y-84263D01*
X20423Y-84270D01*
X20419Y-84273D01*
X20380Y-84306D01*
X20337Y-84335D01*
X20288Y-84361D01*
X20233Y-84381D01*
X20177Y-84401D01*
X20121Y-84417D01*
X20006Y-84440D01*
X19954Y-84447D01*
X19901Y-84453D01*
X19855Y-84457D01*
X19816Y-84460D01*
X19780Y-84463D01*
X17694D01*
X17605Y-84460D01*
X17523Y-84457D01*
X17448Y-84447D01*
X17379Y-84434D01*
X17317Y-84421D01*
X17264Y-84404D01*
X17212Y-84388D01*
X17169Y-84368D01*
X17133Y-84352D01*
X17100Y-84335D01*
X17074Y-84319D01*
X17051Y-84306D01*
X17034Y-84293D01*
X17025Y-84283D01*
X17018Y-84280D01*
X17015Y-84276D01*
X16982Y-84237D01*
X16952Y-84191D01*
X16926Y-84142D01*
X16903Y-84086D01*
X16887Y-84030D01*
X16871Y-83971D01*
X16848Y-83856D01*
X16841Y-83801D01*
X16835Y-83751D01*
X16831Y-83702D01*
X16828Y-83663D01*
X16825Y-83630D01*
Y-83604D01*
Y-83587D01*
Y-83581D01*
Y-80891D01*
X17526D01*
Y-83850D01*
X19895Y-83850D01*
Y-80891D01*
X20606D01*
Y-83581D01*
D02*
G37*
G36*
X46167Y-81495D02*
X44596D01*
Y-84463D01*
X43888D01*
Y-81495D01*
X42310D01*
Y-80891D01*
X46167D01*
Y-81495D01*
D02*
G37*
G36*
X40667Y-80895D02*
X40749Y-80901D01*
X40824Y-80908D01*
X40893Y-80921D01*
X40956Y-80937D01*
X41015Y-80954D01*
X41064Y-80970D01*
X41107Y-80986D01*
X41146Y-81006D01*
X41179Y-81022D01*
X41205Y-81039D01*
X41228Y-81055D01*
X41244Y-81068D01*
X41254Y-81075D01*
X41261Y-81081D01*
X41264Y-81085D01*
X41297Y-81124D01*
X41323Y-81170D01*
X41349Y-81219D01*
X41369Y-81275D01*
X41402Y-81387D01*
X41425Y-81501D01*
X41431Y-81557D01*
X41438Y-81606D01*
X41441Y-81652D01*
X41444Y-81691D01*
X41448Y-81728D01*
Y-81751D01*
Y-81767D01*
Y-81774D01*
Y-83581D01*
X41444Y-83669D01*
X41441Y-83755D01*
X41431Y-83830D01*
X41418Y-83899D01*
X41405Y-83961D01*
X41388Y-84020D01*
X41372Y-84070D01*
X41356Y-84112D01*
X41339Y-84152D01*
X41323Y-84184D01*
X41306Y-84214D01*
X41293Y-84233D01*
X41280Y-84253D01*
X41271Y-84263D01*
X41267Y-84270D01*
X41264Y-84273D01*
X41225Y-84306D01*
X41182Y-84335D01*
X41129Y-84361D01*
X41077Y-84381D01*
X41021Y-84401D01*
X40962Y-84417D01*
X40851Y-84440D01*
X40795Y-84447D01*
X40742Y-84453D01*
X40696Y-84457D01*
X40657Y-84460D01*
X40621Y-84463D01*
X38197D01*
X38109Y-84460D01*
X38026Y-84457D01*
X37951Y-84447D01*
X37882Y-84434D01*
X37820Y-84421D01*
X37767Y-84404D01*
X37715Y-84388D01*
X37672Y-84368D01*
X37636Y-84352D01*
X37603Y-84335D01*
X37577Y-84319D01*
X37554Y-84306D01*
X37538Y-84293D01*
X37528Y-84283D01*
X37521Y-84279D01*
X37518Y-84276D01*
X37485Y-84237D01*
X37456Y-84191D01*
X37430Y-84142D01*
X37407Y-84086D01*
X37390Y-84030D01*
X37374Y-83971D01*
X37351Y-83856D01*
X37344Y-83801D01*
X37338Y-83751D01*
X37334Y-83702D01*
X37331Y-83663D01*
X37328Y-83630D01*
Y-83604D01*
Y-83587D01*
Y-83581D01*
Y-81774D01*
X37331Y-81685D01*
X37334Y-81600D01*
X37344Y-81524D01*
X37357Y-81455D01*
X37370Y-81393D01*
X37387Y-81337D01*
X37407Y-81285D01*
X37423Y-81242D01*
X37439Y-81203D01*
X37459Y-81170D01*
X37475Y-81144D01*
X37489Y-81121D01*
X37502Y-81104D01*
X37508Y-81095D01*
X37515Y-81088D01*
X37518Y-81085D01*
X37558Y-81052D01*
X37600Y-81019D01*
X37649Y-80996D01*
X37702Y-80973D01*
X37758Y-80954D01*
X37817Y-80937D01*
X37928Y-80914D01*
X37981Y-80908D01*
X38033Y-80901D01*
X38076Y-80898D01*
X38118Y-80895D01*
X38151Y-80891D01*
X40575D01*
X40667Y-80895D01*
D02*
G37*
G36*
X36413Y-81495D02*
X34842D01*
Y-84463D01*
X34133D01*
Y-81495D01*
X32555D01*
Y-80891D01*
X36413D01*
Y-81495D01*
D02*
G37*
G36*
X26101Y-84463D02*
X24054D01*
X23968Y-84460D01*
X23887Y-84457D01*
X23811Y-84453D01*
X23739Y-84447D01*
X23673Y-84443D01*
X23611Y-84437D01*
X23555Y-84430D01*
X23506Y-84424D01*
X23460Y-84417D01*
X23421Y-84414D01*
X23391Y-84407D01*
X23365Y-84404D01*
X23348Y-84401D01*
X23335Y-84398D01*
X23332D01*
X23214Y-84368D01*
X23106Y-84329D01*
X23007Y-84283D01*
X22962Y-84260D01*
X22922Y-84237D01*
X22886Y-84217D01*
X22853Y-84197D01*
X22824Y-84178D01*
X22801Y-84161D01*
X22781Y-84148D01*
X22765Y-84138D01*
X22758Y-84132D01*
X22755Y-84129D01*
X22696Y-84092D01*
X22640Y-84056D01*
X22588Y-84014D01*
X22538Y-83968D01*
X22489Y-83919D01*
X22446Y-83873D01*
X22411Y-83824D01*
X22374Y-83778D01*
X22342Y-83732D01*
X22315Y-83692D01*
X22292Y-83653D01*
X22273Y-83620D01*
X22256Y-83594D01*
X22246Y-83571D01*
X22240Y-83558D01*
X22237Y-83555D01*
X22200Y-83479D01*
X22171Y-83400D01*
X22145Y-83322D01*
X22122Y-83243D01*
X22102Y-83167D01*
X22089Y-83092D01*
X22076Y-83020D01*
X22063Y-82954D01*
X22056Y-82892D01*
X22050Y-82833D01*
X22046Y-82784D01*
X22043Y-82738D01*
X22040Y-82705D01*
Y-82679D01*
Y-82662D01*
Y-82656D01*
X22043Y-82571D01*
X22050Y-82485D01*
X22060Y-82403D01*
X22069Y-82325D01*
X22086Y-82249D01*
X22102Y-82180D01*
X22122Y-82111D01*
X22138Y-82052D01*
X22158Y-81997D01*
X22178Y-81944D01*
X22194Y-81901D01*
X22207Y-81865D01*
X22220Y-81836D01*
X22230Y-81813D01*
X22237Y-81800D01*
X22240Y-81796D01*
X22279Y-81724D01*
X22319Y-81655D01*
X22361Y-81593D01*
X22404Y-81534D01*
X22446Y-81482D01*
X22489Y-81432D01*
X22532Y-81390D01*
X22571Y-81350D01*
X22607Y-81314D01*
X22643Y-81285D01*
X22676Y-81259D01*
X22702Y-81236D01*
X22725Y-81219D01*
X22742Y-81209D01*
X22752Y-81203D01*
X22755Y-81200D01*
X22853Y-81141D01*
X22955Y-81088D01*
X23053Y-81049D01*
X23145Y-81016D01*
X23185Y-81003D01*
X23221Y-80990D01*
X23257Y-80980D01*
X23283Y-80973D01*
X23306Y-80967D01*
X23326Y-80963D01*
X23335Y-80960D01*
X23339D01*
X23401Y-80947D01*
X23467Y-80937D01*
X23601Y-80921D01*
X23736Y-80908D01*
X23801Y-80904D01*
X23864Y-80901D01*
X23919Y-80898D01*
X23975Y-80895D01*
X24021D01*
X24064Y-80891D01*
X26101D01*
Y-84463D01*
D02*
G37*
%LPC*%
G36*
X40739Y-81495D02*
X38030D01*
Y-83850D01*
X40739D01*
Y-81495D01*
D02*
G37*
G36*
X25389D02*
X24224D01*
X24080Y-81498D01*
X23945Y-81508D01*
X23824Y-81521D01*
X23713Y-81537D01*
X23611Y-81557D01*
X23516Y-81580D01*
X23434Y-81606D01*
X23362Y-81629D01*
X23296Y-81655D01*
X23244Y-81682D01*
X23198Y-81705D01*
X23162Y-81724D01*
X23132Y-81741D01*
X23112Y-81754D01*
X23099Y-81764D01*
X23096Y-81767D01*
X23037Y-81823D01*
X22988Y-81882D01*
X22942Y-81947D01*
X22906Y-82020D01*
X22873Y-82092D01*
X22847Y-82167D01*
X22824Y-82239D01*
X22807Y-82311D01*
X22791Y-82380D01*
X22781Y-82446D01*
X22774Y-82505D01*
X22771Y-82554D01*
X22768Y-82597D01*
X22765Y-82630D01*
Y-82649D01*
Y-82653D01*
Y-82656D01*
X22768Y-82774D01*
X22778Y-82882D01*
X22794Y-82981D01*
X22814Y-83072D01*
X22840Y-83154D01*
X22866Y-83230D01*
X22896Y-83299D01*
X22925Y-83358D01*
X22958Y-83410D01*
X22988Y-83456D01*
X23014Y-83492D01*
X23037Y-83525D01*
X23060Y-83548D01*
X23076Y-83564D01*
X23086Y-83574D01*
X23089Y-83578D01*
X23155Y-83627D01*
X23231Y-83666D01*
X23316Y-83702D01*
X23404Y-83735D01*
X23496Y-83761D01*
X23591Y-83784D01*
X23686Y-83801D01*
X23778Y-83817D01*
X23867Y-83827D01*
X23952Y-83837D01*
X24027Y-83840D01*
X24093Y-83846D01*
X24149D01*
X24169Y-83850D01*
X25389D01*
Y-81495D01*
D02*
G37*
%LPD*%
D11*
X-64046Y-95542D02*
X-63907Y-95403D01*
X-63091Y-90551D02*
X-62894D01*
X-59055Y-78839D02*
Y-78642D01*
X-54203Y-69951D02*
X-54064Y-69812D01*
X-48298Y-85560D02*
X-48159Y-85699D01*
X-34646Y-66634D02*
Y-66437D01*
X-30315Y-66634D02*
Y-66437D01*
X-26772Y-66535D02*
X-25197D01*
X-21654Y-66634D02*
Y-66437D01*
X-63091Y-51181D02*
X-62894D01*
X-59055Y-55216D02*
Y-55020D01*
X-55188Y-55049D02*
X-55049Y-55188D01*
X-63062Y-47175D02*
X-62923Y-47314D01*
X-63062Y-31566D02*
X-62923Y-31427D01*
X-59055Y-47343D02*
Y-47146D01*
Y-31594D02*
Y-31398D01*
X-55188Y-47314D02*
X-55049Y-47175D01*
X-48298Y-32550D02*
X-48159Y-32411D01*
X-15551Y-32480D02*
X-13976D01*
X-2756Y-32480D02*
Y-30906D01*
X2756Y-32480D02*
Y-30906D01*
X-9646Y-32480D02*
X-8071D01*
X10827Y-33268D02*
Y-31693D01*
X-63091Y-27559D02*
X-62894D01*
X-55216D02*
X-55020D01*
X-40945Y100984D02*
X-37795D01*
X-40945Y95866D02*
X-37795D01*
X-41142Y90551D02*
X-39567D01*
X-39173D02*
X-37598D01*
X-37205D02*
X-35630D01*
X-35236D02*
X-33661D01*
X-33268D02*
X-31693D01*
X-29626Y98425D02*
X-29429D01*
X-31299Y90551D02*
X-29724D01*
X-9843Y-28346D02*
Y-26772D01*
X-5709Y-24606D02*
X-4134D01*
X-11614Y-21654D02*
X-10039D01*
X-7677Y-16732D02*
X-6102D01*
X3937Y-28346D02*
Y-26772D01*
X4921Y-24409D02*
Y-22835D01*
Y-20472D02*
Y-18898D01*
X-3740Y-17717D02*
X-2165D01*
X-10827Y-15551D02*
Y-13976D01*
X-8858Y-11614D02*
Y-10039D01*
X-4921Y-7677D02*
Y-6102D01*
X4134Y-12795D02*
X5709D01*
X394Y-8858D02*
X1969D01*
X-1969D02*
X-394D01*
X10827Y-29331D02*
Y-27756D01*
X10039Y-20669D02*
X11614D01*
X10827Y-15551D02*
Y-13976D01*
X8071Y-8858D02*
X9646D01*
X12008D02*
X13583D01*
X-5709Y59055D02*
X-4134D01*
X4921Y58957D02*
Y59153D01*
X29429Y98425D02*
X29626D01*
X29724Y90551D02*
X31299D01*
X33661D02*
X35236D01*
X31693D02*
X33268D01*
X35630D02*
X37205D01*
X37795Y95866D02*
X40945D01*
X37795Y100984D02*
X40945D01*
X37598Y90551D02*
X39173D01*
X39567D02*
X41142D01*
X-8661Y-66634D02*
Y-66437D01*
X-13780Y-66535D02*
X-12205D01*
X-4331Y-66634D02*
Y-66437D01*
X-40157Y99999D02*
X-38583Y98425D01*
X-40157Y96851D01*
X40157Y96851D02*
X38583Y98425D01*
X40157Y99999D01*
X45764Y-75460D02*
Y-77428D01*
X44780D01*
X44452Y-77100D01*
Y-75788D01*
X44780Y-75460D01*
X45764D01*
X42812Y-77428D02*
X43468D01*
X43797Y-77100D01*
Y-76444D01*
X43468Y-76116D01*
X42812D01*
X42485Y-76444D01*
Y-76772D01*
X43797D01*
X41829Y-77428D02*
X40845D01*
X40517Y-77100D01*
X40845Y-76772D01*
X41501D01*
X41829Y-76444D01*
X41501Y-76116D01*
X40517D01*
X39861Y-77428D02*
X39205D01*
X39533D01*
Y-76116D01*
X39861D01*
X37565Y-78084D02*
X37237D01*
X36909Y-77756D01*
Y-76116D01*
X37893D01*
X38221Y-76444D01*
Y-77100D01*
X37893Y-77428D01*
X36909D01*
X36253D02*
Y-76116D01*
X35269D01*
X34941Y-76444D01*
Y-77428D01*
X33301D02*
X33957D01*
X34285Y-77100D01*
Y-76444D01*
X33957Y-76116D01*
X33301D01*
X32973Y-76444D01*
Y-76772D01*
X34285D01*
X31005Y-75460D02*
Y-77428D01*
X31989D01*
X32317Y-77100D01*
Y-76444D01*
X31989Y-76116D01*
X31005D01*
X28382Y-75460D02*
Y-77428D01*
X27398D01*
X27070Y-77100D01*
Y-76772D01*
Y-76444D01*
X27398Y-76116D01*
X28382D01*
X26414D02*
Y-77100D01*
X26086Y-77428D01*
X25102D01*
Y-77756D01*
X25430Y-78084D01*
X25758D01*
X25102Y-77428D02*
Y-76116D01*
M02*
