G04*
G04 #@! TF.GenerationSoftware,Altium Limited,Altium Designer,24.5.2 (23)*
G04*
G04 Layer_Color=12040119*
%FSLAX25Y25*%
%MOIN*%
G70*
G04*
G04 #@! TF.SameCoordinates,5896D42C-AEC6-4B40-896E-768CB86E770B*
G04*
G04*
G04 #@! TF.FilePolarity,Positive*
G04*
G01*
G75*
%ADD13R,0.01968X0.01575*%
%ADD15R,0.01575X0.01968*%
%ADD72R,0.01575X0.01575*%
D13*
X-8661Y-64764D02*
D03*
Y-68307D02*
D03*
X-4331Y-64764D02*
D03*
Y-68307D02*
D03*
X-34646Y-64764D02*
D03*
Y-68307D02*
D03*
X-30315Y-64764D02*
D03*
Y-68307D02*
D03*
X-21654Y-64764D02*
D03*
Y-68307D02*
D03*
X4921Y60827D02*
D03*
Y57284D02*
D03*
X-12992Y-68307D02*
D03*
Y-64764D02*
D03*
X-25984Y-68307D02*
D03*
Y-64764D02*
D03*
X-4921Y60827D02*
D03*
Y57284D02*
D03*
X-10827Y-34252D02*
D03*
Y-30709D02*
D03*
X-4921Y-7677D02*
D03*
Y-4134D02*
D03*
X8858Y-10630D02*
D03*
Y-7087D02*
D03*
X-14764Y-34252D02*
D03*
Y-30709D02*
D03*
X-10827Y-20866D02*
D03*
Y-24409D02*
D03*
X-6890Y-34252D02*
D03*
Y-30709D02*
D03*
X13780Y-29331D02*
D03*
Y-25787D02*
D03*
X-5906Y-18504D02*
D03*
Y-14961D02*
D03*
X9843Y-29331D02*
D03*
Y-25787D02*
D03*
X12795Y-10630D02*
D03*
Y-7087D02*
D03*
X4921Y-14567D02*
D03*
Y-11024D02*
D03*
X984Y-10630D02*
D03*
Y-7087D02*
D03*
X-984Y-10630D02*
D03*
Y-7087D02*
D03*
X-4921Y-22835D02*
D03*
Y-26378D02*
D03*
X-2953Y-18504D02*
D03*
Y-14961D02*
D03*
X10827Y-18898D02*
D03*
Y-22441D02*
D03*
X0Y-18504D02*
D03*
Y-14961D02*
D03*
D15*
X1181Y-30512D02*
D03*
X4724D02*
D03*
X-11614Y-27559D02*
D03*
X-8071D02*
D03*
X-197Y-30512D02*
D03*
X-3740D02*
D03*
X-68701Y47244D02*
D03*
X-65158D02*
D03*
X-68701Y49213D02*
D03*
X-65158D02*
D03*
X-68701Y55118D02*
D03*
X-65158D02*
D03*
X-68701Y57087D02*
D03*
X-65158D02*
D03*
X-68701Y51181D02*
D03*
X-65158D02*
D03*
X-68701Y53150D02*
D03*
X-65158D02*
D03*
X-68701Y45276D02*
D03*
X-65158D02*
D03*
X-68701Y39370D02*
D03*
X-65158D02*
D03*
X-68701Y41339D02*
D03*
X-65158D02*
D03*
X-68701Y35433D02*
D03*
X-65158D02*
D03*
X-68701Y37402D02*
D03*
X-65158D02*
D03*
X-68701Y43307D02*
D03*
X-65158D02*
D03*
X4724Y-34449D02*
D03*
X1181D02*
D03*
X-3740D02*
D03*
X-197D02*
D03*
X12598Y-14764D02*
D03*
X9055D02*
D03*
X-12598D02*
D03*
X-9055D02*
D03*
X3150Y-22638D02*
D03*
X6693D02*
D03*
X-7087Y-10827D02*
D03*
X-10630D02*
D03*
X2165Y-26575D02*
D03*
X5709D02*
D03*
X3150Y-18701D02*
D03*
X6693D02*
D03*
D72*
X-18701Y-31496D02*
D03*
M02*
