G04*
G04 #@! TF.GenerationSoftware,Altium Limited,Altium Designer,24.5.2 (23)*
G04*
G04 Layer_Color=13421772*
%FSLAX25Y25*%
%MOIN*%
G70*
G04*
G04 #@! TF.SameCoordinates,CBEE3C71-3A8A-4C9F-899A-0B45141C685C*
G04*
G04*
G04 #@! TF.FilePolarity,Negative*
G04*
G01*
G75*
%ADD16R,0.03975X0.01803*%
%ADD27R,0.02638X0.01181*%
G04:AMPARAMS|DCode=31|XSize=23.62mil|YSize=27.56mil|CornerRadius=5.91mil|HoleSize=0mil|Usage=FLASHONLY|Rotation=270.000|XOffset=0mil|YOffset=0mil|HoleType=Round|Shape=RoundedRectangle|*
%AMROUNDEDRECTD31*
21,1,0.02362,0.01575,0,0,270.0*
21,1,0.01181,0.02756,0,0,270.0*
1,1,0.01181,-0.00787,-0.00591*
1,1,0.01181,-0.00787,0.00591*
1,1,0.01181,0.00787,0.00591*
1,1,0.01181,0.00787,-0.00591*
%
%ADD31ROUNDEDRECTD31*%
%ADD32R,0.01968X0.01968*%
%ADD33R,0.01968X0.02362*%
%ADD34R,0.02362X0.01968*%
%ADD35R,0.05512X0.03543*%
%ADD36R,0.05906X0.09213*%
%ADD37R,0.02362X0.05906*%
%ADD38C,0.00984*%
%ADD39R,0.01800X0.00800*%
%ADD40R,0.01800X0.01600*%
%ADD41R,0.00800X0.01800*%
%ADD42R,0.01600X0.01800*%
%ADD43R,0.07480X0.07480*%
%ADD44R,0.01000X0.01000*%
%ADD45R,0.03543X0.07087*%
%ADD46R,0.03543X0.03150*%
%ADD47R,0.03543X0.05512*%
%ADD48R,0.05906X0.05906*%
%ADD49C,0.04921*%
%ADD50C,0.02756*%
%ADD51C,0.05906*%
%ADD52C,0.10354*%
D16*
X-24040Y-49409D02*
D03*
Y-56890D02*
D03*
X-33046D02*
D03*
Y-53150D02*
D03*
Y-49409D02*
D03*
X-37968Y29331D02*
D03*
Y25591D02*
D03*
Y21850D02*
D03*
X-28961D02*
D03*
Y29331D02*
D03*
D27*
X68858Y33465D02*
D03*
Y31496D02*
D03*
Y29527D02*
D03*
X63032D02*
D03*
Y31496D02*
D03*
Y33465D02*
D03*
X41378Y33465D02*
D03*
Y31496D02*
D03*
Y29527D02*
D03*
X47205D02*
D03*
Y31496D02*
D03*
Y33465D02*
D03*
D31*
X30315Y-43504D02*
D03*
Y-37205D02*
D03*
X38583D02*
D03*
Y-43504D02*
D03*
D32*
X-31496Y12795D02*
D03*
X26575Y-41339D02*
D03*
D33*
X33268Y-32480D02*
D03*
X29724D02*
D03*
X39173D02*
D03*
X35630D02*
D03*
X33268Y-28543D02*
D03*
X29724D02*
D03*
X37205Y-84646D02*
D03*
X33661D02*
D03*
X-30315Y17717D02*
D03*
X-26772D02*
D03*
X-38583Y35433D02*
D03*
X-42126D02*
D03*
X-34252D02*
D03*
X-30709D02*
D03*
X60827Y25591D02*
D03*
X57284D02*
D03*
X57284Y21654D02*
D03*
X60827D02*
D03*
X53937D02*
D03*
X50394D02*
D03*
X53937Y25591D02*
D03*
X50394D02*
D03*
X64173Y21654D02*
D03*
X67716D02*
D03*
Y25591D02*
D03*
X64173D02*
D03*
X3248Y22146D02*
D03*
X-295D02*
D03*
X32283Y25591D02*
D03*
X28740D02*
D03*
X35630Y21654D02*
D03*
X39173D02*
D03*
X32283D02*
D03*
X28740D02*
D03*
X39173Y25591D02*
D03*
X35630D02*
D03*
X42520Y21654D02*
D03*
X46063D02*
D03*
Y25591D02*
D03*
X42520D02*
D03*
X-20374Y22146D02*
D03*
X-23917D02*
D03*
X42126Y-14764D02*
D03*
X38583D02*
D03*
D34*
X-34449Y-49508D02*
D03*
Y-53051D02*
D03*
X13780Y-84449D02*
D03*
Y-80905D02*
D03*
X24606Y35236D02*
D03*
Y31693D02*
D03*
Y22441D02*
D03*
Y18898D02*
D03*
X19685Y35236D02*
D03*
Y31693D02*
D03*
X20669Y27362D02*
D03*
Y23819D02*
D03*
X-5906Y31693D02*
D03*
Y35236D02*
D03*
X-2953Y23819D02*
D03*
Y27362D02*
D03*
X-1969Y31693D02*
D03*
Y35236D02*
D03*
X22638Y15551D02*
D03*
Y12008D02*
D03*
X-41831Y25787D02*
D03*
Y29331D02*
D03*
X0Y88386D02*
D03*
Y84842D02*
D03*
X-25591Y29724D02*
D03*
Y33268D02*
D03*
X36417Y18504D02*
D03*
Y14961D02*
D03*
X29528Y18504D02*
D03*
Y14961D02*
D03*
D35*
X0Y90551D02*
D03*
Y98425D02*
D03*
X29528Y3937D02*
D03*
Y11811D02*
D03*
X36417Y3937D02*
D03*
Y11811D02*
D03*
D36*
X12480Y-95276D02*
D03*
X-43976D02*
D03*
D37*
X-4331Y-64764D02*
D03*
X-8661D02*
D03*
X-12992D02*
D03*
X-17323D02*
D03*
X-21654D02*
D03*
X-25984D02*
D03*
X-30315D02*
D03*
X-34646D02*
D03*
X4921D02*
D03*
X0D02*
D03*
D38*
X-23622Y3937D02*
D03*
X-21654D02*
D03*
X-19685D02*
D03*
X-17717D02*
D03*
X-15748D02*
D03*
X-13780D02*
D03*
X-11811D02*
D03*
X-9843D02*
D03*
X-7874D02*
D03*
X-5906D02*
D03*
X-3937D02*
D03*
X-1969D02*
D03*
X0D02*
D03*
X1969D02*
D03*
X3937D02*
D03*
X5906D02*
D03*
X7874D02*
D03*
X9843D02*
D03*
X11811D02*
D03*
X13780D02*
D03*
X15748D02*
D03*
X17717D02*
D03*
X19685D02*
D03*
X21654D02*
D03*
X23622D02*
D03*
X-23622Y1969D02*
D03*
X-21654D02*
D03*
X-19685D02*
D03*
X-17717D02*
D03*
X-15748D02*
D03*
X-13780D02*
D03*
X-11811D02*
D03*
X-9843D02*
D03*
X-7874D02*
D03*
X-5906D02*
D03*
X-3937D02*
D03*
X-1969D02*
D03*
X0D02*
D03*
X1969D02*
D03*
X3937D02*
D03*
X5906D02*
D03*
X7874D02*
D03*
X9843D02*
D03*
X11811D02*
D03*
X13780D02*
D03*
X15748D02*
D03*
X17717D02*
D03*
X19685D02*
D03*
X21654D02*
D03*
X23622D02*
D03*
X-23622Y0D02*
D03*
X-21654D02*
D03*
X-15748D02*
D03*
X-13780D02*
D03*
X-7874D02*
D03*
X-3937D02*
D03*
X0D02*
D03*
X3937D02*
D03*
X7874D02*
D03*
X13780D02*
D03*
X15748D02*
D03*
X21654D02*
D03*
X23622D02*
D03*
X-23622Y-1969D02*
D03*
X-21654D02*
D03*
X-17717D02*
D03*
X-13780D02*
D03*
X-7874D02*
D03*
X-5906D02*
D03*
X-1969D02*
D03*
X1969D02*
D03*
X5906D02*
D03*
X7874D02*
D03*
X13780D02*
D03*
X17717D02*
D03*
X21654D02*
D03*
X23622D02*
D03*
X-23622Y-3937D02*
D03*
X-21654D02*
D03*
X-19685D02*
D03*
X-15748D02*
D03*
X-11811D02*
D03*
X-9843D02*
D03*
X-3937D02*
D03*
X-1969D02*
D03*
X1969D02*
D03*
X3937D02*
D03*
X9843D02*
D03*
X11811D02*
D03*
X15748D02*
D03*
X19685D02*
D03*
X21654D02*
D03*
X23622D02*
D03*
X-23622Y-5906D02*
D03*
X-21654D02*
D03*
X-19685D02*
D03*
X-17717D02*
D03*
X-13780D02*
D03*
X-9843D02*
D03*
X-3937D02*
D03*
X0D02*
D03*
X3937D02*
D03*
X9843D02*
D03*
X13780D02*
D03*
X17717D02*
D03*
X19685D02*
D03*
X21654D02*
D03*
X23622D02*
D03*
X-23622Y-7874D02*
D03*
X-21654D02*
D03*
X-15748D02*
D03*
X-11811D02*
D03*
X-7874D02*
D03*
X-5906D02*
D03*
X-1969D02*
D03*
X0D02*
D03*
X1969D02*
D03*
X5906D02*
D03*
X7874D02*
D03*
X11811D02*
D03*
X15748D02*
D03*
X21654D02*
D03*
X23622D02*
D03*
X-23622Y-9843D02*
D03*
X-21654D02*
D03*
X-15748D02*
D03*
X-13780D02*
D03*
X-9843D02*
D03*
X-7874D02*
D03*
X-5906D02*
D03*
X-3937D02*
D03*
X0D02*
D03*
X3937D02*
D03*
X5906D02*
D03*
X7874D02*
D03*
X9843D02*
D03*
X13780D02*
D03*
X15748D02*
D03*
X21654D02*
D03*
X23622D02*
D03*
X-23622Y-11811D02*
D03*
X-21654D02*
D03*
X-19685D02*
D03*
X-17717D02*
D03*
X-11811D02*
D03*
X-9843D02*
D03*
X-3937D02*
D03*
X-1969D02*
D03*
X1969D02*
D03*
X3937D02*
D03*
X9843D02*
D03*
X11811D02*
D03*
X17717D02*
D03*
X19685D02*
D03*
X21654D02*
D03*
X23622D02*
D03*
X-23622Y-13780D02*
D03*
X-21654D02*
D03*
X-17717D02*
D03*
X-11811D02*
D03*
X-9843D02*
D03*
X-7874D02*
D03*
X-5906D02*
D03*
X-1969D02*
D03*
X0D02*
D03*
X5906D02*
D03*
X7874D02*
D03*
X9843D02*
D03*
X11811D02*
D03*
X17717D02*
D03*
X21654D02*
D03*
X23622D02*
D03*
X-23622Y-15748D02*
D03*
X-21654D02*
D03*
X-19685D02*
D03*
X-15748D02*
D03*
X-13780D02*
D03*
X-9843D02*
D03*
X-3937D02*
D03*
X-1969D02*
D03*
X0D02*
D03*
X1969D02*
D03*
X3937D02*
D03*
X9843D02*
D03*
X13780D02*
D03*
X15748D02*
D03*
X19685D02*
D03*
X21654D02*
D03*
X23622D02*
D03*
X-23622Y-17717D02*
D03*
X-21654D02*
D03*
X-17717D02*
D03*
X-15748D02*
D03*
X-11811D02*
D03*
X-9843D02*
D03*
X-7874D02*
D03*
X-5906D02*
D03*
X0D02*
D03*
X5906D02*
D03*
X7874D02*
D03*
X11811D02*
D03*
X15748D02*
D03*
X17717D02*
D03*
X21654D02*
D03*
X23622D02*
D03*
X-23622Y-19685D02*
D03*
X-21654D02*
D03*
X-19685D02*
D03*
X-13780D02*
D03*
X-9843D02*
D03*
X-3937D02*
D03*
X-1969D02*
D03*
X0D02*
D03*
X1969D02*
D03*
X3937D02*
D03*
X9843D02*
D03*
X13780D02*
D03*
X19685D02*
D03*
X21654D02*
D03*
X23622D02*
D03*
X-23622Y-21654D02*
D03*
X-21654D02*
D03*
X-17717D02*
D03*
X-15748D02*
D03*
X-11811D02*
D03*
X-9843D02*
D03*
X-7874D02*
D03*
X-5906D02*
D03*
X0D02*
D03*
X1969D02*
D03*
X5906D02*
D03*
X7874D02*
D03*
X9843D02*
D03*
X11811D02*
D03*
X15748D02*
D03*
X17717D02*
D03*
X21654D02*
D03*
X23622D02*
D03*
X-23622Y-23622D02*
D03*
X-21654D02*
D03*
X-19685D02*
D03*
X-15748D02*
D03*
X-13780D02*
D03*
X-9843D02*
D03*
X-3937D02*
D03*
X-1969D02*
D03*
X1969D02*
D03*
X3937D02*
D03*
X9843D02*
D03*
X13780D02*
D03*
X15748D02*
D03*
X21654D02*
D03*
X23622D02*
D03*
X-23622Y-25591D02*
D03*
X-21654D02*
D03*
X-17717D02*
D03*
X-11811D02*
D03*
X-9843D02*
D03*
X-7874D02*
D03*
X-5906D02*
D03*
X-3937D02*
D03*
X0D02*
D03*
X5906D02*
D03*
X7874D02*
D03*
X11811D02*
D03*
X17717D02*
D03*
X19685D02*
D03*
X21654D02*
D03*
X23622D02*
D03*
X-23622Y-27559D02*
D03*
X-21654D02*
D03*
X-19685D02*
D03*
X-17717D02*
D03*
X-11811D02*
D03*
X-9843D02*
D03*
X-1969D02*
D03*
X0D02*
D03*
X1969D02*
D03*
X3937D02*
D03*
X9843D02*
D03*
X11811D02*
D03*
X17717D02*
D03*
X19685D02*
D03*
X21654D02*
D03*
X23622D02*
D03*
X-23622Y-29528D02*
D03*
X-21654D02*
D03*
X-15748D02*
D03*
X-13780D02*
D03*
X-9843D02*
D03*
X-7874D02*
D03*
X-5906D02*
D03*
X-3937D02*
D03*
X0D02*
D03*
X3937D02*
D03*
X5906D02*
D03*
X7874D02*
D03*
X9843D02*
D03*
X13780D02*
D03*
X15748D02*
D03*
X21654D02*
D03*
X23622D02*
D03*
X-23622Y-31496D02*
D03*
X-21654D02*
D03*
X-15748D02*
D03*
X-11811D02*
D03*
X-7874D02*
D03*
X-5906D02*
D03*
X-1969D02*
D03*
X0D02*
D03*
X1969D02*
D03*
X5906D02*
D03*
X7874D02*
D03*
X11811D02*
D03*
X15748D02*
D03*
X21654D02*
D03*
X23622D02*
D03*
X-23622Y-33465D02*
D03*
X-21654D02*
D03*
X-19685D02*
D03*
X-17717D02*
D03*
X-13780D02*
D03*
X-9843D02*
D03*
X-3937D02*
D03*
X0D02*
D03*
X3937D02*
D03*
X9843D02*
D03*
X13780D02*
D03*
X17717D02*
D03*
X19685D02*
D03*
X21654D02*
D03*
X23622D02*
D03*
X-23622Y-35433D02*
D03*
X-21654D02*
D03*
X-19685D02*
D03*
X-15748D02*
D03*
X-11811D02*
D03*
X-9843D02*
D03*
X-3937D02*
D03*
X-1969D02*
D03*
X1969D02*
D03*
X3937D02*
D03*
X9843D02*
D03*
X11811D02*
D03*
X15748D02*
D03*
X19685D02*
D03*
X21654D02*
D03*
X23622D02*
D03*
X-23622Y-37402D02*
D03*
X-21654D02*
D03*
X-17717D02*
D03*
X-13780D02*
D03*
X-7874D02*
D03*
X-5906D02*
D03*
X-1969D02*
D03*
X1969D02*
D03*
X5906D02*
D03*
X7874D02*
D03*
X13780D02*
D03*
X17717D02*
D03*
X21654D02*
D03*
X23622D02*
D03*
X-23622Y-39370D02*
D03*
X-21654D02*
D03*
X-15748D02*
D03*
X-13780D02*
D03*
X-7874D02*
D03*
X-3937D02*
D03*
X0D02*
D03*
X3937D02*
D03*
X7874D02*
D03*
X13780D02*
D03*
X15748D02*
D03*
X21654D02*
D03*
X23622D02*
D03*
X-23622Y-41339D02*
D03*
X-21654D02*
D03*
X-19685D02*
D03*
X-17717D02*
D03*
X-15748D02*
D03*
X-13780D02*
D03*
X-11811D02*
D03*
X-9843D02*
D03*
X-7874D02*
D03*
X-5906D02*
D03*
X-3937D02*
D03*
X-1969D02*
D03*
X0D02*
D03*
X1969D02*
D03*
X3937D02*
D03*
X5906D02*
D03*
X7874D02*
D03*
X9843D02*
D03*
X11811D02*
D03*
X13780D02*
D03*
X15748D02*
D03*
X17717D02*
D03*
X19685D02*
D03*
X21654D02*
D03*
X23622D02*
D03*
X-23622Y-43307D02*
D03*
X-21654D02*
D03*
X-19685D02*
D03*
X-17717D02*
D03*
X-15748D02*
D03*
X-13780D02*
D03*
X-11811D02*
D03*
X-9843D02*
D03*
X-7874D02*
D03*
X-5906D02*
D03*
X-3937D02*
D03*
X-1969D02*
D03*
X0D02*
D03*
X1969D02*
D03*
X3937D02*
D03*
X5906D02*
D03*
X7874D02*
D03*
X9843D02*
D03*
X11811D02*
D03*
X13780D02*
D03*
X15748D02*
D03*
X17717D02*
D03*
X19685D02*
D03*
X21654D02*
D03*
X23622D02*
D03*
D39*
X-6004Y20079D02*
D03*
Y21654D02*
D03*
Y25591D02*
D03*
Y27165D02*
D03*
X-17618D02*
D03*
Y25591D02*
D03*
Y21654D02*
D03*
Y20079D02*
D03*
X17618D02*
D03*
Y21654D02*
D03*
Y25591D02*
D03*
Y27165D02*
D03*
X6004D02*
D03*
Y25591D02*
D03*
Y21654D02*
D03*
Y20079D02*
D03*
D40*
X-6004Y23622D02*
D03*
X-17618D02*
D03*
X17618D02*
D03*
X6004D02*
D03*
D41*
X-8268Y29429D02*
D03*
X-9843D02*
D03*
X-13780D02*
D03*
X-15354D02*
D03*
Y17815D02*
D03*
X-13780D02*
D03*
X-9843D02*
D03*
X-8268D02*
D03*
X15354Y29429D02*
D03*
X13780D02*
D03*
X9843D02*
D03*
X8268D02*
D03*
Y17815D02*
D03*
X9843D02*
D03*
X13780D02*
D03*
X15354D02*
D03*
D42*
X-11811Y29429D02*
D03*
Y17815D02*
D03*
X11811Y29429D02*
D03*
Y17815D02*
D03*
D43*
X-11811Y23622D02*
D03*
X11811D02*
D03*
D44*
X-6594Y18406D02*
D03*
Y28839D02*
D03*
X-17028D02*
D03*
Y18406D02*
D03*
X17028D02*
D03*
Y28839D02*
D03*
X6594D02*
D03*
Y18406D02*
D03*
D45*
X59055Y31496D02*
D03*
X51181D02*
D03*
X37402Y31496D02*
D03*
X29528D02*
D03*
D46*
X2461Y32185D02*
D03*
Y25886D02*
D03*
X-21161Y32185D02*
D03*
Y25886D02*
D03*
D47*
X28543Y-14764D02*
D03*
X36417D02*
D03*
D48*
X-31496Y-94488D02*
D03*
X0D02*
D03*
D49*
X51181Y-11811D02*
D03*
Y-59055D02*
D03*
Y-51181D02*
D03*
X59055Y11811D02*
D03*
X66929D02*
D03*
Y3937D02*
D03*
X51181Y11811D02*
D03*
Y-3937D02*
D03*
Y-27559D02*
D03*
X59055Y-35433D02*
D03*
X66929Y-43307D02*
D03*
X59055Y-3937D02*
D03*
X66929Y-27559D02*
D03*
X51181Y-19685D02*
D03*
X59055Y-27559D02*
D03*
X-66929Y27559D02*
D03*
X66929Y-82677D02*
D03*
X59055Y-98425D02*
D03*
X66929D02*
D03*
X59055Y-74803D02*
D03*
X66929D02*
D03*
X51181Y-82677D02*
D03*
X66929Y-90551D02*
D03*
X43307D02*
D03*
X66929Y-59055D02*
D03*
X59055D02*
D03*
X66929Y-66929D02*
D03*
X51181Y-74803D02*
D03*
Y-66929D02*
D03*
X59055Y-82677D02*
D03*
X66929Y-51181D02*
D03*
X-66929Y-98425D02*
D03*
Y-90551D02*
D03*
Y-82677D02*
D03*
Y-66929D02*
D03*
Y-74803D02*
D03*
Y-59055D02*
D03*
X-59055Y-90551D02*
D03*
Y-98425D02*
D03*
Y-82677D02*
D03*
Y-74803D02*
D03*
Y-66929D02*
D03*
Y-59055D02*
D03*
X-51181Y-90551D02*
D03*
Y-98425D02*
D03*
Y-82677D02*
D03*
Y-66929D02*
D03*
Y-74803D02*
D03*
Y-59055D02*
D03*
X-59055Y27559D02*
D03*
X-51181D02*
D03*
X-66929Y-19685D02*
D03*
X-59055D02*
D03*
Y-11811D02*
D03*
X-51181Y-19685D02*
D03*
Y-11811D02*
D03*
X-66929D02*
D03*
Y-3937D02*
D03*
Y3937D02*
D03*
Y11811D02*
D03*
Y19685D02*
D03*
X-59055Y-3937D02*
D03*
Y3937D02*
D03*
Y11811D02*
D03*
Y19685D02*
D03*
X-51181Y-3937D02*
D03*
Y3937D02*
D03*
Y11811D02*
D03*
Y19685D02*
D03*
X66929Y-35433D02*
D03*
X51181Y-43307D02*
D03*
Y-90551D02*
D03*
Y-35433D02*
D03*
X66929Y-3937D02*
D03*
X59055Y-11811D02*
D03*
X66929D02*
D03*
X59055Y-51181D02*
D03*
X51181Y-98425D02*
D03*
X66929Y-19685D02*
D03*
X51181Y3937D02*
D03*
X59055D02*
D03*
Y-19685D02*
D03*
Y-66929D02*
D03*
Y-43307D02*
D03*
Y-90551D02*
D03*
X-59055Y-51181D02*
D03*
X-51181Y-43307D02*
D03*
Y-51181D02*
D03*
X-66929Y-43307D02*
D03*
Y-35433D02*
D03*
X-59055D02*
D03*
X-51181D02*
D03*
Y-27559D02*
D03*
X-59055Y-43307D02*
D03*
X-66929Y-51181D02*
D03*
Y-27559D02*
D03*
X-59055D02*
D03*
X43307Y-98425D02*
D03*
X35433Y-90551D02*
D03*
X19685D02*
D03*
X27559Y-98425D02*
D03*
X35433D02*
D03*
X19685Y-98425D02*
D03*
X27559Y-90551D02*
D03*
D50*
X3937Y-76772D02*
D03*
X-35433D02*
D03*
D51*
X-52933Y43740D02*
D03*
X-47933Y53740D02*
D03*
X-42933Y43740D02*
D03*
X-37933Y53740D02*
D03*
X-32933Y43740D02*
D03*
X-27933Y53740D02*
D03*
X-17933D02*
D03*
X-22933Y43740D02*
D03*
X-9350Y98032D02*
D03*
X-51516D02*
D03*
X-19350D02*
D03*
X-61516D02*
D03*
X17933Y43740D02*
D03*
X22933Y53740D02*
D03*
X27933Y43740D02*
D03*
X32933Y53740D02*
D03*
X37933Y43740D02*
D03*
X42933Y53740D02*
D03*
X52933D02*
D03*
X47933Y43740D02*
D03*
X61516Y98032D02*
D03*
X19350D02*
D03*
X51516D02*
D03*
X9350D02*
D03*
D52*
X-65925Y66732D02*
D03*
X-4941D02*
D03*
X4941D02*
D03*
X65925D02*
D03*
M02*
