M48
;Layer_Color=9474304
;FILE_FORMAT=2:5
INCH
;TYPE=PLATED
T01F00S00C0.00787
T02F00S00C0.03150
T03F00S00C0.03504
T04F00S00C0.04016
T05F00S00C0.06417
%
T01
X0468772Y0447119
X0484520Y0454456
X0487205Y0440945
X0543976Y0446063
X0551181Y0480315
X0553642
X0556102
X0555118Y0498032
X0551181
X0549213Y0500000
X0545276
X0547244Y0501968
X0543307
X0539370
Y0505905
X0541339Y0503937
X0537402Y0503937
X0535433Y0507874
X0537402Y0509842
Y0513779
Y0515748
X0539370
X0541339Y0517717
X0543307Y0515748
Y0513779
Y0509842
X0541339Y0511811
X0531496
Y0509842
Y0505905
X0529528Y0503937
Y0500000
X0525591
X0519685Y0501968
X0521654Y0503937
X0523622Y0507874
X0525591Y0509842
X0527559
Y0515748
X0525591Y0517717
X0529528
X0531496Y0515748
Y0519685
X0533465Y0521654
X0535433
X0537402Y0519685
X0539370
X0541339Y0521654
X0539370Y0523622
X0537402
X0535433Y0525591
X0537402Y0527559
Y0531496
X0535433
X0537402Y0533464
X0539370
X0541339
X0543307Y0531496
X0539370Y0529528
X0541339Y0527559
X0543307Y0525591
Y0519685
X0535433Y0517717
X0533465Y0513779
X0529528
X0523622
Y0519685
Y0523622
X0525591
Y0527559
X0527559Y0525591
X0529528Y0527559
X0531496
Y0525591
Y0523622
X0529528Y0521654
X0521654
Y0525591
X0519685Y0527559
X0521654Y0531496
X0519685Y0533464
X0515748
Y0529528
X0517717Y0531496
X0513779
X0511811Y0533464
X0513779Y0535433
X0511811Y0537402
X0515748
X0517717Y0535433
X0521654
X0523622Y0536909
X0525591Y0537402
Y0533464
X0527559Y0529528
X0529528Y0531496
X0531496Y0533464
X0533465
Y0529528
X0531496Y0535433
X0529528
X0535433
Y0537402
X0533465Y0543307
Y0545276
X0525591
Y0541339
X0521654
X0523622Y0539370
Y0529528
X0515748Y0525591
Y0521654
X0517717Y0523622
Y0519685
X0515748Y0517717
X0517717Y0515748
Y0511811
X0519685Y0509842
X0513779
X0515748Y0507874
X0512303Y0501968
X0507874Y0500000
Y0498032
Y0496063
X0508440Y0491929
Y0484449
X0509842Y0476575
X0505512
X0501181
X0496850
X0499016Y0484252
Y0488189
X0501968Y0490158
X0519685Y0494095
X0522146
X0524606Y0493110
X0526575Y0488189
X0529528Y0487205
Y0484252
X0527165Y0476575
X0522835
X0514272Y0476378
X0531496Y0475394
X0519685Y0498032
X0513779Y0515748
X0511811Y0517717
Y0521654
X0513779Y0523622
Y0519685
Y0527559
X0511319Y0528543
X0511811Y0525591
X0513779Y0547244
Y0549705
X0507874Y0545276
X0504724Y0559055
X0501181
X0502535Y0563189
X0507579Y0563484
X0511122
X0517717Y0562992
X0521654
Y0566929
X0517717
X0514272Y0572342
Y0574803
X0510335Y0573524
X0505905Y0574606
Y0568898
X0497047Y0568898
X0493528Y0570669
Y0566929
Y0563189
X0492913Y0576772
X0489370
X0497244
X0500787
X0529528Y0573032
X0533957Y0573524
X0537894Y0572342
Y0574803
X0547244Y0576772
X0551181Y0576575
Y0573032
X0556102
Y0576575
X0560039Y0575787
X0562008
Y0572835
X0560039
Y0569882
X0562008
X0560236Y0566929
X0563779
X0567126
X0570669
X0572874Y0570866
X0574803Y0570866
Y0574803
X0572874Y0574804
X0576772Y0572835
X0578740Y0570866
X0581693Y0569882
X0583661
Y0572835
X0581693
Y0575787
X0583661
X0586614Y0574803
X0594527Y0574804
X0596496
X0598425Y0572835
X0600394Y0574803
X0596457Y0570866
X0594527Y0570866
X0592323Y0566929
X0588779
X0585433
X0581890
X0581890Y0562992
X0585433
X0588779
X0599213
Y0566929
X0577559Y0566929
Y0562992
X0567126
X0563779
X0560236
X0561024Y0559842
X0567913Y0559842
X0552165Y0565158
Y0568898
X0545276Y0566929
X0541339
Y0562992
X0545276
X0543307Y0558563
X0541339Y0557579
X0538878
X0534941Y0559055
X0532972Y0560532
X0536417Y0561024
X0534744Y0563484
X0531201
X0529035Y0561516
X0527067Y0562992
X0528543Y0565158
Y0568898
X0525098Y0559547
X0524606Y0557087
X0522146Y0556595
X0518701
X0515748Y0558071
X0543799Y0552165
X0545768Y0553150
X0541339Y0545276
X0539370Y0543307
X0541339Y0539370
X0549213Y0537402
X0551181Y0541339
X0555118Y0544291
X0560039Y0526575
X0559547Y0520669
X0562008
X0563976Y0523622
X0557087Y0520669
X0561024Y0512795
X0561811Y0504134
X0553150Y0501968
X0570079Y0497835
X0594488Y0531496
Y0539370
X0549213Y0592520
X0478346Y0612205
X0476378Y0503937
X0468504Y0470472
X0491142Y0629921
X0493110
X0495079
X0497047
X0499016
X0500984
Y0633858
X0499016
X0497047
X0495079
X0493110
X0491142
X0488189Y0639764
X0531496
Y0626181
X0562008Y0629921
X0563976
X0565945
X0567913
X0569882
X0571850
Y0633858
X0569882
X0567913
X0565945
X0563976
X0562008
X0574803Y0639764
T02
X0464567Y0442913
Y0450787
Y0458661
Y0466535
X0472441
Y0458661
Y0450787
Y0442913
X0480315
Y0450787
Y0458661
Y0466535
X0500000Y0446850
X0531496
X0551181Y0442913
Y0450787
X0559055
X0566929
X0574803
X0582677
Y0458661
Y0466535
X0590551
X0598425
Y0458661
Y0450787
X0590551
Y0458661
Y0442913
X0598425
X0582677
X0574803Y0442913
X0566929Y0442913
X0559055
X0582677Y0474409
Y0482283
Y0490158
Y0498032
Y0505905
Y0513779
Y0521654
Y0529528
Y0537402
X0590551
X0598425
Y0529528
X0590551
Y0521654
X0598425
Y0513779
X0590551
Y0505905
X0598425
Y0498032
Y0490158
X0590551
Y0498032
Y0482283
X0598425
Y0474409
X0590551
Y0545276
Y0553150
X0598425
Y0545276
X0582677
Y0553150
X0480315
Y0545276
X0472441
Y0553150
Y0561024
Y0568898
X0480315
Y0561024
Y0537402
Y0529528
X0472441
Y0537402
Y0521654
X0480315
Y0513779
Y0505905
Y0498032
Y0490158
Y0482283
Y0474409
X0472441
Y0482283
Y0490158
Y0498032
Y0505905
Y0513779
X0464567
Y0505905
Y0498032
Y0490158
Y0482283
Y0474409
Y0521654
Y0529528
Y0537402
Y0545276
Y0553150
Y0561024
Y0568898
T03
X0513563Y0595079
X0584429
T04
X0478563Y0585079
X0488563
X0498563
X0508563
X0503563Y0595079
X0493563
X0483563
X0554429
X0564429
X0574429
X0569429Y0585079
X0559429
X0549429
X0579429
X0583012Y0639370
X0593012
X0550846
X0540846
X0522146
X0512146
X0479980
X0469980
T05
X0526555Y0608071
X0536437
X0597421
X0465571
M30
