G04*
G04 #@! TF.GenerationSoftware,Altium Limited,Altium Designer,24.5.2 (23)*
G04*
G04 Layer_Physical_Order=1*
G04 Layer_Color=6711008*
%FSLAX25Y25*%
%MOIN*%
G70*
G04*
G04 #@! TF.SameCoordinates,8E4A67B4-94DB-4DCE-88DE-8842EE920FE8*
G04*
G04*
G04 #@! TF.FilePolarity,Positive*
G04*
G01*
G75*
%ADD10C,0.00787*%
%ADD15R,0.03975X0.01803*%
%ADD17R,0.03581X0.00803*%
%ADD18R,0.00803X0.03581*%
%ADD32R,0.02638X0.01181*%
%ADD33R,0.02362X0.05906*%
%ADD34R,0.05906X0.09213*%
%ADD35C,0.00984*%
%ADD36R,0.02362X0.01968*%
G04:AMPARAMS|DCode=37|XSize=23.62mil|YSize=27.56mil|CornerRadius=5.91mil|HoleSize=0mil|Usage=FLASHONLY|Rotation=270.000|XOffset=0mil|YOffset=0mil|HoleType=Round|Shape=RoundedRectangle|*
%AMROUNDEDRECTD37*
21,1,0.02362,0.01575,0,0,270.0*
21,1,0.01181,0.02756,0,0,270.0*
1,1,0.01181,-0.00787,-0.00591*
1,1,0.01181,-0.00787,0.00591*
1,1,0.01181,0.00787,0.00591*
1,1,0.01181,0.00787,-0.00591*
%
%ADD37ROUNDEDRECTD37*%
%ADD38R,0.01968X0.01968*%
%ADD39R,0.01968X0.02362*%
%ADD40R,0.01600X0.01800*%
%ADD41R,0.01000X0.01000*%
%ADD42R,0.07480X0.07480*%
%ADD43R,0.00800X0.01800*%
%ADD44R,0.01800X0.00800*%
%ADD45R,0.01800X0.01600*%
%ADD46R,0.05512X0.03543*%
%ADD47R,0.03543X0.05512*%
%ADD48R,0.03543X0.03150*%
%ADD49R,0.03543X0.07087*%
%ADD50C,0.04921*%
%ADD51R,0.05906X0.05906*%
%ADD52C,0.02756*%
%ADD53C,0.10354*%
%ADD54R,0.07874X0.11811*%
%ADD55C,0.05906*%
%ADD56C,0.00327*%
%ADD57C,0.00394*%
%ADD58C,0.01575*%
%ADD59C,0.01968*%
%ADD60C,0.00470*%
%ADD61C,0.01772*%
%ADD62C,0.01772*%
D10*
X-32677Y-56890D02*
X-32480Y-57087D01*
X-33046Y-56890D02*
X-32677D01*
X-32480Y-53150D02*
X-32480Y-53150D01*
X-33046Y-53150D02*
X-32480D01*
X-31496Y-49213D02*
X-29528Y-51181D01*
X-33046Y-49409D02*
X-32850Y-49213D01*
X-31496D01*
X38386Y-43504D02*
Y-43307D01*
Y-43504D02*
X38583D01*
X38386Y-43307D02*
X38583Y-43504D01*
X30315Y-37205D02*
X30512Y-37402D01*
X33465D01*
X35433Y-35433D01*
X38386Y-43307D02*
Y-30512D01*
X29528Y-32480D02*
Y-28740D01*
X33268Y-32480D02*
X35630D01*
X35433Y-35433D02*
Y-32677D01*
X35630Y-32480D01*
X34449Y-29528D02*
X37402D01*
X38386Y-30512D01*
X33268Y-28543D02*
X34449Y-29528D01*
X-41831Y25787D02*
X-38165D01*
X-37968Y25591D01*
X-23622Y1969D02*
Y3937D01*
X-21654D01*
X-21161Y25886D02*
X-20866Y25591D01*
X-17618D01*
X-59055Y41339D02*
Y47244D01*
Y41339D02*
X-50197Y32480D01*
X-43307D01*
X-41831Y29331D02*
X-37968D01*
X-43307Y32480D02*
X-35433D01*
X-37968Y29331D02*
X-37968Y29331D01*
X-59055Y47244D02*
X-53150Y53150D01*
Y70866D01*
X-35433Y32480D02*
X-34449Y31496D01*
Y27559D02*
Y31496D01*
X-28961Y29331D02*
X-25689D01*
X-25591Y29232D01*
Y27559D02*
Y29232D01*
Y29724D01*
X-11811Y23622D02*
Y29429D01*
X-6594Y28839D02*
X-5315Y27559D01*
X-2953D01*
Y27362D02*
Y27559D01*
X23622Y1969D02*
X23622Y1969D01*
X23622D02*
Y2953D01*
X23622Y1969D02*
X23622Y3937D01*
X2756Y25591D02*
X6004D01*
X11811Y23622D02*
Y29429D01*
X17028Y28839D02*
X18504Y27362D01*
X20669D01*
Y27559D01*
X39173Y21654D02*
X39370Y21850D01*
X39173Y25591D02*
X39370Y25394D01*
Y21850D02*
Y25394D01*
X60827Y25591D02*
X61024Y25394D01*
X60827Y21654D02*
X61024Y21850D01*
Y25394D01*
X37402Y31496D02*
X41378D01*
X59055Y31496D02*
X63032D01*
X3937Y-82677D02*
X16535D01*
X16732Y-82480D01*
X2461Y25886D02*
X2756Y25591D01*
D15*
X-33046Y-49409D02*
D03*
Y-53150D02*
D03*
Y-56890D02*
D03*
X-24040D02*
D03*
Y-49409D02*
D03*
X-28961Y29331D02*
D03*
Y21850D02*
D03*
X-37968D02*
D03*
Y25591D02*
D03*
Y29331D02*
D03*
D17*
X27163Y-78740D02*
D03*
X20082D02*
D03*
D18*
X26772Y-81681D02*
D03*
X25197D02*
D03*
X23622D02*
D03*
X22047D02*
D03*
X20472D02*
D03*
Y-75800D02*
D03*
X22047D02*
D03*
X23622D02*
D03*
X25197D02*
D03*
X26772D02*
D03*
D32*
X47205Y33465D02*
D03*
Y31496D02*
D03*
Y29527D02*
D03*
X41378D02*
D03*
Y31496D02*
D03*
Y33465D02*
D03*
X63032Y33465D02*
D03*
Y31496D02*
D03*
Y29527D02*
D03*
X68858D02*
D03*
Y31496D02*
D03*
Y33465D02*
D03*
D33*
X0Y-64764D02*
D03*
X4921D02*
D03*
X-34646D02*
D03*
X-30315D02*
D03*
X-25984D02*
D03*
X-21654D02*
D03*
X-17323D02*
D03*
X-12992D02*
D03*
X-8661D02*
D03*
X-4331D02*
D03*
D34*
X-43976Y-95276D02*
D03*
X12480D02*
D03*
D35*
X23622Y-43307D02*
D03*
X21654D02*
D03*
X19685D02*
D03*
X17717D02*
D03*
X15748D02*
D03*
X13780D02*
D03*
X11811D02*
D03*
X9843D02*
D03*
X7874D02*
D03*
X5906D02*
D03*
X3937D02*
D03*
X1969D02*
D03*
X0D02*
D03*
X-1969D02*
D03*
X-3937D02*
D03*
X-5906D02*
D03*
X-7874D02*
D03*
X-9843D02*
D03*
X-11811D02*
D03*
X-13780D02*
D03*
X-15748D02*
D03*
X-17717D02*
D03*
X-19685D02*
D03*
X-21654D02*
D03*
X-23622D02*
D03*
X23622Y-41339D02*
D03*
X21654D02*
D03*
X19685D02*
D03*
X17717D02*
D03*
X15748D02*
D03*
X13780D02*
D03*
X11811D02*
D03*
X9843D02*
D03*
X7874D02*
D03*
X5906D02*
D03*
X3937D02*
D03*
X1969D02*
D03*
X0D02*
D03*
X-1969D02*
D03*
X-3937D02*
D03*
X-5906D02*
D03*
X-7874D02*
D03*
X-9843D02*
D03*
X-11811D02*
D03*
X-13780D02*
D03*
X-15748D02*
D03*
X-17717D02*
D03*
X-19685D02*
D03*
X-21654D02*
D03*
X-23622D02*
D03*
X23622Y-39370D02*
D03*
X21654D02*
D03*
X15748D02*
D03*
X13780D02*
D03*
X7874D02*
D03*
X3937D02*
D03*
X0D02*
D03*
X-3937D02*
D03*
X-7874D02*
D03*
X-13780D02*
D03*
X-15748D02*
D03*
X-21654D02*
D03*
X-23622D02*
D03*
X23622Y-37402D02*
D03*
X21654D02*
D03*
X17717D02*
D03*
X13780D02*
D03*
X7874D02*
D03*
X5906D02*
D03*
X-1969D02*
D03*
X-5906D02*
D03*
X-7874D02*
D03*
X-13780D02*
D03*
X-17717D02*
D03*
X-21654D02*
D03*
X-23622D02*
D03*
X23622Y-35433D02*
D03*
X21654D02*
D03*
X19685D02*
D03*
X15748D02*
D03*
X11811D02*
D03*
X9843D02*
D03*
X3937D02*
D03*
X1969D02*
D03*
X-1969D02*
D03*
X-3937D02*
D03*
X-9843D02*
D03*
X-11811D02*
D03*
X-15748D02*
D03*
X-19685D02*
D03*
X-21654D02*
D03*
X-23622D02*
D03*
X23622Y-33465D02*
D03*
X21654D02*
D03*
X19685D02*
D03*
X17717D02*
D03*
X13780D02*
D03*
X9843D02*
D03*
X3937D02*
D03*
X0D02*
D03*
X-3937D02*
D03*
X-9843D02*
D03*
X-13780D02*
D03*
X-17717D02*
D03*
X-19685D02*
D03*
X-21654D02*
D03*
X-23622D02*
D03*
X23622Y-31496D02*
D03*
X21654D02*
D03*
X15748D02*
D03*
X11811D02*
D03*
X7874D02*
D03*
X5906D02*
D03*
X1969D02*
D03*
X0D02*
D03*
X-1969D02*
D03*
X-5906D02*
D03*
X-7874D02*
D03*
X-11811D02*
D03*
X-15748D02*
D03*
X-21654D02*
D03*
X-23622D02*
D03*
X23622Y-29528D02*
D03*
X21654D02*
D03*
X15748D02*
D03*
X13780D02*
D03*
X9843D02*
D03*
X7874D02*
D03*
X5906D02*
D03*
X3937D02*
D03*
X0D02*
D03*
X-3937D02*
D03*
X-5906D02*
D03*
X-7874D02*
D03*
X-9843D02*
D03*
X-13780D02*
D03*
X-15748D02*
D03*
X-21654D02*
D03*
X-23622D02*
D03*
X23622Y-27559D02*
D03*
X21654D02*
D03*
X19685D02*
D03*
X17717D02*
D03*
X11811D02*
D03*
X9843D02*
D03*
X3937D02*
D03*
X1969D02*
D03*
X0D02*
D03*
X-1969D02*
D03*
X-9843D02*
D03*
X-11811D02*
D03*
X-17717D02*
D03*
X-19685D02*
D03*
X-21654D02*
D03*
X-23622D02*
D03*
X23622Y-25591D02*
D03*
X21654D02*
D03*
X19685D02*
D03*
X17717D02*
D03*
X11811D02*
D03*
X7874D02*
D03*
X5906D02*
D03*
X0D02*
D03*
X-3937D02*
D03*
X-5906D02*
D03*
X-7874D02*
D03*
X-9843D02*
D03*
X-11811D02*
D03*
X-17717D02*
D03*
X-21654D02*
D03*
X-23622D02*
D03*
X23622Y-23622D02*
D03*
X21654D02*
D03*
X15748D02*
D03*
X13780D02*
D03*
X9843D02*
D03*
X3937D02*
D03*
X1969D02*
D03*
X-1969D02*
D03*
X-3937D02*
D03*
X-9843D02*
D03*
X-13780D02*
D03*
X-15748D02*
D03*
X-19685D02*
D03*
X-21654D02*
D03*
X-23622D02*
D03*
X23622Y-21654D02*
D03*
X21654D02*
D03*
X17717D02*
D03*
X15748D02*
D03*
X11811D02*
D03*
X9843D02*
D03*
X7874D02*
D03*
X5906D02*
D03*
X1969D02*
D03*
X0D02*
D03*
X-5906D02*
D03*
X-7874D02*
D03*
X-9843D02*
D03*
X-11811D02*
D03*
X-15748D02*
D03*
X-17717D02*
D03*
X-21654D02*
D03*
X-23622D02*
D03*
X23622Y-19685D02*
D03*
X21654D02*
D03*
X19685D02*
D03*
X13780D02*
D03*
X9843D02*
D03*
X3937D02*
D03*
X1969D02*
D03*
X0D02*
D03*
X-1969D02*
D03*
X-3937D02*
D03*
X-9843D02*
D03*
X-13780D02*
D03*
X-19685D02*
D03*
X-21654D02*
D03*
X-23622D02*
D03*
X23622Y-17717D02*
D03*
X21654D02*
D03*
X17717D02*
D03*
X15748D02*
D03*
X11811D02*
D03*
X7874D02*
D03*
X5906D02*
D03*
X0D02*
D03*
X-5906D02*
D03*
X-7874D02*
D03*
X-9843D02*
D03*
X-11811D02*
D03*
X-15748D02*
D03*
X-17717D02*
D03*
X-21654D02*
D03*
X-23622D02*
D03*
X23622Y-15748D02*
D03*
X21654D02*
D03*
X19685D02*
D03*
X15748D02*
D03*
X13780D02*
D03*
X9843D02*
D03*
X3937D02*
D03*
X1969D02*
D03*
X0D02*
D03*
X-1969D02*
D03*
X-3937D02*
D03*
X-9843D02*
D03*
X-13780D02*
D03*
X-15748D02*
D03*
X-19685D02*
D03*
X-21654D02*
D03*
X-23622D02*
D03*
X23622Y-13780D02*
D03*
X21654D02*
D03*
X17717D02*
D03*
X11811D02*
D03*
X9843D02*
D03*
X7874D02*
D03*
X5906D02*
D03*
X0D02*
D03*
X-1969D02*
D03*
X-5906D02*
D03*
X-7874D02*
D03*
X-9843D02*
D03*
X-11811D02*
D03*
X-17717D02*
D03*
X-21654D02*
D03*
X-23622D02*
D03*
X23622Y-11811D02*
D03*
X21654D02*
D03*
X19685D02*
D03*
X17717D02*
D03*
X11811D02*
D03*
X9843D02*
D03*
X3937D02*
D03*
X1969D02*
D03*
X-1969D02*
D03*
X-3937D02*
D03*
X-9843D02*
D03*
X-11811D02*
D03*
X-17717D02*
D03*
X-19685D02*
D03*
X-21654D02*
D03*
X-23622D02*
D03*
X23622Y-9843D02*
D03*
X21654D02*
D03*
X15748D02*
D03*
X13780D02*
D03*
X9843D02*
D03*
X7874D02*
D03*
X5906D02*
D03*
X3937D02*
D03*
X0D02*
D03*
X-3937D02*
D03*
X-5906D02*
D03*
X-7874D02*
D03*
X-9843D02*
D03*
X-13780D02*
D03*
X-15748D02*
D03*
X-21654D02*
D03*
X-23622D02*
D03*
X23622Y-7874D02*
D03*
X21654D02*
D03*
X15748D02*
D03*
X11811D02*
D03*
X7874D02*
D03*
X5906D02*
D03*
X1969D02*
D03*
X0D02*
D03*
X-1969D02*
D03*
X-5906D02*
D03*
X-7874D02*
D03*
X-11811D02*
D03*
X-15748D02*
D03*
X-21654D02*
D03*
X-23622D02*
D03*
X23622Y-5906D02*
D03*
X21654D02*
D03*
X19685D02*
D03*
X17717D02*
D03*
X13780D02*
D03*
X9843D02*
D03*
X3937D02*
D03*
X0D02*
D03*
X-3937D02*
D03*
X-9843D02*
D03*
X-13780D02*
D03*
X-17717D02*
D03*
X-19685D02*
D03*
X-21654D02*
D03*
X-23622D02*
D03*
X23622Y-3937D02*
D03*
X21654D02*
D03*
X19685D02*
D03*
X15748D02*
D03*
X11811D02*
D03*
X9843D02*
D03*
X3937D02*
D03*
X1969D02*
D03*
X-1969D02*
D03*
X-3937D02*
D03*
X-9843D02*
D03*
X-11811D02*
D03*
X-15748D02*
D03*
X-19685D02*
D03*
X-21654D02*
D03*
X-23622D02*
D03*
X23622Y-1969D02*
D03*
X21654D02*
D03*
X17717D02*
D03*
X13780D02*
D03*
X7874D02*
D03*
X5906D02*
D03*
X1969D02*
D03*
X-1969D02*
D03*
X-5906D02*
D03*
X-7874D02*
D03*
X-13780D02*
D03*
X-17717D02*
D03*
X-21654D02*
D03*
X-23622D02*
D03*
X23622Y0D02*
D03*
X21654D02*
D03*
X15748D02*
D03*
X13780D02*
D03*
X7874D02*
D03*
X3937D02*
D03*
X0D02*
D03*
X-3937D02*
D03*
X-7874D02*
D03*
X-13780D02*
D03*
X-15748D02*
D03*
X-21654D02*
D03*
X-23622D02*
D03*
X23622Y1969D02*
D03*
X21654D02*
D03*
X19685D02*
D03*
X17717D02*
D03*
X15748D02*
D03*
X13780D02*
D03*
X11811D02*
D03*
X9843D02*
D03*
X7874D02*
D03*
X5906D02*
D03*
X3937D02*
D03*
X1969D02*
D03*
X0D02*
D03*
X-1969D02*
D03*
X-3937D02*
D03*
X-5906D02*
D03*
X-7874D02*
D03*
X-9843D02*
D03*
X-11811D02*
D03*
X-13780D02*
D03*
X-15748D02*
D03*
X-17717D02*
D03*
X-19685D02*
D03*
X-21654D02*
D03*
X-23622D02*
D03*
X23622Y3937D02*
D03*
X21654D02*
D03*
X19685D02*
D03*
X17717D02*
D03*
X15748D02*
D03*
X13780D02*
D03*
X11811D02*
D03*
X9843D02*
D03*
X7874D02*
D03*
X5906D02*
D03*
X3937D02*
D03*
X1969D02*
D03*
X0D02*
D03*
X-1969D02*
D03*
X-3937D02*
D03*
X-5906D02*
D03*
X-7874D02*
D03*
X-9843D02*
D03*
X-11811D02*
D03*
X-13780D02*
D03*
X-15748D02*
D03*
X-17717D02*
D03*
X-19685D02*
D03*
X-21654D02*
D03*
X-23622D02*
D03*
X1969Y-37402D02*
D03*
D36*
X-34449Y-53051D02*
D03*
Y-49508D02*
D03*
X-5906Y35236D02*
D03*
Y31693D02*
D03*
X-2953Y27362D02*
D03*
Y23819D02*
D03*
X-1969Y35236D02*
D03*
Y31693D02*
D03*
X0Y84842D02*
D03*
Y88386D02*
D03*
X22638Y12008D02*
D03*
Y15551D02*
D03*
X24606Y18898D02*
D03*
Y22441D02*
D03*
X29528Y14961D02*
D03*
Y18504D02*
D03*
X19685Y31693D02*
D03*
Y35236D02*
D03*
X20669Y23819D02*
D03*
Y27362D02*
D03*
X24606Y31693D02*
D03*
Y35236D02*
D03*
X36417Y14961D02*
D03*
Y18504D02*
D03*
X-41831Y29331D02*
D03*
Y25787D02*
D03*
X-25591Y33268D02*
D03*
Y29724D02*
D03*
X16732Y-78937D02*
D03*
Y-82480D02*
D03*
X30512Y-75000D02*
D03*
Y-78543D02*
D03*
D37*
X38583Y-43504D02*
D03*
Y-37205D02*
D03*
X30315D02*
D03*
Y-43504D02*
D03*
D38*
X26575Y-41339D02*
D03*
X-31496Y12795D02*
D03*
D39*
X29724Y-32480D02*
D03*
X33268D02*
D03*
X35630D02*
D03*
X39173D02*
D03*
X29724Y-28543D02*
D03*
X33268D02*
D03*
X-295Y22146D02*
D03*
X3248D02*
D03*
X38583Y-14764D02*
D03*
X42126D02*
D03*
X28740Y21654D02*
D03*
X32283D02*
D03*
X28740Y25591D02*
D03*
X32283D02*
D03*
X39173Y21654D02*
D03*
X35630D02*
D03*
Y25591D02*
D03*
X39173D02*
D03*
X46063Y21654D02*
D03*
X42520D02*
D03*
Y25591D02*
D03*
X46063D02*
D03*
X50394Y25591D02*
D03*
X53937D02*
D03*
X50394Y21654D02*
D03*
X53937D02*
D03*
X57284Y25591D02*
D03*
X60827D02*
D03*
X60827Y21654D02*
D03*
X57284D02*
D03*
X67716D02*
D03*
X64173D02*
D03*
Y25591D02*
D03*
X67716D02*
D03*
X-42126Y35433D02*
D03*
X-38583D02*
D03*
X-26772Y17717D02*
D03*
X-30315D02*
D03*
X-23917Y22146D02*
D03*
X-20374D02*
D03*
X-30709Y35433D02*
D03*
X-34252D02*
D03*
X33661Y-79724D02*
D03*
X37205D02*
D03*
Y-83661D02*
D03*
X33661D02*
D03*
D40*
X-11811Y17815D02*
D03*
Y29429D02*
D03*
X11811Y17815D02*
D03*
Y29429D02*
D03*
D41*
X-17028Y18406D02*
D03*
Y28839D02*
D03*
X-6594D02*
D03*
Y18406D02*
D03*
X6594D02*
D03*
Y28839D02*
D03*
X17028D02*
D03*
Y18406D02*
D03*
D42*
X-11811Y23622D02*
D03*
X11811D02*
D03*
D43*
X-8268Y17815D02*
D03*
X-9843D02*
D03*
X-13780D02*
D03*
X-15354D02*
D03*
Y29429D02*
D03*
X-13780D02*
D03*
X-9843D02*
D03*
X-8268D02*
D03*
X15354Y17815D02*
D03*
X13780D02*
D03*
X9843D02*
D03*
X8268D02*
D03*
Y29429D02*
D03*
X9843D02*
D03*
X13780D02*
D03*
X15354D02*
D03*
D44*
X-17618Y20079D02*
D03*
Y21654D02*
D03*
Y25591D02*
D03*
Y27165D02*
D03*
X-6004D02*
D03*
Y25591D02*
D03*
Y21654D02*
D03*
Y20079D02*
D03*
X6004D02*
D03*
Y21654D02*
D03*
Y25591D02*
D03*
Y27165D02*
D03*
X17618D02*
D03*
Y25591D02*
D03*
Y21654D02*
D03*
Y20079D02*
D03*
D45*
X-17618Y23622D02*
D03*
X-6004D02*
D03*
X6004D02*
D03*
X17618D02*
D03*
D46*
X0Y98425D02*
D03*
Y90551D02*
D03*
X29528Y11811D02*
D03*
Y3937D02*
D03*
X36417Y11811D02*
D03*
Y3937D02*
D03*
D47*
Y-14764D02*
D03*
X28543D02*
D03*
D48*
X2461Y25886D02*
D03*
Y32185D02*
D03*
X-21161Y25886D02*
D03*
Y32185D02*
D03*
D49*
X29528Y31496D02*
D03*
X37402D02*
D03*
X51181Y31496D02*
D03*
X59055D02*
D03*
D50*
X66929Y-98425D02*
D03*
X51181D02*
D03*
X59055D02*
D03*
X66929Y-74803D02*
D03*
X51181Y-90551D02*
D03*
X59055D02*
D03*
X66929D02*
D03*
X51181Y-82677D02*
D03*
X59055D02*
D03*
X66929D02*
D03*
X51181Y-74803D02*
D03*
X59055D02*
D03*
X19685Y-90551D02*
D03*
Y-98425D02*
D03*
X27559Y-90551D02*
D03*
Y-98425D02*
D03*
X51181Y-66929D02*
D03*
X59055D02*
D03*
X66929D02*
D03*
X51181Y-59055D02*
D03*
X59055D02*
D03*
X66929D02*
D03*
X51181Y-51181D02*
D03*
X59055D02*
D03*
X66929D02*
D03*
X51181Y-43307D02*
D03*
X59055D02*
D03*
X66929D02*
D03*
X51181Y-35433D02*
D03*
X59055D02*
D03*
X66929D02*
D03*
Y-27559D02*
D03*
X59055D02*
D03*
X51181D02*
D03*
X66929Y-19685D02*
D03*
X59055D02*
D03*
X51181D02*
D03*
Y-11811D02*
D03*
X59055D02*
D03*
X66929D02*
D03*
X59055Y-3937D02*
D03*
X66929D02*
D03*
X51181D02*
D03*
X35433Y-98425D02*
D03*
X43307Y-98425D02*
D03*
Y-90551D02*
D03*
X35433D02*
D03*
X-66929Y3937D02*
D03*
Y11811D02*
D03*
Y19685D02*
D03*
X-59055Y27559D02*
D03*
Y3937D02*
D03*
Y11811D02*
D03*
Y19685D02*
D03*
X-51181D02*
D03*
Y11811D02*
D03*
Y3937D02*
D03*
X-66929Y27559D02*
D03*
X-51181D02*
D03*
X59055Y3937D02*
D03*
X51181D02*
D03*
X66929D02*
D03*
X59055Y11811D02*
D03*
X51181D02*
D03*
X66929D02*
D03*
X-66929Y-66929D02*
D03*
X-59055D02*
D03*
X-51181D02*
D03*
X-66929Y-59055D02*
D03*
X-59055D02*
D03*
X-51181D02*
D03*
X-66929Y-51181D02*
D03*
X-59055D02*
D03*
X-51181D02*
D03*
X-66929Y-43307D02*
D03*
X-59055D02*
D03*
X-51181D02*
D03*
X-66929Y-35433D02*
D03*
X-59055D02*
D03*
X-51181D02*
D03*
X-66929Y-98425D02*
D03*
X-59055D02*
D03*
X-51181D02*
D03*
X-66929Y-90551D02*
D03*
X-59055D02*
D03*
X-51181D02*
D03*
X-66929Y-82677D02*
D03*
X-59055D02*
D03*
X-51181D02*
D03*
X-66929Y-74803D02*
D03*
X-59055D02*
D03*
X-51181D02*
D03*
X-59055Y-27559D02*
D03*
X-66929D02*
D03*
X-51181D02*
D03*
Y-19685D02*
D03*
X-59055D02*
D03*
X-66929D02*
D03*
X-59055Y-11811D02*
D03*
X-51181D02*
D03*
X-66929D02*
D03*
Y-3937D02*
D03*
X-59055D02*
D03*
X-51181D02*
D03*
D51*
X0Y-94488D02*
D03*
X-31496D02*
D03*
D52*
X-35433Y-76772D02*
D03*
X3937D02*
D03*
D53*
X-4941Y66732D02*
D03*
X4941D02*
D03*
D54*
X-65925D02*
D03*
X65925D02*
D03*
D55*
X-61516Y98032D02*
D03*
X-19350D02*
D03*
X-51516D02*
D03*
X-9350D02*
D03*
X-22933Y43740D02*
D03*
X-17933Y53740D02*
D03*
X-27933D02*
D03*
X-32933Y43740D02*
D03*
X-37933Y53740D02*
D03*
X-42933Y43740D02*
D03*
X-47933Y53740D02*
D03*
X-52933Y43740D02*
D03*
X9350Y98032D02*
D03*
X51516D02*
D03*
X19350D02*
D03*
X61516D02*
D03*
X47933Y43740D02*
D03*
X52933Y53740D02*
D03*
X42933D02*
D03*
X37933Y43740D02*
D03*
X32933Y53740D02*
D03*
X27933Y43740D02*
D03*
X22933Y53740D02*
D03*
X17933Y43740D02*
D03*
D56*
X26575Y-38878D02*
X27067Y-38386D01*
Y-35925D02*
X27559Y-35433D01*
X27067Y-38386D02*
Y-35925D01*
X24606Y-38878D02*
X26575D01*
X24114Y-38386D02*
X24606Y-38878D01*
X22638Y-38386D02*
X24114D01*
X-23622Y-45276D02*
X-21654Y-43307D01*
X-18701Y-45276D02*
Y-42815D01*
X-23622Y-25591D02*
Y-25591D01*
X-22638Y-22638D02*
X-21654Y-23622D01*
X-24606Y-22638D02*
X-22638D01*
X-25591Y-21654D02*
X-23622D01*
X-19685Y-43307D02*
Y-42815D01*
X-18701D02*
X-17717Y-41831D01*
X-19685Y-42815D02*
X-18701Y-41831D01*
X-20669Y-45276D02*
Y-38386D01*
X-18701Y-41831D02*
Y-40846D01*
X-19193Y-40354D02*
X-18701Y-40846D01*
X-19193Y-40354D02*
Y-39370D01*
X-17717Y-39862D02*
Y-37402D01*
X-20669Y-38386D02*
X-18701Y-36417D01*
X-17224D01*
X-18701Y-33957D02*
Y-32480D01*
X-19685Y-31496D02*
X-18701Y-32480D01*
X-19685Y-31496D02*
Y-30512D01*
X-18701Y-29528D01*
X-17717D01*
X-18701Y-22638D02*
Y-22638D01*
X-19193Y-22146D02*
X-18701Y-22638D01*
X-19193Y-22146D02*
Y-21161D01*
X-17717Y-45768D02*
Y-43307D01*
X-16732Y-45276D02*
X-16240Y-45768D01*
X-15748Y-44783D02*
Y-43307D01*
Y-44783D02*
X-15256Y-45276D01*
X-14764Y-44291D02*
X-13287Y-45768D01*
X-17717Y-41831D02*
Y-41339D01*
Y-39862D02*
X-16732Y-40846D01*
X-17224Y-36417D02*
X-16732Y-36909D01*
X-16732Y-45276D02*
Y-40846D01*
X-16732Y-39862D02*
Y-36909D01*
Y-39862D02*
X-15748Y-40846D01*
Y-41339D02*
Y-40846D01*
Y-39370D02*
X-14764Y-40354D01*
Y-44291D02*
Y-40354D01*
X-16240Y-36417D02*
X-12795D01*
X-13780Y-43307D02*
Y-43307D01*
X-12795Y-42323D01*
Y-40354D01*
X-12795D01*
X-11811Y-39370D01*
X-12795Y-36417D02*
X-10335Y-38878D01*
X-10827Y-42323D02*
Y-40354D01*
X-11811Y-35433D02*
X-9843Y-37402D01*
X-10827Y-40354D02*
X-10335Y-39862D01*
X-10827Y-42323D02*
X-9843Y-43307D01*
X-10335Y-39862D02*
Y-38878D01*
X-9843Y-43307D02*
Y-43307D01*
X-7874Y-44291D02*
Y-43307D01*
X-5906Y-44291D02*
Y-43307D01*
X-4921Y-53150D02*
X-3937Y-52165D01*
Y-45276D01*
X-2953Y-44291D01*
X-1969Y-54134D02*
Y-43307D01*
X-984Y-44291D02*
X0Y-45276D01*
Y-55118D02*
Y-45276D01*
X984Y-60532D02*
Y-42323D01*
X1969Y-59547D02*
Y-43307D01*
X2953Y-57579D02*
Y-38386D01*
X3937Y-56102D02*
Y-43307D01*
X4921Y-54626D02*
Y-42323D01*
X5906Y-53150D02*
Y-43307D01*
X-8858Y-44291D02*
Y-42323D01*
X-7874Y-41339D01*
X-3937D02*
X-2953Y-42323D01*
Y-44291D02*
Y-42323D01*
X-984Y-44291D02*
Y-42323D01*
X0Y-41339D01*
X984Y-42323D02*
X1969Y-41339D01*
X1969Y-37402D02*
X2953Y-38386D01*
X3937Y-41339D02*
X4921Y-42323D01*
X-17717Y-33465D02*
Y-31496D01*
X-18701Y-33957D02*
X-16240Y-36417D01*
X-17717Y-29528D02*
X-15748Y-27559D01*
X-8858Y-30020D02*
Y-28543D01*
Y-30020D02*
X-8858D01*
X-8366Y-30512D01*
X-6890D01*
X-18701Y-22638D02*
X-15748Y-25591D01*
X-15748D01*
Y-27559D02*
Y-25591D01*
X-9843Y-27559D02*
X-8858Y-28543D01*
X19193Y-34449D02*
X22146D01*
X22638Y-33957D01*
X24606Y-35925D02*
Y-27559D01*
X-26575Y-20669D02*
X-22638D01*
X-27559Y-19685D02*
X-23622D01*
X-29035Y-18701D02*
X-22638D01*
X-30512Y-17717D02*
X-23622D01*
X-31988Y-16732D02*
X-22638D01*
X-34941Y-14764D02*
X-22638D01*
X-36417Y-13780D02*
X-23622D01*
X-37894Y-12795D02*
X-22638D01*
X-39370Y-11811D02*
X-23622D01*
X-19193Y-21161D02*
X-19193Y-21161D01*
X-22638Y-20669D02*
X-21654Y-21654D01*
X-19193Y-21161D02*
X-18209Y-20177D01*
Y-19193D01*
X-22638Y-18701D02*
X-21654Y-19685D01*
X-19193Y-18209D02*
X-18209Y-19193D01*
X-19193Y-18209D02*
Y-17224D01*
X-19193Y-17224D02*
X-19193Y-17224D01*
X-22638Y-16732D02*
X-21654Y-17717D01*
X-19193Y-17224D02*
X-17717Y-15748D01*
X-17717D01*
X-22638Y-14764D02*
X-21654Y-15748D01*
X-22638Y-12795D02*
X-21654Y-13780D01*
X-41339Y-10827D02*
X-22638D01*
X-42815Y-9350D02*
X-25098D01*
X-24606Y-8858D01*
X-43307Y-7874D02*
X-23622D01*
X-37402Y-6890D02*
X-22638D01*
X-35433Y-5906D02*
X-23622D01*
X-33465Y-4921D02*
X-22638D01*
X-31496Y-3937D02*
X-23622D01*
X-29528Y-2953D02*
X-22638D01*
Y-10827D02*
X-21654Y-11811D01*
X-17717D02*
Y-9843D01*
X-22638Y-8858D02*
X-21654Y-9843D01*
X-24606Y-8858D02*
X-22638D01*
X-22638Y-6890D02*
X-21654Y-7874D01*
X-22638Y-4921D02*
X-21654Y-5906D01*
X-20669Y-984D02*
X-12303Y-9350D01*
X-22638Y-2953D02*
X-21654Y-3937D01*
X-17717Y-15748D02*
X-12303Y-10335D01*
Y-9350D01*
X-4921Y-10827D02*
Y-8858D01*
X-3937Y-3937D02*
X-2953Y-2953D01*
X-984D01*
X-28543Y1969D02*
X-25591Y-984D01*
X-27559Y2461D02*
X-25098Y0D01*
X-27559Y-1969D02*
X-23622D01*
X-25591Y1969D02*
X-24606Y984D01*
X-25098Y0D02*
X-23622D01*
X-25591Y-984D02*
X-22638D01*
X-24606Y984D02*
X-21161D01*
X-22638Y-984D02*
X-21654Y-1969D01*
X-21654D01*
X-21654Y5413D02*
X-20669Y4429D01*
X-21161Y984D02*
X-20669Y492D01*
Y-984D02*
Y492D01*
Y1476D02*
Y4429D01*
Y1476D02*
X-20177Y984D01*
X-20177Y5906D02*
X-19685Y5413D01*
Y1969D02*
Y1969D01*
Y3937D02*
Y5413D01*
Y1969D02*
X-18701Y2953D01*
Y4921D01*
X-17717Y5906D01*
X-15748Y3937D02*
Y9843D01*
X-14764Y1476D02*
Y10335D01*
X-7394Y24987D02*
Y26194D01*
X-6422Y27165D01*
X3937Y-1969D02*
Y-1969D01*
X-984Y-2953D02*
X984Y-984D01*
X984Y984D02*
X1476Y492D01*
X2461D01*
X984Y-984D02*
X2953D01*
X2461Y492D02*
X2953Y984D01*
Y-984D02*
X3937Y-1969D01*
X16732Y-20669D02*
X16732D01*
X18701Y-18701D01*
X14764Y-4921D02*
X20669Y-10827D01*
X6890Y-4921D02*
X12303D01*
X12795Y-4429D01*
X14764Y-4921D02*
Y-3445D01*
X3937Y-1969D02*
X6890Y-4921D01*
X12795Y-4429D02*
Y-1476D01*
X13287Y-984D01*
X6890D02*
X8858D01*
X4921Y984D02*
X6890Y-984D01*
X8858D02*
X10827Y984D01*
X16240D01*
X17717Y-5906D02*
X20669Y-8858D01*
X19685Y-5906D02*
X20669Y-6890D01*
X18701Y-4921D02*
X20177D01*
X17717Y-3937D02*
X18701Y-4921D01*
X19685Y-3937D02*
X20177D01*
X14764Y-3445D02*
X17224Y-984D01*
X18209D02*
X20177Y-2953D01*
X13287Y-984D02*
X16240D01*
X17224D02*
X18209D01*
X16240D02*
X17224Y0D01*
X19685D02*
X20669Y-984D01*
X17224Y0D02*
Y492D01*
X17717Y984D01*
X18209D01*
X16240D02*
Y984D01*
X18209Y984D02*
X18701Y1476D01*
X16240Y984D02*
X16732Y1476D01*
Y4921D01*
X18701Y1476D02*
Y4921D01*
X20669Y-20669D02*
X25591D01*
X18701Y-18701D02*
X24606D01*
X20669Y-10827D02*
X24606D01*
X20669Y-8858D02*
X24606D01*
X20669Y-6890D02*
X24606D01*
X21161Y-5906D02*
X21654D01*
X20669Y-5413D02*
X21161Y-5906D01*
X20669Y-5413D02*
Y-5413D01*
X20177Y-4921D02*
X20669Y-5413D01*
X21161Y-4921D02*
X24606D01*
X20177Y-3937D02*
X21161Y-4921D01*
X22638Y-2953D02*
X23622Y-3937D01*
X20177Y-2953D02*
X22638D01*
X21654Y-1969D02*
X22146D01*
X23130Y-984D01*
X20669D02*
X22146D01*
X23130Y0D01*
X23622D01*
X21654D02*
X21654D01*
X22638Y984D01*
X24606D01*
X21654Y1969D02*
Y1969D01*
X20669Y2953D02*
X21654Y1969D01*
X20669Y2953D02*
Y4429D01*
X23622Y-1969D02*
X24606Y-2953D01*
X23130Y-984D02*
X24606D01*
X16228Y24987D02*
X16240Y24975D01*
Y24114D02*
Y24975D01*
Y24114D02*
X16732Y23622D01*
X20669Y4429D02*
X21161Y4921D01*
X23622D01*
X25591Y6890D01*
Y6890D01*
X26575Y7874D01*
X16732Y23622D02*
X17618D01*
X16228Y24987D02*
Y26194D01*
X17298Y27264D01*
X17717D01*
X55315Y23622D02*
X55315Y23622D01*
X57284Y24803D02*
Y25591D01*
X-1969Y-57087D02*
X0Y-55118D01*
X5906Y-41339D02*
X6890Y-42323D01*
Y-51673D02*
Y-42323D01*
X7874Y-50197D02*
Y-43307D01*
Y-41339D02*
X8858Y-42323D01*
Y-48720D02*
Y-42323D01*
X9843Y-47244D02*
Y-43307D01*
Y-41339D02*
X10827Y-42323D01*
Y-45768D02*
Y-42323D01*
X11811Y-43307D02*
X11811D01*
X12795Y-36417D02*
X13780Y-37402D01*
Y-37402D02*
Y-37402D01*
X15748Y-41339D02*
X15748D01*
X14764Y-36417D02*
X17224Y-38878D01*
X15748Y-41339D02*
X17224Y-39862D01*
Y-38878D01*
X17717Y-37402D02*
Y-37402D01*
X18701Y-36417D01*
Y-34941D01*
X19685Y-41339D02*
Y-37402D01*
X20669Y-36417D01*
X21654Y-41339D02*
X22638Y-40354D01*
X21654Y-37402D02*
X22638Y-38386D01*
X20669Y-36417D02*
X24114D01*
X22638Y-40354D02*
X24606D01*
X24114Y-36417D02*
X24606Y-35925D01*
X12795Y-36417D02*
Y-32480D01*
Y-30512D02*
Y-28543D01*
Y-30512D02*
X13287Y-31004D01*
X12795Y-32480D02*
X13287Y-31988D01*
Y-31004D01*
X14764Y-36417D02*
Y-31004D01*
X15256Y-30512D01*
X16732D01*
X15748Y-35433D02*
X16732Y-34449D01*
Y-32480D01*
X18701Y-30512D01*
X18701D01*
Y-34941D02*
X19193Y-34449D01*
X12795Y-28543D02*
X13780Y-27559D01*
Y-27559D01*
X16732Y-24606D01*
Y-20669D01*
X16732Y-30512D02*
X18701Y-28543D01*
Y-22638D01*
Y-30512D02*
X20669Y-28543D01*
X18701Y-22638D02*
X20669Y-20669D01*
Y-28543D02*
Y-23130D01*
X20669D01*
X21161Y-22638D01*
X22638Y-33957D02*
Y-25098D01*
X23130Y-24606D01*
X21161Y-22638D02*
X24606D01*
X23130Y-24606D02*
X24606D01*
Y-27559D02*
X25591Y-26575D01*
X17717Y-43307D02*
X19685Y-45276D01*
X-984Y984D02*
X984D01*
X2953D02*
X4921D01*
X-20177D02*
X-15256D01*
X-14764Y492D01*
X-14764Y-984D02*
Y492D01*
Y1476D02*
X-14272Y984D01*
X-14764Y-984D02*
X-13780Y-1969D01*
X-14272Y984D02*
X-12795D01*
X-13780Y1969D02*
X-12795Y2953D01*
Y8366D01*
Y984D02*
X-11811Y0D01*
X-11811Y-3937D02*
Y0D01*
Y3937D02*
Y7382D01*
Y1969D02*
X-10827Y2953D01*
Y6398D01*
X-9843Y-3937D02*
Y0D01*
X-8858Y2953D02*
Y4921D01*
X-13780Y3937D02*
Y9350D01*
X-8858Y2953D02*
X-7874Y1969D01*
Y0D02*
X-5906D01*
Y-1969D02*
X-3937D01*
X-984Y984D01*
X-5906Y1969D02*
Y3937D01*
X-7394Y24987D02*
X-7382Y24975D01*
Y24606D02*
Y24975D01*
Y24606D02*
X-6398Y23622D01*
X-6422Y27165D02*
X-6004D01*
X-6398Y23622D02*
X-6004D01*
Y27165D02*
X-5906Y27264D01*
D57*
X27559Y-35433D02*
X29528Y-33465D01*
X25591Y-37402D02*
X25591Y-37402D01*
X23622Y-37402D02*
X25591D01*
X-19685Y-67913D02*
Y-61516D01*
X-34646Y-63976D02*
X-34449Y-64173D01*
X-49213Y-66929D02*
X-42323Y-60039D01*
X-30315Y-64764D02*
Y-61319D01*
X-20669Y-60532D02*
X-19685Y-61516D01*
X-30315Y-61319D02*
X-29528Y-60532D01*
X-49213Y-62992D02*
X-44291Y-58071D01*
X-29528Y-60532D02*
X-20669D01*
X-19685Y-59055D02*
X-17717Y-61024D01*
X-32480Y-61516D02*
X-28543Y-57579D01*
X-31496Y-94488D02*
X-21654D01*
X-62992Y-78740D02*
X-49213D01*
X-66929Y-74803D02*
X-62992Y-78740D01*
X-60039Y-70866D02*
X-49213D01*
X-62992Y-67913D02*
X-60039Y-70866D01*
X-62992Y-67913D02*
X-62992D01*
X-63976Y-66929D02*
X-62992Y-67913D01*
X-66929Y-66929D02*
Y-66929D01*
X-63976D01*
X-59055D02*
X-55118Y-62992D01*
X-49213D01*
X-51181Y-74803D02*
X-49213D01*
Y-78740D02*
X-36417Y-65945D01*
X-33957Y-69882D02*
X-32972D01*
X-32480Y-69390D01*
X-21654Y-68898D02*
X-20177Y-70374D01*
X-34449Y-69390D02*
X-33957Y-69882D01*
X-49213Y-74803D02*
X-38386Y-63976D01*
X-19685Y-67913D02*
X-18701Y-68898D01*
X-51181Y-66929D02*
X-49213D01*
X-21654Y-68898D02*
Y-64764D01*
X-34449Y-69390D02*
Y-64173D01*
X-49213Y-70866D02*
X-40354Y-62008D01*
X-32480Y-69390D02*
Y-61516D01*
X-66929Y-59055D02*
X-62992Y-55118D01*
X-59055Y-59055D02*
X-55118Y-55118D01*
X-62992Y-55118D02*
Y-49213D01*
X-55118Y-55118D02*
Y-49213D01*
X-66929Y-51181D02*
Y-49213D01*
X-55118Y-49213D02*
X-53150Y-47244D01*
X-62992Y-49213D02*
X-61024Y-47244D01*
X-53150Y-47244D02*
Y-47244D01*
X-49213D01*
X-66929Y-49213D02*
X-62992Y-45276D01*
X-61024Y-47244D02*
X-57087D01*
X-55118Y-45276D01*
Y-41831D01*
X-62992Y-45276D02*
Y-41339D01*
X-66929Y-43307D02*
Y-41339D01*
X-55118Y-41831D02*
X-53150Y-39862D01*
X-62992Y-41339D02*
X-61024Y-39370D01*
X-53150Y-39862D02*
Y-39862D01*
X-48720D01*
X-36417Y-65945D02*
Y-48228D01*
X-51181Y-59055D02*
X-46260Y-54134D01*
X-38386Y-63976D02*
Y-47244D01*
X-40354Y-62008D02*
Y-46260D01*
X-42323Y-60039D02*
Y-45276D01*
X-44291Y-58071D02*
Y-44291D01*
X-46260Y-54134D02*
Y-43307D01*
X-36417Y-48228D02*
X-35433Y-47244D01*
X-49213D02*
X-48228Y-46260D01*
X-38386Y-47244D02*
X-36417Y-45276D01*
X-48228Y-46260D02*
Y-45276D01*
X-47736Y-44783D01*
Y-41831D01*
X-35433Y-47244D02*
X-25591Y-37402D01*
X-40354Y-46260D02*
X-29528Y-35433D01*
X-36417Y-45276D02*
X-27559Y-36417D01*
X-42323Y-45276D02*
X-31496Y-34449D01*
X-61024Y-39370D02*
X-54626D01*
X-66929Y-41339D02*
X-62992Y-37402D01*
X-54626Y-39370D02*
X-54134Y-38878D01*
X-62992Y-37402D02*
Y-33465D01*
X-59055Y-35433D02*
X-58071D01*
X-66929D02*
Y-33465D01*
X-58071Y-35433D02*
X-54134Y-31496D01*
X-62992Y-33465D02*
X-61024Y-31496D01*
X-66929Y-33465D02*
X-62992Y-29528D01*
X-61024Y-31496D02*
X-57087D01*
X-54134D02*
X-50197D01*
X-57087D02*
X-55118Y-29528D01*
X-62992D02*
Y-25591D01*
X-55118Y-29528D02*
Y-25591D01*
X-66929Y-27559D02*
Y-25591D01*
X-55118D02*
X-53642Y-24114D01*
X-62992Y-25591D02*
X-61516Y-24114D01*
X-66929Y-25591D02*
X-64468Y-23130D01*
X-61516Y-24114D02*
X-55610D01*
X-54626Y-23130D01*
X-64468D02*
X-57579D01*
X-54626D02*
X-49705D01*
X-57579D02*
X-55118Y-20669D01*
X-48720Y-39862D02*
X-48228Y-39370D01*
X-48228D01*
X-44291Y-44291D02*
X-33465Y-33465D01*
X-54134Y-38878D02*
X-49705D01*
X-46260Y-43307D02*
X-35433Y-32480D01*
X-49705Y-38878D02*
X-47244Y-36417D01*
X-47736Y-41831D02*
X-37402Y-31496D01*
X-47244Y-36417D02*
X-47244Y-36417D01*
X-47244Y-36417D02*
Y-34449D01*
X-48228Y-39370D02*
X-39370Y-30512D01*
X-51181Y-35433D02*
X-49213Y-33465D01*
X-47244Y-34449D02*
X-41339Y-28543D01*
X-31496Y-34449D02*
Y-27559D01*
X-49213Y-33465D02*
X-43307Y-27559D01*
X-33465Y-33465D02*
Y-27559D01*
X-35433Y-32480D02*
Y-27559D01*
X-37402Y-31496D02*
Y-27067D01*
X-50197Y-31496D02*
X-45276Y-26575D01*
X-39370Y-30512D02*
Y-26575D01*
X-51181Y-27559D02*
X-50197D01*
X-41339Y-28543D02*
Y-26083D01*
X-43307Y-27559D02*
Y-25591D01*
X-45276Y-26575D02*
Y-25098D01*
X-53642Y-24114D02*
X-49213D01*
X-35433Y-27559D02*
X-27559Y-19685D01*
X-37402Y-27067D02*
X-29035Y-18701D01*
X-39370Y-26575D02*
X-30512Y-17717D01*
X-49705Y-23130D02*
X-47244Y-20669D01*
X-26535Y-58563D02*
X-21654D01*
X-21161Y-58071D01*
X-27067Y-58031D02*
X-26535Y-58563D01*
X-21161Y-58071D02*
Y-57087D01*
X-27067Y-58031D02*
Y-55610D01*
X-28543Y-57579D02*
Y-54134D01*
X-27067Y-55610D02*
X-26575Y-55118D01*
X-19685D01*
X-28543Y-54134D02*
X-28051Y-53642D01*
X-24606D01*
X-22638Y-53150D02*
X-22146Y-53642D01*
X-24606D02*
X-24114Y-53150D01*
X-22638D02*
X-22638D01*
X-24114D02*
X-24114D01*
X-22638D02*
Y-52658D01*
X-24114Y-53150D02*
Y-51673D01*
X-22638Y-52658D02*
X-22146Y-52165D01*
X-24606Y-51181D02*
X-24114Y-51673D01*
X-26575Y-51181D02*
X-24606D01*
X-27067Y-50689D02*
X-26575Y-51181D01*
X-27067Y-50689D02*
Y-47736D01*
X-26575Y-47244D01*
X-22638D01*
X-20669Y-45276D01*
X-19685Y-59055D02*
Y-58071D01*
X-19193Y-57579D01*
Y-57087D01*
X-21161D02*
X-20669Y-56595D01*
X-19685D02*
X-19193Y-57087D01*
X-20669Y-56595D02*
X-19685D01*
X-19685Y-55118D02*
X-19193Y-54626D01*
Y-54134D01*
X-19685Y-53642D02*
X-19193Y-54134D01*
X-22146Y-53642D02*
X-19685D01*
X-22146Y-52165D02*
X-19685D01*
X-19193Y-51673D01*
Y-51181D01*
X-19193D02*
X-19193D01*
X-19685Y-50689D02*
X-19193Y-51181D01*
X-20669Y-50689D02*
X-19685D01*
X-20915Y-50443D02*
X-20669Y-50689D01*
X-21161Y-50197D02*
X-20915Y-50443D01*
X-21161Y-50197D02*
Y-49705D01*
X-21161D01*
X-20669Y-49213D01*
X-19685D01*
X-19193Y-48720D01*
Y-48228D01*
X-19685Y-47736D02*
X-19193Y-48228D01*
X-19685Y-47736D02*
Y-47244D01*
X-19193Y-46752D01*
X-19193D01*
Y-45768D01*
X-18701Y-45276D01*
X-25591Y-37402D02*
Y-27559D01*
X-27559Y-36417D02*
Y-27559D01*
X-29528Y-35433D02*
Y-27559D01*
X-25591Y-27559D02*
X-23622Y-25591D01*
X-27559Y-27559D02*
X-23622Y-23622D01*
X-29528Y-27559D02*
X-24606Y-22638D01*
X-31496Y-27559D02*
X-25591Y-21654D01*
X-33465Y-27559D02*
X-26575Y-20669D01*
X45276Y-84646D02*
X51181Y-90551D01*
X43307Y-85630D02*
X47244Y-89567D01*
X50197Y-86614D02*
X62992D01*
X47244Y-83661D02*
X50197Y-86614D01*
X62992D02*
X66929Y-82677D01*
X43307Y-85630D02*
Y-81693D01*
X45276Y-84646D02*
Y-80709D01*
X66929Y-82677D02*
Y-82677D01*
X47244Y-83661D02*
Y-79724D01*
X39370Y-94488D02*
Y-80709D01*
Y-94488D02*
X43307Y-98425D01*
X31496Y-94488D02*
X35433Y-98425D01*
X29528Y-84646D02*
X35433Y-90551D01*
X25591Y-84646D02*
X29528D01*
X38386Y-79724D02*
X39370Y-80709D01*
X25197Y-84252D02*
X25591Y-84646D01*
X33465Y-83465D02*
X33661Y-83661D01*
X33465Y-83465D02*
Y-79724D01*
X23622Y-85630D02*
Y-81681D01*
X25197Y-84252D02*
Y-81681D01*
X47244Y-94488D02*
X51181Y-98425D01*
X47244Y-94488D02*
Y-89567D01*
X37205Y-79724D02*
X38386D01*
X24606Y-61024D02*
X25591D01*
X27067Y-71850D02*
X30512D01*
X33465Y-79724D02*
Y-74803D01*
X30315Y-78740D02*
X30512Y-78543D01*
Y-71850D02*
X33465Y-74803D01*
X27163Y-78740D02*
X30315D01*
X49213D02*
X62992D01*
Y-78740D01*
X47308Y-76835D02*
X49213Y-78740D01*
X47244Y-76835D02*
X47308D01*
X33465Y-71850D02*
X43307Y-81693D01*
X62992Y-78740D02*
X66929Y-74803D01*
X47244Y-76835D02*
Y-74803D01*
X55118Y-70866D02*
X59055Y-74803D01*
X48228Y-70866D02*
X55118D01*
X45276Y-62992D02*
X55118D01*
X32480Y-55118D02*
X48228Y-70866D01*
X55118Y-62992D02*
X59055Y-59055D01*
X46260D02*
X51181D01*
X35433Y-53150D02*
X45276Y-62992D01*
X26575Y-78740D02*
X27163D01*
X26575D02*
Y-75997D01*
X26772Y-75800D01*
X20472Y-89764D02*
Y-81681D01*
X19685Y-90551D02*
X20472Y-89764D01*
X22047Y-87008D02*
Y-81681D01*
Y-87008D02*
X23622Y-88583D01*
Y-85630D02*
X24606Y-86614D01*
X28543D01*
X23622Y-94488D02*
Y-88583D01*
Y-94488D02*
X27559Y-98425D01*
X28543Y-86614D02*
X31496Y-89567D01*
Y-94488D02*
Y-89567D01*
X29528Y-57087D02*
X47244Y-74803D01*
X23622Y-75800D02*
Y-73327D01*
X25197Y-75800D02*
Y-72441D01*
X24606Y-62992D02*
X33465Y-71850D01*
X33465D01*
X25591Y-61024D02*
X45276Y-80709D01*
X26575Y-59055D02*
X47244Y-79724D01*
X-17717Y-58563D02*
Y-45768D01*
X-16240Y-57579D02*
Y-45768D01*
X-15256Y-45276D02*
X-14764Y-45768D01*
Y-57579D02*
Y-52165D01*
Y-49705D02*
Y-45768D01*
Y-52165D02*
X-14764D01*
X-14272Y-51673D01*
X-14764Y-49705D02*
X-14272Y-50197D01*
X-14272Y-51673D02*
X-13780D01*
X-13287Y-52165D01*
Y-48228D02*
Y-45768D01*
Y-48228D02*
X-12795Y-48720D01*
X-14272Y-50197D02*
X-9843D01*
X-11811Y-52165D02*
X-11319Y-51673D01*
X-10827D01*
X-12795Y-48720D02*
X-8858D01*
X-10827Y-51673D02*
X-10335Y-52165D01*
X-11811Y-47244D02*
X-8858Y-44291D01*
X-9843Y-50197D02*
X-8858Y-51181D01*
Y-55610D02*
Y-51181D01*
X-9350Y-47244D02*
X-7874Y-45768D01*
X-8858Y-48720D02*
X-7382Y-50197D01*
X-7874Y-45768D02*
Y-44291D01*
X-7382Y-54134D02*
Y-50197D01*
Y-54134D02*
X-6890Y-54626D01*
X-6890Y-48228D02*
X-5906Y-47244D01*
Y-44291D01*
X-6890Y-54626D02*
X-4429D01*
X-3937Y-55118D01*
X1969Y-37402D02*
X1969D01*
X-15748Y-33465D02*
X-13780D01*
X-11811Y-31496D02*
X-9843Y-29528D01*
X-7874Y-33465D02*
Y-31496D01*
Y-29528D02*
Y-27559D01*
X-6890Y-30512D02*
X-5906Y-31496D01*
Y-31496D02*
Y-31496D01*
X-15748Y-21654D02*
X-13780D01*
Y-25591D02*
Y-23622D01*
Y-25591D02*
X-11811D01*
Y-23622D02*
Y-21654D01*
Y-23622D02*
X-9843D01*
X-7874Y-25591D02*
X-5906D01*
Y-23622D02*
Y-21654D01*
Y-31496D02*
X-5906Y-31496D01*
X-3937D01*
Y-33465D02*
Y-31496D01*
X-1969D01*
Y-35433D02*
X0D01*
Y-33465D02*
Y-31496D01*
Y-29528D01*
X1969Y-31496D02*
X3589Y-33117D01*
X3589D02*
X3589D01*
X3937Y-33465D01*
Y-35433D02*
Y-33465D01*
X5906Y-31496D01*
Y-31496D01*
X-5906Y-29528D02*
Y-27559D01*
Y-25591D02*
Y-23622D01*
X-3937D01*
X-5906Y-27559D02*
X-3937Y-25591D01*
X0Y-29528D02*
Y-27559D01*
Y-21654D02*
X1969D01*
Y-27559D02*
Y-23622D01*
Y-27559D02*
X3937D01*
X5906Y-29528D02*
Y-27559D01*
X45276Y-45276D02*
X47244Y-43307D01*
X51181D01*
X47244Y-55118D02*
X62992D01*
X55118Y-47244D02*
X59055Y-51181D01*
X62992Y-55118D02*
X66929Y-51181D01*
Y-51181D01*
X28740Y-43504D02*
X30315D01*
X19685Y-45276D02*
X45276D01*
X19685Y-47244D02*
X55118D01*
X25591Y-40354D02*
X26575Y-41339D01*
X28740Y-43504D01*
X29528Y-33465D02*
Y-32480D01*
X47244Y-31496D02*
X55118D01*
X59055Y-35433D01*
X24606Y-22638D02*
X40354D01*
X24606Y-24606D02*
X42323D01*
X25591Y-26575D02*
X42323D01*
Y-24606D02*
X43307Y-23622D01*
X42323Y-26575D02*
X47244Y-31496D01*
X43307Y-23622D02*
X62992D01*
X66929Y-19685D01*
X17717Y-55118D02*
X32480D01*
X18209Y-53150D02*
X35433D01*
X18701Y-51181D02*
X38386D01*
X19193Y-49213D02*
X41339D01*
X38386Y-51181D02*
X46260Y-59055D01*
X41339Y-49213D02*
X47244Y-55118D01*
X-41339Y-26083D02*
X-31988Y-16732D01*
X-50197Y-27559D02*
X-36417Y-13780D01*
X-43307Y-25591D02*
X-33465Y-15748D01*
X-47244Y-20669D02*
Y-19685D01*
X-45276Y-25098D02*
X-34941Y-14764D01*
X-55118Y-20669D02*
Y-18701D01*
X-49213Y-24114D02*
X-37894Y-12795D01*
X-55118Y-18701D02*
X-52658Y-16240D01*
X-59055Y-19685D02*
X-54626Y-15256D01*
X-52658Y-16240D02*
X-46752D01*
X-47244Y-19685D02*
X-39370Y-11811D01*
X-33465Y-15748D02*
X-23622D01*
X-54626Y-15256D02*
X-48720D01*
X-46752Y-16240D02*
X-41339Y-10827D01*
X-48720Y-15256D02*
X-42815Y-9350D01*
X-39370Y-11811D02*
Y-11811D01*
X-15748Y-19685D02*
Y-17717D01*
X-51181Y-11811D02*
X-50197D01*
X-46260Y-7874D01*
X-66929Y-11811D02*
X-62992Y-7874D01*
X-46260D02*
X-43307D01*
X-62992D02*
X-49213D01*
X-47244Y-5906D01*
X-38386D02*
X-37402Y-6890D01*
X-47244Y-5906D02*
X-38386D01*
X-15748Y-11811D02*
Y-9843D01*
X-19685Y-7874D02*
Y-5906D01*
X-9843Y-21654D02*
X-7874D01*
X-11811D02*
Y-19685D01*
X-9843D01*
X-5906Y-21654D02*
Y-17717D01*
X-13780Y-19685D02*
Y-17717D01*
X-9843Y-19685D02*
Y-17717D01*
X-7874D02*
X-5906D01*
X-13780Y-15748D02*
X-9843D01*
Y-13780D01*
X-7874D02*
X-5906D01*
X-11811D02*
Y-13780D01*
X-1969Y-19685D02*
X0D01*
X1969D02*
X3937D01*
X0D02*
X1969D01*
X-3937D02*
Y-15748D01*
X-1969Y-19685D02*
Y-15748D01*
X1969D02*
X3937D01*
X1969D02*
Y-11811D01*
X-11811Y-13780D02*
X-9843Y-11811D01*
X-5906Y-13780D02*
Y-9843D01*
X-4921Y-10827D02*
X-3937Y-11811D01*
X-11811D02*
X-9843Y-9843D01*
X-7874Y-11811D02*
Y-9843D01*
X-5906Y-7874D02*
X-4921Y-8858D01*
X-1969Y-11811D02*
X1969D01*
X-1969D02*
Y-9843D01*
X-3937D02*
X-1969D01*
X0D02*
Y-7874D01*
X-1969D02*
X0D01*
X-66929Y3937D02*
Y3937D01*
Y3937D02*
X-62992Y0D01*
X-59055Y3937D02*
X-55118Y7874D01*
X-62992Y0D02*
X-41339D01*
X-55118Y7874D02*
X-43307D01*
X-51181Y11811D02*
X-44291D01*
X-51181Y3937D02*
X-42323D01*
X-41339Y0D02*
X-35433Y-5906D01*
X-42323Y3937D02*
X-33465Y-4921D01*
X-43307Y7874D02*
X-31496Y-3937D01*
X-44291Y11811D02*
X-29528Y-2953D01*
X-45276Y15748D02*
X-27559Y-1969D01*
X-34449Y10827D02*
X-27559Y3937D01*
X-32480Y11811D02*
X-25591Y4921D01*
X-27559Y2461D02*
Y3937D01*
X-25591Y1969D02*
Y4921D01*
X-59055Y11811D02*
X-55118Y15748D01*
X-45276D01*
X-51181Y24606D02*
X-28543Y1969D01*
X-37968Y21850D02*
X-37771Y21654D01*
X-35433D01*
X-34449Y20669D01*
Y10827D02*
Y20669D01*
X-32480Y11811D02*
Y30512D01*
X-24606Y6398D02*
Y19193D01*
Y6398D02*
X-23622Y5413D01*
X-22146D01*
X-21654D01*
X-24606Y19193D02*
X-23622Y20177D01*
X-23130Y7382D02*
Y17717D01*
Y7382D02*
X-22638Y6890D01*
X-23130Y17717D02*
X-22146Y18701D01*
X-22638Y6890D02*
X-22146D01*
X-21654Y7382D01*
Y13780D01*
X-21161Y14272D01*
Y16240D02*
Y16732D01*
Y14272D02*
X-20669D01*
X-21161Y16240D02*
X-20669Y15748D01*
X-21161Y16732D02*
X-20669Y17224D01*
X-23622Y20177D02*
X-17717D01*
X-20669Y14272D02*
X-20177Y13780D01*
Y5906D02*
Y13780D01*
X-20669Y15748D02*
X-19685D01*
X-22146Y18701D02*
X-17323D01*
X-20669Y17224D02*
X-18209D01*
X-19685Y15748D02*
X-18701Y14764D01*
Y10827D02*
Y11319D01*
Y13780D02*
Y14764D01*
Y10827D02*
X-18209Y10335D01*
X-18701Y11319D02*
X-18209Y11811D01*
X-18701Y13780D02*
X-18209Y13287D01*
X-51181Y24606D02*
Y27559D01*
X-42933Y43740D02*
X-42874Y43799D01*
X-42035Y49501D02*
X-40762Y48228D01*
X-42874Y43799D02*
X-38386D01*
X-40762Y48228D02*
X-38386D01*
X-37402Y47244D01*
X-38386Y43799D02*
X-37402Y44783D01*
Y47244D01*
X-61516Y98032D02*
X-61024Y97539D01*
Y90551D02*
Y97539D01*
Y90551D02*
X-59055Y88583D01*
X-55118D01*
X-49213Y82677D01*
Y66929D02*
Y82677D01*
Y66929D02*
X-45276Y62992D01*
X-43307Y50773D02*
Y57494D01*
X-43019Y57783D01*
Y57783D01*
X-43307Y50773D02*
X-42035Y49501D01*
X-42323Y51181D02*
Y57087D01*
X-42035Y49501D02*
X-42035D01*
X-43019Y57783D02*
X-40762Y60039D01*
X-42323Y51181D02*
X-40354Y49213D01*
X-42323Y57087D02*
X-40354Y59055D01*
X-40354Y49213D02*
X-35433D01*
X-32480Y30512D02*
X-31496Y31496D01*
X-28961Y29331D02*
X-28543Y28913D01*
X-31496Y31496D02*
X-24114D01*
X-23622Y31004D01*
Y30020D02*
Y31004D01*
Y30020D02*
X-23130Y29528D01*
X-25014Y36417D02*
X-17717D01*
X-23130Y29528D02*
X-18701D01*
Y28248D02*
Y29528D01*
Y28248D02*
X-17618Y27165D01*
X-18701Y29528D02*
X-17224Y31004D01*
X-35433Y49213D02*
X-32461D01*
X-27933Y53740D01*
X-45276Y62992D02*
X-13780D01*
X-28543Y39947D02*
Y47652D01*
X-27559Y40354D02*
Y47244D01*
X-40762Y60039D02*
X-14356D01*
X-40354Y59055D02*
X-14764D01*
X-28543Y47652D02*
X-25998Y50197D01*
X-28543Y39947D02*
X-25014Y36417D01*
X-27559Y47244D02*
X-25591Y49213D01*
X-27559Y40354D02*
X-24606Y37402D01*
X-25591Y49213D02*
X-22146D01*
X-25998Y50197D02*
X-21476D01*
X-22933Y43740D02*
Y43996D01*
X-20669Y46260D01*
X-22146Y49213D02*
X-20669Y47736D01*
X-24606Y37402D02*
X-17309D01*
X-20669Y46260D02*
Y47736D01*
X-21476Y50197D02*
X-17933Y53740D01*
X-17309Y37402D02*
X-17021Y37113D01*
X-17021D01*
X-17717Y36417D02*
X-15059Y33760D01*
X-17021Y37113D02*
X-14075Y34168D01*
X-15354Y29429D02*
X-15059Y29724D01*
Y33760D01*
X-14356Y60039D02*
X-14068Y59751D01*
X-14075Y29724D02*
Y34168D01*
X-14068Y59751D02*
X-14068D01*
X-14075Y29724D02*
X-13780Y29429D01*
X-18209Y10335D02*
X-16240D01*
X-17224Y15256D02*
Y16240D01*
Y15256D02*
X-16732Y14764D01*
X-18209Y11811D02*
X-15748D01*
X-18209Y13287D02*
X-15748D01*
X-16732Y14764D02*
X-15256D01*
X-16240Y10335D02*
X-15748Y9843D01*
Y11811D02*
X-15256Y12303D01*
X-15748Y13287D02*
X-15256Y12795D01*
Y12303D02*
Y12795D01*
X-15256Y14764D02*
X-14764Y14272D01*
X-14764D01*
X-18209Y17224D02*
X-17224Y16240D01*
X-17717Y20177D02*
X-17618Y20079D01*
X-17323Y18701D02*
X-17028Y18406D01*
X-15748Y16732D02*
X-15354Y17126D01*
Y17815D01*
X-13780Y16732D02*
Y17815D01*
X-13780Y17815D01*
X-14764Y59055D02*
X-9843Y54134D01*
X-11811Y62992D02*
Y68898D01*
X-14068Y59751D02*
X-8858Y54541D01*
X-9843Y29429D02*
Y54134D01*
X-13780Y62992D02*
X-5906Y55118D01*
X-8858Y30020D02*
Y54541D01*
Y30020D02*
X-8268Y29429D01*
X-11811Y62992D02*
X-1969Y53150D01*
X-5906Y35236D02*
Y55118D01*
Y31496D02*
Y31693D01*
Y31496D02*
X-3937Y29528D01*
X-984D01*
X-1969Y35236D02*
Y53150D01*
X-984Y25591D02*
Y29528D01*
X-11811Y68898D02*
X9843Y90551D01*
X6890Y-51673D02*
X27067Y-71850D01*
X3937Y-19685D02*
X9843D01*
X3937Y-15748D02*
X5906Y-13780D01*
X9843Y-15748D02*
Y-13780D01*
X7874D02*
Y-11811D01*
X9843Y-13780D02*
Y-11811D01*
X3937D02*
X7874D01*
Y-9843D02*
Y-7874D01*
X11811Y-21654D02*
Y-17717D01*
Y-15748D02*
Y-13780D01*
X9843Y-9843D02*
X11811D01*
X9843Y-7874D02*
X11811D01*
X7874Y-1969D02*
X9843D01*
X28543Y-18701D02*
X30512Y-20669D01*
X24606Y-18701D02*
X28543D01*
X66929Y-19685D02*
Y-19685D01*
X40354Y-22638D02*
X47244Y-15748D01*
X33465Y-18701D02*
X39370D01*
X32480Y-17717D02*
X33465Y-18701D01*
X39370D02*
X42126Y-15945D01*
X47244Y-15748D02*
X62992D01*
Y-15748D01*
X42126Y-15945D02*
Y-14764D01*
X62992Y-15748D02*
X66929Y-11811D01*
X24606Y-10827D02*
X42323D01*
X24606Y-8858D02*
X41339D01*
X42323Y-10827D02*
X47244Y-5906D01*
X24606Y-6890D02*
X40354D01*
X62992Y-9843D02*
Y-1969D01*
X47244Y-5906D02*
X49213D01*
X24606Y-4921D02*
X39370D01*
X49213Y-5906D02*
X51181Y-3937D01*
X41339Y-8858D02*
X50197Y0D01*
X40354Y-6890D02*
X47244Y0D01*
X24606Y-2953D02*
X38386D01*
X39370Y-4921D02*
X45276Y984D01*
X24606Y-984D02*
X37402D01*
X38386Y-2953D02*
X43307Y1969D01*
X50197Y0D02*
X62992D01*
X24606Y984D02*
X28543D01*
X37402Y-984D02*
X41339Y2953D01*
X28543Y984D02*
X29528Y1969D01*
X62992Y0D02*
X66929Y3937D01*
X29528Y1969D02*
Y4921D01*
X47244Y0D02*
Y7874D01*
X66929Y3937D02*
Y3937D01*
X3937Y14764D02*
X4429Y14272D01*
Y12303D02*
Y14272D01*
Y12303D02*
X4921Y11811D01*
X5413D01*
X5906Y12303D01*
Y13780D01*
X6890Y14764D01*
X6890Y10335D02*
X7382Y10827D01*
Y12303D01*
X7874Y12795D01*
X8366D01*
X8858Y12303D01*
X8858D01*
Y10827D02*
Y12303D01*
Y10827D02*
X9350Y10335D01*
X9843D01*
X6890Y14764D02*
X12795D01*
X9843Y10335D02*
X10335Y10827D01*
Y12795D01*
X10827Y13287D01*
X11319Y8858D02*
X12303Y9843D01*
X10827Y13287D02*
X13780D01*
X12303Y9843D02*
Y10827D01*
X13287Y7382D02*
X15748Y9843D01*
X13780Y13287D02*
X16732Y16240D01*
X15748Y9843D02*
Y13287D01*
X16240Y13780D01*
X16732D01*
X3445Y17717D02*
X5906D01*
X4921Y19685D02*
X5610D01*
X6004Y20079D01*
X5906Y17717D02*
X6594Y18406D01*
X7382Y16240D02*
X8268Y17126D01*
Y17815D01*
X9843Y16240D02*
Y17815D01*
X11811D02*
Y23622D01*
Y17224D02*
Y17815D01*
X12795Y14764D02*
X15256Y17224D01*
Y17717D01*
X15354Y17815D01*
X16732Y16240D02*
Y18110D01*
Y13780D02*
X17224Y13287D01*
X14272Y5906D02*
X20177Y11811D01*
X17224Y13287D02*
X17717D01*
Y13287D01*
X18701Y14272D01*
X18701D01*
Y19685D01*
Y4921D02*
X19685Y5906D01*
X16732Y4921D02*
X22638Y10827D01*
X20177Y11811D02*
Y20177D01*
X19685Y5906D02*
X22638D01*
Y10827D02*
Y12008D01*
Y5906D02*
X24606Y7874D01*
Y18898D01*
X29528Y11811D02*
Y14961D01*
X26575Y7874D02*
X35433D01*
X36417Y6890D01*
X16732Y18110D02*
X17028Y18406D01*
X17618Y20079D02*
X18307D01*
X17618Y21654D02*
X18701D01*
X18307Y20079D02*
X18701Y19685D01*
X18701Y21654D02*
X20177Y20177D01*
X17618Y25591D02*
X22638D01*
Y15551D02*
Y23622D01*
X23622Y24606D01*
X24606Y22441D02*
Y28543D01*
X28740Y23622D02*
X33465D01*
X35433Y25591D01*
X8268Y29429D02*
X8563Y29724D01*
Y31412D01*
X9547Y29724D02*
Y31004D01*
Y29724D02*
X9843Y29429D01*
X13780D02*
X14075Y29724D01*
Y31004D01*
X15059Y29724D02*
Y31412D01*
Y29724D02*
X15354Y29429D01*
X15748Y32480D02*
X18701Y29528D01*
X8563Y31412D02*
X8858Y31707D01*
Y57494D01*
X9350Y98032D02*
X9843Y97539D01*
X9547Y31004D02*
X9843Y31299D01*
Y34941D01*
Y57087D01*
X9843Y90551D02*
Y97539D01*
X8858Y57494D02*
X15340Y63976D01*
X9843Y57087D02*
X15748Y62992D01*
X12795Y32283D02*
Y55526D01*
Y32283D02*
X14075Y31004D01*
X13780Y32691D02*
Y55118D01*
Y32691D02*
X15059Y31412D01*
X12795Y55526D02*
X17021Y59751D01*
X15748Y32480D02*
Y35433D01*
X13780Y55118D02*
X17717Y59055D01*
X17021Y59751D02*
X17021D01*
X17309Y60039D01*
X18701Y29528D02*
X21654D01*
X22638Y28543D01*
X22638D01*
Y25591D02*
Y28543D01*
Y30512D02*
X23622Y29528D01*
Y24606D02*
Y29528D01*
X24606Y28543D02*
X26575Y30512D01*
Y37402D01*
X35433Y25591D02*
X35630D01*
X17717Y51181D02*
X22638Y46260D01*
X17309Y60039D02*
X24030D01*
X17717Y59055D02*
X23622D01*
X22638Y30512D02*
Y46260D01*
X23622Y59055D02*
X27559Y55118D01*
X24030Y60039D02*
X28543Y55526D01*
X27559Y51758D02*
Y55118D01*
X26575Y37402D02*
X28543Y39370D01*
X28543Y52165D02*
Y55526D01*
X27559Y51758D02*
X31088Y48228D01*
X27933Y43740D02*
X31929D01*
X28543Y52165D02*
X31496Y49213D01*
X15748Y62992D02*
X45276D01*
X15340Y63976D02*
X45683D01*
X31088Y48228D02*
X33465D01*
X31929Y43740D02*
X34449Y46260D01*
X33465Y48228D02*
X34449Y47244D01*
Y46260D02*
Y47244D01*
X31496Y49213D02*
X38405D01*
X43307Y12795D02*
X47244Y16732D01*
X36417Y11811D02*
Y14961D01*
X41339Y2953D02*
Y13780D01*
X45276Y11319D02*
X49213Y15256D01*
X36417Y4921D02*
Y6890D01*
X45276Y984D02*
Y11319D01*
X49213Y15256D02*
X52658D01*
X47244Y7874D02*
X51181Y11811D01*
X43307Y1969D02*
Y12795D01*
X41339Y13780D02*
X45768Y18209D01*
X42520Y21654D02*
X44291Y23425D01*
Y27559D01*
X46259Y29527D01*
X47244Y16732D02*
X54134D01*
X51181Y3937D02*
X55118Y7874D01*
Y12795D01*
X52658Y15256D02*
X55118Y12795D01*
X54134Y16732D02*
X59055Y11811D01*
X60532Y18209D02*
X66929Y11811D01*
X45768Y18209D02*
X60532D01*
X50394Y23622D02*
X55315D01*
X55315Y23622D02*
X56102D01*
X57284Y24803D01*
X64173Y21654D02*
Y21850D01*
X65945Y23622D01*
Y27559D01*
X67913Y29527D01*
X46259Y29527D02*
X47205D01*
X28543Y39370D02*
X50197D01*
X38405Y49213D02*
X42933Y53740D01*
X45276Y62992D02*
X47244Y61024D01*
X45683Y63976D02*
X48228Y61431D01*
X47205Y33465D02*
X47244Y33505D01*
Y35433D01*
Y44429D02*
Y61024D01*
Y35433D02*
X47244D01*
X47244Y44429D02*
X47933Y43740D01*
X47244Y35433D02*
X48228Y36417D01*
X48228Y55118D02*
Y61431D01*
Y55118D02*
X48228D01*
X49606Y53740D01*
X49213Y69882D02*
Y82677D01*
X49606Y53740D02*
X50787D01*
X67913Y29527D02*
X68858D01*
X48228Y36417D02*
X54134D01*
X50787Y53740D02*
X52933D01*
X49213Y82677D02*
X55118Y88583D01*
X49213Y69882D02*
X57087Y62008D01*
X50197Y39370D02*
X57087Y46260D01*
X54134Y36417D02*
X55118Y35433D01*
Y33465D02*
Y35433D01*
X57087Y46260D02*
Y62008D01*
X55118Y88583D02*
X59055D01*
X61024Y90551D01*
Y97539D01*
X61516Y98032D01*
X-12795Y-59055D02*
X-12303D01*
X-12795D02*
Y-59055D01*
X-17717Y-58563D02*
X-16732Y-59547D01*
X-12303Y-59055D02*
X-11811Y-58563D01*
X-8858D02*
X-8366Y-59055D01*
X-13287Y-58563D02*
X-12795Y-59055D01*
X-8858Y-58563D02*
Y-58071D01*
X-15748D02*
X-15256D01*
X-16240Y-57579D02*
X-15748Y-58071D01*
X-15256D02*
X-14764Y-57579D01*
X-8858Y-58071D02*
X-8366Y-57579D01*
X-10335Y-60039D02*
Y-52165D01*
X-8858Y-55610D02*
X-8366Y-56102D01*
X-8858Y-55610D02*
X-8858D01*
X-13287Y-58563D02*
Y-52165D01*
X-11811Y-58563D02*
Y-52165D01*
X-20177Y-70374D02*
X-8366D01*
X0Y-94488D02*
Y-74803D01*
X-21654Y-94488D02*
X1969Y-70866D01*
X-7874Y-73819D02*
X-2953D01*
X-7874D02*
Y-73819D01*
X-8366Y-73327D02*
X-7874Y-73819D01*
X-2953Y-73819D02*
X-1969Y-72835D01*
X0Y-74803D02*
X2953Y-71850D01*
X-8366Y-73327D02*
Y-72835D01*
X-1969D02*
X-1969D01*
X-8366D02*
X-7874Y-72342D01*
Y-72342D01*
X1969Y-70866D02*
Y-61516D01*
X-1969Y-72835D02*
Y-61516D01*
X22047Y-75800D02*
Y-74213D01*
X20472Y-75800D02*
Y-75098D01*
X16732Y-78937D02*
X16929Y-78740D01*
X16732Y-82480D02*
X17532Y-81681D01*
X16929Y-78740D02*
X20082D01*
X-8661Y-64764D02*
X-8366Y-64468D01*
X-15256Y-66929D02*
Y-61516D01*
X-8366Y-64468D02*
Y-61024D01*
X-15263Y-61516D02*
X-15256D01*
X-15756Y-61024D02*
X-15263Y-61516D01*
X-12303Y-60532D02*
X-10827Y-62008D01*
X-17717Y-61024D02*
X-15756D01*
X-8858Y-60532D02*
X-8366Y-61024D01*
X-9843Y-60532D02*
X-8858D01*
X-14272Y-60532D02*
X-12303D01*
X-10335Y-60039D02*
X-9843Y-60532D01*
X-15256Y-59547D02*
X-14272Y-60532D01*
X-16732Y-59547D02*
X-15256D01*
X21654Y-62992D02*
X24606D01*
X4921Y-54626D02*
X23622Y-73327D01*
X21654Y-62992D02*
Y-62992D01*
X5906Y-53150D02*
X25197Y-72441D01*
X19685Y-61024D02*
X21654Y-62992D01*
X-3937Y-60039D02*
X-2953Y-61024D01*
X1969Y-59547D02*
X2953Y-60532D01*
X-5413Y-60039D02*
Y-59547D01*
X-5906Y-59055D02*
X-5413Y-59547D01*
X-8366Y-59055D02*
X-5906D01*
X16732D02*
X26575D01*
X-8366Y-57579D02*
X-5906D01*
X-3937Y-60039D02*
Y-55118D01*
X-5906Y-57579D02*
Y-57579D01*
X-5413Y-57087D01*
Y-56595D01*
X-5906Y-56102D02*
X-5413Y-56595D01*
X-5906Y-56102D02*
Y-56102D01*
X-8366D02*
X-5906D01*
X-8366Y-70374D02*
X-6398Y-68405D01*
X-18701Y-68898D02*
X-11811D01*
X-10827Y-67913D01*
X-4921Y-69882D02*
Y-65354D01*
X-14764Y-67421D02*
X-13287D01*
X-15256Y-66929D02*
X-14764Y-67421D01*
X-12992Y-66142D02*
Y-64764D01*
X-4921Y-65354D02*
X-4331Y-64764D01*
X-10827Y-67913D02*
Y-62008D01*
X-7382Y-72342D02*
X-4921Y-69882D01*
X-7874Y-72342D02*
X-7382D01*
X-6398Y-68405D02*
Y-61024D01*
X-2461D02*
X-1969Y-61516D01*
X984Y-60532D02*
X1969Y-61516D01*
X-6398Y-61024D02*
X-6398D01*
X-2953D02*
X-2461D01*
X-6398D02*
X-5413Y-60039D01*
X2953Y-71850D02*
Y-60532D01*
Y-57579D02*
X20472Y-75098D01*
X3937Y-56102D02*
X22047Y-74213D01*
X9843Y-23622D02*
Y-21654D01*
X11811Y-44291D02*
Y-43307D01*
X7874Y-50197D02*
X16732Y-59055D01*
X8858Y-48720D02*
X17224Y-57087D01*
X13780Y-43799D02*
Y-43307D01*
X9843Y-47244D02*
X17717Y-55118D01*
X10827Y-45768D02*
X18209Y-53150D01*
X11811Y-44291D02*
X18701Y-51181D01*
X13780Y-43799D02*
X19193Y-49213D01*
X15748Y-43307D02*
X19685Y-47244D01*
X7874Y-37402D02*
X9843Y-37402D01*
X7874Y-35433D02*
X9843D01*
X11811Y-39370D02*
X13780D01*
X24606Y-40354D02*
X25591D01*
X5906Y-31496D02*
X5906D01*
X7874Y-29528D01*
X9843Y-33465D02*
Y-29528D01*
X29528Y-28740D02*
X29724Y-28543D01*
X17224Y-57087D02*
X29528D01*
X-11811Y1969D02*
Y1969D01*
X-8858Y4921D02*
X-7874Y5906D01*
X-14764Y14272D02*
X-14272Y13780D01*
X-13287D01*
X-14764Y10335D02*
X-11811Y13287D01*
X-13287Y13780D02*
X-12795Y14272D01*
X-13287Y16240D02*
X-12795Y15748D01*
Y14272D02*
Y15256D01*
Y15748D01*
X-13780Y9350D02*
X-11319Y11811D01*
X-12795Y8366D02*
X-10827Y10335D01*
X-11811Y7382D02*
X-10335Y8858D01*
X-10827Y6398D02*
X-9843Y7382D01*
X-7874D01*
X-9350Y15256D02*
X-8268Y16339D01*
X-7874Y1969D02*
Y1969D01*
X-11811Y13287D02*
X-4429D01*
X-7874Y7382D02*
X-7874Y7382D01*
X-11319Y11811D02*
X-492D01*
X-4429Y13287D02*
X-2953Y14764D01*
X-10827Y10335D02*
X6890D01*
X-492Y11811D02*
X0Y12303D01*
Y13287D01*
X492Y13780D01*
X-10335Y8858D02*
X11319D01*
X492Y13780D02*
X984D01*
X1476Y13287D01*
Y12303D02*
Y13287D01*
Y12303D02*
X1969Y11811D01*
Y11811D02*
Y11811D01*
Y11811D02*
X2461D01*
X-7874Y7382D02*
X13287D01*
X2461Y11811D02*
X2953Y12303D01*
Y14272D01*
X-7874Y5906D02*
X14272D01*
X2953Y14272D02*
X3445Y14764D01*
X3937D01*
X-13780Y16732D02*
X-13780D01*
X-13287Y16240D01*
Y16240D02*
Y16240D01*
X-11811Y17815D02*
Y23622D01*
X-8268Y16339D02*
Y17815D01*
X-6594Y18406D02*
X-6398Y18209D01*
Y18209D02*
Y18209D01*
X-6004Y21654D02*
X-6004Y21654D01*
X-6004Y20079D02*
X-4823D01*
X-6004Y21654D02*
X-4429D01*
X-4823Y20079D02*
X-2953Y18209D01*
X-6004Y25591D02*
X-984D01*
X-2953Y14764D02*
Y18209D01*
D58*
X-41831Y25787D02*
X-41634Y25591D01*
X-41831Y29331D02*
X-41831Y29331D01*
X42520Y25591D02*
Y29527D01*
X64173Y25591D02*
Y29527D01*
X41378Y29527D02*
X42520D01*
X43307D01*
Y29528D01*
X41378Y33465D02*
X43307D01*
X64173Y29527D02*
X64961D01*
X63032D02*
X64173D01*
X64961D02*
Y29528D01*
X63032Y33465D02*
X65000D01*
D59*
X28740Y23622D02*
Y25591D01*
Y21654D02*
Y23622D01*
Y25591D02*
Y30709D01*
X29528Y31496D01*
X50394Y21654D02*
Y23622D01*
Y30709D01*
X51181Y31496D01*
D60*
X4921Y28248D02*
Y29528D01*
Y28248D02*
X6004Y27165D01*
X4921Y29528D02*
X6398Y31004D01*
D61*
X41378Y33465D02*
Y33465D01*
D62*
X25591Y-37402D02*
D03*
X30512Y-79724D02*
D03*
X12480Y-95276D02*
D03*
X3937Y-82677D02*
D03*
X16732Y-78740D02*
D03*
X27559Y-82677D02*
D03*
X16732D02*
D03*
X29528Y-73819D02*
D03*
X-1969Y-54134D02*
D03*
X19685Y-43307D02*
D03*
X23622D02*
D03*
X13780Y-41339D02*
D03*
X17717D02*
D03*
X15748Y-39370D02*
D03*
X7874D02*
D03*
X11811D02*
D03*
X21654D02*
D03*
X5906Y-37402D02*
D03*
X9843Y-37402D02*
D03*
X30315Y-37205D02*
D03*
X7874Y-35433D02*
D03*
X0D02*
D03*
X3937Y-33465D02*
D03*
X5906Y-31496D02*
D03*
X38583Y-43504D02*
D03*
X11811Y-31496D02*
D03*
X9843Y-29528D02*
D03*
X29528Y-28543D02*
D03*
X11811Y-27559D02*
D03*
Y-25591D02*
D03*
X9843Y-23622D02*
D03*
X11811Y-21654D02*
D03*
X30512Y-20669D02*
D03*
X28051D02*
D03*
X25591D02*
D03*
X9843Y-19685D02*
D03*
X32480Y-17717D02*
D03*
X11811Y-15748D02*
D03*
X28543Y-14764D02*
D03*
X9843Y-13780D02*
D03*
X62992Y-9843D02*
D03*
X11811D02*
D03*
X9843Y-7874D02*
D03*
X17717Y-3937D02*
D03*
X62992Y-1969D02*
D03*
X37402Y-82677D02*
D03*
X0Y-65945D02*
D03*
X22146Y-61024D02*
D03*
X24606D02*
D03*
X19685D02*
D03*
X-37968Y21850D02*
D03*
Y25591D02*
D03*
X-34449Y27559D02*
D03*
X-30315Y17717D02*
D03*
X-28961Y21850D02*
D03*
X-26772Y17717D02*
D03*
X3445Y17717D02*
D03*
X-9843Y0D02*
D03*
X-5906D02*
D03*
X1969Y1969D02*
D03*
X7874D02*
D03*
X-23622Y3937D02*
D03*
X1969D02*
D03*
X-5906D02*
D03*
X-17717Y5906D02*
D03*
Y8366D02*
D03*
X-12795Y15256D02*
D03*
X-9350D02*
D03*
X-15748Y16732D02*
D03*
X-6890Y15748D02*
D03*
X7382Y16240D02*
D03*
X-6398Y18209D02*
D03*
X1476Y19193D02*
D03*
X4921Y19685D02*
D03*
X-2461Y20177D02*
D03*
X-13780Y21654D02*
D03*
X-9843D02*
D03*
X-4429D02*
D03*
X-23917Y22146D02*
D03*
X-20374D02*
D03*
X3248D02*
D03*
X-295D02*
D03*
X-2953Y23819D02*
D03*
X-13780Y25591D02*
D03*
X-9843D02*
D03*
X-25591Y27559D02*
D03*
X-2953D02*
D03*
X-43307Y98425D02*
D03*
X-53150Y70866D02*
D03*
X-42126Y35433D02*
D03*
X-40354Y92520D02*
D03*
Y88583D02*
D03*
X-38583Y35433D02*
D03*
X-38386Y92520D02*
D03*
X-37968Y29331D02*
D03*
X6398Y31004D02*
D03*
X-17224D02*
D03*
X-1969Y31693D02*
D03*
X2461Y32185D02*
D03*
X-21161D02*
D03*
X-25591Y33268D02*
D03*
X-17224Y33465D02*
D03*
X6398D02*
D03*
X-34252Y35433D02*
D03*
X-30709D02*
D03*
X0Y84842D02*
D03*
X-38386Y88583D02*
D03*
X-36417D02*
D03*
X-34449D02*
D03*
X-32480D02*
D03*
X-30512D02*
D03*
X-36417Y92520D02*
D03*
X-34449D02*
D03*
X-32480D02*
D03*
X-30512D02*
D03*
X0Y98425D02*
D03*
X9843Y-1969D02*
D03*
Y25591D02*
D03*
Y16240D02*
D03*
Y21654D02*
D03*
Y3937D02*
D03*
X11811Y17224D02*
D03*
X12303Y10827D02*
D03*
X13780Y21654D02*
D03*
Y25591D02*
D03*
X14272Y11811D02*
D03*
X19685Y0D02*
D03*
X20669Y27559D02*
D03*
Y23819D02*
D03*
X23622Y2953D02*
D03*
X28543Y28543D02*
D03*
X28740Y25591D02*
D03*
X36417Y18504D02*
D03*
X29528Y18504D02*
D03*
X67716Y21654D02*
D03*
X53937D02*
D03*
X57284D02*
D03*
X50394D02*
D03*
X28740Y21654D02*
D03*
X32283D02*
D03*
X35630D02*
D03*
X46063D02*
D03*
X53937Y25591D02*
D03*
X60827D02*
D03*
X57284D02*
D03*
X50394D02*
D03*
X67716Y25591D02*
D03*
X32283Y25591D02*
D03*
X35630D02*
D03*
X39173D02*
D03*
X46063D02*
D03*
X50197Y28543D02*
D03*
X52165D02*
D03*
X30512Y28543D02*
D03*
X63032Y29527D02*
D03*
X41378Y29527D02*
D03*
X47244Y29528D02*
D03*
X43307Y29528D02*
D03*
X28543Y31496D02*
D03*
X30512D02*
D03*
X19685Y31693D02*
D03*
X24606D02*
D03*
X41378Y33465D02*
D03*
X30512Y34449D02*
D03*
X28543D02*
D03*
X24606Y35236D02*
D03*
X19685D02*
D03*
X15748Y35433D02*
D03*
X17717Y51181D02*
D03*
X30512Y88583D02*
D03*
X32480D02*
D03*
X34449D02*
D03*
X36417D02*
D03*
X38386D02*
D03*
X40354D02*
D03*
X34449Y92520D02*
D03*
X30512D02*
D03*
X32480D02*
D03*
X36417D02*
D03*
X38386D02*
D03*
X40354D02*
D03*
X64961Y29528D02*
D03*
X50197Y31496D02*
D03*
X52165D02*
D03*
X66929D02*
D03*
X45276Y31496D02*
D03*
X55118Y33465D02*
D03*
X68898D02*
D03*
X43307Y33465D02*
D03*
X63032Y33465D02*
D03*
X65000D02*
D03*
X50197Y34449D02*
D03*
X52165D02*
D03*
X43307Y98425D02*
D03*
X-55118Y-37402D02*
D03*
X-44291Y-100394D02*
D03*
X-62724Y-94220D02*
D03*
X-46976Y-86883D02*
D03*
X-62992Y-70866D02*
D03*
X-17224Y-64961D02*
D03*
X-34646Y-64764D02*
D03*
X-30315D02*
D03*
X-25984D02*
D03*
X-21654D02*
D03*
X-8661D02*
D03*
X-4331D02*
D03*
X-32480Y-57087D02*
D03*
X-1969D02*
D03*
X-23056Y-56890D02*
D03*
X-32480Y-53150D02*
D03*
X-4921D02*
D03*
X-29528Y-51181D02*
D03*
X-23056Y-49409D02*
D03*
X-6890Y-48228D02*
D03*
X-11811Y-47244D02*
D03*
X-9350D02*
D03*
X-23622Y-45276D02*
D03*
Y-43307D02*
D03*
X-11811D02*
D03*
X-23622Y-41339D02*
D03*
X-1969D02*
D03*
X-5906D02*
D03*
X-19193Y-39370D02*
D03*
X-11811D02*
D03*
X-1969Y-37402D02*
D03*
X-9843Y-37402D02*
D03*
X-15748Y-33465D02*
D03*
X-7874D02*
D03*
X-5906Y-31496D02*
D03*
X-17717D02*
D03*
Y-25591D02*
D03*
X-19685Y-23622D02*
D03*
X-15748D02*
D03*
X-17717Y-21654D02*
D03*
X-13780D02*
D03*
X-19685Y-19685D02*
D03*
X-15748D02*
D03*
X-17717Y-17717D02*
D03*
X-15748Y-15748D02*
D03*
X-19685D02*
D03*
X-17717Y-13780D02*
D03*
X-20177Y-12795D02*
D03*
X-15748Y-11811D02*
D03*
X-17717Y-9843D02*
D03*
X-15748Y-7874D02*
D03*
X-19685D02*
D03*
X-17717Y-5906D02*
D03*
X-15748Y-3937D02*
D03*
X-19685D02*
D03*
X-3937Y-31496D02*
D03*
X-11811D02*
D03*
X-13780Y-29528D02*
D03*
X-7874Y-27559D02*
D03*
X-13780Y-25591D02*
D03*
X-3937D02*
D03*
X-1969Y-23622D02*
D03*
X-5906D02*
D03*
X-7874Y-21654D02*
D03*
X-9843Y-19685D02*
D03*
X-1969D02*
D03*
X-13780Y-17717D02*
D03*
X-5906D02*
D03*
X-7874D02*
D03*
X-9843Y-15748D02*
D03*
X-3937D02*
D03*
X-11811Y-13780D02*
D03*
X-5906D02*
D03*
X-1969D02*
D03*
X-7874Y-11811D02*
D03*
X-3937D02*
D03*
X-13780Y-9843D02*
D03*
X-9843D02*
D03*
X-1969D02*
D03*
X-5906Y-7874D02*
D03*
X-11811D02*
D03*
X-13780Y-5906D02*
D03*
X-1969D02*
D03*
X-9843D02*
D03*
X-7874Y-4429D02*
D03*
X-5906Y-3937D02*
D03*
X-7874Y-1969D02*
D03*
X0Y-31496D02*
D03*
Y-29528D02*
D03*
X-1969Y-27559D02*
D03*
X1969D02*
D03*
X5906D02*
D03*
X0Y-25591D02*
D03*
X5906D02*
D03*
X7874D02*
D03*
X3937Y-23622D02*
D03*
X0Y-21654D02*
D03*
X7874D02*
D03*
X5906D02*
D03*
X1969Y-19685D02*
D03*
X3937D02*
D03*
X0Y-17717D02*
D03*
X7874D02*
D03*
X5906D02*
D03*
X0Y-15748D02*
D03*
X3937D02*
D03*
X0Y-13780D02*
D03*
X5906D02*
D03*
X1969Y-11811D02*
D03*
X7874D02*
D03*
X3937Y-9843D02*
D03*
X5906D02*
D03*
X1969Y-7874D02*
D03*
X0D02*
D03*
X7874D02*
D03*
X5906D02*
D03*
X0Y-5906D02*
D03*
X3937D02*
D03*
Y-3937D02*
D03*
M02*
