G04*
G04 #@! TF.GenerationSoftware,Altium Limited,Altium Designer,24.5.2 (23)*
G04*
G04 Layer_Color=14277081*
%FSLAX25Y25*%
%MOIN*%
G70*
G04*
G04 #@! TF.SameCoordinates,F4A5412D-A3CB-4EBA-8484-A3087A641F87*
G04*
G04*
G04 #@! TF.FilePolarity,Negative*
G04*
G01*
G75*
%ADD36R,0.02362X0.01968*%
%ADD39R,0.01968X0.02362*%
%ADD47R,0.03543X0.05512*%
%ADD50C,0.04921*%
%ADD51R,0.05906X0.05906*%
%ADD52C,0.02756*%
%ADD53C,0.10354*%
%ADD54R,0.07874X0.11811*%
%ADD55C,0.05906*%
%ADD70R,0.01968X0.01968*%
G04:AMPARAMS|DCode=71|XSize=19.68mil|YSize=23.62mil|CornerRadius=0mil|HoleSize=0mil|Usage=FLASHONLY|Rotation=45.000|XOffset=0mil|YOffset=0mil|HoleType=Round|Shape=Rectangle|*
%AMROTATEDRECTD71*
4,1,4,0.00139,-0.01531,-0.01531,0.00139,-0.00139,0.01531,0.01531,-0.00139,0.00139,-0.01531,0.0*
%
%ADD71ROTATEDRECTD71*%

G04:AMPARAMS|DCode=72|XSize=19.68mil|YSize=23.62mil|CornerRadius=0mil|HoleSize=0mil|Usage=FLASHONLY|Rotation=315.000|XOffset=0mil|YOffset=0mil|HoleType=Round|Shape=Rectangle|*
%AMROTATEDRECTD72*
4,1,4,-0.01531,-0.00139,0.00139,0.01531,0.01531,0.00139,-0.00139,-0.01531,-0.01531,-0.00139,0.0*
%
%ADD72ROTATEDRECTD72*%

D36*
X-59055Y-76968D02*
D03*
Y-80512D02*
D03*
X-34646Y-64764D02*
D03*
Y-68307D02*
D03*
X-30315Y-64764D02*
D03*
Y-68307D02*
D03*
X-25984Y-64764D02*
D03*
Y-68307D02*
D03*
X-21654Y-64764D02*
D03*
Y-68307D02*
D03*
X-59055Y-53347D02*
D03*
Y-56890D02*
D03*
Y-49016D02*
D03*
Y-45472D02*
D03*
Y-29724D02*
D03*
Y-33268D02*
D03*
X-14764Y-34252D02*
D03*
Y-30709D02*
D03*
X-8858Y-34252D02*
D03*
Y-30709D02*
D03*
X-40354Y88779D02*
D03*
Y92323D02*
D03*
X-38386Y88779D02*
D03*
Y92323D02*
D03*
X-36417Y88779D02*
D03*
Y92323D02*
D03*
X-34449Y88779D02*
D03*
Y92323D02*
D03*
X-32480Y88779D02*
D03*
Y92323D02*
D03*
X-30512Y88779D02*
D03*
Y92323D02*
D03*
X-4921Y-22835D02*
D03*
Y-26378D02*
D03*
X-10827Y-19882D02*
D03*
Y-23425D02*
D03*
X-6890Y-18504D02*
D03*
Y-14961D02*
D03*
X-2953Y-19488D02*
D03*
Y-15945D02*
D03*
X4921Y-11024D02*
D03*
Y-14567D02*
D03*
X1181Y-10630D02*
D03*
Y-7087D02*
D03*
X-1181D02*
D03*
Y-10630D02*
D03*
X10827Y-18898D02*
D03*
Y-22441D02*
D03*
X8858Y-7087D02*
D03*
Y-10630D02*
D03*
X12795D02*
D03*
Y-7087D02*
D03*
X-4921Y60827D02*
D03*
Y57284D02*
D03*
X4921Y60827D02*
D03*
Y57284D02*
D03*
X30512Y88779D02*
D03*
Y92323D02*
D03*
X34449Y88779D02*
D03*
Y92323D02*
D03*
X32480Y88779D02*
D03*
Y92323D02*
D03*
X36417Y88779D02*
D03*
Y92323D02*
D03*
X38386Y88779D02*
D03*
Y92323D02*
D03*
X40354Y88779D02*
D03*
Y92323D02*
D03*
X-8661Y-64764D02*
D03*
Y-68307D02*
D03*
X-12992D02*
D03*
Y-64764D02*
D03*
X-4331D02*
D03*
Y-68307D02*
D03*
D39*
X-61221Y-90551D02*
D03*
X-64764D02*
D03*
X-61221Y-51181D02*
D03*
X-64764D02*
D03*
X-984Y-31693D02*
D03*
X-4528D02*
D03*
X984D02*
D03*
X4528D02*
D03*
X9055Y-32480D02*
D03*
X12598D02*
D03*
X-61221Y-27559D02*
D03*
X-64764D02*
D03*
X-56890D02*
D03*
X-53347D02*
D03*
X-31299Y98425D02*
D03*
X-27756D02*
D03*
X-8071Y-27559D02*
D03*
X-11614D02*
D03*
X5709D02*
D03*
X2165D02*
D03*
X3150Y-23622D02*
D03*
X6693D02*
D03*
Y-19685D02*
D03*
X3150D02*
D03*
X-12598Y-14764D02*
D03*
X-9055D02*
D03*
X-10630Y-10827D02*
D03*
X-7087D02*
D03*
X-6693Y-6890D02*
D03*
X-3150D02*
D03*
X12598Y-28543D02*
D03*
X9055D02*
D03*
Y-14764D02*
D03*
X12598D02*
D03*
X27756Y98425D02*
D03*
X31299D02*
D03*
D47*
X-43307D02*
D03*
X-35433D02*
D03*
X43307D02*
D03*
X35433D02*
D03*
D50*
Y-90551D02*
D03*
X66929Y-98425D02*
D03*
X51181D02*
D03*
X59055D02*
D03*
X66929Y-74803D02*
D03*
X51181Y-90551D02*
D03*
X59055D02*
D03*
X66929D02*
D03*
X51181Y-82677D02*
D03*
X59055D02*
D03*
X66929D02*
D03*
X51181Y-74803D02*
D03*
X59055D02*
D03*
X19685Y-90551D02*
D03*
Y-98425D02*
D03*
X27559Y-90551D02*
D03*
Y-98425D02*
D03*
X51181Y-66929D02*
D03*
X59055D02*
D03*
X66929D02*
D03*
X51181Y-59055D02*
D03*
X59055D02*
D03*
X66929D02*
D03*
X51181Y-51181D02*
D03*
X59055D02*
D03*
X66929D02*
D03*
X51181Y-43307D02*
D03*
X59055D02*
D03*
X66929D02*
D03*
X51181Y-35433D02*
D03*
X59055D02*
D03*
X66929D02*
D03*
Y-27559D02*
D03*
X59055D02*
D03*
X51181D02*
D03*
X66929Y-19685D02*
D03*
X59055D02*
D03*
X51181D02*
D03*
Y-11811D02*
D03*
X59055D02*
D03*
X66929D02*
D03*
X59055Y-3937D02*
D03*
X66929D02*
D03*
X51181D02*
D03*
X35433Y-98425D02*
D03*
X43307Y-98425D02*
D03*
Y-90551D02*
D03*
X-66929Y3937D02*
D03*
Y11811D02*
D03*
Y19685D02*
D03*
X-59055Y27559D02*
D03*
Y3937D02*
D03*
Y11811D02*
D03*
Y19685D02*
D03*
X-51181D02*
D03*
Y11811D02*
D03*
Y3937D02*
D03*
X-66929Y27559D02*
D03*
X-51181D02*
D03*
X59055Y3937D02*
D03*
X51181D02*
D03*
X66929D02*
D03*
X59055Y11811D02*
D03*
X51181D02*
D03*
X66929D02*
D03*
X-66929Y-66929D02*
D03*
X-59055D02*
D03*
X-51181D02*
D03*
X-66929Y-59055D02*
D03*
X-59055D02*
D03*
X-51181D02*
D03*
X-66929Y-51181D02*
D03*
X-59055D02*
D03*
X-51181D02*
D03*
X-66929Y-43307D02*
D03*
X-59055D02*
D03*
X-51181D02*
D03*
X-66929Y-35433D02*
D03*
X-59055D02*
D03*
X-51181D02*
D03*
X-66929Y-98425D02*
D03*
X-59055D02*
D03*
X-51181D02*
D03*
X-66929Y-90551D02*
D03*
X-59055D02*
D03*
X-51181D02*
D03*
X-66929Y-82677D02*
D03*
X-59055D02*
D03*
X-51181D02*
D03*
X-66929Y-74803D02*
D03*
X-59055D02*
D03*
X-51181D02*
D03*
X-59055Y-27559D02*
D03*
X-66929D02*
D03*
X-51181D02*
D03*
Y-19685D02*
D03*
X-59055D02*
D03*
X-66929D02*
D03*
X-59055Y-11811D02*
D03*
X-51181D02*
D03*
X-66929D02*
D03*
Y-3937D02*
D03*
X-59055D02*
D03*
X-51181D02*
D03*
D51*
X0Y-94488D02*
D03*
X-31496D02*
D03*
D52*
X-35433Y-76772D02*
D03*
X3937D02*
D03*
D53*
X-4941Y66732D02*
D03*
X4941D02*
D03*
D54*
X-65925D02*
D03*
X65925D02*
D03*
D55*
X-61516Y98032D02*
D03*
X-19350D02*
D03*
X-51516D02*
D03*
X-9350D02*
D03*
X-22933Y43740D02*
D03*
X-17933Y53740D02*
D03*
X-27933D02*
D03*
X-32933Y43740D02*
D03*
X-37933Y53740D02*
D03*
X-42933Y43740D02*
D03*
X-47933Y53740D02*
D03*
X-52933Y43740D02*
D03*
X9350Y98032D02*
D03*
X51516D02*
D03*
X19350D02*
D03*
X61516D02*
D03*
X47933Y43740D02*
D03*
X52933Y53740D02*
D03*
X42933D02*
D03*
X37933Y43740D02*
D03*
X32933Y53740D02*
D03*
X27933Y43740D02*
D03*
X22933Y53740D02*
D03*
X17933Y43740D02*
D03*
D70*
X-18701Y-31496D02*
D03*
X25591Y-37402D02*
D03*
D71*
X-65229Y-96725D02*
D03*
X-62724Y-94220D02*
D03*
X-52881Y-68629D02*
D03*
X-55387Y-71135D02*
D03*
X-61739Y-30243D02*
D03*
X-64245Y-32749D02*
D03*
X-56371Y-48497D02*
D03*
X-53865Y-45991D02*
D03*
X-49481Y-33733D02*
D03*
X-46976Y-31228D02*
D03*
D72*
X-49481Y-84377D02*
D03*
X-46976Y-86883D02*
D03*
X-56371Y-53865D02*
D03*
X-53865Y-56371D02*
D03*
X-61739Y-48497D02*
D03*
X-64245Y-45991D02*
D03*
M02*
