G04*
G04 #@! TF.GenerationSoftware,Altium Limited,Altium Designer,24.5.2 (23)*
G04*
G04 Layer_Physical_Order=6*
G04 Layer_Color=15238730*
%FSLAX25Y25*%
%MOIN*%
G70*
G04*
G04 #@! TF.SameCoordinates,8E4A67B4-94DB-4DCE-88DE-8842EE920FE8*
G04*
G04*
G04 #@! TF.FilePolarity,Positive*
G04*
G01*
G75*
%ADD10C,0.00787*%
%ADD36R,0.02362X0.01968*%
%ADD39R,0.01968X0.02362*%
%ADD47R,0.03543X0.05512*%
%ADD50C,0.04921*%
%ADD51R,0.05906X0.05906*%
%ADD52C,0.02756*%
%ADD53C,0.10354*%
%ADD54R,0.07874X0.11811*%
%ADD55C,0.05906*%
%ADD56C,0.00327*%
%ADD57C,0.00394*%
%ADD61C,0.01772*%
%ADD62C,0.01772*%
%ADD70R,0.01968X0.01968*%
G04:AMPARAMS|DCode=71|XSize=19.68mil|YSize=23.62mil|CornerRadius=0mil|HoleSize=0mil|Usage=FLASHONLY|Rotation=45.000|XOffset=0mil|YOffset=0mil|HoleType=Round|Shape=Rectangle|*
%AMROTATEDRECTD71*
4,1,4,0.00139,-0.01531,-0.01531,0.00139,-0.00139,0.01531,0.01531,-0.00139,0.00139,-0.01531,0.0*
%
%ADD71ROTATEDRECTD71*%

G04:AMPARAMS|DCode=72|XSize=19.68mil|YSize=23.62mil|CornerRadius=0mil|HoleSize=0mil|Usage=FLASHONLY|Rotation=315.000|XOffset=0mil|YOffset=0mil|HoleType=Round|Shape=Rectangle|*
%AMROTATEDRECTD72*
4,1,4,-0.01531,-0.00139,0.00139,0.01531,0.01531,0.00139,-0.00139,-0.01531,-0.01531,-0.00139,0.0*
%
%ADD72ROTATEDRECTD72*%

D10*
X-55655Y-70866D02*
X-55387Y-71135D01*
X-34646Y-68307D02*
X-30315D01*
X-21654D01*
X-17224D01*
Y-64961D01*
X-61739Y-48497D02*
X-60138Y-50098D01*
X-59055Y-51181D02*
X-56371Y-53865D01*
X-57972Y-50098D02*
X-56371Y-48497D01*
X-53865Y-56371D02*
X-51181Y-59055D01*
X-66929Y-35433D02*
X-64245Y-32749D01*
X-66929Y-43307D02*
X-64245Y-45991D01*
X-56371Y-48497D02*
Y-48497D01*
X-53865Y-45991D02*
X-53865D01*
X-51181Y-43307D01*
X-17532Y-63177D02*
Y-49409D01*
Y-63177D02*
X-17224Y-63484D01*
Y-64961D02*
Y-63484D01*
X-23056Y-49409D02*
X-17532D01*
Y-41154D01*
X-11811Y-35433D01*
X-984Y-31693D02*
X-787Y-31496D01*
X787D02*
X984Y-31693D01*
X-11811Y-35433D02*
X-11811D01*
X-10630Y-34252D01*
X-8858D01*
X-61739Y-30243D02*
X-61739D01*
X-59055Y-27559D01*
X-53150Y43957D02*
X-52933Y43740D01*
X-53150Y43957D02*
Y56102D01*
X-51181Y58071D01*
X-53150Y70866D02*
X-43307Y80709D01*
Y98425D01*
X-25591Y27559D02*
X-2953D01*
X-51181Y58071D02*
X12795D01*
X-11811Y-31496D02*
X-8858Y-30709D01*
X-13780Y-29528D02*
X-11614Y-27559D01*
X-10827Y-24409D01*
X-13780Y-25591D02*
X-12795D01*
X-11614Y-24409D01*
X-10827D01*
X0Y-31496D02*
X787D01*
X-787D02*
X0D01*
X-1969Y-27559D02*
X1969D01*
X-1969Y-23622D02*
X3150D01*
X6890Y-29528D02*
X9055Y-32480D01*
X5906Y-27559D02*
X6890Y-29528D01*
X6693Y-23622D02*
X7874Y-25591D01*
X5906D02*
X6693Y-23622D01*
X7874Y-21654D01*
X5906D02*
X6693Y-23622D01*
Y-19685D02*
X7874Y-21654D01*
X5906D02*
X6693Y-19685D01*
X5906Y-17717D02*
X6693Y-19685D01*
X7874Y-17717D01*
X9843Y-7874D02*
X12795Y-7087D01*
X-2953Y27559D02*
X20669D01*
X14764Y46909D02*
X17933Y43740D01*
X14764Y46909D02*
Y56102D01*
X12795Y58071D02*
X14764Y56102D01*
X39173Y25591D02*
X39370Y25787D01*
Y31496D01*
X45276D01*
X60827Y25591D02*
X61024Y25787D01*
Y31496D01*
X66929D01*
X-8661Y-68307D02*
X-4331D01*
Y-77362D02*
Y-68307D01*
Y-77362D02*
X984Y-82677D01*
X3937D01*
X16732D02*
X27559D01*
X-17224Y-68307D02*
X-8661D01*
X-12992Y-64764D02*
X-11220Y-62992D01*
X-1969D01*
X0Y-64961D01*
Y-65945D02*
Y-64961D01*
D36*
X-59055Y-76968D02*
D03*
Y-80512D02*
D03*
X-34646Y-64764D02*
D03*
Y-68307D02*
D03*
X-30315Y-64764D02*
D03*
Y-68307D02*
D03*
X-25984Y-64764D02*
D03*
Y-68307D02*
D03*
X-21654Y-64764D02*
D03*
Y-68307D02*
D03*
X-59055Y-53347D02*
D03*
Y-56890D02*
D03*
Y-49016D02*
D03*
Y-45472D02*
D03*
Y-29724D02*
D03*
Y-33268D02*
D03*
X-14764Y-34252D02*
D03*
Y-30709D02*
D03*
X-8858Y-34252D02*
D03*
Y-30709D02*
D03*
X-40354Y88779D02*
D03*
Y92323D02*
D03*
X-38386Y88779D02*
D03*
Y92323D02*
D03*
X-36417Y88779D02*
D03*
Y92323D02*
D03*
X-34449Y88779D02*
D03*
Y92323D02*
D03*
X-32480Y88779D02*
D03*
Y92323D02*
D03*
X-30512Y88779D02*
D03*
Y92323D02*
D03*
X-4921Y-22835D02*
D03*
Y-26378D02*
D03*
X-10827Y-19882D02*
D03*
Y-23425D02*
D03*
X-6890Y-18504D02*
D03*
Y-14961D02*
D03*
X-2953Y-19488D02*
D03*
Y-15945D02*
D03*
X4921Y-11024D02*
D03*
Y-14567D02*
D03*
X1181Y-10630D02*
D03*
Y-7087D02*
D03*
X-1181D02*
D03*
Y-10630D02*
D03*
X10827Y-18898D02*
D03*
Y-22441D02*
D03*
X8858Y-7087D02*
D03*
Y-10630D02*
D03*
X12795D02*
D03*
Y-7087D02*
D03*
X-4921Y60827D02*
D03*
Y57284D02*
D03*
X4921Y60827D02*
D03*
Y57284D02*
D03*
X30512Y88779D02*
D03*
Y92323D02*
D03*
X34449Y88779D02*
D03*
Y92323D02*
D03*
X32480Y88779D02*
D03*
Y92323D02*
D03*
X36417Y88779D02*
D03*
Y92323D02*
D03*
X38386Y88779D02*
D03*
Y92323D02*
D03*
X40354Y88779D02*
D03*
Y92323D02*
D03*
X-8661Y-64764D02*
D03*
Y-68307D02*
D03*
X-12992D02*
D03*
Y-64764D02*
D03*
X-4331D02*
D03*
Y-68307D02*
D03*
D39*
X-61221Y-90551D02*
D03*
X-64764D02*
D03*
X-61221Y-51181D02*
D03*
X-64764D02*
D03*
X-984Y-31693D02*
D03*
X-4528D02*
D03*
X984D02*
D03*
X4528D02*
D03*
X9055Y-32480D02*
D03*
X12598D02*
D03*
X-61221Y-27559D02*
D03*
X-64764D02*
D03*
X-56890D02*
D03*
X-53347D02*
D03*
X-31299Y98425D02*
D03*
X-27756D02*
D03*
X-8071Y-27559D02*
D03*
X-11614D02*
D03*
X5709D02*
D03*
X2165D02*
D03*
X3150Y-23622D02*
D03*
X6693D02*
D03*
Y-19685D02*
D03*
X3150D02*
D03*
X-12598Y-14764D02*
D03*
X-9055D02*
D03*
X-10630Y-10827D02*
D03*
X-7087D02*
D03*
X-6693Y-6890D02*
D03*
X-3150D02*
D03*
X12598Y-28543D02*
D03*
X9055D02*
D03*
Y-14764D02*
D03*
X12598D02*
D03*
X27756Y98425D02*
D03*
X31299D02*
D03*
D47*
X-43307D02*
D03*
X-35433D02*
D03*
X43307D02*
D03*
X35433D02*
D03*
D50*
X66929Y-98425D02*
D03*
X51181D02*
D03*
X59055D02*
D03*
X66929Y-74803D02*
D03*
X51181Y-90551D02*
D03*
X59055D02*
D03*
X66929D02*
D03*
X51181Y-82677D02*
D03*
X59055D02*
D03*
X66929D02*
D03*
X51181Y-74803D02*
D03*
X59055D02*
D03*
X19685Y-90551D02*
D03*
Y-98425D02*
D03*
X27559Y-90551D02*
D03*
Y-98425D02*
D03*
X51181Y-66929D02*
D03*
X59055D02*
D03*
X66929D02*
D03*
X51181Y-59055D02*
D03*
X59055D02*
D03*
X66929D02*
D03*
X51181Y-51181D02*
D03*
X59055D02*
D03*
X66929D02*
D03*
X51181Y-43307D02*
D03*
X59055D02*
D03*
X66929D02*
D03*
X51181Y-35433D02*
D03*
X59055D02*
D03*
X66929D02*
D03*
Y-27559D02*
D03*
X59055D02*
D03*
X51181D02*
D03*
X66929Y-19685D02*
D03*
X59055D02*
D03*
X51181D02*
D03*
Y-11811D02*
D03*
X59055D02*
D03*
X66929D02*
D03*
X59055Y-3937D02*
D03*
X66929D02*
D03*
X51181D02*
D03*
X35433Y-98425D02*
D03*
X43307Y-98425D02*
D03*
Y-90551D02*
D03*
X35433D02*
D03*
X-66929Y3937D02*
D03*
Y11811D02*
D03*
Y19685D02*
D03*
X-59055Y27559D02*
D03*
Y3937D02*
D03*
Y11811D02*
D03*
Y19685D02*
D03*
X-51181D02*
D03*
Y11811D02*
D03*
Y3937D02*
D03*
X-66929Y27559D02*
D03*
X-51181D02*
D03*
X59055Y3937D02*
D03*
X51181D02*
D03*
X66929D02*
D03*
X59055Y11811D02*
D03*
X51181D02*
D03*
X66929D02*
D03*
X-66929Y-66929D02*
D03*
X-59055D02*
D03*
X-51181D02*
D03*
X-66929Y-59055D02*
D03*
X-59055D02*
D03*
X-51181D02*
D03*
X-66929Y-51181D02*
D03*
X-59055D02*
D03*
X-51181D02*
D03*
X-66929Y-43307D02*
D03*
X-59055D02*
D03*
X-51181D02*
D03*
X-66929Y-35433D02*
D03*
X-59055D02*
D03*
X-51181D02*
D03*
X-66929Y-98425D02*
D03*
X-59055D02*
D03*
X-51181D02*
D03*
X-66929Y-90551D02*
D03*
X-59055D02*
D03*
X-51181D02*
D03*
X-66929Y-82677D02*
D03*
X-59055D02*
D03*
X-51181D02*
D03*
X-66929Y-74803D02*
D03*
X-59055D02*
D03*
X-51181D02*
D03*
X-59055Y-27559D02*
D03*
X-66929D02*
D03*
X-51181D02*
D03*
Y-19685D02*
D03*
X-59055D02*
D03*
X-66929D02*
D03*
X-59055Y-11811D02*
D03*
X-51181D02*
D03*
X-66929D02*
D03*
Y-3937D02*
D03*
X-59055D02*
D03*
X-51181D02*
D03*
D51*
X0Y-94488D02*
D03*
X-31496D02*
D03*
D52*
X-35433Y-76772D02*
D03*
X3937D02*
D03*
D53*
X-4941Y66732D02*
D03*
X4941D02*
D03*
D54*
X-65925D02*
D03*
X65925D02*
D03*
D55*
X-61516Y98032D02*
D03*
X-19350D02*
D03*
X-51516D02*
D03*
X-9350D02*
D03*
X-22933Y43740D02*
D03*
X-17933Y53740D02*
D03*
X-27933D02*
D03*
X-32933Y43740D02*
D03*
X-37933Y53740D02*
D03*
X-42933Y43740D02*
D03*
X-47933Y53740D02*
D03*
X-52933Y43740D02*
D03*
X9350Y98032D02*
D03*
X51516D02*
D03*
X19350D02*
D03*
X61516D02*
D03*
X47933Y43740D02*
D03*
X52933Y53740D02*
D03*
X42933D02*
D03*
X37933Y43740D02*
D03*
X32933Y53740D02*
D03*
X27933Y43740D02*
D03*
X22933Y53740D02*
D03*
X17933Y43740D02*
D03*
D56*
X0Y-39370D02*
Y-35433D01*
X5906Y-37402D02*
X7874D01*
X7874Y-35433D02*
X8858Y-34449D01*
X7874Y-37402D02*
X9843Y-35433D01*
X7874Y-39370D02*
X9843D01*
X-11811Y-58071D02*
Y-47244D01*
Y-43307D02*
X-9843D01*
X-11811Y-58071D02*
X-7874Y-62008D01*
X-9350Y-57579D02*
Y-47244D01*
Y-57579D02*
X-5906Y-61024D01*
X-6890Y-57087D02*
Y-48228D01*
X-11811Y-39370D02*
X-1969Y-49213D01*
X-9843Y-39370D02*
X-2953Y-46260D01*
X-9843Y-43307D02*
X-984Y-52165D01*
X-6890Y-57087D02*
X-3937Y-60039D01*
X-4921Y-57087D02*
Y-53150D01*
Y-57087D02*
X-2953Y-59055D01*
X-3937Y-43307D02*
X-1969D01*
X-2953Y-46260D02*
X-984D01*
X-1969Y-49213D02*
X-1969D01*
X-3937Y-60039D02*
X984D01*
X-1969Y-49213D02*
X0D01*
X-2953Y-59055D02*
X1969D01*
X-984Y-52165D02*
X984D01*
X-1969Y-57087D02*
X1969D01*
X-984Y-55118D02*
X1969D01*
X-1969Y-39370D02*
X19685Y-61024D01*
X-1969Y-43307D02*
X19685Y-64961D01*
X-1969Y-41339D02*
X19685Y-62992D01*
X-9843Y-39370D02*
Y-37402D01*
X-5906Y-41339D02*
X-3937Y-43307D01*
X-1969Y-39370D02*
Y-37402D01*
X-984Y-46260D02*
X19685Y-66929D01*
X0Y-49213D02*
X19685Y-68898D01*
X0Y-39370D02*
X19685Y-59055D01*
X11811Y-41339D02*
Y-39370D01*
Y-41339D02*
X13780Y-43307D01*
Y-41339D02*
X15748D01*
X17717Y-39370D01*
X9843Y-37402D02*
X10827Y-36417D01*
X9843Y-39370D02*
X11811Y-37402D01*
X8858Y-34449D02*
X13780D01*
X11811Y-37402D02*
Y-37402D01*
X9843Y-35433D02*
X14764D01*
X10827Y-36417D02*
X15748D01*
X11811Y-37402D02*
X16732D01*
X15748Y-39370D02*
X16732D01*
X17717D02*
X18701D01*
X14764Y-35433D02*
X22638Y-27559D01*
X15748Y-36417D02*
X22638Y-29528D01*
X-66929Y-3937D02*
Y-3937D01*
X-34941Y-10335D02*
X-19193D01*
X-32972Y-11319D02*
X-19685D01*
X-27067Y-17224D02*
X-18209D01*
X-25098Y-18209D02*
X-19193D01*
X-22146Y-21161D02*
X-19193D01*
X-20177Y-19193D02*
X-19685Y-19685D01*
X-20669Y-22146D02*
X-18209D01*
X-19193Y-21161D02*
X-18209Y-20177D01*
X-19193Y-18209D02*
X-18209Y-19193D01*
Y-20177D02*
X-17224D01*
X-18209Y-19193D02*
X-16240D01*
X-17224Y-20177D02*
X-15748Y-21654D01*
X-16732Y-16732D02*
X-15748Y-17717D01*
X-16240Y-19193D02*
X-15748Y-19685D01*
X-15748Y-21654D02*
X-13780D01*
X-15748Y-17717D02*
X-13780D01*
X-30020Y-6398D02*
X-19193D01*
X-29035Y-5413D02*
X-18209D01*
X-27067Y-9350D02*
X-18727D01*
X-21161Y-14272D02*
X-19193D01*
X-19685Y-11319D02*
X-17717Y-13287D01*
X-18727Y-9350D02*
X-18235Y-9843D01*
X-17717D01*
X-19193Y-14272D02*
X-16732Y-16732D01*
X-18209Y-5413D02*
X-17717Y-5906D01*
Y-13780D02*
Y-13287D01*
X-19193Y-6398D02*
X-15748Y-9843D01*
X-19193Y-10335D02*
X-15748Y-13780D01*
X-19193Y-2461D02*
X-15748Y-5906D01*
X-16732Y-16732D02*
X-16732D01*
X-15748Y-15748D02*
Y-13780D01*
Y-7874D02*
Y-5906D01*
Y-11811D02*
Y-9843D01*
Y-1969D02*
X-13780Y-3937D01*
X-20669Y-2461D02*
X-19193D01*
X-18701Y-984D02*
X-15748Y-3937D01*
X-13780Y-9843D02*
Y-7874D01*
X-12303Y-6398D01*
X-13780Y-5906D02*
Y-3937D01*
X-12303Y-6398D02*
Y-3445D01*
X13780Y-34449D02*
X22638Y-25591D01*
X-7874Y-62008D02*
X-984D01*
X-5906Y-61024D02*
X0D01*
X-984Y-62008D02*
X7874Y-70866D01*
X0Y-61024D02*
X10827Y-71850D01*
X984Y-60039D02*
X13780Y-72835D01*
X1969Y-59055D02*
X16732Y-73819D01*
X984Y-52165D02*
X19685Y-70866D01*
X1969Y-55118D02*
X19685Y-72835D01*
X1969Y-57087D02*
X20669Y-75787D01*
X16732Y-39370D02*
X22638Y-33465D01*
X16732Y-37402D02*
X22638Y-31496D01*
X18701Y-39370D02*
X22638Y-35433D01*
D57*
X-66929Y-90551D02*
Y-90551D01*
Y-98425D02*
X-63976D01*
X-66929Y-90551D02*
X-62992Y-86614D01*
X-63976Y-98425D02*
X-60039Y-94488D01*
X-62992Y-86614D02*
X-57087D01*
X-59055Y-82677D02*
Y-80709D01*
X-60039Y-94488D02*
X-57087D01*
X-59055Y-98425D02*
X-57087D01*
X-57087Y-94488D02*
X-55118Y-92520D01*
X-57087Y-86614D02*
X-55118Y-84646D01*
X-57087Y-98425D02*
X-53150Y-94488D01*
X-55118Y-92520D02*
Y-88583D01*
Y-84646D02*
Y-80709D01*
Y-88583D02*
X-53150Y-86614D01*
X-50197D01*
X-51181Y-82677D02*
Y-82677D01*
X-66929Y-82677D02*
X-62992Y-78740D01*
X-64961Y-71850D02*
Y-69882D01*
Y-71850D02*
X-62992Y-73819D01*
X-64961Y-69882D02*
X-62992Y-67913D01*
Y-78740D02*
Y-73819D01*
Y-67913D02*
Y-64961D01*
Y-70866D02*
X-55655D01*
X-59055Y-80709D02*
X-57087Y-78740D01*
Y-78740D01*
X-55118Y-76772D01*
Y-73819D01*
Y-68898D02*
Y-64961D01*
Y-73819D02*
X-54134Y-72835D01*
X-55118Y-80709D02*
X-53150Y-78740D01*
X-54134Y-72835D02*
Y-72835D01*
X-55118Y-68898D02*
X-53150Y-70866D01*
X-54134Y-72835D02*
X-53150Y-71850D01*
Y-70866D01*
Y-78740D02*
X-48228D01*
X-51181Y-90551D02*
X-50197Y-91535D01*
X-51181Y-82677D02*
X-49213Y-80709D01*
X-53150Y-94488D02*
X-45276D01*
X-51181Y-98425D02*
X-46260D01*
X-50197Y-86614D02*
X-47244Y-89567D01*
X-49213Y-80709D02*
X-47244D01*
X-50197Y-91535D02*
X-45276D01*
X-48228Y-78740D02*
X-46260Y-76772D01*
X-47244Y-89567D02*
X-46260D01*
X-47244Y-80709D02*
X-44291Y-77756D01*
X-46260Y-89567D02*
X-42323Y-85630D01*
X-45276Y-91535D02*
X-40354Y-86614D01*
X-45276Y-94488D02*
X-38386Y-87598D01*
X-46260Y-98425D02*
X-36417Y-88583D01*
X-38386Y-87598D02*
Y-81693D01*
X-37402Y-80709D01*
X-36417Y-88583D02*
Y-83661D01*
X-35433Y-82677D01*
X-37402Y-80709D02*
X-32480D01*
X-35433Y-82677D02*
X-31496D01*
X-32480Y-80709D02*
X-31496Y-79724D01*
Y-73819D01*
X-31496Y-82677D02*
X-29528Y-80709D01*
Y-72835D01*
X-46260Y-76772D02*
Y-58071D01*
X-44291Y-77756D02*
Y-59055D01*
X-42323Y-85630D02*
Y-60039D01*
X-40354Y-86614D02*
Y-61024D01*
X-38386Y-70866D02*
Y-62008D01*
Y-70866D02*
X-36417Y-72835D01*
Y-69882D02*
Y-62992D01*
Y-69882D02*
X-35433Y-70866D01*
X-36417Y-72835D02*
X-32480D01*
X-35433Y-70866D02*
X-31496D01*
X-32480Y-72835D02*
X-31496Y-73819D01*
X-31496Y-70866D02*
X-29528Y-72835D01*
X-62992Y-64961D02*
X-61024Y-62992D01*
X-57087D01*
X-55118Y-61024D01*
X-56102Y-57087D02*
Y-56102D01*
Y-57087D02*
X-55118Y-58071D01*
X-56102Y-56102D02*
X-54134Y-54134D01*
X-55118Y-61024D02*
Y-58071D01*
Y-64961D02*
X-53150Y-62992D01*
X-54134Y-54134D02*
X-53150D01*
X-52165Y-55118D01*
X-53150Y-62992D02*
X-50197D01*
X-52165Y-55118D02*
X-49213D01*
X-51181Y-51181D02*
X-50197D01*
X-66929Y-35433D02*
Y-35433D01*
X-59055Y-43307D02*
X-54134Y-48228D01*
X-55118Y-37402D02*
Y-33465D01*
X-53150Y-31496D01*
X-54134Y-48228D02*
X-53150D01*
X-52165Y-47244D01*
X-50197D01*
X-51181Y-43307D02*
Y-40354D01*
X-50197Y-62992D02*
X-48228Y-61024D01*
X-48228D01*
X-49213Y-55118D02*
X-47244Y-53150D01*
X-48228Y-61024D02*
X-47736Y-60532D01*
Y-56595D01*
X-47244Y-53150D02*
Y-52165D01*
X-47736Y-56595D02*
X-42323Y-51181D01*
X-42323D01*
X-46260Y-58071D02*
X-33465Y-45276D01*
X-44291Y-59055D02*
X-31496Y-46260D01*
X-38386Y-62008D02*
X-36417Y-60039D01*
X-40354Y-61024D02*
X-34449Y-55118D01*
X-36417Y-62992D02*
X-35433Y-62008D01*
X-42323Y-60039D02*
X-29528Y-47244D01*
X-36417Y-60039D02*
X-31496D01*
X-35433Y-62008D02*
X-30512D01*
X-34449Y-55118D02*
X-29528D01*
X-31496Y-60039D02*
X-26575Y-55118D01*
X-29528Y-55118D02*
X-28051Y-53642D01*
Y-46260D01*
X-30512Y-62008D02*
X-24606Y-56102D01*
X-26575Y-55118D02*
Y-47244D01*
X-24606Y-56102D02*
Y-48228D01*
X-51181Y-40354D02*
X-43307Y-32480D01*
X-50197Y-47244D02*
X-41339Y-38386D01*
X-50197Y-51181D02*
X-39370Y-40354D01*
X-47244Y-52165D02*
X-37402Y-42323D01*
X-42323Y-51181D02*
X-35433Y-44291D01*
X-37402Y-42323D02*
Y-34449D01*
X-35433Y-44291D02*
Y-35433D01*
X-33465Y-45276D02*
Y-36417D01*
X-31496Y-46260D02*
Y-37402D01*
X-29528Y-38386D02*
Y-25591D01*
Y-47244D02*
Y-38386D01*
X-28051Y-46260D02*
X-27559Y-45768D01*
Y-39370D02*
Y-26575D01*
Y-45768D02*
Y-39370D01*
X-26575Y-47244D02*
X-25591Y-46260D01*
Y-27559D01*
X-24606Y-48228D02*
X-23622Y-47244D01*
Y-47244D01*
X-22638D01*
X-21654Y-46260D01*
Y-25591D01*
X-1969Y-54134D02*
X-984Y-55118D01*
X13780Y-43307D02*
X17717Y-47244D01*
X19685Y-59055D02*
X22638D01*
X17717Y-41339D02*
X41339D01*
X17717Y-47244D02*
X41339D01*
X-53150Y-31496D02*
Y-31496D01*
X-50197D01*
X-49213Y-30512D01*
X-47691D01*
X-46976Y-31228D01*
X-43307Y-32480D02*
Y-18701D01*
X-41339Y-38386D02*
Y-19685D01*
X-39370Y-40354D02*
Y-20669D01*
X-37402Y-34449D02*
Y-21654D01*
X-35433Y-35433D02*
Y-22638D01*
X-33465Y-36417D02*
Y-23622D01*
X-31496Y-37402D02*
Y-24606D01*
X-33465Y-23622D02*
X-27067Y-17224D01*
X-31496Y-24606D02*
X-25098Y-18209D01*
X-29528Y-25591D02*
X-23622Y-19685D01*
X-66929D02*
Y-19685D01*
X-62992Y-15748D01*
X-59055Y-11811D02*
X-59055D01*
X-55118Y-7874D01*
X-62992Y-15748D02*
X-49213D01*
X-55118Y-7874D02*
X-46260D01*
X-51181Y-19685D02*
X-49213D01*
X-46260Y-7874D02*
X-44783Y-6398D01*
X-49213Y-15748D02*
X-41339Y-7874D01*
X-49213Y-19685D02*
X-38878Y-9350D01*
X-51181Y-3937D02*
X-30512D01*
X-43307Y-18701D02*
X-34941Y-10335D01*
X-44783Y-6398D02*
X-30020D01*
X-41339Y-19685D02*
X-32972Y-11319D01*
X-39370Y-20669D02*
X-31496Y-12795D01*
X-37402Y-21654D02*
X-30020Y-14272D01*
X-38878Y-9350D02*
X-27067D01*
X-35433Y-22638D02*
X-28543Y-15748D01*
X-41339Y-7874D02*
X-19685D01*
X-30512Y-3937D02*
X-29035Y-5413D01*
X-31496Y-12795D02*
X-20177D01*
X-27559Y-26575D02*
X-22146Y-21161D01*
X-25591Y-27559D02*
X-21161Y-23130D01*
X-23622Y-19685D02*
X-19685D01*
X-21161Y-23130D02*
Y-22638D01*
X-20669Y-22146D01*
X-21654Y-25591D02*
X-19685Y-23622D01*
X-18209Y-22146D02*
X-17717Y-21654D01*
X-18209Y-17224D02*
X-17717Y-17717D01*
X-30020Y-14272D02*
X-21161D01*
X-28543Y-15748D02*
X-19685D01*
X-27559Y-3937D02*
X-19685D01*
X-66929Y-3937D02*
X-62992Y0D01*
X-66929Y11811D02*
X-62992Y7874D01*
X-66929Y19685D02*
X-62992Y15748D01*
X-59055Y27559D02*
X-55118Y23622D01*
X-62992Y15748D02*
X-41339D01*
X-62992Y7874D02*
X-36417D01*
X-55118Y23622D02*
X-43307D01*
X-62992Y0D02*
X-31496D01*
X-51181Y19685D02*
X-42323D01*
X-43307Y23622D02*
X-39370Y19685D01*
X-38583Y35433D02*
X-38386Y35630D01*
X-39370Y19685D02*
X-35433D01*
X-38386Y35630D02*
Y53287D01*
X-37933Y53740D01*
X-42323Y19685D02*
X-24606Y1969D01*
X-41339Y15748D02*
X-24606Y-984D01*
X-36417Y7874D02*
X-26083Y-2461D01*
X-31496Y0D02*
X-27559Y-3937D01*
X-26772Y17717D02*
X-23819Y14764D01*
X-35433Y19685D02*
X-12303Y-3445D01*
X-26083Y-2461D02*
X-20669D01*
X-24606Y1969D02*
X-19685D01*
X-24606Y-984D02*
X-18701D01*
X-23819Y14764D02*
X-13287D01*
X-19685Y1969D02*
X-15748Y-1969D01*
X-17224Y31004D02*
X-15748Y29528D01*
X-17717Y5906D02*
X-11319Y12303D01*
X-34449Y35630D02*
Y42224D01*
Y35630D02*
X-34252Y35433D01*
X-34449Y42224D02*
X-32933Y43740D01*
X-35433Y98425D02*
X-31299D01*
X-27756D02*
X-19744D01*
X-19350Y98032D01*
X3150Y-23622D02*
X3937D01*
X-9843Y-5906D02*
Y-2953D01*
X-11811Y-984D02*
X-9843Y-2953D01*
X-7874Y-1969D02*
Y4921D01*
X-11811Y-984D02*
Y6398D01*
X-9843Y0D02*
Y5906D01*
X-5906Y0D02*
X-3937Y1969D01*
Y4921D01*
X27559Y-29528D02*
X28543Y-30512D01*
X22638Y-29528D02*
X27559D01*
X22638Y-27559D02*
X27559D01*
X28543Y-26575D01*
X25591Y-20669D02*
X27559Y-22638D01*
X22638Y-31496D02*
X39370D01*
X45276D02*
X62992D01*
X40354Y-33465D02*
X46260Y-27559D01*
X28543Y-30512D02*
X30512D01*
X31496Y-29528D01*
X62992Y-31496D02*
X66929Y-27559D01*
X31496Y-29528D02*
X38386D01*
X29528Y-28543D02*
X36417D01*
X46260Y-27559D02*
X51181D01*
X31496D02*
X34449D01*
X39370Y-31496D02*
X47244Y-23622D01*
X30512Y-26575D02*
X31496Y-27559D01*
X28543Y-26575D02*
Y-26575D01*
X30512Y-26575D02*
Y-26575D01*
X28543D02*
X30512D01*
X55118Y-23622D02*
X59055Y-27559D01*
X22638Y-25591D02*
X33465D01*
X38386Y-29528D02*
X48228Y-19685D01*
X47244Y-23622D02*
X55118D01*
X36417Y-28543D02*
X47705Y-17256D01*
X27559Y-22638D02*
X33465D01*
X34449Y-27559D02*
X46752Y-15256D01*
X30512Y-20669D02*
X32480D01*
X48228Y-19685D02*
X51181D01*
X28543Y-14764D02*
Y-9843D01*
X28543Y-9843D01*
Y-8858D01*
X19685Y0D02*
X28543Y-8858D01*
X33465Y-25591D02*
X47244Y-11811D01*
X47705Y-17256D02*
X49181D01*
X53642Y-17224D02*
X56102D01*
X49181Y-17256D02*
X50197Y-16240D01*
X52658D02*
X53642Y-17224D01*
X56102D02*
X57087Y-16240D01*
X60532D01*
X50197D02*
X52658D01*
X33465Y-22638D02*
X48228Y-7874D01*
X46752Y-15256D02*
X55610D01*
X60532Y-16240D02*
X62992Y-13780D01*
X55610Y-15256D02*
X59055Y-11811D01*
X32480Y-20669D02*
X47244Y-5906D01*
Y-11811D02*
Y-11811D01*
X62992Y-13780D02*
Y-9843D01*
X47244Y-11811D02*
X51181D01*
X48228Y-7874D02*
X61024D01*
X62992Y-5906D01*
X64961Y-3937D01*
X47244Y-5906D02*
Y-1969D01*
X64961Y-3937D02*
X66929D01*
X55118Y0D02*
X59055Y-3937D01*
X47244Y-1969D02*
X49213Y0D01*
X55118D01*
X-13287Y14764D02*
X-12795Y15256D01*
X-11319Y12303D02*
Y15748D01*
X-11811Y6398D02*
X-6890Y11319D01*
X-11319Y15748D02*
X-5413Y21654D01*
X-9843Y5906D02*
X-6890Y8858D01*
X-9350Y15256D02*
X-6890Y12795D01*
Y11319D02*
Y12795D01*
X-7874Y4921D02*
X-5413Y7382D01*
X-6890Y8858D02*
X-4921D01*
X-3937Y4921D02*
X-2953Y5906D01*
X8366D01*
X9350Y6890D01*
X-5413Y7382D02*
X5906D01*
X7382Y8858D01*
X9350Y6890D02*
Y11319D01*
X-4921Y8858D02*
X-3937Y9843D01*
X7382Y8858D02*
Y10335D01*
X12303Y10827D02*
Y12303D01*
X3445Y14272D02*
X7382Y10335D01*
X-3937Y9843D02*
Y17224D01*
X4921Y15748D02*
X9350Y11319D01*
X9843Y14764D02*
X12303Y12303D01*
X9843Y14764D02*
Y16240D01*
X3445Y14272D02*
Y17717D01*
X-4921Y18209D02*
X-3937Y17224D01*
X4921Y15748D02*
Y19685D01*
X-6398Y18209D02*
X-4921D01*
X-5413Y21654D02*
X-4429D01*
X-15748Y29528D02*
X4921D01*
X6398Y31004D01*
X-1969Y31693D02*
X1772Y35433D01*
X15748D01*
X-9350Y90059D02*
X17717Y62992D01*
X-9350Y90059D02*
Y98032D01*
X19685Y36039D02*
Y36417D01*
X24606Y36220D02*
Y37402D01*
X25591Y38386D01*
X19685Y36417D02*
X22638Y39370D01*
Y46260D01*
X25591Y49213D01*
X28543D01*
X17717Y51181D02*
Y62992D01*
X19350Y98032D02*
X19744Y98425D01*
X27756D01*
X46063Y21654D02*
Y22441D01*
X47244Y23622D01*
Y29528D02*
Y35433D01*
X62992Y-1969D02*
Y19685D01*
X59055Y23622D02*
X62992Y19685D01*
X47244Y23622D02*
X56102D01*
X57284Y24803D01*
Y25591D01*
X59055Y23622D02*
Y29528D01*
X55118Y33465D02*
X59055Y29528D01*
X68898Y33465D02*
Y34449D01*
X25591Y38386D02*
X32579D01*
X37933Y43740D01*
Y41870D02*
Y43740D01*
X28543Y49213D02*
X32933Y53602D01*
Y53740D01*
X31299Y98425D02*
X35433D01*
X66929Y36417D02*
X68898Y34449D01*
X47244Y35433D02*
X48228Y36417D01*
X66929D01*
X10827Y-83661D02*
Y-71850D01*
X7874Y-84646D02*
Y-70866D01*
X10827Y-83661D02*
X13780Y-86614D01*
Y-82677D02*
Y-72835D01*
Y-82677D02*
X15748Y-84646D01*
X19685Y-70866D02*
X20669Y-71850D01*
X16732Y-75787D02*
Y-73819D01*
Y-75787D02*
X21654Y-80709D01*
X19685Y-72835D02*
X21654Y-74803D01*
X20669Y-75787D02*
X22638Y-77756D01*
X28543Y-80709D02*
X29528Y-81693D01*
X21654Y-80709D02*
X28543D01*
X27559Y-74803D02*
X28543Y-75787D01*
X21654Y-74803D02*
X27559D01*
X28543Y-75787D02*
X30512D01*
X19685Y-61024D02*
X19685D01*
X22638Y-59055D02*
X24606Y-61024D01*
X19685Y-62992D02*
X31496D01*
X19685Y-64961D02*
X37402D01*
X45276Y-80709D02*
X47244Y-82677D01*
X29528Y-81693D02*
X31496D01*
X47244Y-82677D02*
X51181D01*
X31496Y-81693D02*
X32480Y-80709D01*
X34449Y-84646D02*
X40354D01*
X32480Y-80709D02*
X45276D01*
X40354Y-84646D02*
X45276D01*
X47244Y-86614D01*
X66929Y-98425D02*
Y-98425D01*
X62992Y-94488D02*
X66929Y-98425D01*
X62992Y-86614D02*
X66929Y-90551D01*
Y-90551D02*
Y-90551D01*
X19685Y-66929D02*
X43307D01*
X48228Y-71850D02*
X49213Y-70866D01*
X19685Y-68898D02*
X49213D01*
X20669Y-71850D02*
X48228D01*
X22638Y-77756D02*
X48228D01*
X49213Y-78740D01*
X43307Y-66929D02*
X47244Y-62992D01*
X30512Y-75787D02*
X31496Y-74803D01*
X51181D01*
X49213Y-68898D02*
X51181Y-66929D01*
X49213Y-78740D02*
X55118D01*
X47244Y-62992D02*
X62992D01*
X49213Y-70866D02*
X62992D01*
X55118Y-78740D02*
X59055Y-82677D01*
X62992Y-70866D02*
Y-70866D01*
X66929Y-66929D01*
X62992Y-62992D02*
X66929Y-59055D01*
X31496Y-62992D02*
X47244Y-47244D01*
X37402Y-64961D02*
X51181Y-51181D01*
X41339Y-47244D02*
X49213Y-39370D01*
X47244Y-47244D02*
X62992D01*
X66929Y-43307D01*
Y-59055D02*
Y-59055D01*
X22638Y-33465D02*
X40354D01*
X22638Y-35433D02*
X41339D01*
X45276Y-31496D01*
X41339Y-41339D02*
X47244Y-35433D01*
X51181D01*
X49213Y-39370D02*
X62992D01*
Y-39370D01*
X66929Y-35433D01*
X57087Y-94488D02*
X62992D01*
X48720Y-93996D02*
X56595D01*
X47244Y-86614D02*
X62992D01*
X56595Y-93996D02*
X57087Y-94488D01*
X55610Y-94980D02*
X59055Y-98425D01*
X13780Y-86614D02*
X44291D01*
X47244Y-92520D02*
X48720Y-93996D01*
X46752Y-94980D02*
X55610D01*
X44291Y-86614D02*
X47244Y-89567D01*
X46260Y-94488D02*
X46752Y-94980D01*
X47244Y-92520D02*
Y-89567D01*
X17717Y-94488D02*
X46260D01*
X7874Y-84646D02*
X17717Y-94488D01*
X15748Y-84646D02*
X34449D01*
D61*
X-20374Y22146D02*
X-15748Y16732D01*
X7382Y16240D02*
Y22146D01*
X3248D02*
X7382D01*
D62*
X25591Y-37402D02*
D03*
X30512Y-79724D02*
D03*
X12480Y-95276D02*
D03*
X3937Y-82677D02*
D03*
X16732Y-78740D02*
D03*
X27559Y-82677D02*
D03*
X16732D02*
D03*
X29528Y-73819D02*
D03*
X-1969Y-54134D02*
D03*
X19685Y-43307D02*
D03*
X23622D02*
D03*
X13780Y-41339D02*
D03*
X17717D02*
D03*
X15748Y-39370D02*
D03*
X7874D02*
D03*
X11811D02*
D03*
X21654D02*
D03*
X5906Y-37402D02*
D03*
X9843Y-37402D02*
D03*
X30315Y-37205D02*
D03*
X7874Y-35433D02*
D03*
X0D02*
D03*
X3937Y-33465D02*
D03*
X5906Y-31496D02*
D03*
X38583Y-43504D02*
D03*
X11811Y-31496D02*
D03*
X9843Y-29528D02*
D03*
X29528Y-28543D02*
D03*
X11811Y-27559D02*
D03*
Y-25591D02*
D03*
X9843Y-23622D02*
D03*
X11811Y-21654D02*
D03*
X30512Y-20669D02*
D03*
X28051D02*
D03*
X25591D02*
D03*
X9843Y-19685D02*
D03*
X32480Y-17717D02*
D03*
X11811Y-15748D02*
D03*
X28543Y-14764D02*
D03*
X9843Y-13780D02*
D03*
X62992Y-9843D02*
D03*
X11811D02*
D03*
X9843Y-7874D02*
D03*
X17717Y-3937D02*
D03*
X62992Y-1969D02*
D03*
X37402Y-82677D02*
D03*
X0Y-65945D02*
D03*
X22146Y-61024D02*
D03*
X24606D02*
D03*
X19685D02*
D03*
X-37968Y21850D02*
D03*
Y25591D02*
D03*
X-34449Y27559D02*
D03*
X-30315Y17717D02*
D03*
X-28961Y21850D02*
D03*
X-26772Y17717D02*
D03*
X3445Y17717D02*
D03*
X-9843Y0D02*
D03*
X-5906D02*
D03*
X1969Y1969D02*
D03*
X7874D02*
D03*
X-23622Y3937D02*
D03*
X1969D02*
D03*
X-5906D02*
D03*
X-17717Y5906D02*
D03*
Y8366D02*
D03*
X-12795Y15256D02*
D03*
X-9350D02*
D03*
X-15748Y16732D02*
D03*
X-6890Y15748D02*
D03*
X7382Y16240D02*
D03*
X-6398Y18209D02*
D03*
X1476Y19193D02*
D03*
X4921Y19685D02*
D03*
X-2461Y20177D02*
D03*
X-13780Y21654D02*
D03*
X-9843D02*
D03*
X-4429D02*
D03*
X-23917Y22146D02*
D03*
X-20374D02*
D03*
X3248D02*
D03*
X-295D02*
D03*
X-2953Y23819D02*
D03*
X-13780Y25591D02*
D03*
X-9843D02*
D03*
X-25591Y27559D02*
D03*
X-2953D02*
D03*
X-43307Y98425D02*
D03*
X-53150Y70866D02*
D03*
X-42126Y35433D02*
D03*
X-40354Y92520D02*
D03*
Y88583D02*
D03*
X-38583Y35433D02*
D03*
X-38386Y92520D02*
D03*
X-37968Y29331D02*
D03*
X6398Y31004D02*
D03*
X-17224D02*
D03*
X-1969Y31693D02*
D03*
X2461Y32185D02*
D03*
X-21161D02*
D03*
X-25591Y33268D02*
D03*
X-17224Y33465D02*
D03*
X6398D02*
D03*
X-34252Y35433D02*
D03*
X-30709D02*
D03*
X0Y84842D02*
D03*
X-38386Y88583D02*
D03*
X-36417D02*
D03*
X-34449D02*
D03*
X-32480D02*
D03*
X-30512D02*
D03*
X-36417Y92520D02*
D03*
X-34449D02*
D03*
X-32480D02*
D03*
X-30512D02*
D03*
X0Y98425D02*
D03*
X9843Y-1969D02*
D03*
Y25591D02*
D03*
Y16240D02*
D03*
Y21654D02*
D03*
Y3937D02*
D03*
X11811Y17224D02*
D03*
X12303Y10827D02*
D03*
X13780Y21654D02*
D03*
Y25591D02*
D03*
X14272Y11811D02*
D03*
X19685Y0D02*
D03*
X20669Y27559D02*
D03*
Y23819D02*
D03*
X23622Y2953D02*
D03*
X28543Y28543D02*
D03*
X28740Y25591D02*
D03*
X36417Y18504D02*
D03*
X29528Y18504D02*
D03*
X67716Y21654D02*
D03*
X53937D02*
D03*
X57284D02*
D03*
X50394D02*
D03*
X28740Y21654D02*
D03*
X32283D02*
D03*
X35630D02*
D03*
X46063D02*
D03*
X53937Y25591D02*
D03*
X60827D02*
D03*
X57284D02*
D03*
X50394D02*
D03*
X67716Y25591D02*
D03*
X32283Y25591D02*
D03*
X35630D02*
D03*
X39173D02*
D03*
X46063D02*
D03*
X50197Y28543D02*
D03*
X52165D02*
D03*
X30512Y28543D02*
D03*
X63032Y29527D02*
D03*
X41378Y29527D02*
D03*
X47244Y29528D02*
D03*
X43307Y29528D02*
D03*
X28543Y31496D02*
D03*
X30512D02*
D03*
X19685Y31693D02*
D03*
X24606D02*
D03*
X41378Y33465D02*
D03*
X30512Y34449D02*
D03*
X28543D02*
D03*
X24606Y35236D02*
D03*
X19685D02*
D03*
X15748Y35433D02*
D03*
X17717Y51181D02*
D03*
X30512Y88583D02*
D03*
X32480D02*
D03*
X34449D02*
D03*
X36417D02*
D03*
X38386D02*
D03*
X40354D02*
D03*
X34449Y92520D02*
D03*
X30512D02*
D03*
X32480D02*
D03*
X36417D02*
D03*
X38386D02*
D03*
X40354D02*
D03*
X64961Y29528D02*
D03*
X50197Y31496D02*
D03*
X52165D02*
D03*
X66929D02*
D03*
X45276Y31496D02*
D03*
X55118Y33465D02*
D03*
X68898D02*
D03*
X43307Y33465D02*
D03*
X63032Y33465D02*
D03*
X65000D02*
D03*
X50197Y34449D02*
D03*
X52165D02*
D03*
X43307Y98425D02*
D03*
X-55118Y-37402D02*
D03*
X-44291Y-100394D02*
D03*
X-62724Y-94220D02*
D03*
X-46976Y-86883D02*
D03*
X-62992Y-70866D02*
D03*
X-17224Y-64961D02*
D03*
X-34646Y-64764D02*
D03*
X-30315D02*
D03*
X-25984D02*
D03*
X-21654D02*
D03*
X-8661D02*
D03*
X-4331D02*
D03*
X-32480Y-57087D02*
D03*
X-1969D02*
D03*
X-23056Y-56890D02*
D03*
X-32480Y-53150D02*
D03*
X-4921D02*
D03*
X-29528Y-51181D02*
D03*
X-23056Y-49409D02*
D03*
X-6890Y-48228D02*
D03*
X-11811Y-47244D02*
D03*
X-9350D02*
D03*
X-23622Y-45276D02*
D03*
Y-43307D02*
D03*
X-11811D02*
D03*
X-23622Y-41339D02*
D03*
X-1969D02*
D03*
X-5906D02*
D03*
X-19193Y-39370D02*
D03*
X-11811D02*
D03*
X-1969Y-37402D02*
D03*
X-9843Y-37402D02*
D03*
X-15748Y-33465D02*
D03*
X-7874D02*
D03*
X-5906Y-31496D02*
D03*
X-17717D02*
D03*
Y-25591D02*
D03*
X-19685Y-23622D02*
D03*
X-15748D02*
D03*
X-17717Y-21654D02*
D03*
X-13780D02*
D03*
X-19685Y-19685D02*
D03*
X-15748D02*
D03*
X-17717Y-17717D02*
D03*
X-15748Y-15748D02*
D03*
X-19685D02*
D03*
X-17717Y-13780D02*
D03*
X-20177Y-12795D02*
D03*
X-15748Y-11811D02*
D03*
X-17717Y-9843D02*
D03*
X-15748Y-7874D02*
D03*
X-19685D02*
D03*
X-17717Y-5906D02*
D03*
X-15748Y-3937D02*
D03*
X-19685D02*
D03*
X-3937Y-31496D02*
D03*
X-11811D02*
D03*
X-13780Y-29528D02*
D03*
X-7874Y-27559D02*
D03*
X-13780Y-25591D02*
D03*
X-3937D02*
D03*
X-1969Y-23622D02*
D03*
X-5906D02*
D03*
X-7874Y-21654D02*
D03*
X-9843Y-19685D02*
D03*
X-1969D02*
D03*
X-13780Y-17717D02*
D03*
X-5906D02*
D03*
X-7874D02*
D03*
X-9843Y-15748D02*
D03*
X-3937D02*
D03*
X-11811Y-13780D02*
D03*
X-5906D02*
D03*
X-1969D02*
D03*
X-7874Y-11811D02*
D03*
X-3937D02*
D03*
X-13780Y-9843D02*
D03*
X-9843D02*
D03*
X-1969D02*
D03*
X-5906Y-7874D02*
D03*
X-11811D02*
D03*
X-13780Y-5906D02*
D03*
X-1969D02*
D03*
X-9843D02*
D03*
X-7874Y-4429D02*
D03*
X-5906Y-3937D02*
D03*
X-7874Y-1969D02*
D03*
X0Y-31496D02*
D03*
Y-29528D02*
D03*
X-1969Y-27559D02*
D03*
X1969D02*
D03*
X5906D02*
D03*
X0Y-25591D02*
D03*
X5906D02*
D03*
X7874D02*
D03*
X3937Y-23622D02*
D03*
X0Y-21654D02*
D03*
X7874D02*
D03*
X5906D02*
D03*
X1969Y-19685D02*
D03*
X3937D02*
D03*
X0Y-17717D02*
D03*
X7874D02*
D03*
X5906D02*
D03*
X0Y-15748D02*
D03*
X3937D02*
D03*
X0Y-13780D02*
D03*
X5906D02*
D03*
X1969Y-11811D02*
D03*
X7874D02*
D03*
X3937Y-9843D02*
D03*
X5906D02*
D03*
X1969Y-7874D02*
D03*
X0D02*
D03*
X7874D02*
D03*
X5906D02*
D03*
X0Y-5906D02*
D03*
X3937D02*
D03*
Y-3937D02*
D03*
D70*
X-18701Y-31496D02*
D03*
X25591Y-37402D02*
D03*
D71*
X-65229Y-96725D02*
D03*
X-62724Y-94220D02*
D03*
X-52881Y-68629D02*
D03*
X-55387Y-71135D02*
D03*
X-61739Y-30243D02*
D03*
X-64245Y-32749D02*
D03*
X-56371Y-48497D02*
D03*
X-53865Y-45991D02*
D03*
X-49481Y-33733D02*
D03*
X-46976Y-31228D02*
D03*
D72*
X-49481Y-84377D02*
D03*
X-46976Y-86883D02*
D03*
X-56371Y-53865D02*
D03*
X-53865Y-56371D02*
D03*
X-61739Y-48497D02*
D03*
X-64245Y-45991D02*
D03*
M02*
