M48
;Layer_Color=9474304
;FILE_FORMAT=2:5
INCH
;TYPE=PLATED
T01F00S00C0.00787
T02F00S00C0.03150
T03F00S00C0.03504
T04F00S00C0.04016
T05F00S00C0.06417
%
T01
X0489173Y0442913
X0486221Y0457677
X0543976Y0446063
X0531496Y0474409
Y0476378
X0527165Y0476575
X0522835
X0514173Y0477559
Y0475591
X0509842Y0476575
X0505512
X0501181
X0496850
X0484252Y0472441
X0483268Y0493110
X0485236Y0495079
X0484252Y0503937
X0507874Y0500000
Y0498032
Y0496063
X0512303Y0501968
X0519685
Y0498032
Y0494095
X0522146
X0524606Y0493110
X0526575Y0488189
X0529528Y0487205
Y0484252
Y0500000
X0525591
X0527559Y0503937
Y0507874
X0524606
X0519685
X0520669Y0510827
X0517717Y0511811
Y0515748
X0519685
Y0521654
X0521654
X0523622Y0519685
Y0523622
X0525591
X0527559Y0525591
X0525591Y0527559
X0529528
X0531496
Y0525591
X0535433
X0537402Y0527559
X0541339
X0543307Y0525591
Y0519685
X0541339Y0521654
X0539370Y0519685
X0537402
X0535433Y0521654
X0533465
X0531496Y0519685
X0529528Y0521654
X0527559Y0519685
X0525591Y0517717
X0527559Y0515748
Y0511811
X0531496
Y0509842
Y0507874
Y0503937
X0537402Y0503937
X0539370Y0501968
X0543307
X0545276Y0500000
X0547244Y0501968
X0549213Y0500000
X0551181Y0498032
X0555118
X0553150Y0501968
X0561811Y0504134
X0561024Y0512795
X0562008Y0520669
X0559547
X0557087
X0560039Y0526575
X0563976Y0523622
X0539370
X0537402
X0535433Y0517717
X0529528
Y0513779
X0533465
X0535433Y0511811
X0537402Y0513779
X0541339Y0511811
X0543307Y0509842
Y0515748
X0541339Y0517717
Y0503937
X0539370Y0505905
X0535433Y0507874
X0521654Y0503937
X0515748Y0507874
X0513779Y0509842
Y0515748
X0511811Y0517717
X0515748
X0517717Y0519685
X0515748Y0521654
X0517717Y0523622
X0513779
Y0519685
X0511811Y0521654
Y0525591
X0511319Y0528543
X0513779Y0527559
X0515748Y0525591
Y0529528
Y0533464
X0517717Y0531496
X0519685Y0533464
X0521654Y0531496
X0523622Y0529528
X0527559
X0529528Y0531496
X0531496Y0533464
X0533465
Y0529528
X0535433Y0531496
X0537402
Y0533464
X0539370
X0541339
X0543307Y0531496
X0545276Y0533464
X0549213Y0537402
X0551181Y0541339
X0555118Y0544291
X0541339Y0545276
X0539370Y0543307
X0541339Y0539370
X0535433Y0537402
Y0535433
X0531496
X0529528
X0525591Y0537402
X0523622Y0536909
Y0539370
X0521654Y0541339
X0525591
Y0545276
X0533465
Y0543307
X0534941Y0559055
X0532972Y0560532
X0536417Y0561024
X0534744Y0563484
X0531201
X0529035Y0561516
X0527067Y0562992
X0528543Y0565158
Y0568898
X0529528Y0573032
X0533957Y0573524
X0537894Y0572342
Y0574803
X0531496Y0578740
X0547244Y0576772
X0552165Y0577559
X0556102Y0576575
X0560039Y0575787
X0562008
Y0572835
X0560039
Y0569882
X0562008
X0560236Y0566929
X0563779
X0567126
X0570669
X0572874Y0570866
X0574803Y0570866
Y0574803
X0572874Y0574804
X0576772Y0572835
X0578740Y0570866
X0581693Y0569882
X0583661
Y0572835
X0581693
Y0575787
X0583661
X0586614Y0574803
X0594527Y0574804
X0596496
X0596457Y0577756
X0599409
X0598425Y0572835
X0596457Y0570866
X0594527Y0570866
X0600394Y0570866
X0599213Y0566929
Y0562992
X0588779Y0562992
X0585433
X0581890
X0581890Y0566929
X0585433
X0588779
X0592323
X0577559Y0566929
Y0562992
X0571850Y0560039
X0567913Y0559842
X0567126Y0562992
X0563779
X0560236
X0561024Y0559842
X0552165Y0565158
Y0568898
X0554134Y0573819
X0545276Y0566929
X0541339
Y0562992
X0545276
X0543307Y0558563
X0541339Y0557579
X0538878
X0543799Y0552165
X0545768Y0553150
X0524606Y0557087
X0525098Y0559547
X0522146Y0556595
X0521654Y0562992
X0517717
Y0566929
X0521654
X0514272Y0572342
Y0574803
X0510335Y0573524
X0501968Y0572835
X0500000Y0570866
X0498071Y0570866
Y0574804
X0500000Y0574803
X0500984Y0579724
X0500000Y0563189
X0495866Y0566929
X0492323
X0488976
X0485433
X0485236Y0569882
X0487205
Y0572835
X0485236
Y0575787
X0487205
X0482087Y0576772
X0477362
X0472638
X0485433Y0562992
X0488976
X0492323
X0507579Y0563484
X0511122
X0515748Y0558071
X0513779Y0549705
Y0547244
X0507874Y0545276
X0511811Y0537402
X0513779Y0535433
Y0531496
X0511811Y0533464
X0515748Y0537402
X0517717Y0535433
X0521654
X0525591Y0533464
X0521654Y0525591
X0519685Y0527559
X0523622Y0513779
X0539370Y0529528
X0594488Y0531496
Y0539370
X0570079Y0497835
X0556102Y0480315
X0553642
X0551181
X0549213Y0592520
X0480315Y0604331
X0500000Y0551378
X0466535Y0576772
Y0578740
Y0580709
Y0582677
Y0584646
Y0586614
X0466536Y0588583
Y0590551
Y0592520
Y0594488
Y0596457
Y0598425
X0462598
Y0596457
Y0594488
Y0592520
Y0590551
Y0588583
X0462598Y0586614
Y0584646
Y0582677
Y0580709
Y0578740
Y0576772
X0520669Y0628937
X0531496Y0625000
X0529724Y0641240
T02
X0464567Y0442913
Y0450787
Y0458661
Y0466535
X0472441
X0480315
Y0458661
Y0450787
Y0442913
X0472441
Y0450787
Y0458661
X0500000Y0446850
X0531496
X0551181Y0442913
Y0450787
X0559055
X0566929
Y0442913
X0559055
X0574803Y0442913
Y0450787
X0582677
Y0458661
Y0466535
X0590551
X0598425
Y0458661
X0590551
Y0450787
X0598425
Y0442913
X0590551
X0582677
Y0474409
Y0482283
X0590551
X0598425
Y0474409
X0590551
Y0490158
X0598425
Y0498032
X0590551
X0582677
Y0490158
Y0505905
Y0513779
X0590551
X0598425
Y0505905
X0590551
Y0521654
X0598425
Y0529528
X0590551
Y0537402
X0598425
Y0545276
X0590551
Y0553150
X0598425
X0582677
Y0545276
Y0537402
Y0529528
Y0521654
X0480315
Y0513779
Y0505905
Y0498032
Y0490158
Y0482283
Y0474409
X0472441
Y0482283
Y0490158
Y0498032
Y0505905
Y0513779
Y0521654
Y0529528
Y0537402
X0480315
Y0529528
Y0545276
Y0553150
Y0561024
Y0568898
X0472441
Y0561024
Y0553150
Y0545276
X0464567
Y0553150
Y0561024
Y0568898
Y0537402
Y0529528
Y0521654
Y0513779
Y0505905
Y0498032
Y0490158
Y0482283
Y0474409
X0496063Y0639764
X0566929
T03
X0513563Y0595079
X0584429
T04
X0478563Y0585079
X0488563
X0498563
X0508563
X0503563Y0595079
X0493563
X0483563
X0554429
X0564429
X0574429
X0569429Y0585079
X0559429
X0549429
X0579429
X0583012Y0639370
X0593012
X0550846
X0540846
X0522146
X0512146
X0479980
X0469980
T05
X0526555Y0608071
X0536437
X0597421
X0465571
M30
