M48
;Layer_Color=9474304
;FILE_FORMAT=2:5
INCH
;TYPE=PLATED
T01F00S00C0.00787
T02F00S00C0.03150
T03F00S00C0.03504
T04F00S00C0.04016
T05F00S00C0.06417
%
T01
X0468772Y0447119
X0484520Y0454456
X0487205Y0440945
X0543976Y0446063
X0548228Y0458661
Y0462598
X0562008Y0461614
X0559055Y0458661
X0568898
X0561024Y0467520
X0535433Y0458661
X0531496Y0475394
X0527165Y0476575
X0522835
X0514272Y0476378
X0509842Y0476575
X0505512
X0501181
X0496850
X0499016Y0484252
Y0488189
X0501968Y0490158
X0508440Y0491929
X0507874Y0496063
Y0498032
Y0500000
X0512303Y0501968
X0519685
Y0498032
Y0494095
X0522146
X0524606Y0493110
X0526575Y0488189
X0529528Y0487205
Y0484252
Y0500000
Y0503937
X0531496Y0505905
Y0509842
Y0511811
X0529528Y0513779
X0533465
X0537402
Y0515748
X0539370
X0543307
Y0513779
Y0509842
X0541339Y0511811
X0537402Y0509842
X0535433Y0507874
X0537402Y0503937
X0539370Y0501968
X0543307
X0545276Y0500000
X0547244Y0501968
X0549213Y0500000
X0551181Y0498032
X0555118
X0553150Y0501968
X0557087Y0503937
X0561811Y0504134
X0561024Y0512795
X0562008Y0520669
X0559547
X0557087
X0560039Y0526575
X0563976Y0523622
X0543307Y0525591
X0541339Y0527559
X0537402
X0535433Y0525591
Y0521654
X0533465
X0529528
X0531496Y0519685
Y0523622
Y0525591
Y0527559
X0529528
X0527559Y0525591
X0525591Y0527559
Y0523622
X0523622
Y0519685
X0521654Y0521654
Y0525591
X0519685Y0527559
X0515748Y0525591
Y0521654
X0517717Y0519685
Y0523622
X0513779
Y0519685
X0511811Y0521654
Y0517717
X0513779Y0515748
X0515748Y0517717
X0517717Y0515748
Y0511811
X0519685Y0509842
X0523622Y0507874
X0525591Y0509842
X0527559
Y0515748
X0525591Y0517717
X0529528
X0531496Y0515748
X0535433Y0517717
X0537402Y0519685
X0539370
X0543307
X0541339Y0521654
X0539370Y0523622
X0537402
Y0531496
X0535433
X0537402Y0533464
X0539370
X0541339
X0543307Y0531496
X0539370Y0529528
X0533465
Y0533464
X0531496
Y0535433
X0529528
Y0531496
X0527559Y0529528
X0523622
X0521654Y0531496
X0519685Y0533464
X0515748
Y0529528
X0517717Y0531496
X0513779
X0511811Y0533464
X0513779Y0535433
X0511811Y0537402
X0515748
X0517717Y0535433
X0521654
X0523622Y0536909
X0525591Y0537402
Y0541339
X0521654
X0523622Y0539370
X0525591Y0545276
X0533465
Y0543307
X0539370
X0541339Y0545276
Y0539370
X0535433Y0537402
Y0535433
X0525591Y0533464
X0513779Y0527559
X0511319Y0528543
X0511811Y0525591
X0513779Y0509842
X0515748Y0507874
X0521654Y0503937
X0525591Y0500000
X0523622Y0513779
X0541339Y0517717
Y0503937
X0539370Y0505905
X0551181Y0480315
X0553642
X0556102
X0570079Y0497835
X0594488Y0531496
Y0539370
X0599213Y0562992
Y0566929
X0598425Y0572835
X0596496Y0574804
X0594527
Y0570866
X0596457Y0570866
X0600394Y0574803
X0586614
X0583661Y0575787
X0581693
Y0572835
X0583661
Y0569882
X0581693
X0581890Y0566929
X0585433
X0588779
X0592323
X0588779Y0562992
X0585433
X0581890
X0577559Y0562992
Y0566929
X0578740Y0570866
X0574803Y0570866
X0572874Y0570866
Y0574804
X0574803Y0574803
X0576772Y0572835
X0570669Y0566929
X0567126
X0563779
X0560236
X0560039Y0569882
X0562008
Y0572835
X0560039
Y0575787
X0562008
X0556102Y0576575
Y0573032
X0551181
Y0576575
X0547244Y0576772
X0537894Y0574803
Y0572342
X0533957Y0573524
X0529528Y0573032
X0528543Y0568898
Y0565158
X0527067Y0562992
X0529035Y0561516
X0531201Y0563484
X0534744
X0536417Y0561024
X0534941Y0559055
X0532972Y0560532
X0538878Y0557579
X0541339
X0543307Y0558563
X0541339Y0562992
Y0566929
X0545276
Y0562992
X0552165Y0565158
Y0568898
X0560236Y0562992
X0563779
X0567126
X0567913Y0559842
X0561024Y0559842
X0555118Y0544291
X0551181Y0541339
X0549213Y0537402
X0545768Y0553150
X0543799Y0552165
X0524606Y0557087
X0525098Y0559547
X0522146Y0556595
X0518701
X0515748Y0558071
X0517717Y0562992
X0521654
Y0566929
X0517717
X0514272Y0572342
Y0574803
X0510335Y0573524
X0505905Y0574606
Y0568898
X0507579Y0563484
X0511122
X0502535Y0563189
X0501181Y0559055
X0504724
X0493528Y0563189
Y0566929
Y0570669
X0497047Y0568898
X0497244Y0576772
X0500787
X0492913
X0489370
X0478346Y0612205
X0549213Y0592520
X0513779Y0549705
Y0547244
X0507874Y0545276
X0508440Y0484449
X0476378Y0503937
X0468504Y0470472
X0491142Y0629921
X0493110
X0495079
X0497047
X0499016
X0500984
Y0633858
X0499016
X0497047
X0495079
X0493110
X0491142
X0488189Y0639764
X0531496
Y0626181
X0562008Y0629921
X0563976
X0565945
X0567913
X0569882
X0571850
Y0633858
X0569882
X0567913
X0565945
X0563976
X0562008
X0574803Y0639764
T02
X0464567Y0442913
Y0450787
Y0458661
Y0466535
X0472441
Y0458661
Y0450787
Y0442913
X0480315
Y0450787
Y0458661
Y0466535
X0500000Y0446850
X0531496
X0551181Y0442913
Y0450787
X0559055
X0566929
Y0442913
X0559055
X0574803Y0442913
Y0450787
X0582677
Y0458661
X0590551
Y0450787
X0598425
Y0458661
Y0466535
X0590551
X0582677
Y0442913
X0590551
X0598425
Y0474409
X0590551
Y0482283
X0598425
Y0490158
X0590551
Y0498032
X0598425
Y0505905
X0590551
Y0513779
X0598425
Y0521654
X0590551
X0582677
Y0513779
Y0505905
Y0498032
Y0490158
Y0482283
Y0474409
Y0529528
Y0537402
X0590551
Y0529528
X0598425
Y0537402
Y0545276
X0590551
Y0553150
X0598425
X0582677
Y0545276
X0480315
Y0553150
X0472441
Y0545276
Y0537402
Y0529528
Y0521654
Y0513779
Y0505905
Y0498032
Y0490158
Y0482283
Y0474409
X0480315
Y0482283
Y0490158
Y0498032
Y0505905
Y0513779
Y0521654
Y0529528
Y0537402
Y0561024
X0472441
Y0568898
X0480315
X0464567
Y0561024
Y0553150
Y0545276
Y0537402
Y0529528
Y0521654
Y0513779
Y0505905
Y0498032
Y0490158
Y0482283
Y0474409
T03
X0513563Y0595079
X0584429
T04
X0478563Y0585079
X0488563
X0498563
X0508563
X0503563Y0595079
X0493563
X0483563
X0554429
X0564429
X0574429
X0579429Y0585079
X0569429
X0559429
X0549429
X0550846Y0639370
X0540846
X0522146
X0512146
X0479980
X0469980
X0583012
X0593012
T05
X0526555Y0608071
X0536437
X0597421
X0465571
M30
