G04*
G04 #@! TF.GenerationSoftware,Altium Limited,Altium Designer,24.5.2 (23)*
G04*
G04 Layer_Physical_Order=2*
G04 Layer_Color=6710886*
%FSLAX25Y25*%
%MOIN*%
G70*
G04*
G04 #@! TF.SameCoordinates,8E4A67B4-94DB-4DCE-88DE-8842EE920FE8*
G04*
G04*
G04 #@! TF.FilePolarity,Negative*
G04*
G01*
G75*
%ADD63C,0.04000*%
%ADD64C,0.03937*%
%ADD65C,0.06299*%
%ADD66C,0.13583*%
%ADD67C,0.04803*%
%ADD68C,0.04291*%
%ADD69C,0.01575*%
D63*
X-70866Y102362D02*
X70866D01*
X-70866Y-102362D02*
Y102362D01*
Y-102362D02*
X70866D01*
Y102362D01*
D64*
X66929Y-98425D02*
D03*
X51181D02*
D03*
X59055D02*
D03*
X66929Y-74803D02*
D03*
X51181Y-90551D02*
D03*
X66929D02*
D03*
X51181Y-82677D02*
D03*
X59055D02*
D03*
X66929D02*
D03*
X51181Y-74803D02*
D03*
X59055D02*
D03*
X19685Y-90551D02*
D03*
Y-98425D02*
D03*
X0Y-94488D02*
D03*
X27559Y-98425D02*
D03*
X51181Y-66929D02*
D03*
X66929D02*
D03*
X51181Y-59055D02*
D03*
X59055D02*
D03*
X66929D02*
D03*
X51181Y-51181D02*
D03*
X59055D02*
D03*
X66929D02*
D03*
X51181Y-43307D02*
D03*
X66929D02*
D03*
X51181Y-35433D02*
D03*
X59055D02*
D03*
X66929D02*
D03*
Y-27559D02*
D03*
X59055D02*
D03*
X51181D02*
D03*
X66929Y-19685D02*
D03*
X51181D02*
D03*
Y-11811D02*
D03*
X59055D02*
D03*
X66929D02*
D03*
X59055Y-3937D02*
D03*
X66929D02*
D03*
X51181D02*
D03*
X35433Y-98425D02*
D03*
X43307Y-98425D02*
D03*
X35433Y-90551D02*
D03*
X-66929Y3937D02*
D03*
Y11811D02*
D03*
Y19685D02*
D03*
X-59055Y27559D02*
D03*
Y3937D02*
D03*
Y11811D02*
D03*
X-51181Y19685D02*
D03*
Y11811D02*
D03*
Y3937D02*
D03*
X-66929Y27559D02*
D03*
X-51181D02*
D03*
X51181Y3937D02*
D03*
X66929D02*
D03*
X59055Y11811D02*
D03*
X51181D02*
D03*
X66929D02*
D03*
X-66929Y-66929D02*
D03*
X-59055D02*
D03*
X-51181D02*
D03*
X-66929Y-59055D02*
D03*
X-59055D02*
D03*
X-51181D02*
D03*
X-66929Y-51181D02*
D03*
X-51181D02*
D03*
X-66929Y-43307D02*
D03*
X-59055D02*
D03*
X-51181D02*
D03*
X-66929Y-35433D02*
D03*
X-59055D02*
D03*
X-51181D02*
D03*
X-66929Y-98425D02*
D03*
X-59055D02*
D03*
X-51181D02*
D03*
X-66929Y-90551D02*
D03*
X-51181D02*
D03*
X-66929Y-82677D02*
D03*
X-59055D02*
D03*
X-51181D02*
D03*
X-66929Y-74803D02*
D03*
X-51181D02*
D03*
X-31496Y-94488D02*
D03*
X-66929Y-27559D02*
D03*
X-51181D02*
D03*
Y-19685D02*
D03*
X-59055D02*
D03*
X-66929D02*
D03*
X-59055Y-11811D02*
D03*
X-51181D02*
D03*
X-66929D02*
D03*
Y-3937D02*
D03*
X-51181D02*
D03*
D65*
X-35433Y-76772D02*
D03*
X3937D02*
D03*
D66*
X-12933Y78740D02*
D03*
X-57933D02*
D03*
X57933D02*
D03*
X12933D02*
D03*
D67*
X-61516Y98032D02*
D03*
X-9350D02*
D03*
X-22933Y43740D02*
D03*
X-27933Y53740D02*
D03*
X-32933Y43740D02*
D03*
X-37933Y53740D02*
D03*
X-42933Y43740D02*
D03*
X-47933Y53740D02*
D03*
X-52933Y43740D02*
D03*
X9350Y98032D02*
D03*
X61516D02*
D03*
X47933Y43740D02*
D03*
X42933Y53740D02*
D03*
X37933Y43740D02*
D03*
X32933Y53740D02*
D03*
X27933Y43740D02*
D03*
X22933Y53740D02*
D03*
X17933Y43740D02*
D03*
D68*
X-17933Y53740D02*
D03*
X52933D02*
D03*
D69*
X25591Y-37402D02*
D03*
X30512Y-79724D02*
D03*
X3937Y-82677D02*
D03*
X27559D02*
D03*
X16732D02*
D03*
X-1969Y-54134D02*
D03*
X13780Y-41339D02*
D03*
X17717D02*
D03*
X15748Y-39370D02*
D03*
X7874D02*
D03*
X11811D02*
D03*
X5906Y-37402D02*
D03*
X9843Y-37402D02*
D03*
X7874Y-35433D02*
D03*
X0D02*
D03*
X3937Y-33465D02*
D03*
X5906Y-31496D02*
D03*
X38583Y-43504D02*
D03*
X11811Y-31496D02*
D03*
X9843Y-29528D02*
D03*
X29528Y-28543D02*
D03*
X30512Y-20669D02*
D03*
X25591D02*
D03*
X9843Y-19685D02*
D03*
X11811Y-15748D02*
D03*
X28543Y-14764D02*
D03*
X62992Y-9843D02*
D03*
X11811D02*
D03*
X62992Y-1969D02*
D03*
X24606Y-61024D02*
D03*
X19685D02*
D03*
X-37968Y21850D02*
D03*
X-34449Y27559D02*
D03*
X-30315Y17717D02*
D03*
X-26772D02*
D03*
X3445Y17717D02*
D03*
X-9843Y0D02*
D03*
X-5906D02*
D03*
X-17717Y5906D02*
D03*
X-12795Y15256D02*
D03*
X-9350D02*
D03*
X-15748Y16732D02*
D03*
X7382Y16240D02*
D03*
X-6398Y18209D02*
D03*
X4921Y19685D02*
D03*
X-4429Y21654D02*
D03*
X-20374Y22146D02*
D03*
X3248D02*
D03*
X-25591Y27559D02*
D03*
X-2953D02*
D03*
X-43307Y98425D02*
D03*
X-53150Y70866D02*
D03*
X-40354Y92520D02*
D03*
X-38583Y35433D02*
D03*
X-38386Y92520D02*
D03*
X-37968Y29331D02*
D03*
X6398Y31004D02*
D03*
X-17224D02*
D03*
X-1969Y31693D02*
D03*
X-34252Y35433D02*
D03*
X-36417Y92520D02*
D03*
X-34449D02*
D03*
X-32480D02*
D03*
X-30512D02*
D03*
X0Y98425D02*
D03*
X9843Y16240D02*
D03*
X12303Y10827D02*
D03*
X19685Y0D02*
D03*
X20669Y27559D02*
D03*
X28543Y28543D02*
D03*
X28740Y25591D02*
D03*
X67716Y21654D02*
D03*
X50394D02*
D03*
X28740Y21654D02*
D03*
X46063D02*
D03*
X60827Y25591D02*
D03*
X57284D02*
D03*
X50394D02*
D03*
X35630Y25591D02*
D03*
X39173D02*
D03*
X50197Y28543D02*
D03*
X52165D02*
D03*
X30512Y28543D02*
D03*
X63032Y29527D02*
D03*
X41378Y29527D02*
D03*
X47244Y29528D02*
D03*
X43307Y29528D02*
D03*
X28543Y31496D02*
D03*
X30512D02*
D03*
Y34449D02*
D03*
X28543D02*
D03*
X24606Y35236D02*
D03*
X19685D02*
D03*
X15748Y35433D02*
D03*
X17717Y51181D02*
D03*
X34449Y92520D02*
D03*
X30512D02*
D03*
X32480D02*
D03*
X36417D02*
D03*
X38386D02*
D03*
X40354D02*
D03*
X64961Y29528D02*
D03*
X50197Y31496D02*
D03*
X52165D02*
D03*
X66929D02*
D03*
X45276Y31496D02*
D03*
X55118Y33465D02*
D03*
X68898D02*
D03*
X50197Y34449D02*
D03*
X52165D02*
D03*
X43307Y98425D02*
D03*
X-55118Y-37402D02*
D03*
X-62724Y-94220D02*
D03*
X-46976Y-86883D02*
D03*
X-62992Y-70866D02*
D03*
X-17224Y-64961D02*
D03*
X-34646Y-64764D02*
D03*
X-30315D02*
D03*
X-21654D02*
D03*
X-8661D02*
D03*
X-4331D02*
D03*
X-32480Y-57087D02*
D03*
X-1969D02*
D03*
X-4921Y-53150D02*
D03*
X-29528Y-51181D02*
D03*
X-23056Y-49409D02*
D03*
X-6890Y-48228D02*
D03*
X-11811Y-47244D02*
D03*
X-9350D02*
D03*
X-11811Y-43307D02*
D03*
X-1969Y-41339D02*
D03*
X-5906D02*
D03*
X-11811Y-39370D02*
D03*
X-1969Y-37402D02*
D03*
X-9843Y-37402D02*
D03*
X-15748Y-33465D02*
D03*
X-7874D02*
D03*
X-5906Y-31496D02*
D03*
X-17717D02*
D03*
Y-25591D02*
D03*
X-19685Y-23622D02*
D03*
X-15748D02*
D03*
X-17717Y-21654D02*
D03*
X-13780D02*
D03*
X-19685Y-19685D02*
D03*
X-15748D02*
D03*
X-17717Y-17717D02*
D03*
X-15748Y-15748D02*
D03*
X-19685D02*
D03*
X-17717Y-13780D02*
D03*
X-20177Y-12795D02*
D03*
X-15748Y-11811D02*
D03*
X-17717Y-9843D02*
D03*
X-15748Y-7874D02*
D03*
X-19685D02*
D03*
X-17717Y-5906D02*
D03*
X-15748Y-3937D02*
D03*
X-19685D02*
D03*
X-3937Y-31496D02*
D03*
X-7874Y-27559D02*
D03*
X-1969Y-23622D02*
D03*
X-5906D02*
D03*
X-9843Y-19685D02*
D03*
X-1969D02*
D03*
X-13780Y-17717D02*
D03*
X-5906D02*
D03*
X-7874D02*
D03*
X-11811Y-13780D02*
D03*
X-7874Y-11811D02*
D03*
X-3937D02*
D03*
X-13780Y-9843D02*
D03*
X-1969D02*
D03*
X-5906Y-7874D02*
D03*
X-11811D02*
D03*
X-13780Y-5906D02*
D03*
X-9843D02*
D03*
X-7874Y-1969D02*
D03*
X-1969Y-27559D02*
D03*
X1969D02*
D03*
X3937Y-23622D02*
D03*
X1969Y-19685D02*
D03*
X3937D02*
D03*
Y-15748D02*
D03*
X5906Y-13780D02*
D03*
X1969Y-11811D02*
D03*
X7874D02*
D03*
M02*
