G04*
G04 #@! TF.GenerationSoftware,Altium Limited,Altium Designer,24.5.2 (23)*
G04*
G04 Layer_Color=16777215*
%FSLAX25Y25*%
%MOIN*%
G70*
G04*
G04 #@! TF.SameCoordinates,5896D42C-AEC6-4B40-896E-768CB86E770B*
G04*
G04*
G04 #@! TF.FilePolarity,Positive*
G04*
G01*
G75*
%ADD10C,0.00591*%
G36*
X-32210Y92447D02*
X-32301Y92454D01*
X-32388Y92458D01*
X-32465Y92465D01*
X-32534Y92469D01*
X-32596Y92472D01*
X-32650Y92476D01*
X-32701D01*
X-32741Y92480D01*
X-32781D01*
X-32810Y92483D01*
X-32890D01*
X-32978Y92480D01*
X-33062Y92476D01*
X-33142Y92465D01*
X-33215Y92454D01*
X-33280Y92440D01*
X-33342Y92421D01*
X-33397Y92403D01*
X-33447Y92385D01*
X-33491Y92367D01*
X-33531Y92349D01*
X-33560Y92334D01*
X-33589Y92316D01*
X-33611Y92305D01*
X-33626Y92294D01*
X-33633Y92290D01*
X-33637Y92287D01*
X-33684Y92247D01*
X-33724Y92207D01*
X-33757Y92163D01*
X-33790Y92119D01*
X-33815Y92072D01*
X-33833Y92028D01*
X-33852Y91981D01*
X-33866Y91937D01*
X-33877Y91897D01*
X-33884Y91861D01*
X-33891Y91825D01*
X-33895Y91795D01*
X-33899Y91770D01*
Y91752D01*
Y91741D01*
Y91737D01*
X-33895Y91672D01*
X-33888Y91610D01*
X-33873Y91551D01*
X-33859Y91497D01*
X-33841Y91446D01*
X-33819Y91399D01*
X-33793Y91355D01*
X-33771Y91319D01*
X-33746Y91282D01*
X-33720Y91253D01*
X-33699Y91228D01*
X-33680Y91206D01*
X-33666Y91188D01*
X-33651Y91176D01*
X-33644Y91169D01*
X-33640Y91166D01*
X-33589Y91129D01*
X-33538Y91097D01*
X-33484Y91067D01*
X-33426Y91042D01*
X-33371Y91020D01*
X-33313Y91002D01*
X-33207Y90976D01*
X-33156Y90969D01*
X-33109Y90962D01*
X-33069Y90958D01*
X-33033Y90955D01*
X-33003Y90951D01*
X-32963D01*
X-32887Y90955D01*
X-32807Y90962D01*
X-32730Y90976D01*
X-32658Y90995D01*
X-32585Y91013D01*
X-32519Y91038D01*
X-32454Y91064D01*
X-32392Y91089D01*
X-32337Y91115D01*
X-32290Y91136D01*
X-32246Y91162D01*
X-32206Y91180D01*
X-32177Y91198D01*
X-32155Y91213D01*
X-32141Y91220D01*
X-32137Y91224D01*
Y90580D01*
X-32195Y90551D01*
X-32261Y90525D01*
X-32330Y90503D01*
X-32406Y90481D01*
X-32556Y90452D01*
X-32701Y90434D01*
X-32770Y90427D01*
X-32836Y90419D01*
X-32894Y90416D01*
X-32945D01*
X-32985Y90412D01*
X-33043D01*
X-33174Y90416D01*
X-33298Y90427D01*
X-33415Y90445D01*
X-33524Y90470D01*
X-33622Y90496D01*
X-33717Y90529D01*
X-33801Y90561D01*
X-33877Y90598D01*
X-33946Y90631D01*
X-34004Y90663D01*
X-34055Y90696D01*
X-34095Y90721D01*
X-34128Y90747D01*
X-34154Y90765D01*
X-34168Y90776D01*
X-34172Y90780D01*
X-34245Y90853D01*
X-34306Y90929D01*
X-34361Y91009D01*
X-34408Y91089D01*
X-34449Y91173D01*
X-34481Y91257D01*
X-34510Y91337D01*
X-34532Y91413D01*
X-34550Y91486D01*
X-34561Y91551D01*
X-34572Y91613D01*
X-34576Y91664D01*
X-34580Y91708D01*
X-34583Y91741D01*
Y91759D01*
Y91766D01*
X-34580Y91872D01*
X-34569Y91974D01*
X-34550Y92068D01*
X-34528Y92159D01*
X-34499Y92239D01*
X-34470Y92316D01*
X-34438Y92385D01*
X-34405Y92447D01*
X-34368Y92505D01*
X-34336Y92552D01*
X-34306Y92596D01*
X-34281Y92629D01*
X-34255Y92654D01*
X-34237Y92676D01*
X-34226Y92687D01*
X-34223Y92691D01*
X-34154Y92749D01*
X-34077Y92804D01*
X-33997Y92847D01*
X-33913Y92887D01*
X-33830Y92920D01*
X-33746Y92946D01*
X-33662Y92967D01*
X-33582Y92986D01*
X-33506Y93000D01*
X-33433Y93011D01*
X-33371Y93018D01*
X-33316Y93026D01*
X-33269D01*
X-33236Y93029D01*
X-33207D01*
X-33083Y93026D01*
X-33022D01*
X-32967Y93022D01*
X-32916Y93018D01*
X-32880D01*
X-32865Y93015D01*
X-32847D01*
X-32916Y94056D01*
X-34398D01*
Y94627D01*
X-32359D01*
X-32210Y92447D01*
D02*
G37*
G36*
X-36476Y90489D02*
X-37244D01*
X-38729Y94627D01*
X-38001D01*
X-36956Y91490D01*
X-36935Y91420D01*
X-36916Y91355D01*
X-36902Y91293D01*
X-36891Y91242D01*
X-36884Y91198D01*
X-36876Y91166D01*
X-36873Y91144D01*
Y91140D01*
Y91136D01*
X-36862D01*
X-36851Y91209D01*
X-36840Y91275D01*
X-36825Y91337D01*
X-36814Y91388D01*
X-36803Y91428D01*
X-36793Y91461D01*
X-36789Y91479D01*
X-36785Y91486D01*
X-35766Y94627D01*
X-35016D01*
X-36476Y90489D01*
D02*
G37*
G36*
X37249Y90450D02*
X36587D01*
Y93162D01*
Y93242D01*
Y93311D01*
X36591Y93377D01*
Y93435D01*
Y93486D01*
X36594Y93533D01*
Y93573D01*
X36598Y93610D01*
X36601Y93639D01*
Y93664D01*
X36605Y93686D01*
Y93704D01*
Y93715D01*
X36609Y93723D01*
Y93730D01*
X36591D01*
X36551Y93639D01*
X36529Y93599D01*
X36511Y93563D01*
X36492Y93533D01*
X36478Y93512D01*
X36470Y93493D01*
X36467Y93490D01*
X34490Y90450D01*
X33740D01*
Y94589D01*
X34399D01*
Y91921D01*
Y91852D01*
Y91783D01*
X34396Y91724D01*
Y91670D01*
X34392Y91619D01*
Y91571D01*
X34388Y91531D01*
X34385Y91495D01*
Y91462D01*
X34381Y91437D01*
Y91415D01*
X34378Y91397D01*
Y91382D01*
X34374Y91371D01*
Y91368D01*
Y91364D01*
X34385D01*
X34399Y91393D01*
X34421Y91433D01*
X34450Y91477D01*
X34476Y91517D01*
X34501Y91557D01*
X34523Y91590D01*
X34534Y91611D01*
X34541Y91615D01*
Y91619D01*
X36449Y94589D01*
X37249D01*
Y90450D01*
D02*
G37*
G36*
X39608Y94651D02*
X39776Y94633D01*
X39936Y94600D01*
X40085Y94560D01*
X40223Y94516D01*
X40354Y94462D01*
X40475Y94407D01*
X40584Y94349D01*
X40678Y94291D01*
X40766Y94236D01*
X40839Y94181D01*
X40900Y94138D01*
X40948Y94098D01*
X40984Y94065D01*
X41006Y94047D01*
X41010Y94043D01*
X41013Y94039D01*
X41071Y93981D01*
X41122Y93919D01*
X41217Y93796D01*
X41301Y93664D01*
X41374Y93533D01*
X41432Y93402D01*
X41483Y93271D01*
X41526Y93144D01*
X41559Y93020D01*
X41585Y92907D01*
X41603Y92798D01*
X41617Y92703D01*
X41621Y92664D01*
X41625Y92623D01*
X41628Y92587D01*
X41632Y92558D01*
Y92529D01*
X41636Y92507D01*
Y92489D01*
Y92474D01*
Y92467D01*
Y92463D01*
X41628Y92292D01*
X41610Y92128D01*
X41585Y91972D01*
X41548Y91830D01*
X41505Y91695D01*
X41457Y91571D01*
X41406Y91455D01*
X41352Y91353D01*
X41297Y91262D01*
X41246Y91178D01*
X41199Y91109D01*
X41155Y91055D01*
X41119Y91007D01*
X41093Y90974D01*
X41075Y90956D01*
X41068Y90949D01*
X40959Y90851D01*
X40842Y90763D01*
X40718Y90687D01*
X40595Y90621D01*
X40471Y90567D01*
X40347Y90519D01*
X40227Y90483D01*
X40110Y90454D01*
X40001Y90429D01*
X39899Y90410D01*
X39808Y90399D01*
X39732Y90389D01*
X39699D01*
X39666Y90385D01*
X39641D01*
X39619Y90381D01*
X39579D01*
X39433Y90385D01*
X39288Y90396D01*
X39153Y90414D01*
X39018Y90436D01*
X38895Y90465D01*
X38775Y90494D01*
X38665Y90523D01*
X38563Y90560D01*
X38469Y90592D01*
X38385Y90621D01*
X38316Y90654D01*
X38254Y90680D01*
X38207Y90702D01*
X38170Y90720D01*
X38148Y90731D01*
X38141Y90734D01*
Y92700D01*
X39696D01*
Y92121D01*
X38826D01*
Y91138D01*
X38884Y91109D01*
X38946Y91084D01*
X39073Y91044D01*
X39197Y91014D01*
X39310Y90996D01*
X39364Y90989D01*
X39412Y90982D01*
X39455Y90978D01*
X39492D01*
X39524Y90974D01*
X39564D01*
X39677Y90978D01*
X39786Y90993D01*
X39885Y91011D01*
X39979Y91040D01*
X40070Y91069D01*
X40150Y91102D01*
X40223Y91142D01*
X40293Y91178D01*
X40351Y91215D01*
X40402Y91255D01*
X40449Y91287D01*
X40485Y91320D01*
X40514Y91346D01*
X40533Y91364D01*
X40547Y91378D01*
X40551Y91382D01*
X40616Y91462D01*
X40671Y91546D01*
X40718Y91637D01*
X40762Y91728D01*
X40795Y91823D01*
X40828Y91914D01*
X40849Y92005D01*
X40868Y92096D01*
X40886Y92176D01*
X40897Y92252D01*
X40904Y92321D01*
X40908Y92383D01*
X40911Y92431D01*
X40915Y92467D01*
Y92481D01*
Y92492D01*
Y92496D01*
Y92500D01*
X40911Y92627D01*
X40897Y92747D01*
X40875Y92860D01*
X40849Y92969D01*
X40817Y93068D01*
X40780Y93162D01*
X40744Y93246D01*
X40704Y93322D01*
X40664Y93392D01*
X40627Y93453D01*
X40591Y93504D01*
X40558Y93548D01*
X40533Y93584D01*
X40511Y93610D01*
X40496Y93624D01*
X40493Y93628D01*
X40413Y93704D01*
X40325Y93774D01*
X40234Y93832D01*
X40143Y93879D01*
X40052Y93923D01*
X39965Y93959D01*
X39878Y93988D01*
X39790Y94010D01*
X39714Y94029D01*
X39641Y94043D01*
X39575Y94050D01*
X39517Y94058D01*
X39474Y94061D01*
X39437Y94065D01*
X39408D01*
X39288Y94061D01*
X39171Y94050D01*
X39059Y94036D01*
X38953Y94014D01*
X38851Y93992D01*
X38760Y93967D01*
X38673Y93937D01*
X38593Y93908D01*
X38520Y93876D01*
X38458Y93850D01*
X38403Y93821D01*
X38356Y93799D01*
X38320Y93777D01*
X38294Y93763D01*
X38276Y93752D01*
X38272Y93748D01*
Y94454D01*
X38363Y94491D01*
X38458Y94524D01*
X38556Y94549D01*
X38655Y94571D01*
X38847Y94607D01*
X38942Y94622D01*
X39029Y94633D01*
X39113Y94640D01*
X39190Y94647D01*
X39259Y94651D01*
X39317Y94655D01*
X39368Y94658D01*
X39433D01*
X39608Y94651D01*
D02*
G37*
G36*
X32714Y90450D02*
X31567D01*
X31371Y90458D01*
X31189Y90476D01*
X31014Y90505D01*
X30850Y90541D01*
X30701Y90585D01*
X30559Y90632D01*
X30432Y90687D01*
X30319Y90741D01*
X30213Y90793D01*
X30122Y90847D01*
X30046Y90894D01*
X29984Y90938D01*
X29933Y90974D01*
X29897Y91004D01*
X29886Y91014D01*
X29875Y91022D01*
X29868Y91029D01*
X29809Y91084D01*
X29755Y91142D01*
X29656Y91262D01*
X29573Y91386D01*
X29500Y91517D01*
X29438Y91644D01*
X29387Y91772D01*
X29343Y91899D01*
X29311Y92019D01*
X29285Y92132D01*
X29263Y92234D01*
X29249Y92329D01*
X29245Y92372D01*
X29241Y92409D01*
X29238Y92445D01*
X29234Y92478D01*
Y92503D01*
X29230Y92525D01*
Y92543D01*
Y92558D01*
Y92565D01*
Y92569D01*
X29238Y92751D01*
X29256Y92926D01*
X29289Y93086D01*
X29329Y93235D01*
X29380Y93377D01*
X29442Y93504D01*
X29511Y93624D01*
X29587Y93737D01*
X29671Y93839D01*
X29762Y93934D01*
X29857Y94018D01*
X29955Y94098D01*
X30057Y94167D01*
X30162Y94229D01*
X30268Y94287D01*
X30373Y94338D01*
X30483Y94382D01*
X30588Y94422D01*
X30694Y94454D01*
X30796Y94484D01*
X30894Y94505D01*
X30989Y94527D01*
X31080Y94545D01*
X31163Y94556D01*
X31240Y94567D01*
X31309Y94574D01*
X31371Y94582D01*
X31422Y94585D01*
X31462Y94589D01*
X32714D01*
Y90450D01*
D02*
G37*
G36*
X31647Y-83581D02*
X31644Y-83669D01*
X31640Y-83755D01*
X31631Y-83830D01*
X31617Y-83899D01*
X31604Y-83961D01*
X31588Y-84020D01*
X31571Y-84070D01*
X31552Y-84112D01*
X31535Y-84152D01*
X31519Y-84184D01*
X31503Y-84214D01*
X31490Y-84233D01*
X31476Y-84253D01*
X31466Y-84263D01*
X31463Y-84270D01*
X31460Y-84273D01*
X31421Y-84306D01*
X31378Y-84335D01*
X31329Y-84361D01*
X31273Y-84381D01*
X31217Y-84401D01*
X31161Y-84417D01*
X31047Y-84440D01*
X30994Y-84447D01*
X30942Y-84453D01*
X30896Y-84457D01*
X30856Y-84460D01*
X30820Y-84463D01*
X28734D01*
X28646Y-84460D01*
X28564Y-84457D01*
X28488Y-84447D01*
X28419Y-84434D01*
X28357Y-84421D01*
X28305Y-84404D01*
X28252Y-84388D01*
X28209Y-84368D01*
X28173Y-84352D01*
X28141Y-84335D01*
X28114Y-84319D01*
X28091Y-84306D01*
X28075Y-84293D01*
X28065Y-84283D01*
X28059Y-84279D01*
X28055Y-84276D01*
X28023Y-84237D01*
X27993Y-84191D01*
X27967Y-84142D01*
X27944Y-84086D01*
X27927Y-84030D01*
X27911Y-83971D01*
X27888Y-83856D01*
X27882Y-83801D01*
X27875Y-83751D01*
X27872Y-83702D01*
X27868Y-83663D01*
X27865Y-83630D01*
Y-83604D01*
Y-83587D01*
Y-83581D01*
Y-80891D01*
X28567D01*
Y-83850D01*
X30935D01*
Y-80891D01*
X31647D01*
Y-83581D01*
D02*
G37*
G36*
X20606D02*
X20603Y-83669D01*
X20600Y-83755D01*
X20590Y-83830D01*
X20577Y-83899D01*
X20564Y-83961D01*
X20547Y-84020D01*
X20531Y-84070D01*
X20511Y-84112D01*
X20495Y-84152D01*
X20479Y-84184D01*
X20462Y-84214D01*
X20449Y-84233D01*
X20436Y-84253D01*
X20426Y-84263D01*
X20423Y-84270D01*
X20419Y-84273D01*
X20380Y-84306D01*
X20337Y-84335D01*
X20288Y-84361D01*
X20233Y-84381D01*
X20177Y-84401D01*
X20121Y-84417D01*
X20006Y-84440D01*
X19954Y-84447D01*
X19901Y-84453D01*
X19855Y-84457D01*
X19816Y-84460D01*
X19780Y-84463D01*
X17694D01*
X17605Y-84460D01*
X17523Y-84457D01*
X17448Y-84447D01*
X17379Y-84434D01*
X17317Y-84421D01*
X17264Y-84404D01*
X17212Y-84388D01*
X17169Y-84368D01*
X17133Y-84352D01*
X17100Y-84335D01*
X17074Y-84319D01*
X17051Y-84306D01*
X17034Y-84293D01*
X17025Y-84283D01*
X17018Y-84280D01*
X17015Y-84276D01*
X16982Y-84237D01*
X16952Y-84191D01*
X16926Y-84142D01*
X16903Y-84086D01*
X16887Y-84030D01*
X16871Y-83971D01*
X16848Y-83856D01*
X16841Y-83801D01*
X16835Y-83751D01*
X16831Y-83702D01*
X16828Y-83663D01*
X16825Y-83630D01*
Y-83604D01*
Y-83587D01*
Y-83581D01*
Y-80891D01*
X17526D01*
Y-83850D01*
X19895Y-83850D01*
Y-80891D01*
X20606D01*
Y-83581D01*
D02*
G37*
G36*
X46167Y-81495D02*
X44596D01*
Y-84463D01*
X43888D01*
Y-81495D01*
X42310D01*
Y-80891D01*
X46167D01*
Y-81495D01*
D02*
G37*
G36*
X40667Y-80895D02*
X40749Y-80901D01*
X40824Y-80908D01*
X40893Y-80921D01*
X40956Y-80937D01*
X41015Y-80954D01*
X41064Y-80970D01*
X41107Y-80986D01*
X41146Y-81006D01*
X41179Y-81022D01*
X41205Y-81039D01*
X41228Y-81055D01*
X41244Y-81068D01*
X41254Y-81075D01*
X41261Y-81081D01*
X41264Y-81085D01*
X41297Y-81124D01*
X41323Y-81170D01*
X41349Y-81219D01*
X41369Y-81275D01*
X41402Y-81387D01*
X41425Y-81501D01*
X41431Y-81557D01*
X41438Y-81606D01*
X41441Y-81652D01*
X41444Y-81691D01*
X41448Y-81728D01*
Y-81751D01*
Y-81767D01*
Y-81774D01*
Y-83581D01*
X41444Y-83669D01*
X41441Y-83755D01*
X41431Y-83830D01*
X41418Y-83899D01*
X41405Y-83961D01*
X41388Y-84020D01*
X41372Y-84070D01*
X41356Y-84112D01*
X41339Y-84152D01*
X41323Y-84184D01*
X41306Y-84214D01*
X41293Y-84233D01*
X41280Y-84253D01*
X41271Y-84263D01*
X41267Y-84270D01*
X41264Y-84273D01*
X41225Y-84306D01*
X41182Y-84335D01*
X41129Y-84361D01*
X41077Y-84381D01*
X41021Y-84401D01*
X40962Y-84417D01*
X40851Y-84440D01*
X40795Y-84447D01*
X40742Y-84453D01*
X40696Y-84457D01*
X40657Y-84460D01*
X40621Y-84463D01*
X38197D01*
X38109Y-84460D01*
X38026Y-84457D01*
X37951Y-84447D01*
X37882Y-84434D01*
X37820Y-84421D01*
X37767Y-84404D01*
X37715Y-84388D01*
X37672Y-84368D01*
X37636Y-84352D01*
X37603Y-84335D01*
X37577Y-84319D01*
X37554Y-84306D01*
X37538Y-84293D01*
X37528Y-84283D01*
X37521Y-84279D01*
X37518Y-84276D01*
X37485Y-84237D01*
X37456Y-84191D01*
X37430Y-84142D01*
X37407Y-84086D01*
X37390Y-84030D01*
X37374Y-83971D01*
X37351Y-83856D01*
X37344Y-83801D01*
X37338Y-83751D01*
X37334Y-83702D01*
X37331Y-83663D01*
X37328Y-83630D01*
Y-83604D01*
Y-83587D01*
Y-83581D01*
Y-81774D01*
X37331Y-81685D01*
X37334Y-81600D01*
X37344Y-81524D01*
X37357Y-81455D01*
X37370Y-81393D01*
X37387Y-81337D01*
X37407Y-81285D01*
X37423Y-81242D01*
X37439Y-81203D01*
X37459Y-81170D01*
X37475Y-81144D01*
X37489Y-81121D01*
X37502Y-81104D01*
X37508Y-81095D01*
X37515Y-81088D01*
X37518Y-81085D01*
X37558Y-81052D01*
X37600Y-81019D01*
X37649Y-80996D01*
X37702Y-80973D01*
X37758Y-80954D01*
X37817Y-80937D01*
X37928Y-80914D01*
X37981Y-80908D01*
X38033Y-80901D01*
X38076Y-80898D01*
X38118Y-80895D01*
X38151Y-80891D01*
X40575D01*
X40667Y-80895D01*
D02*
G37*
G36*
X36413Y-81495D02*
X34842D01*
Y-84463D01*
X34133D01*
Y-81495D01*
X32555D01*
Y-80891D01*
X36413D01*
Y-81495D01*
D02*
G37*
G36*
X26101Y-84463D02*
X24054D01*
X23968Y-84460D01*
X23887Y-84457D01*
X23811Y-84453D01*
X23739Y-84447D01*
X23673Y-84443D01*
X23611Y-84437D01*
X23555Y-84430D01*
X23506Y-84424D01*
X23460Y-84417D01*
X23421Y-84414D01*
X23391Y-84407D01*
X23365Y-84404D01*
X23348Y-84401D01*
X23335Y-84398D01*
X23332D01*
X23214Y-84368D01*
X23106Y-84329D01*
X23007Y-84283D01*
X22962Y-84260D01*
X22922Y-84237D01*
X22886Y-84217D01*
X22853Y-84197D01*
X22824Y-84178D01*
X22801Y-84161D01*
X22781Y-84148D01*
X22765Y-84138D01*
X22758Y-84132D01*
X22755Y-84129D01*
X22696Y-84092D01*
X22640Y-84056D01*
X22588Y-84014D01*
X22538Y-83968D01*
X22489Y-83919D01*
X22446Y-83873D01*
X22411Y-83824D01*
X22374Y-83778D01*
X22342Y-83732D01*
X22315Y-83692D01*
X22292Y-83653D01*
X22273Y-83620D01*
X22256Y-83594D01*
X22246Y-83571D01*
X22240Y-83558D01*
X22237Y-83555D01*
X22200Y-83479D01*
X22171Y-83400D01*
X22145Y-83322D01*
X22122Y-83243D01*
X22102Y-83167D01*
X22089Y-83092D01*
X22076Y-83020D01*
X22063Y-82954D01*
X22056Y-82892D01*
X22050Y-82833D01*
X22046Y-82784D01*
X22043Y-82738D01*
X22040Y-82705D01*
Y-82679D01*
Y-82662D01*
Y-82656D01*
X22043Y-82571D01*
X22050Y-82485D01*
X22060Y-82403D01*
X22069Y-82325D01*
X22086Y-82249D01*
X22102Y-82180D01*
X22122Y-82111D01*
X22138Y-82052D01*
X22158Y-81997D01*
X22178Y-81944D01*
X22194Y-81901D01*
X22207Y-81865D01*
X22220Y-81836D01*
X22230Y-81813D01*
X22237Y-81800D01*
X22240Y-81796D01*
X22279Y-81724D01*
X22319Y-81655D01*
X22361Y-81593D01*
X22404Y-81534D01*
X22446Y-81482D01*
X22489Y-81432D01*
X22532Y-81390D01*
X22571Y-81350D01*
X22607Y-81314D01*
X22643Y-81285D01*
X22676Y-81259D01*
X22702Y-81236D01*
X22725Y-81219D01*
X22742Y-81209D01*
X22752Y-81203D01*
X22755Y-81200D01*
X22853Y-81141D01*
X22955Y-81088D01*
X23053Y-81049D01*
X23145Y-81016D01*
X23185Y-81003D01*
X23221Y-80990D01*
X23257Y-80980D01*
X23283Y-80973D01*
X23306Y-80967D01*
X23326Y-80963D01*
X23335Y-80960D01*
X23339D01*
X23401Y-80947D01*
X23467Y-80937D01*
X23601Y-80921D01*
X23736Y-80908D01*
X23801Y-80904D01*
X23864Y-80901D01*
X23919Y-80898D01*
X23975Y-80895D01*
X24021D01*
X24064Y-80891D01*
X26101D01*
Y-84463D01*
D02*
G37*
%LPC*%
G36*
X32030Y94007D02*
X31455D01*
X31316Y94003D01*
X31189Y93992D01*
X31069Y93970D01*
X30959Y93945D01*
X30854Y93912D01*
X30756Y93872D01*
X30668Y93828D01*
X30585Y93781D01*
X30508Y93726D01*
X30439Y93668D01*
X30377Y93610D01*
X30319Y93544D01*
X30264Y93483D01*
X30217Y93413D01*
X30177Y93348D01*
X30141Y93279D01*
X30108Y93209D01*
X30079Y93144D01*
X30053Y93075D01*
X30031Y93013D01*
X29999Y92889D01*
X29984Y92831D01*
X29973Y92780D01*
X29966Y92729D01*
X29962Y92685D01*
X29959Y92645D01*
X29955Y92612D01*
X29951Y92587D01*
Y92569D01*
Y92554D01*
Y92551D01*
X29955Y92420D01*
X29969Y92292D01*
X29988Y92176D01*
X30013Y92067D01*
X30046Y91968D01*
X30079Y91874D01*
X30115Y91790D01*
X30151Y91717D01*
X30191Y91648D01*
X30228Y91590D01*
X30261Y91539D01*
X30293Y91499D01*
X30319Y91466D01*
X30337Y91444D01*
X30352Y91430D01*
X30355Y91426D01*
X30435Y91357D01*
X30519Y91295D01*
X30610Y91240D01*
X30701Y91197D01*
X30796Y91157D01*
X30890Y91127D01*
X30981Y91098D01*
X31072Y91080D01*
X31156Y91062D01*
X31233Y91051D01*
X31302Y91040D01*
X31363Y91036D01*
X31414Y91033D01*
X31451Y91029D01*
X32030D01*
Y94007D01*
D02*
G37*
G36*
X40739Y-81495D02*
X38030D01*
Y-83850D01*
X40739D01*
Y-81495D01*
D02*
G37*
G36*
X25389D02*
X24224D01*
X24080Y-81498D01*
X23945Y-81508D01*
X23824Y-81521D01*
X23713Y-81537D01*
X23611Y-81557D01*
X23516Y-81580D01*
X23434Y-81606D01*
X23362Y-81629D01*
X23296Y-81655D01*
X23244Y-81682D01*
X23198Y-81705D01*
X23162Y-81724D01*
X23132Y-81741D01*
X23112Y-81754D01*
X23099Y-81764D01*
X23096Y-81767D01*
X23037Y-81823D01*
X22988Y-81882D01*
X22942Y-81947D01*
X22906Y-82020D01*
X22873Y-82092D01*
X22847Y-82167D01*
X22824Y-82239D01*
X22807Y-82311D01*
X22791Y-82380D01*
X22781Y-82446D01*
X22774Y-82505D01*
X22771Y-82554D01*
X22768Y-82597D01*
X22765Y-82630D01*
Y-82649D01*
Y-82653D01*
Y-82656D01*
X22768Y-82774D01*
X22778Y-82882D01*
X22794Y-82981D01*
X22814Y-83072D01*
X22840Y-83154D01*
X22866Y-83230D01*
X22896Y-83299D01*
X22925Y-83358D01*
X22958Y-83410D01*
X22988Y-83456D01*
X23014Y-83492D01*
X23037Y-83525D01*
X23060Y-83548D01*
X23076Y-83564D01*
X23086Y-83574D01*
X23089Y-83578D01*
X23155Y-83627D01*
X23231Y-83666D01*
X23316Y-83702D01*
X23404Y-83735D01*
X23496Y-83761D01*
X23591Y-83784D01*
X23686Y-83801D01*
X23778Y-83817D01*
X23867Y-83827D01*
X23952Y-83837D01*
X24027Y-83840D01*
X24093Y-83846D01*
X24149D01*
X24169Y-83850D01*
X25389D01*
Y-81495D01*
D02*
G37*
%LPD*%
D10*
X-8661Y-66634D02*
Y-66437D01*
X-4331Y-66634D02*
Y-66437D01*
X-34646Y-66634D02*
Y-66437D01*
X-30315Y-66634D02*
Y-66437D01*
X-21654Y-66634D02*
Y-66437D01*
X4921Y58957D02*
Y59153D01*
X-13780Y-66535D02*
X-12205D01*
X-26772D02*
X-25197D01*
X-5709Y59055D02*
X-4134D01*
X2953Y-31299D02*
Y-29724D01*
X-9843Y-28346D02*
Y-26772D01*
X-1969Y-31299D02*
Y-29724D01*
X-66929Y46457D02*
Y48031D01*
Y48425D02*
Y50000D01*
Y54331D02*
Y55905D01*
Y56299D02*
Y57874D01*
Y50394D02*
Y51968D01*
Y52362D02*
Y53937D01*
X-66929Y44488D02*
Y46063D01*
Y38583D02*
Y40157D01*
Y40551D02*
Y42126D01*
Y34646D02*
Y36220D01*
Y36614D02*
Y38189D01*
Y42520D02*
Y44094D01*
X2953Y-35236D02*
Y-33661D01*
X-1969Y-35236D02*
Y-33661D01*
X-11614Y-32480D02*
X-10039D01*
X-5709Y-5906D02*
X-4134D01*
X10827Y-15551D02*
Y-13976D01*
X8071Y-8858D02*
X9646D01*
X-15551Y-32480D02*
X-13976D01*
X-11614Y-22638D02*
X-10039D01*
X-7677Y-32480D02*
X-6102D01*
X-10827Y-15551D02*
Y-13976D01*
X12992Y-27559D02*
X14567D01*
X4921Y-23425D02*
Y-21850D01*
X-6693Y-16732D02*
X-5118D01*
X9055Y-27559D02*
X10630D01*
X12008Y-8858D02*
X13583D01*
X4134Y-12795D02*
X5709D01*
X197Y-8858D02*
X1772D01*
X-1772D02*
X-197D01*
X-5709Y-24606D02*
X-4134D01*
X-8858Y-11614D02*
Y-10039D01*
X-3740Y-16732D02*
X-2165D01*
X3937Y-27362D02*
Y-25787D01*
X10039Y-20669D02*
X11614D01*
X4921Y-19488D02*
Y-17913D01*
X-787Y-16732D02*
X787D01*
X45764Y-75460D02*
Y-77428D01*
X44780D01*
X44452Y-77100D01*
Y-75788D01*
X44780Y-75460D01*
X45764D01*
X42812Y-77428D02*
X43468D01*
X43797Y-77100D01*
Y-76444D01*
X43468Y-76116D01*
X42812D01*
X42485Y-76444D01*
Y-76772D01*
X43797D01*
X41829Y-77428D02*
X40845D01*
X40517Y-77100D01*
X40845Y-76772D01*
X41501D01*
X41829Y-76444D01*
X41501Y-76116D01*
X40517D01*
X39861Y-77428D02*
X39205D01*
X39533D01*
Y-76116D01*
X39861D01*
X37565Y-78084D02*
X37237D01*
X36909Y-77756D01*
Y-76116D01*
X37893D01*
X38221Y-76444D01*
Y-77100D01*
X37893Y-77428D01*
X36909D01*
X36253D02*
Y-76116D01*
X35269D01*
X34941Y-76444D01*
Y-77428D01*
X33301D02*
X33957D01*
X34285Y-77100D01*
Y-76444D01*
X33957Y-76116D01*
X33301D01*
X32973Y-76444D01*
Y-76772D01*
X34285D01*
X31005Y-75460D02*
Y-77428D01*
X31989D01*
X32317Y-77100D01*
Y-76444D01*
X31989Y-76116D01*
X31005D01*
X28382Y-75460D02*
Y-77428D01*
X27398D01*
X27070Y-77100D01*
Y-76772D01*
Y-76444D01*
X27398Y-76116D01*
X28382D01*
X26414D02*
Y-77100D01*
X26086Y-77428D01*
X25102D01*
Y-77756D01*
X25430Y-78084D01*
X25758D01*
X25102Y-77428D02*
Y-76116D01*
M02*
