G04*
G04 #@! TF.GenerationSoftware,Altium Limited,Altium Designer,24.5.2 (23)*
G04*
G04 Layer_Color=13421772*
%FSLAX25Y25*%
%MOIN*%
G70*
G04*
G04 #@! TF.SameCoordinates,F4A5412D-A3CB-4EBA-8484-A3087A641F87*
G04*
G04*
G04 #@! TF.FilePolarity,Negative*
G04*
G01*
G75*
%ADD15R,0.03975X0.01803*%
%ADD17R,0.03581X0.00803*%
%ADD18R,0.00803X0.03581*%
%ADD32R,0.02638X0.01181*%
%ADD33R,0.02362X0.05906*%
%ADD34R,0.05906X0.09213*%
%ADD35C,0.00984*%
%ADD36R,0.02362X0.01968*%
G04:AMPARAMS|DCode=37|XSize=23.62mil|YSize=27.56mil|CornerRadius=5.91mil|HoleSize=0mil|Usage=FLASHONLY|Rotation=270.000|XOffset=0mil|YOffset=0mil|HoleType=Round|Shape=RoundedRectangle|*
%AMROUNDEDRECTD37*
21,1,0.02362,0.01575,0,0,270.0*
21,1,0.01181,0.02756,0,0,270.0*
1,1,0.01181,-0.00787,-0.00591*
1,1,0.01181,-0.00787,0.00591*
1,1,0.01181,0.00787,0.00591*
1,1,0.01181,0.00787,-0.00591*
%
%ADD37ROUNDEDRECTD37*%
%ADD38R,0.01968X0.01968*%
%ADD39R,0.01968X0.02362*%
%ADD40R,0.01600X0.01800*%
%ADD41R,0.01000X0.01000*%
%ADD42R,0.07480X0.07480*%
%ADD43R,0.00800X0.01800*%
%ADD44R,0.01800X0.00800*%
%ADD45R,0.01800X0.01600*%
%ADD46R,0.05512X0.03543*%
%ADD47R,0.03543X0.05512*%
%ADD48R,0.03543X0.03150*%
%ADD49R,0.03543X0.07087*%
%ADD50C,0.04921*%
%ADD51R,0.05906X0.05906*%
%ADD52C,0.02756*%
%ADD53C,0.10354*%
%ADD54R,0.07874X0.11811*%
%ADD55C,0.05906*%
D15*
X-33046Y-49409D02*
D03*
Y-53150D02*
D03*
Y-56890D02*
D03*
X-24040D02*
D03*
Y-49409D02*
D03*
X-28961Y29331D02*
D03*
Y21850D02*
D03*
X-37968D02*
D03*
Y25591D02*
D03*
Y29331D02*
D03*
D17*
X27163Y-78740D02*
D03*
X20082D02*
D03*
D18*
X26772Y-81681D02*
D03*
X25197D02*
D03*
X23622D02*
D03*
X22047D02*
D03*
X20472D02*
D03*
Y-75800D02*
D03*
X22047D02*
D03*
X23622D02*
D03*
X25197D02*
D03*
X26772D02*
D03*
D32*
X47205Y33465D02*
D03*
Y31496D02*
D03*
Y29527D02*
D03*
X41378D02*
D03*
Y31496D02*
D03*
Y33465D02*
D03*
X63032Y33465D02*
D03*
Y31496D02*
D03*
Y29527D02*
D03*
X68858D02*
D03*
Y31496D02*
D03*
Y33465D02*
D03*
D33*
X0Y-64764D02*
D03*
X4921D02*
D03*
X-34646D02*
D03*
X-30315D02*
D03*
X-25984D02*
D03*
X-21654D02*
D03*
X-17323D02*
D03*
X-12992D02*
D03*
X-8661D02*
D03*
X-4331D02*
D03*
D34*
X-43976Y-95276D02*
D03*
X12480D02*
D03*
D35*
X23622Y-43307D02*
D03*
X21654D02*
D03*
X19685D02*
D03*
X17717D02*
D03*
X15748D02*
D03*
X13780D02*
D03*
X11811D02*
D03*
X9843D02*
D03*
X7874D02*
D03*
X5906D02*
D03*
X3937D02*
D03*
X1969D02*
D03*
X0D02*
D03*
X-1969D02*
D03*
X-3937D02*
D03*
X-5906D02*
D03*
X-7874D02*
D03*
X-9843D02*
D03*
X-11811D02*
D03*
X-13780D02*
D03*
X-15748D02*
D03*
X-17717D02*
D03*
X-19685D02*
D03*
X-21654D02*
D03*
X-23622D02*
D03*
X23622Y-41339D02*
D03*
X21654D02*
D03*
X19685D02*
D03*
X17717D02*
D03*
X15748D02*
D03*
X13780D02*
D03*
X11811D02*
D03*
X9843D02*
D03*
X7874D02*
D03*
X5906D02*
D03*
X3937D02*
D03*
X1969D02*
D03*
X0D02*
D03*
X-1969D02*
D03*
X-3937D02*
D03*
X-5906D02*
D03*
X-7874D02*
D03*
X-9843D02*
D03*
X-11811D02*
D03*
X-13780D02*
D03*
X-15748D02*
D03*
X-17717D02*
D03*
X-19685D02*
D03*
X-21654D02*
D03*
X-23622D02*
D03*
X23622Y-39370D02*
D03*
X21654D02*
D03*
X15748D02*
D03*
X13780D02*
D03*
X7874D02*
D03*
X3937D02*
D03*
X0D02*
D03*
X-3937D02*
D03*
X-7874D02*
D03*
X-13780D02*
D03*
X-15748D02*
D03*
X-21654D02*
D03*
X-23622D02*
D03*
X23622Y-37402D02*
D03*
X21654D02*
D03*
X17717D02*
D03*
X13780D02*
D03*
X7874D02*
D03*
X5906D02*
D03*
X-1969D02*
D03*
X-5906D02*
D03*
X-7874D02*
D03*
X-13780D02*
D03*
X-17717D02*
D03*
X-21654D02*
D03*
X-23622D02*
D03*
X23622Y-35433D02*
D03*
X21654D02*
D03*
X19685D02*
D03*
X15748D02*
D03*
X11811D02*
D03*
X9843D02*
D03*
X3937D02*
D03*
X1969D02*
D03*
X-1969D02*
D03*
X-3937D02*
D03*
X-9843D02*
D03*
X-11811D02*
D03*
X-15748D02*
D03*
X-19685D02*
D03*
X-21654D02*
D03*
X-23622D02*
D03*
X23622Y-33465D02*
D03*
X21654D02*
D03*
X19685D02*
D03*
X17717D02*
D03*
X13780D02*
D03*
X9843D02*
D03*
X3937D02*
D03*
X0D02*
D03*
X-3937D02*
D03*
X-9843D02*
D03*
X-13780D02*
D03*
X-17717D02*
D03*
X-19685D02*
D03*
X-21654D02*
D03*
X-23622D02*
D03*
X23622Y-31496D02*
D03*
X21654D02*
D03*
X15748D02*
D03*
X11811D02*
D03*
X7874D02*
D03*
X5906D02*
D03*
X1969D02*
D03*
X0D02*
D03*
X-1969D02*
D03*
X-5906D02*
D03*
X-7874D02*
D03*
X-11811D02*
D03*
X-15748D02*
D03*
X-21654D02*
D03*
X-23622D02*
D03*
X23622Y-29528D02*
D03*
X21654D02*
D03*
X15748D02*
D03*
X13780D02*
D03*
X9843D02*
D03*
X7874D02*
D03*
X5906D02*
D03*
X3937D02*
D03*
X0D02*
D03*
X-3937D02*
D03*
X-5906D02*
D03*
X-7874D02*
D03*
X-9843D02*
D03*
X-13780D02*
D03*
X-15748D02*
D03*
X-21654D02*
D03*
X-23622D02*
D03*
X23622Y-27559D02*
D03*
X21654D02*
D03*
X19685D02*
D03*
X17717D02*
D03*
X11811D02*
D03*
X9843D02*
D03*
X3937D02*
D03*
X1969D02*
D03*
X0D02*
D03*
X-1969D02*
D03*
X-9843D02*
D03*
X-11811D02*
D03*
X-17717D02*
D03*
X-19685D02*
D03*
X-21654D02*
D03*
X-23622D02*
D03*
X23622Y-25591D02*
D03*
X21654D02*
D03*
X19685D02*
D03*
X17717D02*
D03*
X11811D02*
D03*
X7874D02*
D03*
X5906D02*
D03*
X0D02*
D03*
X-3937D02*
D03*
X-5906D02*
D03*
X-7874D02*
D03*
X-9843D02*
D03*
X-11811D02*
D03*
X-17717D02*
D03*
X-21654D02*
D03*
X-23622D02*
D03*
X23622Y-23622D02*
D03*
X21654D02*
D03*
X15748D02*
D03*
X13780D02*
D03*
X9843D02*
D03*
X3937D02*
D03*
X1969D02*
D03*
X-1969D02*
D03*
X-3937D02*
D03*
X-9843D02*
D03*
X-13780D02*
D03*
X-15748D02*
D03*
X-19685D02*
D03*
X-21654D02*
D03*
X-23622D02*
D03*
X23622Y-21654D02*
D03*
X21654D02*
D03*
X17717D02*
D03*
X15748D02*
D03*
X11811D02*
D03*
X9843D02*
D03*
X7874D02*
D03*
X5906D02*
D03*
X1969D02*
D03*
X0D02*
D03*
X-5906D02*
D03*
X-7874D02*
D03*
X-9843D02*
D03*
X-11811D02*
D03*
X-15748D02*
D03*
X-17717D02*
D03*
X-21654D02*
D03*
X-23622D02*
D03*
X23622Y-19685D02*
D03*
X21654D02*
D03*
X19685D02*
D03*
X13780D02*
D03*
X9843D02*
D03*
X3937D02*
D03*
X1969D02*
D03*
X0D02*
D03*
X-1969D02*
D03*
X-3937D02*
D03*
X-9843D02*
D03*
X-13780D02*
D03*
X-19685D02*
D03*
X-21654D02*
D03*
X-23622D02*
D03*
X23622Y-17717D02*
D03*
X21654D02*
D03*
X17717D02*
D03*
X15748D02*
D03*
X11811D02*
D03*
X7874D02*
D03*
X5906D02*
D03*
X0D02*
D03*
X-5906D02*
D03*
X-7874D02*
D03*
X-9843D02*
D03*
X-11811D02*
D03*
X-15748D02*
D03*
X-17717D02*
D03*
X-21654D02*
D03*
X-23622D02*
D03*
X23622Y-15748D02*
D03*
X21654D02*
D03*
X19685D02*
D03*
X15748D02*
D03*
X13780D02*
D03*
X9843D02*
D03*
X3937D02*
D03*
X1969D02*
D03*
X0D02*
D03*
X-1969D02*
D03*
X-3937D02*
D03*
X-9843D02*
D03*
X-13780D02*
D03*
X-15748D02*
D03*
X-19685D02*
D03*
X-21654D02*
D03*
X-23622D02*
D03*
X23622Y-13780D02*
D03*
X21654D02*
D03*
X17717D02*
D03*
X11811D02*
D03*
X9843D02*
D03*
X7874D02*
D03*
X5906D02*
D03*
X0D02*
D03*
X-1969D02*
D03*
X-5906D02*
D03*
X-7874D02*
D03*
X-9843D02*
D03*
X-11811D02*
D03*
X-17717D02*
D03*
X-21654D02*
D03*
X-23622D02*
D03*
X23622Y-11811D02*
D03*
X21654D02*
D03*
X19685D02*
D03*
X17717D02*
D03*
X11811D02*
D03*
X9843D02*
D03*
X3937D02*
D03*
X1969D02*
D03*
X-1969D02*
D03*
X-3937D02*
D03*
X-9843D02*
D03*
X-11811D02*
D03*
X-17717D02*
D03*
X-19685D02*
D03*
X-21654D02*
D03*
X-23622D02*
D03*
X23622Y-9843D02*
D03*
X21654D02*
D03*
X15748D02*
D03*
X13780D02*
D03*
X9843D02*
D03*
X7874D02*
D03*
X5906D02*
D03*
X3937D02*
D03*
X0D02*
D03*
X-3937D02*
D03*
X-5906D02*
D03*
X-7874D02*
D03*
X-9843D02*
D03*
X-13780D02*
D03*
X-15748D02*
D03*
X-21654D02*
D03*
X-23622D02*
D03*
X23622Y-7874D02*
D03*
X21654D02*
D03*
X15748D02*
D03*
X11811D02*
D03*
X7874D02*
D03*
X5906D02*
D03*
X1969D02*
D03*
X0D02*
D03*
X-1969D02*
D03*
X-5906D02*
D03*
X-7874D02*
D03*
X-11811D02*
D03*
X-15748D02*
D03*
X-21654D02*
D03*
X-23622D02*
D03*
X23622Y-5906D02*
D03*
X21654D02*
D03*
X19685D02*
D03*
X17717D02*
D03*
X13780D02*
D03*
X9843D02*
D03*
X3937D02*
D03*
X0D02*
D03*
X-3937D02*
D03*
X-9843D02*
D03*
X-13780D02*
D03*
X-17717D02*
D03*
X-19685D02*
D03*
X-21654D02*
D03*
X-23622D02*
D03*
X23622Y-3937D02*
D03*
X21654D02*
D03*
X19685D02*
D03*
X15748D02*
D03*
X11811D02*
D03*
X9843D02*
D03*
X3937D02*
D03*
X1969D02*
D03*
X-1969D02*
D03*
X-3937D02*
D03*
X-9843D02*
D03*
X-11811D02*
D03*
X-15748D02*
D03*
X-19685D02*
D03*
X-21654D02*
D03*
X-23622D02*
D03*
X23622Y-1969D02*
D03*
X21654D02*
D03*
X17717D02*
D03*
X13780D02*
D03*
X7874D02*
D03*
X5906D02*
D03*
X1969D02*
D03*
X-1969D02*
D03*
X-5906D02*
D03*
X-7874D02*
D03*
X-13780D02*
D03*
X-17717D02*
D03*
X-21654D02*
D03*
X-23622D02*
D03*
X23622Y0D02*
D03*
X21654D02*
D03*
X15748D02*
D03*
X13780D02*
D03*
X7874D02*
D03*
X3937D02*
D03*
X0D02*
D03*
X-3937D02*
D03*
X-7874D02*
D03*
X-13780D02*
D03*
X-15748D02*
D03*
X-21654D02*
D03*
X-23622D02*
D03*
X23622Y1969D02*
D03*
X21654D02*
D03*
X19685D02*
D03*
X17717D02*
D03*
X15748D02*
D03*
X13780D02*
D03*
X11811D02*
D03*
X9843D02*
D03*
X7874D02*
D03*
X5906D02*
D03*
X3937D02*
D03*
X1969D02*
D03*
X0D02*
D03*
X-1969D02*
D03*
X-3937D02*
D03*
X-5906D02*
D03*
X-7874D02*
D03*
X-9843D02*
D03*
X-11811D02*
D03*
X-13780D02*
D03*
X-15748D02*
D03*
X-17717D02*
D03*
X-19685D02*
D03*
X-21654D02*
D03*
X-23622D02*
D03*
X23622Y3937D02*
D03*
X21654D02*
D03*
X19685D02*
D03*
X17717D02*
D03*
X15748D02*
D03*
X13780D02*
D03*
X11811D02*
D03*
X9843D02*
D03*
X7874D02*
D03*
X5906D02*
D03*
X3937D02*
D03*
X1969D02*
D03*
X0D02*
D03*
X-1969D02*
D03*
X-3937D02*
D03*
X-5906D02*
D03*
X-7874D02*
D03*
X-9843D02*
D03*
X-11811D02*
D03*
X-13780D02*
D03*
X-15748D02*
D03*
X-17717D02*
D03*
X-19685D02*
D03*
X-21654D02*
D03*
X-23622D02*
D03*
X1969Y-37402D02*
D03*
D36*
X-34449Y-53051D02*
D03*
Y-49508D02*
D03*
X-5906Y35236D02*
D03*
Y31693D02*
D03*
X-2953Y27362D02*
D03*
Y23819D02*
D03*
X-1969Y35236D02*
D03*
Y31693D02*
D03*
X0Y84842D02*
D03*
Y88386D02*
D03*
X22638Y12008D02*
D03*
Y15551D02*
D03*
X24606Y18898D02*
D03*
Y22441D02*
D03*
X29528Y14961D02*
D03*
Y18504D02*
D03*
X19685Y31693D02*
D03*
Y35236D02*
D03*
X20669Y23819D02*
D03*
Y27362D02*
D03*
X24606Y31693D02*
D03*
Y35236D02*
D03*
X36417Y14961D02*
D03*
Y18504D02*
D03*
X-41831Y29331D02*
D03*
Y25787D02*
D03*
X-25591Y33268D02*
D03*
Y29724D02*
D03*
X16732Y-78937D02*
D03*
Y-82480D02*
D03*
X30512Y-75000D02*
D03*
Y-78543D02*
D03*
D37*
X38583Y-43504D02*
D03*
Y-37205D02*
D03*
X30315D02*
D03*
Y-43504D02*
D03*
D38*
X26575Y-41339D02*
D03*
X-31496Y12795D02*
D03*
D39*
X29724Y-32480D02*
D03*
X33268D02*
D03*
X35630D02*
D03*
X39173D02*
D03*
X29724Y-28543D02*
D03*
X33268D02*
D03*
X-295Y22146D02*
D03*
X3248D02*
D03*
X38583Y-14764D02*
D03*
X42126D02*
D03*
X28740Y21654D02*
D03*
X32283D02*
D03*
X28740Y25591D02*
D03*
X32283D02*
D03*
X39173Y21654D02*
D03*
X35630D02*
D03*
Y25591D02*
D03*
X39173D02*
D03*
X46063Y21654D02*
D03*
X42520D02*
D03*
Y25591D02*
D03*
X46063D02*
D03*
X50394Y25591D02*
D03*
X53937D02*
D03*
X50394Y21654D02*
D03*
X53937D02*
D03*
X57284Y25591D02*
D03*
X60827D02*
D03*
X60827Y21654D02*
D03*
X57284D02*
D03*
X67716D02*
D03*
X64173D02*
D03*
Y25591D02*
D03*
X67716D02*
D03*
X-42126Y35433D02*
D03*
X-38583D02*
D03*
X-26772Y17717D02*
D03*
X-30315D02*
D03*
X-23917Y22146D02*
D03*
X-20374D02*
D03*
X-30709Y35433D02*
D03*
X-34252D02*
D03*
X33661Y-79724D02*
D03*
X37205D02*
D03*
Y-83661D02*
D03*
X33661D02*
D03*
D40*
X-11811Y17815D02*
D03*
Y29429D02*
D03*
X11811Y17815D02*
D03*
Y29429D02*
D03*
D41*
X-17028Y18406D02*
D03*
Y28839D02*
D03*
X-6594D02*
D03*
Y18406D02*
D03*
X6594D02*
D03*
Y28839D02*
D03*
X17028D02*
D03*
Y18406D02*
D03*
D42*
X-11811Y23622D02*
D03*
X11811D02*
D03*
D43*
X-8268Y17815D02*
D03*
X-9843D02*
D03*
X-13780D02*
D03*
X-15354D02*
D03*
Y29429D02*
D03*
X-13780D02*
D03*
X-9843D02*
D03*
X-8268D02*
D03*
X15354Y17815D02*
D03*
X13780D02*
D03*
X9843D02*
D03*
X8268D02*
D03*
Y29429D02*
D03*
X9843D02*
D03*
X13780D02*
D03*
X15354D02*
D03*
D44*
X-17618Y20079D02*
D03*
Y21654D02*
D03*
Y25591D02*
D03*
Y27165D02*
D03*
X-6004D02*
D03*
Y25591D02*
D03*
Y21654D02*
D03*
Y20079D02*
D03*
X6004D02*
D03*
Y21654D02*
D03*
Y25591D02*
D03*
Y27165D02*
D03*
X17618D02*
D03*
Y25591D02*
D03*
Y21654D02*
D03*
Y20079D02*
D03*
D45*
X-17618Y23622D02*
D03*
X-6004D02*
D03*
X6004D02*
D03*
X17618D02*
D03*
D46*
X0Y98425D02*
D03*
Y90551D02*
D03*
X29528Y11811D02*
D03*
Y3937D02*
D03*
X36417Y11811D02*
D03*
Y3937D02*
D03*
D47*
Y-14764D02*
D03*
X28543D02*
D03*
D48*
X2461Y25886D02*
D03*
Y32185D02*
D03*
X-21161Y25886D02*
D03*
Y32185D02*
D03*
D49*
X29528Y31496D02*
D03*
X37402D02*
D03*
X51181Y31496D02*
D03*
X59055D02*
D03*
D50*
X35433Y-90551D02*
D03*
X66929Y-98425D02*
D03*
X51181D02*
D03*
X59055D02*
D03*
X66929Y-74803D02*
D03*
X51181Y-90551D02*
D03*
X59055D02*
D03*
X66929D02*
D03*
X51181Y-82677D02*
D03*
X59055D02*
D03*
X66929D02*
D03*
X51181Y-74803D02*
D03*
X59055D02*
D03*
X19685Y-90551D02*
D03*
Y-98425D02*
D03*
X27559Y-90551D02*
D03*
Y-98425D02*
D03*
X51181Y-66929D02*
D03*
X59055D02*
D03*
X66929D02*
D03*
X51181Y-59055D02*
D03*
X59055D02*
D03*
X66929D02*
D03*
X51181Y-51181D02*
D03*
X59055D02*
D03*
X66929D02*
D03*
X51181Y-43307D02*
D03*
X59055D02*
D03*
X66929D02*
D03*
X51181Y-35433D02*
D03*
X59055D02*
D03*
X66929D02*
D03*
Y-27559D02*
D03*
X59055D02*
D03*
X51181D02*
D03*
X66929Y-19685D02*
D03*
X59055D02*
D03*
X51181D02*
D03*
Y-11811D02*
D03*
X59055D02*
D03*
X66929D02*
D03*
X59055Y-3937D02*
D03*
X66929D02*
D03*
X51181D02*
D03*
X35433Y-98425D02*
D03*
X43307Y-98425D02*
D03*
Y-90551D02*
D03*
X-66929Y3937D02*
D03*
Y11811D02*
D03*
Y19685D02*
D03*
X-59055Y27559D02*
D03*
Y3937D02*
D03*
Y11811D02*
D03*
Y19685D02*
D03*
X-51181D02*
D03*
Y11811D02*
D03*
Y3937D02*
D03*
X-66929Y27559D02*
D03*
X-51181D02*
D03*
X59055Y3937D02*
D03*
X51181D02*
D03*
X66929D02*
D03*
X59055Y11811D02*
D03*
X51181D02*
D03*
X66929D02*
D03*
X-66929Y-66929D02*
D03*
X-59055D02*
D03*
X-51181D02*
D03*
X-66929Y-59055D02*
D03*
X-59055D02*
D03*
X-51181D02*
D03*
X-66929Y-51181D02*
D03*
X-59055D02*
D03*
X-51181D02*
D03*
X-66929Y-43307D02*
D03*
X-59055D02*
D03*
X-51181D02*
D03*
X-66929Y-35433D02*
D03*
X-59055D02*
D03*
X-51181D02*
D03*
X-66929Y-98425D02*
D03*
X-59055D02*
D03*
X-51181D02*
D03*
X-66929Y-90551D02*
D03*
X-59055D02*
D03*
X-51181D02*
D03*
X-66929Y-82677D02*
D03*
X-59055D02*
D03*
X-51181D02*
D03*
X-66929Y-74803D02*
D03*
X-59055D02*
D03*
X-51181D02*
D03*
X-59055Y-27559D02*
D03*
X-66929D02*
D03*
X-51181D02*
D03*
Y-19685D02*
D03*
X-59055D02*
D03*
X-66929D02*
D03*
X-59055Y-11811D02*
D03*
X-51181D02*
D03*
X-66929D02*
D03*
Y-3937D02*
D03*
X-59055D02*
D03*
X-51181D02*
D03*
D51*
X0Y-94488D02*
D03*
X-31496D02*
D03*
D52*
X-35433Y-76772D02*
D03*
X3937D02*
D03*
D53*
X-4941Y66732D02*
D03*
X4941D02*
D03*
D54*
X-65925D02*
D03*
X65925D02*
D03*
D55*
X-61516Y98032D02*
D03*
X-19350D02*
D03*
X-51516D02*
D03*
X-9350D02*
D03*
X-22933Y43740D02*
D03*
X-17933Y53740D02*
D03*
X-27933D02*
D03*
X-32933Y43740D02*
D03*
X-37933Y53740D02*
D03*
X-42933Y43740D02*
D03*
X-47933Y53740D02*
D03*
X-52933Y43740D02*
D03*
X9350Y98032D02*
D03*
X51516D02*
D03*
X19350D02*
D03*
X61516D02*
D03*
X47933Y43740D02*
D03*
X52933Y53740D02*
D03*
X42933D02*
D03*
X37933Y43740D02*
D03*
X32933Y53740D02*
D03*
X27933Y43740D02*
D03*
X22933Y53740D02*
D03*
X17933Y43740D02*
D03*
M02*
